<svg fill="none" height="56" viewBox="0 0 71 56" width="71" xmlns="http://www.w3.org/2000/svg"><g fill="#000"><path d="m70.27 55.5857v-8.3855c-.8348.0594-1.6723.0594-2.5071 0-4.0128-.0106-7.9025-1.5307-11.0284-4.3099-3.1259-2.7791-5.3016-6.6515-6.1683-10.9791h14.6543v-8.1125h-14.6543c.8667-4.3276 3.0424-8.2 6.1683-10.9792 3.1259-2.7791 7.0156-4.29924 11.0284-4.30985.8386.00536 1.6761.07051 2.5071.19502v-8.385551c-.8474 0-1.6597 0-2.5071 0-3.3-.005126-6.5685.708371-9.6187 2.099681-3.0501 1.39131-5.822 3.43312-8.1571 6.00867-2.3351 2.57553-4.1876 5.63433-5.4515 9.00133s-1.9145 6.9762-1.9145 10.6211c-.0046 3.6483.6425 7.2616 1.9044 10.6331 1.2618 3.3715 3.1135 6.4349 5.4491 9.0146 2.3355 2.5797 5.109 4.625 8.1614 6.0187 3.0525 1.3938 6.3239 2.1086 9.6269 2.1034h2.5071"/><path d="m.00002483 27.9328c-.00464135 3.6449.64149817 7.2551 1.90113517 10.6241 1.25964 3.3689 3.10823 6.4306 5.44004 9.0098 2.33181 2.5791 5.101 4.6253 8.1494 6.0213 3.0483 1.396 6.316 2.1146 9.616 2.1146.8938.0593 1.7897.0593 2.6835 0v-8.5416c-.8873.1585-1.7847.2368-2.6835.2341-4.6826 0-9.1735-2.0546-12.4846-5.7118-3.31113-3.6572-5.1711-8.6175-5.1711-13.7895 0-5.1721 1.85997-10.1323 5.1711-13.7895 3.3111-3.6572 7.802-5.71183 12.4846-5.71183.8988-.00273 1.7962.07554 2.6835.23402v-8.268557c-.8938-.059275-1.7897-.059275-2.6835 0-6.6586 0-13.0445 2.921647-17.7529 8.122187-4.70837 5.20058-7.35367517 12.25398-7.35367517 19.60868"/></g></svg>