<svg fill="none" height="57" viewBox="0 0 50 57" width="50" xmlns="http://www.w3.org/2000/svg"><g fill="#1d1d1b"><path d="m33.6644 56.1161c-4.2924.0728-8.4723-1.518-11.8131-4.4958-1.0072-1.1018-1.7985-2.4205-2.325-3.8742-.5264-1.4537-.7768-3.0115-.7354-4.5765v-8.586h1.1629s11.8438-.8789 11.8438-9.431v-22.20865h-29.25746v22.27625c0 8.5521 11.75196 9.431 11.87436 9.431h1.1324v8.5184c.0431 1.5653-.2064 3.1236-.7329 4.5776-.5266 1.454-1.3189 2.7725-2.3276 3.8731-3.44621 2.9557-7.69493 4.5398-12.057945 4.4958v-2.738c3.709745.0808 7.334685-1.23 10.282945-3.7183.7674-.8483 1.3676-1.8628 1.7626-2.9798s.5764-2.3122.5327-3.5104v-6.0846c-4.95784-.6422-13.0067-3.7183-13.0067-12.0001v-24.980408h34.1847v24.980408c0 8.248-7.9265 11.3579-13.0067 12.0001v6.0846c-.0437 1.1982.1377 2.3934.5327 3.5104s.9952 2.1315 1.7626 2.9798c2.9143 2.4857 6.5097 3.7975 10.1911 3.7183z"/><path d="m44.7433 55.9809h-2.4484v-33.1608h1.1936c.3978 0 4.0091-.3381 4.0091-6.1184v-16.563516h2.4484v16.563516c.2113 1.891-.1972 3.8031-1.1515 5.3903-.9542 1.5872-2.3913 2.7448-4.0512 3.2633z"/><path d="m45.0499.104492h-2.4483v14.805708h2.4483z"/><path d="m40.1221.104492h-2.4483v14.805708h2.4483z"/></g></svg>