<svg fill="none" height="56" viewBox="0 0 60 56" width="60" xmlns="http://www.w3.org/2000/svg"><g fill="#000"><path d="m52.7314 42.941c-1.7954 2.0045-3.9342 3.5941-6.2916 4.6762-2.3573 1.0821-4.8861 1.635-7.439 1.6264-2.5485.0048-5.0724-.5499-7.4251-1.6319-2.3528-1.082-4.4875-2.6696-6.2799-4.6707-1.816-1.9997-3.2552-4.377-4.2346-6.9945-.9794-2.6176-1.4796-5.4235-1.4716-8.2558-.0046-2.8275.4973-5.6281 1.4766-8.2406.9793-2.6124 2.4167-4.9851 4.2296-6.9815 1.7958-1.996 3.9311-3.5804 6.2831-4.66203s4.8742-1.63918 7.4219-1.6406c2.552-.00229 5.0792.55345 7.4358 1.63519 2.3566 1.08173 4.496 2.66804 6.2948 4.66744.7664.8641 1.4573 1.8062 2.0634 2.8137l4.3306-3.5452c-2.2913-3.53338-5.312-6.41268-8.8117-8.39932-3.4998-1.98663-7.378-3.023375-11.3129-3.024303-6.119.018352-12.016 2.533523-16.5581 7.062273-4.5422 4.52875-7.409 10.75165-8.0498 17.47315h-9.42542v-17.97951h11.74352l4.2543-6.555913h-20.9653v54.951523l4.96748-4.0518v-20.4837h9.42542c.6408 6.7215 3.5076 12.9444 8.0498 17.4732 4.5421 4.5287 10.4391 7.0439 16.5581 7.0623 3.9349-.001 7.8131-1.0377 11.3129-3.0244 3.4997-1.9866 6.5204-4.8659 8.8117-8.3992l-4.3306-3.5453c-.6137.9489-1.3044 1.8342-2.0634 2.6449z"/><path d="m39.0017 17.8427c1.4459-.0021 2.8704.3866 4.1491 1.132 1.2788.7455 2.373 1.8251 3.1874 3.1448l4.3051-3.5172c-1.3088-2.0692-3.0506-3.7586-5.0775-4.9245s-4.2789-1.7738-6.5641-1.772c-1.8734.0037-3.7278.4149-5.4573 1.2101-1.7295.7953-3.3001 1.959-4.6224 3.4248-1.3223 1.4657-2.3704 3.2048-3.0842 5.1179s-1.0794 3.9628-1.0761 6.032c-.0067 4.1815 1.4889 8.1952 4.1587 11.1599s6.2955 4.6381 10.0813 4.653c2.2852.0018 4.5372-.6061 6.5641-1.772s3.7687-2.8553 5.0775-4.9245l-4.3051-3.5172c-.8144 1.3197-1.9086 2.3993-3.1874 3.1448-1.2787.7454-2.7032 1.1341-4.1491 1.132-2.3626-.0148-4.6237-1.0619-6.2896-2.9124-1.6658-1.8505-2.6009-4.354-2.6009-6.9636.0067-2.6047.9447-5.101 2.6098-6.9455 1.6651-1.8444 3.9225-2.8876 6.2807-2.9024z"/></g></svg>