<svg fill="none" height="58" viewBox="0 0 51 58" width="51" xmlns="http://www.w3.org/2000/svg"><g clip-rule="evenodd" fill="#1d1e1c" fill-rule="evenodd"><path d="m12.7379 8.53357c-.4333-.26838-.9141-.42999-1.4092-.47375-.4952-.04375-.9931.03138-1.45956.22025l12.10606-7.76305c.3731-.334464.839-.51702 1.3196-.51702.4805 0 .9465.182556 1.3196.51702l6.1965 3.99244 2.2089-4.182548v13.371488l-10.5569 6.8125 2.1802-4.1826-11.9626-7.63629z"/><path d="m4.47596 15.6628c.05932-1.0094.32234-1.9913.76978-2.8738.44743-.8825 1.06797-1.6433 1.81611-2.2266.74815-.58332 1.60496-.97436 2.50768-1.1445.90267-.17014 1.82847-.11505 2.70937.16122l4.4752 2.85178v14.7972h-12.30683v-11.5653z"/><path d="m16.7247 52.7674c.0086.5313.1148 1.0552.312 1.5399.1973.4847.4815.9202.8355 1.2801l-12.07738-7.668c-.4707-.1481-.87621-.481-1.14034-.9361s-.36869-1.0011-.29402-1.5354v-7.8898h-4.36046l10.4708-6.654 10.5857 6.7174h-4.3318v15.2092z"/><path d="m26.5066 57.0763c-.8179.4289-1.7111.6536-2.6164.6583s-1.8005-.2108-2.6219-.6312c-.8214-.4203-1.549-1.0353-2.1311-1.8012-.582-.7658-1.0043-1.6639-1.2368-2.6302v-5.7352l11.4749-7.3511 6.1677 11.7555-8.7783 5.5133h-.2581z"/><path d="m49.3707 26.8159c.4137-.2632.7696-.624 1.0423-1.0567.2728-.4327.4556-.9266.5355-1.4465v15.3677c.1074.5247.0459 1.0744-.174 1.5544-.22.48-.5845.8603-1.0308 1.0756l-6.1965 3.929 2.1516 4.1509-10.4996-6.6541v-13.4665l2.1803 4.1192 11.9625-7.573z"/><path d="m47.822 15.3146c.7604.5599 1.3981 1.3002 1.8665 2.1669.4683.8668.7556 1.8381.8408 2.8431.0853 1.005-.0338 2.0183-.3483 2.966s-.8167 1.806-1.4697 2.512l-4.5039 2.8518-11.475-7.3828 6.1678-11.75549 8.8357 5.64009h.2008z"/></g></svg>