<svg fill="none" height="43" viewBox="0 0 38 43" width="38" xmlns="http://www.w3.org/2000/svg"><g clip-rule="evenodd" fill="#000" fill-rule="evenodd"><path d="m37.5234.735792v1.340888l-8.1263 9.10682h.1529v4.0786h-2.5474c-.3821 4.721-.8662 9.5538-1.2228 14.3586-.0347.3155-.0347.6344 0 .9498 0 .1956.4076.5308.5859.7263 1.4266 1.5644 2.8022 3.3243 4.2287 4.8608 1.4266 1.5364 3.1588 3.7712 4.8146 5.587-.1783.2514-.4331.447-.6114.6704-2.2926-2.57-4.5344-5.2238-6.8016-7.8218.1386.7933.0045 1.6147-.3765 2.306-.381.6912-.982 1.2032-1.6869 1.4373-.691.2676-1.4467.254-2.1294-.0383-.6826-.2923-1.2468-.8438-1.5898-1.554h-7.6422v1.7599h-1.987c0-.5307 0-1.1733 0-1.732-.5604 0-.5095-.9777-.5859-1.704 0-1.3968-.2293-2.7935-.3057-4.2182 0 0-.1274 0-.1783 0-1.7068 1.8437-3.38809 3.7992-5.09485 5.587-1.29918 1.4247-2.54738 2.9611-3.94846 4.4138l-.99345 1.0894s-.28028.3911-.30575.3911c-.02548 0-.280153-.2793-.331101-.3352l-.331176-.3352c2.776677-3.0729 5.502377-6.1737 8.330007-9.2745.78969-.866 1.60488-1.7878 2.39458-2.7935.1274-.1676.3312-.3073.3312-.3911.0238-.316.0238-.6337 0-.9498-.3567-4.4696-.6878-8.7437-1.0445-13.2412.0173-.307.0173-.6149 0-.9219 0-.2235-.4585-.5866-.63684-.8101-3.28616-3.82714-6.62328-7.62632-9.88396-11.4255v-1.005665c1.27371 1.508495 2.54741 3.016995 3.89753 4.497555l6.34307 7.34691s.1274.1676.1529 0c0-1.1453-.1784-2.2627-.2548-3.43598h-1.29918c0-.3911 0-.81013 0-1.17329h1.12086c.28822-.82588.82832-1.51684 1.52842-1.95545 0 0 .6369-.30728.6878-.44696.051-.13968 0-.5587 0-.75425h1.7577s0 .16761 0 0c.9369-.24267 1.8918-.39226 2.8531-.44696 0-.13968 0-.33523 0-.47491h5.2477v.61458c1.7917.07243 3.5076.81131 4.8655 2.09514.1891-.23953.4391-.41177.7179-.49467.2788-.08291.5739-.07271.8474.02927s.5131.29111.6881.54321c.1749.2521.2773.55571.2941.87198 0 .25981-.0579.51568-.1687.74529-.1109.22961-.2713.42599-.4673.57201-.1959.14601-.4215.23722-.657.26568s-.4738-.0067-.694-.10242c0 .58664-.1274 1.17323-.1529 1.78783h.6878c.2038 0 .4076-.4469.5859-.6425l4.1014-4.55342c1.6304-1.78785 3.1588-3.5757 4.6872-5.251805zm-19.6915 5.000388h3.1333c.0129-.17664.0129-.35412 0-.53076h-3.1078v.53076zm-3.9485.41903v1.78785h12.4568c-.6368-1.48056-2.5474-1.81578-4.2796-2.12307v1.08947h-5.0948c.026-.40921.026-.81992 0-1.22914-.9692.07736-1.9316.23612-2.8786.47489zm-2.6748 1.78785h1.0444c0-.33522 0-.75425 0-1.06154-.4307.2312-.7863.60171-1.0189 1.06154zm.0255 1.28502c0 1.59232.2548 3.12872.3567 4.72102l6.4194 7.4028s.3567.5029.4076.5029c.0901-.0972.1751-.1998.2548-.3073 1.1972-1.313 2.3435-2.7935 3.5153-3.9389 0 0 .2293-.1676.2039-.2514-1.8597 0-3.7957 0-5.6298 0 0-.7822 0-1.5923 0-2.3465h6.5468v1.3129c.6114-.6425 1.2992-1.3968 1.9615-2.151.1784-.1955.5859-.5308.6369-.7543.0383-.4179.0383-.8391 0-1.257 0-.4191 0-.8102 0-1.2292h.4585l.1528-1.75989h-15.2844zm17.1695 2.73762-.5604.6146c-.1529.1676-.5095.4749-.5605.6425-.0509.1676 0 .4749 0 .6425h1.4266v-1.9834c-.0361-.0177-.0751-.0269-.1146-.0269s-.0786.0092-.1147.0269zm-9.3999 10.9506c1.7831 2.1231 3.6937 4.1903 5.4515 6.3133.1093.1422.2382.2647.382.3632.3822-4.721.7643-9.4421 1.1973-14.1352-.0495-.0133-.0927-.0465-.121-.0931-.0283-.0465-.0396-.103-.0318-.1583-2.2927 2.57-4.6108 5.1121-6.878 7.7101zm-1.8596.6705s.6368-.6146.6368-.7264l-.3566-.419c-1.9106-2.2348-3.8466-4.3858-5.7062-6.5648.3312 4.2183.6623 8.3806 1.019 12.6267 1.452-1.5364 2.9549-3.3242 4.4324-4.9445zm-3.6428 5.559c-.2038.1956-.6369.5587-.6878.7822-.051.2235 0 .4749 0 .7263.1528 1.76.2802 3.4081.4331 5.1122h8.6356c-.0759-.4591-.0644-.9304.0339-1.3844.0983-.4539.2813-.8806.5373-1.2533.256-.3726.5796-.683.9505-.9118.3708-.2287.7807-.3708 1.2041-.4173 0-.3352 0-.6425 0-1.0057-2.0379-2.4303-4.2032-4.8886-6.2921-7.319-1.6558 1.7879-3.2607 3.6874-4.9165 5.587zm10.6736 4.5255c-.2377.1299-.4416.3235-.593.5627-.1514.2393-.2453.5165-.2731.8062-.059.4474.0439.9023.2866 1.2677.2428.3654.6062.6122 1.0126.6877.2332.0549.4747.0512.7064-.0109s.4476-.1809.6314-.3476c.1839-.1666.3309-.3768.4301-.6147.0992-.2378.148-.4973.1426-.7588.0015-.2448-.0445-.4873-.1348-.7112-.0902-.224-.2228-.4245-.3889-.5881-.1661-.1637-.3619-.2869-.5747-.3615-.2127-.0745-.4374-.0988-.6593-.0711-.1938-.0376-.3921-.0376-.5859 0"/><path d="m24.8325 34.1128c.1482-.0247.2996-.0133.4433.0334.1437.0468.2763.1277.3883.2371.1119.1094.2004.2444.2592.3956s.0865.3148.081.479c-.0116.265-.1028.5183-.2595.7204s-.37.3416-.6066.3968c-.1843.0321-.3731.0108-.5475-.0618-.1745-.0726-.3287-.194-.4471-.3521-.1185-.1581-.1972-.3475-.2283-.5492-.0311-.2018-.0134-.4089.0511-.6009.0653-.1972.1823-.3688.3365-.4931.1541-.1242.3385-.1956.5296-.2052"/></g></svg>