<svg fill="none" height="60" viewBox="0 0 38 60" width="38" xmlns="http://www.w3.org/2000/svg"><g fill="#000"><path d="m34.1353 51.2856h-31.12944v8.4411h31.12944z"/><g clip-rule="evenodd" fill-rule="evenodd"><path d="m37.5234.357725v1.350575l-8.1263 9.1726h.1529v4.108h-2.5474c-.3821 4.7552-.8662 9.6229-1.2228 14.4624-.0347.3177-.0347.6389 0 .9567 0 .1969.4076.5346.5859.7315 1.4266 1.5757 2.8022 3.3483 4.2287 4.8958 1.4266 1.5476 3.1588 3.7985 4.8146 5.6274-.1783.2533-.4331.4502-.6114.6753-2.2926-2.5886-4.5344-5.2616-6.8016-7.8783.1386.799.0045 1.6264-.3765 2.3226s-.982 1.2119-1.6869 1.4477c-.691.2695-1.4467.2558-2.1294-.0386-.6826-.2944-1.2468-.8498-1.5898-1.5652h-7.6422v1.7726h-1.987c0-.5346 0-1.1817 0-1.7444-.5604 0-.5095-.9848-.5859-1.7164 0-1.4068-.2293-2.8137-.3057-4.2487 0 0-.1274 0-.1783 0-1.7068 1.8571-3.38809 3.8266-5.09485 5.6274-1.29918 1.435-2.54738 2.9825-3.94846 4.4456l-.99345 1.0974s-.28028.3939-.30575.3939c-.02548 0-.280153-.2814-.331101-.3376l-.331176-.3377c2.776677-3.095 5.502377-6.2182 8.330007-9.3414.78969-.8723 1.60488-1.8008 2.39458-2.8137.1274-.1689.3312-.3095.3312-.394.0238-.3183.0238-.6383 0-.9566-.3567-4.5019-.6878-8.8069-1.0445-13.3369.0173-.3092.0173-.6193 0-.9285 0-.2251-.4585-.5909-.63684-.816-3.28616-3.85476-6.62328-7.68138-9.88396-11.508v-1.012925c1.27371 1.519395 2.54741 3.038785 3.89753 4.530045l6.34307 7.39998s.1274.1689.1529 0c0-1.1536-.1784-2.2791-.2548-3.46081h-1.29918c0-.39392 0-.81598 0-1.18176h1.12086c.28822-.83185.82832-1.5278 1.52842-1.96957 0 0 .6369-.30951.6878-.45019.051-.14069 0-.56274 0-.7597h1.7577s0 .16882 0 0c.9369-.24442 1.8918-.3951 2.8531-.45019 0-.14069 0-.33765 0-.47834h5.2477v.61902c1.7917.07295 3.5076.81717 4.8655 2.11027.1891-.24126.4391-.41474.7179-.49824.2788-.08351.5739-.07324.8474.02948s.5131.29321.6881.54713c.1749.25393.2773.55973.2941.87829 0 .26168-.0579.5194-.1687.75067-.1109.23127-.2713.42906-.4673.57613-.1959.14707-.4215.23894-.657.26761-.2355.02866-.4738-.00675-.694-.10316 0 .59087-.1274 1.18176-.1529 1.80076h.6878c.2038 0 .4076-.4502.5859-.64715l4.1014-4.58632c1.6304-1.80076 3.1588-3.60152 4.6872-5.289738zm-19.6915 5.036505h3.1333c.0129-.17791.0129-.35668 0-.5346h-3.1078v.5346zm-3.9485.42206v1.80076h12.4568c-.6368-1.49126-2.5474-1.82889-4.2796-2.1384v1.09734h-5.0948c.026-.41218.026-.82585 0-1.23802-.9692.07791-1.9316.23782-2.8786.47832zm-2.6748 1.80076h1.0444c0-.33764 0-.7597 0-1.06921-.4307.23287-.7863.60606-1.0189 1.06921zm.0255 1.2943c0 1.60385.2548 3.15135.3567 4.75515l6.4194 7.4563s.3567.5064.4076.5064c.0901-.0978.1751-.2011.2548-.3095 1.1972-1.3224 2.3435-2.8137 3.5153-3.9673 0 0 .2293-.1688.2039-.2532-1.8597 0-3.7957 0-5.6298 0 0-.7878 0-1.6038 0-2.3635h6.5468v1.3224c.6114-.6471 1.2992-1.4068 1.9615-2.1665.1784-.197.5859-.5346.6369-.7597.0383-.421.0383-.8452 0-1.2662 0-.422 0-.8159 0-1.238h.4585l.1528-1.77262h-15.2844zm17.1695 2.75745-.5604.619c-.1529.1688-.5095.4783-.5605.6471-.0509.1688 0 .4784 0 .6472h1.4266v-1.9977c-.0361-.0179-.0751-.0271-.1146-.0271s-.0786.0092-.1147.0271zm-9.3999 11.0296c1.7831 2.1384 3.6937 4.2206 5.4515 6.359.1093.1431.2382.2665.382.3658.3822-4.7552.7643-9.5103 1.1973-14.2373-.0495-.0134-.0927-.0469-.121-.0938s-.0396-.1038-.0318-.1594c-2.2927 2.5886-4.6108 5.149-6.878 7.7657zm-1.8596.6753s.6368-.619.6368-.7315l-.3566-.4221c-1.9106-2.2509-3.8466-4.4175-5.7062-6.6122.3312 4.2487.6623 8.4411 1.019 12.7179 1.452-1.5475 2.9549-3.3483 4.4324-4.9802zm-3.6428 5.5993c-.2038.1969-.6369.5627-.6878.7878-.051.2251 0 .4783 0 .7316.1528 1.7726.2802 3.4327.4331 5.149h8.6356c-.0759-.4624-.0644-.9371.0339-1.3943.0983-.4573.2813-.887.5373-1.2624.256-.3753.5796-.688.9505-.9184.3708-.2304.7807-.3735 1.2041-.4203 0-.3377 0-.6472 0-1.0129-2.0379-2.448-4.2032-4.924-6.2921-7.3719-1.6558 1.8007-3.2607 3.7141-4.9165 5.6274zm10.6736 4.5582c-.2377.1308-.4416.3257-.593.5667s-.2453.5203-.2731.812c-.059.4506.0439.9088.2866 1.2769.2428.368.6062.6166 1.0126.6927.2332.0553.4747.0515.7064-.011.2317-.0626.4476-.1823.6314-.3501.1839-.1679.3309-.3796.4301-.6192s.148-.5009.1426-.7642c.0015-.2467-.0445-.4909-.1348-.7165-.0902-.2256-.2228-.4274-.3889-.5923s-.3619-.2889-.5747-.364c-.2127-.0752-.4374-.0996-.6593-.0717-.1938-.0379-.3921-.0379-.5859 0"/><path d="m24.8618 33.9535c.1482-.0249.2996-.0134.4433.0336.1437.0471.2763.1287.3882.2389.112.1101.2005.2462.2593.3985.0588.1524.0865.3171.081.4826-.0116.2669-.1028.5221-.2595.7257s-.37.3441-.6066.3998c-.1843.0323-.3731.0108-.5475-.0623-.1745-.0732-.3287-.1955-.4471-.3547-.1185-.1593-.1972-.3501-.2283-.5533-.0311-.2033-.0134-.412.0511-.6054.0653-.1986.1823-.3715.3365-.4967.1541-.1252.3385-.1971.5296-.2067"/></g></g></svg>