<svg xmlns="http://www.w3.org/2000/svg" width="64px" height="66px" viewBox="0 0 64 65" version="1.1">
<g id="surface1">
<path style=" stroke:none;fill-rule:nonzero;fill:rgb(1.568627%,2.352941%,3.137255%);fill-opacity:1;" d="M 63.210938 1.671875 C 63.425781 3.414062 63.425781 3.414062 63.078125 4.019531 C 62.75 4.417969 62.355469 4.738281 61.949219 5.0625 C 61.746094 5.238281 61.578125 5.421875 61.402344 5.628906 C 60.910156 6.1875 60.378906 6.710938 59.847656 7.230469 C 59.664062 7.410156 59.480469 7.589844 59.296875 7.773438 C 58.84375 8.21875 58.386719 8.667969 57.933594 9.113281 C 57.546875 9.492188 57.160156 9.871094 56.777344 10.25 C 56.597656 10.425781 56.417969 10.601562 56.238281 10.777344 C 55.777344 11.234375 55.316406 11.6875 54.898438 12.179688 C 54.554688 12.578125 54.175781 12.882812 53.757812 13.199219 C 51.253906 15.082031 51.253906 15.082031 49.910156 17.773438 C 49.683594 19.613281 49.886719 21.472656 50.117188 23.300781 C 48.777344 23.300781 47.433594 23.300781 46.054688 23.300781 C 46.054688 23.707031 46.054688 24.109375 46.054688 24.527344 C 46.039062 24.773438 46.019531 25.015625 45.996094 25.257812 C 45.984375 25.390625 45.96875 25.519531 45.957031 25.65625 C 45.945312 25.792969 45.929688 25.933594 45.914062 26.078125 C 45.898438 26.230469 45.886719 26.382812 45.871094 26.53125 C 45.832031 26.941406 45.789062 27.351562 45.75 27.761719 C 45.707031 28.199219 45.664062 28.632812 45.621094 29.066406 C 45.539062 29.894531 45.457031 30.722656 45.375 31.550781 C 45.28125 32.476562 45.191406 33.398438 45.101562 34.324219 C 45.066406 34.6875 45.03125 35.046875 44.992188 35.410156 C 44.925781 36.117188 44.855469 36.828125 44.785156 37.535156 C 44.742188 37.960938 44.699219 38.386719 44.660156 38.816406 C 44.644531 38.9375 44.644531 38.9375 44.632812 39.0625 C 44.542969 40 44.449219 40.9375 44.351562 41.875 C 44.308594 42.324219 44.261719 42.769531 44.21875 43.214844 C 44.199219 43.410156 44.179688 43.605469 44.160156 43.800781 C 44.132812 44.0625 44.105469 44.320312 44.082031 44.578125 C 44.066406 44.71875 44.050781 44.859375 44.035156 45.003906 C 44.015625 45.503906 44.019531 45.898438 44.332031 46.300781 C 44.414062 46.382812 44.5 46.460938 44.585938 46.542969 C 44.726562 46.679688 44.726562 46.679688 44.867188 46.816406 C 44.964844 46.90625 45.0625 46.996094 45.164062 47.089844 C 45.355469 47.273438 45.546875 47.457031 45.738281 47.636719 C 45.828125 47.726562 45.921875 47.8125 46.015625 47.90625 C 46.328125 48.214844 46.617188 48.535156 46.902344 48.867188 C 47.097656 49.089844 47.304688 49.296875 47.519531 49.503906 C 47.886719 49.851562 48.214844 50.222656 48.550781 50.601562 C 48.890625 50.988281 49.246094 51.359375 49.601562 51.730469 C 49.679688 51.8125 49.753906 51.894531 49.835938 51.976562 C 50.460938 52.632812 51.101562 53.273438 51.753906 53.902344 C 52.179688 54.320312 52.582031 54.75 52.972656 55.195312 C 53.265625 55.523438 53.582031 55.832031 53.898438 56.136719 C 54.359375 56.582031 54.796875 57.042969 55.222656 57.527344 C 55.546875 57.898438 55.890625 58.253906 56.234375 58.609375 C 56.820312 59.226562 57.40625 59.847656 57.984375 60.472656 C 58.257812 60.769531 58.539062 61.054688 58.832031 61.332031 C 58.890625 61.386719 58.949219 61.445312 59.011719 61.5 C 59.171875 61.652344 59.335938 61.800781 59.496094 61.953125 C 59.710938 62.210938 59.710938 62.210938 59.710938 62.445312 C 59.574219 62.703125 59.410156 62.875 59.195312 63.078125 C 59.125 63.144531 59.050781 63.214844 58.976562 63.285156 C 58.921875 63.335938 58.863281 63.386719 58.808594 63.4375 C 58.457031 63.285156 58.214844 63.105469 57.945312 62.835938 C 57.867188 62.757812 57.792969 62.683594 57.714844 62.605469 C 57.632812 62.527344 57.554688 62.449219 57.472656 62.367188 C 57.398438 62.289062 57.320312 62.210938 57.238281 62.132812 C 56.789062 61.6875 56.363281 61.226562 55.945312 60.746094 C 55.671875 60.441406 55.378906 60.15625 55.082031 59.871094 C 54.640625 59.441406 54.21875 59 53.816406 58.53125 C 53.480469 58.160156 53.117188 57.816406 52.757812 57.46875 C 52.527344 57.238281 52.3125 57.003906 52.097656 56.757812 C 51.777344 56.382812 51.429688 56.035156 51.074219 55.691406 C 50.726562 55.351562 50.386719 55.007812 50.066406 54.636719 C 49.671875 54.179688 49.238281 53.757812 48.800781 53.335938 C 48.421875 52.96875 48.082031 52.585938 47.746094 52.179688 C 47.730469 52.363281 47.730469 52.363281 47.710938 52.554688 C 47.539062 54.335938 47.066406 55.578125 45.65625 56.769531 C 44.613281 57.523438 43.277344 57.886719 41.988281 57.753906 C 40.375 57.464844 39.175781 56.8125 38.179688 55.519531 C 38.039062 55.300781 38.039062 55.300781 38.039062 55.078125 C 33.980469 55.078125 29.917969 55.078125 25.734375 55.078125 C 25.734375 55.921875 25.734375 56.769531 25.734375 57.640625 C 24.617188 57.640625 23.5 57.640625 22.347656 57.640625 C 22.347656 56.796875 22.347656 55.949219 22.347656 55.078125 C 22.164062 55.003906 21.976562 54.929688 21.785156 54.855469 C 21.320312 54.152344 21.351562 53.121094 21.292969 52.3125 C 21.277344 52.089844 21.257812 51.867188 21.238281 51.644531 C 21.214844 51.335938 21.191406 51.027344 21.167969 50.71875 C 21.125 50.179688 21.082031 49.636719 21.039062 49.09375 C 21.015625 48.808594 20.992188 48.519531 20.972656 48.230469 C 20.960938 48.101562 20.953125 47.96875 20.941406 47.835938 C 20.929688 47.664062 20.929688 47.664062 20.914062 47.488281 C 20.882812 47.152344 20.828125 46.824219 20.769531 46.492188 C 20.253906 47 19.738281 47.507812 19.222656 48.015625 C 19.046875 48.1875 18.871094 48.359375 18.695312 48.53125 C 18.441406 48.78125 18.1875 49.03125 17.9375 49.28125 C 17.859375 49.355469 17.78125 49.429688 17.703125 49.507812 C 17.265625 49.941406 16.851562 50.386719 16.445312 50.847656 C 16.140625 51.1875 15.816406 51.507812 15.488281 51.828125 C 15.417969 51.894531 15.347656 51.964844 15.277344 52.035156 C 14.984375 52.320312 14.691406 52.609375 14.394531 52.898438 C 14.179688 53.109375 13.960938 53.320312 13.746094 53.535156 C 13.648438 53.628906 13.648438 53.628906 13.550781 53.726562 C 13.21875 54.050781 12.898438 54.382812 12.59375 54.734375 C 12.175781 55.210938 11.730469 55.65625 11.277344 56.097656 C 11.191406 56.179688 11.109375 56.265625 11.019531 56.351562 C 10.660156 56.703125 10.304688 57.054688 9.945312 57.40625 C 9.679688 57.664062 9.417969 57.921875 9.152344 58.179688 C 9.035156 58.296875 9.035156 58.296875 8.910156 58.417969 C 8.472656 58.851562 8.054688 59.296875 7.648438 59.761719 C 7.300781 60.148438 6.929688 60.511719 6.558594 60.875 C 6.476562 60.957031 6.394531 61.035156 6.3125 61.117188 C 6.054688 61.371094 5.796875 61.625 5.539062 61.878906 C 5.363281 62.050781 5.1875 62.222656 5.011719 62.398438 C 4.582031 62.820312 4.152344 63.242188 3.726562 63.660156 C 3.367188 63.492188 3.125 63.320312 2.851562 63.035156 C 2.78125 62.964844 2.710938 62.894531 2.640625 62.820312 C 2.589844 62.769531 2.535156 62.714844 2.484375 62.660156 C 3.152344 61.855469 3.902344 61.140625 4.652344 60.410156 C 4.753906 60.308594 4.855469 60.210938 4.960938 60.109375 C 5.050781 60.019531 5.140625 59.933594 5.234375 59.839844 C 5.464844 59.601562 5.683594 59.363281 5.902344 59.113281 C 6.332031 58.625 6.792969 58.167969 7.257812 57.710938 C 7.347656 57.625 7.433594 57.539062 7.523438 57.453125 C 7.894531 57.089844 8.261719 56.726562 8.632812 56.363281 C 8.902344 56.097656 9.175781 55.832031 9.445312 55.566406 C 9.527344 55.484375 9.609375 55.402344 9.695312 55.320312 C 9.8125 55.207031 9.8125 55.207031 9.933594 55.085938 C 10.035156 54.988281 10.035156 54.988281 10.140625 54.886719 C 10.351562 54.664062 10.554688 54.4375 10.757812 54.207031 C 11.148438 53.765625 11.554688 53.347656 11.976562 52.9375 C 12.054688 52.859375 12.128906 52.785156 12.207031 52.710938 C 12.371094 52.546875 12.535156 52.386719 12.699219 52.226562 C 12.957031 51.972656 13.214844 51.71875 13.476562 51.460938 C 14.117188 50.828125 14.761719 50.195312 15.40625 49.5625 C 15.949219 49.027344 16.496094 48.488281 17.039062 47.953125 C 17.292969 47.703125 17.546875 47.453125 17.800781 47.203125 C 17.960938 47.046875 18.117188 46.894531 18.273438 46.738281 C 18.34375 46.671875 18.414062 46.601562 18.484375 46.53125 C 18.90625 46.117188 19.300781 45.6875 19.683594 45.242188 C 19.863281 45.046875 20.050781 44.890625 20.253906 44.722656 C 20.445312 44.53125 20.535156 44.429688 20.578125 44.164062 C 20.554688 43.226562 20.472656 42.296875 20.390625 41.367188 C 20.371094 41.175781 20.355469 40.988281 20.339844 40.796875 C 20.296875 40.285156 20.25 39.769531 20.203125 39.257812 C 20.15625 38.71875 20.109375 38.179688 20.0625 37.640625 C 19.976562 36.621094 19.886719 35.597656 19.796875 34.578125 C 19.664062 33.082031 19.535156 31.585938 19.402344 30.089844 C 19.394531 29.980469 19.382812 29.871094 19.375 29.757812 C 19.355469 29.539062 19.335938 29.316406 19.316406 29.097656 C 19.261719 28.457031 19.203125 27.820312 19.148438 27.179688 C 19.113281 26.78125 19.078125 26.378906 19.042969 25.980469 C 19.027344 25.796875 19.011719 25.613281 18.996094 25.429688 C 18.972656 25.175781 18.949219 24.921875 18.929688 24.667969 C 18.921875 24.589844 18.914062 24.511719 18.90625 24.429688 C 18.875 24.050781 18.84375 23.675781 18.820312 23.292969 C 18.8125 23.15625 18.800781 23.015625 18.792969 22.871094 C 18.785156 22.75 18.777344 22.625 18.773438 22.5 C 18.664062 21.511719 17.804688 20.894531 17.121094 20.242188 C 16.492188 19.636719 15.871094 19.03125 15.300781 18.371094 C 15.03125 18.066406 14.742188 17.785156 14.449219 17.503906 C 14.011719 17.078125 13.59375 16.644531 13.195312 16.179688 C 12.910156 15.867188 12.605469 15.570312 12.304688 15.273438 C 11.933594 14.914062 11.574219 14.558594 11.238281 14.167969 C 10.882812 13.75 10.492188 13.371094 10.101562 12.988281 C 9.644531 12.542969 9.207031 12.089844 8.789062 11.605469 C 8.503906 11.292969 8.203125 11 7.902344 10.703125 C 7.53125 10.34375 7.171875 9.984375 6.835938 9.59375 C 6.417969 9.113281 5.960938 8.671875 5.503906 8.226562 C 5.109375 7.839844 4.738281 7.445312 4.378906 7.027344 C 4.066406 6.679688 3.726562 6.355469 3.394531 6.027344 C 3.023438 5.667969 2.675781 5.292969 2.339844 4.898438 C 2.160156 4.6875 2.160156 4.6875 1.972656 4.550781 C 1.675781 4.304688 1.492188 4.132812 1.414062 3.75 C 1.402344 3.449219 1.40625 3.15625 1.425781 2.855469 C 1.429688 2.753906 1.429688 2.648438 1.433594 2.542969 C 1.441406 2.289062 1.453125 2.039062 1.46875 1.785156 C 1.980469 2.203125 2.449219 2.636719 2.890625 3.128906 C 3.375 3.65625 3.871094 4.164062 4.382812 4.660156 C 4.753906 5.027344 5.121094 5.386719 5.460938 5.785156 C 5.921875 6.320312 6.4375 6.808594 6.945312 7.304688 C 7.371094 7.71875 7.777344 8.144531 8.164062 8.597656 C 8.496094 8.964844 8.855469 9.304688 9.210938 9.652344 C 9.441406 9.882812 9.65625 10.117188 9.871094 10.363281 C 10.191406 10.734375 10.539062 11.082031 10.890625 11.429688 C 11.316406 11.839844 11.714844 12.261719 12.097656 12.707031 C 12.34375 12.980469 12.605469 13.234375 12.867188 13.492188 C 13.199219 13.8125 13.519531 14.136719 13.820312 14.488281 C 14.144531 14.859375 14.488281 15.207031 14.84375 15.554688 C 15.191406 15.894531 15.535156 16.234375 15.851562 16.605469 C 16.246094 17.0625 16.675781 17.480469 17.109375 17.898438 C 17.5625 18.34375 17.988281 18.804688 18.398438 19.289062 C 18.3125 17.6875 18.1875 16.089844 18.058594 14.492188 C 17.390625 14.492188 16.71875 14.492188 16.027344 14.492188 C 15.902344 13.210938 15.902344 13.210938 16.027344 12.710938 C 16.625 12.710938 17.21875 12.710938 17.835938 12.710938 C 17.910156 12.488281 17.984375 12.269531 18.058594 12.042969 C 18.773438 10.792969 19.703125 10.046875 21.035156 9.511719 C 21.398438 9.199219 21.390625 9.074219 21.433594 8.613281 C 21.441406 8.417969 21.445312 8.222656 21.445312 8.027344 C 21.546875 8.027344 21.648438 8.03125 21.753906 8.03125 C 24.308594 8.078125 24.308594 8.078125 26.839844 7.773438 C 27.628906 7.625 28.433594 7.609375 29.234375 7.582031 C 29.234375 7.359375 29.234375 7.140625 29.234375 6.914062 C 32.140625 6.914062 35.046875 6.914062 38.039062 6.914062 C 38.039062 7.207031 38.039062 7.5 38.039062 7.804688 C 38.121094 7.808594 38.203125 7.8125 38.285156 7.820312 C 39.140625 7.875 39.945312 8.007812 40.777344 8.207031 C 40.898438 8.238281 41.019531 8.265625 41.148438 8.296875 C 42.929688 8.746094 44.554688 9.484375 45.941406 10.703125 C 46.023438 10.632812 46.109375 10.566406 46.195312 10.496094 C 46.90625 9.949219 47.539062 9.949219 48.421875 10.035156 C 49.195312 10.246094 49.597656 10.714844 50.03125 11.359375 C 50.277344 12.050781 50.289062 12.703125 50.003906 13.378906 C 49.683594 13.945312 49.304688 14.382812 48.699219 14.648438 C 48.125 14.792969 47.542969 14.742188 46.957031 14.71875 C 46.882812 15.488281 46.808594 16.261719 46.730469 17.058594 C 47.652344 17.09375 47.652344 17.09375 48.214844 16.601562 C 48.417969 16.394531 48.605469 16.183594 48.792969 15.96875 C 49.183594 15.527344 49.59375 15.109375 50.015625 14.695312 C 50.089844 14.617188 50.167969 14.542969 50.246094 14.46875 C 50.410156 14.304688 50.574219 14.144531 50.734375 13.984375 C 50.996094 13.730469 51.253906 13.476562 51.511719 13.21875 C 52.15625 12.585938 52.800781 11.953125 53.445312 11.320312 C 53.988281 10.785156 54.535156 10.246094 55.078125 9.710938 C 55.332031 9.460938 55.585938 9.210938 55.839844 8.960938 C 55.996094 8.804688 56.15625 8.652344 56.3125 8.496094 C 56.417969 8.394531 56.417969 8.394531 56.523438 8.289062 C 56.941406 7.875 57.335938 7.449219 57.722656 7.007812 C 57.960938 6.738281 58.214844 6.484375 58.46875 6.230469 C 58.574219 6.125 58.675781 6.023438 58.78125 5.917969 C 58.894531 5.808594 59.003906 5.699219 59.113281 5.59375 C 59.230469 5.476562 59.34375 5.363281 59.457031 5.25 C 59.699219 5.015625 59.9375 4.777344 60.175781 4.542969 C 60.484375 4.238281 60.789062 3.9375 61.097656 3.632812 C 61.335938 3.398438 61.570312 3.164062 61.808594 2.929688 C 61.921875 2.820312 62.035156 2.707031 62.148438 2.59375 C 62.304688 2.4375 62.460938 2.285156 62.621094 2.128906 C 62.753906 1.996094 62.753906 1.996094 62.890625 1.859375 C 63.097656 1.671875 63.097656 1.671875 63.210938 1.671875 Z M 31.152344 8.695312 C 31.152344 8.917969 31.152344 9.136719 31.152344 9.367188 C 32.792969 9.367188 34.429688 9.367188 36.121094 9.367188 C 36.121094 9.144531 36.121094 8.925781 36.121094 8.695312 C 34.480469 8.695312 32.84375 8.695312 31.152344 8.695312 Z M 26.984375 9.6875 C 26.773438 9.714844 26.773438 9.714844 26.558594 9.746094 C 26.351562 9.773438 26.351562 9.773438 26.140625 9.804688 C 25.957031 9.828125 25.957031 9.828125 25.765625 9.855469 C 25.375 9.925781 24.988281 10.039062 24.605469 10.144531 C 24.605469 10.992188 24.605469 11.839844 24.605469 12.710938 C 31.273438 12.710938 37.941406 12.710938 44.8125 12.710938 C 44.339844 11.546875 43.371094 11.058594 42.25 10.582031 C 40.953125 10.082031 39.429688 9.699219 38.039062 9.699219 C 38.039062 10.214844 38.039062 10.730469 38.039062 11.261719 C 35.132812 11.261719 32.226562 11.261719 29.234375 11.261719 C 29.234375 10.671875 29.234375 10.082031 29.234375 9.476562 C 28.464844 9.476562 27.742188 9.578125 26.984375 9.6875 Z M 20.710938 11.726562 C 20.621094 11.792969 20.535156 11.859375 20.441406 11.925781 C 20.152344 12.171875 20.152344 12.171875 19.980469 12.710938 C 20.464844 12.710938 20.949219 12.710938 21.445312 12.710938 C 21.445312 12.269531 21.445312 11.828125 21.445312 11.371094 C 21.117188 11.371094 20.972656 11.53125 20.710938 11.726562 Z M 19.980469 14.605469 C 20.089844 16.039062 20.203125 17.476562 20.316406 18.953125 C 20.332031 19.453125 20.34375 19.957031 20.359375 20.472656 C 20.441406 21.480469 20.667969 21.980469 21.445312 22.636719 C 21.574219 22.738281 21.707031 22.84375 21.835938 22.941406 C 22.0625 23.121094 22.242188 23.324219 22.425781 23.546875 C 22.8125 23.996094 23.234375 24.402344 23.660156 24.8125 C 23.886719 25.042969 24.105469 25.277344 24.316406 25.523438 C 24.640625 25.898438 24.988281 26.246094 25.339844 26.589844 C 25.6875 26.929688 26.027344 27.269531 26.34375 27.636719 C 26.703125 28.054688 27.089844 28.4375 27.484375 28.820312 C 28.25 29.570312 28.25 29.570312 28.601562 29.976562 C 29.058594 30.515625 29.574219 31 30.082031 31.496094 C 30.523438 31.929688 30.949219 32.367188 31.34375 32.84375 C 31.507812 33.03125 31.507812 33.03125 31.832031 33.226562 C 31.871094 33.175781 31.914062 33.125 31.957031 33.074219 C 32.625 32.300781 33.359375 31.59375 34.089844 30.882812 C 34.683594 30.304688 35.269531 29.722656 35.808594 29.097656 C 36.207031 28.652344 36.644531 28.242188 37.074219 27.824219 C 37.253906 27.644531 37.4375 27.46875 37.621094 27.289062 C 37.703125 27.210938 37.78125 27.132812 37.863281 27.050781 C 38.050781 26.898438 38.050781 26.898438 38.039062 26.757812 C 37.933594 26.757812 37.824219 26.753906 37.714844 26.753906 C 36.714844 26.742188 35.710938 26.730469 34.707031 26.71875 C 34.191406 26.714844 33.675781 26.707031 33.160156 26.703125 C 32.660156 26.699219 32.164062 26.691406 31.667969 26.683594 C 31.476562 26.683594 31.285156 26.679688 31.097656 26.679688 C 30.832031 26.675781 30.566406 26.671875 30.300781 26.667969 C 30.179688 26.667969 30.179688 26.667969 30.0625 26.667969 C 29.683594 26.660156 29.378906 26.625 29.007812 26.535156 C 29.007812 25.394531 29.007812 24.253906 29.007812 23.078125 C 32.585938 23.117188 36.160156 23.152344 39.84375 23.191406 C 39.84375 23.777344 39.84375 24.367188 39.84375 24.972656 C 40.394531 24.515625 40.917969 24.042969 41.425781 23.539062 C 41.496094 23.46875 41.566406 23.398438 41.640625 23.328125 C 41.789062 23.179688 41.9375 23.03125 42.085938 22.886719 C 42.316406 22.660156 42.542969 22.433594 42.773438 22.207031 C 42.917969 22.066406 43.0625 21.921875 43.210938 21.777344 C 43.277344 21.710938 43.347656 21.644531 43.417969 21.574219 C 43.890625 21.101562 44.035156 20.914062 44.035156 20.246094 C 44.035156 20.164062 44.03125 20.082031 44.03125 20 C 44.03125 19.914062 44.03125 19.832031 44.03125 19.742188 C 44.03125 19.476562 44.03125 19.207031 44.027344 18.941406 C 44.027344 18.757812 44.027344 18.578125 44.027344 18.394531 C 44.027344 17.949219 44.023438 17.503906 44.019531 17.058594 C 44.28125 17.058594 44.542969 17.058594 44.8125 17.058594 C 44.886719 16.25 44.960938 15.4375 45.035156 14.605469 C 36.769531 14.605469 28.5 14.605469 19.980469 14.605469 Z M 47.222656 19.734375 C 47.132812 19.816406 47.042969 19.898438 46.949219 19.984375 C 46.863281 20.066406 46.777344 20.152344 46.691406 20.234375 C 46.570312 20.347656 46.570312 20.347656 46.453125 20.460938 C 46.199219 20.808594 46.199219 20.808594 46.277344 21.628906 C 46.988281 21.628906 47.695312 21.628906 48.421875 21.628906 C 48.421875 20.710938 48.421875 19.789062 48.421875 18.84375 C 47.945312 18.84375 47.546875 19.421875 47.222656 19.734375 Z M 43.910156 23.078125 C 43.816406 23.175781 43.726562 23.273438 43.632812 23.375 C 42.746094 24.320312 41.839844 25.242188 40.917969 26.152344 C 40.859375 26.207031 40.804688 26.265625 40.746094 26.320312 C 40.332031 26.726562 39.917969 27.132812 39.507812 27.539062 C 39.089844 27.949219 38.671875 28.355469 38.257812 28.765625 C 38.09375 28.925781 37.929688 29.089844 37.765625 29.25 C 37.257812 29.746094 36.769531 30.25 36.304688 30.789062 C 35.992188 31.136719 35.660156 31.460938 35.328125 31.789062 C 35.253906 31.859375 35.183594 31.929688 35.109375 32.003906 C 34.886719 32.222656 34.660156 32.445312 34.433594 32.667969 C 34.28125 32.820312 34.125 32.96875 33.972656 33.121094 C 33.597656 33.492188 33.222656 33.859375 32.847656 34.226562 C 33.050781 34.660156 33.308594 34.925781 33.65625 35.257812 C 34.015625 35.605469 34.367188 35.949219 34.6875 36.324219 C 35.066406 36.765625 35.480469 37.167969 35.894531 37.574219 C 36.722656 38.382812 36.722656 38.382812 37.074219 38.792969 C 37.53125 39.328125 38.042969 39.8125 38.546875 40.304688 C 38.980469 40.726562 39.390625 41.15625 39.785156 41.613281 C 40.054688 41.917969 40.347656 42.195312 40.636719 42.476562 C 40.859375 42.703125 41.070312 42.933594 41.277344 43.175781 C 41.5625 43.503906 41.855469 43.78125 42.214844 44.039062 C 42.363281 43.746094 42.371094 43.488281 42.398438 43.160156 C 42.414062 43.023438 42.425781 42.882812 42.441406 42.738281 C 42.453125 42.582031 42.46875 42.425781 42.480469 42.269531 C 42.496094 42.109375 42.511719 41.945312 42.527344 41.78125 C 42.570312 41.335938 42.609375 40.890625 42.652344 40.445312 C 42.695312 39.976562 42.738281 39.511719 42.78125 39.042969 C 42.863281 38.15625 42.945312 37.265625 43.027344 36.378906 C 43.148438 35.082031 43.265625 33.789062 43.386719 32.492188 C 43.394531 32.398438 43.402344 32.300781 43.414062 32.203125 C 43.429688 32.011719 43.449219 31.820312 43.464844 31.628906 C 43.519531 31.074219 43.570312 30.519531 43.621094 29.96875 C 43.660156 29.535156 43.699219 29.105469 43.738281 28.675781 C 43.746094 28.59375 43.753906 28.511719 43.761719 28.429688 C 43.859375 27.386719 43.957031 26.34375 44.070312 25.304688 C 44.179688 24.304688 44.179688 24.304688 44.132812 23.300781 C 44.023438 23.191406 44.023438 23.191406 43.910156 23.078125 Z M 20.882812 24.195312 C 20.859375 25.171875 20.929688 26.132812 21.015625 27.105469 C 21.03125 27.269531 21.046875 27.4375 21.058594 27.601562 C 21.097656 28.050781 21.136719 28.496094 21.179688 28.945312 C 21.21875 29.414062 21.261719 29.882812 21.300781 30.351562 C 21.378906 31.234375 21.457031 32.121094 21.535156 33.007812 C 21.625 34.015625 21.714844 35.023438 21.800781 36.035156 C 21.984375 38.109375 22.167969 40.183594 22.347656 42.253906 C 22.816406 42.253906 23.007812 42.007812 23.328125 41.707031 C 23.390625 41.648438 23.453125 41.589844 23.515625 41.53125 C 24.015625 41.058594 24.488281 40.570312 24.957031 40.070312 C 25.671875 39.3125 26.40625 38.578125 27.152344 37.851562 C 27.253906 37.753906 27.355469 37.65625 27.460938 37.554688 C 27.878906 37.144531 28.296875 36.738281 28.71875 36.332031 C 29.03125 36.03125 29.339844 35.730469 29.652344 35.429688 C 29.746094 35.335938 29.84375 35.246094 29.941406 35.148438 C 30.03125 35.066406 30.117188 34.980469 30.207031 34.890625 C 30.28125 34.816406 30.359375 34.742188 30.4375 34.664062 C 30.617188 34.460938 30.617188 34.460938 30.566406 34.214844 C 30.453125 33.949219 30.304688 33.800781 30.097656 33.601562 C 30.019531 33.527344 29.941406 33.453125 29.863281 33.375 C 29.78125 33.296875 29.699219 33.222656 29.617188 33.140625 C 29.078125 32.625 28.5625 32.105469 28.070312 31.542969 C 27.761719 31.195312 27.425781 30.875 27.089844 30.550781 C 26.683594 30.15625 26.285156 29.757812 25.914062 29.332031 C 25.484375 28.839844 25.019531 28.386719 24.550781 27.929688 C 24.007812 27.402344 23.488281 26.875 22.996094 26.304688 C 22.671875 25.945312 22.328125 25.609375 21.980469 25.273438 C 21.914062 25.207031 21.84375 25.136719 21.773438 25.070312 C 21.644531 24.945312 21.519531 24.820312 21.390625 24.695312 C 21.222656 24.527344 21.050781 24.363281 20.882812 24.195312 Z M 31.152344 35.886719 C 31.0625 35.976562 31.0625 35.976562 30.96875 36.066406 C 30.914062 36.125 30.855469 36.179688 30.796875 36.238281 C 30.488281 36.542969 30.195312 36.855469 29.914062 37.183594 C 29.191406 38.003906 28.382812 38.753906 27.601562 39.519531 C 26.558594 40.53125 26.558594 40.53125 25.578125 41.605469 C 25.199219 42.035156 24.785156 42.429688 24.375 42.832031 C 24.285156 42.921875 24.199219 43.007812 24.109375 43.097656 C 23.738281 43.460938 23.375 43.816406 22.96875 44.144531 C 22.683594 44.347656 22.683594 44.347656 22.574219 44.597656 C 22.59375 46.113281 22.792969 47.640625 22.929688 49.152344 C 22.96875 49.582031 23.007812 50.011719 23.046875 50.441406 C 23.070312 50.71875 23.097656 50.992188 23.121094 51.265625 C 23.132812 51.394531 23.144531 51.523438 23.15625 51.65625 C 23.171875 51.832031 23.171875 51.832031 23.1875 52.015625 C 23.203125 52.171875 23.203125 52.171875 23.21875 52.332031 C 23.25 52.617188 23.308594 52.898438 23.363281 53.183594 C 28.019531 53.183594 32.675781 53.183594 37.472656 53.183594 C 37.550781 52.519531 37.625 51.855469 37.699219 51.175781 C 38.09375 49.945312 38.6875 49.003906 39.863281 48.382812 C 40.382812 48.128906 40.90625 47.917969 41.460938 47.753906 C 41.597656 47.707031 41.734375 47.65625 41.875 47.605469 C 41.964844 47.402344 41.964844 47.402344 41.988281 47.160156 C 42 47.082031 42.011719 47.007812 42.027344 46.925781 C 42.058594 46.429688 42.023438 46.128906 41.6875 45.742188 C 41.554688 45.605469 41.417969 45.472656 41.277344 45.34375 C 41.132812 45.199219 40.984375 45.054688 40.839844 44.910156 C 40.765625 44.835938 40.695312 44.765625 40.621094 44.691406 C 40.316406 44.390625 40.027344 44.078125 39.738281 43.761719 C 39.355469 43.34375 38.964844 42.941406 38.558594 42.546875 C 38.367188 42.355469 38.191406 42.160156 38.019531 41.957031 C 37.667969 41.554688 37.292969 41.179688 36.910156 40.804688 C 36.542969 40.445312 36.179688 40.089844 35.84375 39.699219 C 35.488281 39.285156 35.101562 38.902344 34.710938 38.519531 C 34.320312 38.140625 33.933594 37.761719 33.582031 37.351562 C 33.210938 36.921875 32.8125 36.523438 32.410156 36.125 C 32.34375 36.058594 32.277344 35.992188 32.210938 35.925781 C 31.679688 35.378906 31.679688 35.378906 31.152344 35.886719 Z M 40.523438 51.0625 C 40.011719 51.746094 39.839844 52.339844 39.957031 53.183594 C 40.21875 53.945312 40.621094 54.527344 41.3125 54.964844 C 41.960938 55.277344 42.703125 55.300781 43.394531 55.117188 C 44.109375 54.835938 44.574219 54.414062 44.925781 53.742188 C 45.199219 53.101562 45.242188 52.515625 45.03125 51.851562 C 44.757812 51.203125 44.308594 50.679688 43.707031 50.316406 C 43.296875 50.152344 42.992188 50.125 42.554688 50.128906 C 42.421875 50.128906 42.289062 50.128906 42.152344 50.128906 C 41.433594 50.210938 40.992188 50.539062 40.523438 51.0625 Z M 40.523438 51.0625 "/>
<path style=" stroke:none;fill-rule:nonzero;fill:rgb(1.568627%,2.352941%,3.137255%);fill-opacity:1;" d="M 43.363281 51.03125 C 43.800781 51.261719 44.0625 51.503906 44.246094 51.957031 C 44.414062 52.636719 44.394531 53.121094 44.019531 53.738281 C 43.605469 54.160156 43.242188 54.425781 42.636719 54.4375 C 42.078125 54.425781 41.667969 54.316406 41.261719 53.910156 C 40.8125 53.394531 40.714844 53.097656 40.722656 52.4375 C 40.773438 51.910156 40.984375 51.597656 41.375 51.25 C 41.964844 50.847656 42.679688 50.808594 43.363281 51.03125 Z M 43.363281 51.03125 "/>
</g>
</svg>
