<svg xmlns="http://www.w3.org/2000/svg" width="64px" height="33px" viewBox="0 0 64 33" version="1.1">
<g id="surface1">
<path style=" stroke:none;fill-rule:nonzero;fill:rgb(0%,0%,0%);fill-opacity:1;" d="M 0.546875 0.554688 C 21.335938 0.554688 42.125 0.554688 63.542969 0.554688 C 63.542969 11.078125 63.542969 21.601562 63.542969 32.445312 C 42.753906 32.445312 21.964844 32.445312 0.546875 32.445312 C 0.546875 21.921875 0.546875 11.398438 0.546875 0.554688 Z M 2.734375 2.859375 C 2.734375 11.863281 2.734375 20.867188 2.734375 30.140625 C 22.050781 30.140625 41.363281 30.140625 61.265625 30.140625 C 61.265625 21.136719 61.265625 12.132812 61.265625 2.859375 C 41.949219 2.859375 22.636719 2.859375 2.734375 2.859375 Z M 2.734375 2.859375 "/>
<path style=" stroke:none;fill-rule:nonzero;fill:rgb(0%,0%,0%);fill-opacity:1;" d="M 9.027344 8.296875 C 9.945312 8.296875 10.859375 8.300781 11.78125 8.328125 C 11.898438 8.332031 12.015625 8.335938 12.136719 8.339844 C 12.382812 8.347656 12.632812 8.355469 12.878906 8.363281 C 13.128906 8.371094 13.375 8.378906 13.625 8.386719 C 14.898438 8.425781 16.171875 8.472656 17.445312 8.554688 C 17.539062 8.5625 17.632812 8.566406 17.730469 8.570312 C 18.667969 8.640625 19.550781 8.941406 20.203125 9.652344 C 21.175781 10.878906 21.253906 12.222656 21.152344 13.734375 C 21.007812 14.75 20.5 15.714844 19.710938 16.359375 C 19.078125 16.800781 18.375 17.144531 17.59375 17.144531 C 17.800781 17.359375 18.003906 17.566406 18.230469 17.753906 C 19.390625 18.734375 20.144531 20.03125 20.914062 21.324219 C 21.054688 21.5625 21.199219 21.800781 21.34375 22.039062 C 21.699219 22.621094 21.699219 22.621094 21.847656 22.871094 C 21.882812 22.925781 21.914062 22.980469 21.949219 23.035156 C 22.113281 23.3125 22.269531 23.59375 22.425781 23.875 C 21.910156 23.898438 21.390625 23.917969 20.871094 23.929688 C 20.695312 23.933594 20.519531 23.941406 20.339844 23.949219 C 18.886719 24.023438 18.886719 24.023438 18.433594 23.683594 C 18.242188 23.417969 18.101562 23.15625 17.960938 22.859375 C 17.84375 22.683594 17.726562 22.507812 17.605469 22.332031 C 17.484375 22.152344 17.367188 21.96875 17.246094 21.789062 C 17.183594 21.691406 17.121094 21.597656 17.054688 21.5 C 16.726562 20.992188 16.398438 20.488281 16.078125 19.976562 C 15.394531 18.886719 14.792969 18.027344 13.492188 17.699219 C 13.042969 17.699219 12.589844 17.699219 12.125 17.699219 C 12.125 19.738281 12.125 21.773438 12.125 23.875 C 11.101562 23.875 10.078125 23.875 9.027344 23.875 C 9.027344 18.734375 9.027344 13.59375 9.027344 8.296875 Z M 12.125 11.0625 C 12.125 12.308594 12.125 13.554688 12.125 14.839844 C 12.761719 14.847656 13.398438 14.851562 14.03125 14.855469 C 14.25 14.855469 14.464844 14.859375 14.679688 14.863281 C 14.992188 14.863281 15.304688 14.867188 15.617188 14.867188 C 15.710938 14.871094 15.808594 14.871094 15.90625 14.871094 C 16.472656 14.871094 16.898438 14.8125 17.414062 14.5625 C 17.867188 14.105469 17.988281 13.652344 17.996094 13.015625 C 17.984375 12.320312 17.863281 11.886719 17.378906 11.394531 C 16.789062 11.027344 16.234375 11.035156 15.5625 11.042969 C 15.464844 11.042969 15.363281 11.042969 15.265625 11.042969 C 14.949219 11.046875 14.636719 11.046875 14.324219 11.050781 C 14.113281 11.050781 13.898438 11.050781 13.6875 11.050781 C 13.167969 11.054688 12.644531 11.058594 12.125 11.0625 Z M 12.125 11.0625 "/>
<path style=" stroke:none;fill-rule:nonzero;fill:rgb(0%,0%,0%);fill-opacity:1;" d="M 30.90625 8.386719 C 31.867188 8.386719 32.832031 8.386719 33.824219 8.386719 C 34.515625 9.207031 34.515625 9.207031 34.667969 9.632812 C 34.929688 10.296875 35.285156 10.882812 35.652344 11.488281 C 35.84375 11.804688 36.03125 12.125 36.21875 12.445312 C 36.648438 13.179688 37.078125 13.90625 37.515625 14.636719 C 38.015625 15.484375 38.515625 16.332031 39.011719 17.183594 C 39.070312 17.28125 39.128906 17.382812 39.1875 17.484375 C 39.238281 17.574219 39.289062 17.660156 39.34375 17.75 C 39.445312 17.921875 39.550781 18.085938 39.65625 18.25 C 39.6875 15.027344 39.71875 11.800781 39.75 8.480469 C 40.683594 8.480469 41.613281 8.480469 42.574219 8.480469 C 42.574219 13.558594 42.574219 18.640625 42.574219 23.875 C 39.476562 23.875 39.476562 23.875 38.847656 23.320312 C 38.71875 23.0625 38.613281 22.824219 38.511719 22.5625 C 38.449219 22.425781 38.382812 22.289062 38.316406 22.15625 C 38.183594 21.878906 38.054688 21.601562 37.929688 21.324219 C 37.660156 20.730469 37.3125 20.1875 36.96875 19.632812 C 36.84375 19.425781 36.714844 19.214844 36.589844 19.007812 C 36.558594 18.953125 36.527344 18.902344 36.496094 18.847656 C 36.007812 18.035156 35.53125 17.21875 35.054688 16.402344 C 35.019531 16.339844 34.984375 16.28125 34.949219 16.21875 C 34.855469 16.058594 34.761719 15.898438 34.667969 15.738281 C 34.394531 15.28125 34.109375 14.832031 33.824219 14.378906 C 33.792969 17.511719 33.761719 20.644531 33.730469 23.875 C 32.800781 23.875 31.867188 23.875 30.90625 23.875 C 30.90625 18.765625 30.90625 13.652344 30.90625 8.386719 Z M 30.90625 8.386719 "/>
<path style=" stroke:none;fill-rule:nonzero;fill:rgb(0%,0%,0%);fill-opacity:1;" d="M 45.585938 8.480469 C 49.132812 8.480469 52.683594 8.480469 56.34375 8.480469 C 56.34375 11.171875 56.34375 11.171875 55.019531 12.8125 C 54.699219 13.210938 54.378906 13.609375 54.0625 14.011719 C 53.695312 14.476562 53.320312 14.941406 52.949219 15.40625 C 52.679688 15.738281 52.414062 16.070312 52.148438 16.40625 C 51.78125 16.875 51.40625 17.339844 51.035156 17.800781 C 50.710938 18.203125 50.386719 18.609375 50.066406 19.015625 C 49.746094 19.417969 49.421875 19.820312 49.101562 20.222656 C 49.050781 20.28125 49.003906 20.34375 48.953125 20.40625 C 48.910156 20.457031 48.867188 20.511719 48.824219 20.566406 C 48.652344 20.777344 48.488281 20.988281 48.320312 21.199219 C 51.058594 21.230469 53.792969 21.261719 56.617188 21.292969 C 56.617188 22.144531 56.617188 22.996094 56.617188 23.875 C 52.675781 23.875 48.734375 23.875 44.671875 23.875 C 44.671875 20.738281 44.671875 20.738281 45.265625 19.820312 C 45.621094 19.46875 45.621094 19.46875 45.792969 19.3125 C 45.996094 19.128906 46.15625 18.925781 46.320312 18.707031 C 46.628906 18.3125 46.941406 17.925781 47.253906 17.535156 C 47.625 17.074219 47.996094 16.609375 48.359375 16.136719 C 48.785156 15.582031 49.226562 15.042969 49.667969 14.503906 C 50.050781 14.035156 50.425781 13.558594 50.792969 13.082031 C 51.117188 12.660156 51.449219 12.246094 51.785156 11.835938 C 51.96875 11.609375 52.148438 11.382812 52.332031 11.152344 C 48.992188 11.109375 48.992188 11.109375 45.585938 11.0625 C 45.585938 10.210938 45.585938 9.359375 45.585938 8.480469 Z M 45.585938 8.480469 "/>
<path style=" stroke:none;fill-rule:nonzero;fill:rgb(0%,0%,0%);fill-opacity:1;" d="M 23.613281 17.328125 C 25.417969 17.328125 27.222656 17.328125 29.082031 17.328125 C 29.082031 18.152344 29.082031 18.972656 29.082031 19.820312 C 27.277344 19.820312 25.472656 19.820312 23.613281 19.820312 C 23.613281 18.996094 23.613281 18.175781 23.613281 17.328125 Z M 23.613281 17.328125 "/>
</g>
</svg>
