<svg fill="none" height="55" viewBox="0 0 66 55" width="66" xmlns="http://www.w3.org/2000/svg"><g fill="#000"><path d="m33.0796 54.2644c-8.0646 0-16.1292 0-24.22843 0-1.60063.1316-3.2007-.2629-4.59881-1.1336-1.3981-.8708-2.5318-2.179-3.25818-3.7598-.800046-1.619-1.129443-3.4708-.9436753-5.3037.1857673-1.833.8776543-3.5585 1.9819953-4.942 8.0992-11.7366 16.1638-23.435 24.2284-35.13335.7439-1.1985 1.741-2.1788 2.905-2.85614 1.1639-.677332 2.4597-1.031318 3.7753-1.031318s2.6112.353986 3.7751 1.031318c1.1639.67734 2.1611 1.65764 2.905 2.85614 8.1915 11.77485 16.3598 23.60065 24.5051 35.47745 1.0414 1.3559 1.6824 3.0312 1.8371 4.801.1547 1.7699-.1845 3.5496-.9718 5.1006-.6789 1.5507-1.7569 2.8458-3.0991 3.723-1.3422.8773-2.8888 1.2977-4.4463 1.2086h-24.4707zm-.104-5.6581h24.4707c.6619.0811 1.3302-.0666 1.9129-.4226s1.0511-.9029 1.3407-1.5653c.2195-.6373.2807-1.3278.1772-2s-.3678-1.3016-.7656-1.823c-8.1338-11.6984-16.1984-23.435-24.2284-35.13338-.2707-.53317-.6651-.97705-1.1427-1.286-.4775-.30896-1.0208-.47181-1.5742-.47181-.5535 0-1.097.16285-1.5745.47181-.4775.30895-.872.75283-1.1427 1.286l-24.22838 34.90398c-.48853.5483-.81594 1.2466-.93945 2.0037-.1235.7571-.03738 1.5377.24717 2.2398.33406.6703.84251 1.2143 1.45956 1.5619s1.31432.4827 2.00164.3879h23.95166"/><path d="m18.5765 31.3267c-.0143-2.5041.4983-4.9777 1.4971-7.2258.9989-2.2481 2.4567-4.2092 4.2587-5.7289s3.899-2.5563 6.1256-3.0283c2.2266-.4719 4.5219-.3662 6.7052.3087l.623.2294c1.2806.497 1.7998 1.4145 1.4536 2.5996-.3461 1.1852-1.2113 1.3381-2.4919 1.1087-1.643-.4289-3.333-.5962-5.0188-.497-2.8207.3928-5.3987 1.9614-7.2068 4.3849-1.808 2.4234-2.7093 5.5184-2.5192 8.6516.1812 3.1121 1.4121 6.0362 3.4498 8.1949s4.7341 3.3952 7.5568 3.4653c2.8572.0384 5.6207-1.1256 7.7292-3.2557 2.1085-2.13 3.4041-5.0666 3.6237-8.2134v-.4205c0-1.7968.7267-2.5997 1.8689-2.485s1.6615.994 1.5576 2.7908c-.223 4.1948-1.9087 8.1311-4.7031 10.9824-2.7945 2.8514-6.4804 4.396-10.2839 4.3097-3.8077-.129-7.4208-1.8884-10.0754-4.9062-2.6547-3.0178-4.1429-7.0575-4.1501-11.2652"/><path d="m29.4459 26.5095c.476.4232.8752.9421 1.1767 1.5292.3822 1.2551.7058 2.5311.9692 3.823.3461 1.338.796 1.4909 1.696.4969l7.926-8.7928.9346-1.0322c1.0384-1.1087 2.0768-1.2616 2.8382-.3823.7615.8793.6231 1.9497-.346 3.0584l-3.7728 4.2053-7.4417 8.2958c-1.7652 1.9115-3.4612 1.3763-4.3265-1.2616-.8653-2.6378-1.1768-4.8169-1.7306-7.2636-.3461-1.5292.4155-2.6378 2.0769-2.5996"/></g></svg>