<svg fill="none" height="59" viewBox="0 0 55 59" width="55" xmlns="http://www.w3.org/2000/svg"><g fill="#000"><path d="m25.6219.257489c3.2855.086431 6.5234.887181 9.5287 2.356491 3.0052 1.46931 5.7188 3.57837 7.9857 6.20663.3112.34377.3395.5938 0 .93758-.3396.34381-.962 1.03131-1.3865 1.56261-.4244.5313-.481.375-.7922 0-2.3466-2.7898-5.2544-4.93093-8.4884-6.25046-4.0754-1.6695-8.5102-1.95252-12.7326-.81256-2.7619.73013-5.366 2.05575-7.6627 3.90069-2.29671 1.84493-4.24082 4.17283-5.72066 6.85013-2.98448 5.0115-4.11845 11.095-3.16901 17.0012.56394 3.958 2.03468 7.6911 4.2725 10.8445.06831.1005.14403.1946.22636.2813.08263.1191.18918.2154.31125.2813.07328-.1261.1304-.2629.16976-.4063.45271-2.5002.93371-4.9691 1.38643-7.438.65077-3.469 1.30157-6.9693 1.92407-10.4383.1463-1.4327.5607-2.8162 1.2166-4.0628.5296-1.1085 1.3602-2.0059 2.3751-2.5664s2.1633-.7559 3.2839-.5588c1.0884.273 2.1234.7599 3.0558 1.4376 3.1973 2.1252 6.3663 4.3128 9.5636 6.4692.6225.4376.7922.9063.5659 1.4376-.2264.5313-.764.7188-1.4431.4063-2.3767-1.0313-4.7818-2.0002-7.1019-3.1252-.3858-.2487-.8261-.3753-1.2727-.3659-.4466.0093-.8822.1543-1.2592.4189-.3769.2647-.6807.6389-.8779 1.0815-.1972.4427-.2803.9368-.2402 1.4281-.0422 1.1597.0146 2.3212.1698 3.4691.3961 4.1253.8488 8.2506 1.3015 12.5009.3112 2.8127.5942 5.6254.9054 8.4381 0 .4688.2264.6875.6225.7188h4.2725c.3396 0 .4244-.2188.4244-.5313s0-1.2501 0-1.8439c-.0164-.1034-.0164-.2091 0-.3125h.2547l4.3856 3.719c.2547.1875.1981.3438 0 .5626-1.3298 1.3751-2.6314 2.7502-3.9046 4.1565h-.283c-.0127-.1141-.0127-.2296 0-.3438-.028-.5308-.028-1.063 0-1.5938 0-.5001-.1697-.5938-.5941-.5626-3.0164.28-6.0533-.0915-8.9412-1.0938-3.1581-1.0415-6.0988-2.7621-8.65289-5.063-2.55413-2.3009-4.67139-5.1366-6.23006-8.3442-2.321247-4.4943-3.36617-9.6553-2.9992218-14.8136.2067408-4.6513 1.4879618-9.1668 3.7216618-13.1165 2.2337-3.94971 5.34553-7.20214 9.03921-9.44766 3.9507-2.48869 8.4404-3.741967 12.9872-3.62527477zm-6.7341 51.003711-.1981-.7813c-.7922-3.1252-1.5562-6.2504-2.3485-9.1257-.3678-1.3751-.7073-2.7814-1.1317-4.1253-.0451-.1398-.1163-.2678-.2089-.3754-.0926-.1077-.2046-.1927-.3287-.2496-.2547 0-.5093.3125-.7357.5-.0897.1273-.1482.278-.1698.4376-.9337 2.8439-1.8391 5.6879-2.8294 8.5318-.0437.0855-.0711.18-.0804.2776-.0094.0977-.0005.1964.026.2901s.0701.1804.1281.2548c.058.0743.1292.1348.2092.1776 1.6091 1.4226 3.3899 2.5901 5.2911 3.469.6225.2813 1.245.5001 1.8675.7501h.481z"/><path d="m32.4979 31.5722c2.0624-.3049 3.9778-1.3465 5.4542-2.9659s2.4327-3.7278 2.723-6.0035c.1698-1.0001.1698-2.0314.2547-3.1252 0-.5001-.1698-.7814-.6791-.7501-.5093.0312-.8489 0-1.3016 0h-.3395c.0488-.1352.1156-.2615.1981-.375 1.1883-1.3751 2.405-2.6877 3.6217-4.0316l2.3201-2.5939c.2264-.25.3679-.2813.5659 0l5.0365 7.5005c.0158.1035.0158.2091 0 .3126-.1128.0142-.2267.0142-.3395 0h-1.4148c-.4244 0-.5942 0-.6225.5938-.0829 2.0431-.6277 4.0307-1.5845 5.7816-1.3805 2.4809-3.4578 4.3948-5.9151 5.45-2.4572 1.0552-5.1595 1.1936-7.6946.3942-.1388-.0433-.272-.1064-.3961-.1875z"/><path d="m31.1389 31.666c-.6382 1.8669-.7528 3.9027-.3289 5.8424.424 1.9398 1.3667 3.6937 2.7056 5.0334 1.1063 1.219 2.4121 2.1947 3.8481 2.8753.0742.0591.1603.0974.2509.1117s.183.0041.2692-.0297c.0863-.0338.1638-.0902.226-.1644.0622-.0741.1071-.1639.131-.2614.1602-.4317.3494-.8495.5659-1.2501.0695-.1183.1555-.2238.2547-.3125l.198.3437c.7923 2.469 1.6128 4.9067 2.4334 7.3756.1414.4375.2829.9063.4527 1.3438.1698.4376 0 .5313-.3113.5939l-5.1779 1.1563-2.8294.625h-.5942l.1697-.5625c.1509-.3907.3307-.767.5376-1.1251.3962-.5313.1698-.7813-.2829-1.0626-1.6046-.9009-2.9697-2.2471-3.9613-3.9065-1.4685-2.4322-2.1677-5.3325-1.9886-8.2492.1791-2.9168 1.2265-5.6862 2.979-7.877l.3961-.5313z"/><path d="m31.819 32.1974c.7461 1.0896 1.7158 1.968 2.8294 2.5626 1.2431.687 2.602 1.0806 3.9903 1.156 1.3884.0753 2.7757-.1694 4.0737-.7184.9662-.4684 1.9105-.9899 2.8295-1.5626.0968-.0306.1846-.0891.2541-.1696s.1184-.18.1414-.2883c.0231-.1083.0196-.2215-.0101-.3278-.0298-.1063-.0847-.2019-.1591-.2769-.269-.4256-.5056-.8751-.7073-1.3439 0 0 0-.2187 0-.3125h.2546l8.4884 2.0001c.3395 0 .3678.2501.2547.5314-1.0187 2.9064-2.0373 5.8128-3.0276 8.7193-.0466.1006-.1035.195-.1697.2813-.0879-.0557-.1648-.13-.2264-.2188-.2546-.5-.5093-.9688-.7357-1.4689-.2263-.5-.3961-.4687-.7639-.25-1.9966 1.2703-4.2966 1.8373-6.5927 1.6251-2.4665-.192-4.8196-1.2192-6.7385-2.9416-1.919-1.7225-3.3105-4.0565-3.9851-6.684-.0139-.0827-.0139-.1674 0-.25z"/><path d="m15.9443 12.571c-.0038-.5552.0925-1.1057.2831-1.6195.1906-.5137.4719-.98051.8273-1.37311.3555-.39261.778-.70323 1.2432-.91378.4651-.21056.9635-.31684 1.4662-.31269 1.0033.00818 1.9633.45203 2.6728 1.23562.7094.78356 1.1113 1.84406 1.1187 2.95216.0112.5634-.079 1.1236-.2656 1.6481-.1865.5245-.4657 1.0028-.8211 1.407-.3555.4043-.7802.7264-1.2494.9477s-.9735.3373-1.4837.3413c-.5065-.004-1.0071-.1192-1.4729-.3389-.4658-.2198-.8873-.5396-1.2402-.9409-.3528-.4014-.6298-.8762-.815-1.3969-.1851-.5207-.2747-1.0768-.2634-1.6361z"/></g></svg>