<svg fill="none" height="55" viewBox="0 0 49 55" width="49" xmlns="http://www.w3.org/2000/svg"><g fill="#000"><path d="m14.5735 25.2421h-6.69838c-1.03022.0044-2.0511-.2154-3.00441-.6468-.95332-.4314-1.82038-1.066-2.55165-1.8675-.73128-.8016-1.3125-1.7543-1.710406-2.804-.397906-1.0496-.60469923-2.1755-.608654-3.3134v-16.296923h5.09925v16.230323c.01585.8162.32263 1.5925.85368 2.1604.53106.5678 1.2435.8813 1.98259.8723h6.57768c.3646.0044.7263-.0705 1.0647-.2206.3383-.15.6465-.3722.9071-.6538.2605-.2816.4684-.6172.6116-.9875.1431-.3703.2188-.7682.2227-1.1708v-16.230323h5.0992v16.296923c-.0079 2.2923-.838 4.4878-2.3083 6.1056-1.4704 1.6178-3.4613 2.5261-5.5367 2.5261"/><path d="m42.3925.313477-10.802 9.431573v-9.431573h-5.069v24.928723h5.069v-9.4983l10.802 9.4983h6.5475l-14.1813-12.4977 14.2115-12.431023z"/><path d="m22.4188 54.7363h-14.66407c-2.08358-.0524-4.06488-1.0081-5.51582-2.6606-1.450937-1.6525-2.255054-3.8691-2.23866429-6.171v-7.2986c-.01638971-2.3019.78772729-4.5186 2.23866429-6.1711 1.45094-1.6525 3.43224-2.6081 5.51582-2.6606h14.66407v5.6656h-14.57356c-.38052.0126-.75488.1096-1.10073.2853-.34585.1758-.65611.4266-.91233.7376s-.45313.6758-.57901 1.0726c-.12587.3968-.17815.8176-.15368 1.2372v7.2986c-.02447.4196.02781.8404.15368 1.2372.12588.3969.32279.7616.57901 1.0726s.56648.5619.91233.7376.72021.2728 1.10073.2853h14.57356z"/><path d="m41.0658 29.7744h-6.7286c-2.0754 0-4.0663.9083-5.5366 2.5261-1.4704 1.6179-2.3004 3.8133-2.3084 6.1056v16.3302h5.0992v-5.6656h12.2201v5.6656h5.0992v-16.3302c-.008-2.2923-.838-4.4877-2.3084-6.1056-1.4703-1.6178-3.4611-2.5261-5.5365-2.5261zm-9.4744 13.6308v-4.8991c.0039-.4055.0806-.8061.2257-1.1787.145-.3725.3555-.7096.6193-.9916.2638-.2821.5756-.5036.9174-.6516s.7068-.2197 1.0739-.2109h6.5475c.3671-.0088.7321.0629 1.0739.2109s.6536.3695.9174.6516c.2638.282.4743.6191.6194.9916.145.3726.2217.7732.2256 1.1787v4.8991z"/></g></svg>