<svg width="278" height="131" viewBox="0 0 278 131" fill="none" xmlns="http://www.w3.org/2000/svg">
<path d="M218.666 69.5399C218.666 99.4828 174.972 123.738 121.082 123.738C67.1909 123.738 23.4971 99.4828 23.4971 69.5399C23.4971 39.597 67.1909 15.3423 121.082 15.3423C174.972 15.3423 218.666 39.597 218.666 69.5399ZM121.082 27.3835C76.9937 27.3835 41.2307 47.2305 41.2307 71.7314C41.2307 96.2324 76.969 116.079 121.082 116.079C165.194 116.079 200.932 96.2324 200.932 71.7314C200.932 47.2305 165.194 27.3835 121.082 27.3835Z" fill="#E5E4E4"/>
<path d="M91.7717 51.4906C88.0526 54.0761 84.9985 57.7698 83.7177 62.1529C81.9936 71.0668 80.3926 80.35 79.5798 89.3625C80.836 93.7702 81.23 98.6703 85.8851 101.034C92.8308 102.733 101.944 98.2025 108.422 96.1094C115.712 93.6963 123.348 91.7264 130.293 88.5252C136.475 85.5704 142.14 80.7194 148.79 78.9957C150.81 78.7741 154.012 77.3213 154.505 76.0408C154.997 74.7604 156.155 72.9874 157.485 69.1707C158.716 64.8122 158.593 59.5673 161.426 55.8491C164.061 52.0816 165.046 46.4673 161.869 42.7244C158.174 38.9569 153.741 35.1402 152.017 34.9678C150.268 34.7462 145.589 35.3618 140.022 36.2237C132.436 37.381 125.663 39.5479 118.692 42.7983C111.377 46.6889 102.905 45.9502 95.1707 48.4864C93.4712 49.4468 91.7225 51.4906 91.7225 51.4906H91.7717Z" fill="#CD8B56"/>
<path d="M107.19 45.2606C98.4464 47.4521 88.2249 49.9884 84.7275 59.4194C83.1019 66.4865 80.2448 73.7507 81.2546 81.064C81.8704 85.2747 83.028 92.6619 88.8653 91.874C100.121 90.2488 110.786 86.826 121.574 83.4279C133.052 80.079 139.628 69.0474 151.007 65.3292C154.48 64.295 156.007 65.4031 158.519 58.9516C161.967 52.2292 166.943 48.0185 159.8 40.8036C153.175 32.0128 135.195 36.5436 126.352 39.1046C119.776 41.0006 113.914 44.0294 107.215 45.2852L107.19 45.2606Z" fill="#A8683E"/>
<path d="M93.0526 90.1751C98.3481 88.2052 101.722 88.3283 104.062 88.9439C105.91 89.4118 107.929 90.5691 110.441 90.9384C112.141 91.2586 116.057 91.7264 117.018 91.7757C119.801 91.7757 121.377 92.1204 121.303 92.2189C119.826 95.617 105.072 97.4884 98.0772 99.1382C96.4269 98.6704 94.0625 98.104 91.0576 97.0698C86.8705 95.6662 87.0675 99.9016 84.4321 93.4747C81.772 86.9001 85.5651 91.4555 85.5651 91.4555C85.5651 91.4555 84.6291 93.1546 84.4321 93.4747C83.2991 90.446 83.3976 89.5841 83.6932 89.5841C84.4567 89.3871 86.1562 92.1943 89.432 93.0807C91.033 93.4993 92.2152 93.5486 94.4319 93.3762C99.5303 93.0068 100.121 94.0165 102.043 91.7018C102.215 91.4309 102.954 90.6675 102.757 90.569C102.757 90.4705 102.215 90.7168 100.959 91.4555" fill="#521A10"/>
<path d="M120.269 40.779C114.431 43.3153 108.372 44.3988 102.264 46.024C95.8849 47.7477 90.6141 49.6437 86.5008 55.1841C80.6635 63.7533 84.9738 65.5263 84.9738 65.5263C88.0033 61.2417 88.6929 56.1937 93.1017 52.8695C97.2396 50.3332 100.86 48.5603 105.712 47.9201C109.678 47.206 113.963 46.615 118.372 46.221C120.589 46.0486 122.953 46.0979 124.037 46.3441C126.229 46.6642 127.978 47.2306 129.259 47.9201C131.943 49.7423 134.603 49.4714 135.441 48.4125C136.254 47.3044 135.047 45.5315 134.874 45.4084C136.697 46.4426 138.249 47.92 139.899 49.2497C140.268 47.9939 140.465 45.9748 139.209 44.9159C137.485 43.3892 134.406 44.2264 134.086 43.5616C133.421 42.5766 139.874 40.2374 142.657 40.3112C142.657 40.3112 142.805 40.2866 144.85 40.4343C146.574 40.5575 151.106 41.0499 154.406 42.2565C154.726 42.4289 155.736 42.749 156.573 43.3646C157.731 44.2018 158.79 44.7928 159.307 46.1471C159.751 47.1321 159.751 48.1171 159.603 49.5206C159.48 51.4659 159.258 52.4509 158.79 53.362C158.544 53.9776 158.224 54.5685 157.879 55.1841C156.155 58.1144 154.775 59.8627 154.554 60.1828C152.263 63.2362 149.332 62.5221 149.283 62.2513C149.209 61.8326 153.175 62.6452 159.307 55.4796C160.982 53.5343 162.189 51.5152 162.312 51.0473C164.357 46.5411 161.401 43.7832 161.918 42.552C162.657 40.8529 152.066 34.7954 152.066 34.7954C152.066 34.7954 150.982 33.3672 143.15 35.608C135.638 37.7996 127.781 38.2921 120.318 40.7545L120.269 40.779Z" fill="#F5B168"/>
<path d="M82.9541 66.9299C82.9541 66.9299 82.0182 72.5442 87.5599 77.075C93.3726 81.8767 100.244 85.2502 107.954 84.8069C114.16 84.4868 117.412 84.0682 120.244 83.1325C116.254 84.3145 109.85 85.9397 104.949 87.3679C98.939 87.9588 93.2495 86.3829 87.9787 83.5019C81.1069 79.562 81.8211 83.625 80.9591 77.6168C80.0724 71.6331 81.7965 70.0571 81.7965 70.0571C81.7965 70.0571 83.0773 66.7822 83.0034 66.9299H82.9541Z" fill="#F3C286"/>
<path d="M108.151 85.0778C113.816 83.7973 119.555 82.5415 125.195 81.064C129.333 78.5278 132.756 74.6372 136.155 71.2144C140.367 68.0625 144.431 65.3539 149.332 63.2362C150.071 63.187 150.465 63.187 151.057 63.1624C149.061 65.2062 147.214 66.068 143.938 68.9244C140.195 71.6084 136.993 74.8834 133.914 78.3062C128.594 83.4772 119.752 83.8958 112.831 85.1024" fill="#F3C286"/>
<path d="M125.17 81.0887C119.431 84.8316 111.87 87.0724 105.047 87.3186C96.0573 87.5895 96.3036 84.1421 96.3036 84.1421C101.304 87.6633 107.535 86.112 112.904 84.733C117.633 82.5415 122.288 80.3499 125.589 76.1885C125.441 78.2815 125.367 79.3404 125.17 81.0887Z" fill="#CD8B56"/>
<path d="M129.382 49.9639C131.549 50.7026 133.692 50.7518 134.382 49.7915C135.343 48.708 134.185 45.9748 133.52 45.31C131.155 43.143 135.17 42.0596 135.17 42.0596C135.17 42.0596 143.372 41.6655 143.914 42.4043C145.293 42.5028 144.234 42.1088 150.293 43.4139C156.352 44.7682 155.736 45.2361 156.746 45.6793C158.716 46.5904 159.874 48.5357 158.125 51.7615C156.327 54.7164 155.342 55.2827 155.342 55.2827C155.342 55.2827 151.894 62.4237 149.702 64.3936C143.544 68.1857 137.806 71.9778 131.944 76.2624C126.5 80.5716 119.949 83.5019 113.028 84.4623C105.688 84.5361 98.0279 81.6058 92.4369 76.9519C88.4714 73.603 85.171 68.7274 83.9641 63.6549C84.6045 58.9517 90.1709 56.1938 94.2349 54.6424C94.2349 54.6424 95.294 53.1158 98.7914 50.8996C100.565 49.8408 104.826 48.4126 109.924 47.6985C114.505 47.1075 119.333 46.5411 123.89 47.6" fill="#D4854A"/>
<path d="M117.83 42.872C120.417 40.7051 128.618 37.9718 128.618 37.9718C128.618 37.9718 135.244 36.6914 138.766 36.4944C144.332 36.5929 150.244 36.1989 155.588 38.1196C159.406 39.794 156.647 38.4643 160.12 42.5765C163.568 46.6395 161.179 49.6683 161.179 49.6683C161.179 49.6683 160.662 45.2606 159.258 43.6108C157.854 41.961 156.647 41.6408 152.756 40.3604C149.037 39.1784 149.135 38.7844 145.121 39.4C141.081 39.9417 140.194 39.6955 136.106 40.2865C132.042 40.8775 134.185 41.7639 132.288 41.9609C130.392 42.1579 124.924 41.6655 124.924 41.6655C123.348 43.8324 121.599 44.3248 120.466 44.5464C119.604 44.9158 116.673 44.0048 117.83 42.9213V42.872Z" fill="#A8683E"/>
<path d="M140.933 74.6864C138.027 77.3458 138.15 77.2226 136.623 78.5769C131.919 82.5414 131.205 85.7918 128.815 87.6386C126.402 89.4854 125.589 90.5443 125.589 90.5443C134.086 88.2543 140.884 82.7877 148.864 79.3896C150.761 78.5277 153.593 77.395 153.593 77.395C153.593 77.395 153.741 77.3704 153.79 77.2227C153.79 77.0749 153.963 76.6809 152.633 73.5537C152.14 72.5195 152.633 69.5153 149.899 69.5399" fill="#A8683E"/>
<path d="M161.82 55.2581C157.436 61.5126 157.14 63.778 156.007 64.7137C154.406 65.1323 153.913 65.2801 152.337 65.6987C153.248 67.1515 154.037 68.8013 154.578 70.2788C154.776 71.51 154.825 73.6277 154.776 74.7604C154.792 74.8589 154.792 74.9081 154.776 74.9081C154.776 75.2775 154.628 75.5483 154.406 76.8288C154.308 77.3213 156.45 74.391 158.938 66.8806C160.342 62.1774 160.662 57.9175 161.82 55.2827V55.2581Z" fill="#521A10"/>
<path d="M87.6092 61.2909C89.0624 61.2909 90.8112 61.5371 91.2791 62.5714C91.5993 63.2855 91.0821 63.9257 91.5008 64.3936C92.2397 65.2554 94.4564 63.7533 95.4416 64.6891C95.9342 65.1569 95.5155 65.6247 96.1312 66.5604C96.4761 67.1022 96.9933 67.4223 97.9785 68.0379C99.3824 68.9244 99.6534 68.8013 100.614 69.5154C101.476 70.1556 101.279 70.3034 102.141 70.919C103.151 71.6577 103.57 71.6084 104.579 72.2733C105.466 72.8642 105.959 73.4306 106.279 73.7999C108.422 76.09 113.594 79.2911 114.087 78.7248C114.259 78.5278 113.668 77.9861 111.402 74.6126C109.998 72.5441 109.432 71.5838 108.964 71.7069C108.2 71.9039 108.619 74.6865 107.904 74.8588C107.215 75.0312 105.762 72.6672 106.131 72.2733C106.599 71.7808 111.796 75.4005 115.909 80.0545C116.156 80.35 116.451 81.3103 117.338 81.7782C118.988 82.64 121.648 81.5811 121.747 80.5716C121.845 79.5373 119.185 78.4047 119.16 78.4539C119.136 78.5032 120.441 79.4389 120.441 79.4389C120.441 79.4389 115.047 75.0312 114.801 75.302C114.702 75.4252 115.614 76.2377 115.491 76.4101C115.195 76.8041 109.259 73.9231 106.353 70.3526C105.909 69.8108 105.121 68.752 103.693 67.9394C103.003 67.5454 102.042 67.1761 101.304 66.8806C99.7765 66.265 99.8504 66.4128 99.4563 66.1665C98.0278 65.3293 98.348 64.3197 97.0179 63.2608C96.0327 62.4975 95.8603 63.0146 94.1362 61.9804C93.1264 61.3894 92.9786 61.0693 91.6239 60.306C90.4171 59.6165 89.8998 59.518 89.6043 59.4688C88.7176 59.3456 87.9541 59.5672 87.4861 59.7396" fill="#521A10"/>
<path d="M107.855 49.6684C109.309 49.6684 111.057 49.9146 111.525 50.9488C111.845 51.6629 111.328 52.3032 111.747 52.771C112.486 53.6329 114.702 52.1308 115.688 53.0665C116.18 53.5344 115.762 54.0022 116.377 54.9379C116.722 55.4796 117.239 55.7997 118.225 56.4153C119.629 57.3018 119.899 57.1787 120.86 57.8928C121.722 58.533 121.525 58.6808 122.387 59.2964C123.397 60.0351 123.816 59.9858 124.825 60.6507C125.712 61.2417 126.205 61.808 126.525 62.1774C128.668 64.4674 133.84 67.6685 134.333 67.1022C134.505 66.9052 133.914 66.3635 131.648 62.99C130.244 60.9216 129.678 59.9613 129.21 60.0844C128.446 60.2814 128.865 63.0639 128.151 63.2363C127.461 63.4086 126.008 61.0447 126.377 60.6507C126.845 60.1582 132.042 63.778 136.155 68.4319C136.402 68.7274 136.697 69.6878 137.584 70.1556C139.234 71.0175 141.894 69.9586 141.993 68.949C142.091 67.9148 139.431 66.7821 139.406 66.8314C139.382 66.8806 140.687 67.8163 140.687 67.8163C140.687 67.8163 135.293 63.4086 135.047 63.6795C134.948 63.8026 135.86 64.6152 135.737 64.7875C135.441 65.1815 129.505 62.3005 126.599 58.73C126.155 58.1883 125.367 57.1295 123.939 56.3169C123.249 55.9229 122.289 55.5535 121.55 55.258C120.023 54.6424 120.096 54.7902 119.702 54.544C118.274 53.7067 118.594 52.6971 117.264 51.6383C116.279 50.8749 116.106 51.3921 114.382 50.3578C113.372 49.7669 113.225 49.4468 111.87 48.6834C110.663 47.9939 110.146 47.8955 109.85 47.8462C108.964 47.7231 108.2 47.9447 107.732 48.117" fill="#521A10"/>
<path d="M134.16 44.1525C135.145 44.2757 136.303 44.4972 136.5 45.039C136.623 45.4083 136.204 45.6792 136.426 45.9255C136.82 46.3933 138.495 45.8269 139.062 46.344C139.332 46.5903 139.012 46.8119 139.308 47.3044C139.48 47.5999 139.776 47.7968 140.392 48.1662C141.254 48.7079 141.451 48.6588 141.993 49.0774C142.485 49.4467 142.362 49.4959 142.855 49.8653C143.446 50.2839 143.741 50.3085 144.357 50.7025C144.874 51.0472 145.145 51.3674 145.318 51.5643C146.5 52.8202 149.603 54.7655 150.022 54.5193C150.17 54.4208 149.825 54.1252 148.692 52.3277C147.978 51.2196 147.731 50.7025 147.387 50.7271C146.845 50.7764 146.795 52.1553 146.278 52.1799C145.786 52.2046 145.096 50.9487 145.391 50.801C145.786 50.5794 148.864 52.7217 151.081 55.3073C151.229 55.4796 151.303 55.9474 151.845 56.2429C152.854 56.7846 154.8 56.4646 154.973 55.9721C155.17 55.4796 153.495 54.7409 153.47 54.7655C153.446 54.7655 154.209 55.3318 154.234 55.3318C154.234 55.3318 151.106 52.7956 150.909 52.9187C150.835 52.968 151.352 53.4358 151.253 53.5097C151.007 53.682 147.337 51.8352 145.786 49.8899C145.539 49.5944 145.145 49.0281 144.283 48.5356C143.864 48.2894 143.249 48.0431 142.805 47.8462C141.845 47.4275 141.894 47.5014 141.648 47.3536C140.786 46.8365 141.13 46.3687 140.342 45.7531C139.776 45.3099 139.579 45.5561 138.544 44.9159C137.929 44.5465 137.855 44.3987 137.042 43.9309C136.303 43.5123 135.983 43.4138 135.761 43.3892C135.17 43.2661 134.628 43.3153 134.308 43.3892" fill="#521A10"/>
<path d="M106.993 82.6645C106.008 82.5168 104.85 82.2705 104.678 81.7288C104.555 81.3595 104.974 81.0886 104.776 80.8424C104.382 80.3745 102.708 80.8916 102.166 80.3499C101.895 80.079 102.24 79.8821 101.944 79.3896C101.772 79.0941 101.476 78.897 100.885 78.5031C100.048 77.9613 99.8505 77.986 99.3086 77.5428C98.816 77.1488 98.9638 77.0995 98.4712 76.7301C97.8801 76.2869 97.5845 76.2623 96.9934 75.8437C96.4762 75.4743 96.2299 75.1542 96.0328 74.9572C94.8752 73.6767 91.8211 71.6576 91.4023 71.8792C91.2546 71.953 91.5748 72.2731 92.6831 74.0953C93.3728 75.228 93.6191 75.7452 93.9639 75.7205C94.5057 75.6959 94.5796 74.317 95.0969 74.2924C95.5895 74.2924 96.2545 75.5482 95.9589 75.696C95.5648 75.8929 92.5353 73.6768 90.3679 71.0666C90.2201 70.8942 90.1708 70.4017 89.629 70.1062C88.6191 69.5399 86.698 69.8108 86.501 70.3033C86.3039 70.7958 87.9541 71.5837 87.9788 71.559C88.0034 71.559 87.2399 70.9681 87.2399 70.9681C87.2399 70.9681 90.294 73.5783 90.5157 73.4552C90.6142 73.4059 90.0969 72.938 90.1955 72.8641C90.4418 72.7164 94.087 74.6125 95.5648 76.607C95.7865 76.9025 96.1806 77.4935 97.0426 78.0106C97.4614 78.2569 98.0525 78.5277 98.5204 78.7493C99.4564 79.1679 99.4318 79.094 99.6781 79.2664C100.515 79.8081 100.171 80.2514 100.959 80.8916C101.525 81.3595 101.722 81.1132 102.757 81.7535C103.373 82.1228 103.422 82.2952 104.235 82.7877C104.974 83.2309 105.294 83.3294 105.491 83.3787C106.082 83.5264 106.624 83.4771 106.944 83.4279" fill="#521A10"/>
<path d="M98.3234 53.9038C98.1756 54.3716 98.1017 54.6671 98.1509 54.6917C98.2987 54.7656 99.2593 52.2785 99.9489 52.4016C100.269 52.4509 100.195 53.0173 100.762 53.756C101.501 54.741 102.658 55.0857 102.658 55.0857C102.658 55.0857 101.845 54.7163 101.821 54.7163C101.821 54.7163 103.151 55.1842 104.284 56.2676C104.456 56.44 104.456 56.44 105.712 58.0159C106.821 59.4195 106.919 59.518 107.116 59.6658C108.102 60.4291 109.53 60.7492 109.924 60.2814C110.195 59.9613 109.85 59.4196 110.047 59.2964C110.367 59.0994 111.599 60.0844 112.215 61.4387C112.51 62.1282 112.363 62.2267 112.683 62.7438C113.323 63.7534 114.407 64.1227 114.579 64.1966C115.614 64.5413 116.008 64.1966 116.599 64.6398C116.968 64.9353 116.821 65.0585 117.362 65.7726C117.978 66.5606 118.397 66.6837 118.372 67.0777C118.372 67.5701 117.633 67.8902 117.683 67.9641C117.757 68.0872 119.037 66.9791 120.121 67.25C120.86 67.447 120.885 68.0872 121.648 68.8752C122.978 70.2787 124.283 69.6385 126.032 70.7958C127.855 72.0024 128.421 74.0216 128.323 74.0955C128.15 74.2186 126.303 70.3034 123.668 70.3034C122.633 70.3034 121.5 70.8944 121.426 71.51C121.328 72.5688 124.431 72.9135 126.697 75.1789C126.796 75.2774 127.387 75.8684 128.323 76.2624C128.766 76.4348 129.53 76.7549 130.195 76.4348C130.54 76.2624 130.934 75.8684 130.983 75.5237C131.205 74.0463 125.909 72.1256 119.407 68.9245C118.224 68.3335 116.968 67.6932 115.515 66.7082C115.121 66.4374 114.333 65.8711 113.619 65.3786C111.821 64.0735 111.771 63.9997 111.23 63.7042C110.097 63.1132 109.801 63.2855 108.964 62.6453C108.348 62.202 108.397 62.0297 107.658 61.5126C107.067 61.094 106.525 60.8231 105.959 60.5522C104.85 60.0105 104.727 60.109 104.407 59.7889C103.816 59.2225 104.038 58.8286 103.471 58.3607C102.88 57.8682 102.51 58.1637 102.043 57.6712C101.599 57.228 101.796 56.8094 101.427 56.1938C101.131 55.7013 100.663 55.3812 100.146 55.1596" fill="#521A10"/>
<path d="M125.811 49.9639C125.564 49.7177 125.687 49.0282 125.983 48.9297C126.402 48.7574 126.944 49.9146 128.323 51.0966C129.751 52.3278 131.476 53.0665 131.697 52.7957C131.943 52.4755 130.047 50.8011 130.244 50.5795C130.392 50.4071 131.697 51.1705 132.83 52.2047C134.062 53.3374 135.466 55.135 135.145 55.5043C134.579 56.1692 129.456 52.1308 129.234 52.4263C129.013 52.7218 134.628 58.213 136.943 56.9079C137.879 56.3908 138.273 54.7656 138.791 54.8887C139.111 54.9626 139.185 55.5782 139.209 55.6767C139.406 56.9818 138.101 57.6959 138.372 58.3607C138.618 58.9517 139.677 58.5577 140.835 59.3703C141.894 60.109 142.337 61.3403 142.362 61.3156C142.387 61.3156 141.796 60.3553 141.894 60.2814C142.017 60.1829 142.83 61.3895 144.283 62.1774C145.416 62.793 146.697 63.0147 146.795 62.793C146.919 62.5222 145.441 61.7834 143.544 59.7889C142.805 59.0255 142.436 58.6316 142.534 58.4838C142.83 57.9667 146.598 59.5181 149.111 61.685C149.85 62.3252 150.342 62.9162 150.194 63.3594C150.047 63.778 149.382 63.9011 149.185 63.9504C146.574 64.4429 142.485 59.9613 140.81 58.0898C138.766 55.7998 136.82 53.2389 136.599 53.4113C136.475 53.5098 136.993 54.347 136.82 54.4947C136.599 54.6671 135.589 53.6083 134.554 52.6972C132.436 50.8012 130.269 48.8558 128.175 49.2006C126.993 49.3976 126.155 50.284 125.811 49.9393V49.9639Z" fill="#521A10"/>
<path d="M147.978 41.5425C147.485 45.0884 147.904 46.1964 148.495 46.4673C148.889 46.6397 149.283 46.3934 149.899 46.7628C150.441 47.0583 150.49 47.403 151.204 47.9447C151.598 48.2402 151.943 48.4126 152.189 48.5111C153.372 49.0528 153.766 48.782 154.357 49.2252C154.997 49.7177 154.702 50.2101 155.317 50.678C156.204 51.3428 157.485 50.8996 157.51 50.9981C157.51 51.0966 156.574 51.3675 156.475 51.1951C156.401 51.0227 157.559 50.6041 157.559 49.9147C157.559 49.3483 156.795 48.9051 156.45 48.6835C155.219 47.9694 154.332 48.3141 153.914 47.6492C153.593 47.1321 153.914 46.5411 153.667 46.4427C153.347 46.3195 152.904 47.5261 152.337 47.4768C151.721 47.4522 151.648 46.0979 150.662 44.916C149.973 44.1034 149.111 43.7094 148.544 43.5124" fill="#521A10"/>
<path d="M184.578 95.6171L190.268 102.192L191.45 106.722L194.233 110.81L197.139 109.013L232.631 112.435L188.371 90.0273L184.578 95.6171Z" fill="white"/>
<path d="M199.282 40.7051H195.883L192.312 42.4041L190.095 45.1128L189.677 47.6737L191.13 51.589L196.671 57.4741L200.243 58.6314" fill="white"/>
<path d="M198.642 18.5189L200.932 24.3795L208.863 24.6503L211.055 16.6475L198.642 18.5189Z" fill="white"/>
<path d="M208.075 36.5191C207.312 35.2879 206.77 34.3521 206.179 33.4411C204.602 31.0525 203.051 28.6639 201.4 26.3247C199.701 23.9115 198.223 21.3752 197.657 18.4942C196.819 14.2096 199.332 10.9593 203.691 11.2055C206.918 11.4025 209.676 12.7568 211.917 15.1207C212.361 15.5886 212.656 16.0811 212.115 16.8937C211.597 16.4504 211.006 16.081 210.563 15.5639C208.395 13.0523 205.538 12.412 202.435 12.6337C200.612 12.7568 199.061 14.8991 199.233 16.7213C199.529 19.75 200.883 22.4094 202.41 24.9457C203.346 26.497 204.602 27.8513 205.489 29.4027C206.499 31.1756 207.312 33.0963 208.149 34.9677C208.297 35.2878 208.124 35.7311 208.075 36.4944V36.5191Z" fill="black"/>
<path d="M191.204 101.601C198.445 104.974 196.967 108.101 199.849 109.333C203.469 110.096 207.386 113.74 210.686 117.188C218.568 120.98 229.109 118.222 234.429 114.799C238.74 112.017 237.262 106.747 239.75 97.119C243.148 83.9205 242.336 74.8096 240.612 72.9136C237.656 69.6632 229.577 74.6372 192.115 99.2613" fill="#E5E4E4"/>
<path d="M242.73 91.1353C242.853 91.1599 242.976 91.1846 243.099 91.2338C243.493 90.1011 243.912 88.9684 244.257 87.811C245.39 84.142 246.744 80.6208 249.06 77.4935C250.587 75.4497 251.769 73.1351 252.409 70.6235C252.853 68.8751 253.099 67.1268 252.483 65.4031C251.744 63.2854 251.326 61.1432 251.301 58.9024C251.301 58.6807 251.104 58.4591 250.981 58.2129C250.562 60.3306 250.685 62.399 251.129 64.3936C251.695 66.9052 251.153 69.1952 250.193 71.436C249.872 72.1994 249.404 72.8889 248.912 73.7753C248.05 73.1351 247.36 72.6179 246.671 72.1008C245.71 73.7753 246.892 74.5387 247.828 75.302C245.784 80.547 243.69 85.6688 242.705 91.1599L242.73 91.1353Z" fill="white"/>
<path d="M264.059 99.4829C265.586 99.409 266.941 97.9069 267.138 95.937C266.128 97.0943 265.118 98.2271 264.059 99.4829Z" fill="white"/>
<path d="M265.315 96.1094C266.448 96.1094 266.448 95.0752 266.941 94.5581C267.015 94.4843 266.842 94.1887 266.695 93.6716C266.177 94.6566 265.463 95.0998 265.315 96.1094Z" fill="white"/>
<path d="M264.872 60.7C264.872 60.7 264.995 60.897 265.069 60.9955C265.685 60.7 266.301 60.4291 266.916 60.1336C265.98 59.7396 265.34 60.0597 264.872 60.7Z" fill="white"/>
<path d="M266.793 62.8176C266.251 62.8997 265.775 63.2362 265.365 63.8272C266.128 63.8272 266.424 63.2855 266.793 62.8176Z" fill="white"/>
<path d="M242.73 91.1353C243.715 85.6687 245.808 80.5469 247.853 75.2774C246.917 74.514 245.735 73.7261 246.695 72.0763C247.385 72.5934 248.099 73.1105 248.937 73.7507C249.429 72.8888 249.897 72.1747 250.217 71.4114C251.178 69.1706 251.72 66.8806 251.153 64.3689C250.71 62.3744 250.587 60.3059 251.005 58.1882C251.104 58.4098 251.326 58.6315 251.326 58.8777C251.326 61.1185 251.769 63.2608 252.508 65.3785C253.124 67.0776 252.877 68.8505 252.434 70.5988C251.769 73.1105 250.587 75.4251 249.084 77.4689C246.744 80.5962 245.414 84.1421 244.281 87.7864C243.937 88.9438 243.518 90.0764 243.124 91.2092C243.001 91.1845 242.878 91.1599 242.754 91.1106L242.73 91.1353Z" fill="black"/>
<path d="M264.059 99.4829C265.143 98.2517 266.128 97.0943 267.138 95.937C266.941 97.9069 265.586 99.409 264.059 99.4829Z" fill="black"/>
<path d="M265.315 96.1094C265.439 95.1244 266.177 94.6566 266.695 93.6716C266.842 94.1887 267.015 94.4843 266.941 94.5581C266.448 95.0506 266.448 96.0848 265.315 96.1094Z" fill="black"/>
<path d="M264.872 60.7C265.34 60.0597 265.98 59.7396 266.916 60.1336C266.301 60.4291 265.685 60.7 265.069 60.9955C264.995 60.897 264.946 60.7985 264.872 60.7Z" fill="black"/>
<path d="M266.793 62.8176C266.424 63.3101 266.128 63.8026 265.365 63.8272C265.775 63.2362 266.251 62.8997 266.793 62.8176Z" fill="black"/>
<path d="M261.153 13.5695C261.67 14.4559 261.843 15.5394 261.547 16.6228L236.843 109.086C236.277 111.229 234.06 112.509 231.917 111.943L192.386 101.379C190.243 100.813 188.962 98.5965 189.479 96.3803L212.238 11.2056" fill="white"/>
<path d="M261.153 13.5695C261.67 14.4559 261.843 15.5394 261.547 16.6228L236.843 109.086C236.277 111.229 234.06 112.509 231.917 111.943L192.386 101.379C190.243 100.813 188.962 98.5965 189.479 96.3803L212.238 11.2056" stroke="#1E1E1C"/>
<path d="M203.494 100.985L222.558 106.082C222.755 106.131 222.878 106.328 222.829 106.525C222.779 106.722 222.582 106.846 222.385 106.796L203.322 101.699C203.125 101.65 203.001 101.453 203.051 101.256C203.1 101.059 203.297 100.936 203.494 100.985Z" fill="#686867"/>
<path d="M232.237 21.0305L232.952 18.3465L231.277 20.0948L231.03 20.0209L230.439 17.6817L229.725 20.3657L229.282 20.2425L230.218 16.7952L230.661 16.9183L231.301 19.5038L233.149 17.5832L233.592 17.7062L232.656 21.1536L232.237 21.0305Z" fill="#020303"/>
<path d="M235.907 21.5723L235.809 21.9663L233.493 21.3507L234.429 17.9033L236.695 18.5189L236.597 18.9129L234.75 18.4204L234.454 19.5531L236.055 19.9717L235.956 20.3411L234.355 19.9224L234.035 21.1044L235.907 21.5969V21.5723Z" fill="#020303"/>
<path d="M236.055 22.0402L238.37 18.9622L238.715 19.0607L239.183 22.902L238.74 22.7789L238.616 21.6462L237.188 21.2768L236.523 22.1879L236.08 22.0648L236.055 22.0402ZM238.419 19.5039L237.36 20.9321L238.616 21.2768L238.444 19.5039H238.419Z" fill="#020303"/>
<path d="M242.459 20.4642L241.277 20.1442L240.464 23.2222L240.045 23.099L240.858 20.021L239.7 19.7009L239.799 19.3069L242.582 20.0457L242.483 20.4396L242.459 20.4642Z" fill="#020303"/>
<path d="M244.503 23.8623L244.405 24.2563L242.089 23.6407L243.025 20.1934L245.291 20.809L245.193 21.203L243.345 20.7104L243.05 21.8432L244.651 22.2618L244.552 22.6311L242.951 22.2126L242.631 23.3945L244.503 23.887V23.8623Z" fill="#020303"/>
<path d="M244.996 24.4286L245.932 20.9812L247.385 21.3752C247.533 21.4244 247.656 21.4737 247.779 21.5722C247.902 21.6707 247.976 21.7692 248.025 21.9169C248.099 22.04 248.124 22.1878 248.148 22.3355C248.173 22.4832 248.148 22.631 248.124 22.7541C248.099 22.8773 248.05 23.0004 247.976 23.0743C247.902 23.1728 247.853 23.2712 247.754 23.3451C247.656 23.419 247.557 23.4682 247.459 23.5175C247.36 23.5667 247.237 23.5667 247.114 23.5913L247.582 25.1427L247.089 25.0195L246.646 23.5667L245.759 23.3204L245.439 24.5516L245.02 24.4286H244.996ZM245.882 22.9019L246.917 23.1727C246.917 23.1727 247.089 23.1973 247.188 23.1727C247.286 23.1727 247.335 23.1235 247.409 23.0743C247.483 23.025 247.532 22.9511 247.582 22.8772C247.631 22.8034 247.68 22.7049 247.705 22.6064C247.73 22.5079 247.73 22.4093 247.705 22.3108C247.68 22.2124 247.68 22.1385 247.631 22.04C247.582 21.9415 247.557 21.8923 247.483 21.8184C247.409 21.7692 247.335 21.7199 247.262 21.6952L246.252 21.4244L245.858 22.8526L245.882 22.9019Z" fill="#020303"/>
<path d="M229.06 16.2535C229.208 15.6871 228.887 15.1208 228.321 14.973C227.951 14.8745 227.582 14.973 227.336 15.2439C227.016 14.9484 226.621 14.7268 226.178 14.6037C224.651 14.2097 223.099 15.1208 222.681 16.6475C222.484 17.3616 222.582 18.0756 222.878 18.6912C222.878 18.445 223.025 18.1742 223.198 17.9772C223.493 17.6817 224.232 17.1153 223.69 16.6228C224.011 16.7952 224.06 17.066 223.912 17.3862C223.74 17.7309 223.395 18.0264 223.518 18.445C223.617 18.8144 224.134 18.9867 224.355 18.6174C224.7 18.1495 223.986 17.6325 223.863 18.445C223.666 18.1496 223.863 17.8294 224.134 17.7801C224.626 17.7063 225.07 18.2973 224.971 18.8144C225.636 18.5189 225.144 18.051 224.725 17.6324C224.085 16.9922 224.109 16.1796 225.07 15.9333C224.897 16.0318 224.134 16.5736 224.799 17.0168C224.947 16.2535 225.833 15.5147 226.449 15.6132C225.686 15.6871 225.094 16.549 225.439 17.2877C225.587 17.6078 225.956 17.928 226.153 18.2234C226.695 19.0114 226.301 19.5039 225.932 19.7501C226.818 19.4054 226.474 18.445 226.252 18.0511C226.153 17.8294 226.03 17.6324 226.104 17.3616C226.178 17.1646 226.351 16.9922 226.597 16.9922C226.129 17.1154 226.474 17.7556 226.621 17.9772C226.868 18.3958 227.065 18.7159 227.016 19.2084C226.991 19.4793 226.868 19.7008 226.72 19.8732C227.36 19.5039 227.853 18.8882 228.05 18.1003C228.149 17.7309 228.173 17.3616 228.124 16.9922C228.543 16.9184 228.838 16.6228 228.961 16.2288L229.06 16.2535ZM227.878 16.6475C227.508 16.549 227.286 16.155 227.385 15.7856C227.41 15.6625 227.484 15.5394 227.582 15.4655C227.754 15.3177 228.001 15.2439 228.222 15.2932C228.592 15.3917 228.814 15.7856 228.715 16.1549C228.641 16.4258 228.444 16.5982 228.198 16.6475C228.099 16.6721 228.001 16.6721 227.878 16.6475Z" fill="#CF122E"/>
<path d="M192.805 81.6796L198.346 85.841L201.129 89.1653L201.597 93.4007L199.75 96.4294L198.199 96.848L192.854 95.5922L189.356 93.0805L185.046 90.9136L182.386 86.432L185.071 81.975L188.248 81.0393L192.805 81.6796Z" fill="white"/>
<path d="M192.607 75.4006L194.849 77.6907L197.558 79.3651L200.711 79.439L203.395 77.8138L205.193 75.0559L205.464 72.3472L204.159 69.6385L201.474 65.551L199.036 61.9066L196.45 59.5427L192.607 75.4006Z" fill="white"/>
<path d="M196.671 57.4743L199.504 58.4346L202.952 57.0065L204.701 54.5686L205.415 51.5645L204.775 48.5111L203.962 46.3195L202.829 44.3743L202.189 43.1923L198.42 40.4836L196.671 57.4743Z" fill="white"/>
<path d="M192.731 50.4563C192.238 49.8653 192.164 49.102 192.312 48.3879C192.632 46.9351 193.371 45.6546 194.676 44.842C196.45 43.7586 198.1 44.4972 199.627 45.4083C200.243 45.7777 201.031 46.1963 201.277 47.4029C200.465 46.8611 199.898 46.3933 199.258 46.1224C198.346 45.7285 197.41 45.3591 196.45 45.1621C196.031 45.0636 195.44 45.2852 195.046 45.5561C193.716 46.3933 193.026 47.6245 193.002 49.2005C193.002 49.5944 193.026 49.9885 193.051 50.3824C192.952 50.4071 192.829 50.4316 192.731 50.4809V50.4563Z" fill="black"/>
<path d="M205.932 118.813C208.1 118.517 209.849 117.335 211.696 116.35C214.553 114.824 217.484 113.396 220.563 112.091C220.316 112.337 220.119 112.632 219.824 112.78C216.942 114.331 214.085 115.883 211.154 117.36C209.824 118.025 208.371 118.517 206.967 119.035C206.671 119.158 206.302 119.133 205.982 119.182C205.982 119.059 205.932 118.936 205.908 118.813H205.932Z" fill="black"/>
<path d="M193.346 68.9246C192.681 66.5114 195.489 64.6153 197.435 65.5756C199.455 66.5606 201.08 68.0135 202.287 69.9095C202.336 69.9588 202.287 70.0818 202.238 70.3281C201.4 69.5155 200.637 68.7029 199.824 67.9888C199.11 67.3732 198.346 66.7822 197.509 66.339C196.056 65.5756 194.602 66.142 193.913 67.6195C193.716 68.0627 193.519 68.5059 193.346 68.9491V68.9246Z" fill="black"/>
<path d="M198.149 88.8698C197.73 88.6482 197.336 88.402 196.918 88.1803C196.031 87.7125 195.194 87.0969 194.258 86.8014C192.361 86.2104 191.425 86.9245 191.277 88.8698C190.538 87.5401 191.179 86.1366 192.706 86.0135C195.021 85.8165 196.77 86.9985 198.395 88.402C198.322 88.5498 198.223 88.7221 198.149 88.8698Z" fill="black"/>
<path d="M200.957 48.0925C197.607 48.7081 194.947 49.8655 194.602 53.7561C193.888 52.7465 194.134 51.7861 194.652 51.0474C196.031 48.979 198.051 47.8709 200.538 47.7231C200.612 47.7231 200.686 47.8462 200.957 48.0925Z" fill="black"/>
<path d="M195.735 75.1049C196.376 72.2978 199.652 70.4264 202.558 71.2144C201.425 71.4606 200.563 71.5345 199.799 71.83C198.987 72.1501 198.174 72.618 197.509 73.1597C196.844 73.7014 196.326 74.4401 195.76 75.1049H195.735Z" fill="black"/>
<path d="M201.597 107.781C200.366 109.825 198.149 111.179 196.548 110.884C198.248 109.85 199.775 108.914 201.597 107.781Z" fill="black"/>
<path d="M195.415 93.918C195.144 91.7511 197.065 89.6334 199.381 89.5349C197.583 90.6676 195.982 91.628 195.415 93.918Z" fill="black"/>
<path d="M189.972 62.7437C189.677 63.6547 189.135 64.1965 188.42 64.7382C188.42 63.4577 188.617 63.1623 189.972 62.7437Z" fill="black"/>
<path d="M193.642 70.9436C194.011 71.8793 194.381 72.815 194.824 73.9477C193.79 73.1598 193.494 72.4703 193.642 70.9436Z" fill="black"/>
<path d="M194.455 93.3023C193.691 92.9575 193.248 92.3173 193.1 91.3816C193.667 91.9233 194.208 92.4404 194.775 92.9821C194.676 93.1053 194.553 93.2038 194.455 93.3269V93.3023Z" fill="black"/>
<path d="M187.952 85.2747C187.657 85.9149 187.386 86.5551 187.09 87.1954C186.992 87.1461 186.869 87.0969 186.77 87.0723C187.041 86.4321 187.287 85.7672 187.558 85.127C187.681 85.1762 187.804 85.2255 187.952 85.2993V85.2747Z" fill="black"/>
<path d="M186.598 94.6565C186.77 93.9178 187.14 93.6469 187.829 93.5977C187.854 94.4841 187.46 94.7303 186.598 94.6565Z" fill="black"/>
<g style="mix-blend-mode:multiply">
<path d="M205.76 73.332C205.76 73.332 206.154 79.2911 202.46 81.5072C198.765 83.7234 195.489 81.261 195.489 81.261L194.43 80.3746L195.071 77.9614C195.071 77.9614 195.809 78.7001 197.386 79.2419C198.987 79.7836 202.164 78.5524 202.164 78.5524C202.164 78.5524 205.169 75.2035 205.021 74.9327C204.873 74.6618 205.735 73.332 205.735 73.332H205.76Z" fill="#E5E4E4"/>
</g>
<g style="mix-blend-mode:multiply">
<path d="M201.893 92.8835C202.016 94.6072 201.819 97.9561 199.972 98.9903C198.125 100.025 195.243 99.2366 193.568 98.4978C191.893 97.7591 190.046 96.7249 190.046 96.7249L190.736 94.1394L194.578 96.0601L198.026 96.7495C198.026 96.7495 200.415 95.2967 200.415 95.0013C200.415 94.7058 201.893 92.8835 201.893 92.8835Z" fill="#E5E4E4"/>
</g>
<g style="mix-blend-mode:multiply">
<path d="M205.563 50.3826C205.563 50.3826 206.523 54.0762 204.824 57.8437C203.124 61.6112 202.016 61.6111 201.105 61.882C200.193 62.1528 199.381 61.882 199.381 61.882L200.243 58.6562L202.706 57.5235L204.528 54.5194L205.587 50.4071L205.563 50.3826Z" fill="#E5E4E4"/>
</g>
<g style="mix-blend-mode:multiply">
<path d="M193.396 79.365L191.425 74.3416L191.647 74.0708L194.036 76.8779L193.396 79.365Z" fill="#E5E4E4"/>
</g>
<g style="mix-blend-mode:multiply">
<path d="M198.272 61.1431L195.933 58.4591L196.45 57.8188L198.913 58.6561L198.272 61.1431Z" fill="black"/>
</g>
<g style="mix-blend-mode:multiply">
<path d="M188.938 96.0356L188.174 92.0465L188.396 91.7756L189.578 93.5486L188.938 96.0356Z" fill="#E5E4E4"/>
</g>
<g style="mix-blend-mode:multiply">
<path d="M206.376 31.2497L203.322 27.2606C203.322 27.2606 205.218 27.6053 206.228 27.2606C207.238 26.8912 207.755 26.251 207.755 26.251L206.376 31.2743V31.2497Z" fill="#E5E4E4"/>
</g>
<path d="M268.739 118.123C268.591 115.415 268.739 112.681 268.616 109.973C268.468 106.845 268.616 103.743 269.133 100.64C269.7 97.2913 269.749 93.9178 269.527 90.5443C269.306 86.9245 268.961 83.3294 268.567 79.7097C268.099 75.3512 268.345 71.0666 269.552 66.8313C270.34 64.1226 270.291 61.4878 269.109 58.8777C267.581 55.5042 267.163 51.9337 267.631 48.2647C268.074 44.7681 268.517 41.2714 268.887 37.7748C268.985 36.7898 268.887 35.7556 268.69 34.7953C268.444 33.5149 267.606 32.7023 266.35 32.2837C265.266 31.9389 264.183 31.8896 263.074 32.0866C258.986 32.7515 256.35 36.2728 255.365 39.8925C255.316 40.0649 255.463 40.2865 255.587 40.6805C255.956 40.1388 256.178 39.7447 256.449 39.4C257.459 38.0949 258.222 36.5929 259.7 35.6818C261.769 34.3767 264.109 34.4752 266.399 34.3029C266.744 34.2782 267.114 34.6476 267.655 34.9677C267.089 35.2632 266.818 35.4848 266.498 35.6079C264.848 36.2235 264.158 37.4793 263.912 39.1784C263.616 41.2468 263.591 43.2906 263.788 45.3591C263.936 46.8365 264.183 48.3139 265.242 49.8652C265.217 49.3481 265.242 49.1758 265.168 49.0035C264.429 46.6642 264.256 44.251 264.256 41.8378C264.256 40.6313 264.453 39.4246 264.7 38.2427C264.995 36.716 266.227 36.1989 267.803 35.6325C267.655 37.4301 267.557 38.9075 267.384 40.4096C267.04 43.5615 266.178 46.6395 266.35 49.8407C266.35 49.9392 266.375 50.0869 266.325 50.1361C265.488 50.7764 266.128 51.4658 266.251 52.1307C266.375 52.7709 266.596 53.4111 266.646 54.0514C266.769 56.2429 267.311 58.3113 268.148 60.3305C268.641 61.4632 268.69 62.6698 268.468 63.8764C268.32 64.7136 268.074 65.5508 267.902 66.3881C267.138 69.7862 266.719 73.2335 266.966 76.7301C267.335 82.0982 267.754 87.4663 268.123 92.8343C268.271 94.8535 268.099 96.848 267.606 98.818C267.04 101.108 266.695 103.472 266.793 105.86C266.916 108.471 267.064 111.081 267.113 113.716C267.237 118.887 267.286 124.058 267.754 129.229H269.527C269.182 125.535 268.862 121.866 268.665 118.173L268.739 118.123Z" fill="black"/>
<path d="M200.834 121.743C200.834 121.743 200.834 121.546 200.834 121.399C201.105 121.202 201.4 120.98 201.868 120.66C200.957 120.512 200.144 120.758 199.701 119.872C198.494 117.434 197.238 115.046 195.982 112.632C195.588 111.869 195.218 111.106 194.775 110.392C193.494 108.348 192.164 106.329 190.883 104.285C190.637 103.891 190.538 103.398 190.366 102.93C190.809 102.857 191.056 102.807 191.376 102.758C190.982 102.339 190.686 102.019 190.415 101.699C189.356 100.493 188.322 99.2614 187.263 98.0549C185.637 96.2573 184.135 94.3613 183.223 92.0959C182.755 90.9385 182.238 89.7319 182.509 88.4515C182.952 86.4077 183.814 84.5363 185.292 83.0096C186.277 81.9754 187.435 81.3844 188.937 81.606C193.593 82.2708 197.189 84.6594 199.898 88.4023C201.129 90.1013 201.277 92.0712 200.514 94.0165C199.873 95.6417 198.79 96.4297 197.287 96.1588C194.479 95.6663 191.819 94.8291 189.701 92.7607C189.282 92.3667 188.79 92.0466 188.322 91.7019C188.248 91.825 188.199 91.9235 188.125 92.0466C190.612 95.1246 193.888 96.7744 197.73 97.4146C198.666 97.5624 199.627 97.4146 200.267 96.7251C201.4 95.4447 202.435 94.0165 202.262 92.1697C202.115 90.3722 201.499 88.6731 200.341 87.3188C199.134 85.9152 197.73 84.684 196.351 83.4281C195.021 82.2216 193.617 81.0643 192.681 79.4637C192.139 78.5526 191.425 77.7646 190.859 76.8781C189.282 74.3665 187.484 71.978 186.45 69.1462C185.612 66.8069 185.194 64.5168 186.869 62.2761C189.529 58.7302 195.218 57.3759 198.568 61.9314C200.563 64.6646 202.238 67.5702 204.134 70.3528C205.39 72.1503 205.144 73.9233 204.134 75.7454C202.656 78.4295 198.863 79.6361 196.302 78.1586C194.775 77.2968 193.691 75.9917 192.46 74.8097C192.189 74.5388 191.893 74.2926 191.598 74.0217L191.351 74.2926C192.558 75.6223 193.716 77.0013 194.996 78.2817C196.129 79.4144 197.607 80.0547 199.208 80.0054C201.942 79.9069 204.011 78.6019 205.292 76.1641C206.573 73.7263 206.277 71.4362 204.528 69.2939C203.568 68.1366 202.706 66.8808 201.918 65.6003C200.39 63.1133 198.987 60.5278 196.647 58.681C196.597 58.6317 196.597 58.5086 196.548 58.2623C197.115 58.5086 197.583 58.7302 198.075 58.9518C199.307 59.4689 200.538 59.4689 201.721 58.8779C204.602 57.4251 206.376 53.633 205.711 50.4811C205.218 48.0926 204.257 45.8764 203.051 43.7833C202.804 43.3401 202.558 42.8231 201.696 42.9215C201.967 43.414 202.164 43.808 202.41 44.1773C203.543 45.9749 204.553 47.8217 204.824 49.9887C205.144 52.5496 204.553 54.7657 202.312 56.3416C200.12 57.893 198.051 57.8929 195.957 56.1692C193.617 54.2486 192.016 51.7369 190.662 49.1021C190.07 47.9694 190.144 46.5166 190.785 45.4332C192.312 42.8476 194.726 40.7054 198.272 41.0501C199.602 41.1732 200.932 41.5672 202.238 41.8873C202.583 41.9612 202.927 42.0843 203.248 42.1828L203.494 41.1978C201.918 40.73 200.341 40.2868 198.74 40.0651C194.996 39.548 192.115 41.2225 189.997 44.2266C189.578 44.8176 189.258 45.6055 189.233 46.3196C189.159 47.9448 189.405 49.5208 190.292 50.9736C191.573 53.042 192.854 55.0612 194.726 56.6618C195.07 56.9572 195.44 57.2527 195.12 57.7944C195.021 57.8191 194.947 57.893 194.849 57.893C194.602 57.893 194.356 57.893 194.085 57.8437C191.622 57.499 189.455 58.0653 187.46 59.6659C185.194 61.4635 183.667 65.0339 184.849 68.1858C185.859 70.8945 186.942 73.5293 188.765 75.8193C189.8 77.1244 190.662 78.528 191.598 79.9069C191.721 80.1039 191.77 80.3502 191.942 80.8426C191.031 80.6456 190.366 80.4979 189.701 80.3501C186.844 79.7838 184.701 80.6949 183.1 83.1573C182.903 83.4528 182.706 83.7483 182.534 84.0437C180.563 87.3434 180.76 91.8004 183.125 94.706C184.8 96.7744 186.672 98.6705 188.42 100.69C188.691 101.01 188.937 101.404 189.011 101.798C189.578 104.285 190.588 106.55 191.967 108.717C193.026 110.367 194.159 111.992 194.923 113.79C197.287 119.305 200.39 124.353 203.814 129.229H205.957C204.036 126.89 202.312 124.403 200.76 121.768L200.834 121.743Z" fill="black"/>
<path d="M227.533 66.5358C237.64 66.5358 245.833 58.3445 245.833 48.24C245.833 38.1356 237.64 29.9443 227.533 29.9443C217.426 29.9443 209.233 38.1356 209.233 48.24C209.233 58.3445 217.426 66.5358 227.533 66.5358Z" fill="#74B958"/>
<path d="M220.834 46.4672L219.454 46.0978L218.937 48.0677L218.543 47.9692L219.799 43.2168L221.351 43.6108C221.868 43.7339 222.213 43.9801 222.435 44.3003C222.656 44.6204 222.705 44.9897 222.582 45.433C222.508 45.7284 222.336 45.9747 222.114 46.1716C221.893 46.3686 221.597 46.4672 221.277 46.4672L221.942 48.8064V48.8557L221.499 48.7326L220.883 46.4425L220.834 46.4672ZM219.553 45.7531L220.784 46.0732C221.129 46.1717 221.425 46.1471 221.671 45.9993C221.917 45.8516 222.09 45.6299 222.164 45.3344C222.262 44.9897 222.213 44.7188 222.04 44.4726C221.868 44.2263 221.597 44.054 221.228 43.9555L220.095 43.66L219.553 45.7531Z" fill="white"/>
<path d="M224.035 49.496C223.74 49.4222 223.494 49.2744 223.272 49.0528C223.05 48.8312 222.927 48.585 222.878 48.2895C222.829 47.994 222.829 47.6739 222.902 47.3537V47.206C223.026 46.8613 223.173 46.5904 223.37 46.3441C223.567 46.0979 223.814 45.9502 224.085 45.8517C224.356 45.7532 224.627 45.7532 224.898 45.8271C225.316 45.9502 225.636 46.1718 225.809 46.5412C225.981 46.9105 226.006 47.3291 225.858 47.8463L225.809 48.0679L223.297 47.403V47.4768C223.173 47.8708 223.198 48.2402 223.346 48.5603C223.494 48.8804 223.765 49.102 224.109 49.1759C224.306 49.2251 224.503 49.2498 224.7 49.2005C224.898 49.1513 225.07 49.0774 225.242 48.9543L225.439 49.2005C225.045 49.5453 224.577 49.6438 224.035 49.496ZM224.848 46.1472C224.553 46.0733 224.282 46.1225 224.011 46.2703C223.74 46.418 223.543 46.6889 223.42 47.0336L225.538 47.6V47.5507C225.636 47.206 225.612 46.9105 225.489 46.6396C225.365 46.3688 225.144 46.221 224.848 46.1225V46.1472Z" fill="white"/>
<path d="M228.37 50.5547C228.37 50.5547 228.37 50.2592 228.42 50.0376C228.247 50.1854 228.026 50.2839 227.779 50.3085C227.533 50.3331 227.311 50.3331 227.065 50.2839C226.72 50.1854 226.474 50.0376 226.326 49.7914C226.178 49.5451 226.129 49.2743 226.203 48.9788C226.301 48.6341 226.498 48.4124 226.843 48.2647C227.188 48.1169 227.607 48.1416 228.124 48.2647L228.838 48.4617L228.937 48.0677C229.011 47.8215 228.986 47.5998 228.863 47.4028C228.74 47.2058 228.543 47.0827 228.247 47.0088C227.976 46.935 227.73 46.9596 227.508 47.0335C227.287 47.1073 227.163 47.2797 227.114 47.4767L226.72 47.3782C226.794 47.1074 226.991 46.8858 227.311 46.7626C227.631 46.6395 227.976 46.6149 228.346 46.7133C228.715 46.8118 229.035 47.0088 229.208 47.2551C229.38 47.5013 229.429 47.8214 229.331 48.1662L228.888 49.8407C228.789 50.1854 228.764 50.4562 228.789 50.6286V50.6779L228.37 50.5793V50.5547ZM227.213 49.9637C227.484 50.0376 227.73 50.0376 227.952 49.9637C228.173 49.8899 228.395 49.7667 228.543 49.5698L228.74 48.7818L228.05 48.6094C227.656 48.511 227.336 48.5109 227.09 48.5848C226.843 48.6587 226.671 48.8311 226.622 49.0773C226.572 49.2743 226.622 49.4467 226.72 49.619C226.819 49.7914 227.016 49.9145 227.237 49.9637H227.213Z" fill="white"/>
<path d="M230.045 49.0775C230.193 48.5358 230.415 48.1171 230.759 47.8709C231.104 47.6247 231.474 47.5262 231.892 47.6493C232.36 47.7724 232.681 48.0679 232.828 48.5112L233.346 46.5413L233.74 46.6397L232.41 51.6384L232.04 51.5399L232.139 51.0721C231.794 51.3676 231.375 51.4414 230.907 51.3183C230.489 51.2198 230.218 50.9736 230.045 50.5796C229.873 50.1856 229.873 49.7178 230.021 49.1514V49.1021L230.045 49.0775ZM230.415 49.2499C230.291 49.6931 230.291 50.0871 230.415 50.3826C230.538 50.6781 230.759 50.8751 231.08 50.9736C231.572 51.0967 231.966 50.9736 232.262 50.6042L232.705 48.9544C232.631 48.4373 232.336 48.1172 231.868 47.9941C231.548 47.8956 231.252 47.9694 231.006 48.191C230.759 48.4126 230.562 48.7574 230.439 49.2499H230.415Z" fill="white"/>
<path d="M234.7 51.6136L236.523 48.9049L236.942 49.0034L234.355 52.7463L234.232 52.9186C233.937 53.288 233.567 53.4357 233.173 53.3372C233.075 53.3372 232.976 53.2634 232.878 53.2141L232.952 52.894L233.149 52.9679C233.346 53.0171 233.518 53.0171 233.641 52.9679C233.764 52.9186 233.937 52.7708 234.06 52.5492L234.355 52.1307L233.937 48.2893L234.355 48.4124L234.676 51.6628L234.7 51.6136Z" fill="white"/>
<path d="M37.1051 15.0226L15.0613 18.4895L31.2593 121.433L53.3031 117.966L37.1051 15.0226Z" fill="#C4C4C4"/>
<path d="M39.2849 22.8774L15.7139 26.571L29.7038 115.169L53.2501 111.45L39.3095 22.8528L39.2849 22.8774Z" fill="#D8AE6C"/>
<path d="M37.8318 13.7173L14.2854 17.4601L15.7139 26.7188L39.2603 23.0005L37.8318 13.7173Z" fill="#F5CF89"/>
<path d="M27.8813 24.9704L39.3097 23.1482L49.9007 90.3719L38.4969 92.1695L27.8813 24.9704Z" fill="#F5CF89"/>
<path d="M53.1518 111.056L29.6055 114.774L30.9601 123.344L54.5065 119.675L53.1518 111.056Z" fill="#F5CF89"/>
<path d="M27.9799 25.4875L15.8865 27.4082L15.985 28.0731L28.1276 26.1524L28.0045 25.4875H27.9799Z" fill="#BA9562"/>
<path d="M27.9058 25.0935L15.7632 27.0142L15.8617 27.6791L28.0043 25.7584L27.9058 25.0935Z" fill="#AC8859"/>
<path d="M49.802 89.978L37.8564 91.8495L37.955 92.5143L49.9006 90.6429L49.802 89.978Z" fill="#BA9562"/>
<path d="M49.7527 89.584L37.8071 91.4554L37.9056 92.1203L49.8512 90.2489L49.7527 89.6086V89.584Z" fill="#AC8859"/>
<path d="M38.1275 92.465L27.709 26.1277L27.0439 26.2262L37.4871 92.5634L38.1275 92.465Z" fill="#BA9562"/>
<path d="M38.4722 92.0217L28.029 25.7336L27.364 25.8322L37.8072 92.1202L38.4722 92.0217Z" fill="#AC8859"/>
<path d="M15.5171 25.5369L39.0881 21.8186L39.2851 23.1483L15.7141 26.8665L15.5171 25.5369Z" fill="#F9F7F7"/>
<path d="M15.4924 25.3151L39.0634 21.5969L39.1127 21.8678L15.5417 25.6107L15.4924 25.3151Z" fill="white"/>
<path d="M39.5313 111.204L30.5659 112.607L30.8861 114.627L39.8515 113.223L39.5313 111.204Z" fill="#DBDBDB"/>
<path d="M39.6052 111.573L30.6152 113.001L30.6891 113.469L39.6545 112.066L39.5806 111.598L39.6052 111.573Z" fill="#F2F2F2"/>
<path d="M39.8023 112.903L30.8369 114.307L30.8862 114.651L39.8515 113.248L39.8023 112.903Z" fill="#969696"/>
<path d="M39.7776 112.632L30.8123 114.036L30.8615 114.381L39.8269 112.952L39.7776 112.657V112.632Z" fill="#C4C4C4"/>
<path d="M15.7388 26.7681L39.2851 23.0498L39.3344 23.3206L15.788 27.0142L15.7388 26.7681Z" fill="#D8D8D8"/>
<path d="M14.7287 17.3616L14.2854 17.4354L15.5169 25.3398L15.9602 25.2659L14.7287 17.3616Z" fill="#D1AB6F"/>
<path d="M37.8071 13.7173L37.3638 13.7912L38.5953 21.6955L39.0386 21.6216L37.8071 13.7173Z" fill="#F7DBAC"/>
<path d="M39.3342 23.2959L38.8909 23.3698L49.3094 89.6332L49.7527 89.5593L39.3342 23.2959Z" fill="#F7DBAC"/>
<path d="M29.9009 113.543L29.4575 113.617L30.9846 123.344L31.4279 123.27L29.9009 113.543Z" fill="#D1AB6F"/>
<path d="M54.3586 119.675L54.2847 119.256L31.2063 122.876L31.2802 123.294L54.3586 119.675Z" fill="#D1AB6F"/>
<path d="M37.7579 14.2096L37.684 13.7664L14.2854 17.46L14.3593 17.9033L37.7579 14.2096Z" fill="#F7DBAC"/>
<path d="M16.3545 27.6052L15.9111 27.6791L29.6055 114.725L30.0488 114.651L16.3545 27.6052Z" fill="#BA9562"/>
<path d="M53.1764 111.056L52.6838 111.13L54.0385 119.748L54.5311 119.675L53.1764 111.056Z" fill="#F7DBAC"/>
<path d="M49.9499 90.5938L49.5066 90.6676L52.7331 111.13L53.1765 111.056L49.9499 90.5938Z" fill="#E3BC88"/>
<path d="M43.0041 85.4719C43.2012 85.5212 43.4228 85.5212 43.6199 85.4719C43.8169 85.398 43.9893 85.2995 44.1125 85.1271C44.2356 84.9548 44.3095 84.7578 44.3342 84.5608C44.3342 84.3638 44.3095 84.1422 44.211 83.9698C44.1125 83.7974 43.9647 83.6497 43.7677 83.5512C43.5953 83.4527 43.3736 83.4281 43.1765 83.4527C42.9795 83.4527 42.7825 83.5512 42.61 83.699C42.4623 83.8221 42.3391 84.0191 42.2899 84.2161C42.216 84.4869 42.2406 84.7578 42.3884 85.0041C42.5115 85.2503 42.7578 85.4226 43.0041 85.4965V85.4719Z" fill="#686867"/>
<path d="M44.3342 84.2897C44.3096 84.0681 44.2111 83.8711 44.0633 83.6988C43.9155 83.551 43.7431 83.4525 43.5214 83.4033C43.2998 83.354 43.0781 83.3787 42.8811 83.4772C42.684 83.5757 42.5116 83.7234 42.4131 83.8957C42.5609 83.6987 42.8072 83.5756 43.0535 83.551C43.2505 83.5264 43.4475 83.551 43.62 83.6249C43.7924 83.6988 43.9648 83.8219 44.0633 83.9942C44.1618 84.1666 44.2357 84.339 44.2357 84.536C44.2357 84.733 44.1865 84.9299 44.0633 85.1023C44.1618 84.9792 44.2357 84.8561 44.2603 84.7084C44.3096 84.5852 44.3342 84.4375 44.3096 84.2897H44.3342Z" fill="#909091"/>
<path d="M49.9499 115.439L51.674 115.169L51.8218 116.178L50.0976 116.498L50.4178 118.493L49.3341 118.665L49.0139 116.671L47.2406 116.966L47.0928 115.932L48.8169 115.661L48.5459 113.814L49.6297 113.642L49.9745 115.464L49.9499 115.439Z" fill="#686867"/>
<path d="M30.2213 91.1352L20.8618 31.6188C20.517 28.7378 21.0589 29.1564 21.4283 26.2754C21.182 26.3246 19.2855 28.3438 19.8274 31.7666L29.1622 91.283L31.3789 111.45L31.5267 112.435L32.6104 112.263L30.2213 91.1106V91.1352Z" fill="#BA9562"/>
<path d="M30.5413 91.0614L21.1818 31.5449C20.7877 28.6885 20.9602 28.6639 21.4035 26.2754C21.034 26.6694 19.6055 28.2945 20.1474 31.7173L29.5314 91.1845L31.7728 111.376L31.9206 112.41L32.9796 112.238L30.5659 91.0367L30.5413 91.0614Z" fill="#AC8859"/>
<mask id="mask0_1114_1717" style="mask-type:luminance" maskUnits="userSpaceOnUse" x="19" y="24" width="19" height="89">
<path d="M24.2711 24.6944L19.0388 25.5098L32.5666 112.272L37.7989 111.456L24.2711 24.6944Z" fill="white"/>
</mask>
<g mask="url(#mask0_1114_1717)">
<path d="M23.8914 29.5013C23.5712 27.4082 21.8717 25.0689 21.6008 25.1182C21.3298 25.1674 20.4185 27.9007 20.7387 29.9938L30.2213 90.8399L33.4232 90.3474L23.8667 29.5259L23.8914 29.5013Z" fill="#C8C8C9"/>
<path d="M30.7385 90.7415L21.4037 29.9692C21.0589 27.7777 21.4529 25.4138 21.6007 25.1183C21.2805 25.3399 20.5909 27.8762 20.9357 30.0431L30.3937 90.8154L30.7385 90.7661V90.7415Z" fill="#7F7F80"/>
<path d="M32.6105 90.446L23.1279 29.5999C22.8077 27.5068 21.921 25.3152 21.6008 25.0936C21.921 25.3152 23.2018 27.433 23.522 29.526L33.0046 90.3721L32.5859 90.446H32.6105Z" fill="white"/>
<path d="M31.2065 90.6676L21.724 29.8215C21.4038 27.7284 21.453 25.3891 21.5762 25.0936C21.3299 25.3152 20.9112 27.7777 21.256 29.8954L30.7386 90.7415L31.3051 90.643H31.2065V90.6676Z" fill="#D8D8D8"/>
<path d="M32.6842 111.179L30.2212 90.8153L33.0044 90.3721L37.1915 110.465L32.6596 111.179H32.6842Z" fill="#C9C8C9"/>
<path d="M32.6844 111.179L30.7386 90.7415L30.3938 90.7908L32.6844 111.179Z" fill="#7F7F80"/>
<path d="M33.4231 90.3229L37.2161 110.465L33.0044 90.3721L33.4231 90.2982V90.3229Z" fill="#D8D8D8"/>
<path d="M37.2162 110.49L33.0044 90.3967L32.5857 90.4706L37.1915 110.49H37.2162Z" fill="white"/>
<path d="M32.6843 111.18L30.7632 90.7415L31.2312 90.6676L32.6843 111.18Z" fill="#D8D8D8"/>
<path d="M37.3887 111.524L37.2163 110.465L32.6843 111.18L32.8567 112.214L37.3887 111.5V111.524Z" fill="#DDDDDD"/>
<path d="M29.901 67.5949V67.4471L26.6006 67.9642V68.112L29.901 67.5949Z" fill="#F2F2F2"/>
<path d="M29.901 67.6934V67.6195L26.6252 68.1366V68.2105L29.901 67.6934Z" fill="#7F7F80"/>
<path d="M29.8765 88.6484L30.1474 90.3722L33.3493 89.8796L33.0784 88.156" fill="#303031"/>
<path d="M32.6843 88.2299L32.9553 89.9535L32.5366 90.0274L32.2656 88.3037" fill="#5C5C5C"/>
<path d="M30.0488 88.6239L30.3198 90.3475L31.0587 90.2244L30.7877 88.5007" fill="#1D1E1B"/>
<path d="M30.4185 88.5746L30.6894 90.2983L31.1574 90.2244L30.8864 88.5007" fill="#333333"/>
</g>
<path d="M15.5171 25.5613L39.1127 21.8923L39.2605 22.8526L15.6649 26.5217L15.5171 25.5613Z" fill="#F9F7F7"/>
<path d="M15.6648 26.5218L39.2604 22.8528L39.3343 23.3453L15.7387 27.0143L15.6648 26.5218Z" fill="#D8D8D8"/>
<path d="M15.4431 25.0935L39.0388 21.4246L39.1126 21.9171L15.517 25.586L15.4431 25.0935Z" fill="white"/>
<path d="M267.36 130.017H10.5171C4.72898 130.017 0 125.363 0 119.65V17.6817C0 11.9689 4.70435 7.31494 10.5171 7.31494H267.36C273.148 7.31494 277.877 11.9689 277.877 17.6817V119.65C277.877 125.363 273.148 130.017 267.36 130.017ZM10.5171 8.57079C5.39399 8.57079 1.23151 12.6584 1.23151 17.7063V119.675C1.23151 124.698 5.39399 128.81 10.5171 128.81H267.36C272.483 128.81 276.621 124.698 276.621 119.675V17.7063C276.621 12.6584 272.458 8.57079 267.36 8.57079H10.5171Z" fill="#D8D8D8"/>
<path d="M212.238 11.2056L214.183 3.91682C214.824 1.84839 217.016 0.568005 219.183 1.13436L258.715 11.698C259.798 11.9935 260.636 12.683 261.153 13.5695" fill="white"/>
<path d="M212.238 11.2056L214.183 3.91682C214.824 1.84839 217.016 0.568005 219.183 1.13436L258.715 11.698C259.798 11.9935 260.636 12.683 261.153 13.5695" stroke="#1E1E1C"/>
<path d="M235.439 8.32458L241.03 9.82669C241.227 9.87593 241.35 10.0729 241.301 10.2699C241.252 10.4669 241.055 10.59 240.858 10.5407L235.267 9.0387C235.07 8.98945 234.946 8.79247 234.996 8.59548C235.045 8.39849 235.242 8.27533 235.439 8.32458Z" fill="#686867"/>
<path d="M242.779 11.4517C243.214 11.4517 243.567 11.0989 243.567 10.6637C243.567 10.2285 243.214 9.87573 242.779 9.87573C242.344 9.87573 241.991 10.2285 241.991 10.6637C241.991 11.0989 242.344 11.4517 242.779 11.4517Z" fill="#686867"/>
</svg>
