<svg width="278" height="131" viewBox="0 0 278 131" fill="none" xmlns="http://www.w3.org/2000/svg">
<mask id="mask0_1114_1419" style="mask-type:luminance" maskUnits="userSpaceOnUse" x="0" y="7" width="278" height="124">
<path d="M267.36 130.648H10.5171C4.72898 130.648 0 125.994 0 120.281V18.3128C0 12.6 4.70435 7.94604 10.5171 7.94604H267.36C273.148 7.94604 277.877 12.6 277.877 18.3128V120.281C277.877 125.994 273.148 130.648 267.36 130.648Z" fill="white"/>
</mask>
<g mask="url(#mask0_1114_1419)">
<path d="M120.663 63.6457H118.988C118.372 63.6457 117.88 63.1532 117.88 62.5376C117.88 61.922 118.372 61.4296 118.988 61.4296H120.663C121.279 61.4296 121.771 61.922 121.771 62.5376C121.771 63.1532 121.279 63.6457 120.663 63.6457Z" fill="#CAC9C9"/>
<path d="M242.237 63.6457H238.863C238.247 63.6457 237.755 63.1532 237.755 62.5376C237.755 61.922 238.247 61.4296 238.863 61.4296H242.237C242.853 61.4296 243.346 61.922 243.346 62.5376C243.346 63.1532 242.853 63.6457 242.237 63.6457ZM235.489 63.6457H232.114C231.499 63.6457 231.006 63.1532 231.006 62.5376C231.006 61.922 231.499 61.4296 232.114 61.4296H235.489C236.104 61.4296 236.597 61.922 236.597 62.5376C236.597 63.1532 236.104 63.6457 235.489 63.6457ZM228.74 63.6457H225.366C224.75 63.6457 224.257 63.1532 224.257 62.5376C224.257 61.922 224.75 61.4296 225.366 61.4296H228.74C229.356 61.4296 229.848 61.922 229.848 62.5376C229.848 63.1532 229.356 63.6457 228.74 63.6457ZM221.991 63.6457H218.617C218.001 63.6457 217.509 63.1532 217.509 62.5376C217.509 61.922 218.001 61.4296 218.617 61.4296H221.991C222.607 61.4296 223.1 61.922 223.1 62.5376C223.1 63.1532 222.607 63.6457 221.991 63.6457ZM215.243 63.6457H211.868C211.253 63.6457 210.76 63.1532 210.76 62.5376C210.76 61.922 211.253 61.4296 211.868 61.4296H215.243C215.858 61.4296 216.351 61.922 216.351 62.5376C216.351 63.1532 215.858 63.6457 215.243 63.6457ZM208.494 63.6457H205.12C204.504 63.6457 204.011 63.1532 204.011 62.5376C204.011 61.922 204.504 61.4296 205.12 61.4296H208.494C209.11 61.4296 209.602 61.922 209.602 62.5376C209.602 63.1532 209.11 63.6457 208.494 63.6457ZM201.745 63.6457H198.371C197.755 63.6457 197.263 63.1532 197.263 62.5376C197.263 61.922 197.755 61.4296 198.371 61.4296H201.745C202.361 61.4296 202.854 61.922 202.854 62.5376C202.854 63.1532 202.361 63.6457 201.745 63.6457ZM194.997 63.6457H191.622C191.007 63.6457 190.514 63.1532 190.514 62.5376C190.514 61.922 191.007 61.4296 191.622 61.4296H194.997C195.613 61.4296 196.105 61.922 196.105 62.5376C196.105 63.1532 195.613 63.6457 194.997 63.6457ZM188.248 63.6457H184.874C184.258 63.6457 183.765 63.1532 183.765 62.5376C183.765 61.922 184.258 61.4296 184.874 61.4296H188.248C188.864 61.4296 189.356 61.922 189.356 62.5376C189.356 63.1532 188.864 63.6457 188.248 63.6457ZM181.499 63.6457H178.125C177.509 63.6457 177.017 63.1532 177.017 62.5376C177.017 61.922 177.509 61.4296 178.125 61.4296H181.499C182.115 61.4296 182.608 61.922 182.608 62.5376C182.608 63.1532 182.115 63.6457 181.499 63.6457ZM174.751 63.6457H171.376C170.761 63.6457 170.268 63.1532 170.268 62.5376C170.268 61.922 170.761 61.4296 171.376 61.4296H174.751C175.367 61.4296 175.859 61.922 175.859 62.5376C175.859 63.1532 175.367 63.6457 174.751 63.6457ZM168.002 63.6457H164.628C164.012 63.6457 163.519 63.1532 163.519 62.5376C163.519 61.922 164.012 61.4296 164.628 61.4296H168.002C168.618 61.4296 169.111 61.922 169.111 62.5376C169.111 63.1532 168.618 63.6457 168.002 63.6457ZM161.254 63.6457H157.879C157.263 63.6457 156.771 63.1532 156.771 62.5376C156.771 61.922 157.263 61.4296 157.879 61.4296H161.254C161.869 61.4296 162.362 61.922 162.362 62.5376C162.362 63.1532 161.869 63.6457 161.254 63.6457ZM154.505 63.6457H151.131C150.515 63.6457 150.022 63.1532 150.022 62.5376C150.022 61.922 150.515 61.4296 151.131 61.4296H154.505C155.121 61.4296 155.613 61.922 155.613 62.5376C155.613 63.1532 155.121 63.6457 154.505 63.6457ZM147.756 63.6457H144.382C143.766 63.6457 143.274 63.1532 143.274 62.5376C143.274 61.922 143.766 61.4296 144.382 61.4296H147.756C148.372 61.4296 148.865 61.922 148.865 62.5376C148.865 63.1532 148.372 63.6457 147.756 63.6457ZM141.008 63.6457H137.633C137.017 63.6457 136.525 63.1532 136.525 62.5376C136.525 61.922 137.017 61.4296 137.633 61.4296H141.008C141.623 61.4296 142.116 61.922 142.116 62.5376C142.116 63.1532 141.623 63.6457 141.008 63.6457ZM134.259 63.6457H130.885C130.269 63.6457 129.776 63.1532 129.776 62.5376C129.776 61.922 130.269 61.4296 130.885 61.4296H134.259C134.875 61.4296 135.367 61.922 135.367 62.5376C135.367 63.1532 134.875 63.6457 134.259 63.6457ZM127.51 63.6457H124.136C123.52 63.6457 123.028 63.1532 123.028 62.5376C123.028 61.922 123.52 61.4296 124.136 61.4296H127.51C128.126 61.4296 128.619 61.922 128.619 62.5376C128.619 63.1532 128.126 63.6457 127.51 63.6457Z" fill="#CAC9C9"/>
<path d="M247.286 63.6457H245.612C244.996 63.6457 244.503 63.1532 244.503 62.5376C244.503 61.922 244.996 61.4296 245.612 61.4296H247.286C247.902 61.4296 248.395 61.922 248.395 62.5376C248.395 63.1532 247.902 63.6457 247.286 63.6457Z" fill="#CAC9C9"/>
<path d="M132.707 104.152H131.032C130.416 104.152 129.924 103.66 129.924 103.044C129.924 102.429 130.416 101.936 131.032 101.936H132.707C133.323 101.936 133.815 102.429 133.815 103.044C133.815 103.66 133.323 104.152 132.707 104.152Z" fill="#CAC9C9"/>
<path d="M230.784 104.152H227.508C226.893 104.152 226.4 103.66 226.4 103.044C226.4 102.429 226.893 101.936 227.508 101.936H230.784C231.4 101.936 231.892 102.429 231.892 103.044C231.892 103.66 231.4 104.152 230.784 104.152ZM224.257 104.152H220.981C220.366 104.152 219.873 103.66 219.873 103.044C219.873 102.429 220.366 101.936 220.981 101.936H224.257C224.873 101.936 225.365 102.429 225.365 103.044C225.365 103.66 224.873 104.152 224.257 104.152ZM217.73 104.152H214.454C213.839 104.152 213.346 103.66 213.346 103.044C213.346 102.429 213.839 101.936 214.454 101.936H217.73C218.346 101.936 218.838 102.429 218.838 103.044C218.838 103.66 218.346 104.152 217.73 104.152ZM211.203 104.152H207.927C207.312 104.152 206.819 103.66 206.819 103.044C206.819 102.429 207.312 101.936 207.927 101.936H211.203C211.819 101.936 212.311 102.429 212.311 103.044C212.311 103.66 211.819 104.152 211.203 104.152ZM204.676 104.152H201.4C200.785 104.152 200.292 103.66 200.292 103.044C200.292 102.429 200.785 101.936 201.4 101.936H204.676C205.292 101.936 205.785 102.429 205.785 103.044C205.785 103.66 205.292 104.152 204.676 104.152ZM198.149 104.152H194.873C194.258 104.152 193.765 103.66 193.765 103.044C193.765 102.429 194.258 101.936 194.873 101.936H198.149C198.765 101.936 199.258 102.429 199.258 103.044C199.258 103.66 198.765 104.152 198.149 104.152ZM191.622 104.152H188.346C187.731 104.152 187.238 103.66 187.238 103.044C187.238 102.429 187.731 101.936 188.346 101.936H191.622C192.238 101.936 192.731 102.429 192.731 103.044C192.731 103.66 192.238 104.152 191.622 104.152ZM185.095 104.152H181.819C181.204 104.152 180.711 103.66 180.711 103.044C180.711 102.429 181.204 101.936 181.819 101.936H185.095C185.711 101.936 186.204 102.429 186.204 103.044C186.204 103.66 185.711 104.152 185.095 104.152ZM178.568 104.152H175.292C174.677 104.152 174.184 103.66 174.184 103.044C174.184 102.429 174.677 101.936 175.292 101.936H178.568C179.184 101.936 179.677 102.429 179.677 103.044C179.677 103.66 179.184 104.152 178.568 104.152ZM172.041 104.152H168.765C168.15 104.152 167.657 103.66 167.657 103.044C167.657 102.429 168.15 101.936 168.765 101.936H172.041C172.657 101.936 173.15 102.429 173.15 103.044C173.15 103.66 172.657 104.152 172.041 104.152ZM165.514 104.152H162.238C161.623 104.152 161.13 103.66 161.13 103.044C161.13 102.429 161.623 101.936 162.238 101.936H165.514C166.13 101.936 166.623 102.429 166.623 103.044C166.623 103.66 166.13 104.152 165.514 104.152ZM158.987 104.152H155.712C155.096 104.152 154.603 103.66 154.603 103.044C154.603 102.429 155.096 101.936 155.712 101.936H158.987C159.603 101.936 160.096 102.429 160.096 103.044C160.096 103.66 159.603 104.152 158.987 104.152ZM152.46 104.152H149.185C148.569 104.152 148.076 103.66 148.076 103.044C148.076 102.429 148.569 101.936 149.185 101.936H152.46C153.076 101.936 153.569 102.429 153.569 103.044C153.569 103.66 153.076 104.152 152.46 104.152ZM145.933 104.152H142.658C142.042 104.152 141.549 103.66 141.549 103.044C141.549 102.429 142.042 101.936 142.658 101.936H145.933C146.549 101.936 147.042 102.429 147.042 103.044C147.042 103.66 146.549 104.152 145.933 104.152ZM139.406 104.152H136.131C135.515 104.152 135.022 103.66 135.022 103.044C135.022 102.429 135.515 101.936 136.131 101.936H139.406C140.022 101.936 140.515 102.429 140.515 103.044C140.515 103.66 140.022 104.152 139.406 104.152Z" fill="#CAC9C9"/>
<path d="M235.735 104.152H234.06C233.444 104.152 232.952 103.66 232.952 103.044C232.952 102.429 233.444 101.936 234.06 101.936H235.735C236.351 101.936 236.843 102.429 236.843 103.044C236.843 103.66 236.351 104.152 235.735 104.152Z" fill="#CAC9C9"/>
<path d="M182.903 127.964C179.381 127.964 152.263 128.259 133.224 109.471C120.54 96.9621 116.131 78.1247 114.678 63.9413C114.456 61.8728 111.722 62.6608 111.427 58.0314C111.106 53.0574 114.062 53.5745 114.037 51.7277C114.037 47.3692 114.259 44.6359 114.259 44.5375C114.752 39.194 120.343 12.5015 183.149 12.4276V18.0173C159.505 18.0419 141.919 21.834 130.884 29.3197C121.377 35.7713 120.023 42.9861 119.825 45.0545C119.431 49.5115 119.284 60.1245 121.328 71.5254C123.988 86.3491 129.308 97.7747 137.14 105.507C155.391 123.532 182.361 122.374 183.174 122.374L183.248 127.964C183.248 127.964 183.076 127.964 182.903 127.964Z" fill="#E5E4E4"/>
<path d="M117.609 77.0659C113.126 74.3326 103.471 73.0029 100.146 72.732L100.614 67.167C101.156 67.2162 113.988 68.3243 120.54 72.3134L117.633 77.0905L117.609 77.0659Z" fill="#E5E4E4"/>
<path d="M100.368 76.1548C103.864 76.1548 106.698 73.3215 106.698 69.8265C106.698 66.3314 103.864 63.498 100.368 63.498C96.8719 63.498 94.0378 66.3314 94.0378 69.8265C94.0378 73.3215 96.8719 76.1548 100.368 76.1548Z" fill="#E5E4E4"/>
<path d="M183.199 137.518C186.695 137.518 189.529 134.685 189.529 131.19C189.529 127.695 186.695 124.861 183.199 124.861C179.703 124.861 176.869 127.695 176.869 131.19C176.869 134.685 179.703 137.518 183.199 137.518Z" fill="#E5E4E4"/>
<path d="M167.922 -0.707468L167.04 15.8411L171.516 16.0795L172.398 -0.469016L167.922 -0.707468Z" fill="#E5E4E4"/>
<path d="M140.071 170.687C139.727 170.687 139.357 170.613 139.012 170.49C137.584 169.899 136.894 168.274 137.485 166.845L156.278 120.552C156.869 119.124 158.495 118.434 159.923 119.025C161.352 119.616 162.041 121.242 161.45 122.67L142.658 168.963C142.214 170.046 141.18 170.711 140.071 170.711V170.687Z" fill="#E5E4E4"/>
<path d="M183.1 133.48C173.766 133.48 166.721 131.608 166.426 131.534C164.923 131.14 164.061 129.589 164.455 128.112C164.849 126.634 166.377 125.748 167.879 126.142C167.879 126.142 174.529 127.89 183.1 127.89C184.652 127.89 185.908 129.146 185.908 130.697C185.908 132.248 184.652 133.504 183.1 133.504V133.48Z" fill="#E5E4E4"/>
<path d="M183.396 127.964C186.918 127.964 214.036 128.259 233.075 109.471C245.759 96.9621 250.168 78.1247 251.621 63.9413C251.843 61.8728 254.577 62.6608 254.872 58.0314C255.193 53.0574 252.237 53.5745 252.262 51.7277C252.262 47.3692 252.04 44.6359 252.04 44.5375C251.547 39.194 245.956 12.5015 183.15 12.4276V18.0173C206.794 18.0419 224.38 21.834 235.415 29.3197C244.922 35.7713 246.277 42.9861 246.474 45.0545C246.868 49.5115 247.015 60.1245 244.971 71.5254C242.311 86.3491 236.991 97.7747 229.159 105.507C210.908 123.532 183.938 122.374 183.125 122.374L183.051 127.964C183.051 127.964 183.223 127.964 183.396 127.964Z" fill="#E5E4E4"/>
<path d="M248.666 77.0658L245.759 72.2888C252.311 68.2997 265.143 67.1916 265.685 67.1423L266.153 72.7074C262.828 72.9783 253.173 74.308 248.69 77.0412L248.666 77.0658Z" fill="#E5E4E4"/>
<path d="M265.907 76.1548C269.403 76.1548 272.237 73.3215 272.237 69.8265C272.237 66.3314 269.403 63.498 265.907 63.498C262.411 63.498 259.577 66.3314 259.577 69.8265C259.577 73.3215 262.411 76.1548 265.907 76.1548Z" fill="#E5E4E4"/>
<path d="M183.1 137.518C186.596 137.518 189.43 134.685 189.43 131.19C189.43 127.695 186.596 124.861 183.1 124.861C179.604 124.861 176.77 127.695 176.77 131.19C176.77 134.685 179.604 137.518 183.1 137.518Z" fill="#E5E4E4"/>
<path d="M198.366 -0.706105L193.89 -0.467651L194.772 16.0809L199.248 15.8424L198.366 -0.706105Z" fill="#E5E4E4"/>
<path d="M226.203 170.687C226.548 170.687 226.917 170.613 227.262 170.49C228.691 169.899 229.38 168.274 228.789 166.845L209.996 120.552C209.405 119.124 207.78 118.434 206.351 119.025C204.923 119.616 204.233 121.242 204.824 122.67L223.617 168.963C224.06 170.046 225.095 170.711 226.203 170.711V170.687Z" fill="#E5E4E4"/>
<path d="M183.199 133.48C192.534 133.48 199.578 131.608 199.873 131.534C201.376 131.14 202.238 129.589 201.844 128.112C201.45 126.634 199.923 125.748 198.42 126.142C198.42 126.142 191.77 127.89 183.199 127.89C181.647 127.89 180.391 129.146 180.391 130.697C180.391 132.248 181.647 133.504 183.199 133.504V133.48Z" fill="#E5E4E4"/>
<path d="M158.864 127.915C162.36 127.915 165.194 125.081 165.194 121.586C165.194 118.091 162.36 115.258 158.864 115.258C155.368 115.258 152.534 118.091 152.534 121.586C152.534 125.081 155.368 127.915 158.864 127.915Z" fill="#E5E4E4"/>
<path d="M207.41 127.915C210.906 127.915 213.74 125.081 213.74 121.586C213.74 118.091 210.906 115.258 207.41 115.258C203.914 115.258 201.08 118.091 201.08 121.586C201.08 125.081 203.914 127.915 207.41 127.915Z" fill="#E5E4E4"/>
<path d="M206.868 83.9606C205.144 84.0345 201.4 84.1822 201.942 86.6446C202.484 89.1071 206.129 89.7473 207.533 89.2055C208.937 88.6638 210.538 87.3834 210.341 86.3738C210.144 85.3642 207.583 83.9114 206.893 83.936L206.868 83.9606Z" fill="#8D8D8E"/>
<path d="M203.198 89.5748C201.474 89.6487 197.73 89.7965 198.272 92.2589C198.79 94.7213 202.459 95.3615 203.863 94.8198C205.267 94.2781 206.868 92.9976 206.671 91.988C206.474 90.9784 203.913 89.5256 203.223 89.5502L203.198 89.5748Z" fill="#8D8D8E"/>
<path d="M199.553 95.2138C197.829 95.2877 194.085 95.4354 194.627 97.8978C195.169 100.36 198.814 101 200.218 100.459C201.622 99.917 203.223 98.6365 203.026 97.627C202.829 96.6174 200.267 95.1645 199.578 95.1892L199.553 95.2138Z" fill="#8D8D8E"/>
<path d="M216.745 84.2068C215.021 84.2807 211.277 84.4284 211.819 86.8908C212.361 89.3532 216.006 89.9935 217.41 89.4517C218.814 88.91 220.415 87.6295 220.218 86.62C220.021 85.6104 217.459 84.1576 216.77 84.1822L216.745 84.2068Z" fill="#8D8D8E"/>
<path d="M213.075 89.8212C211.351 89.8951 207.607 90.0428 208.149 92.5052C208.691 94.9676 212.336 95.6079 213.74 95.0661C215.144 94.5244 216.745 93.2439 216.548 92.2343C216.351 91.2247 213.789 89.7719 213.1 89.7966L213.075 89.8212Z" fill="#8D8D8E"/>
<path d="M209.405 95.4354C207.681 95.5093 203.937 95.657 204.479 98.1195C205.021 100.582 208.666 101.222 210.07 100.68C211.474 100.139 213.075 98.8582 212.878 97.8486C212.681 96.839 210.119 95.3862 209.43 95.4108L209.405 95.4354Z" fill="#8D8D8E"/>
<path d="M226.597 84.4285C224.873 84.5024 221.129 84.6501 221.671 87.1125C222.213 89.5749 225.858 90.2152 227.262 89.6734C228.666 89.1317 230.267 87.8512 230.07 86.8416C229.873 85.832 227.311 84.3792 226.622 84.4039L226.597 84.4285Z" fill="#8D8D8E"/>
<path d="M222.927 90.0427C221.203 90.1166 217.459 90.2643 218.001 92.7268C218.543 95.1892 222.188 95.8294 223.592 95.2877C224.996 94.746 226.597 93.4655 226.4 92.4559C226.203 91.4463 223.641 89.9935 222.952 90.0181L222.927 90.0427Z" fill="#8D8D8E"/>
<path d="M219.257 95.657C217.533 95.7309 213.789 95.8786 214.331 98.3411C214.873 100.803 218.518 101.444 219.922 100.902C221.326 100.36 222.927 99.0798 222.73 98.0702C222.533 97.0606 219.971 95.6078 219.282 95.6324L219.257 95.657Z" fill="#8D8D8E"/>
<path d="M236.449 84.65C234.725 84.7239 230.981 84.8717 231.523 87.3341C232.04 89.7965 235.71 90.4367 237.114 89.895C238.518 89.3533 240.119 88.0728 239.922 87.0632C239.725 86.0536 237.163 84.6008 236.474 84.6254L236.449 84.65Z" fill="#8D8D8E"/>
<path d="M232.779 90.2644C231.055 90.3383 227.311 90.4861 227.853 92.9485C228.395 95.4109 232.04 96.0511 233.444 95.5094C234.848 94.9676 236.449 93.6872 236.252 92.6776C236.055 91.668 233.493 90.2152 232.804 90.2398L232.779 90.2644Z" fill="#8D8D8E"/>
<path d="M229.109 95.8787C227.385 95.9526 223.641 96.1003 224.183 98.5627C224.725 101.025 228.37 101.665 229.774 101.124C231.178 100.582 232.779 99.3015 232.582 98.2919C232.385 97.2823 229.824 95.8294 229.134 95.8541L229.109 95.8787Z" fill="#8D8D8E"/>
<path d="M272.409 -9.61096H95.5156V56.7264H272.409V-9.61096Z" fill="white"/>
</g>
<path d="M206.671 72.2888V81.3997" stroke="#CE0E2D" stroke-width="0.3" stroke-miterlimit="10"/>
<path d="M204.528 73.7416L206.671 65.7388L208.814 73.7416H204.528Z" fill="#CE0E2D"/>
<path d="M216.671 72.2888V81.3997" stroke="#CE0E2D" stroke-width="0.3" stroke-miterlimit="10"/>
<path d="M214.503 73.7416L216.671 65.7388L218.814 73.7416H214.503Z" fill="#CE0E2D"/>
<path d="M226.646 72.2888V81.3997" stroke="#CE0E2D" stroke-width="0.3" stroke-miterlimit="10"/>
<path d="M224.503 73.7416L226.646 65.7388L228.789 73.7416H224.503Z" fill="#CE0E2D"/>
<path d="M236.646 72.2888V81.3997" stroke="#CE0E2D" stroke-width="0.3" stroke-miterlimit="10"/>
<path d="M234.479 73.7416L236.646 65.7388L238.789 73.7416H234.479Z" fill="#CE0E2D"/>
<path d="M154.258 47.3693C151.5 47.394 149.037 47.7387 146.204 47.6402C143.569 47.591 141.18 47.6156 138.692 47.7633C136.869 47.8618 135.342 47.9603 134.85 48.0342C134.357 48.1081 133.569 48.6006 133.052 49.0438C132.658 49.487 132.978 50.9891 134.431 51.8756C135.096 52.6143 134.653 53.9932 138.446 58.0316C139.48 59.1397 140.121 59.5829 140.49 59.9276C140.859 60.2724 142.116 60.297 142.805 60.0508C145.244 59.6075 148.913 60.6171 151.376 60.6664C154.135 60.6664 156.672 60.6664 158.519 59.9276C160.958 59.6568 164.406 59.6075 166.031 55.7169C167.189 54.1902 166.549 52.4173 166.253 50.6936C164.578 47.7141 161.795 48.9207 159.898 48.1819C158.839 47.8372 157.312 47.591 155.785 47.4925C155.785 47.4925 154.923 47.3694 154.258 47.3447V47.3693Z" fill="#CD8B56"/>
<path d="M143.298 47.5416C140.195 47.6154 134.013 47.7878 133.348 48.7974C132.288 49.6839 133.643 50.6934 135.811 52.491C137.633 54.3132 137.953 53.6976 139.259 53.5252C143.544 53.0327 147.411 55.8153 151.648 55.1997C155.687 54.7072 159.677 54.2147 163.593 53.0327C165.613 52.3925 164.012 50.2256 163.544 49.8316C162.731 49.1421 160.712 48.5758 159.135 48.0094C156.598 47.2707 153.101 47.3938 150.096 47.4923C147.855 47.5908 145.613 47.5169 143.298 47.5662V47.5416Z" fill="#F3C286"/>
<path d="M159.726 54.732C159.406 54.9289 159.234 54.8058 159.012 54.9782C158.79 55.1506 158.889 55.3722 159.012 55.446C159.997 55.9385 160.317 55.0767 162.042 54.4118C162.78 54.1163 163.174 53.9193 163.618 53.5254C164.554 52.7128 164.652 51.4816 164.948 51.4323C165.046 51.3831 165.219 51.6786 165.317 52.8851C165.194 52.8113 164.628 52.368 164.628 52.368C164.628 52.368 165.145 50.2011 165.317 52.8851C165.465 55.5199 164.874 54.0178 163.741 55.1506C162.928 55.9632 162.904 58.6964 162.436 59.115C159.899 59.6321 154.825 61.282 153.815 60.3462C153.766 60.3216 154.234 59.9523 155.145 59.5336C155.441 59.3613 156.007 56.431 156.5 56.0616C157.263 55.5445 157.731 54.8305 158.273 54.3872C158.938 53.8209 158.84 53.9194 160.859 53.7716" fill="#521A10"/>
<path d="M137.657 47.788C134.923 47.8372 134.8 48.0096 134.8 48.0096C134.8 48.0096 132.51 48.8961 133.002 49.0192C133.347 49.1177 132.017 49.1177 133.372 50.3489C133.495 50.472 134.185 50.9891 135.047 51.4077C138.15 52.9344 139.332 52.048 139.357 52.1957C139.357 52.2942 138.544 53.0083 137.313 52.2942C137.189 52.2203 136.475 51.8264 135.441 51.0876C135.219 50.9153 135.047 50.7675 134.874 50.5951C134.579 50.3489 134.357 50.0534 134.012 49.3886C133.741 48.9207 134.357 49.3393 134.357 49.2408C134.308 49.0931 134.529 49.0192 134.751 48.8961C134.899 48.8222 135.17 48.7483 135.244 48.7237C136.056 48.5021 137.362 48.3051 137.879 48.2558C138.495 48.182 138.519 48.182 138.519 48.182C139.357 48.0835 141.697 48.0835 141.647 48.182C141.647 48.2558 140.588 48.2805 140.293 48.4775C140.071 48.6252 140.441 48.7976 140.761 48.8961C141.056 48.7237 141.303 48.5513 141.697 48.379C141.672 48.379 141.574 48.6006 141.992 48.6744C142.411 48.7483 143.273 48.6745 143.79 48.4282C144.061 48.3297 144.529 48.2066 145.145 48.1081C145.441 48.0588 146.155 47.9603 146.869 47.9111C148.273 47.8126 149.677 47.7141 151.007 47.6402C152.583 47.5417 153.963 47.591 155.613 47.6649C157.485 47.8126 158.47 48.2558 160.046 48.5267C160.046 48.5267 161.081 48.2312 157.977 47.6402C155.859 47.2709 153.963 47.2709 151.746 47.3448C149.628 47.394 147.608 47.4925 145.441 47.4679C142.78 47.4925 140.317 47.7141 137.682 47.7634L137.657 47.788Z" fill="#A8683E"/>
<path d="M161.697 48.8467C161.697 48.8467 162.46 48.9205 163.125 49.4869C163.79 50.0532 164.209 47.5416 162.583 49.9794C161.303 51.8015 159.702 53.2297 157.657 53.9438C155.835 54.2147 153.52 54.658 152.017 54.855C153.076 54.7318 154.209 54.3871 156.278 53.5252C158.864 52.4664 159.973 50.2749 160.982 49.6346C161.968 49.0436 160.81 48.5758 160.81 48.5758C160.761 48.5758 161.672 48.8221 161.672 48.8221L161.697 48.8467Z" fill="#F3C286"/>
<path d="M154.775 54.4117C152.337 55.0765 149.406 56.3077 146.869 55.3474C145.342 54.6579 143.79 54.0177 142.14 53.6729C140.613 53.1805 139.899 53.1805 138.914 52.7865C139.111 52.7126 139.234 52.6387 139.48 52.5402C141.401 52.5156 143.15 52.8111 144.997 53.2543C146.647 53.8946 148.347 54.7318 150.096 54.9534C152.165 54.584 154.209 54.1162 156.253 53.6976" fill="#F3C286"/>
<path d="M149.209 53.3283C150.933 54.2394 152.78 54.2887 154.677 54.3133C156.647 53.9439 158.913 53.5253 159.972 51.5308C159.972 51.5308 160.588 52.6881 157.632 53.9932C155.367 54.9781 152.583 55.3721 150.12 54.9782C149.775 54.4118 149.603 54.0671 149.209 53.353V53.3283Z" fill="#F3C286"/>
<path d="M145.367 48.2312C146.598 47.985 148.15 47.8864 149.652 47.7879C151.302 47.6895 152.83 47.6648 153.544 47.7141C154.948 47.788 155.514 47.9111 155.514 47.9111C156.992 47.9111 159.11 47.985 160.046 48.3789C160.465 48.8714 160.219 49.4132 159.504 49.8564C158.519 50.4474 156.992 53.156 154.603 54.2641C152.214 55.0028 149.603 55.0028 147.165 54.3626C144.578 53.7963 142.14 53.3776 139.529 53.0329C138.519 52.7128 136.278 50.7675 136.278 50.7675C136.278 50.7675 135.884 50.7182 134.825 49.9795C133.741 49.1423 134.579 49.3147 135.022 49.1669C135.244 49.0931 134.997 49.0684 136.648 48.7483C138.298 48.4282 138.027 48.5021 138.446 48.4528C138.495 48.3789 141.056 48.1327 141.056 48.1327C141.056 48.1327 142.46 48.1081 142.066 48.3789C141.968 48.4528 142.042 48.7483 142.51 48.7975C142.879 48.8468 143.519 48.7976 144.061 48.6498" fill="#D4854A"/>
<path d="M145.933 47.8372C145.564 47.8372 144.948 47.8618 144.135 47.714C144.135 47.714 142.534 47.9356 141.943 47.9849C141.327 48.0341 141.869 47.8864 140.515 47.9849C139.185 48.0588 138.938 48.108 137.633 48.2065C136.303 48.2804 136.401 48.305 135.441 48.5513C134.456 48.7975 134.135 48.8714 133.963 49.0437C133.791 49.2407 133.52 49.7086 133.52 49.7086C133.52 49.7086 133.101 49.4623 133.52 48.9945C133.938 48.502 133.298 48.7236 134.209 48.4528C135.539 48.108 137.411 47.9357 139.086 47.7633C140.194 47.6648 142.411 47.5663 142.411 47.5663C142.411 47.5663 145.342 47.5663 146.45 47.6402C146.968 47.6894 146.229 47.8864 145.909 47.8618L145.933 47.8372Z" fill="#D4854A"/>
<path d="M140.293 54.8057C139.406 55.2243 140.86 58.7701 140.86 59.2134C140.909 60.4938 140.662 59.9275 140.687 59.9767C140.736 60.026 141.352 60.2476 141.352 60.2476C141.352 60.2476 142.042 60.2476 142.805 60.2476C145.933 60.1737 148.667 60.8386 152.042 60.7154C152.042 60.7154 151.672 60.2476 150.613 59.9767C149.554 59.7059 148.15 56.5294 146.007 55.8891C145.293 55.6675 145.367 55.6921 144.012 55.2243" fill="#A8683E"/>
<path d="M136.919 55.2737C138.889 57.4898 140.195 59.8537 140.465 59.9276C140.589 60.1 140.638 59.903 140.638 59.6075C140.638 59.6075 140.589 59.5336 140.589 59.4844C140.392 59.0904 140.244 58.4255 140.121 57.9823C140.071 57.3913 138.815 54.5103 138.865 53.8701C138.298 53.9686 137.929 53.9932 137.633 53.9439C137.116 53.7962 136.574 53.2052 134.16 51.7278C134.948 52.4665 135.712 53.8701 136.919 55.2737Z" fill="#521A10"/>
<mask id="mask1_1114_1419" style="mask-type:luminance" maskUnits="userSpaceOnUse" x="162" y="52" width="18" height="5">
<path d="M162.682 53.0082C162.682 53.0082 162.362 53.0082 162.337 53.6238C162.312 54.2394 162.583 54.3133 162.583 54.3133L173.716 55.5937L179.061 56.2093L179.603 53.8454L179.086 52.6635L162.657 53.0574L162.682 53.0082Z" fill="white"/>
</mask>
<g mask="url(#mask1_1114_1419)">
<path d="M147.214 52.2449C146.401 52.1956 145.416 52.6389 145.416 52.762C145.416 52.8851 146.352 53.4268 147.165 53.4514L170.465 54.6827L170.539 53.4514L147.239 52.2449H147.214Z" fill="#C8C8C9"/>
<path d="M170.44 54.4856L147.19 53.2052C146.352 53.156 145.515 52.8358 145.392 52.762C145.441 52.9097 146.328 53.353 147.165 53.4022L170.416 54.6334V54.5103L170.44 54.4856Z" fill="#7F7F80"/>
<path d="M170.49 53.7715L147.19 52.5403C146.377 52.4911 145.515 52.6634 145.392 52.7619C145.392 52.7619 146.377 52.3433 147.19 52.3926L170.49 53.6238V53.7715Z" fill="white"/>
<path d="M170.465 54.2886L147.165 53.0574C146.352 53.0081 145.49 52.8112 145.416 52.7373C145.466 52.8358 146.352 53.1805 147.165 53.2298L170.465 54.461V54.2394V54.2886Z" fill="#D8D8D8"/>
<path d="M169.677 54.6335H170.342C170.342 54.6335 170.194 54.6335 170.243 54.0425C170.293 53.4515 170.391 53.4515 170.391 53.4515H169.726C169.726 53.4515 169.603 53.4023 169.554 54.0179C169.504 54.6335 169.652 54.6335 169.652 54.6335H169.677Z" fill="#303031"/>
<path d="M169.628 53.5499L170.317 53.5991V53.7469L169.603 53.7223" fill="#5C5C5C"/>
<path d="M169.628 54.5595H170.293L170.268 54.4611H169.603" fill="#1D1E1B"/>
<path d="M169.578 54.4365H170.243V54.2887H169.578" fill="#333333"/>
<path d="M178.174 55.4952L170.44 54.6826L170.514 53.4514H178.076L178.174 55.4952Z" fill="#C8C8C9"/>
<path d="M178.002 54.4856L170.293 53.7469V53.5992L178.273 53.4761C178.273 53.6484 178.002 54.4856 178.002 54.4856Z" fill="#F4F4F4"/>
<path d="M178.002 54.4856H170.44V54.6087L178.174 55.4952L178.002 54.4856Z" fill="#7F7F80"/>
<path d="M178.667 53.5007H178.273L178.002 54.4857H178.396L178.667 53.5007Z" fill="#DDDDDD"/>
<path d="M178.42 54.5103H178.026L178.199 55.4952H178.593L178.42 54.5103Z" fill="#777777"/>
<path d="M178.002 54.4857L170.44 54.2887V54.4611H178.002V54.4857Z" fill="#D8D8D8"/>
<path d="M178.667 53.5007L178.79 54.6088L178.568 55.4953L178.421 54.5103L178.667 53.5007Z" fill="#F4F4F4"/>
</g>
<path d="M102.535 62.3161C102.535 62.3161 104.629 66.7731 102.313 69.4325C99.9982 72.0919 92.6338 73.7909 92.6338 73.7909C92.6338 73.7909 91.1067 66.5761 91.0575 66.4283C91.0082 66.2806 96.082 61.602 96.2298 61.5774C96.3776 61.5527 102.51 62.3161 102.51 62.3161H102.535Z" fill="white"/>
<path d="M110.761 39.9081L105.614 43.6017L98.7666 39.4895L101.279 31.5359L110.761 39.9081Z" fill="white"/>
<path d="M92.9045 49.9794C94.2099 49.3638 95.1951 48.8468 96.2049 48.4281C98.8404 47.2708 101.476 46.1135 104.16 45.03C106.919 43.9219 109.579 42.5922 111.623 40.4499C114.678 37.298 114.333 33.1612 110.515 30.9943C107.683 29.3937 104.604 29.049 101.402 29.7877C100.762 29.9354 100.244 30.1817 100.269 31.1666C100.959 31.0681 101.648 31.0681 102.289 30.8958C105.49 29.9601 108.274 30.9943 110.761 32.8904C112.239 33.9984 112.362 36.6578 111.205 38.1106C109.308 40.5238 106.697 42.0013 103.988 43.3063C102.362 44.0943 100.54 44.5622 98.9389 45.3994C97.0916 46.3597 95.3675 47.517 93.6434 48.6498C93.3479 48.8467 93.2493 49.3146 92.8799 49.9794H92.9045Z" fill="black"/>
<path d="M71.4518 114.224C63.4717 113.116 63.0037 116.563 59.9003 116.046C56.4275 114.716 51.1073 115.627 46.4276 116.735C37.6839 115.627 30.2949 107.526 27.6841 101.69C25.5659 96.9622 29.7284 93.3179 32.8811 83.8376C37.2406 70.8115 42.9301 63.5473 45.4178 62.9071C49.7034 61.7744 53.8167 70.4175 71.969 111.786" fill="#E5E4E4"/>
<path d="M33.6448 77.1397C33.6448 77.1397 33.3985 77.0412 33.2754 77.0166C33.571 75.8347 33.8419 74.6527 34.1621 73.4953C35.2212 69.7771 36.0093 66.0589 35.763 62.119C35.5906 59.5581 35.8616 56.948 36.699 54.4609C37.2655 52.7372 38.029 51.1121 39.4822 50.004C41.2802 48.625 42.8072 47.0491 44.0634 45.153C44.1865 44.956 44.4821 44.8822 44.7038 44.759C43.891 46.7782 42.6595 48.4527 41.1817 49.8808C39.3344 51.703 38.5216 53.9192 38.1029 56.357C37.9551 57.1696 37.9797 58.0314 37.9059 59.041C38.9896 58.9671 39.8516 58.9179 40.7383 58.8686C40.6398 60.8139 39.2112 60.814 38.0044 60.9371C36.8468 66.5021 35.8123 71.9687 33.6448 77.1397Z" fill="white"/>
<path d="M11.0345 72.4859C9.77838 71.5994 9.45819 69.5802 10.3695 67.8073C10.5912 69.3339 10.8128 70.8607 11.0345 72.4859Z" fill="white"/>
<path d="M11.8224 68.94C10.8619 68.2997 11.4283 67.4379 11.3052 66.7484C11.3052 66.6499 11.5761 66.5022 11.9948 66.1328C11.8963 67.2409 12.2658 68.0289 11.8224 68.94Z" fill="white"/>
<path d="M31.6248 39.2679C31.6248 39.2679 31.4032 39.3664 31.3046 39.4157C30.9352 38.8247 30.5657 38.2583 30.1963 37.6674C31.2061 37.8397 31.5509 38.4554 31.6002 39.2679H31.6248Z" fill="white"/>
<path d="M28.8418 39.9819C29.2523 40.3431 29.474 40.8848 29.5068 41.6071C28.8664 41.1639 28.9157 40.5729 28.8418 39.9819Z" fill="white"/>
<path d="M33.6448 77.1397C35.8123 71.9687 36.8468 66.4775 38.0044 60.9371C39.2112 60.814 40.6398 60.7893 40.7383 58.8686C39.8516 58.9179 38.9896 58.9918 37.9059 59.041C37.9797 58.0314 37.9551 57.1942 38.1029 56.357C38.5216 53.9192 39.3344 51.703 41.1817 49.8808C42.6595 48.4527 43.891 46.7536 44.7038 44.759C44.4821 44.8822 44.1865 44.9807 44.0634 45.153C42.8319 47.0245 41.2802 48.625 39.4822 50.004C38.029 51.1121 37.2655 52.7372 36.699 54.4609C35.8616 56.948 35.6153 59.5581 35.763 62.119C36.0093 66.0589 35.2212 69.7771 34.1621 73.4953C33.8419 74.6527 33.571 75.8347 33.2754 77.0166C33.3985 77.0659 33.5217 77.1151 33.6448 77.1397Z" fill="black"/>
<path d="M11.0345 72.4859C10.8128 70.8607 10.5912 69.3339 10.3695 67.8073C9.45819 69.5802 9.77838 71.5994 11.0345 72.4859Z" fill="black"/>
<path d="M11.8225 68.94C12.2659 68.0289 11.8964 67.2409 11.9949 66.1328C11.5762 66.4775 11.2807 66.6499 11.3053 66.7484C11.4531 67.4379 10.8866 68.2997 11.8225 68.94Z" fill="black"/>
<path d="M31.6251 39.2679C31.5758 38.4554 31.231 37.8397 30.2212 37.6674C30.5906 38.2583 30.9601 38.8247 31.3295 39.4157C31.4281 39.3664 31.5512 39.3172 31.6497 39.2679H31.6251Z" fill="black"/>
<path d="M28.8418 39.9819C28.8911 40.5975 28.8418 41.1885 29.5068 41.6071C29.4904 40.8848 29.2687 40.3431 28.8418 39.9819Z" fill="black"/>
<path d="M55.467 13.4619L28.768 95.534C28.0783 97.6517 29.2359 99.9417 31.3787 100.631L70.5899 113.386C72.7081 114.076 74.9987 112.919 75.7868 110.776L105.614 19.0516C105.959 17.8696 105.737 16.6384 105.097 15.6535" fill="white"/>
<path d="M55.467 13.4619L28.768 95.534C28.0783 97.6517 29.2359 99.9417 31.3787 100.631L70.5899 113.386C72.7081 114.076 74.9987 112.919 75.7868 110.776L105.614 19.0516C105.959 17.8696 105.737 16.6384 105.097 15.6535" stroke="#1E1E1C"/>
<path d="M61.4275 106.96L42.5116 100.804C42.3146 100.73 42.1175 100.853 42.0436 101.05C41.9698 101.247 42.0929 101.444 42.2899 101.518L61.2059 107.674C61.4029 107.748 61.5999 107.624 61.6738 107.427C61.7477 107.23 61.6246 107.033 61.4275 106.96Z" fill="#686867"/>
<path d="M81.0329 96.4944L74.0872 97.0115L69.9001 98.2673L67.1662 101.592L67.0923 105.162L68.1514 106.369L73.373 108.24L77.6832 108.043L82.5354 108.56L87.2397 106.246L87.4121 101.001L85.2447 98.4643L81.0329 96.4944Z" fill="white"/>
<path d="M84.6538 91.3232L81.5012 92.0373L78.2993 91.9388L75.59 90.289L74.2107 87.4326L74.186 84.133L75.4668 81.6706L78.053 80.1193L82.5603 78.1247L86.6242 76.3764L90.0971 75.8101L84.6538 91.3232Z" fill="white"/>
<path d="M91.0573 73.9387L88.1263 73.1753L85.9835 70.0726L85.8604 67.0685L86.8948 64.1136L89.1115 61.9221L91.008 60.4939L93.0277 59.4843L94.21 58.8441L94.7518 58.8195L91.0573 73.9387Z" fill="white"/>
<path d="M98.2495 70.1713C98.9884 69.9497 99.481 69.334 99.7273 68.6692C100.245 67.2656 100.318 65.7635 99.6781 64.3846C98.7914 62.4885 96.9687 62.2177 95.1708 62.1438C94.4565 62.1438 93.5452 62.0453 92.6831 62.9071C93.6683 62.9071 94.4072 62.8086 95.0969 62.9071C96.0821 63.0549 97.0673 63.2765 98.0032 63.6459C98.4219 63.7936 98.7667 64.3107 98.9638 64.7293C99.6288 66.1575 99.5303 67.5857 98.6929 68.9401C98.4958 69.2848 98.2495 69.5803 98.0032 69.9004C98.0771 69.9743 98.151 70.0727 98.2249 70.1466L98.2495 70.1713Z" fill="black"/>
<path d="M49.5555 120.7C47.9053 119.272 47.0433 117.302 46.0334 115.455C44.4571 112.598 42.7576 109.767 40.8857 106.984C40.9596 107.329 40.9843 107.698 41.132 107.994C42.7084 110.875 44.2847 113.78 45.9595 116.612C46.7231 117.917 47.6837 119.099 48.5703 120.33C48.7674 120.601 49.0629 120.774 49.3339 120.995C49.4078 120.897 49.5063 120.823 49.5802 120.724L49.5555 120.7Z" fill="black"/>
<path d="M87.5845 85.4381C89.4564 83.7636 88.151 80.6117 85.9589 80.3409C83.7176 80.07 81.5502 80.4148 79.4812 81.3505C79.4073 81.3751 79.4073 81.5229 79.2842 81.7198C80.4418 81.4982 81.5255 81.2273 82.6092 81.0796C83.5452 80.9565 84.5304 80.858 85.4663 80.9565C87.1166 81.1042 88.0279 82.3601 87.8062 84.0099C87.7323 84.4777 87.6584 84.9702 87.5599 85.4381H87.5845Z" fill="black"/>
<path d="M72.5601 99.6709C73.028 99.6955 73.496 99.7201 73.964 99.7694C74.9738 99.8433 76.0083 99.7694 76.9688 100.065C78.89 100.631 79.2841 101.715 78.3481 103.463C79.7028 102.724 79.9245 101.198 78.7176 100.262C76.8703 98.8091 74.7521 98.8583 72.6093 99.1538C72.6093 99.3262 72.5847 99.4985 72.5601 99.6709Z" fill="black"/>
<path d="M92.5601 63.6457C95.0477 65.985 96.6733 68.4228 94.826 71.9194C95.9836 71.4515 96.3038 70.5158 96.2792 69.6047C96.2546 67.0931 95.1462 65.0739 93.1265 63.5718C93.0773 63.5226 92.9541 63.5718 92.5847 63.6457H92.5601Z" fill="black"/>
<path d="M82.166 89.3533C83.1759 86.6446 81.4271 83.2465 78.5454 82.3354C79.3828 83.1727 80.0725 83.6897 80.5405 84.3792C81.0577 85.0933 81.4764 85.9305 81.7473 86.7678C82.0183 87.5804 82.0429 88.4915 82.166 89.3533Z" fill="black"/>
<path d="M59.2848 113.756C59.1863 116.169 60.3192 118.508 61.8463 119.149C60.9842 117.351 60.1961 115.701 59.2848 113.756Z" fill="black"/>
<path d="M72.1171 105.433C73.5456 103.734 73.053 100.902 71.1812 99.5724C72.0925 101.518 72.9053 103.217 72.1171 105.433Z" fill="black"/>
<path d="M93.8406 82.0647C93.5943 83.0004 93.7421 83.7638 94.0623 84.601C94.8012 83.5175 94.7519 83.1482 93.8406 82.0647Z" fill="black"/>
<path d="M86.2301 86.9648C85.4174 87.5558 84.5799 88.1468 83.5947 88.8609C84.9001 88.7624 85.5405 88.3438 86.2301 86.9648Z" fill="black"/>
<path d="M73.2748 105.433C74.1122 105.556 74.8511 105.26 75.4669 104.546L73.1763 104.965C73.2009 105.113 73.2255 105.285 73.2748 105.433Z" fill="black"/>
<path d="M83.1757 102.207C83.0771 102.897 82.954 103.611 82.8555 104.3C82.9786 104.3 83.0771 104.349 83.2003 104.374C83.3234 103.685 83.4712 102.97 83.5944 102.281C83.4466 102.281 83.3234 102.232 83.1757 102.207Z" fill="black"/>
<path d="M79.1613 110.875C79.4076 110.161 79.2598 109.717 78.7179 109.299C78.2007 110.013 78.4224 110.456 79.1613 110.875Z" fill="black"/>
<g style="mix-blend-mode:multiply">
<path d="M74.6786 82.3601C74.6786 82.3601 71.0826 87.1864 73.0038 91.077C74.9249 94.9676 79.0382 94.6968 79.0382 94.6968L80.4174 94.5244L81.2056 92.1359C81.2056 92.1359 80.1711 92.3575 78.5455 91.9389C76.92 91.5203 74.8757 88.7377 74.8757 88.7377C74.8757 88.7377 74.1614 84.2561 74.4323 84.1084C74.7033 83.9607 74.7033 82.3601 74.7033 82.3601H74.6786Z" fill="#E5E4E4"/>
</g>
<g style="mix-blend-mode:multiply">
<path d="M67.2154 101C66.1563 102.379 64.4814 105.334 65.4666 107.23C66.4518 109.126 69.3336 110.013 71.1562 110.308C72.9788 110.604 75.097 110.727 75.097 110.727L75.9344 108.166L71.6488 107.698L68.373 106.393C68.373 106.393 67.1415 103.857 67.3139 103.611C67.4863 103.364 67.2154 101.025 67.2154 101.025V101Z" fill="#E5E4E4"/>
</g>
<g style="mix-blend-mode:multiply">
<path d="M87.4121 63.0548C87.4121 63.0548 84.5796 65.6403 83.9392 69.7772C83.2988 73.914 84.2348 74.505 84.8752 75.2191C85.5155 75.9332 86.3283 76.1548 86.3283 76.1548L87.3628 72.9537L85.9096 70.639L86.0081 67.0932L87.3628 63.0548H87.4121Z" fill="#E5E4E4"/>
</g>
<g style="mix-blend-mode:multiply">
<path d="M81 94.5212L85.4088 91.3447L85.3595 91L81.8128 92.0588L81 94.5212Z" fill="#E5E4E4"/>
</g>
<g style="mix-blend-mode:multiply">
<path d="M87 76.4624L90.4482 75.4775L91 74.5L87.8374 74L87 76.4624Z" fill="black"/>
</g>
<g style="mix-blend-mode:multiply">
<path d="M76.4272 110.776L79.2843 107.797L79.2351 107.452L77.2647 108.314L76.4272 110.776Z" fill="#E5E4E4"/>
</g>
<g style="mix-blend-mode:multiply">
<path d="M97.2397 46.4336L102.018 44.7345C102.018 44.7345 100.22 43.9711 99.5796 43.1339C98.9392 42.2967 98.8407 41.4595 98.8407 41.4595L97.2397 46.4582V46.4336Z" fill="#E5E4E4"/>
</g>
<path d="M52.2651 125.969C52.2651 125.969 52.3882 125.822 52.4621 125.699C52.339 125.378 52.1912 125.034 51.9941 124.492C52.8562 124.886 53.3981 125.526 54.2601 125.009C56.6 123.605 58.9891 122.276 61.3782 120.921C62.1171 120.503 62.856 120.06 63.6196 119.69C65.8363 118.656 68.053 117.696 70.2697 116.661C70.6884 116.464 71.0332 116.095 71.4273 115.8C71.1071 115.504 70.9101 115.332 70.6638 115.086C71.2056 114.938 71.649 114.839 72.0677 114.716C73.6194 114.273 75.1711 113.805 76.7228 113.386C79.0873 112.746 81.3779 111.983 83.4222 110.555C84.4566 109.816 85.565 109.102 86.033 107.871C86.7719 105.901 87.0674 103.857 86.6733 101.739C86.4024 100.336 85.7374 99.203 84.3581 98.5628C80.0725 96.5682 75.7129 96.6175 71.378 98.3165C69.4076 99.0799 68.2254 100.656 67.782 102.724C67.4126 104.448 67.9052 105.704 69.3337 106.295C71.9692 107.403 74.6785 108.166 77.6095 107.575C78.1759 107.452 78.7671 107.477 79.3582 107.427C79.3582 107.551 79.3582 107.698 79.3582 107.821C75.5898 109.053 71.8953 108.659 68.2993 107.083C67.4372 106.713 66.6737 106.073 66.5505 105.113C66.3042 103.389 66.2057 101.641 67.3633 100.163C68.4717 98.7351 69.9249 97.6271 71.649 97.1346C73.447 96.6175 75.3189 96.3466 77.1661 96.0511C78.9641 95.7556 80.7621 95.5586 82.437 94.6968C83.3729 94.2289 84.432 93.9581 85.3926 93.5148C88.1019 92.259 90.9343 91.2248 93.3481 89.4026C95.3431 87.9005 96.9687 86.1768 96.7717 83.3451C96.4515 78.8881 92.4121 74.6281 87.0674 76.6473C83.8901 77.8539 80.8606 79.4052 77.7326 80.7103C75.6883 81.5475 74.9248 83.1973 74.7524 85.2658C74.5307 88.3438 77.0922 91.4464 80.0478 91.6188C81.8212 91.7173 83.4468 91.2248 85.1463 90.9047C85.5404 90.8308 85.9098 90.7816 86.3039 90.7077L86.3531 91.077C84.6044 91.5449 82.8557 92.062 81.0823 92.456C79.4813 92.8007 77.905 92.5299 76.575 91.5942C74.3336 90.0182 73.2992 87.7774 73.5455 85.0195C73.7918 82.237 75.2942 80.4887 77.9543 79.6268C79.4075 79.159 80.8114 78.5926 82.1907 77.9278C84.8507 76.6473 87.4369 75.2438 90.4417 74.9729C90.5156 74.9729 90.5895 74.8498 90.7619 74.6774C90.1462 74.5789 89.6289 74.505 89.0871 74.4066C87.7571 74.1603 86.7226 73.4954 86.033 72.3381C84.3827 69.531 84.9739 65.3695 87.2891 63.0548C89.0132 61.3065 91.0575 59.9768 93.2003 58.8441C93.6437 58.6225 94.1609 58.3024 94.8259 58.8441C94.3087 59.115 93.9392 59.3366 93.5451 59.5336C91.5994 60.4447 89.7275 61.4543 88.3236 63.1041C86.6487 65.0986 85.9344 67.2902 86.9689 69.8511C87.9787 72.3627 89.7028 73.4954 92.4368 73.2C95.4663 72.8798 98.2002 71.624 100.811 70.1466C101.919 69.5063 102.658 68.2505 102.708 66.9947C102.831 63.9659 101.969 60.8387 98.7667 59.1888C97.5598 58.5732 96.2544 58.1793 94.9491 57.7114C94.6042 57.5883 94.2594 57.4898 93.9146 57.4159L94.2348 56.4556C95.8111 56.9234 97.3874 57.4159 98.8899 58.1054C102.363 59.7306 103.865 62.7101 104.013 66.4283C104.038 67.1671 103.89 68.0043 103.52 68.6199C102.683 70.0234 101.624 71.2547 100.072 71.9688C97.8554 73.003 95.6633 74.0126 93.2003 74.3573C92.7323 74.4312 92.2644 74.4804 92.2397 75.1206C92.289 75.1945 92.3383 75.293 92.4122 75.3422C92.6338 75.4654 92.8555 75.5885 93.0772 75.7116C95.3431 76.7705 96.8702 78.4203 97.683 80.8827C98.5943 83.6406 97.9539 87.4819 95.22 89.5011C92.8801 91.2248 90.5156 92.85 87.7324 93.8103C86.1561 94.352 84.629 95.0662 83.0773 95.7064C82.8557 95.8049 82.7079 95.9773 82.2645 96.2974C83.1266 96.6175 83.7916 96.8637 84.432 97.11C87.1659 98.1934 88.4713 100.139 88.4713 103.094C88.4713 103.438 88.4713 103.808 88.4713 104.152C88.3235 108.018 85.7374 111.663 82.1168 112.845C79.5552 113.657 76.9444 114.273 74.3583 114.987C73.9642 115.11 73.5455 115.307 73.2499 115.603C71.4027 117.4 69.3091 118.755 66.9692 119.838C65.1712 120.651 63.2994 121.414 61.6738 122.497C56.6492 125.846 51.2552 128.432 45.6642 130.673L43.8662 129.491C46.7726 128.555 49.605 127.422 52.339 126.043L52.2651 125.969Z" fill="black"/>
<path d="M75.5653 21.9325L76.4273 19.2732L74.6539 20.9476L74.4076 20.8737L73.9397 18.4852L73.0776 21.1446L72.6343 20.9968L73.7673 17.5741L74.2106 17.7218L74.7032 20.3566L76.6736 18.5344L77.117 18.6822L75.984 22.1049L75.5653 21.9572V21.9325Z" fill="#020303"/>
<path d="M79.2106 22.696L79.0875 23.0899L76.7969 22.3512L77.9299 18.9285L80.1712 19.6672L80.0481 20.0365L78.2254 19.4456L77.856 20.5536L79.4323 21.0708L79.3092 21.4401L77.7328 20.923L77.3387 22.105L79.2106 22.7206V22.696Z" fill="#020303"/>
<path d="M79.3581 23.1638L81.8704 20.1843L82.2152 20.3075L82.4615 24.1981L82.0182 24.0503L81.9443 22.9176L80.5157 22.4497L79.7768 23.3362L79.3335 23.1885L79.3581 23.1638ZM81.895 20.7507L80.7374 22.1296L81.9689 22.5236L81.8704 20.7507H81.895Z" fill="#020303"/>
<path d="M85.885 21.9325L84.7028 21.5386L83.693 24.5919L83.2742 24.4442L84.2841 21.3908L83.1265 21.0214L83.2496 20.6521L86.0082 21.5632L85.885 21.9325Z" fill="#020303"/>
<path d="M87.757 25.4784L87.6339 25.8724L85.3433 25.1337L86.4763 21.7109L88.7176 22.4497L88.5944 22.819L86.7718 22.2281L86.4024 23.3361L87.9787 23.8533L87.8555 24.2226L86.2792 23.7055L85.8851 24.8875L87.757 25.5031V25.4784Z" fill="#020303"/>
<path d="M88.2251 26.0695L89.3581 22.6467L90.8113 23.1146C90.959 23.1638 91.0822 23.2377 91.2053 23.3362C91.3039 23.4347 91.3777 23.5578 91.4516 23.6809C91.5009 23.8041 91.5255 23.9518 91.5502 24.0995C91.5748 24.2473 91.5502 24.395 91.5009 24.5181C91.4516 24.6413 91.4024 24.7398 91.3285 24.8383C91.2546 24.9368 91.1807 25.0107 91.0822 25.0845C90.9837 25.1584 90.8852 25.2076 90.7866 25.2569C90.6635 25.2815 90.565 25.3061 90.4418 25.3061L90.8359 26.8821L90.3433 26.7097L89.9738 25.2323L89.0871 24.9368L88.6931 26.168L88.2744 26.0202L88.2251 26.0695ZM89.1857 24.592L90.1955 24.9368C90.1955 24.9368 90.3679 24.986 90.4664 24.9614C90.565 24.9614 90.6142 24.9121 90.6881 24.8629C90.762 24.8136 90.8359 24.7398 90.8851 24.6659C90.9344 24.592 90.9837 24.4935 91.0083 24.395C91.0329 24.2965 91.0576 24.198 91.0576 24.0995C91.0576 24.001 91.0329 23.9272 91.0083 23.8287C90.9837 23.7302 90.9344 23.6809 90.8605 23.6071C90.7866 23.5332 90.7127 23.5086 90.6388 23.4839L89.6536 23.1638L89.1857 24.592Z" fill="#020303"/>
<path d="M72.6587 16.9338C72.8311 16.3921 72.5601 15.7765 71.9937 15.6041C71.6242 15.481 71.2547 15.6041 71.0084 15.8258C70.6883 15.5056 70.3188 15.2594 69.8755 15.1363C68.373 14.6438 66.7474 15.481 66.2548 17.0077C66.0332 17.7218 66.0824 18.4359 66.3534 19.0762C66.4026 18.8299 66.5258 18.559 66.7228 18.362C67.043 18.0665 67.8065 17.5494 67.3139 17.0077C67.6341 17.2047 67.6588 17.4756 67.511 17.7711C67.3386 18.0912 66.9445 18.3867 67.043 18.8299C67.1415 19.1993 67.6341 19.3962 67.8558 19.0515C68.2252 18.6083 67.5356 18.0419 67.3878 18.8545C67.2154 18.5344 67.3878 18.2143 67.708 18.1897C68.2006 18.1404 68.6193 18.756 68.4715 19.2732C69.1612 19.0269 68.6932 18.5098 68.2745 18.0666C67.6588 17.3771 67.7326 16.5645 68.7178 16.3921C68.5454 16.466 67.7326 16.9831 68.373 17.4756C68.5454 16.7122 69.4814 16.0228 70.1218 16.1459C69.3336 16.1705 68.7178 17.0077 69.0134 17.7957C69.1366 18.1404 69.4814 18.4852 69.6784 18.7806C70.171 19.6179 69.7769 20.0857 69.3829 20.3074C70.2942 19.9872 69.9986 19.0023 69.8016 18.6083C69.703 18.3867 69.5799 18.1651 69.7031 17.9188C69.8016 17.7218 69.974 17.5741 70.2203 17.5741C69.7277 17.6726 70.0479 18.3374 70.1957 18.5836C70.4173 19.0269 70.6144 19.347 70.5405 19.8641C70.4912 20.135 70.3681 20.332 70.1957 20.5044C70.8607 20.1596 71.3779 19.5686 71.6488 18.8053C71.772 18.4359 71.7966 18.0666 71.772 17.6972C72.1907 17.648 72.5109 17.3771 72.6587 16.9831V16.9338ZM71.4518 17.2786C71.0823 17.1554 70.8853 16.7615 71.0084 16.3921C71.0577 16.269 71.1316 16.1459 71.2301 16.072C71.4025 15.9243 71.6488 15.875 71.8951 15.9489C72.2646 16.072 72.4616 16.466 72.3385 16.8354C72.2646 17.1062 72.0429 17.2786 71.7966 17.3032C71.6981 17.3278 71.5996 17.3032 71.4764 17.3032L71.4518 17.2786Z" fill="#CF122E"/>
<path d="M69.4322 67.4872C79.6751 67.4872 87.9787 59.1857 87.9787 48.9453C87.9787 38.7048 79.6751 30.4033 69.4322 30.4033C59.1893 30.4033 50.8857 38.7048 50.8857 48.9453C50.8857 59.1857 59.1893 67.4872 69.4322 67.4872Z" fill="#CE0E2D"/>
<path d="M61.477 43.5526L60.2208 43.134L59.6297 44.9316L59.2603 44.8084L60.6642 40.4746L62.0681 40.9424C62.5361 41.0902 62.8562 41.3118 63.0533 41.6319C63.2503 41.952 63.275 42.2968 63.1272 42.6908C63.0287 42.9616 62.8809 43.1833 62.6346 43.3556C62.3883 43.528 62.142 43.6019 61.8464 43.5772L62.339 45.7688V45.818L61.9449 45.6949L61.477 43.5526ZM60.3193 42.8385L61.4523 43.2078C61.7725 43.3063 62.0435 43.3063 62.2898 43.2078C62.5361 43.0847 62.7085 42.8878 62.7824 42.6169C62.8809 42.3214 62.8562 42.0505 62.7331 41.8043C62.5853 41.5827 62.339 41.4103 61.9942 41.2872L60.9597 40.9424L60.344 42.8631L60.3193 42.8385Z" fill="white"/>
<path d="M64.2848 46.532C64.0138 46.4335 63.7922 46.2858 63.5951 46.0888C63.4227 45.8918 63.2996 45.6456 63.2503 45.3501C63.201 45.0792 63.2503 44.7837 63.3242 44.4882L63.3735 44.3651C63.472 44.045 63.6198 43.7988 63.8168 43.5772C64.0138 43.3555 64.2601 43.2324 64.5064 43.1586C64.7774 43.0847 65.0237 43.0847 65.27 43.1586C65.6641 43.2817 65.935 43.5279 66.0828 43.8726C66.2305 44.2174 66.2305 44.6114 66.0828 45.0792L66.0089 45.2762L63.7183 44.5375V44.6114C63.5705 44.9807 63.5705 45.3255 63.7183 45.621C63.8414 45.9411 64.0631 46.1381 64.3833 46.2366C64.5803 46.3104 64.7527 46.3104 64.9251 46.2858C65.0976 46.2858 65.27 46.1873 65.4424 46.0888L65.6148 46.335C65.2207 46.6305 64.7774 46.7044 64.2848 46.532ZM65.2207 43.4786C64.9498 43.3801 64.7035 43.4048 64.4572 43.5525C64.2109 43.7003 64.0138 43.9219 63.866 44.242L65.8118 44.8822V44.833C65.9104 44.5129 65.9104 44.242 65.8118 43.9958C65.7133 43.7495 65.5163 43.5771 65.2453 43.4786H65.2207Z" fill="white"/>
<path d="M67.585 43.9712L67.4372 44.4882C67.6096 44.3405 67.8067 44.242 68.0284 44.1928C68.25 44.1435 68.4471 44.1928 68.6687 44.242C69.186 44.4144 69.4323 44.7098 69.4323 45.1777C69.6047 45.0053 69.8264 44.9069 70.048 44.8576C70.2697 44.8084 70.516 44.833 70.7377 44.9068C71.4273 45.1285 71.649 45.621 71.4273 46.3843L70.7377 48.5266L70.3682 48.4035L71.0579 46.2858C71.1564 45.9903 71.1564 45.7687 71.0579 45.5963C70.984 45.4239 70.8116 45.2762 70.516 45.2024C70.2697 45.1285 70.0234 45.1285 69.7771 45.2516C69.5554 45.3501 69.383 45.5225 69.2845 45.7441L68.5948 47.8864L68.2254 47.7632L68.915 45.621C69.0136 45.3501 69.0136 45.1285 68.915 44.9315C68.8412 44.7591 68.6441 44.6114 68.3978 44.5375C68.1761 44.4636 67.9545 44.4636 67.7574 44.5375C67.5604 44.6114 67.3633 44.7591 67.2156 44.9807L66.5013 47.1969L66.1318 47.0738L67.1909 43.848L67.5358 43.9712H67.585Z" fill="white"/>
<path d="M71.9694 47.123C72.0679 46.8029 72.2157 46.5567 72.4127 46.335C72.6098 46.1134 72.8561 45.9903 73.1024 45.9164C73.3733 45.8426 73.6442 45.8672 73.9151 45.941C74.3339 46.0888 74.654 46.335 74.8018 46.729C74.9742 47.123 74.9742 47.5662 74.8018 48.0587V48.1326C74.6787 48.4527 74.5309 48.699 74.3339 48.9206C74.1368 49.1422 73.8905 49.2653 73.6442 49.3392C73.3979 49.4131 73.1024 49.3884 72.8314 49.2899C72.4127 49.1422 72.1171 48.896 71.9447 48.502C71.7723 48.108 71.7723 47.6647 71.9447 47.1723V47.0984L71.9694 47.123ZM72.2896 47.3446C72.1664 47.7386 72.1664 48.0833 72.2896 48.4035C72.4127 48.7236 72.6344 48.9206 72.9546 49.0191C73.2748 49.1176 73.5703 49.093 73.8659 48.896C74.1368 48.7236 74.3585 48.4281 74.4816 48.0095V47.9356C74.5802 47.6894 74.6048 47.4431 74.5802 47.2215C74.5555 46.9999 74.4816 46.7783 74.3585 46.6306C74.2353 46.4582 74.0629 46.335 73.8413 46.2858C73.5211 46.1873 73.2255 46.2119 72.9299 46.4089C72.659 46.5813 72.4373 46.8768 72.3142 47.2954V47.3692L72.2896 47.3446Z" fill="white"/>
<path d="M76.1564 49.7825L78.0283 47.3693L78.3978 47.4924L76.1318 50.3242L75.8363 50.2257L75.6885 46.606L76.0579 46.7291L76.1564 49.7825Z" fill="white"/>
<path d="M79.1612 51.383C78.8903 51.2845 78.6686 51.1368 78.4716 50.9398C78.2992 50.7428 78.176 50.4965 78.1268 50.201C78.0775 49.9302 78.1268 49.6347 78.2007 49.3392L78.2499 49.2161C78.3484 48.8959 78.4962 48.6497 78.6933 48.4281C78.8903 48.2065 79.1366 48.0834 79.3829 48.0095C79.6538 47.9356 79.9001 47.9356 80.1464 48.0095C80.5405 48.1326 80.8114 48.3789 80.9592 48.7236C81.107 49.0683 81.107 49.4623 80.9592 49.9302L80.8853 50.1272L78.5947 49.3884V49.4623C78.447 49.8317 78.447 50.1764 78.5947 50.4719C78.7179 50.792 78.9396 50.989 79.2597 51.0875C79.4568 51.1614 79.6292 51.1614 79.8016 51.1367C79.974 51.1367 80.1464 51.0383 80.3188 50.9398L80.4913 51.186C80.0972 51.4815 79.6538 51.5554 79.1612 51.383ZM80.0972 48.3296C79.8262 48.2311 79.5799 48.2557 79.3336 48.4035C79.0873 48.5512 78.8903 48.7729 78.7425 49.093L80.6883 49.7332V49.6839C80.7868 49.3638 80.7868 49.093 80.6883 48.8467C80.5898 48.6005 80.3927 48.4281 80.1218 48.3296H80.0972Z" fill="white"/>
<path d="M55.3684 50.2995L56.329 47.3693L55.7871 47.1969L55.8856 46.9014L56.4275 47.0738L56.5506 46.6798C56.6491 46.3597 56.8216 46.1134 57.0432 45.9903C57.2649 45.8672 57.5358 45.8672 57.8314 45.9657C57.9545 46.015 58.0777 46.0642 58.2008 46.1381L58.0777 46.4336C58.0777 46.4336 57.8806 46.335 57.7575 46.2858C57.5605 46.2119 57.388 46.2366 57.2403 46.3104C57.0925 46.4089 56.9693 46.5567 56.8954 46.7783L56.7723 47.1723L57.5358 47.4185L57.4373 47.714L56.6738 47.4678L55.7132 50.3981L55.3438 50.2749L55.3684 50.2995Z" fill="white"/>
<path d="M59.58 48.4527C59.58 48.4527 59.4322 48.3789 59.3337 48.3543C59.112 48.2804 58.8903 48.2804 58.7179 48.3543C58.5209 48.4281 58.3485 48.5759 58.2007 48.7975L57.4864 51.0137L57.1416 50.8905L58.2007 47.6648L58.5455 47.7879L58.3731 48.305C58.6933 47.9849 59.0628 47.8864 59.4568 48.0341C59.5554 48.0588 59.6292 48.108 59.6785 48.1573L59.5554 48.4774L59.58 48.4527Z" fill="white"/>
<path d="M59.4816 49.8071C59.5801 49.487 59.7279 49.2407 59.9249 49.0191C60.122 48.7975 60.3683 48.6744 60.6146 48.6005C60.8855 48.5266 61.1564 48.5513 61.4274 48.6252C61.8461 48.7729 62.1663 49.0191 62.314 49.4131C62.4864 49.8071 62.4864 50.2503 62.314 50.7428V50.8167C62.1909 51.1368 62.0431 51.383 61.8461 51.6046C61.649 51.8263 61.4027 51.9494 61.1564 52.0233C60.9101 52.0971 60.6146 52.0725 60.3436 51.974C59.9249 51.8263 59.6294 51.58 59.4569 51.186C59.2845 50.7921 59.2845 50.3488 59.4569 49.8564V49.7825L59.4816 49.8071ZM59.8018 50.0287C59.6786 50.4227 59.6786 50.7674 59.8018 51.0876C59.9249 51.4077 60.1466 51.6047 60.4668 51.7032C60.787 51.8017 61.0825 51.777 61.3781 51.58C61.649 51.4077 61.8707 51.1122 61.9938 50.6936V50.6197C62.0924 50.3735 62.117 50.1272 62.0924 49.9056C62.0677 49.684 61.9938 49.4624 61.8707 49.3146C61.7475 49.1423 61.5751 49.0191 61.3535 48.9699C61.0333 48.8714 60.7377 48.896 60.4421 49.093C60.1712 49.2654 59.9495 49.5608 59.8264 49.9794V50.0534L59.8018 50.0287Z" fill="white"/>
<path d="M63.9151 49.5362L63.7673 50.0533C63.9397 49.9056 64.1368 49.8071 64.3584 49.7578C64.5801 49.7086 64.7771 49.7578 64.9988 49.8071C65.516 49.9794 65.7623 50.275 65.7623 50.7428C65.9348 50.5704 66.1564 50.4719 66.3781 50.4227C66.5998 50.3734 66.8461 50.3981 67.0677 50.4719C67.7574 50.6936 67.9791 51.186 67.7574 51.9494L67.0677 54.0917L66.6983 53.9686L67.3879 51.8509C67.4865 51.5554 67.4865 51.3338 67.3879 51.1614C67.314 50.989 67.1416 50.8413 66.8461 50.7674C66.5998 50.6935 66.3535 50.6936 66.1072 50.8167C65.8855 50.9152 65.7131 51.0875 65.6146 51.3092L64.9249 53.4514L64.5555 53.3283L65.2451 51.186C65.3436 50.9152 65.3436 50.6935 65.2451 50.4966C65.1712 50.3242 64.9742 50.1764 64.7279 50.1026C64.5062 50.0287 64.2845 50.0287 64.0875 50.1026C63.8905 50.1764 63.6934 50.3242 63.5456 50.5458L62.8314 52.762L62.4619 52.6388L63.521 49.4131L63.8658 49.5362H63.9151Z" fill="white"/>
<path d="M70.6639 52.3188C70.8363 52.171 71.0333 52.0725 71.255 52.0232C71.4766 51.974 71.6983 51.9986 71.8954 52.0725C72.2402 52.1956 72.4618 52.368 72.5604 52.6142C72.6589 52.8605 72.6589 53.1806 72.5357 53.5746L71.8461 55.6922L71.5013 55.5691L72.1909 53.4514C72.2894 53.156 72.2894 52.9344 72.2155 52.7374C72.1417 52.565 71.9692 52.4172 71.6983 52.3434C71.4766 52.2695 71.255 52.2695 71.0333 52.3434C70.8116 52.4172 70.6392 52.565 70.4668 52.7866L69.7525 55.0028L69.4077 54.8796L70.9102 50.2996L71.255 50.4227L70.6392 52.3188H70.6639Z" fill="white"/>
<path d="M74.0133 56.4555C73.7423 56.357 73.5207 56.2093 73.3236 56.0123C73.1512 55.8153 73.0281 55.569 72.9788 55.2736C72.9296 55.0027 72.9788 54.7072 73.0527 54.4117L73.102 54.2886C73.2005 53.9685 73.3483 53.7222 73.5453 53.5006C73.7423 53.279 73.9886 53.1559 74.2349 53.082C74.5059 53.0081 74.7522 53.0081 74.9985 53.082C75.3926 53.2051 75.6635 53.4514 75.8113 53.7961C75.9591 54.1408 75.9591 54.5348 75.8113 55.0027L75.7374 55.1997L73.4468 54.461V54.5348C73.299 54.9042 73.299 55.2489 73.4468 55.5444C73.5699 55.8645 73.7916 56.0615 74.1118 56.16C74.3088 56.2339 74.4813 56.2339 74.6537 56.2093C74.8261 56.2093 74.9985 56.1108 75.1709 56.0123L75.3433 56.2585C74.9492 56.554 74.5059 56.6279 74.0133 56.4555ZM74.9492 53.4021C74.6783 53.3036 74.432 53.3283 74.1857 53.476C73.9394 53.6238 73.7423 53.8454 73.5946 54.1655L75.5403 54.8057V54.7564C75.6389 54.4363 75.6389 54.1655 75.5403 53.9192C75.4418 53.673 75.2448 53.5006 74.9739 53.4021H74.9492Z" fill="white"/>
<path d="M77.9788 57.6622C77.9788 57.6622 77.9788 57.3914 78.0527 57.1944C77.8803 57.3175 77.6832 57.3913 77.4616 57.416C77.2399 57.4406 77.0182 57.416 76.7965 57.3421C76.4764 57.2436 76.2547 57.0712 76.1315 56.8496C75.9838 56.6034 75.9591 56.3571 76.0576 56.1109C76.1562 55.7908 76.3778 55.5938 76.698 55.4953C77.0182 55.3968 77.4123 55.4214 77.8803 55.5692L78.5207 55.7908L78.6438 55.4214C78.7177 55.1998 78.7177 54.9782 78.6192 54.8058C78.5207 54.6335 78.3236 54.4857 78.0527 54.4118C77.8064 54.338 77.5847 54.338 77.363 54.4118C77.1414 54.4857 77.0182 54.6088 76.969 54.7812L76.6241 54.6581C76.698 54.4118 76.8951 54.2148 77.1906 54.1164C77.4862 54.0179 77.8064 54.0179 78.1512 54.1164C78.496 54.2148 78.767 54.4118 78.9147 54.6581C79.0625 54.9043 79.0872 55.1998 78.9886 55.5199L78.496 57.0466C78.3975 57.3667 78.3482 57.613 78.3729 57.7854L78.0034 57.6868L77.9788 57.6622ZM76.9443 57.0466C77.1906 57.1205 77.4123 57.1451 77.634 57.0712C77.8556 57.022 78.0527 56.8989 78.2005 56.7511L78.4221 56.037L77.7818 55.84C77.4123 55.7169 77.1167 55.6923 76.8951 55.7662C76.6488 55.8154 76.501 55.9632 76.4271 56.1848C76.3778 56.3571 76.3778 56.5295 76.4764 56.7019C76.5749 56.8743 76.7227 56.9728 76.9443 57.0466Z" fill="white"/>
<path d="M81.0821 54.2147L80.8111 55.0519L81.4762 55.2735L81.3776 55.569L80.7126 55.3474L80.023 57.4897C79.9737 57.6621 79.9491 57.8098 79.9984 57.933C80.023 58.0315 80.1215 58.1299 80.2693 58.1792C80.3185 58.1792 80.4171 58.2284 80.5648 58.253L80.491 58.5486C80.491 58.5486 80.2447 58.5486 80.0969 58.4747C79.8506 58.4008 79.7028 58.2777 79.6289 58.0807C79.555 57.9083 79.5796 57.6867 79.6782 57.3912L80.3678 55.2489L79.7767 55.0519L79.8752 54.7564L80.4663 54.9534L80.7373 54.1162L81.1067 54.2393L81.0821 54.2147Z" fill="white"/>
<path d="M48.8416 16.072C48.0041 15.3087 47.0682 14.7423 45.9599 14.4468C44.6545 14.1021 43.4968 14.3483 42.5855 15.284C41.8959 15.9981 41.2309 16.8107 40.7629 17.6972C39.1373 20.8491 37.6102 24.0502 36.0832 27.2513C34.4576 30.6248 32.1424 33.3827 29.0143 35.4019C26.6006 36.9532 25.1228 39.1694 24.2854 41.878C23.0046 46.1134 20.8371 49.8563 18.0539 53.3036C15.7387 56.1354 13.4727 58.9918 11.3053 61.9467C9.28562 64.6799 7.463 67.561 6.10834 70.6882C4.8522 73.5939 3.27588 76.2779 1.42862 78.8388C1.10843 79.3067 0.812867 79.7745 0.492676 80.2424V82.9018C0.492676 82.9018 0.566566 82.8033 0.615826 82.7294C2.09363 80.5625 3.66996 78.4202 5.19703 76.2779C6.60094 74.308 7.58615 72.1411 8.37431 69.9003C9.06395 67.955 9.9999 66.182 11.2314 64.5569C14.4826 60.223 17.783 55.9138 21.0342 51.5799C23.1524 48.7728 24.6794 45.6209 25.9109 42.3213C26.2065 41.5087 26.4774 40.6961 26.7976 39.8835C27.2656 38.7508 27.9799 37.7658 29.0143 37.0517C30.837 35.8205 32.4379 34.3431 33.7433 32.5701C34.1374 32.053 34.6793 31.6344 35.1226 31.1666C35.5906 30.6741 36.5019 30.4278 36.1324 29.4429C36.1324 29.369 36.2063 29.2705 36.2802 29.172C38.1767 26.5619 39.1619 23.4838 40.5905 20.6274C41.2555 19.2731 42.019 17.968 42.8565 16.3675C43.8909 17.7218 44.6298 18.8299 44.0387 20.2827C43.5954 21.4154 43.1028 22.5481 42.4377 23.5577C41.1077 25.6015 39.6545 27.5468 37.758 29.1228C37.6102 29.2459 37.5364 29.4183 37.2162 29.8123C38.9649 29.0735 39.9747 27.9408 40.9353 26.7835C42.2407 25.1829 43.3491 23.41 44.2357 21.5139C44.95 19.9626 45.0732 18.5098 44.0141 17.0816C43.817 16.8107 43.6692 16.466 43.3737 15.8996C44.0141 15.9489 44.5313 15.8257 44.8022 16.0474C46.6495 17.4509 48.6938 18.6575 49.7283 20.8737C50.4672 22.4496 50.2947 24.1487 50.4425 25.7985C50.4672 26.2417 50.4425 26.7096 50.4672 27.3745C50.7627 27.1036 51.0336 27.0051 51.0829 26.8327C52.2652 23.2376 51.945 18.8299 48.8662 15.9981L48.8416 16.072Z" fill="black"/>
<path d="M107.634 12.0583C107.634 12.0583 111.057 16.8108 109.58 24.789C112.609 20.7999 111.673 15.0379 107.634 12.0583Z" fill="black"/>
<path d="M110.293 10.0145C110.293 10.0145 114.678 16.1213 112.781 26.3403C116.673 21.2185 115.466 13.8313 110.293 10.0145Z" fill="black"/>
<path d="M25.7878 106.147C25.7878 106.147 22.5366 101.247 24.3346 93.3425C21.1573 97.2085 21.8716 103.02 25.7878 106.147Z" fill="black"/>
<path d="M23.0291 108.092C23.0291 108.092 18.8666 101.838 21.1572 91.6926C17.0933 96.6421 18.0046 104.103 23.0291 108.092Z" fill="black"/>
<path d="M267.36 130.648H10.5171C4.72898 130.648 0 125.994 0 120.281V18.3128C0 12.6 4.70435 7.94604 10.5171 7.94604H267.36C273.148 7.94604 277.877 12.6 277.877 18.3128V120.281C277.877 125.994 273.148 130.648 267.36 130.648ZM10.5171 9.17725C5.39399 9.17725 1.23151 13.2649 1.23151 18.3128V120.281C1.23151 125.304 5.39399 129.417 10.5171 129.417H267.36C272.483 129.417 276.621 125.304 276.621 120.281V18.3128C276.621 13.2649 272.458 9.17725 267.36 9.17725H10.5171Z" fill="#D8D8D8"/>
<path d="M105.097 15.6288C104.604 14.8654 103.865 14.2499 102.929 13.9544L63.7182 1.19906C61.6 0.509586 59.3094 1.66691 58.6197 3.80921L55.4917 13.4619" fill="white"/>
<path d="M105.097 15.6288C104.604 14.8654 103.865 14.2499 102.929 13.9544L63.7182 1.19906C61.6 0.509586 59.3094 1.66691 58.6197 3.80921L55.4917 13.4619" stroke="#1E1E1C"/>
<path d="M85.2448 11.1226L79.703 9.32501C79.506 9.25114 79.3089 9.37428 79.2351 9.57127C79.1612 9.76826 79.2843 9.96526 79.4814 10.0391L85.0231 11.8367C85.2202 11.9106 85.4172 11.7874 85.4911 11.5904C85.565 11.3934 85.4418 11.1964 85.2448 11.1226Z" fill="#686867"/>
<path d="M77.7325 9.86671C78.1678 9.86671 78.5207 9.51395 78.5207 9.07876C78.5207 8.64358 78.1678 8.29077 77.7325 8.29077C77.2972 8.29077 76.9443 8.64358 76.9443 9.07876C76.9443 9.51395 77.2972 9.86671 77.7325 9.86671Z" fill="#686867"/>
</svg>
