<svg width="445" height="214" viewBox="0 0 445 214" fill="none" xmlns="http://www.w3.org/2000/svg">
<rect x="12.75" y="1.75" width="429.5" height="210.5" rx="14.25" fill="white" stroke="#EDEDEC" stroke-width="3.5"/>
<path d="M351.974 108.285C351.974 155.03 283.84 192.895 199.806 192.895C115.771 192.895 47.6367 155.03 47.6367 108.285C47.6367 61.5398 115.771 23.6748 199.806 23.6748C283.84 23.6748 351.974 61.5398 351.974 108.285ZM199.806 42.4733C131.057 42.4733 75.2899 73.4572 75.2899 111.707C75.2899 149.956 131.018 180.94 199.806 180.94C268.593 180.94 324.321 149.956 324.321 111.707C324.321 73.4572 268.593 42.4733 199.806 42.4733Z" fill="#DDDEDD"/>
<path d="M165.663 80.1076C159.863 84.1439 155.101 89.9105 153.104 96.7531C150.415 110.669 147.919 125.162 146.651 139.231C148.61 146.112 149.225 153.762 156.484 157.452C167.314 160.105 181.525 153.032 191.626 149.764C202.995 145.997 214.901 142.921 225.732 137.924C235.372 133.311 244.205 125.738 254.575 123.047C257.725 122.701 262.718 120.434 263.486 118.435C264.254 116.436 266.059 113.668 268.133 107.709C270.053 100.905 269.861 92.7165 274.278 86.9118C278.388 81.0302 279.924 72.2662 274.97 66.4231C269.208 60.5415 262.295 54.5825 259.607 54.3134C256.88 53.9674 249.582 54.9285 240.902 56.274C229.073 58.0807 218.511 61.4642 207.642 66.5385C196.235 72.6123 183.023 71.4583 170.963 75.4178C168.313 76.917 165.586 80.1076 165.586 80.1076H165.663Z" fill="#C6875A"/>
<path d="M189.665 70.3826C176.031 73.8039 160.092 77.7634 154.638 92.4865C152.103 103.519 147.648 114.859 149.223 126.276C150.183 132.849 151.988 144.382 161.091 143.152C178.643 140.615 195.273 135.272 212.095 129.967C229.993 124.739 240.248 107.517 257.992 101.712C263.407 100.098 265.788 101.827 269.706 91.7554C275.083 81.2608 282.841 74.6878 271.703 63.4244C261.371 49.7008 233.334 56.7743 219.546 60.7722C209.292 63.7322 200.151 68.4605 189.704 70.4211L189.665 70.3826Z" fill="#A06643"/>
<path d="M167.623 140.5C175.881 137.425 181.142 137.617 184.791 138.578C187.672 139.308 190.821 141.114 194.738 141.691C197.389 142.191 203.495 142.921 204.993 142.998C209.333 142.998 211.791 143.536 211.676 143.69C209.372 148.995 186.366 151.917 175.458 154.492C172.885 153.762 169.198 152.877 164.512 151.263C157.983 149.072 158.29 155.684 154.181 145.651C150.033 135.387 155.947 142.499 155.947 142.499C155.947 142.499 154.488 145.151 154.181 145.651C152.414 140.922 152.568 139.577 153.028 139.577C154.219 139.27 156.869 143.652 161.977 145.036C164.474 145.689 166.317 145.766 169.774 145.497C177.724 144.92 178.646 146.496 181.642 142.883C181.911 142.46 183.063 141.268 182.755 141.115C182.755 140.961 181.911 141.346 179.952 142.499" fill="#4D100C"/>
<path d="M210.06 63.3868C200.958 67.3463 191.51 69.0373 181.985 71.5744C172.037 74.2653 163.819 77.2252 157.405 85.8745C148.302 99.2522 155.023 102.021 155.023 102.021C159.747 95.3319 160.823 87.4509 167.698 82.2613C174.15 78.3018 179.796 75.534 187.362 74.5345C193.546 73.4197 200.228 72.4973 207.103 71.8822C210.56 71.6131 214.247 71.6902 215.937 72.0746C219.355 72.5744 222.082 73.4581 224.079 74.5345C228.266 77.3792 232.414 76.9561 233.719 75.3031C234.987 73.5732 233.105 70.8056 232.836 70.6134C235.678 72.2279 238.098 74.5346 240.671 76.6105C241.247 74.65 241.554 71.4977 239.596 69.8447C236.907 67.4613 232.106 68.7682 231.607 67.7302C230.57 66.1926 240.633 62.5413 244.973 62.6566C244.973 62.6566 245.203 62.6174 248.391 62.8481C251.079 63.0403 258.146 63.8091 263.293 65.6927C263.792 65.9618 265.367 66.4623 266.672 67.4234C268.478 68.7304 270.129 69.6525 270.936 71.7668C271.627 73.3045 271.627 74.8426 271.397 77.0337C271.205 80.0706 270.859 81.6076 270.129 83.0299C269.745 83.9909 269.246 84.9135 268.708 85.8745C266.02 90.4491 263.869 93.1786 263.523 93.6783C259.951 98.445 255.381 97.3306 255.304 96.9077C255.189 96.2542 261.372 97.5228 270.936 86.3363C273.548 83.2994 275.429 80.147 275.621 79.4166C278.809 72.3818 274.2 68.0766 275.007 66.1545C276.159 63.502 259.644 54.0458 259.644 54.0458C259.644 54.0458 257.954 51.8155 245.741 55.3137C234.027 58.735 221.775 59.5042 210.137 63.3483L210.06 63.3868Z" fill="#F4AD6B"/>
<path d="M151.875 104.211C151.875 104.211 150.415 112.976 159.057 120.049C168.121 127.545 178.837 132.812 190.858 132.12C200.537 131.62 205.606 130.967 210.023 129.506C203.801 131.351 193.815 133.888 186.172 136.118C176.801 137.04 167.929 134.58 159.71 130.082C148.994 123.931 150.108 130.275 148.764 120.895C147.381 111.554 150.07 109.093 150.07 109.093C150.07 109.093 152.067 103.98 151.952 104.211H151.875Z" fill="#F0BC83"/>
<path d="M191.165 132.581C199.999 130.582 208.947 128.621 217.743 126.315C224.195 122.355 229.534 116.282 234.834 110.938C241.401 106.018 247.739 101.789 255.382 98.4831C256.534 98.4062 257.148 98.4061 258.07 98.3677C254.959 101.558 252.079 102.904 246.97 107.363C241.133 111.553 236.14 116.666 231.339 122.01C223.043 130.083 209.255 130.736 198.462 132.62" fill="#F0BC83"/>
<path d="M217.706 126.315C208.758 132.158 196.967 135.656 186.328 136.04C172.309 136.463 172.693 131.081 172.693 131.081C180.49 136.578 190.207 134.157 198.58 132.004C205.954 128.583 213.213 125.161 218.359 118.665C218.129 121.932 218.014 123.585 217.706 126.315Z" fill="#C6875A"/>
<path d="M224.274 77.7248C227.654 78.8781 230.995 78.9547 232.071 77.4555C233.568 75.7641 231.763 71.4977 230.726 70.4598C227.039 67.0769 233.299 65.3853 233.299 65.3853C233.299 65.3853 246.089 64.7698 246.934 65.923C249.085 66.0768 247.433 65.4623 256.881 67.4997C266.33 69.614 265.369 70.3441 266.944 71.0361C270.017 72.4584 271.822 75.4952 269.095 80.531C266.291 85.144 264.755 86.0279 264.755 86.0279C264.755 86.0279 259.378 97.1767 255.96 100.252C246.358 106.172 237.409 112.091 228.268 118.78C219.78 125.507 209.564 130.082 198.771 131.582C187.326 131.697 175.382 127.122 166.663 119.857C160.48 114.629 155.333 107.018 153.451 99.0986C154.45 91.7562 163.13 87.4502 169.467 85.0284C169.467 85.0284 171.119 82.6449 176.572 79.1852C179.338 77.5322 185.982 75.3033 193.932 74.1885C201.076 73.2659 208.604 72.3816 215.709 74.0346" fill="#CE8351"/>
<path d="M206.261 66.6918C210.294 63.309 223.083 59.042 223.083 59.042C223.083 59.042 233.415 57.0436 238.907 56.7361C247.587 56.8899 256.805 56.2744 265.139 59.2729C271.092 61.8869 266.79 59.8113 272.206 66.231C277.583 72.5739 273.857 77.3018 273.857 77.3018C273.857 77.3018 273.051 70.4209 270.862 67.8453C268.672 65.2697 266.79 64.7706 260.722 62.7717C254.923 60.9265 255.076 60.3109 248.816 61.2719C242.517 62.1176 241.134 61.7336 234.759 62.6562C228.422 63.5788 231.763 64.9625 228.806 65.27C225.848 65.5775 217.322 64.8082 217.322 64.8082C214.864 68.1911 212.137 68.9606 210.37 69.3065C209.026 69.8832 204.456 68.4602 206.261 66.7688V66.6918Z" fill="#A06643"/>
<path d="M242.285 116.359C237.753 120.511 237.945 120.318 235.564 122.432C228.228 128.622 227.114 133.697 223.389 136.58C219.625 139.463 218.357 141.115 218.357 141.115C231.608 137.54 242.208 129.006 254.652 123.701C257.609 122.356 262.026 120.587 262.026 120.587C262.026 120.587 262.257 120.55 262.333 120.319C262.333 120.088 262.602 119.473 260.528 114.591C259.76 112.977 260.528 108.286 256.265 108.325" fill="#A06643"/>
<path d="M274.855 85.9895C268.019 95.7537 267.558 99.2906 265.791 100.751C263.295 101.405 262.526 101.635 260.068 102.289C261.489 104.557 262.718 107.133 263.563 109.439C263.871 111.361 263.947 114.668 263.871 116.436C263.896 116.59 263.896 116.666 263.871 116.666C263.871 117.242 263.64 117.665 263.294 119.664C263.141 120.433 266.482 115.858 270.361 104.134C272.551 96.7915 273.05 90.1412 274.855 86.028V85.9895Z" fill="#4D100C"/>
<path d="M159.134 95.4473C161.4 95.4473 164.127 95.8309 164.857 97.4454C165.356 98.5602 164.549 99.5597 165.202 100.29C166.354 101.636 169.811 99.291 171.348 100.752C172.116 101.482 171.463 102.213 172.423 103.673C172.961 104.519 173.767 105.019 175.303 105.98C177.493 107.364 177.915 107.171 179.413 108.286C180.757 109.286 180.45 109.517 181.794 110.478C183.369 111.631 184.022 111.554 185.596 112.592C186.979 113.515 187.747 114.398 188.247 114.975C191.588 118.55 199.653 123.547 200.421 122.663C200.69 122.356 199.769 121.51 196.235 116.244C194.046 113.015 193.163 111.516 192.433 111.708C191.242 112.016 191.895 116.359 190.782 116.628C189.706 116.897 187.44 113.207 188.016 112.592C188.746 111.823 196.85 117.474 203.264 124.739C203.648 125.201 204.109 126.7 205.491 127.43C208.065 128.776 212.213 127.123 212.366 125.546C212.52 123.932 208.372 122.164 208.333 122.241C208.295 122.318 210.331 123.778 210.331 123.778C210.331 123.778 201.92 116.898 201.535 117.32C201.382 117.513 202.803 118.781 202.611 119.05C202.15 119.665 192.894 115.168 188.362 109.594C187.671 108.748 186.441 107.095 184.214 105.826C183.138 105.211 181.64 104.634 180.488 104.173C178.107 103.212 178.222 103.443 177.608 103.059C175.38 101.752 175.879 100.175 173.805 98.5219C172.269 97.3302 172 98.1374 169.312 96.5229C167.737 95.6003 167.507 95.1008 165.394 93.9091C163.512 92.8328 162.706 92.6786 162.245 92.6018C160.862 92.4096 159.672 92.7559 158.942 93.025" fill="#4D100C"/>
<path d="M190.704 77.2635C192.97 77.2635 195.697 77.648 196.427 79.2626C196.926 80.3774 196.12 81.3768 196.773 82.1072C197.925 83.4527 201.381 81.1082 202.918 82.569C203.686 83.2994 203.033 84.0298 203.993 85.4906C204.531 86.3363 205.337 86.8355 206.874 87.7965C209.063 89.1804 209.485 88.9886 210.983 90.1034C212.327 91.1028 212.02 91.3338 213.364 92.2948C214.939 93.448 215.592 93.3713 217.167 94.4093C218.549 95.3319 219.318 96.2155 219.817 96.7922C223.158 100.367 231.224 105.365 231.992 104.48C232.261 104.173 231.339 103.328 227.805 98.061C225.616 94.8319 224.733 93.333 224.003 93.5252C222.812 93.8327 223.465 98.1758 222.352 98.4449C221.276 98.714 219.01 95.0243 219.586 94.4093C220.316 93.6404 228.42 99.291 234.834 106.556C235.218 107.018 235.679 108.517 237.062 109.247C239.635 110.593 243.783 108.94 243.936 107.364C244.09 105.749 239.942 103.981 239.904 104.058C239.865 104.135 241.901 105.595 241.901 105.595C241.901 105.595 233.49 98.7146 233.106 99.1375C232.952 99.3297 234.373 100.598 234.181 100.867C233.72 101.482 224.464 96.9847 219.932 91.4107C219.241 90.565 218.012 88.9121 215.784 87.6435C214.708 87.0285 213.211 86.4512 212.059 85.9899C209.677 85.0288 209.793 85.2603 209.178 84.8758C206.95 83.5688 207.45 81.992 205.376 80.3391C203.839 79.1474 203.57 79.9546 200.882 78.34C199.307 77.4174 199.077 76.9179 196.965 75.7263C195.083 74.6499 194.276 74.4958 193.815 74.4189C192.433 74.2267 191.242 74.5731 190.512 74.8422" fill="#4D100C"/>
<path d="M231.725 68.6906C233.261 68.8828 235.066 69.2292 235.373 70.0749C235.565 70.6515 234.912 71.0739 235.258 71.4583C235.873 72.1887 238.484 71.3052 239.368 72.1124C239.79 72.4969 239.291 72.8424 239.752 73.6112C240.021 74.0725 240.482 74.3805 241.442 74.9571C242.786 75.8028 243.093 75.7254 243.938 76.3789C244.706 76.9556 244.514 77.0327 245.282 77.6093C246.204 78.2628 246.665 78.3016 247.625 78.9167C248.432 79.4549 248.854 79.954 249.123 80.2616C250.967 82.2221 255.806 85.2597 256.459 84.8753C256.689 84.7215 256.152 84.2597 254.385 81.4535C253.271 79.7236 252.887 78.9167 252.349 78.9552C251.504 79.032 251.427 81.1842 250.621 81.2226C249.853 81.261 248.777 79.3012 249.238 79.0706C249.853 78.7246 254.654 82.0684 258.11 86.1048C258.341 86.3738 258.456 87.1047 259.301 87.566C260.876 88.4117 263.91 87.9116 264.179 87.1428C264.486 86.3739 261.874 85.2207 261.836 85.2592C261.797 85.2592 262.988 86.1432 263.026 86.1432C263.026 86.1432 258.149 82.1838 257.841 82.376C257.726 82.4529 258.533 83.1833 258.379 83.2986C257.995 83.5677 252.272 80.6847 249.853 77.6478C249.469 77.1865 248.854 76.3022 247.51 75.5333C246.857 75.1489 245.897 74.7644 245.206 74.4569C243.708 73.8033 243.784 73.9189 243.4 73.6882C242.056 72.8809 242.594 72.1509 241.365 71.1899C240.481 70.4979 240.174 70.882 238.561 69.8825C237.601 69.3059 237.486 69.0756 236.218 68.3452C235.066 67.6917 234.567 67.5381 234.221 67.4996C233.299 67.3074 232.454 67.3843 231.955 67.4996" fill="#4D100C"/>
<path d="M189.358 128.775C187.822 128.544 186.017 128.159 185.748 127.314C185.556 126.737 186.209 126.315 185.902 125.93C185.287 125.2 182.676 126.007 181.831 125.162C181.408 124.739 181.946 124.431 181.485 123.662C181.216 123.201 180.755 122.894 179.833 122.279C178.528 121.433 178.22 121.471 177.375 120.779C176.607 120.164 176.838 120.087 176.07 119.51C175.148 118.818 174.687 118.78 173.765 118.127C172.959 117.55 172.575 117.05 172.267 116.742C170.462 114.743 165.7 111.591 165.047 111.937C164.816 112.052 165.316 112.553 167.044 115.397C168.119 117.166 168.503 117.973 169.041 117.934C169.886 117.896 170.001 115.743 170.808 115.704C171.576 115.704 172.613 117.665 172.152 117.896C171.538 118.203 166.813 114.744 163.434 110.669C163.203 110.4 163.126 109.631 162.281 109.169C160.707 108.285 157.711 108.708 157.404 109.477C157.097 110.246 159.67 111.476 159.708 111.438C159.747 111.438 158.556 110.515 158.556 110.515C158.556 110.515 163.319 114.59 163.664 114.398C163.818 114.321 163.011 113.591 163.165 113.475C163.549 113.245 169.233 116.205 171.538 119.318C171.883 119.78 172.498 120.702 173.842 121.509C174.495 121.893 175.417 122.316 176.147 122.662C177.606 123.316 177.568 123.2 177.952 123.47C179.257 124.315 178.72 125.008 179.949 126.007C180.832 126.738 181.139 126.353 182.752 127.352C183.713 127.929 183.789 128.199 185.057 128.967C186.209 129.659 186.708 129.813 187.016 129.89C187.937 130.121 188.782 130.044 189.282 129.967" fill="#4D100C"/>
<path d="M175.839 83.8764C175.609 84.6068 175.494 85.0674 175.571 85.1059C175.801 85.2212 177.299 81.3389 178.374 81.5311C178.874 81.608 178.758 82.4923 179.642 83.6456C180.794 85.1832 182.599 85.7215 182.599 85.7215C182.599 85.7215 181.332 85.1444 181.293 85.1444C181.293 85.1444 183.367 85.8752 185.134 87.5667C185.403 87.8358 185.403 87.8356 187.362 90.2959C189.09 92.487 189.244 92.6405 189.551 92.8712C191.087 94.0628 193.315 94.5626 193.929 93.8322C194.352 93.3325 193.814 92.4871 194.121 92.2949C194.621 91.9874 196.541 93.5245 197.501 95.6388C197.962 96.7152 197.732 96.8691 198.231 97.6763C199.229 99.2525 200.919 99.8294 201.188 99.9447C202.801 100.483 203.416 99.9445 204.337 100.636C204.914 101.098 204.683 101.29 205.528 102.405C206.488 103.635 207.141 103.827 207.103 104.442C207.103 105.211 205.951 105.711 206.027 105.826C206.143 106.019 208.14 104.289 209.83 104.711C210.982 105.019 211.02 106.018 212.211 107.248C214.285 109.439 216.321 108.44 219.047 110.247C221.89 112.13 222.773 115.283 222.619 115.398C222.35 115.591 219.47 109.478 215.36 109.478C213.747 109.478 211.981 110.401 211.865 111.362C211.712 113.015 216.551 113.553 220.084 117.09C220.238 117.243 221.16 118.166 222.619 118.781C223.311 119.05 224.501 119.55 225.538 119.05C226.076 118.781 226.69 118.165 226.767 117.627C227.113 115.321 218.855 112.323 208.716 107.325C206.872 106.403 204.914 105.404 202.648 103.866C202.033 103.443 200.804 102.559 199.69 101.79C196.886 99.7525 196.81 99.6374 195.965 99.1761C194.198 98.2535 193.737 98.5219 192.431 97.5224C191.471 96.8305 191.548 96.5615 190.396 95.7543C189.474 95.1008 188.629 94.6783 187.746 94.2555C186.017 93.4097 185.825 93.5633 185.326 93.0635C184.404 92.1794 184.75 91.564 183.866 90.8336C182.945 90.0648 182.369 90.526 181.639 89.7572C180.948 89.0652 181.255 88.4123 180.679 87.4512C180.218 86.6824 179.488 86.183 178.682 85.837" fill="#4D100C"/>
<path d="M218.701 77.7631C218.317 77.3787 218.509 76.3026 218.97 76.1488C219.623 75.8797 220.468 77.686 222.619 79.5312C224.847 81.4533 227.535 82.6063 227.881 82.1835C228.265 81.6837 225.307 79.0701 225.615 78.7241C225.845 78.455 227.881 79.6464 229.648 81.2609C231.568 83.0292 233.757 85.8358 233.258 86.4124C232.374 87.4503 224.386 81.1459 224.04 81.6072C223.694 82.0685 232.451 90.6413 236.061 88.6038C237.521 87.7966 238.135 85.2592 238.942 85.4514C239.441 85.5667 239.556 86.528 239.595 86.6818C239.902 88.7192 237.867 89.8334 238.289 90.8713C238.673 91.7939 240.325 91.1794 242.13 92.448C243.781 93.6013 244.473 95.5225 244.511 95.4841C244.549 95.4841 243.628 93.9852 243.781 93.8699C243.973 93.7161 245.241 95.5998 247.507 96.8299C249.273 97.791 251.271 98.1369 251.424 97.791C251.616 97.3681 249.312 96.215 246.355 93.1012C245.202 91.9095 244.626 91.2943 244.78 91.0637C245.241 90.2564 251.117 92.6784 255.035 96.0613C256.187 97.0608 256.955 97.9831 256.724 98.6751C256.494 99.3286 255.457 99.5207 255.15 99.5976C251.078 100.366 244.703 93.3705 242.091 90.449C238.904 86.8739 235.869 82.8754 235.524 83.1445C235.332 83.2983 236.138 84.606 235.869 84.8367C235.524 85.1057 233.949 83.4519 232.336 82.0296C229.033 79.0696 225.653 76.033 222.389 76.5712C220.545 76.8787 219.239 78.2628 218.701 77.7246V77.7631Z" fill="#4D100C"/>
<path d="M253.308 64.5784C252.54 70.114 253.193 71.8438 254.114 72.2667C254.729 72.5358 255.343 72.1509 256.304 72.7275C257.149 73.1888 257.225 73.7269 258.339 74.5726C258.954 75.0339 259.491 75.3029 259.875 75.4567C261.719 76.3024 262.334 75.8797 263.255 76.5716C264.254 77.3405 263.793 78.1096 264.753 78.84C266.136 79.878 268.133 79.1856 268.171 79.3393C268.171 79.4931 266.712 79.9163 266.558 79.6472C266.443 79.3781 268.248 78.7245 268.248 77.6481C268.248 76.764 267.057 76.072 266.52 75.726C264.599 74.6112 263.217 75.1497 262.564 74.1118C262.065 73.3045 262.564 72.382 262.18 72.2282C261.68 72.036 260.989 73.9193 260.106 73.8424C259.146 73.804 259.03 71.6896 257.494 69.8444C256.419 68.5758 255.074 67.9605 254.191 67.6529" fill="#4D100C"/>
<path d="M298.82 148.996L307.731 159.259L309.536 166.371L313.876 172.714L329.779 201.182H385.469H429.637L427.717 160.818L431.557 147.364L427.717 110.844L431.557 95.4676L427.717 83.9351L429.637 55.1039L425.796 51.2598L418.115 53.1818L410.433 58.9481L400.832 87.7792L404.672 105.078L398.911 116.61L385.469 107L304.735 140.308L298.82 148.996Z" fill="white"/>
<path d="M329.779 64.7142L316.447 63.2708L310.878 65.923L307.421 70.1904L306.768 74.15L309.034 80.2616L317.676 89.4497L323.245 91.2563" fill="white"/>
<path d="M320.747 28.6348L324.319 37.7844L331.699 45.4933L336.686 38.2067L340.104 25.7517L339.381 22.4284L335.54 20.5063L325.938 18.5842L322.097 22.4284L320.747 28.6348Z" fill="white"/>
<path d="M335.457 56.7741C334.267 54.852 333.422 53.3912 332.5 51.9689C330.042 48.2401 327.622 44.5107 325.049 40.8588C322.399 37.0915 320.094 33.1323 319.211 28.6346C317.905 21.9458 321.823 16.8717 328.621 17.2561C333.652 17.5636 337.954 19.6782 341.449 23.3686C342.14 24.099 342.601 24.8677 341.756 26.1363C340.949 25.4443 340.028 24.8676 339.336 24.0603C335.957 20.1393 331.501 19.14 326.662 19.486C323.82 19.6782 321.4 23.0223 321.669 25.8669C322.13 30.5953 324.242 34.7473 326.624 38.7068C328.083 41.1286 330.042 43.2422 331.424 45.664C332.999 48.4318 334.266 51.4302 335.572 54.3518C335.803 54.8515 335.534 55.5439 335.457 56.7356V56.7741Z" fill="black"/>
<path d="M389.499 141.999C389.691 142.037 389.883 142.076 390.075 142.153C390.689 140.385 391.342 138.616 391.88 136.809C393.647 131.081 395.759 125.584 399.37 120.702C401.751 117.511 403.594 113.898 404.593 109.977C405.284 107.247 405.668 104.519 404.708 101.828C403.556 98.5217 402.903 95.1767 402.864 91.6786C402.864 91.3326 402.557 90.9874 402.365 90.603C401.712 93.909 401.904 97.1381 402.596 100.252C403.479 104.173 402.634 107.747 401.136 111.246C400.637 112.437 399.907 113.514 399.139 114.897C397.795 113.898 396.719 113.091 395.644 112.284C394.146 114.898 395.99 116.09 397.449 117.281C394.261 125.469 390.997 133.465 389.46 142.037L389.499 141.999Z" fill="white"/>
<path d="M422.758 155.031C425.14 154.916 427.252 152.57 427.559 149.495C425.984 151.302 424.41 153.071 422.758 155.031Z" fill="white"/>
<path d="M424.717 149.764C426.484 149.764 426.483 148.15 427.252 147.343C427.367 147.227 427.098 146.766 426.868 145.958C426.061 147.496 424.947 148.188 424.717 149.764Z" fill="white"/>
<path d="M424.027 94.4853C424.027 94.4853 424.219 94.7923 424.334 94.9461C425.294 94.4848 426.255 94.0616 427.215 93.6003C425.755 92.9852 424.757 93.4858 424.027 94.4853Z" fill="white"/>
<path d="M427.023 97.7913C426.178 97.9194 425.436 98.4444 424.795 99.367C425.986 99.367 426.447 98.5216 427.023 97.7913Z" fill="white"/>
<path d="M389.498 141.999C391.034 133.465 394.298 125.469 397.486 117.243C396.027 116.051 394.183 114.821 395.681 112.245C396.756 113.053 397.87 113.86 399.176 114.859C399.944 113.514 400.674 112.399 401.173 111.207C402.671 107.709 403.516 104.135 402.633 100.214C401.941 97.0998 401.749 93.8707 402.402 90.5647C402.556 90.9107 402.902 91.2558 402.902 91.6402C402.902 95.1384 403.593 98.4834 404.745 101.789C405.705 104.442 405.321 107.209 404.63 109.938C403.593 113.859 401.749 117.473 399.406 120.664C395.758 125.546 393.684 131.082 391.917 136.772C391.38 138.578 390.726 140.346 390.112 142.114C389.92 142.076 389.728 142.037 389.536 141.961L389.498 141.999Z" fill="black"/>
<path d="M422.758 155.031C424.448 153.109 425.984 151.302 427.559 149.495C427.252 152.57 425.14 154.916 422.758 155.031Z" fill="black"/>
<path d="M424.717 149.764C424.909 148.227 426.061 147.496 426.868 145.958C427.098 146.766 427.367 147.227 427.252 147.343C426.483 148.112 426.484 149.726 424.717 149.764Z" fill="black"/>
<path d="M424.027 94.4853C424.757 93.4858 425.755 92.9852 427.215 93.6003C426.255 94.0616 425.294 94.4848 424.334 94.9461C424.219 94.7923 424.142 94.6391 424.027 94.4853Z" fill="black"/>
<path d="M427.023 97.7913C426.447 98.5601 425.986 99.3286 424.795 99.367C425.436 98.4444 426.178 97.9194 427.023 97.7913Z" fill="black"/>
<path d="M352.782 1.49536L414.425 17.9869C417.766 18.8711 419.763 22.3308 418.88 25.6752L380.358 170.023C379.474 173.368 376.018 175.367 372.676 174.482L311.033 157.991C307.692 157.107 305.694 153.648 306.501 150.188L345.023 5.83974C346.022 2.61065 349.44 0.611201 352.82 1.49536H352.782Z" fill="white" stroke="#131718" stroke-width="0.51"/>
<path d="M328.316 157.376L358.043 165.333C358.351 165.41 358.543 165.717 358.466 166.025C358.389 166.332 358.082 166.525 357.775 166.448L328.047 158.491C327.74 158.414 327.548 158.106 327.625 157.799C327.702 157.491 328.009 157.299 328.316 157.376Z" fill="#5E6262"/>
<path d="M378.129 12.7206L386.847 15.065C387.154 15.1419 387.346 15.4492 387.27 15.7567C387.193 16.0642 386.886 16.2568 386.578 16.18L377.86 13.8346C377.553 13.7577 377.361 13.4505 377.437 13.1429C377.514 12.8354 377.821 12.6437 378.129 12.7206Z" fill="#5E6262"/>
<path d="M389.576 17.6026C390.254 17.6026 390.805 17.0516 390.805 16.3722C390.805 15.6929 390.254 15.1418 389.576 15.1418C388.897 15.1418 388.347 15.6929 388.347 16.3722C388.347 17.0516 388.897 17.6026 389.576 17.6026Z" fill="#5E6262"/>
<path d="M373.136 32.5559L374.25 28.3655L371.638 31.0947L371.254 30.9802L370.333 27.3275L369.219 31.5179L368.527 31.3255L369.987 25.9441L370.678 26.1365L371.677 30.1721L374.557 27.1745L375.249 27.3659L373.789 32.7483L373.136 32.5559Z" fill="black"/>
<path d="M378.859 33.4016L378.705 34.0163L375.095 33.0553L376.554 27.6738L380.088 28.6349L379.934 29.2496L377.054 28.481L376.592 30.2491L379.089 30.9033L378.935 31.4795L376.439 30.8263L375.94 32.6714L378.859 33.4401V33.4016Z" fill="black"/>
<path d="M379.089 34.1316L382.699 29.3264L383.237 29.4803L383.967 35.4774L383.275 35.285L383.083 33.5169L380.856 32.9406L379.819 34.3625L379.127 34.1701L379.089 34.1316ZM382.776 30.172L381.125 32.4019L383.083 32.9406L382.814 30.172H382.776Z" fill="black"/>
<path d="M389.073 31.6719L387.23 31.1716L385.962 35.9768L385.309 35.7854L386.577 30.9802L384.771 30.48L384.925 29.8652L389.265 31.0187L389.112 31.6334L389.073 31.6719Z" fill="black"/>
<path d="M392.264 37.0149L392.11 37.6305L388.5 36.6695L389.959 31.2871L393.493 32.2481L393.339 32.8638L390.459 32.0942L389.998 33.8633L392.494 34.5165L392.341 35.0928L389.844 34.4396L389.345 36.2847L392.264 37.0533V37.0149Z" fill="black"/>
<path d="M393.031 37.8604L394.49 32.479L396.756 33.0937C396.987 33.1706 397.179 33.2478 397.371 33.4016C397.563 33.5553 397.678 33.7096 397.755 33.9403C397.87 34.1325 397.909 34.3628 397.947 34.5935C397.985 34.8241 397.947 35.0545 397.909 35.2467C397.87 35.4389 397.793 35.6316 397.678 35.7469C397.563 35.9007 397.486 36.0539 397.332 36.1692C397.179 36.2846 397.025 36.3617 396.871 36.4386C396.718 36.5155 396.526 36.5156 396.334 36.554L397.063 38.9754L396.295 38.783L395.604 36.5156L394.221 36.1308L393.722 38.0528L393.069 37.8604H393.031ZM394.413 35.516L396.027 35.9384C396.027 35.9384 396.295 35.9768 396.449 35.9384C396.603 35.9384 396.679 35.8623 396.795 35.7854C396.91 35.7085 396.987 35.5929 397.063 35.4776C397.14 35.3622 397.217 35.2081 397.255 35.0543C397.294 34.9005 397.294 34.7472 397.255 34.5935C397.217 34.4397 397.217 34.324 397.14 34.1702C397.064 34.0164 397.025 33.9402 396.91 33.8248C396.795 33.748 396.679 33.6709 396.564 33.6324L394.99 33.2092L394.375 35.4391L394.413 35.516Z" fill="black"/>
<path d="M368.182 25.0981C368.412 24.2139 367.913 23.3297 367.029 23.099C366.453 22.9453 365.877 23.0985 365.493 23.5214C364.994 23.0601 364.379 22.7141 363.688 22.5218C361.307 21.9068 358.887 23.3294 358.234 25.7128C357.927 26.8276 358.08 27.9427 358.541 28.9037C358.541 28.5193 358.772 28.0963 359.041 27.7888C359.502 27.3275 360.654 26.4431 359.809 25.6743C360.308 25.9434 360.385 26.3665 360.154 26.8662C359.886 27.4044 359.348 27.8654 359.54 28.519C359.694 29.0956 360.5 29.3649 360.846 28.7883C361.383 28.0579 360.27 27.2504 360.078 28.519C359.77 28.0577 360.078 27.5578 360.5 27.481C361.268 27.3656 361.96 28.2889 361.806 29.0961C362.843 28.6348 362.075 27.9036 361.422 27.2501C360.423 26.2506 360.462 24.9823 361.959 24.5978C361.691 24.7516 360.5 25.5971 361.537 26.289C361.767 25.0974 363.15 23.9448 364.11 24.0985C362.92 24.2139 361.998 25.5591 362.536 26.7123C362.766 27.2121 363.342 27.7123 363.649 28.1736C364.494 29.4037 363.88 30.1721 363.304 30.5565C364.686 30.0183 364.149 28.5193 363.803 27.9042C363.649 27.5583 363.457 27.2506 363.573 26.8277C363.688 26.5202 363.957 26.2515 364.341 26.2515C363.611 26.4437 364.149 27.4428 364.379 27.7888C364.763 28.4423 365.071 28.942 364.994 29.7109C364.955 30.1337 364.763 30.4798 364.533 30.7489C365.531 30.1722 366.3 29.2113 366.607 27.9812C366.76 27.4046 366.799 26.8281 366.722 26.2515C367.375 26.1362 367.836 25.6747 368.028 25.0596L368.182 25.0981ZM366.338 25.7128C365.762 25.559 365.416 24.9436 365.57 24.367C365.608 24.1748 365.723 23.983 365.877 23.8677C366.146 23.637 366.53 23.5214 366.876 23.5983C367.452 23.7521 367.797 24.3675 367.644 24.9442C367.529 25.367 367.221 25.6359 366.837 25.7128C366.684 25.7512 366.53 25.7512 366.338 25.7128Z" fill="#D11F3A"/>
<path d="M311.647 127.237L320.288 133.773L324.628 138.924L325.358 145.536L322.477 150.264L320.058 150.918L311.723 148.957L306.308 145.075L300.974 151.208L295.213 141.598L295.4 134.696L299.587 127.699L304.541 126.238L311.647 127.237Z" fill="white"/>
<path d="M312.496 126.221L311.338 118.532L319.058 123.624L323.974 123.777L328.16 121.202L330.964 116.935L331.387 112.668L329.351 108.478L325.165 102.058L321.363 96.369L317.33 92.7163L311.338 90.8059L304.815 93.5454L300.974 97.3896L299.054 103.156L304.815 114.688L312.496 126.221Z" fill="white"/>
<path d="M317.676 89.4498L322.093 90.9486L327.47 88.7196L330.197 84.9515L331.311 80.2232L330.312 75.495L329.045 72.0356L327.278 68.9986L326.279 67.192L325.588 66.7302L317.676 89.4498Z" fill="white"/>
<path d="M311.529 78.4939C310.761 77.5713 310.646 76.3802 310.876 75.2654C311.376 72.9973 312.528 70.9976 314.563 69.7291C317.329 68.0376 319.902 69.1908 322.283 70.6131C323.243 71.1898 324.472 71.8435 324.857 73.7271C323.589 72.8814 322.706 72.151 321.707 71.7281C320.286 71.113 318.827 70.5368 317.329 70.2293C316.676 70.0755 315.754 70.4212 315.139 70.844C313.065 72.151 311.99 74.073 311.952 76.5333C311.952 77.1484 311.99 77.7634 312.028 78.3784C311.875 78.4169 311.683 78.4555 311.529 78.5323V78.4939Z" fill="black"/>
<path d="M332.118 185.207C335.497 184.746 338.224 182.901 341.105 181.363C345.56 178.98 350.13 176.75 354.931 174.713C354.547 175.097 354.24 175.559 353.779 175.789C349.286 178.211 344.83 180.632 340.26 182.939C338.186 183.977 335.92 184.746 333.731 185.554C333.27 185.746 332.693 185.708 332.194 185.785C332.194 185.592 332.118 185.4 332.079 185.207H332.118Z" fill="black"/>
<path d="M312.49 107.363C311.453 103.596 315.831 100.636 318.865 102.135C322.015 103.673 324.55 105.941 326.431 108.901C326.508 108.978 326.432 109.17 326.355 109.554C325.049 108.286 323.858 107.017 322.591 105.903C321.477 104.941 320.286 104.018 318.981 103.326C316.714 102.135 314.449 103.019 313.373 105.325C313.066 106.017 312.759 106.709 312.49 107.401V107.363Z" fill="black"/>
<path d="M319.98 138.501C319.328 138.155 318.713 137.771 318.06 137.425C316.677 136.694 315.372 135.733 313.912 135.272C310.955 134.349 309.495 135.464 309.265 138.501C308.113 136.425 309.111 134.234 311.493 134.041C315.103 133.734 317.83 135.579 320.365 137.77C320.249 138.001 320.096 138.271 319.98 138.501Z" fill="black"/>
<path d="M324.361 74.8033C319.137 75.7643 314.989 77.5713 314.452 83.645C313.338 82.0689 313.722 80.5693 314.528 79.4161C316.679 76.187 319.829 74.4577 323.708 74.2271C323.823 74.2271 323.938 74.4189 324.361 74.8033Z" fill="black"/>
<path d="M316.217 117.012C317.215 112.63 322.324 109.708 326.856 110.938C325.089 111.323 323.745 111.438 322.554 111.899C321.287 112.399 320.019 113.13 318.982 113.975C317.945 114.821 317.139 115.974 316.255 117.012H316.217Z" fill="black"/>
<path d="M325.358 168.024C323.437 171.215 319.981 173.329 317.484 172.868C320.134 171.253 322.516 169.792 325.358 168.024Z" fill="black"/>
<path d="M315.717 146.343C315.294 142.961 318.29 139.654 321.9 139.501C319.096 141.269 316.6 142.768 315.717 146.343Z" fill="black"/>
<path d="M307.229 97.676C306.769 99.0984 305.924 99.9443 304.81 100.79C304.81 98.7911 305.117 98.3295 307.229 97.676Z" fill="black"/>
<path d="M312.953 110.477C313.529 111.938 314.105 113.399 314.796 115.167C313.183 113.937 312.722 112.861 312.953 110.477Z" fill="black"/>
<path d="M314.218 145.383C313.028 144.844 312.336 143.845 312.106 142.384C312.989 143.23 313.834 144.037 314.718 144.882C314.564 145.075 314.372 145.229 314.218 145.421V145.383Z" fill="black"/>
<path d="M304.081 132.851C303.621 133.85 303.198 134.849 302.737 135.848C302.583 135.771 302.391 135.695 302.238 135.657C302.66 134.657 303.044 133.619 303.467 132.62C303.659 132.697 303.851 132.774 304.081 132.889V132.851Z" fill="black"/>
<path d="M301.968 147.496C302.237 146.343 302.813 145.92 303.888 145.843C303.927 147.227 303.312 147.611 301.968 147.496Z" fill="black"/>
<g style="mix-blend-mode:multiply">
<path d="M331.847 114.206C331.847 114.206 332.461 123.509 326.7 126.969C320.939 130.428 315.831 126.584 315.831 126.584L314.18 125.201L315.178 121.432C315.178 121.432 316.331 122.586 318.789 123.431C321.285 124.277 326.24 122.356 326.24 122.356C326.24 122.356 330.925 117.127 330.695 116.704C330.464 116.281 331.809 114.206 331.809 114.206H331.847Z" fill="black"/>
</g>
<g style="mix-blend-mode:multiply">
<path d="M325.819 144.767C326.012 147.458 325.704 152.685 322.824 154.3C319.943 155.915 315.45 154.685 312.838 153.531C310.226 152.378 307.346 150.764 307.346 150.764L308.421 146.727L314.413 149.726L319.79 150.802C319.79 150.802 323.515 148.534 323.515 148.073C323.515 147.612 325.819 144.767 325.819 144.767Z" fill="black"/>
</g>
<g style="mix-blend-mode:multiply">
<path d="M331.58 78.3779C331.58 78.3779 333.078 84.1443 330.428 90.0258C327.777 95.9074 326.049 95.9079 324.628 96.3308C323.207 96.7536 321.939 96.3308 321.939 96.3308L323.284 91.2947L327.125 89.5265L329.967 84.8368L331.618 78.4164L331.58 78.3779Z" fill="black"/>
</g>
<g style="mix-blend-mode:multiply">
<path d="M312.568 123.624L309.496 115.782L309.841 115.398L313.567 119.741L312.568 123.624Z" fill="black"/>
</g>
<g style="mix-blend-mode:multiply">
<path d="M320.173 95.1775L316.524 91.0255L317.33 89.9875L321.171 91.2949L320.173 95.1775Z" fill="black"/>
</g>
<g style="mix-blend-mode:multiply">
<path d="M305.614 149.687L304.424 143.422L304.77 142.999L306.613 145.766L305.614 149.687Z" fill="black"/>
</g>
<g style="mix-blend-mode:multiply">
<path d="M332.809 48.5088L328.046 42.2818C328.046 42.2818 331.004 42.82 332.578 42.2818C334.153 41.7052 334.96 40.7051 334.96 40.7051L332.809 48.5473V48.5088Z" fill="black"/>
</g>
<path d="M430.055 184.13C429.825 179.902 430.055 175.635 429.863 171.406C429.633 166.524 429.863 161.681 430.67 156.837C431.553 151.609 431.63 146.342 431.284 141.076C430.939 135.425 430.401 129.813 429.786 124.162C429.057 117.358 429.441 110.669 431.323 104.057C432.552 99.8286 432.475 95.7145 430.631 91.6397C428.25 86.3732 427.597 80.7999 428.327 75.0721C429.018 69.6134 429.71 64.1547 430.286 58.696C430.439 57.1583 430.286 55.5439 429.978 54.0447C429.594 52.0457 428.288 50.7771 426.33 50.1236C424.64 49.5854 422.95 49.5082 421.222 49.8158C414.846 50.8537 410.737 56.3505 409.2 62.0014C409.123 62.2705 409.354 62.6168 409.546 63.2318C410.122 62.3861 410.468 61.771 410.89 61.2328C412.465 59.1954 413.655 56.8504 415.96 55.4281C419.186 53.3907 422.835 53.5442 426.407 53.2751C426.944 53.2367 427.52 53.8134 428.365 54.3131C427.482 54.7744 427.059 55.1204 426.56 55.3126C423.987 56.2737 422.911 58.234 422.527 60.8865C422.066 64.1156 422.028 67.3063 422.335 70.5353C422.566 72.8418 422.95 75.1486 424.601 77.5705C424.563 76.7632 424.601 76.4947 424.486 76.2256C423.334 72.5736 423.065 68.8057 423.065 65.0385C423.065 63.1548 423.372 61.2713 423.756 59.4261C424.217 57.0428 426.138 56.2353 428.596 55.3511C428.365 58.1574 428.212 60.4636 427.943 62.8086C427.405 67.7291 426.061 72.5346 426.33 77.532C426.33 77.6857 426.368 77.9168 426.291 77.9937C424.985 78.9932 425.984 80.0689 426.176 81.1068C426.368 82.1063 426.714 83.1058 426.79 84.1053C426.983 87.5266 427.828 90.7559 429.134 93.9081C429.902 95.6764 429.978 97.5598 429.633 99.4435C429.402 100.75 429.018 102.058 428.749 103.365C427.559 108.67 426.906 114.051 427.29 119.51C427.866 127.89 428.519 136.271 429.095 144.651C429.326 147.803 429.057 150.917 428.288 153.993C427.405 157.568 426.867 161.258 427.021 164.987C427.213 169.061 427.443 173.136 427.52 177.249C427.712 185.322 427.789 193.395 428.519 201.468H431.284C430.747 195.701 430.247 189.974 429.94 184.207L430.055 184.13Z" fill="black"/>
<path d="M324.167 189.781C324.167 189.781 324.167 189.474 324.167 189.243C324.59 188.936 325.05 188.59 325.78 188.09C324.359 187.859 323.092 188.244 322.4 186.86C320.518 183.054 318.559 179.325 316.601 175.558C315.986 174.366 315.41 173.175 314.719 172.06C312.722 168.87 310.648 165.717 308.651 162.527C308.267 161.912 308.113 161.143 307.844 160.412C308.535 160.297 308.919 160.22 309.419 160.143C308.804 159.489 308.343 158.99 307.921 158.49C306.269 156.607 304.656 154.685 303.005 152.801C300.47 149.995 298.127 147.035 296.706 143.498C295.976 141.692 295.17 139.807 295.592 137.808C296.283 134.618 297.628 131.696 299.932 129.313C301.468 127.698 303.274 126.776 305.616 127.122C312.875 128.16 318.483 131.889 322.708 137.732C324.628 140.385 324.858 143.459 323.668 146.496C322.669 149.033 320.979 150.264 318.636 149.841C314.258 149.072 310.11 147.765 306.807 144.535C306.154 143.92 305.386 143.421 304.656 142.883C304.541 143.075 304.464 143.229 304.349 143.421C308.228 148.227 313.336 150.802 319.328 151.801C320.787 152.032 322.285 151.801 323.284 150.725C325.05 148.726 326.664 146.496 326.395 143.613C326.164 140.807 325.204 138.154 323.399 136.04C321.517 133.849 319.328 131.927 317.177 129.967C315.103 128.083 312.914 126.276 311.454 123.777C310.609 122.355 309.496 121.125 308.612 119.741C306.154 115.82 303.35 112.091 301.737 107.671C300.431 104.019 299.779 100.443 302.39 96.9452C306.538 91.4097 315.41 89.2958 320.634 96.4075C323.745 100.674 326.356 105.21 329.313 109.554C331.272 112.36 330.888 115.128 329.313 117.973C327.009 122.163 321.094 124.046 317.1 121.74C314.719 120.394 313.029 118.358 311.109 116.512C310.686 116.089 310.225 115.705 309.764 115.282L309.38 115.704C311.262 117.78 313.067 119.933 315.065 121.932C316.831 123.701 319.136 124.7 321.632 124.623C325.895 124.469 329.122 122.432 331.119 118.626C333.116 114.82 332.655 111.246 329.928 107.901C328.43 106.095 327.086 104.134 325.857 102.135C323.476 98.2526 321.286 94.2161 317.638 91.3329C317.561 91.2561 317.561 91.0632 317.484 90.6788C318.368 91.0632 319.097 91.4093 319.865 91.7553C321.786 92.5625 323.706 92.5624 325.55 91.6398C330.043 89.3718 332.809 83.4521 331.772 78.5316C331.003 74.8028 329.505 71.3431 327.624 68.0756C327.239 67.3837 326.855 66.576 325.511 66.7298C325.934 67.4986 326.241 68.1137 326.625 68.6903C328.392 71.4966 329.966 74.3801 330.389 77.763C330.888 81.7609 329.966 85.2209 326.471 87.6812C323.053 90.103 319.827 90.1027 316.562 87.4118C312.914 84.4134 310.417 80.4919 308.305 76.3786C307.383 74.6103 307.498 72.3423 308.497 70.6509C310.878 66.6145 314.642 63.27 320.173 63.8082C322.247 64.0004 324.321 64.6158 326.356 65.1155C326.894 65.2309 327.432 65.4235 327.931 65.5773L328.315 64.0391C325.857 63.3087 323.399 62.6169 320.902 62.2709C315.064 61.4636 310.571 64.0774 307.268 68.7673C306.615 69.6899 306.116 70.9204 306.077 72.0352C305.962 74.5723 306.346 77.0322 307.729 79.3002C309.726 82.5293 311.723 85.6818 314.642 88.1805C315.18 88.6418 315.756 89.1029 315.257 89.9486C315.103 89.9871 314.988 90.1025 314.834 90.1025C314.45 90.1025 314.066 90.1025 313.644 90.0256C309.803 89.4874 306.423 90.3715 303.312 92.8702C299.779 95.6765 297.397 101.25 299.241 106.171C300.816 110.399 302.505 114.513 305.347 118.088C306.961 120.126 308.305 122.316 309.764 124.469C309.956 124.777 310.033 125.162 310.302 125.93C308.881 125.623 307.844 125.392 306.807 125.162C302.352 124.278 299.01 125.699 296.514 129.544C296.207 130.005 295.899 130.467 295.631 130.928C292.558 136.079 292.865 143.036 296.552 147.572C299.164 150.802 302.083 153.762 304.81 156.914C305.232 157.414 305.616 158.029 305.732 158.644C306.615 162.527 308.19 166.064 310.34 169.446C311.992 172.022 313.759 174.558 314.949 177.365C318.636 185.976 323.476 193.856 328.814 201.468H332.156C329.16 197.816 326.471 193.933 324.052 189.82L324.167 189.781Z" fill="black"/>
<path d="M365.802 103.634C381.562 103.634 394.338 90.8469 394.338 75.0725C394.338 59.2981 381.562 46.5098 365.802 46.5098C350.041 46.5098 337.265 59.2981 337.265 75.0725C337.265 90.8469 350.041 103.634 365.802 103.634Z" fill="#6DC066"/>
<path d="M355.356 72.2664L353.205 71.6893L352.399 74.7648L351.784 74.6109L353.743 67.1919L356.163 67.8066C356.969 67.9988 357.507 68.3834 357.853 68.8831C358.198 69.3828 358.275 69.9593 358.083 70.6513C357.968 71.1126 357.699 71.4972 357.353 71.8047C357.008 72.1122 356.547 72.2664 356.047 72.2664L357.084 75.9182V75.9952L356.393 75.8028L355.433 72.228L355.356 72.2664ZM353.359 71.1515L355.279 71.6508C355.817 71.8045 356.278 71.766 356.662 71.5353C357.046 71.3047 357.315 70.9586 357.43 70.4973C357.584 69.9592 357.507 69.5369 357.238 69.1525C356.969 68.768 356.547 68.4991 355.97 68.3453L354.204 67.8836L353.359 71.1515Z" fill="white"/>
<path d="M360.387 76.9943C359.927 76.8789 359.543 76.6476 359.197 76.3016C358.851 75.9557 358.659 75.572 358.582 75.1107C358.506 74.6494 358.505 74.1491 358.621 73.6494V73.4185C358.813 72.8803 359.043 72.4581 359.35 72.0736C359.658 71.6892 360.042 71.4588 360.464 71.305C360.887 71.1512 361.309 71.1512 361.732 71.2665C362.385 71.4587 362.884 71.8048 363.153 72.3815C363.421 72.9581 363.46 73.6108 363.23 74.418L363.153 74.7644L359.235 73.7264V73.8418C359.043 74.4569 359.081 75.0333 359.312 75.533C359.542 76.0327 359.965 76.3787 360.503 76.494C360.81 76.5709 361.117 76.6094 361.425 76.5325C361.732 76.4556 362.001 76.3409 362.269 76.1487L362.577 76.5325C361.962 77.0707 361.232 77.2249 360.387 76.9943ZM361.617 71.7658C361.156 71.6505 360.733 71.7276 360.311 71.9582C359.888 72.1888 359.581 72.6119 359.389 73.1501L362.692 74.0342V73.9572C362.845 73.4191 362.807 72.9573 362.615 72.5344C362.423 72.1116 362.077 71.8811 361.617 71.7273V71.7658Z" fill="white"/>
<path d="M367.111 78.6474C367.111 78.6474 367.111 78.1862 367.187 77.8403C366.919 78.0709 366.573 78.2241 366.189 78.2626C365.805 78.301 365.459 78.301 365.075 78.2241C364.537 78.0703 364.153 77.8399 363.923 77.4555C363.692 77.0711 363.615 76.6488 363.731 76.1875C363.884 75.6494 364.192 75.3032 364.729 75.0726C365.267 74.8419 365.92 74.8804 366.727 75.0726L367.84 75.3795L367.994 74.7647C368.109 74.3803 368.071 74.0343 367.879 73.7267C367.687 73.4192 367.379 73.2273 366.919 73.112C366.496 72.9967 366.112 73.0352 365.766 73.1505C365.421 73.2658 365.229 73.5347 365.152 73.8422L364.537 73.6883C364.653 73.2654 364.96 72.9194 365.459 72.7272C365.958 72.535 366.496 72.4965 367.072 72.6503C367.648 72.804 368.148 73.1115 368.416 73.4959C368.685 73.8803 368.762 74.3805 368.608 74.9187L367.917 77.5324C367.764 78.0706 367.725 78.4937 367.763 78.7628V78.8398L367.111 78.6859V78.6474ZM365.344 77.7248C365.766 77.8401 366.15 77.8401 366.496 77.7248C366.842 77.6095 367.187 77.4176 367.418 77.1101L367.725 75.8797L366.65 75.6103C366.035 75.4566 365.536 75.4565 365.152 75.5719C364.768 75.6872 364.499 75.9561 364.422 76.3405C364.345 76.648 364.422 76.918 364.576 77.1871C364.729 77.4561 365.036 77.6479 365.382 77.7248H365.344Z" fill="white"/>
<path d="M369.72 76.3405C369.951 75.4948 370.296 74.8413 370.834 74.4569C371.372 74.0725 371.948 73.9193 372.601 74.1115C373.331 74.3037 373.83 74.7645 374.06 75.4564L374.867 72.3818L375.481 72.5348L373.408 80.3386L372.831 80.1846L372.985 79.4545C372.447 79.9158 371.795 80.0315 371.065 79.8393C370.412 79.6855 369.989 79.3009 369.72 78.6858C369.452 78.0708 369.452 77.3401 369.682 76.4559V76.379L369.72 76.3405ZM370.297 76.6098C370.105 77.3018 370.105 77.9167 370.297 78.378C370.489 78.8393 370.834 79.1468 371.333 79.3006C372.102 79.4928 372.716 79.3009 373.177 78.7243L373.868 76.149C373.753 75.3418 373.292 74.8415 372.562 74.6493C372.063 74.4955 371.602 74.6111 371.218 74.9571C370.834 75.3031 370.527 75.841 370.335 76.6098H370.297Z" fill="white"/>
<path d="M376.98 80.3387L379.822 76.1107L380.475 76.2637L376.443 82.1069L376.251 82.3762C375.79 82.9528 375.214 83.1832 374.599 83.0294C374.445 83.0294 374.292 82.9149 374.138 82.838L374.253 82.3377L374.561 82.4532C374.868 82.5301 375.137 82.5301 375.329 82.4532C375.521 82.3763 375.79 82.1459 375.982 81.8L376.443 81.1458L375.79 75.1497L376.443 75.3411L376.942 80.4157L376.98 80.3387Z" fill="white"/>
<g filter="url(#filter0_d_6691_15932)">
<rect width="104.054" height="125.872" transform="matrix(0.988171 -0.153357 0.153072 0.988215 12.3765 55.4597)" fill="#C4C4C4"/>
</g>
<path d="M29.6468 171.363L134.307 155.12L135.827 164.93L31.167 181.173L29.6468 171.363Z" fill="#F4CE89"/>
<path d="M11.4533 54.4084L116.113 38.1653L117.781 48.8697L13.1098 65.1094L11.4533 54.4084Z" fill="#F4CE89"/>
<path d="M12.9747 64.2617L117.646 48.022L117.929 49.894L13.3033 66.147L12.9747 64.2617Z" fill="#F8F7F7"/>
<path d="M12.9289 63.988L117.6 47.7483L117.654 48.0725L12.9828 64.3123L12.9289 63.988Z" fill="white"/>
<path d="M13.3357 66.0302L117.996 49.7872L134.31 155.109L29.6503 171.352L13.3357 66.0302Z" fill="#D8AE6C"/>
<path d="M117.928 49.7675L67.3638 57.6163L80.5049 142.415L131.039 134.545L117.928 49.7675Z" fill="#F4CE89"/>
<path d="M13.1989 65.6963L117.859 49.4532L117.909 49.7889L13.2382 66.0286L13.1989 65.6963Z" fill="#D8D8D8"/>
<path d="M31.7051 169.507L80.991 161.937L81.2174 163.413L31.9314 170.983L31.7051 169.507Z" fill="#D9D9D9"/>
<path d="M67.9415 162.872L57.1782 164.545L57.5663 166.991L68.3151 165.326L67.9415 162.872Z" fill="#DBDBDB"/>
<path d="M67.9976 163.318L57.2488 164.983L57.3391 165.564L68.0912 163.888L67.9976 163.318Z" fill="#F2F2F2"/>
<path d="M80.8878 160.86L70.1357 162.537L70.5126 164.979L81.2614 163.314L80.8878 160.86Z" fill="#DBDBDB"/>
<path d="M80.9533 161.314L70.2045 162.978L70.2947 163.56L81.0468 161.884L80.9533 161.314Z" fill="#F2F2F2"/>
<path d="M55.1099 164.865L44.3611 166.53L44.7347 168.984L55.4868 167.308L55.1099 164.865Z" fill="#DBDBDB"/>
<path d="M55.1805 165.305L44.4057 166.975L44.4993 167.545L55.2481 165.88L55.1805 165.305Z" fill="#F2F2F2"/>
<path d="M42.243 166.858L31.4796 168.531L31.8677 170.977L42.6166 169.312L42.243 166.858Z" fill="#DBDBDB"/>
<path d="M42.3089 167.311L31.5568 168.987L31.639 169.554L42.3992 167.893L42.3089 167.311Z" fill="#F2F2F2"/>
<path d="M81.16 162.901L31.755 170.559L31.8231 170.961L81.2202 163.289L81.16 162.901Z" fill="#969696"/>
<path d="M81.1423 162.588L31.7453 170.26L31.8055 170.648L81.2105 162.99L81.1423 162.588Z" fill="#C4C4C4"/>
<path d="M67.4339 58.094L13.3271 66.4849L13.4523 67.2865L67.5591 58.8956L67.4339 58.094Z" fill="#BA9563"/>
<path d="M67.359 57.6286L13.2635 66.0229L13.3773 66.8212L67.4873 58.4189L67.359 57.6286Z" fill="#AD885A"/>
<path d="M131.128 135.041L79.3077 143.077L79.4328 143.879L131.253 135.843L131.128 135.041Z" fill="#BA9563"/>
<path d="M80.5753 142.881L67.0011 58.6224L66.2158 58.7503L79.3476 143.071L80.5753 142.881Z" fill="#BA9563"/>
<path d="M80.5853 142.946L67.457 58.1873L66.6605 58.3119L79.7888 143.07L80.5853 142.946Z" fill="#AD885A"/>
<path d="M131.039 134.542L79.6668 142.512L79.7952 143.303L131.164 135.344L131.039 134.542Z" fill="#AD885A"/>
<path d="M87.1863 135.489C87.0157 135.523 86.8402 135.526 86.6684 135.498C86.494 135.457 86.3275 135.387 86.1756 135.292C86.0326 135.191 85.9109 135.063 85.8176 134.915C85.7194 134.766 85.6508 134.599 85.6154 134.424L74.6565 63.2317C74.6208 62.9777 74.657 62.7189 74.761 62.4849C74.5948 62.6329 74.4688 62.8211 74.395 63.0317C74.3192 63.2424 74.2961 63.4688 74.3281 63.6907L85.365 134.783C85.3922 134.955 85.4532 135.119 85.5446 135.267C85.6365 135.419 85.7569 135.55 85.8992 135.655C86.0377 135.759 86.1972 135.831 86.3662 135.866C86.5318 135.911 86.7052 135.92 86.8743 135.891L122.092 130.421C122.31 130.388 122.517 130.3 122.693 130.165C122.876 130.034 123.017 129.853 123.101 129.643C122.915 129.816 122.682 129.928 122.431 129.966L87.1863 135.489Z" fill="#F7DBAD"/>
<path d="M13.998 67.1403L13.5496 67.2064L29.4101 170.652L29.8731 170.578L13.998 67.1403Z" fill="#D1AB6F"/>
<path d="M29.8731 170.578L29.4101 170.652L31.0435 181.137L31.492 181.071L29.8731 170.578Z" fill="#D1AB6F"/>
<path d="M60.0992 176.698L60.036 176.236L31.0211 180.745L31.0875 181.197L60.0992 176.698Z" fill="#D1AB6F"/>
<path d="M135.791 164.931L135.713 164.477L60.036 176.236L60.0992 176.698L135.791 164.931Z" fill="#D1AB6F"/>
<path d="M116.137 38.1722L115.674 38.2463L130.615 134.652L131.067 134.575L116.137 38.1722Z" fill="#F7DBAD"/>
<path d="M116.194 38.6112L116.127 38.1599L11.4563 54.3996L11.534 54.8542L116.194 38.6112Z" fill="#F7DBAD"/>
<path d="M133.912 152.956L133.452 153.019L135.242 164.536L135.69 164.47L133.912 152.956Z" fill="#F7DBAD"/>
<path d="M131.039 134.542L130.591 134.609L133.764 155.131L134.212 155.065L131.039 134.542Z" fill="#E2BB88"/>
<path d="M32.3738 148.984L20.7444 73.8527C20.3382 70.3589 20.3283 66.8342 20.7149 63.3557C20.4329 63.4025 18.9321 69.8926 19.5702 74.0376L31.1562 149.155L32.8658 166.936L33.0621 168.246L34.2887 168.041L32.3738 148.984Z" fill="#BA9563"/>
<path d="M32.7828 148.899L21.1473 73.7916C20.7105 70.3104 20.5973 66.7986 20.8095 63.308C20.5353 63.3698 19.4181 69.7833 20.0531 73.9398L31.6547 149.087L33.3457 166.85L33.5312 168.156L34.7578 167.951L32.7828 148.899Z" fill="#AD885A"/>
<path d="M23.7736 70.5712C23.1765 66.7445 21.1234 63.2611 20.8114 63.309C20.5139 63.3547 19.5823 67.2965 20.1591 71.1264L31.0763 142.331L34.7709 141.764L23.7736 70.5712Z" fill="#C7C8C9"/>
<path d="M31.6787 142.239L20.9874 71.5728C20.3665 67.4665 20.6067 63.6909 20.7604 63.3328L20.7519 63.3341C20.4201 63.3948 19.8225 67.5341 20.4434 71.6404L31.2771 142.3L31.6787 142.239Z" fill="#7F7F7F"/>
<path d="M33.8117 141.911L22.9322 70.9525C22.3302 67.122 21.1406 63.5769 20.7702 63.3153L20.7845 63.3131C21.1547 63.573 22.8078 67.0487 23.4098 70.8791L34.2893 141.838L33.8117 141.911Z" fill="white"/>
<path d="M32.1808 142.161L21.1531 71.3145C20.5612 67.4542 20.6578 63.655 20.8104 63.3092C20.5413 63.5654 20.0843 67.5006 20.6722 71.3902L31.6787 142.239L32.1808 142.161Z" fill="#D8D8D8"/>
<path d="M30.6762 139.722L30.9944 141.797L34.6893 141.23L34.3712 139.155" fill="#303030"/>
<path d="M33.8893 139.229L34.2074 141.304L33.7326 141.377L33.4146 139.302" fill="#5B5B5B"/>
<path d="M30.8077 139.702L31.1251 141.773L32.0533 141.63L31.7358 139.56" fill="#1D1D1B"/>
<path d="M33.8069 166.843L31.0763 142.331L34.2893 141.838L39.028 166.042L33.8069 166.843Z" fill="#C8C8C9"/>
<path d="M33.8069 166.843L31.6787 142.239L31.2771 142.3L33.8069 166.843Z" fill="#7F7F80"/>
<path d="M34.7712 141.763L39.4296 165.98L34.2893 141.838L34.7712 141.763Z" fill="#D8D8D8"/>
<path d="M33.8069 166.843L31.6787 142.239L32.1808 142.161L33.8069 166.843Z" fill="#E3E3E4"/>
<path d="M39.4296 165.98L34.2893 141.838L33.6868 141.93L39.4296 165.98Z" fill="white"/>
<path d="M33.8069 166.843L32.1808 142.161L33.8108 141.911L39.4296 165.98L33.8069 166.843Z" fill="#BEBDBE"/>
<path d="M39.6227 167.24L39.4296 165.98L33.8072 166.845L34.008 168.102L39.6227 167.24Z" fill="#DDDDDD"/>
<path d="M30.5807 114.426L30.5552 114.26L26.7934 114.838L26.8189 115.004L30.5807 114.426Z" fill="#F2F2F2"/>
<path d="M31.2791 139.632L31.5982 141.714L32.1003 141.636L31.7756 139.555" fill="#333333"/>
<path d="M30.5973 114.529L30.5815 114.426L26.8171 115.004L26.833 115.107L30.5973 114.529Z" fill="#7F7F7F"/>
<path d="M45.1828 147.016L33.5535 71.8846C33.1472 68.3909 33.1374 64.8662 33.524 61.3877C33.242 61.4345 31.7412 67.9246 32.3792 72.0696L43.9653 147.187L45.6749 164.968L45.8712 166.278L47.0977 166.073L45.1828 147.016Z" fill="#BA9563"/>
<path d="M45.5918 146.931L33.9564 71.8236C33.5196 68.3424 33.4064 64.8306 33.6186 61.34C33.3444 61.4018 32.2271 67.8152 32.8621 71.9718L44.4638 147.119L46.1548 164.882L46.3403 166.188L47.5669 165.983L45.5918 146.931Z" fill="#AD885A"/>
<path d="M36.5822 68.6039C35.9851 64.7772 33.932 61.2938 33.62 61.3417C33.3225 61.3874 32.3909 65.3292 32.9677 69.1591L43.8849 140.364L47.5795 139.796L36.5822 68.6039Z" fill="#C7C8C9"/>
<path d="M44.4873 140.271L33.7959 69.6055C33.1751 65.4993 33.4153 61.7237 33.569 61.3656L33.5605 61.3669C33.2287 61.4275 32.6311 65.5668 33.252 69.6731L44.0857 140.333L44.4873 140.271Z" fill="#7F7F7F"/>
<path d="M46.6203 139.944L35.7408 68.9852C35.1388 65.1548 33.9492 61.6096 33.5788 61.348L33.5931 61.3458C33.9633 61.6057 35.6164 65.0814 36.2184 68.9118L47.0979 139.87L46.6203 139.944Z" fill="white"/>
<path d="M44.9893 140.194L33.9617 69.3473C33.3698 65.487 33.4664 61.6877 33.619 61.3419C33.3499 61.5981 32.8929 65.5333 33.4808 69.423L44.4873 140.271L44.9893 140.194Z" fill="#D8D8D8"/>
<path d="M43.4848 137.755L43.803 139.83L47.4979 139.262L47.1798 137.188" fill="#303030"/>
<path d="M46.6979 137.262L47.016 139.336L46.5412 139.409L46.2231 137.335" fill="#5B5B5B"/>
<path d="M43.6163 137.735L43.9337 139.806L44.8619 139.663L44.5444 137.593" fill="#1D1D1B"/>
<path d="M46.6155 164.876L43.8849 140.364L47.0979 139.87L51.8365 164.074L46.6155 164.876Z" fill="#C8C8C9"/>
<path d="M46.6155 164.876L44.4873 140.271L44.0857 140.333L46.6155 164.876Z" fill="#7F7F80"/>
<path d="M47.5798 139.796L52.2382 164.013L47.0979 139.87L47.5798 139.796Z" fill="#D8D8D8"/>
<path d="M46.6155 164.876L44.4873 140.271L44.9893 140.194L46.6155 164.876Z" fill="#E3E3E4"/>
<path d="M52.2382 164.013L47.0979 139.87L46.4954 139.963L52.2382 164.013Z" fill="white"/>
<path d="M46.6155 164.876L44.9893 140.194L46.6194 139.944L52.2382 164.013L46.6155 164.876Z" fill="#BEBDBE"/>
<path d="M52.4313 165.272L52.2382 164.013L46.6158 164.878L46.8166 166.135L52.4313 165.272Z" fill="#DDDDDD"/>
<path d="M43.3893 112.459L43.3638 112.293L39.602 112.871L39.6275 113.037L43.3893 112.459Z" fill="#F2F2F2"/>
<path d="M44.0876 137.664L44.4068 139.746L44.9089 139.669L44.5842 137.588" fill="#333333"/>
<path d="M43.4059 112.562L43.3901 112.458L39.6257 113.037L39.6416 113.14L43.4059 112.562Z" fill="#7F7F7F"/>
<path d="M57.9914 145.05L46.362 69.9193C45.9558 66.4256 45.946 62.9009 46.3326 59.4224C46.0506 59.4692 44.5498 65.9592 45.1878 70.1043L56.7739 145.221L58.4835 163.003L58.6798 164.313L59.9063 164.107L57.9914 145.05Z" fill="#BA9563"/>
<path d="M58.4004 144.966L46.765 69.8582C46.3282 66.377 46.215 62.8653 46.4272 59.3747C46.153 59.4365 45.0357 65.8499 45.6707 70.0064L57.2724 145.153L58.9634 162.917L59.1489 164.223L60.3754 164.017L58.4004 144.966Z" fill="#AD885A"/>
<path d="M49.3898 66.6367C48.7927 62.8099 46.7396 59.3265 46.4276 59.3744C46.1301 59.4201 45.1985 63.3619 45.7753 67.1918L56.6925 138.396L60.3871 137.829L49.3898 66.6367Z" fill="#C7C8C9"/>
<path d="M57.2949 138.304L46.6036 67.6382C45.9827 63.532 46.2229 59.7564 46.3766 59.3983L46.3681 59.3996C46.0363 59.4602 45.4388 63.5996 46.0596 67.7058L56.8933 138.366L57.2949 138.304Z" fill="#7F7F7F"/>
<path d="M59.4279 137.976L48.5484 67.0179C47.9464 63.1875 46.7568 59.6424 46.3864 59.3808L46.4007 59.3786C46.7709 59.6384 48.4241 63.1141 49.026 66.9446L59.9055 137.903L59.4279 137.976Z" fill="white"/>
<path d="M57.797 138.227L46.7693 67.38C46.1774 63.5197 46.2741 59.7204 46.4266 59.3746C46.1576 59.6308 45.7005 63.566 46.2884 67.4557L57.2949 138.304L57.797 138.227Z" fill="#D8D8D8"/>
<path d="M56.2925 135.787L56.6106 137.862L60.3055 137.295L59.9874 135.22" fill="#303030"/>
<path d="M59.5055 135.295L59.8236 137.369L59.3488 137.442L59.0308 135.367" fill="#5B5B5B"/>
<path d="M56.4239 135.768L56.7413 137.838L57.6695 137.696L57.352 135.625" fill="#1D1D1B"/>
<path d="M59.4231 162.909L56.6925 138.396L59.9055 137.903L64.6442 162.107L59.4231 162.909Z" fill="#C8C8C9"/>
<path d="M59.4231 162.909L57.2949 138.304L56.8933 138.366L59.4231 162.909Z" fill="#7F7F80"/>
<path d="M60.3874 137.829L65.0458 162.045L59.9055 137.903L60.3874 137.829Z" fill="#D8D8D8"/>
<path d="M59.4231 162.909L57.2949 138.304L57.797 138.227L59.4231 162.909Z" fill="#E3E3E4"/>
<path d="M65.0458 162.045L59.9055 137.903L59.303 137.995L65.0458 162.045Z" fill="white"/>
<path d="M59.4231 162.909L57.797 138.227L59.427 137.976L65.0458 162.045L59.4231 162.909Z" fill="#BEBDBE"/>
<path d="M65.239 163.305L65.0458 162.045L59.4234 162.911L59.6242 164.168L65.239 163.305Z" fill="#DDDDDD"/>
<path d="M56.1969 110.492L56.1714 110.326L52.4096 110.904L52.4351 111.069L56.1969 110.492Z" fill="#F2F2F2"/>
<path d="M56.8953 135.697L57.2145 137.779L57.7165 137.702L57.3918 135.621" fill="#333333"/>
<path d="M56.2135 110.594L56.1977 110.491L52.4334 111.069L52.4492 111.173L56.2135 110.594Z" fill="#7F7F7F"/>
<path d="M71.1072 143.035L59.4778 67.9044C59.0716 64.4107 59.0617 60.886 59.4483 57.4075C59.1663 57.4543 57.6655 63.9444 58.3036 68.0894L69.8896 143.206L71.5992 160.988L71.7955 162.298L73.0221 162.092L71.1072 143.035Z" fill="#BA9563"/>
<path d="M71.5162 142.951L59.8807 67.8433C59.4439 64.3622 59.3307 60.8504 59.5429 57.3598C59.2687 57.4216 58.1515 63.835 58.7865 67.9916L70.3881 143.138L72.0791 160.902L72.2646 162.208L73.4912 162.003L71.5162 142.951Z" fill="#AD885A"/>
<path d="M62.507 64.622C61.9099 60.7952 59.8568 57.3119 59.5448 57.3598C59.2473 57.4055 58.3157 61.3473 58.8925 65.1772L69.8097 136.382L73.5043 135.814L62.507 64.622Z" fill="#C7C8C9"/>
<path d="M70.4121 136.289L59.7208 65.6236C59.0999 61.5173 59.3401 57.7417 59.4938 57.3836L59.4853 57.3849C59.1535 57.4456 58.5559 61.5849 59.1768 65.6911L70.0105 136.351L70.4121 136.289Z" fill="#7F7F7F"/>
<path d="M72.5451 135.962L61.6656 65.0033C61.0636 61.1728 59.874 57.6277 59.5036 57.3661L59.5179 57.3639C59.8881 57.6238 61.5412 61.0995 62.1432 64.9299L73.0227 135.888L72.5451 135.962Z" fill="white"/>
<path d="M70.9142 136.212L59.8865 65.3653C59.2946 61.505 59.3912 57.7058 59.5438 57.3599C59.2747 57.6162 58.8177 61.5514 59.4056 65.441L70.4121 136.289L70.9142 136.212Z" fill="#D8D8D8"/>
<path d="M69.4096 133.773L69.7278 135.848L73.4227 135.28L73.1046 133.206" fill="#303030"/>
<path d="M72.6227 133.28L72.9408 135.354L72.466 135.427L72.148 133.353" fill="#5B5B5B"/>
<path d="M69.5411 133.753L69.8585 135.824L70.7867 135.681L70.4692 133.611" fill="#1D1D1B"/>
<path d="M72.5403 160.894L69.8097 136.382L73.0227 135.888L77.7614 160.092L72.5403 160.894Z" fill="#C8C8C9"/>
<path d="M72.5403 160.894L70.4121 136.289L70.0105 136.351L72.5403 160.894Z" fill="#7F7F80"/>
<path d="M73.5046 135.814L78.163 160.031L73.0227 135.888L73.5046 135.814Z" fill="#D8D8D8"/>
<path d="M72.5403 160.894L70.4121 136.289L70.9142 136.212L72.5403 160.894Z" fill="#E3E3E4"/>
<path d="M78.163 160.031L73.0227 135.888L72.4202 135.981L78.163 160.031Z" fill="white"/>
<path d="M72.5403 160.894L70.9142 136.212L72.5442 135.962L78.163 160.031L72.5403 160.894Z" fill="#BEBDBE"/>
<path d="M78.3561 161.291L78.163 160.031L72.5406 160.896L72.7414 162.153L78.3561 161.291Z" fill="#DDDDDD"/>
<path d="M69.3141 108.477L69.2886 108.311L65.5268 108.889L65.5523 109.055L69.3141 108.477Z" fill="#F2F2F2"/>
<path d="M70.0125 133.683L70.3316 135.764L70.8337 135.687L70.509 133.606" fill="#333333"/>
<path d="M69.3307 108.58L69.3149 108.476L65.5505 109.055L65.5664 109.158L69.3307 108.58Z" fill="#7F7F7F"/>
<path d="M110.98 56.249L75.7511 61.7153C75.5805 61.741 75.4167 61.8004 75.2692 61.8901C75.1216 61.9798 74.9932 62.098 74.8914 62.238C74.7895 62.3779 74.7162 62.5367 74.6757 62.7054C74.6352 62.874 74.6283 63.0491 74.6553 63.2206L85.6872 134.373C85.7417 134.721 85.9303 135.034 86.2122 135.243C86.4941 135.453 86.8465 135.542 87.1932 135.492L122.422 130.026C122.593 129.999 122.758 129.939 122.906 129.848C123.054 129.757 123.182 129.638 123.284 129.497C123.386 129.357 123.46 129.197 123.5 129.027C123.541 128.858 123.548 128.682 123.521 128.509L112.484 57.4173C112.464 57.2401 112.409 57.0686 112.323 56.9131C112.236 56.7576 112.118 56.6213 111.978 56.5122C111.838 56.4032 111.677 56.3237 111.505 56.2784C111.334 56.2332 111.155 56.2232 110.98 56.249Z" fill="#504F4F"/>
<path d="M89.9748 66.1471L98.7823 64.7899L101.663 83.3881L92.862 84.7226L89.9748 66.1471Z" fill="#646463"/>
<path fill-rule="evenodd" clip-rule="evenodd" d="M107.992 86.3763C107.971 86.2404 107.845 86.1471 107.71 86.1678C107.575 86.1886 107.482 86.3155 107.503 86.4514L107.555 86.7897C107.424 86.8307 107.297 86.8884 107.178 86.9621C106.989 87.0794 106.825 87.2339 106.697 87.4163C106.568 87.5987 106.477 87.8054 106.43 88.024C106.383 88.2425 106.379 88.4685 106.421 88.6885C106.462 88.9085 106.547 89.1179 106.67 89.3043C106.793 89.4908 106.953 89.6504 107.139 89.7736C107.324 89.8969 107.533 89.9813 107.752 90.0219C107.971 90.0624 108.195 90.0582 108.412 90.0095C108.629 89.9609 108.834 89.8688 109.015 89.7386C109.364 89.4873 109.603 89.1092 109.68 88.684C109.757 88.2588 109.667 87.8199 109.428 87.4597C109.19 87.0995 108.822 86.8463 108.402 86.7535C108.284 86.7272 108.164 86.7144 108.044 86.7146L107.992 86.3763ZM107.608 87.1391L107.805 88.4196C107.826 88.5554 107.952 88.6488 108.087 88.628C108.222 88.6073 108.315 88.4803 108.294 88.3445L108.097 87.064C108.175 87.067 108.252 87.0768 108.329 87.0938C108.661 87.1672 108.952 87.3675 109.14 87.6524C109.329 87.9373 109.4 88.2845 109.339 88.6209C109.278 88.9572 109.089 89.2563 108.813 89.4552C108.67 89.5581 108.508 89.631 108.336 89.6695C108.165 89.708 107.987 89.7113 107.814 89.6792C107.641 89.6472 107.476 89.5804 107.329 89.4829C107.182 89.3853 107.056 89.2591 106.958 89.1116C106.861 88.9641 106.794 88.7985 106.761 88.6244C106.728 88.4504 106.731 88.2717 106.768 88.0988C106.806 87.9259 106.878 87.7624 106.979 87.6181C107.081 87.4738 107.21 87.3516 107.36 87.2588C107.439 87.2099 107.522 87.1699 107.608 87.1391Z" fill="#DBDBDB"/>
<path d="M99.3637 97.0173C99.4987 96.9966 99.625 97.0899 99.6459 97.2258L100.099 100.178C100.119 100.314 100.027 100.441 99.8918 100.462C99.7567 100.482 99.6304 100.389 99.6096 100.253L99.1569 97.3009C99.1361 97.165 99.2287 97.038 99.3637 97.0173Z" fill="#DBDBDB"/>
<path fill-rule="evenodd" clip-rule="evenodd" d="M101.017 107.854C101.373 107.814 101.732 107.882 102.05 108.048C102.368 108.215 102.63 108.472 102.803 108.788C102.976 109.104 103.052 109.464 103.021 109.823C102.991 110.181 102.855 110.523 102.632 110.804C102.408 111.085 102.107 111.293 101.765 111.401C101.424 111.51 101.058 111.514 100.714 111.413C100.253 111.278 99.8634 110.964 99.6317 110.541C99.3999 110.117 99.3446 109.619 99.4781 109.155C99.5777 108.809 99.7771 108.501 100.051 108.269C100.325 108.038 100.661 107.893 101.017 107.854ZM101.891 108.357C101.634 108.223 101.343 108.168 101.055 108.2C100.767 108.232 100.496 108.349 100.274 108.536C100.053 108.723 99.8913 108.973 99.8108 109.252C99.7028 109.628 99.7475 110.031 99.935 110.373C100.122 110.716 100.437 110.97 100.81 111.079C101.089 111.16 101.384 111.157 101.66 111.069C101.936 110.982 102.18 110.813 102.361 110.586C102.542 110.359 102.652 110.083 102.676 109.792C102.701 109.502 102.64 109.211 102.5 108.955C102.36 108.7 102.148 108.492 101.891 108.357Z" fill="#DBDBDB"/>
<path d="M113.549 107.933C113.684 107.912 113.776 107.785 113.756 107.649C113.735 107.513 113.608 107.42 113.473 107.441L110.54 107.891C110.405 107.912 110.312 108.039 110.333 108.175C110.354 108.311 110.48 108.404 110.615 108.383L113.549 107.933Z" fill="#DBDBDB"/>
<path d="M92.2419 110.954C92.2627 111.09 92.1701 111.216 92.0351 111.237L89.1014 111.688C88.9664 111.709 88.8401 111.615 88.8192 111.479C88.7984 111.343 88.891 111.217 89.026 111.196L91.9597 110.745C92.0947 110.724 92.221 110.818 92.2419 110.954Z" fill="#DBDBDB"/>
<path d="M102.965 118.875C102.944 118.74 102.818 118.646 102.683 118.667C102.548 118.688 102.455 118.815 102.476 118.951L102.929 121.903C102.95 122.039 103.076 122.132 103.211 122.111C103.346 122.09 103.439 121.964 103.418 121.828L102.965 118.875Z" fill="#DBDBDB"/>
<path d="M89.9766 89.6451C89.9975 89.7809 89.9049 89.9079 89.7699 89.9286L87.8141 90.229C87.6791 90.2498 87.5527 90.1564 87.5319 90.0206C87.5111 89.8847 87.6036 89.7577 87.7386 89.737L89.6944 89.4366C89.8294 89.4159 89.9558 89.5092 89.9766 89.6451Z" fill="#D9D9D9"/>
<path d="M89.9208 90.9127C90.0558 90.892 90.1483 90.765 90.1275 90.6291C90.1067 90.4933 89.9803 90.3999 89.8453 90.4207L87.8895 90.7211C87.7545 90.7418 87.6619 90.8688 87.6828 91.0047C87.7036 91.1405 87.8299 91.2339 87.965 91.2131L89.9208 90.9127Z" fill="#D9D9D9"/>
<path d="M90.0716 91.8968C90.2066 91.8761 90.2992 91.7491 90.2784 91.6132C90.2576 91.4773 90.1312 91.384 89.9962 91.4048L88.0404 91.7052C87.9054 91.7259 87.8128 91.8529 87.8336 91.9887C87.8545 92.1246 87.9808 92.2179 88.1158 92.1972L90.0716 91.8968Z" fill="#D9D9D9"/>
<path d="M87.3824 92.3098C87.5174 92.2891 87.61 92.1621 87.5892 92.0263C87.5683 91.8904 87.442 91.7971 87.307 91.8178C87.172 91.8385 87.0794 91.9655 87.1002 92.1014C87.1211 92.2372 87.2474 92.3306 87.3824 92.3098Z" fill="#D9D9D9"/>
<path d="M87.4383 91.0422C87.4591 91.1781 87.3666 91.305 87.2315 91.3258C87.0965 91.3465 86.9702 91.2532 86.9493 91.1173C86.9285 90.9814 87.0211 90.8545 87.1561 90.8337C87.2911 90.813 87.4175 90.9063 87.4383 91.0422Z" fill="#D9D9D9"/>
<path d="M87.0807 90.3417C87.2157 90.321 87.3082 90.194 87.2874 90.0581C87.2666 89.9223 87.1402 89.8289 87.0052 89.8497C86.8702 89.8704 86.7776 89.9974 86.7985 90.1332C86.8193 90.2691 86.9456 90.3624 87.0807 90.3417Z" fill="#D9D9D9"/>
<path d="M12.9533 64.1934L117.285 48.1683L117.478 49.4257L13.1461 65.4508L12.9533 64.1934Z" fill="#F8F7F7"/>
<path d="M13.1461 65.4508L117.478 49.4257L117.574 50.0544L13.2425 66.0795L13.1461 65.4508Z" fill="#D8D8D8"/>
<path d="M12.8569 63.5647L117.189 47.5396L117.285 48.1683L12.9533 64.1934L12.8569 63.5647Z" fill="white"/>
<defs>
<filter id="filter0_d_6691_15932" x="0.376465" y="35.5024" width="142.09" height="160.346" filterUnits="userSpaceOnUse" color-interpolation-filters="sRGB">
<feFlood flood-opacity="0" result="BackgroundImageFix"/>
<feColorMatrix in="SourceAlpha" type="matrix" values="0 0 0 0 0 0 0 0 0 0 0 0 0 0 0 0 0 0 127 0" result="hardAlpha"/>
<feOffset dx="-2" dy="6"/>
<feGaussianBlur stdDeviation="5"/>
<feComposite in2="hardAlpha" operator="out"/>
<feColorMatrix type="matrix" values="0 0 0 0 0 0 0 0 0 0 0 0 0 0 0 0 0 0 0.35 0"/>
<feBlend mode="normal" in2="BackgroundImageFix" result="effect1_dropShadow_6691_15932"/>
<feBlend mode="normal" in="SourceGraphic" in2="effect1_dropShadow_6691_15932" result="shape"/>
</filter>
</defs>
</svg>
