<svg width="278" height="123" viewBox="0 0 278 123" fill="none" xmlns="http://www.w3.org/2000/svg">
<mask id="mask0_1114_1334" style="mask-type:luminance" maskUnits="userSpaceOnUse" x="0" y="0" width="278" height="123">
<path d="M267.36 122.702H10.5171C4.72898 122.702 0 118.048 0 112.335V10.3667C0 4.65395 4.70435 0 10.5171 0H267.36C273.148 0 277.877 4.65395 277.877 10.3667V112.335C277.877 118.048 273.148 122.702 267.36 122.702Z" fill="white"/>
</mask>
<g mask="url(#mask0_1114_1334)">
<path d="M76.4026 55.6997H74.7277C74.112 55.6997 73.6194 55.2072 73.6194 54.5916C73.6194 53.976 74.112 53.4835 74.7277 53.4835H76.4026C77.0183 53.4835 77.5109 53.976 77.5109 54.5916C77.5109 55.2072 77.0183 55.6997 76.4026 55.6997Z" fill="#CAC9C9"/>
<path d="M197.952 55.6997H194.578C193.962 55.6997 193.469 55.2072 193.469 54.5916C193.469 53.976 193.962 53.4835 194.578 53.4835H197.952C198.568 53.4835 199.061 53.976 199.061 54.5916C199.061 55.2072 198.568 55.6997 197.952 55.6997ZM191.203 55.6997H187.829C187.213 55.6997 186.721 55.2072 186.721 54.5916C186.721 53.976 187.213 53.4835 187.829 53.4835H191.203C191.819 53.4835 192.312 53.976 192.312 54.5916C192.312 55.2072 191.819 55.6997 191.203 55.6997ZM184.455 55.6997H181.081C180.465 55.6997 179.972 55.2072 179.972 54.5916C179.972 53.976 180.465 53.4835 181.081 53.4835H184.455C185.071 53.4835 185.563 53.976 185.563 54.5916C185.563 55.2072 185.071 55.6997 184.455 55.6997ZM177.706 55.6997H174.332C173.716 55.6997 173.224 55.2072 173.224 54.5916C173.224 53.976 173.716 53.4835 174.332 53.4835H177.706C178.322 53.4835 178.815 53.976 178.815 54.5916C178.815 55.2072 178.322 55.6997 177.706 55.6997ZM170.958 55.6997H167.583C166.967 55.6997 166.475 55.2072 166.475 54.5916C166.475 53.976 166.967 53.4835 167.583 53.4835H170.958C171.573 53.4835 172.066 53.976 172.066 54.5916C172.066 55.2072 171.573 55.6997 170.958 55.6997ZM164.209 55.6997H160.835C160.219 55.6997 159.726 55.2072 159.726 54.5916C159.726 53.976 160.219 53.4835 160.835 53.4835H164.209C164.825 53.4835 165.317 53.976 165.317 54.5916C165.317 55.2072 164.825 55.6997 164.209 55.6997ZM157.46 55.6997H154.086C153.47 55.6997 152.978 55.2072 152.978 54.5916C152.978 53.976 153.47 53.4835 154.086 53.4835H157.46C158.076 53.4835 158.569 53.976 158.569 54.5916C158.569 55.2072 158.076 55.6997 157.46 55.6997ZM150.712 55.6997H147.337C146.722 55.6997 146.229 55.2072 146.229 54.5916C146.229 53.976 146.722 53.4835 147.337 53.4835H150.712C151.327 53.4835 151.82 53.976 151.82 54.5916C151.82 55.2072 151.327 55.6997 150.712 55.6997ZM143.963 55.6997H140.589C139.973 55.6997 139.48 55.2072 139.48 54.5916C139.48 53.976 139.973 53.4835 140.589 53.4835H143.963C144.579 53.4835 145.071 53.976 145.071 54.5916C145.071 55.2072 144.579 55.6997 143.963 55.6997ZM137.214 55.6997H133.84C133.224 55.6997 132.732 55.2072 132.732 54.5916C132.732 53.976 133.224 53.4835 133.84 53.4835H137.214C137.83 53.4835 138.323 53.976 138.323 54.5916C138.323 55.2072 137.83 55.6997 137.214 55.6997ZM130.466 55.6997H127.091C126.476 55.6997 125.983 55.2072 125.983 54.5916C125.983 53.976 126.476 53.4835 127.091 53.4835H130.466C131.081 53.4835 131.574 53.976 131.574 54.5916C131.574 55.2072 131.081 55.6997 130.466 55.6997ZM123.717 55.6997H120.343C119.727 55.6997 119.234 55.2072 119.234 54.5916C119.234 53.976 119.727 53.4835 120.343 53.4835H123.717C124.333 53.4835 124.825 53.976 124.825 54.5916C124.825 55.2072 124.333 55.6997 123.717 55.6997ZM116.968 55.6997H113.594C112.978 55.6997 112.486 55.2072 112.486 54.5916C112.486 53.976 112.978 53.4835 113.594 53.4835H116.968C117.584 53.4835 118.077 53.976 118.077 54.5916C118.077 55.2072 117.584 55.6997 116.968 55.6997ZM110.22 55.6997H106.845C106.23 55.6997 105.737 55.2072 105.737 54.5916C105.737 53.976 106.23 53.4835 106.845 53.4835H110.22C110.835 53.4835 111.328 53.976 111.328 54.5916C111.328 55.2072 110.835 55.6997 110.22 55.6997ZM103.471 55.6997H100.097C99.481 55.6997 98.9884 55.2072 98.9884 54.5916C98.9884 53.976 99.481 53.4835 100.097 53.4835H103.471C104.087 53.4835 104.579 53.976 104.579 54.5916C104.579 55.2072 104.087 55.6997 103.471 55.6997ZM96.7224 55.6997H93.3481C92.7323 55.6997 92.2397 55.2072 92.2397 54.5916C92.2397 53.976 92.7323 53.4835 93.3481 53.4835H96.7224C97.3382 53.4835 97.8308 53.976 97.8308 54.5916C97.8308 55.2072 97.3382 55.6997 96.7224 55.6997ZM89.9738 55.6997H86.5994C85.9837 55.6997 85.4911 55.2072 85.4911 54.5916C85.4911 53.976 85.9837 53.4835 86.5994 53.4835H89.9738C90.5895 53.4835 91.0821 53.976 91.0821 54.5916C91.0821 55.2072 90.5895 55.6997 89.9738 55.6997ZM83.2251 55.6997H79.8508C79.235 55.6997 78.7424 55.2072 78.7424 54.5916C78.7424 53.976 79.235 53.4835 79.8508 53.4835H83.2251C83.8409 53.4835 84.3335 53.976 84.3335 54.5916C84.3335 55.2072 83.8409 55.6997 83.2251 55.6997Z" fill="#CAC9C9"/>
<path d="M203.001 55.6997H201.326C200.711 55.6997 200.218 55.2072 200.218 54.5916C200.218 53.976 200.711 53.4835 201.326 53.4835H203.001C203.617 53.4835 204.11 53.976 204.11 54.5916C204.11 55.2072 203.617 55.6997 203.001 55.6997Z" fill="#CAC9C9"/>
<path d="M88.4219 96.2064H86.747C86.1313 96.2064 85.6387 95.7139 85.6387 95.0983C85.6387 94.4827 86.1313 93.9902 86.747 93.9902H88.4219C89.0376 93.9902 89.5302 94.4827 89.5302 95.0983C89.5302 95.7139 89.0376 96.2064 88.4219 96.2064Z" fill="#CAC9C9"/>
<path d="M186.499 96.2064H183.223C182.608 96.2064 182.115 95.7139 182.115 95.0983C182.115 94.4827 182.608 93.9902 183.223 93.9902H186.499C187.115 93.9902 187.608 94.4827 187.608 95.0983C187.608 95.7139 187.115 96.2064 186.499 96.2064ZM179.972 96.2064H176.696C176.081 96.2064 175.588 95.7139 175.588 95.0983C175.588 94.4827 176.081 93.9902 176.696 93.9902H179.972C180.588 93.9902 181.081 94.4827 181.081 95.0983C181.081 95.7139 180.588 96.2064 179.972 96.2064ZM173.445 96.2064H170.169C169.554 96.2064 169.061 95.7139 169.061 95.0983C169.061 94.4827 169.554 93.9902 170.169 93.9902H173.445C174.061 93.9902 174.554 94.4827 174.554 95.0983C174.554 95.7139 174.061 96.2064 173.445 96.2064ZM166.918 96.2064H163.642C163.027 96.2064 162.534 95.7139 162.534 95.0983C162.534 94.4827 163.027 93.9902 163.642 93.9902H166.918C167.534 93.9902 168.027 94.4827 168.027 95.0983C168.027 95.7139 167.534 96.2064 166.918 96.2064ZM160.391 96.2064H157.115C156.5 96.2064 156.007 95.7139 156.007 95.0983C156.007 94.4827 156.5 93.9902 157.115 93.9902H160.391C161.007 93.9902 161.5 94.4827 161.5 95.0983C161.5 95.7139 161.007 96.2064 160.391 96.2064ZM153.864 96.2064H150.588C149.973 96.2064 149.48 95.7139 149.48 95.0983C149.48 94.4827 149.973 93.9902 150.588 93.9902H153.864C154.48 93.9902 154.973 94.4827 154.973 95.0983C154.973 95.7139 154.48 96.2064 153.864 96.2064ZM147.337 96.2064H144.061C143.446 96.2064 142.953 95.7139 142.953 95.0983C142.953 94.4827 143.446 93.9902 144.061 93.9902H147.337C147.953 93.9902 148.446 94.4827 148.446 95.0983C148.446 95.7139 147.953 96.2064 147.337 96.2064ZM140.81 96.2064H137.535C136.919 96.2064 136.426 95.7139 136.426 95.0983C136.426 94.4827 136.919 93.9902 137.535 93.9902H140.81C141.426 93.9902 141.919 94.4827 141.919 95.0983C141.919 95.7139 141.426 96.2064 140.81 96.2064ZM134.283 96.2064H131.008C130.392 96.2064 129.899 95.7139 129.899 95.0983C129.899 94.4827 130.392 93.9902 131.008 93.9902H134.283C134.899 93.9902 135.392 94.4827 135.392 95.0983C135.392 95.7139 134.899 96.2064 134.283 96.2064ZM127.756 96.2064H124.481C123.865 96.2064 123.372 95.7139 123.372 95.0983C123.372 94.4827 123.865 93.9902 124.481 93.9902H127.756C128.372 93.9902 128.865 94.4827 128.865 95.0983C128.865 95.7139 128.372 96.2064 127.756 96.2064ZM121.229 96.2064H117.954C117.338 96.2064 116.845 95.7139 116.845 95.0983C116.845 94.4827 117.338 93.9902 117.954 93.9902H121.229C121.845 93.9902 122.338 94.4827 122.338 95.0983C122.338 95.7139 121.845 96.2064 121.229 96.2064ZM114.702 96.2064H111.427C110.811 96.2064 110.318 95.7139 110.318 95.0983C110.318 94.4827 110.811 93.9902 111.427 93.9902H114.702C115.318 93.9902 115.811 94.4827 115.811 95.0983C115.811 95.7139 115.318 96.2064 114.702 96.2064ZM108.175 96.2064H104.9C104.284 96.2064 103.791 95.7139 103.791 95.0983C103.791 94.4827 104.284 93.9902 104.9 93.9902H108.175C108.791 93.9902 109.284 94.4827 109.284 95.0983C109.284 95.7139 108.791 96.2064 108.175 96.2064ZM101.648 96.2064H98.3726C97.7569 96.2064 97.2643 95.7139 97.2643 95.0983C97.2643 94.4827 97.7569 93.9902 98.3726 93.9902H101.648C102.264 93.9902 102.757 94.4827 102.757 95.0983C102.757 95.7139 102.264 96.2064 101.648 96.2064ZM95.1215 96.2064H91.8457C91.2299 96.2064 90.7373 95.7139 90.7373 95.0983C90.7373 94.4827 91.2299 93.9902 91.8457 93.9902H95.1215C95.7372 93.9902 96.2298 94.4827 96.2298 95.0983C96.2298 95.7139 95.7372 96.2064 95.1215 96.2064Z" fill="#CAC9C9"/>
<path d="M191.45 96.2064H189.775C189.159 96.2064 188.667 95.7139 188.667 95.0983C188.667 94.4827 189.159 93.9902 189.775 93.9902H191.45C192.065 93.9902 192.558 94.4827 192.558 95.0983C192.558 95.7139 192.065 96.2064 191.45 96.2064Z" fill="#CAC9C9"/>
<path d="M138.618 120.018C135.096 120.018 107.978 120.313 88.9391 101.525C76.2546 89.0161 71.8458 70.1787 70.3926 55.9952C70.1709 53.9268 67.437 54.7147 67.1414 50.0854C66.8213 45.1113 69.7769 45.6284 69.7522 43.7816C69.7522 39.4232 69.9739 36.6899 69.9739 36.5914C70.4665 31.248 76.0575 4.55544 138.864 4.48157V10.0712C115.219 10.0959 97.6335 13.888 86.5992 21.3737C77.092 27.8252 75.7374 35.0401 75.5403 37.1085C75.1462 41.5655 74.9985 52.1784 77.0428 63.5794C79.7028 78.4031 85.0229 89.8287 92.8553 97.5607C111.106 115.586 138.076 114.428 138.889 114.428L138.963 120.018C138.963 120.018 138.79 120.018 138.618 120.018Z" fill="#E5E4E4"/>
<path d="M73.3482 69.1445C68.8656 66.4112 59.2106 65.0815 55.8855 64.8107L56.3535 59.2456C56.8953 59.2949 69.7276 60.4029 76.2792 64.3921L73.3729 69.1691L73.3482 69.1445Z" fill="#E5E4E4"/>
<path d="M56.1073 68.2088C59.6032 68.2088 62.4372 65.3755 62.4372 61.8804C62.4372 58.3853 59.6032 55.552 56.1073 55.552C52.6114 55.552 49.7773 58.3853 49.7773 61.8804C49.7773 65.3755 52.6114 68.2088 56.1073 68.2088Z" fill="#E5E4E4"/>
<path d="M138.914 129.597C142.41 129.597 145.244 126.763 145.244 123.268C145.244 119.773 142.41 116.94 138.914 116.94C135.418 116.94 132.584 119.773 132.584 123.268C132.584 126.763 135.418 129.597 138.914 129.597Z" fill="#E5E4E4"/>
<path d="M123.636 -8.63167L122.754 7.91687L127.23 8.15532L128.112 -8.39322L123.636 -8.63167Z" fill="#E5E4E4"/>
<path d="M95.8109 162.765C95.4661 162.765 95.0966 162.691 94.7518 162.568C93.3233 161.977 92.6336 160.352 93.2248 158.924L112.018 112.631C112.609 111.202 114.234 110.513 115.663 111.104C117.091 111.695 117.781 113.32 117.19 114.748L98.3971 161.042C97.9537 162.125 96.9193 162.79 95.8109 162.79V162.765Z" fill="#E5E4E4"/>
<path d="M138.815 125.534C129.48 125.534 122.436 123.662 122.141 123.588C120.638 123.194 119.776 121.643 120.17 120.166C120.564 118.688 122.091 117.802 123.594 118.196C123.594 118.196 130.244 119.944 138.815 119.944C140.367 119.944 141.623 121.2 141.623 122.751C141.623 124.302 140.367 125.558 138.815 125.558V125.534Z" fill="#E5E4E4"/>
<path d="M139.111 120.018C142.633 120.018 169.751 120.313 188.79 101.525C201.474 89.0161 205.883 70.1787 207.336 55.9952C207.558 53.9268 210.292 54.7147 210.587 50.0854C210.907 45.1113 207.952 45.6284 207.976 43.7816C207.976 39.4232 207.755 36.6899 207.755 36.5914C207.262 31.248 201.671 4.55544 138.864 4.48157V10.0712C162.509 10.0959 180.095 13.888 191.129 21.3737C200.637 27.8252 201.991 35.0401 202.188 37.1085C202.582 41.5655 202.73 52.1784 200.686 63.5794C198.026 78.4031 192.706 89.8287 184.873 97.5607C166.623 115.586 139.653 114.428 138.84 114.428L138.766 120.018C138.766 120.018 138.938 120.018 139.111 120.018Z" fill="#E5E4E4"/>
<path d="M204.38 69.1445L201.474 64.3674C208.026 60.3783 220.858 59.2702 221.4 59.2209L221.868 64.786C218.543 65.0568 208.888 66.3865 204.405 69.1198L204.38 69.1445Z" fill="#E5E4E4"/>
<path d="M221.622 68.2088C225.118 68.2088 227.952 65.3755 227.952 61.8804C227.952 58.3853 225.118 55.552 221.622 55.552C218.126 55.552 215.292 58.3853 215.292 61.8804C215.292 65.3755 218.126 68.2088 221.622 68.2088Z" fill="#E5E4E4"/>
<path d="M138.815 129.597C142.311 129.597 145.145 126.763 145.145 123.268C145.145 119.773 142.311 116.94 138.815 116.94C135.319 116.94 132.485 119.773 132.485 123.268C132.485 126.763 135.319 129.597 138.815 129.597Z" fill="#E5E4E4"/>
<path d="M154.082 -8.62261L149.605 -8.38416L150.487 8.1644L154.964 7.92594L154.082 -8.62261Z" fill="#E5E4E4"/>
<path d="M181.918 162.765C182.263 162.765 182.632 162.691 182.977 162.568C184.406 161.977 185.095 160.352 184.504 158.924L165.711 112.631C165.12 111.202 163.495 110.513 162.066 111.104C160.637 111.695 159.948 113.32 160.539 114.748L179.332 161.042C179.775 162.125 180.81 162.79 181.918 162.79V162.765Z" fill="#E5E4E4"/>
<path d="M138.914 125.534C148.249 125.534 155.293 123.662 155.588 123.588C157.091 123.194 157.953 121.643 157.559 120.166C157.165 118.688 155.638 117.802 154.135 118.196C154.135 118.196 147.485 119.944 138.914 119.944C137.362 119.944 136.106 121.2 136.106 122.751C136.106 124.302 137.362 125.558 138.914 125.558V125.534Z" fill="#E5E4E4"/>
<path d="M114.604 119.993C118.1 119.993 120.934 117.16 120.934 113.665C120.934 110.17 118.1 107.336 114.604 107.336C111.108 107.336 108.274 110.17 108.274 113.665C108.274 117.16 111.108 119.993 114.604 119.993Z" fill="#E5E4E4"/>
<path d="M163.125 119.993C166.621 119.993 169.455 117.16 169.455 113.665C169.455 110.17 166.621 107.336 163.125 107.336C159.629 107.336 156.795 110.17 156.795 113.665C156.795 117.16 159.629 119.993 163.125 119.993Z" fill="#E5E4E4"/>
<path d="M162.608 76.0392C160.884 76.1131 157.14 76.2608 157.682 78.7232C158.199 81.1856 161.869 81.8259 163.273 81.2841C164.677 80.7424 166.278 79.462 166.081 78.4524C165.884 77.4428 163.322 75.99 162.632 76.0146L162.608 76.0392Z" fill="#8D8D8E"/>
<path d="M158.938 81.6535C157.214 81.7274 153.47 81.8751 154.012 84.3375C154.554 86.7999 158.199 87.4401 159.603 86.8984C161.007 86.3567 162.608 85.0762 162.411 84.0666C162.214 83.057 159.652 81.6042 158.963 81.6288L158.938 81.6535Z" fill="#8D8D8E"/>
<path d="M155.268 87.2679C153.544 87.3417 149.8 87.4895 150.342 89.9519C150.884 92.4143 154.529 93.0545 155.933 92.5128C157.337 91.9711 158.938 90.6906 158.741 89.681C158.544 88.6714 155.982 87.2186 155.293 87.2432L155.268 87.2679Z" fill="#8D8D8E"/>
<path d="M172.46 76.2609C170.736 76.3348 166.992 76.4825 167.534 78.9449C168.051 81.4073 171.721 82.0476 173.125 81.5058C174.529 80.9641 176.13 79.6836 175.933 78.6741C175.736 77.6645 173.174 76.2116 172.484 76.2363L172.46 76.2609Z" fill="#8D8D8E"/>
<path d="M168.79 81.8752C167.066 81.949 163.322 82.0968 163.864 84.5592C164.406 87.0216 168.051 87.6618 169.455 87.1201C170.859 86.5784 172.46 85.2979 172.263 84.2883C172.066 83.2787 169.504 81.8259 168.815 81.8505L168.79 81.8752Z" fill="#8D8D8E"/>
<path d="M165.12 87.4894C163.396 87.5633 159.652 87.711 160.194 90.1734C160.736 92.6358 164.381 93.2761 165.785 92.7343C167.189 92.1926 168.79 90.9122 168.593 89.9026C168.396 88.893 165.834 87.4402 165.145 87.4648L165.12 87.4894Z" fill="#8D8D8E"/>
<path d="M182.312 76.4824C180.588 76.5563 176.844 76.7041 177.386 79.1665C177.903 81.6289 181.573 82.2691 182.977 81.7274C184.381 81.1857 185.982 79.9052 185.785 78.8956C185.588 77.886 183.026 76.4332 182.337 76.4578L182.312 76.4824Z" fill="#8D8D8E"/>
<path d="M178.642 82.1214C176.918 82.1952 173.174 82.343 173.716 84.8054C174.258 87.2678 177.903 87.908 179.307 87.3663C180.711 86.8246 182.312 85.5441 182.115 84.5345C181.918 83.5249 179.356 82.0721 178.667 82.0967L178.642 82.1214Z" fill="#8D8D8E"/>
<path d="M174.972 87.7356C173.248 87.8095 169.504 87.9572 170.046 90.4196C170.588 92.8821 174.233 93.5223 175.637 92.9806C177.041 92.4388 178.642 91.1584 178.445 90.1488C178.248 89.1392 175.686 87.6864 174.997 87.711L174.972 87.7356Z" fill="#8D8D8E"/>
<path d="M192.189 76.7287C190.464 76.8025 186.721 76.9503 187.263 79.4127C187.78 81.8751 191.45 82.5153 192.854 81.9736C194.258 81.4319 195.858 80.1514 195.661 79.1418C195.464 78.1322 192.903 76.6794 192.213 76.704L192.189 76.7287Z" fill="#8D8D8E"/>
<path d="M188.519 82.3431C186.795 82.4169 183.051 82.5647 183.593 85.0271C184.135 87.4895 187.78 88.1297 189.184 87.588C190.588 87.0462 192.189 85.7658 191.992 84.7562C191.794 83.7466 189.233 82.2938 188.543 82.3184L188.519 82.3431Z" fill="#8D8D8E"/>
<path d="M184.849 87.9573C183.125 88.0312 179.381 88.1789 179.923 90.6413C180.465 93.1037 184.11 93.744 185.514 93.2022C186.918 92.6605 188.519 91.3801 188.322 90.3705C188.125 89.3609 185.563 87.9081 184.873 87.9327L184.849 87.9573Z" fill="#8D8D8E"/>
<path d="M109.973 39.4232C107.215 39.4478 104.752 39.7926 101.919 39.6941C99.2838 39.6448 96.8947 39.6694 94.4071 39.8172C92.5844 39.9157 91.0574 40.0142 90.5648 40.088C90.0722 40.1619 89.284 40.6544 88.7668 41.0976C88.3727 41.5409 88.6929 43.0429 90.1461 43.9294C90.8111 44.6681 90.3677 46.0471 94.1608 50.0854C95.1952 51.1935 95.8356 51.6367 96.2051 51.9815C96.5745 52.3262 97.8306 52.3508 98.5203 52.1046C100.959 51.6614 104.629 52.671 107.092 52.7202C109.85 52.7202 112.387 52.7202 114.234 51.9815C116.673 51.7106 120.121 51.6614 121.746 47.7708C122.904 46.2441 122.264 44.4711 121.968 42.7474C120.293 39.7679 117.51 40.9745 115.614 40.2358C114.554 39.8911 113.027 39.6448 111.5 39.5463C111.5 39.5463 110.638 39.4232 109.973 39.3986V39.4232Z" fill="#F8DBC9"/>
<path d="M99.013 39.5955C95.9096 39.6694 89.7274 39.8418 89.0624 40.8514C88.0033 41.7378 89.358 42.7474 91.5254 44.545C93.3481 46.3672 93.6683 45.7516 94.9737 45.5792C99.2593 45.0867 103.126 47.8692 107.363 47.2536C111.402 46.7611 115.392 46.2686 119.308 45.0867C121.328 44.4465 119.727 42.2796 119.259 41.8856C118.446 41.1961 116.426 40.6297 114.85 40.0634C112.313 39.3247 108.816 39.4478 105.811 39.5463C103.57 39.6448 101.328 39.5709 99.013 39.6202V39.5955Z" fill="#F9C8BC"/>
<path d="M115.441 46.7858C115.121 46.9828 114.949 46.8597 114.727 47.032C114.505 47.2044 114.604 47.426 114.727 47.4999C115.712 47.9924 116.032 47.1305 117.756 46.4657C118.495 46.1702 118.889 45.9732 119.333 45.5792C120.269 44.7666 120.367 43.5354 120.663 43.4862C120.761 43.4369 120.934 43.7324 121.032 44.939C120.909 44.8651 120.343 44.4219 120.343 44.4219C120.343 44.4219 120.86 42.255 121.032 44.939C121.18 47.5738 120.589 46.0717 119.456 47.2044C118.643 48.017 118.618 50.7503 118.15 51.1689C115.614 51.686 110.54 53.3358 109.53 52.4001C109.481 52.3755 109.949 52.0061 110.86 51.5875C111.155 51.4151 111.722 48.4848 112.215 48.1155C112.978 47.5984 113.446 46.8843 113.988 46.441C114.653 45.8747 114.554 45.9732 116.574 45.8254" fill="#BE453F"/>
<path d="M93.3727 39.8418C90.6388 39.8911 90.5156 40.0634 90.5156 40.0634C90.5156 40.0634 88.225 40.9499 88.7176 41.073C89.0625 41.1715 87.7324 41.1715 89.0871 42.4027C89.2102 42.5258 89.8999 43.043 90.7619 43.4616C93.8653 44.9883 95.0476 44.1018 95.0722 44.2495C95.0722 44.348 94.2594 45.0621 93.0279 44.348C92.9048 44.2742 92.1905 43.8802 91.156 43.1415C90.9344 42.9691 90.7619 42.8213 90.5895 42.649C90.294 42.4027 90.0723 42.1072 89.7275 41.4424C89.4565 40.9745 90.0723 41.3931 90.0723 41.2947C90.023 41.1469 90.2447 41.073 90.4664 40.9499C90.6142 40.876 90.8851 40.8022 90.959 40.7775C91.7718 40.5559 93.0772 40.3589 93.5944 40.3097C94.2102 40.2358 94.2348 40.2358 94.2348 40.2358C95.0722 40.1373 97.4121 40.1373 97.3628 40.2358C97.3628 40.3097 96.3037 40.3343 96.0082 40.5313C95.7865 40.679 96.1559 40.8514 96.4761 40.9499C96.7717 40.7775 97.018 40.6052 97.4121 40.4328C97.3874 40.4328 97.2889 40.6544 97.7076 40.7283C98.1263 40.8022 98.9884 40.7283 99.5056 40.4821C99.7766 40.3836 100.245 40.2604 100.86 40.1619C101.156 40.1127 101.87 40.0142 102.584 39.9649C103.988 39.8665 105.392 39.768 106.722 39.6941C108.299 39.5956 109.678 39.6448 111.328 39.7187C113.2 39.8664 114.185 40.3097 115.761 40.5806C115.761 40.5806 116.796 40.2851 113.693 39.6941C111.574 39.3247 109.678 39.3247 107.461 39.3986C105.343 39.4478 103.323 39.5463 101.156 39.5217C98.4958 39.5463 96.0328 39.7679 93.3974 39.8172L93.3727 39.8418Z" fill="#FEF1E6"/>
<path d="M117.412 40.9006C117.412 40.9006 118.175 40.9745 118.84 41.5409C119.505 42.1072 119.924 39.5955 118.298 42.0333C117.017 43.8555 115.417 45.2837 113.372 45.9978C111.55 46.2687 109.234 46.7119 107.732 46.9089C108.791 46.7858 109.924 46.4411 111.993 45.5792C114.579 44.5204 115.687 42.3288 116.697 41.6886C117.682 41.0976 116.525 40.6298 116.525 40.6298C116.476 40.6298 117.387 40.876 117.387 40.876L117.412 40.9006Z" fill="#FEF1E6"/>
<path d="M110.49 46.4903C108.052 47.1551 105.121 48.3863 102.584 47.426C101.057 46.7365 99.5054 46.0963 97.8552 45.7516C96.3281 45.2591 95.6139 45.2591 94.6287 44.8651C94.8257 44.7912 94.9489 44.7174 95.1952 44.6189C97.1163 44.5942 98.865 44.8897 100.712 45.333C102.363 45.9732 104.062 46.8104 105.811 47.032C107.88 46.6627 109.924 46.1948 111.968 45.7762" fill="#FEF1E6"/>
<path d="M104.924 45.3822C106.648 46.2933 108.495 46.3425 110.392 46.3671C112.362 45.9978 114.628 45.5791 115.687 43.5846C115.687 43.5846 116.303 44.7419 113.348 46.047C111.082 47.032 108.298 47.426 105.835 47.032C105.491 46.4656 105.318 46.1209 104.924 45.4068V45.3822Z" fill="#FEF1E6"/>
<path d="M101.106 40.285C102.338 40.0388 103.89 39.9403 105.392 39.8418C107.042 39.7433 108.569 39.7187 109.284 39.7679C110.687 39.8418 111.254 39.9649 111.254 39.9649C112.732 39.9649 114.85 40.0388 115.786 40.4328C116.205 40.9252 115.958 41.467 115.244 41.9102C114.259 42.5012 112.732 45.2098 110.343 46.3179C107.954 47.0566 105.343 47.0566 102.904 46.4164C100.318 45.8501 97.8798 45.4314 95.2691 45.0867C94.2592 44.7666 92.0179 42.8213 92.0179 42.8213C92.0179 42.8213 91.6238 42.772 90.5647 42.0333C89.481 41.1961 90.3184 41.3685 90.7617 41.2207C90.9834 41.1469 90.7371 41.1222 92.3873 40.8021C94.0376 40.482 93.7666 40.5559 94.1853 40.5066C94.2346 40.4328 96.7961 40.1865 96.7961 40.1865C96.7961 40.1865 98.2 40.1619 97.8059 40.4328C97.7074 40.5066 97.7813 40.8021 98.2493 40.8514C98.6187 40.9006 99.2591 40.8514 99.801 40.7036" fill="#CB4B43"/>
<path d="M101.648 39.8911C101.279 39.8911 100.663 39.9157 99.8503 39.768C99.8503 39.768 98.2493 39.9896 97.6582 40.0388C97.0424 40.0881 97.5843 39.9403 96.2296 40.0388C94.8996 40.1127 94.6533 40.162 93.3479 40.2605C92.0179 40.3343 92.1164 40.3589 91.1558 40.6052C90.1706 40.8514 89.8504 40.9253 89.678 41.0977C89.5056 41.2947 89.2347 41.7625 89.2347 41.7625C89.2347 41.7625 88.816 41.5163 89.2347 41.0484C89.6534 40.5559 89.013 40.7776 89.9243 40.5067C91.2544 40.162 93.1262 39.9896 94.8011 39.8172C95.9094 39.7187 98.1261 39.6202 98.1261 39.6202C98.1261 39.6202 101.057 39.6202 102.165 39.6941C102.683 39.7434 101.944 39.9403 101.624 39.9157L101.648 39.8911Z" fill="#CB4B43"/>
<path d="M96.0081 46.8596C95.1214 47.2782 96.5746 50.8241 96.5746 51.2673C96.6239 52.5478 96.3776 51.9814 96.4022 52.0307C96.4515 52.0799 97.0672 52.3015 97.0672 52.3015C97.0672 52.3015 97.7569 52.3015 98.5204 52.3015C101.648 52.2277 104.382 52.8925 107.757 52.7694C107.757 52.7694 107.387 52.3015 106.328 52.0307C105.269 51.7598 103.865 48.5833 101.722 47.9431C101.008 47.7215 101.082 47.7461 99.7273 47.2782" fill="#F9C8BC"/>
<path d="M92.6338 47.3522C94.6042 49.5683 95.9096 51.9322 96.1805 52.0061C96.3037 52.1785 96.353 51.9815 96.353 51.686C96.353 51.686 96.3037 51.6121 96.3037 51.5629C96.1067 51.1689 95.9589 50.504 95.8357 50.0608C95.7865 49.4698 94.5303 46.5888 94.5796 45.9486C94.0131 46.0471 93.6436 46.0717 93.3481 46.0224C92.8309 45.8747 92.289 45.2837 89.8752 43.8063C90.6634 44.545 91.4269 45.9486 92.6338 47.3522Z" fill="#BE453F"/>
</g>
<path d="M161.771 64.3428V73.4537" stroke="#CE0E2D" stroke-width="0.3" stroke-miterlimit="10"/>
<path d="M159.628 65.8202L161.771 57.7927L163.914 65.8202H159.628Z" fill="#CE0E2D"/>
<path d="M171.746 64.3428V73.4537" stroke="#CE0E2D" stroke-width="0.3" stroke-miterlimit="10"/>
<path d="M169.603 65.8202L171.746 57.7927L173.913 65.8202H169.603Z" fill="#CE0E2D"/>
<path d="M181.746 64.3428V73.4537" stroke="#CE0E2D" stroke-width="0.3" stroke-miterlimit="10"/>
<path d="M179.603 65.8202L181.745 57.7927L183.888 65.8202H179.603Z" fill="#CE0E2D"/>
<path d="M191.721 64.3428V73.4537" stroke="#CE0E2D" stroke-width="0.3" stroke-miterlimit="10"/>
<path d="M189.578 65.8202L191.721 57.7927L193.888 65.8202H189.578Z" fill="#CE0E2D"/>
<path d="M90.4418 71.8532L91.0329 69.8094C87.0182 67.4208 84.235 63.6534 83.5454 59.4919L84.3582 59.3688C84.9986 63.2347 87.5601 66.7314 91.2792 69.0214L91.7718 67.3224L99.6042 72.0502L90.4418 71.8778V71.8532ZM121.697 63.8503L112.609 64.9338L113.274 66.5836C108.939 67.0761 104.777 65.8695 101.895 63.2101L101.353 63.8011C103.964 66.2143 107.56 67.4947 111.402 67.4947C112.116 67.4947 112.855 67.4455 113.594 67.347L114.382 69.3415L121.722 63.8503H121.697ZM111.304 77.7876L102.215 78.871L102.88 80.5209C98.5451 81.0133 94.3826 79.8068 91.5009 77.1474L90.959 77.7383C93.5698 80.1515 97.1658 81.432 101.008 81.432C101.722 81.432 102.461 81.3827 103.2 81.2842L103.988 83.2788L111.328 77.7876H111.304ZM129.899 64.7861L124.579 72.2472L126.229 72.8628C123.692 76.4086 119.998 78.6741 116.082 79.0188L116.156 79.8314C120.367 79.462 124.308 76.975 127.018 73.1583L129.013 73.897L129.875 64.7861H129.899ZM142.485 43.1415L144.185 41.9349L137.165 36.0497L140.318 44.6435L141.82 43.5847C144.431 50.0362 145.367 59.6396 140.047 67.7163L140.736 68.1596C146.303 59.7381 145.268 49.7407 142.534 43.0922L142.485 43.1415ZM123.569 33.8582L124.013 31.7652L114.875 32.3069L123.052 36.4191L123.422 34.6954C127.165 36.5669 129.949 39.571 131.155 43.1661L131.919 42.8952C130.638 39.0539 127.633 35.8281 123.594 33.8828L123.569 33.8582ZM126.599 20.1426L126.229 18.0988L117.929 21.9648L127.042 22.7774L126.722 20.9798C133.397 21.0783 145.933 23.8116 150.441 41.6394L151.229 41.4424C146.549 22.9497 133.446 20.2657 126.574 20.1672L126.599 20.1426ZM149.456 16.5721L149.628 14.5037L140.613 16.1289L149.234 19.2315L149.382 17.3847C157.165 19.33 168.839 25.3875 171.327 44.2003L172.14 44.1018C169.578 24.7227 157.46 18.5174 149.456 16.5721ZM93.2004 22.999L91.6487 21.5462L87.3138 29.6229L95.0969 24.7965L93.8161 23.59C97.3629 21.3738 101.402 20.5858 105.072 21.423L105.269 20.6351C101.304 19.724 96.9934 20.5858 93.225 23.0236L93.2004 22.999ZM91.6979 33.6858L91.4763 32.8979C87.5847 34.0552 84.2597 36.9608 82.1907 40.9253L80.0972 40.4328L80.3435 49.593L84.703 41.5409L82.9789 41.1223C84.9739 37.4287 88.0773 34.7693 91.6979 33.6858ZM105.688 27.2343L104.53 25.4368L98.3727 32.233L107.092 29.4259L106.131 27.9484C110.121 26.6433 114.21 26.865 117.584 28.5886L117.954 27.8745C114.333 26.0277 109.949 25.8307 105.688 27.2589V27.2343Z" fill="url(#paint0_linear_1114_1334)"/>
<mask id="mask1_1114_1334" style="mask-type:luminance" maskUnits="userSpaceOnUse" x="117" y="44" width="19" height="5">
<path d="M118.274 45.0375C118.274 45.0375 117.953 45.0375 117.929 45.6531C117.904 46.2687 118.175 46.3426 118.175 46.3426L129.308 47.623L134.653 48.2386L135.195 45.8747L134.677 44.6927L118.249 45.0867L118.274 45.0375Z" fill="white"/>
</mask>
<g mask="url(#mask1_1114_1334)">
<path d="M102.806 44.2987C101.993 44.2495 101.008 44.6927 101.008 44.8158C101.008 44.9389 101.944 45.4807 102.757 45.5053L126.057 46.7365L126.131 45.5053L102.831 44.2987H102.806Z" fill="#C8C8C9"/>
<path d="M126.032 46.5149L102.781 45.2345C101.944 45.1852 101.107 44.8651 100.983 44.7913C101.033 44.939 101.919 45.3822 102.757 45.4315L126.008 46.6627V46.5396L126.032 46.5149Z" fill="#7F7F80"/>
<path d="M126.081 45.8008L102.781 44.5696C101.969 44.5204 101.107 44.6927 100.983 44.7912C100.983 44.7912 101.969 44.3726 102.781 44.4219L126.081 45.6531V45.8008Z" fill="white"/>
<path d="M126.057 46.3426L102.757 45.1114C101.944 45.0621 101.082 44.8651 101.008 44.7913C101.057 44.8898 101.944 45.2345 102.757 45.2837L126.057 46.5149V46.2933V46.3426Z" fill="#D8D8D8"/>
<path d="M125.269 46.6873H125.934C125.934 46.6873 125.786 46.6873 125.835 46.0963C125.884 45.5053 125.983 45.5053 125.983 45.5053H125.318C125.318 45.5053 125.195 45.4561 125.146 46.0717C125.096 46.6873 125.244 46.6873 125.244 46.6873H125.269Z" fill="#303031"/>
<path d="M125.219 45.6038L125.909 45.653V45.8007L125.195 45.7761" fill="#5C5C5C"/>
<path d="M125.195 46.6134H125.86L125.835 46.5149H125.17" fill="#1D1E1B"/>
<path d="M125.17 46.4656H125.835V46.3179H125.17" fill="#333333"/>
<path d="M133.741 47.5245L126.008 46.7119L126.081 45.4807H133.643L133.741 47.5245Z" fill="#C8C8C9"/>
<path d="M133.594 46.5395L125.885 45.8008V45.653L133.865 45.5299C133.865 45.7023 133.594 46.5395 133.594 46.5395Z" fill="#F4F4F4"/>
<path d="M133.594 46.5396H126.032V46.6627L133.766 47.5491L133.594 46.5396Z" fill="#7F7F80"/>
<path d="M134.259 45.5546H133.865L133.594 46.5395H133.988L134.259 45.5546Z" fill="#DDDDDD"/>
<path d="M133.988 46.5396H133.594L133.766 47.5245H134.16L133.988 46.5396Z" fill="#777777"/>
<path d="M133.594 46.5395L126.032 46.3425V46.5149H133.594V46.5395Z" fill="#D8D8D8"/>
<path d="M134.259 45.5546L134.382 46.638L134.16 47.5491L133.988 46.5395L134.259 45.5546Z" fill="#F4F4F4"/>
</g>
<path d="M267.36 122.702H10.5171C4.72898 122.702 0 118.048 0 112.335V10.3667C0 4.65395 4.70435 0 10.5171 0H267.36C273.148 0 277.877 4.65395 277.877 10.3667V112.335C277.877 118.048 273.148 122.702 267.36 122.702ZM10.5171 1.2312C5.39399 1.2312 1.23151 5.3188 1.23151 10.3667V112.335C1.23151 117.358 5.39399 121.471 10.5171 121.471H267.36C272.483 121.471 276.621 117.358 276.621 112.335V10.3667C276.621 5.3188 272.458 1.2312 267.36 1.2312H10.5171Z" fill="#D8D8D8"/>
<defs>
<linearGradient id="paint0_linear_1114_1334" x1="79.2105" y1="49.0266" x2="161.968" y2="48.8049" gradientUnits="userSpaceOnUse">
<stop stop-color="#F39200"/>
<stop offset="0.3" stop-color="#E86D0C"/>
<stop offset="0.97" stop-color="#CF112B"/>
<stop offset="1" stop-color="#CE0E2D"/>
</linearGradient>
</defs>
</svg>
