<svg width="278" height="123" viewBox="0 0 278 123" fill="none" xmlns="http://www.w3.org/2000/svg">
<g clip-path="url(#clip0_6640_12835)">
<mask id="mask0_6640_12835" style="mask-type:luminance" maskUnits="userSpaceOnUse" x="0" y="0" width="278" height="123">
<path d="M267.36 122.702H10.5171C4.72898 122.702 0 118.048 0 112.335V10.3667C0 4.65393 4.70435 0 10.5171 0H267.36C273.148 0 277.877 4.65393 277.877 10.3667V112.335C277.877 118.048 273.148 122.702 267.36 122.702Z" fill="white"/>
</mask>
<g mask="url(#mask0_6640_12835)">
<path d="M50.7381 56.2416H48.349C47.4623 56.2416 46.748 55.5275 46.748 54.641C46.748 53.7546 47.4623 53.0405 48.349 53.0405H50.7381C51.6248 53.0405 52.3391 53.7546 52.3391 54.641C52.3391 55.5275 51.6248 56.2416 50.7381 56.2416Z" fill="#CAC9C9"/>
<path d="M223.74 56.2416H218.937C218.05 56.2416 217.336 55.5275 217.336 54.641C217.336 53.7546 218.05 53.0405 218.937 53.0405H223.74C224.627 53.0405 225.341 53.7546 225.341 54.641C225.341 55.5275 224.627 56.2416 223.74 56.2416ZM214.134 56.2416H209.331C208.445 56.2416 207.73 55.5275 207.73 54.641C207.73 53.7546 208.445 53.0405 209.331 53.0405H214.134C215.021 53.0405 215.735 53.7546 215.735 54.641C215.735 55.5275 215.021 56.2416 214.134 56.2416ZM204.529 56.2416H199.726C198.839 56.2416 198.125 55.5275 198.125 54.641C198.125 53.7546 198.839 53.0405 199.726 53.0405H204.529C205.415 53.0405 206.129 53.7546 206.129 54.641C206.129 55.5275 205.415 56.2416 204.529 56.2416ZM194.923 56.2416H190.12C189.233 56.2416 188.519 55.5275 188.519 54.641C188.519 53.7546 189.233 53.0405 190.12 53.0405H194.923C195.809 53.0405 196.524 53.7546 196.524 54.641C196.524 55.5275 195.809 56.2416 194.923 56.2416ZM185.317 56.2416H180.514C179.627 56.2416 178.913 55.5275 178.913 54.641C178.913 53.7546 179.627 53.0405 180.514 53.0405H185.317C186.204 53.0405 186.918 53.7546 186.918 54.641C186.918 55.5275 186.204 56.2416 185.317 56.2416ZM175.711 56.2416H170.908C170.022 56.2416 169.307 55.5275 169.307 54.641C169.307 53.7546 170.022 53.0405 170.908 53.0405H175.711C176.598 53.0405 177.312 53.7546 177.312 54.641C177.312 55.5275 176.598 56.2416 175.711 56.2416ZM166.106 56.2416H161.303C160.416 56.2416 159.702 55.5275 159.702 54.641C159.702 53.7546 160.416 53.0405 161.303 53.0405H166.106C166.992 53.0405 167.707 53.7546 167.707 54.641C167.707 55.5275 166.992 56.2416 166.106 56.2416ZM156.5 56.2416H151.697C150.81 56.2416 150.096 55.5275 150.096 54.641C150.096 53.7546 150.81 53.0405 151.697 53.0405H156.5C157.386 53.0405 158.101 53.7546 158.101 54.641C158.101 55.5275 157.386 56.2416 156.5 56.2416ZM146.894 56.2416H142.091C141.205 56.2416 140.49 55.5275 140.49 54.641C140.49 53.7546 141.205 53.0405 142.091 53.0405H146.894C147.781 53.0405 148.495 53.7546 148.495 54.641C148.495 55.5275 147.781 56.2416 146.894 56.2416ZM137.288 56.2416H132.485C131.599 56.2416 130.884 55.5275 130.884 54.641C130.884 53.7546 131.599 53.0405 132.485 53.0405H137.288C138.175 53.0405 138.889 53.7546 138.889 54.641C138.889 55.5275 138.175 56.2416 137.288 56.2416ZM127.683 56.2416H122.88C121.993 56.2416 121.279 55.5275 121.279 54.641C121.279 53.7546 121.993 53.0405 122.88 53.0405H127.683C128.569 53.0405 129.284 53.7546 129.284 54.641C129.284 55.5275 128.569 56.2416 127.683 56.2416ZM118.077 56.2416H113.274C112.387 56.2416 111.673 55.5275 111.673 54.641C111.673 53.7546 112.387 53.0405 113.274 53.0405H118.077C118.964 53.0405 119.678 53.7546 119.678 54.641C119.678 55.5275 118.964 56.2416 118.077 56.2416ZM108.471 56.2416H103.668C102.782 56.2416 102.067 55.5275 102.067 54.641C102.067 53.7546 102.782 53.0405 103.668 53.0405H108.471C109.358 53.0405 110.072 53.7546 110.072 54.641C110.072 55.5275 109.358 56.2416 108.471 56.2416ZM98.8654 56.2416H94.0625C93.1758 56.2416 92.4615 55.5275 92.4615 54.641C92.4615 53.7546 93.1758 53.0405 94.0625 53.0405H98.8654C99.752 53.0405 100.466 53.7546 100.466 54.641C100.466 55.5275 99.752 56.2416 98.8654 56.2416ZM89.2596 56.2416H84.4568C83.5701 56.2416 82.8558 55.5275 82.8558 54.641C82.8558 53.7546 83.5701 53.0405 84.4568 53.0405H89.2596C90.1463 53.0405 90.8606 53.7546 90.8606 54.641C90.8606 55.5275 90.1463 56.2416 89.2596 56.2416ZM79.6539 56.2416H74.851C73.9643 56.2416 73.2501 55.5275 73.2501 54.641C73.2501 53.7546 73.9643 53.0405 74.851 53.0405H79.6539C80.5406 53.0405 81.2548 53.7546 81.2548 54.641C81.2548 55.5275 80.5406 56.2416 79.6539 56.2416ZM70.0481 56.2416H65.2453C64.3586 56.2416 63.6443 55.5275 63.6443 54.641C63.6443 53.7546 64.3586 53.0405 65.2453 53.0405H70.0481C70.9348 53.0405 71.6491 53.7546 71.6491 54.641C71.6491 55.5275 70.9348 56.2416 70.0481 56.2416ZM60.4424 56.2416H55.6395C54.7528 56.2416 54.0386 55.5275 54.0386 54.641C54.0386 53.7546 54.7528 53.0405 55.6395 53.0405H60.4424C61.3291 53.0405 62.0434 53.7546 62.0434 54.641C62.0434 55.5275 61.3291 56.2416 60.4424 56.2416Z" fill="#CAC9C9"/>
<path d="M230.957 56.2416H228.568C227.681 56.2416 226.967 55.5275 226.967 54.641C226.967 53.7546 227.681 53.0405 228.568 53.0405H230.957C231.843 53.0405 232.558 53.7546 232.558 54.641C232.558 55.5275 231.843 56.2416 230.957 56.2416Z" fill="#CAC9C9"/>
<path d="M67.8807 113.911H65.4916C64.6049 113.911 63.8906 113.197 63.8906 112.311C63.8906 111.424 64.6049 110.71 65.4916 110.71H67.8807C68.7674 110.71 69.4817 111.424 69.4817 112.311C69.4817 113.197 68.7674 113.911 67.8807 113.911Z" fill="#CAC9C9"/>
<path d="M207.459 113.911H202.804C201.918 113.911 201.203 113.197 201.203 112.311C201.203 111.424 201.918 110.71 202.804 110.71H207.459C208.346 110.71 209.06 111.424 209.06 112.311C209.06 113.197 208.346 113.911 207.459 113.911ZM198.149 113.911H193.494C192.607 113.911 191.893 113.197 191.893 112.311C191.893 111.424 192.607 110.71 193.494 110.71H198.149C199.036 110.71 199.75 111.424 199.75 112.311C199.75 113.197 199.036 113.911 198.149 113.911ZM188.839 113.911H184.184C183.297 113.911 182.583 113.197 182.583 112.311C182.583 111.424 183.297 110.71 184.184 110.71H188.839C189.726 110.71 190.44 111.424 190.44 112.311C190.44 113.197 189.726 113.911 188.839 113.911ZM179.529 113.911H174.874C173.987 113.911 173.273 113.197 173.273 112.311C173.273 111.424 173.987 110.71 174.874 110.71H179.529C180.416 110.71 181.13 111.424 181.13 112.311C181.13 113.197 180.416 113.911 179.529 113.911ZM170.219 113.911H165.564C164.677 113.911 163.963 113.197 163.963 112.311C163.963 111.424 164.677 110.71 165.564 110.71H170.219C171.105 110.71 171.82 111.424 171.82 112.311C171.82 113.197 171.105 113.911 170.219 113.911ZM160.909 113.911H156.253C155.367 113.911 154.652 113.197 154.652 112.311C154.652 111.424 155.367 110.71 156.253 110.71H160.909C161.795 110.71 162.509 111.424 162.509 112.311C162.509 113.197 161.795 113.911 160.909 113.911ZM151.598 113.911H146.943C146.057 113.911 145.342 113.197 145.342 112.311C145.342 111.424 146.057 110.71 146.943 110.71H151.598C152.485 110.71 153.199 111.424 153.199 112.311C153.199 113.197 152.485 113.911 151.598 113.911ZM142.288 113.911H137.633C136.746 113.911 136.032 113.197 136.032 112.311C136.032 111.424 136.746 110.71 137.633 110.71H142.288C143.175 110.71 143.889 111.424 143.889 112.311C143.889 113.197 143.175 113.911 142.288 113.911ZM132.978 113.911H128.323C127.436 113.911 126.722 113.197 126.722 112.311C126.722 111.424 127.436 110.71 128.323 110.71H132.978C133.865 110.71 134.579 111.424 134.579 112.311C134.579 113.197 133.865 113.911 132.978 113.911ZM123.668 113.911H119.013C118.126 113.911 117.412 113.197 117.412 112.311C117.412 111.424 118.126 110.71 119.013 110.71H123.668C124.554 110.71 125.269 111.424 125.269 112.311C125.269 113.197 124.554 113.911 123.668 113.911ZM114.358 113.911H109.703C108.816 113.911 108.102 113.197 108.102 112.311C108.102 111.424 108.816 110.71 109.703 110.71H114.358C115.244 110.71 115.959 111.424 115.959 112.311C115.959 113.197 115.244 113.911 114.358 113.911ZM105.047 113.911H100.392C99.5057 113.911 98.7914 113.197 98.7914 112.311C98.7914 111.424 99.5057 110.71 100.392 110.71H105.047C105.934 110.71 106.648 111.424 106.648 112.311C106.648 113.197 105.934 113.911 105.047 113.911ZM95.7372 113.911H91.0822C90.1955 113.911 89.4812 113.197 89.4812 112.311C89.4812 111.424 90.1955 110.71 91.0822 110.71H95.7372C96.6239 110.71 97.3382 111.424 97.3382 112.311C97.3382 113.197 96.6239 113.911 95.7372 113.911ZM86.4271 113.911H81.772C80.8853 113.911 80.171 113.197 80.171 112.311C80.171 111.424 80.8853 110.71 81.772 110.71H86.4271C87.3137 110.71 88.028 111.424 88.028 112.311C88.028 113.197 87.3137 113.911 86.4271 113.911ZM77.1169 113.911H72.4618C71.5751 113.911 70.8608 113.197 70.8608 112.311C70.8608 111.424 71.5751 110.71 72.4618 110.71H77.1169C78.0036 110.71 78.7178 111.424 78.7178 112.311C78.7178 113.197 78.0036 113.911 77.1169 113.911Z" fill="#CAC9C9"/>
<path d="M214.504 113.911H212.114C211.228 113.911 210.513 113.197 210.513 112.311C210.513 111.424 211.228 110.71 212.114 110.71H214.504C215.39 110.71 216.104 111.424 216.104 112.311C216.104 113.197 215.39 113.911 214.504 113.911Z" fill="#CAC9C9"/>
<path d="M139.308 147.794C134.283 147.794 95.6883 148.213 68.6198 121.471C50.5659 103.668 44.2852 76.8273 42.2409 56.6602C41.9454 53.7053 38.0046 54.8134 37.6105 48.2634C37.1671 41.1717 41.3542 41.9103 41.3296 39.3001C41.3296 33.0702 41.6498 29.2043 41.6498 29.0566C42.3395 21.4477 50.3196 -16.5473 139.677 -16.6458V-8.69217C106.033 -8.64292 81.0087 -3.25024 65.2947 7.38737C51.7482 16.5721 49.827 26.8403 49.5561 29.7706C48.9896 36.1236 48.7679 51.2182 51.6989 67.4455C55.4919 88.5484 63.0534 104.8 74.1862 115.807C100.171 141.441 138.544 139.84 139.702 139.84L139.801 147.794C139.801 147.794 139.554 147.794 139.308 147.794Z" fill="#E5E4E4"/>
<path d="M46.3788 75.3745C39.975 71.4839 26.256 69.5878 21.5024 69.1938L22.1674 61.2649C22.9309 61.3387 41.2065 62.9147 50.5167 68.5782L46.3788 75.3745Z" fill="#E5E4E4"/>
<path d="M21.8469 74.0449C26.812 74.0449 30.8369 70.0209 30.8369 65.0571C30.8369 60.0932 26.812 56.0693 21.8469 56.0693C16.8819 56.0693 12.8569 60.0932 12.8569 65.0571C12.8569 70.0209 16.8819 74.0449 21.8469 74.0449Z" fill="#E5E4E4"/>
<path d="M139.997 147.794C145.022 147.794 183.617 148.213 210.686 121.471C228.74 103.668 235.02 76.8273 237.065 56.6602C237.36 53.7053 241.301 54.8134 241.695 48.2634C242.139 41.1717 237.951 41.9103 237.976 39.3001C237.976 33.0702 237.656 29.2043 237.656 29.0566C236.966 21.4477 228.986 -16.5473 139.628 -16.6458V-8.69217C173.273 -8.64292 198.297 -3.25024 214.011 7.38737C227.558 16.5721 229.479 26.8403 229.75 29.7706C230.316 36.1236 230.538 51.2182 227.607 67.4455C223.814 88.5484 216.252 104.8 205.119 115.807C179.135 141.441 140.761 139.84 139.603 139.84L139.505 147.794C139.505 147.794 139.751 147.794 139.997 147.794Z" fill="#E5E4E4"/>
<path d="M232.927 75.3745L228.789 68.5782C238.099 62.9147 256.375 61.3387 257.138 61.2649L257.803 69.1938C253.05 69.5878 239.331 71.4839 232.927 75.3745Z" fill="#E5E4E4"/>
<path d="M257.458 74.0449C262.424 74.0449 266.448 70.0209 266.448 65.0571C266.448 60.0932 262.424 56.0693 257.458 56.0693C252.493 56.0693 248.469 60.0932 248.469 65.0571C248.469 70.0209 252.493 74.0449 257.458 74.0449Z" fill="#E5E4E4"/>
<path d="M173.445 85.1997C171.007 85.2982 165.662 85.5198 166.426 89.041C167.189 92.5623 172.362 93.4488 174.381 92.6854C176.401 91.9221 178.667 90.0999 178.371 88.6717C178.076 87.2435 174.455 85.1751 173.47 85.2243L173.445 85.1997Z" fill="#8D8D8E"/>
<path d="M168.224 93.1777C165.785 93.2762 160.441 93.4978 161.204 97.0191C161.968 100.54 167.14 101.427 169.16 100.663C171.179 99.9001 173.445 98.0779 173.15 96.6497C172.854 95.2215 169.233 93.1531 168.248 93.2024L168.224 93.1777Z" fill="#8D8D8E"/>
<path d="M163.002 101.18C160.564 101.279 155.219 101.501 155.982 105.022C156.746 108.543 161.918 109.43 163.938 108.666C165.958 107.903 168.224 106.081 167.928 104.652C167.632 103.224 164.012 101.156 163.027 101.205L163.002 101.18Z" fill="#8D8D8E"/>
<path d="M187.46 85.5195C185.021 85.618 179.677 85.8396 180.44 89.3609C181.204 92.8821 186.376 93.7686 188.396 93.0053C190.415 92.2419 192.681 90.4197 192.386 88.9915C192.09 87.5633 188.47 85.4949 187.484 85.5442L187.46 85.5195Z" fill="#8D8D8E"/>
<path d="M182.238 93.4978C179.8 93.5963 174.455 93.8179 175.218 97.3391C175.957 100.86 181.154 101.747 183.174 100.983C185.169 100.22 187.46 98.398 187.164 96.9698C186.869 95.5416 183.248 93.4732 182.263 93.5224L182.238 93.4978Z" fill="#8D8D8E"/>
<path d="M177.017 101.5C174.578 101.599 169.234 101.821 169.997 105.342C170.761 108.863 175.933 109.75 177.953 108.986C179.972 108.223 182.238 106.401 181.943 104.972C181.647 103.544 178.026 101.476 177.041 101.525L177.017 101.5Z" fill="#8D8D8E"/>
<path d="M201.499 85.8396C199.06 85.9381 193.716 86.1597 194.479 89.681C195.243 93.2022 200.415 94.0886 202.435 93.3253C204.454 92.5619 206.72 90.7398 206.425 89.3116C206.129 87.8834 202.509 85.8149 201.523 85.8642L201.499 85.8396Z" fill="#8D8D8E"/>
<path d="M196.277 93.8425C193.839 93.941 188.494 94.1626 189.258 97.6839C190.021 101.205 195.194 102.092 197.213 101.328C199.233 100.565 201.499 98.7427 201.203 97.3145C200.908 95.8863 197.287 93.8179 196.302 93.8671L196.277 93.8425Z" fill="#8D8D8E"/>
<path d="M191.056 101.821C188.617 101.919 183.273 102.141 184.036 105.662C184.8 109.183 189.972 110.07 191.992 109.306C194.011 108.543 196.277 106.721 195.982 105.293C195.686 103.864 192.066 101.796 191.08 101.845L191.056 101.821Z" fill="#8D8D8E"/>
<path d="M215.538 86.1599C213.1 86.2584 207.755 86.48 208.519 90.0012C209.257 93.5225 214.454 94.4089 216.474 93.6456C218.494 92.8822 220.76 91.06 220.464 89.6318C220.169 88.2036 216.548 86.1352 215.563 86.1845L215.538 86.1599Z" fill="#8D8D8E"/>
<path d="M210.316 94.1626C207.878 94.2611 202.533 94.4827 203.297 98.004C204.06 101.525 209.233 102.412 211.252 101.648C213.272 100.885 215.538 99.0627 215.242 97.6345C214.947 96.2063 211.326 94.1379 210.341 94.1872L210.316 94.1626Z" fill="#8D8D8E"/>
<path d="M205.095 102.165C202.657 102.264 197.312 102.486 198.075 106.007C198.839 109.528 204.011 110.414 206.031 109.651C208.051 108.888 210.317 107.066 210.021 105.637C209.725 104.209 206.105 102.141 205.12 102.19L205.095 102.165Z" fill="#8D8D8E"/>
<path d="M266.695 -47.9922H14.9014V46.4412H266.695V-47.9922Z" fill="white"/>
</g>
<path d="M174.307 70.2034V80.9887" stroke="#CE0E2D" stroke-width="0.35" stroke-miterlimit="10"/>
<path d="M171.771 71.9515L174.283 62.4712L176.844 71.9515H171.771Z" fill="#CE0E2D"/>
<path d="M186.105 70.2034V80.9887" stroke="#CE0E2D" stroke-width="0.35" stroke-miterlimit="10"/>
<path d="M183.568 71.9515L186.105 62.4712L188.642 71.9515H183.568Z" fill="#CE0E2D"/>
<path d="M197.903 70.2034V80.9887" stroke="#CE0E2D" stroke-width="0.35" stroke-miterlimit="10"/>
<path d="M195.366 71.9515L197.903 62.4712L200.44 71.9515H195.366Z" fill="#CE0E2D"/>
<path d="M209.701 70.2034V80.9887" stroke="#CE0E2D" stroke-width="0.35" stroke-miterlimit="10"/>
<path d="M207.164 71.9515L209.701 62.4712L212.238 71.9515H207.164Z" fill="#CE0E2D"/>
<path d="M188.026 27.5791C192.533 27.6283 196.597 28.1947 201.228 27.9977C205.538 27.8992 209.479 27.9484 213.567 28.1701C216.572 28.3424 219.06 28.5148 219.873 28.6379C220.686 28.761 221.942 29.549 222.828 30.3123C223.469 31.0264 222.927 33.4889 220.562 34.9663C219.454 36.1729 220.193 38.4137 213.986 45.0622C212.287 46.8598 211.228 47.5985 210.636 48.1895C210.045 48.7804 207.976 48.7804 206.843 48.4111C202.853 47.697 196.819 49.3222 192.78 49.4207C188.272 49.4699 184.11 49.4207 181.056 48.2141C177.066 47.7462 171.401 47.6724 168.716 41.2947C166.844 38.7831 167.879 35.902 168.347 33.0702C171.081 28.17 175.637 30.1892 178.765 28.958C180.514 28.3917 182.977 27.9977 185.514 27.8254C185.514 27.8254 186.918 27.6283 188.001 27.5791H188.026Z" fill="#CD8B56"/>
<path d="M205.957 27.8744C211.031 27.9729 221.178 28.293 222.262 29.9182C224.011 31.371 221.769 33.0455 218.223 35.9511C215.242 38.9553 214.7 37.9457 212.582 37.6502C205.563 36.8622 199.233 41.4177 192.262 40.3834C185.637 39.5708 179.085 38.7829 172.682 36.8376C169.381 35.8034 172.017 32.2329 172.755 31.5927C174.11 30.46 177.386 29.5488 179.997 28.6131C184.135 27.4312 189.898 27.6036 194.824 27.7513C198.494 27.9237 202.188 27.8006 205.957 27.8744Z" fill="#F3C286"/>
<path d="M179.036 39.6695C179.578 39.9896 179.874 39.7926 180.219 40.0635C180.564 40.3343 180.416 40.7283 180.243 40.8268C178.618 41.6394 178.101 40.2358 175.293 39.1523C174.061 38.6845 173.445 38.3644 172.707 37.6995C171.179 36.3698 171.007 34.326 170.539 34.2521C170.391 34.1783 170.096 34.6461 169.948 36.6407C170.145 36.5176 171.081 35.7788 171.081 35.7788C171.081 35.7788 170.219 32.233 169.948 36.6407C169.702 40.9499 170.687 38.4875 172.559 40.3589C173.889 41.7133 173.963 46.1948 174.702 46.8843C178.864 47.7462 187.189 50.4548 188.839 48.9035C188.913 48.8543 188.15 48.2632 186.672 47.5491C186.179 47.2783 185.268 42.452 184.43 41.8364C183.174 40.9746 182.411 39.8172 181.549 39.0784C180.465 38.1427 180.613 38.3151 177.288 38.0688" fill="#521A10"/>
<path d="M215.242 28.2685C219.725 28.367 219.922 28.6379 219.922 28.6379C219.922 28.6379 223.69 30.0907 222.878 30.3123C222.311 30.46 224.503 30.46 222.262 32.4792C222.065 32.7008 220.907 33.5381 219.528 34.2029C214.43 36.69 212.508 35.2371 212.459 35.4834C212.41 35.6557 213.789 36.8131 215.809 35.6558C216.006 35.5326 217.188 34.8924 218.863 33.6612C219.208 33.3903 219.528 33.1441 219.824 32.8486C220.316 32.4546 220.686 31.9621 221.252 30.8787C221.695 30.1153 220.661 30.8048 220.71 30.6324C220.809 30.4108 220.415 30.263 220.045 30.066C219.799 29.9183 219.356 29.8198 219.257 29.7952C217.902 29.4505 215.76 29.1303 214.947 29.0072C213.962 28.8841 213.888 28.8595 213.888 28.8595C212.508 28.6871 208.691 28.6871 208.765 28.8595C208.765 28.9826 210.513 29.0072 210.981 29.3273C211.326 29.549 210.735 29.8444 210.218 29.9922C209.725 29.7213 209.331 29.4012 208.691 29.155C208.74 29.1796 208.888 29.4997 208.223 29.6228C207.533 29.7459 206.129 29.6228 205.267 29.2288C204.799 29.0565 204.06 28.8841 203.05 28.7117C202.582 28.6132 201.4 28.4901 200.243 28.3916C197.952 28.2192 195.637 28.0715 193.469 27.973C190.883 27.8007 188.617 27.8745 185.908 28.0223C182.854 28.2685 181.228 28.9826 178.642 29.4504C178.642 29.4504 176.943 28.958 182.041 28.0223C185.489 27.4313 188.617 27.4313 192.238 27.5298C195.711 27.6283 199.011 27.8007 202.583 27.7268C206.942 27.776 211.006 28.1208 215.316 28.1947L215.242 28.2685Z" fill="#A8683E"/>
<path d="M175.81 30.0168C175.81 30.0168 174.554 30.1645 173.47 31.0756C172.386 32.0113 171.696 27.8991 174.332 31.8636C176.401 34.8431 179.036 37.1824 182.386 38.3644C185.366 38.8076 189.184 39.5217 191.622 39.8664C189.873 39.6941 188.026 39.1031 184.652 37.6995C180.415 35.9758 178.617 32.3561 176.918 31.3465C175.292 30.3862 177.189 29.6228 177.189 29.6228C177.263 29.6228 175.785 30.0168 175.785 30.0168H175.81Z" fill="#F3C286"/>
<path d="M187.164 39.1522C191.154 40.2357 195.982 42.2549 200.144 40.679C202.657 39.5463 205.193 38.4874 207.878 37.921C210.366 37.133 211.573 37.1331 213.149 36.4682C212.829 36.3205 212.632 36.222 212.213 36.0742C209.06 36.025 206.203 36.5174 203.149 37.2315C200.464 38.2904 197.657 39.6447 194.8 40.0141C191.425 39.3985 188.051 38.6598 184.701 37.9457" fill="#F3C286"/>
<path d="M196.278 37.3548C193.445 38.8569 190.416 38.9307 187.337 38.9554C184.135 38.3644 180.416 37.6502 178.642 34.3752C178.642 34.3752 177.633 36.2713 182.485 38.389C186.179 39.9895 190.785 40.6545 194.8 39.9896C195.366 39.0539 195.662 38.4875 196.278 37.3302V37.3548Z" fill="#F3C286"/>
<path d="M202.558 29.0073C200.563 28.6133 198.001 28.441 195.538 28.2686C192.829 28.0963 190.317 28.0716 189.159 28.1455C186.844 28.2932 185.933 28.441 185.933 28.441C183.519 28.441 180.021 28.5641 178.519 29.2043C177.829 30.0169 178.248 30.9034 179.381 31.6175C181.007 32.6024 183.494 37.0102 187.435 38.8324C191.376 40.039 195.612 40.0635 199.602 39.0047C203.814 38.069 207.853 37.3795 212.09 36.8132C213.765 36.2715 217.434 33.0949 217.434 33.0949C217.434 33.0949 218.099 33.0211 219.824 31.8145C221.572 30.4355 220.242 30.731 219.479 30.4848C219.109 30.3617 219.528 30.337 216.843 29.7953C214.134 29.2782 214.577 29.4013 213.912 29.3028C213.838 29.155 209.627 28.7857 209.627 28.7857C209.627 28.7857 207.336 28.7365 207.976 29.1797C208.124 29.3028 208.026 29.7707 207.262 29.8938C206.671 29.9923 205.612 29.8938 204.725 29.6476" fill="#D4854A"/>
<path d="M201.647 28.3669C202.262 28.3915 203.272 28.4161 204.602 28.1945C204.602 28.1945 207.213 28.5639 208.198 28.6377C209.183 28.7116 208.346 28.4654 210.513 28.5885C212.705 28.7116 213.075 28.8101 215.242 28.9332C217.41 29.0563 217.262 29.1056 218.814 29.4749C220.439 29.8689 220.957 29.992 221.227 30.3122C221.523 30.6323 221.966 31.3956 221.966 31.3956C221.966 31.3956 222.631 31.0017 221.942 30.2137C221.252 29.4257 222.287 29.7704 220.809 29.3272C218.641 28.7609 215.587 28.49 212.804 28.1945C210.981 28.0221 207.336 27.8744 207.336 27.8744C207.336 27.8744 202.533 27.8251 200.711 28.0221C199.873 28.1206 201.08 28.4161 201.622 28.3915L201.647 28.3669Z" fill="#D4854A"/>
<path d="M210.907 39.7678C212.361 40.4327 209.972 46.2933 209.972 46.9827C209.873 49.1004 210.292 48.1401 210.242 48.2139C210.169 48.2878 209.159 48.6572 209.159 48.6572C209.159 48.6572 208.026 48.6325 206.794 48.6325C201.671 48.534 197.213 49.6175 191.671 49.3959C191.671 49.3959 192.263 48.6079 194.011 48.1893C195.76 47.7461 198.026 42.5258 201.548 41.4915C202.706 41.1222 202.607 41.1468 204.824 40.3834" fill="#A8683E"/>
<path d="M216.425 40.5559C213.173 44.1756 211.055 48.0662 210.612 48.1893C210.415 48.4602 210.341 48.1401 210.316 47.6476C210.341 47.6476 210.366 47.5245 210.39 47.426C210.71 46.7858 210.957 45.7023 211.178 44.9389C211.277 43.954 213.346 39.2508 213.223 38.192C214.159 38.3643 214.75 38.4136 215.242 38.3151C216.08 38.0688 216.991 37.1085 220.932 34.6953C219.627 35.9019 218.37 38.2165 216.425 40.5312V40.5559Z" fill="#521A10"/>
<path d="M181.672 30.1152C182.435 30.2383 183.346 30.4107 183.519 30.7555C183.642 30.9771 183.346 31.1247 183.519 31.2971C183.864 31.5926 185.095 31.3218 185.563 31.6665C185.785 31.8389 185.563 31.9374 185.809 32.2575C185.957 32.4299 186.203 32.5776 186.696 32.8239C187.386 33.1686 187.534 33.1686 188.001 33.4395C188.42 33.6857 188.322 33.7103 188.716 33.9566C189.208 34.252 189.43 34.2521 189.923 34.5229C190.341 34.7446 190.588 34.9661 190.735 35.0892C191.745 35.9018 194.282 37.2069 194.578 37.0838C194.676 37.0345 194.405 36.8376 193.395 35.7048C192.78 35.0154 192.533 34.6953 192.262 34.6953C191.844 34.6953 191.918 35.5325 191.524 35.5325C191.154 35.5325 190.514 34.7445 190.735 34.6707C191.006 34.5722 193.543 35.9757 195.44 37.6255C195.563 37.724 195.637 38.0196 196.105 38.2166C196.918 38.5859 198.395 38.4628 198.494 38.2166C198.592 37.9211 197.262 37.4039 197.238 37.4286L197.854 37.7979C197.854 37.7979 195.267 36.1481 195.12 36.1974C195.046 36.222 195.489 36.5175 195.415 36.5667C195.243 36.6652 192.287 35.3847 190.957 34.1535C190.76 33.9565 190.391 33.6118 189.701 33.2671C189.356 33.0947 188.888 32.9223 188.494 32.7992C187.731 32.5037 187.755 32.5529 187.558 32.4544C186.868 32.1097 187.09 31.8389 186.425 31.4449C185.957 31.1494 185.834 31.2972 184.972 30.8785C184.479 30.6323 184.405 30.5338 183.74 30.2137C183.149 29.9182 182.878 29.869 182.731 29.8197C182.263 29.7212 181.844 29.7212 181.598 29.7459" fill="#521A10"/>
<path d="M192.681 28.8842C193.445 29.0073 194.356 29.1797 194.529 29.5245C194.652 29.7461 194.356 29.8938 194.529 30.0661C194.873 30.3616 196.105 30.0908 196.573 30.4356C196.795 30.6079 196.573 30.7064 196.819 31.0265C196.967 31.1989 197.213 31.3467 197.706 31.5929C198.395 31.9376 198.543 31.9376 199.011 32.2085C199.43 32.4547 199.331 32.4793 199.726 32.7256C200.218 33.0211 200.44 33.0211 200.932 33.292C201.351 33.5136 201.597 33.7351 201.745 33.8583C202.755 34.6709 205.292 35.9759 205.587 35.8528C205.686 35.8036 205.415 35.6066 204.405 34.4739C203.789 33.7844 203.543 33.4643 203.272 33.4643C202.854 33.4643 202.927 34.3015 202.533 34.3015C202.164 34.3015 201.524 33.5136 201.745 33.4397C202.016 33.3412 204.553 34.7447 206.45 36.3945C206.573 36.493 206.647 36.7886 207.115 36.9856C207.927 37.3549 209.405 37.2318 209.504 36.9856C209.602 36.6901 208.272 36.173 208.248 36.1976L208.863 36.5669C208.863 36.5669 206.277 34.9171 206.129 34.9664C206.055 34.991 206.499 35.2865 206.425 35.3357C206.253 35.4342 203.297 34.1537 201.967 32.9225C201.77 32.7255 201.4 32.3808 200.711 32.0361C200.366 31.8637 199.898 31.6914 199.504 31.5682C198.74 31.2728 198.765 31.322 198.568 31.2235C197.878 30.8787 198.1 30.6079 197.435 30.2139C196.967 29.9185 196.844 30.0662 195.982 29.6476C195.489 29.4013 195.415 29.3029 194.75 28.9827C194.159 28.6873 193.888 28.638 193.74 28.5887C193.272 28.4903 192.854 28.4903 192.607 28.5149" fill="#521A10"/>
<path d="M207.829 29.7951C208.272 29.8936 208.789 30.0167 208.863 30.1644C208.912 30.2629 208.691 30.2876 208.789 30.386C208.937 30.5338 209.75 30.4846 209.971 30.657C210.095 30.7308 209.922 30.7555 210.045 30.9032C210.119 30.9771 210.242 31.0509 210.489 31.174C210.858 31.3464 210.957 31.371 211.178 31.4942C211.4 31.6173 211.326 31.6173 211.548 31.7404C211.794 31.8882 211.942 31.9128 212.188 32.0359C212.41 32.159 212.508 32.2575 212.582 32.3067C213.075 32.6761 214.405 33.3409 214.602 33.3163C214.676 33.3163 214.528 33.2178 214.085 32.7007C213.814 32.3806 213.715 32.2575 213.567 32.2329C213.321 32.2082 213.223 32.5284 213.001 32.5038C212.779 32.5038 212.508 32.1344 212.656 32.1098C212.853 32.0851 214.159 32.7992 215.045 33.5379C215.094 33.5872 215.119 33.7103 215.341 33.8088C215.784 34.0058 216.671 34.055 216.794 33.9319C216.892 33.8334 216.178 33.5379 216.154 33.5379L216.474 33.7103C216.474 33.7103 215.168 32.8977 215.07 32.9223C215.021 32.9223 215.242 33.0701 215.193 33.0947C215.07 33.0947 213.469 32.4545 212.853 31.8882C212.755 31.8143 212.607 31.6419 212.237 31.4695C212.065 31.3956 211.794 31.2972 211.597 31.1987C211.178 31.0509 211.178 31.0509 211.08 31.0017C210.71 30.8293 210.883 30.7308 210.563 30.5338C210.316 30.386 210.218 30.4354 209.774 30.2137C209.503 30.0906 209.479 30.0414 209.134 29.8936C208.814 29.7459 208.666 29.6966 208.568 29.672C208.297 29.5981 208.05 29.5735 207.903 29.5735" fill="#521A10"/>
<path d="M192.09 38.9552C191.573 38.8321 190.982 38.6844 190.932 38.512C190.883 38.3889 191.129 38.3643 191.031 38.2658C190.859 38.0934 189.947 38.118 189.676 37.9456C189.553 37.8471 189.726 37.8225 189.627 37.6502C189.553 37.5517 189.405 37.4778 189.11 37.33C188.691 37.1084 188.593 37.1084 188.322 36.936C188.075 36.7883 188.149 36.7883 187.928 36.6406C187.657 36.4682 187.484 36.4436 187.213 36.2712C186.967 36.1235 186.844 36.025 186.77 35.9511C186.228 35.5079 184.726 34.6953 184.504 34.7199C184.43 34.7199 184.578 34.843 185.046 35.4586C185.341 35.8279 185.44 36.0003 185.612 36.025C185.908 36.0496 186.031 35.6556 186.302 35.7048C186.573 35.7295 186.844 36.1481 186.671 36.1727C186.45 36.1973 184.972 35.3355 183.987 34.4491C183.913 34.3998 183.913 34.2521 183.642 34.1289C183.149 33.9073 182.115 33.8334 181.992 33.9565C181.869 34.0797 182.681 34.4244 182.706 34.4244L182.361 34.2028C182.361 34.2028 183.814 35.1631 183.937 35.1631C183.987 35.1631 183.74 34.9908 183.814 34.9661C183.962 34.9415 185.76 35.7541 186.425 36.419C186.524 36.5175 186.696 36.7144 187.115 36.936C187.312 37.0345 187.607 37.1577 187.854 37.2562C188.322 37.4532 188.322 37.4285 188.445 37.4778C188.863 37.6994 188.642 37.7979 189.011 38.0442C189.282 38.2165 189.405 38.1673 189.898 38.4135C190.194 38.5612 190.218 38.6105 190.612 38.8075C190.982 38.9799 191.129 39.0291 191.253 39.0783C191.548 39.1522 191.844 39.2015 192.016 39.2015" fill="#521A10"/>
<path d="M187.731 28.9333C187.731 28.9333 187.583 29.1302 187.608 29.1549C187.682 29.1795 188.322 28.5393 188.691 28.6131C188.864 28.6624 188.79 28.8102 189.036 29.0564C189.381 29.4012 189.972 29.5735 189.948 29.5735L189.529 29.4011C189.529 29.4011 190.194 29.6227 190.736 30.0167C190.81 30.066 190.81 30.0906 191.401 30.6323C191.918 31.1248 191.943 31.1495 192.041 31.1987C192.509 31.4942 193.248 31.6912 193.494 31.5681C193.667 31.4942 193.494 31.3218 193.618 31.2972C193.79 31.2725 194.381 31.642 194.627 32.0606C194.75 32.2822 194.677 32.3068 194.8 32.4791C195.071 32.8239 195.637 32.9962 195.711 33.0209C196.228 33.1932 196.475 33.1194 196.746 33.2918C196.918 33.3903 196.844 33.4395 197.09 33.6857C197.361 33.9566 197.583 34.0305 197.558 34.129C197.509 34.2767 197.14 34.3013 197.14 34.3259C197.164 34.3752 197.903 34.1289 198.47 34.3013C198.839 34.3998 198.814 34.5968 199.184 34.8923C199.8 35.3848 200.514 35.311 201.376 35.7542C202.263 36.2467 202.46 36.8622 202.386 36.8622C202.287 36.8622 201.548 35.6311 200.144 35.4341C199.603 35.3602 198.962 35.434 198.888 35.6064C198.765 35.9019 200.391 36.222 201.45 37.0346C201.499 37.0839 201.77 37.2808 202.238 37.4532C202.46 37.5271 202.854 37.6748 203.199 37.6256C203.396 37.6256 203.617 37.5271 203.667 37.4286C203.864 37.01 201.204 36.0742 197.952 34.6953C197.361 34.4491 196.721 34.1536 196.031 33.7842C195.834 33.6857 195.465 33.4641 195.12 33.2671C194.258 32.7746 194.233 32.7254 193.962 32.6023C193.396 32.3561 193.248 32.3807 192.829 32.1344C192.534 31.9621 192.558 31.9128 192.214 31.7158C191.918 31.5434 191.647 31.4449 191.376 31.3218C190.81 31.0756 190.76 31.1002 190.613 31.0017C190.342 30.8047 190.465 30.7062 190.194 30.5338C189.923 30.3614 189.701 30.4107 189.48 30.2383C189.283 30.066 189.406 29.9675 189.233 29.7705C189.11 29.5981 188.864 29.475 188.618 29.3765" fill="#521A10"/>
<path d="M200.858 29.6966C200.858 29.6966 200.858 29.4257 201.006 29.4011C201.252 29.4011 201.45 29.7459 202.115 30.1891C202.804 30.657 203.666 30.9771 203.789 30.9278C203.937 30.8539 203.026 30.2384 203.149 30.1891C203.248 30.1399 203.888 30.46 204.43 30.8294C205.021 31.248 205.661 31.8635 205.464 31.9374C205.119 32.0851 202.656 30.5585 202.533 30.6323C202.385 30.7062 205.046 32.6761 206.326 32.4791C206.844 32.4053 207.139 31.962 207.41 32.0359C207.558 32.0852 207.582 32.2575 207.582 32.3067C207.582 32.7007 206.893 32.7993 206.991 33.0209C207.09 33.2179 207.656 33.1686 208.223 33.4887C208.74 33.7842 208.888 34.1536 208.912 34.1536C208.912 34.1536 208.666 33.8335 208.74 33.8335C208.814 33.8335 209.159 34.2274 209.898 34.5475C210.464 34.8184 211.129 34.9661 211.178 34.9169C211.252 34.843 210.538 34.523 209.627 33.8335C209.282 33.5626 209.109 33.4148 209.159 33.3902C209.331 33.2671 211.228 33.9812 212.435 34.7938C212.779 35.0154 213.026 35.2371 212.903 35.3602C212.804 35.4587 212.435 35.4586 212.336 35.4586C210.932 35.4094 209.036 33.8335 208.272 33.1686C207.336 32.356 206.449 31.4942 206.326 31.5188C206.252 31.5188 206.474 31.8143 206.376 31.8389C206.252 31.8635 205.784 31.4942 205.292 31.1494C204.282 30.4599 203.248 29.7459 202.139 29.672C201.499 29.6474 201.031 29.8444 200.858 29.7212V29.6966Z" fill="#521A10"/>
<path d="M213.962 29.2534C213.494 30.2384 213.666 30.5831 213.962 30.7062C214.159 30.7801 214.38 30.7555 214.701 30.9033C214.972 31.0264 214.972 31.1249 215.316 31.3465C215.513 31.4696 215.686 31.5435 215.809 31.5927C216.4 31.839 216.622 31.7897 216.917 31.9621C217.238 32.1591 217.041 32.2822 217.336 32.4545C217.755 32.7008 218.469 32.6762 218.469 32.7008C218.469 32.7254 217.952 32.75 217.927 32.7008C217.903 32.6515 218.518 32.6023 218.568 32.4053C218.617 32.2329 218.223 32.0606 218.05 31.9621C217.435 31.6666 216.942 31.6912 216.77 31.4696C216.646 31.2972 216.819 31.1495 216.72 31.1002C216.573 31.051 216.252 31.3464 215.957 31.2972C215.637 31.2479 215.686 30.854 215.218 30.4354C214.898 30.1399 214.479 29.9675 214.183 29.869" fill="#521A10"/>
<path d="M267.36 122.702H10.5171C4.72898 122.702 0 118.048 0 112.335V10.3667C0 4.65393 4.70435 0 10.5171 0H267.36C273.148 0 277.877 4.65393 277.877 10.3667V112.335C277.877 118.048 273.148 122.702 267.36 122.702ZM10.5171 1.2312C5.39399 1.2312 1.23151 5.31878 1.23151 10.3667V112.335C1.23151 117.358 5.39399 121.471 10.5171 121.471H267.36C272.483 121.471 276.621 117.358 276.621 112.335V10.3667C276.621 5.31878 272.458 1.2312 267.36 1.2312H10.5171Z" fill="#D8D8D8"/>
<g clip-path="url(#clip1_6640_12835)">
<path d="M225.252 40.7703L225.034 38.5951L183.145 41.9666C181.702 42.0823 180.048 43.112 180.064 43.2873C180.083 43.4714 181.911 44.2109 183.355 44.0922L225.252 40.7703Z" fill="#C7C8C9"/>
<path d="M225.046 38.7159L183.202 42.083C181.709 42.2047 180.155 43.0436 180.059 43.29C180.234 43.1539 181.741 42.5232 183.242 42.4012L225.068 38.9512L225.043 38.7146L225.046 38.7159Z" fill="#7F7F7F"/>
<path d="M225.197 40.228L225.223 40.4865L183.33 43.8567C181.887 43.9724 180.261 43.4696 180.061 43.2944L180.064 43.2884C180.258 43.4609 181.857 43.6905 183.3 43.5748L225.194 40.2017L225.195 40.2236L225.197 40.228Z" fill="white"/>
<path d="M225.11 39.3404L225.07 38.9504L183.177 42.3206C181.734 42.4362 180.165 43.0997 180.062 43.2863C180.232 43.1547 181.767 42.7547 183.21 42.639L225.104 39.2659L225.112 39.3374L225.11 39.3404Z" fill="#D8D8D8"/>
<path d="M223.758 40.8887L224.946 40.7945C224.946 40.7945 224.65 40.7513 224.575 39.7308C224.5 38.7102 224.728 38.6193 224.728 38.6193L223.541 38.7134C223.541 38.7134 223.235 38.7659 223.319 39.8228C223.399 40.8564 223.758 40.8887 223.758 40.8887Z" fill="#303030"/>
<path d="M223.398 40.3473L224.648 40.2525C224.648 40.2525 224.655 40.3344 224.733 40.5268L223.501 40.6224C223.501 40.6224 223.455 40.5374 223.399 40.3443L223.398 40.3473Z" fill="#5B5B5B"/>
<path d="M223.305 39.3628C223.305 39.3628 224.556 39.2504 224.559 39.2518C224.568 38.9232 224.641 38.745 224.641 38.745L223.418 38.8447C223.418 38.8447 223.333 38.9749 223.308 39.3641" fill="#1D1D1B"/>
<path d="M223.31 39.4126L224.562 39.3119C224.566 39.0846 224.587 38.9902 224.587 38.9902L223.341 39.0906C223.307 39.272 223.308 39.4156 223.308 39.4156L223.31 39.4126Z" fill="#333333"/>
<path d="M239.252 40.312L225.251 40.7702L225.034 38.595L238.252 36.8885L239.249 40.3106L239.252 40.312Z" fill="#C7C8C9"/>
<path d="M239.265 40.3094L225.226 40.486L225.139 40.2075L238.432 38.6598C238.432 38.6598 239.233 39.991 239.265 40.3094Z" fill="#F4F4F4"/>
<path d="M238.915 36.7657L225.05 38.7159L225.073 38.9511L238.433 38.6602L238.912 36.7643L238.915 36.7657Z" fill="#7F7F7F"/>
<path d="M239.149 38.6039L238.429 38.6609L239.262 40.3105L239.981 40.2535L239.149 38.6039Z" fill="#DDDDDD"/>
<path d="M239.633 36.7068L238.913 36.7638L238.435 38.6597L239.154 38.6026L239.633 36.7068Z" fill="#777777"/>
<path d="M225.066 38.9496L225.098 39.268L238.43 38.66L225.069 38.951L225.066 38.9496Z" fill="#D8D8D8"/>
<path d="M239.985 40.249L239.151 38.6023L239.629 36.7065L240.463 38.3781L239.985 40.249Z" fill="#C7C8C9"/>
</g>
</g>
<defs>
<clipPath id="clip0_6640_12835">
<rect width="278" height="123" fill="white"/>
</clipPath>
<clipPath id="clip1_6640_12835">
<path d="M233.895 53.7278L214.825 45.1894C213.817 44.738 213.369 43.556 213.823 42.5494L220.359 28.0809L241.254 37.4366L233.895 53.7278Z" fill="white"/>
</clipPath>
</defs>
</svg>
