<svg width="278" height="123" viewBox="0 0 278 123" fill="none" xmlns="http://www.w3.org/2000/svg">
<mask id="mask0_1114_1268" style="mask-type:luminance" maskUnits="userSpaceOnUse" x="0" y="0" width="278" height="123">
<path d="M267.36 122.677H10.5171C4.72898 122.677 0 118.023 0 112.335V10.3667C0 4.65395 4.72898 0 10.5171 0H267.36C273.148 0 277.877 4.65395 277.877 10.3667V112.335C277.877 118.048 273.148 122.702 267.36 122.702" fill="white"/>
</mask>
<g mask="url(#mask0_1114_1268)">
<path d="M285.192 51.5628C285.192 84.4852 237.139 111.178 177.854 111.178C118.569 111.178 70.5161 84.4852 70.5161 51.5628C70.5161 18.6404 118.569 -8.05212 177.854 -8.05212C237.139 -8.05212 285.192 18.6404 285.192 51.5628ZM177.854 5.26951C129.357 5.26951 90.0232 27.1111 90.0232 54.0498C90.0232 80.9886 129.333 102.83 177.854 102.83C226.375 102.83 265.685 80.9886 265.685 54.0498C265.685 27.1111 226.375 5.26951 177.854 5.26951Z" fill="#E5E4E4"/>
</g>
<path d="M152.485 22.4818C147.731 24.0331 143.323 26.9634 140.564 31.1987C135.909 40.088 131.254 49.3713 127.535 58.63C127.485 63.6779 126.328 68.9967 130.515 72.9612C137.313 76.9749 148.372 75.0789 155.909 74.9065C164.381 74.6603 173.1 75.005 181.425 73.8477C188.888 72.6903 196.425 69.3415 204.011 69.637C206.228 70.0556 210.07 69.5385 210.981 68.3319C211.893 67.1253 213.691 65.6232 216.326 62.0281C219.011 57.8174 220.563 52.2277 224.725 49.199C228.691 46.0471 231.523 40.4082 229.38 35.4587C226.695 30.2876 223.198 24.8703 221.425 24.1316C219.651 23.3437 214.504 22.5311 208.346 21.6446C199.972 20.4626 192.115 20.6104 183.716 21.817C174.751 23.5899 166.007 20.1179 157.042 20.3641C154.948 20.832 152.46 22.4572 152.46 22.4572L152.485 22.4818Z" fill="#F8DBC9"/>
<path d="M170.76 20.8073C160.834 20.3394 149.209 19.7977 142.51 28.6378C138.544 35.5818 133.199 42.3534 131.943 50.4301C131.254 55.084 130.145 63.2592 136.549 64.2688C148.963 66.1403 161.327 65.894 173.814 65.7216C187.016 65.8201 197.459 56.2414 210.686 55.9459C214.676 55.9459 215.957 57.6203 220.661 51.5874C226.424 45.5791 233.05 42.6981 227.779 32.7992C223.567 21.4229 203.124 20.4872 192.952 20.3641C185.391 20.2902 178.248 21.6199 170.76 20.8073Z" fill="#F9C8BC"/>
<path d="M141.549 63.7764C147.781 63.3824 151.303 64.5644 153.569 65.968C155.367 67.0514 157.14 68.8982 159.677 70.1048C161.376 70.9913 165.367 72.7396 166.352 73.0843C169.283 73.9708 170.834 74.8326 170.736 74.9311C168.1 78.0584 151.919 75.3497 143.988 74.8573C142.387 73.8477 140.071 72.4933 137.239 70.4495C133.249 67.6178 132.116 72.1732 131.402 64.5398C130.687 56.7585 133.249 62.7668 133.249 62.7668C133.249 62.7668 131.722 64.2689 131.402 64.5398C131.155 60.9939 131.549 60.1074 131.845 60.1813C132.707 60.2059 133.618 63.7272 136.82 65.6971C138.372 66.6574 139.603 67.076 142.017 67.6178C147.534 68.849 147.83 70.1048 150.613 68.258C150.884 68.0364 151.919 67.4454 151.721 67.2977C151.721 67.1992 151.106 67.2977 149.529 67.667" fill="#BE453F"/>
<path d="M186.006 20.2164C179.011 21.0536 172.287 20.2656 165.292 20.044C158.002 19.8224 151.82 20.1918 145.711 24.7226C136.795 31.9375 140.81 35.1632 140.81 35.1632C145.391 31.5927 147.707 26.4955 153.421 24.3532C158.618 22.9989 162.977 22.2602 168.322 23.122C172.731 23.6391 177.46 24.3779 182.238 25.3382C184.652 25.8799 187.139 26.6679 188.198 27.2589C190.415 28.2931 192.09 29.4504 193.223 30.5831C195.464 33.341 198.395 33.932 199.602 33.0702C200.809 32.1591 200.095 29.8937 199.972 29.7213C201.548 31.3957 202.755 33.4642 204.06 35.3602C204.848 34.1536 205.686 32.0852 204.701 30.5585C203.371 28.3916 199.848 28.3177 199.725 27.4805C199.331 26.2247 206.893 25.7814 209.824 26.7664C209.824 26.7664 209.971 26.7664 212.09 27.579C213.863 28.2438 218.493 30.2138 221.597 32.5531C221.868 32.8239 222.853 33.4888 223.518 34.4245C224.479 35.6803 225.414 36.6407 225.513 38.2412C225.661 39.4232 225.365 40.482 224.774 41.9102C224.035 43.9294 223.469 44.9144 222.681 45.7023C222.213 46.2687 221.72 46.7858 221.153 47.3521C218.42 49.9131 216.375 51.3166 216.055 51.5875C212.656 54.0745 209.799 52.4001 209.824 52.08C209.873 51.6121 213.814 53.7298 222.582 48.0909C224.971 46.5642 226.868 44.8159 227.163 44.3726C230.759 40.2604 228.518 36.419 229.429 35.2617C230.759 33.6858 221.474 23.9346 221.474 23.9346C221.474 23.9346 220.784 22.0878 211.769 21.9647C203.124 21.8908 194.676 19.9209 186.006 20.1425V20.2164Z" fill="#FEF1E6"/>
<path d="M138.224 36.0004C138.224 36.0004 135.441 41.6147 139.85 48.1647C144.48 55.0841 150.662 60.8215 158.962 62.816C165.613 64.4659 169.184 65.0322 172.484 64.9337C167.879 64.9337 160.588 64.6136 154.972 64.5397C148.445 63.2593 142.928 59.7873 138.249 55.0595C132.239 48.7311 131.722 53.2373 132.682 46.6134C133.643 40.0141 135.958 38.8814 135.958 38.8814C135.958 38.8814 138.347 35.828 138.224 35.9758V36.0004Z" fill="#FEF1E6"/>
<path d="M159.11 63.21C165.514 63.6532 171.967 64.1457 178.396 64.3673C183.593 63.013 188.42 59.9842 193.1 57.448C198.543 55.4534 203.715 53.8775 209.553 53.188C210.366 53.3604 210.76 53.5081 211.4 53.6558C208.641 55.1825 206.425 55.5027 202.041 57.4972C197.238 59.147 192.804 61.6094 188.469 64.2196C181.204 67.9871 171.721 65.6478 164.012 64.7121" fill="#FEF1E6"/>
<path d="M178.396 64.3674C171.13 66.5097 162.435 66.4851 155.145 64.5644C145.564 61.9789 146.918 58.433 146.918 58.433C151.081 63.7272 158.174 64.0719 164.283 64.3428C169.997 63.5302 175.588 62.6683 180.391 59.3441C179.578 61.511 179.159 62.6191 178.396 64.3674Z" fill="#FEF1E6"/>
<path d="M192.706 32.7993C194.775 34.2768 197.016 34.9909 198.05 34.2029C199.405 33.3657 199.036 30.0907 198.568 29.1796C196.745 26.1508 201.351 26.2739 201.351 26.2739C201.351 26.2739 210.144 28.4655 210.464 29.4258C211.893 29.9675 210.883 29.2042 216.868 32.5284C222.853 35.9019 222.065 36.1728 222.951 36.9854C224.749 38.586 225.341 40.9991 222.459 43.8555C219.602 46.4164 218.42 46.7119 218.42 46.7119C218.42 46.7119 212.508 53.1634 209.553 54.5424C201.843 56.5862 194.578 58.7777 187.016 61.4618C179.898 64.2935 172.016 65.3031 164.406 64.1212C156.623 61.8557 149.48 56.3399 145.022 49.6422C141.894 44.8405 139.948 38.6352 140.268 32.8978C142.46 28.1454 149.209 26.9634 153.987 26.6433C153.987 26.6433 155.588 25.3628 159.997 24.1316C162.189 23.5653 167.164 23.4175 172.78 24.2794C177.829 25.092 183.1 26.0523 187.583 28.6132" fill="#CB4B43"/>
<path d="M182.756 21.6445C186.155 20.1671 195.711 19.8716 195.711 19.8716C195.711 19.8716 203.125 20.6103 206.918 21.5214C212.78 23.3928 219.134 24.8456 224.183 28.5885C227.706 31.568 225.193 29.3026 227.558 34.7199C229.922 40.1126 226.425 42.5504 226.425 42.5504C226.425 42.5504 227.287 37.7241 226.302 35.5325C225.316 33.341 224.159 32.6269 220.464 30.0413C216.893 27.6035 217.139 27.2342 212.706 26.6186C208.272 25.9045 207.41 25.3628 202.903 24.6979C198.42 24.0331 200.415 25.6336 198.346 25.2396C196.278 24.8457 190.662 22.5802 190.662 22.5802C188.297 24.3532 186.302 24.3285 185.046 24.2054C184.012 24.3039 181.229 22.4079 182.78 21.6445H182.756Z" fill="#CB4B43"/>
<path d="M197.066 62.6191C193.149 64.5152 193.322 64.4167 191.277 65.3524C185.046 68.061 183.273 71.2622 180.12 72.4441C176.992 73.6261 175.785 74.4879 175.785 74.4879C185.489 74.7588 194.406 71.1391 203.913 70.0802C206.203 69.7847 209.553 69.4646 209.553 69.4646C209.553 69.4646 209.701 69.4646 209.824 69.3415C209.898 69.1938 210.169 68.7998 209.75 65.0815C209.553 63.8257 211.006 60.7969 208.124 59.9597" fill="#F9C8BC"/>
<path d="M225.316 48.7065C218.69 53.9269 217.656 56.2415 216.178 56.8571C214.331 56.7832 213.789 56.7832 211.991 56.734C212.484 58.5808 212.804 60.5507 212.902 62.299C212.73 63.6534 212.114 65.9188 211.696 67.1007C211.696 67.1992 211.671 67.2485 211.622 67.2485C211.474 67.6425 211.252 67.8887 210.636 69.1445C210.39 69.637 213.567 67.2239 218.592 60.0582C221.572 55.5274 223.247 51.1197 225.316 48.7065Z" fill="#BE453F"/>
<path d="M65.664 52.2031L70.6639 50.6271L77.1416 50.307L86.5996 59.3933L91.23 54.2715L93.6192 54.37L105.023 75.1527C105.023 75.1527 105.245 84.0174 105.318 84.7315C105.368 85.1009 104.801 89.3116 104.801 89.3116L100.097 94.9505L63.8906 79.8313V60.0089L65.664 52.1784V52.2031Z" fill="white"/>
<path d="M36.5513 92.0441L36.5998 91.9956H36.5755V92.0441" fill="#1D1D1B"/>
<path d="M101.821 64.1704C104.407 64.5644 108.816 68.5535 105.048 75.1774C101.279 81.8013 89.4567 81.7028 87.0429 81.8259C84.6292 81.949 79.8509 67.1992 82.4617 66.559C85.0725 65.9187 95.8605 63.2839 101.821 64.1704Z" fill="white"/>
<path d="M95.0966 75.3005L95.2444 75.2759C95.8601 76.4332 96.8946 76.7041 98.1015 76.5563C99.7271 76.3347 101.353 76.0639 102.978 75.8176C103.151 75.793 103.323 75.7437 103.52 75.7191C103.52 75.793 103.569 75.8422 103.569 75.9161C103.126 76.0639 102.683 76.2608 102.215 76.3593C100.515 76.7533 98.7911 77.0488 97.0177 76.9257C96.1311 76.8764 95.4414 76.5071 95.0966 75.6452C95.0473 75.5467 95.0966 75.4236 95.0966 75.3251V75.3005Z" fill="black"/>
<path d="M63.201 73.7245C62.1912 73.7984 61.1567 73.823 60.1469 73.9215C59.0386 74.02 58.2504 74.7587 57.3145 75.4235C58.1026 73.3797 61.1567 72.9119 63.201 73.7245Z" fill="black"/>
<path d="M82.6587 70.1541C84.3828 72.2717 84.1365 74.8326 84.5798 77.2704C84.1858 76.9257 84.0872 76.4332 84.0626 75.9653C83.9395 74.02 83.5946 72.1732 82.6833 70.4249C82.6341 70.351 82.6833 70.2525 82.6833 70.1541H82.6587Z" fill="black"/>
<path d="M86.9194 69.6123C87.8061 70.5973 88.3233 73.1089 87.88 74.4632C87.5106 72.7642 87.7076 71.0898 86.9194 69.6123Z" fill="black"/>
<path d="M66.1318 96.8219C66.4028 96.5511 66.723 96.3048 66.9446 95.9847C67.4372 95.2214 67.9052 94.4088 68.3239 93.5962C68.4963 93.2761 68.5948 93.2022 68.915 93.3746C68.1761 94.6796 67.7821 96.2063 66.1318 96.7973V96.8219Z" fill="black"/>
<path d="M95.2446 74.7095C94.5304 73.6753 94.3333 72.5179 94.358 71.2867C94.6535 72.4195 94.9491 73.5768 95.2446 74.7095Z" fill="black"/>
<path d="M70.0232 95.1968L70.0725 96.8466H69.8754C69.8754 96.3049 69.8262 95.7385 69.8262 95.1968H70.0232Z" fill="black"/>
<path d="M85.9342 67.6917C85.7618 67.3962 85.5894 67.0761 85.417 66.7806C85.4909 66.7313 85.5648 66.7067 85.6387 66.6575C85.8111 66.9776 85.9835 67.2731 86.1313 67.5932C86.0574 67.6178 86.0081 67.6424 85.9342 67.6671V67.6917Z" fill="black"/>
<path d="M87.7568 77.492C87.7568 77.0734 87.7815 76.8518 87.8061 76.6302C87.9046 76.6302 87.9785 76.5809 87.9785 76.6055C88.1017 76.8764 88.1509 77.1226 87.7568 77.492Z" fill="black"/>
<path d="M86.0084 59.2456C85.8114 60.2552 85.5651 61.4125 85.368 62.4713C82.8311 63.1854 80.3435 63.8503 77.8805 64.5644C77.1169 64.786 76.3534 65.0322 75.6145 65.3031C75.1219 65.5001 74.7278 65.4016 74.3584 65.0322C73.0037 63.604 71.6244 62.1512 70.2698 60.723C70.0974 60.526 69.9496 60.3044 69.7772 60.1074C68.4964 58.8516 68.2255 57.251 68.127 55.5766C68.127 55.2565 68.127 54.8871 68.2501 54.5916C68.989 52.9911 69.9742 51.6121 71.6737 50.9226C73.0283 50.3563 74.4076 50.0608 75.7869 50.7256C76.5997 51.1196 77.4125 51.5136 78.1021 52.0553C79.7277 53.3604 81.2794 54.7394 82.8311 56.1429C83.9149 57.1279 84.9247 58.1621 86.0577 59.2702L86.0084 59.2456ZM84.7769 60.8461C84.6291 61.3879 84.4813 61.9296 84.3336 62.4713C84.7112 62.1266 84.859 61.5849 84.7769 60.8461Z" fill="white"/>
<path d="M73.4224 65.6971C71.7476 65.968 70.2452 66.2635 68.7427 66.4112C66.8708 66.6082 64.9743 66.6574 63.1024 66.8052C62.6837 66.8298 62.3389 66.7559 62.0187 66.4604C60.7133 65.3031 59.3833 64.1704 58.0779 62.9885C56.4769 61.5356 55.4917 59.7627 55.1962 57.5958C54.9745 56.0445 55.344 54.6409 56.1567 53.3358C56.6001 52.5971 57.2651 52.1292 58.1272 51.9815C59.6542 51.7106 61.0089 51.9076 62.265 53.0403C63.5458 54.173 64.9743 55.1334 66.3782 56.1183C66.7477 56.3646 66.9694 56.6108 67.0186 57.0294C67.1664 58.4084 67.8068 59.5657 68.6935 60.5507C70.0481 62.102 71.4767 63.5548 72.856 65.0569C73.0037 65.2292 73.1515 65.377 73.4224 65.6971ZM68.989 65.3524C70.0235 65.2046 70.3929 64.7614 70.3437 63.8995C69.9003 64.3674 69.457 64.8353 68.989 65.3524Z" fill="white"/>
<path d="M100.319 63.284C95.762 62.1513 91.2793 62.1513 86.7228 62.4222C86.5996 60.994 86.9444 59.7381 87.2893 58.4577C87.5602 57.5466 88.0282 56.7586 88.7178 56.1184C89.038 55.8475 89.3828 55.552 89.7769 55.4043C91.2054 54.8872 92.6586 54.6409 94.1611 55.0349C94.6537 55.1581 95.1216 55.5028 95.4911 55.8475C96.1068 56.4385 96.698 57.0787 97.1659 57.7928C98.1758 59.3688 99.1117 61.0186 100.072 62.6438C100.146 62.7669 100.195 62.9393 100.319 63.2594V63.284Z" fill="white"/>
<path d="M60.6887 66.8053C56.9449 66.8053 53.2996 66.8053 49.679 66.8053C49.2849 64.9092 50.3686 62.9885 52.1174 62.693C53.4228 62.4714 54.8021 62.5699 56.1567 62.5699C56.3538 62.5699 56.6001 62.7177 56.7478 62.89C58.0286 64.0966 59.2847 65.3032 60.5409 66.5098C60.5901 66.559 60.5901 66.6329 60.6887 66.8299V66.8053Z" fill="white"/>
<path d="M83.644 86.3322C82.1169 85.9136 80.5898 85.4949 78.8657 85.0025C79.777 84.7316 80.5406 84.5346 81.3041 84.313C82.0676 84.0667 82.7819 83.7713 83.5454 83.5496C84.2597 83.3526 85.0232 83.2542 85.8607 83.2542C85.4666 83.722 85.0725 84.1652 84.7031 84.6577C84.3336 85.1748 84.038 85.7166 83.644 86.3075V86.3322Z" fill="white"/>
<path d="M104.973 74.3648C105.54 71.6562 105.441 69.1445 104.284 66.6575C106.082 67.6671 106.353 72.1486 104.973 74.3648Z" fill="white"/>
<path d="M84.7768 60.8462C84.8425 61.5849 84.6947 62.1266 84.3335 62.4714C84.4813 61.9297 84.6291 61.3879 84.7768 60.8462Z" fill="black"/>
<path d="M68.9888 65.3524C69.4567 64.8353 69.9247 64.3674 70.3434 63.8995C70.3927 64.7614 69.9986 65.2046 68.9888 65.3524Z" fill="black"/>
<path d="M100.836 54.6408L99.9243 51.9076L116.87 46.0717L117.757 48.8296L100.836 54.6408Z" fill="#1D1D1B"/>
<path d="M116.008 52.2277L128.914 43.4615L113.421 44.4465L116.008 52.2277Z" fill="#1D1D1B"/>
<mask id="mask1_1114_1268" style="mask-type:luminance" maskUnits="userSpaceOnUse" x="103" y="56" width="38" height="17">
<path d="M103.569 64.3182C103.569 64.3182 105.835 65.6479 106.574 68.0364C107.313 70.4249 106.771 72.8381 106.771 72.8381L139.899 60.7969C139.899 60.7969 141.032 60.6492 140.342 58.4084C139.652 56.1676 138.618 56.6108 138.618 56.6108L103.619 64.3182" fill="white"/>
</mask>
<g mask="url(#mask1_1114_1268)">
<path d="M190.908 45.5793C193.617 44.7667 196.4 42.1319 196.277 41.7871C196.154 41.4424 192.41 40.7283 189.701 41.5163L111.057 64.7614L112.288 68.9229L190.908 45.5793Z" fill="#C8C8C9"/>
<path d="M111.328 65.4263L189.898 42.3782C192.73 41.5409 195.932 41.6394 196.351 41.7626C195.981 41.3686 192.533 40.9253 189.75 41.7626L111.205 64.9831L111.328 65.4263Z" fill="#7F7F80"/>
<path d="M112.042 67.8149L190.686 44.5697C193.395 43.7571 196.129 42.2304 196.351 41.7626C196.129 42.2304 193.543 44.2989 190.834 45.1115L112.19 68.3566L112.042 67.8641V67.8149Z" fill="white"/>
<path d="M111.5 66.0419L190.144 42.7968C192.853 41.9842 195.932 41.6394 196.351 41.7626C196.031 41.4917 192.681 41.3686 189.972 42.1812L111.328 65.4263L111.549 66.165L111.5 66.0173V66.0419Z" fill="#D8D8D8"/>
<path d="M113.692 63.998L111.451 64.6629C111.451 64.6629 111.944 64.589 112.485 66.6574C113.027 68.7259 112.682 68.8244 112.682 68.8244L114.924 68.1595C114.924 68.1595 115.392 68.061 114.801 65.968C114.21 63.8749 113.717 64.0227 113.717 64.0227L113.692 63.998Z" fill="#303031"/>
<path d="M115.096 67.5194L112.806 68.1842L112.707 67.6425L115.022 66.953" fill="#5C5C5C"/>
<path d="M113.988 64.1459L111.746 64.8107L111.993 65.2293L114.259 64.5399" fill="#1D1E1B"/>
<path d="M114.259 64.5645L111.993 65.2293L112.239 65.8203L114.505 65.1308" fill="#333333"/>
<path d="M84.5549 71.1391L111.131 64.7615L112.362 68.9229L86.55 77.9354L84.5549 71.1637V71.1391Z" fill="#C8C8C9"/>
<path d="M85.54 74.5125L112.682 67.6178L112.781 68.1842L86.5499 77.9107L85.54 74.5372V74.5125Z" fill="#F4F4F4"/>
<path d="M85.9342 70.7204L105.072 66.7806L104.998 66.4851L85.9588 70.7204H85.9342Z" fill="#C8C8C9"/>
<path d="M85.5401 74.5125L111.328 65.4016L111.18 64.9584L84.5303 71.1144L85.5401 74.4879V74.5125Z" fill="#7F7F80"/>
<path d="M85.54 74.5125L111.525 66.0172L111.352 65.4016L85.54 74.5125Z" fill="#D8D8D8"/>
</g>
<path d="M105.515 76.6056C105.515 76.2362 105.515 75.793 105.688 75.4729C106.574 73.7984 106.968 72.0255 106.944 70.1294C106.895 66.9529 105.023 64.392 102.166 63.7518C101.525 63.6041 101.156 63.2347 100.86 62.6683C99.6533 60.4276 98.3479 58.236 96.8701 56.1676C95.811 54.6655 94.3825 53.9022 92.6584 53.6805C90.4909 53.4097 88.6683 54.0253 87.4614 55.9952C87.1413 56.5369 86.8703 57.1033 86.5994 57.6697C86.4762 57.8913 86.4023 58.1375 86.2546 58.4576C85.3925 57.6697 84.5551 56.9556 83.7915 56.1922C82.2399 54.6901 80.7128 53.1881 79.1857 51.686C78.2498 50.7749 77.1414 50.1593 75.8853 49.7161C73.2252 48.7804 70.1465 49.7407 68.4716 52.0307C67.7081 53.0896 66.7968 54.0992 66.8214 55.6259C65.2943 54.8133 64.0136 53.8529 62.9052 52.7202C62.0924 51.883 61.0826 51.4151 59.9742 51.1196C57.6836 50.4794 55.9103 51.6614 55.1467 52.9911C53.8413 55.3304 53.6443 57.842 54.9743 60.3044C55.2453 60.7969 55.4916 61.2648 55.7625 61.7819C54.8758 61.8065 54.0384 61.7819 53.2256 61.905C52.265 62.0527 51.2552 62.2251 50.3685 62.6191C49.0631 63.1855 48.2996 64.2443 48.2749 65.7217C48.2749 66.0911 48.2257 66.4358 48.2011 66.8298C47.8562 66.9037 47.5853 66.9776 47.2897 67.0022C43.4967 67.4208 39.7529 68.061 36.083 69.1445C30.6398 70.745 25.5414 73.0597 20.9355 76.4086C19.3592 77.5659 17.8075 78.7479 16.2065 79.856C13.1524 81.949 10.0983 84.0421 6.99488 86.0612C4.70429 87.5633 3.00481 88.5729 0.640318 89.9518C-0.0493254 90.3458 0.566427 90.7891 0.443277 91.6263C0.861989 91.4047 0.270866 91.2569 0.541797 91.1092C2.09349 90.1981 2.95555 89.7056 4.50724 88.8191C7.78305 86.9477 11.1081 85.1748 14.0884 82.8355C15.8371 81.4812 17.5612 80.0776 19.3346 78.7479C21.1326 77.4182 22.9059 75.99 24.8517 74.8573C29.4083 72.1979 34.3836 70.5973 39.5066 69.44C43.1026 68.652 46.7479 68.1595 50.4178 68.0118C53.8906 67.864 57.3635 67.9625 60.8363 67.864C63.6441 67.7902 66.452 67.6424 69.2598 67.4454C70.442 67.3715 71.6489 67.2731 72.8065 66.9776C76.0823 66.1403 79.3335 65.2539 82.5847 64.3182C84.9984 63.6287 87.4614 63.3578 89.9491 63.3824C91.3037 63.3824 92.6584 63.4563 94.013 63.5548C96.1559 63.7026 98.3233 63.8011 100.417 64.3674C100.786 64.4659 101.131 64.589 101.501 64.7121C101.501 64.786 101.501 64.8599 101.476 64.9338C101.082 64.9338 100.712 64.9338 100.318 64.983C99.3085 65.1061 98.274 65.2046 97.2888 65.4262C96.6238 65.574 95.9588 65.8941 95.3923 66.2635C94.0869 67.1007 93.816 68.258 94.3579 70.2772C94.3579 69.7847 94.3579 69.3907 94.3825 68.9967C94.4318 68.061 94.8012 67.3469 95.6633 66.9283C96.0081 66.7559 96.3775 66.5836 96.747 66.4358C98.2494 65.7956 99.8258 65.7464 101.402 65.5494C102.141 65.4509 102.683 65.7464 103.175 66.2388C103.89 66.9776 104.333 67.8394 104.555 68.8244C104.973 70.6712 105.244 72.5426 104.432 74.3648C104.358 74.5125 104.308 74.7588 104.382 74.808C104.826 75.1528 104.456 75.3744 104.284 75.6206C103.471 76.7533 102.338 77.4921 101.131 78.1323C99.2839 79.1172 97.2888 79.7575 95.2446 80.1761C91.4761 80.9394 87.7077 81.5796 83.9393 82.2937C83.7423 82.3184 83.5699 82.3923 83.3728 82.4661C82.5354 82.7862 81.7226 83.1556 80.8852 83.3772C79.3828 83.7958 77.8557 84.0667 76.3779 84.5345C73.9149 85.2979 72.0676 86.9231 70.5898 88.9915C70.1218 89.6317 69.7278 90.3212 69.2844 90.9861C67.979 92.8821 66.5012 94.6304 64.2106 95.4184C64.0382 95.4676 63.8904 95.64 63.7426 95.7385C63.7919 95.7878 63.8165 95.8616 63.8658 95.9109C64.7279 95.5169 65.7131 95.2953 66.4273 94.7289C68.25 93.3007 69.9987 91.7494 71.2302 89.7549C72.24 88.1297 73.9149 87.3417 75.3434 86.2336C78.1266 87.9327 79.6291 90.4936 80.762 93.3253C80.8852 91.7002 79.9493 90.4689 79.0872 89.3116C78.2252 88.105 77.0675 87.0954 76.0577 85.9874C76.5503 85.6426 77.0922 85.5441 77.6587 85.6673C79.6291 86.0859 81.6487 86.406 83.5699 86.9723C87.289 88.105 86.2792 87.3663 89.4318 90.075C89.555 90.1735 89.7274 90.2227 89.8752 90.3212C89.9244 90.2473 89.9737 90.1981 90.023 90.1242C89.3333 89.3116 88.5205 88.5975 87.6339 88.0312C86.6979 87.4402 85.6634 86.997 84.5551 86.4552C85.1708 85.5934 85.7373 84.7315 86.3777 83.9436C87.0674 83.1063 87.9294 82.5646 89.0378 82.3922C90.7865 82.0968 92.5352 81.7028 94.284 81.2842C95.146 81.0872 95.9588 81.1364 96.7962 81.3827C98.1755 81.8013 99.4563 82.343 100.737 83.0325C100.934 83.131 101.156 83.2048 101.377 83.2787C101.402 83.2048 101.427 83.131 101.451 83.0571C99.9489 81.949 98.1755 81.4319 96.4022 80.8409C99.2593 79.8313 102.19 79.0187 104.678 76.9503C104.752 77.5167 104.826 77.9353 104.875 78.3539C104.949 79.2896 104.998 80.2007 105.072 81.1364C105.22 83.2541 105.269 85.3718 104.875 87.4648C104.752 88.0558 104.555 88.696 104.235 89.2131C103.077 91.1092 101.624 92.8082 99.9982 94.3349C98.1509 96.0832 96.1805 97.7084 94.1608 99.2598C92.2397 100.737 90.4417 102.362 88.7668 104.086C87.9787 104.899 87.1905 105.687 86.4516 106.548C85.491 107.632 84.5797 108.765 83.6438 109.897C82.6586 111.079 81.4024 111.917 79.9985 112.384C78.1759 112.975 76.304 113.394 74.3582 113.492C72.0184 113.64 69.6785 113.911 67.3633 114.207C64.5062 114.576 61.6737 115.044 58.8166 115.389C55.6393 115.783 52.4374 116.078 49.2601 116.423C47.9548 116.57 46.6247 116.743 45.3193 116.964C44.1371 117.137 42.9795 117.383 41.7972 117.58C38.3736 118.146 34.9254 118.614 31.5265 119.328C27.9058 120.092 24.3345 121.052 20.7385 121.963H24.3837C24.901 121.815 25.4428 121.668 25.9601 121.52C28.4231 120.88 30.9353 120.436 33.423 119.919C35.4427 119.525 37.4623 119.156 39.482 118.836C41.6741 118.491 43.8908 118.343 46.0582 117.949C51.0335 117.038 56.0581 116.373 61.1072 115.906C61.6245 115.856 62.1663 115.758 62.6836 115.709C65.9101 115.315 69.112 114.896 72.3386 114.502C74.2351 114.28 76.1562 114.108 78.0527 113.813C80.2694 113.468 82.2152 112.458 83.7915 110.858C85.4171 109.208 86.9196 107.46 88.5205 105.785C89.7767 104.48 91.0328 103.15 92.3875 101.944C94.1362 100.368 95.9588 98.8904 97.7568 97.3883C99.7765 95.7139 101.574 93.8425 103.372 91.9218C105.22 89.9272 106.033 87.6372 105.959 84.9532C105.909 83.6235 105.909 82.2937 105.86 80.9887C105.786 79.5358 105.688 78.083 105.614 76.6302L105.515 76.6056ZM49.6789 66.8052C49.2848 64.9091 50.3685 62.9885 52.1172 62.693C53.4226 62.4713 54.8019 62.5698 56.1566 62.5698C56.3536 62.5698 56.5999 62.7422 56.7477 62.89C58.0285 64.0719 59.2846 65.3031 60.5407 66.5097C60.59 66.559 60.59 66.6328 60.6885 66.8298C56.9447 66.8298 53.2995 66.8298 49.6789 66.8298V66.8052ZM68.7672 66.4112C66.8953 66.6082 64.9988 66.6574 63.1269 66.8052C62.7082 66.8298 62.3634 66.7559 62.0432 66.4605C60.7378 65.3031 59.4077 64.1704 58.1024 62.9885C56.5014 61.5356 55.5162 59.7627 55.2206 57.5958C54.999 56.0445 55.3684 54.6409 56.1812 53.3358C56.6245 52.5971 57.2896 52.1292 58.1516 51.9815C59.6787 51.7106 61.0333 51.9076 62.2895 53.0403C63.5702 54.173 64.9988 55.1334 66.4027 56.1183C66.7722 56.3646 66.9938 56.6108 67.0431 57.0294C67.1909 58.4084 67.8312 59.5657 68.7179 60.5507C70.0726 62.102 71.5011 63.5548 72.8804 65.0569C73.0282 65.2292 73.176 65.377 73.4469 65.6971C71.7721 65.968 70.2696 66.2635 68.7672 66.4112ZM85.3679 62.4714C82.831 63.1855 80.3433 63.8503 77.8803 64.5644C77.1168 64.786 76.3533 65.0323 75.6144 65.3031C75.1218 65.5001 74.7277 65.4016 74.3582 65.0323C73.0036 63.6041 71.6243 62.1512 70.2696 60.723C70.0972 60.526 69.9494 60.3044 69.777 60.1074C68.4963 58.8516 68.2253 57.251 68.1268 55.5766C68.1268 55.2565 68.1268 54.8871 68.25 54.5916C68.9889 52.9911 69.9741 51.6121 71.6735 50.9227C73.0282 50.3563 74.4075 50.0608 75.7868 50.7257C76.5996 51.1196 77.4124 51.5136 78.102 52.0554C79.7276 53.3604 81.2793 54.7394 82.831 56.143C83.9147 57.1279 84.9245 58.1621 86.0575 59.2702C85.8605 60.2798 85.6142 61.4371 85.4171 62.496L85.3679 62.4714ZM86.7225 62.4221C86.5994 60.9939 86.9442 59.7381 87.289 58.4576C87.56 57.5465 88.0279 56.7586 88.7176 56.1183C89.0378 55.8475 89.3826 55.552 89.7767 55.4042C91.2052 54.8871 92.6584 54.6409 94.1608 55.0349C94.6534 55.158 95.1214 55.5027 95.4909 55.8475C96.1066 56.4384 96.6977 57.0787 97.1657 57.7928C98.1755 59.3687 99.1115 61.0185 100.072 62.6437C100.146 62.7668 100.195 62.9392 100.318 63.2593C95.7618 62.1266 91.2791 62.1266 86.7225 62.3975V62.4221ZM84.7029 84.6823C84.3334 85.1994 84.0378 85.7411 83.6438 86.3321C82.1167 85.9135 80.5896 85.4949 78.8655 85.0024C79.7768 84.7315 80.5404 84.5345 81.3039 84.3129C82.0674 84.0667 82.7817 83.7712 83.5452 83.5496C84.2595 83.3526 85.0231 83.2541 85.8605 83.2787C85.4664 83.7466 85.0723 84.1898 84.7029 84.6823ZM104.949 74.3402C105.515 71.6315 105.417 69.1199 104.259 66.6328C106.057 67.6424 106.328 72.124 104.949 74.3402Z" fill="black"/>
<path d="M267.36 122.677H10.5171C4.72898 122.677 0 118.023 0 112.335V10.3667C0 4.65395 4.72898 0 10.5171 0H267.36C273.148 0 277.877 4.65395 277.877 10.3667V112.335C277.877 118.048 273.148 122.702 267.36 122.702M10.5171 1.20658C5.39399 1.20658 1.23151 5.3188 1.23151 10.3667V112.335C1.23151 117.358 5.39399 121.471 10.5171 121.471H267.36C272.483 121.471 276.621 117.358 276.621 112.335V10.3667C276.621 5.3188 272.458 1.2312 267.36 1.2312H10.5171V1.20658Z" fill="#D8D8D8"/>
</svg>
