<svg width="265" height="166" viewBox="0 0 265 166" fill="none" xmlns="http://www.w3.org/2000/svg">
<g clip-path="url(#clip0_1110_3838)">
<path d="M255.05 16.5169L10.1199 16.2191C5.28496 16.2133 1.36045 20.1093 1.35454 24.9211L1.21561 138.087C1.20971 142.899 5.12465 146.805 9.95961 146.811L254.89 147.108C259.725 147.114 263.649 143.218 263.655 138.406L263.794 25.2402C263.8 20.4283 259.885 16.5228 255.05 16.5169Z" stroke="#D8D8D8" stroke-miterlimit="10"/>
<path d="M52.7282 0.0667035L21.625 31.6431L159.422 166.079L190.525 134.502L52.7282 0.0667035Z" fill="#E5E4E4"/>
<path d="M47.6492 29.6566C49.6289 29.6566 51.2339 28.0593 51.2339 26.089C51.2339 24.1187 49.6289 22.5215 47.6492 22.5215C45.6694 22.5215 44.0645 24.1187 44.0645 26.089C44.0645 28.0593 45.6694 29.6566 47.6492 29.6566Z" fill="#F9F9F9"/>
<path d="M45.1385 28.6858C45.4714 29.0175 45.867 29.2806 46.3021 29.4601C46.7373 29.6397 47.2037 29.7321 47.6747 29.7321C48.1458 29.7321 48.6122 29.6397 49.0473 29.4601C49.4825 29.2806 49.878 29.0175 50.2109 28.6858C50.5734 28.3173 50.8506 27.8744 51.0233 27.3881C51.196 26.9019 51.2598 26.384 51.2105 25.8706C51.1596 26.7178 50.8051 27.5187 50.2109 28.1276C49.878 28.4593 49.4825 28.7224 49.0473 28.902C48.6122 29.0815 48.1458 29.1739 47.6747 29.1739C47.2037 29.1739 46.7373 29.0815 46.3021 28.902C45.867 28.7224 45.4714 28.4593 45.1385 28.1276C44.5185 27.5416 44.1442 26.7441 44.0901 25.8949C44.0474 26.4082 44.1193 26.9246 44.3006 27.4071C44.4818 27.8896 44.7679 28.3263 45.1385 28.6858Z" fill="#E5E4E4" fill-opacity="0.5"/>
<path d="M170.188 149.182C172.168 149.182 173.773 147.584 173.773 145.614C173.773 143.644 172.168 142.046 170.188 142.046C168.208 142.046 166.604 143.644 166.604 145.614C166.604 147.584 168.208 149.182 170.188 149.182Z" fill="#F9F9F9"/>
<path d="M167.652 148.162C167.985 148.494 168.38 148.757 168.816 148.937C169.251 149.116 169.717 149.209 170.188 149.209C170.659 149.209 171.126 149.116 171.561 148.937C171.996 148.757 172.391 148.494 172.724 148.162C173.092 147.798 173.374 147.355 173.547 146.868C173.72 146.381 173.78 145.861 173.724 145.347C173.685 146.197 173.328 147.002 172.724 147.604C172.391 147.936 171.996 148.199 171.561 148.378C171.126 148.558 170.659 148.65 170.188 148.65C169.717 148.65 169.251 148.558 168.816 148.378C168.38 148.199 167.985 147.936 167.652 147.604C167.042 147.011 166.669 146.218 166.604 145.371C166.561 145.885 166.633 146.401 166.814 146.884C166.995 147.366 167.281 147.803 167.652 148.162Z" fill="#E5E4E4" fill-opacity="0.5"/>
<path d="M52.6985 0.108653L52.2207 0.59375L189.495 134.52L189.973 134.035L52.6985 0.108653Z" fill="#EDEDED"/>
<path d="M22.0874 31.1905L21.6094 31.6758L159.372 166.077L159.85 165.592L22.0874 31.1905Z" fill="#CFCECE"/>
<path d="M190.312 134.531L189.824 134.055L158.721 165.632L159.209 166.107L190.312 134.531Z" fill="#CFCECE"/>
<path d="M62.2564 54.29C69.9196 54.29 76.1318 48.1075 76.1318 40.4809C76.1318 32.8544 69.9196 26.6719 62.2564 26.6719C54.5931 26.6719 48.3809 32.8544 48.3809 40.4809C48.3809 48.1075 54.5931 54.29 62.2564 54.29Z" fill="#BFBFBF"/>
<path d="M71.9616 30.6032C69.3354 28.077 65.8145 26.6831 62.1623 26.724C58.5102 26.7649 55.0214 28.2372 52.453 30.8216C51.1316 32.1571 50.1011 33.7494 49.4256 35.4989C48.7501 37.2485 48.4442 39.1179 48.5269 40.9903C48.5672 37.4581 49.9732 34.0771 52.453 31.5497C55.0246 28.9686 58.5152 27.5006 62.1674 27.4643C65.8195 27.4279 69.3386 28.8261 71.9616 31.3555C74.5005 33.8206 75.9782 37.1706 76.0829 40.6991C76.1243 38.8255 75.7802 36.9633 75.0714 35.227C74.3627 33.4908 73.3042 31.9172 71.9616 30.6032Z" fill="#B2B2B2"/>
<path d="M74.4497 28.8801L72.3525 30.9915C72.5207 31.3954 72.5688 31.8388 72.491 32.2691C72.4132 32.6993 72.2129 33.0983 71.9138 33.4184L55.5263 50.0669C55.2099 50.3728 54.8116 50.5812 54.3791 50.6673C53.9465 50.7534 53.498 50.7135 53.0877 50.5523L51.1615 52.5181C50.7743 52.9048 50.5569 53.4284 50.5569 53.9742C50.5569 54.5201 50.7743 55.0437 51.1615 55.4304L151.557 153.356C151.748 153.546 151.974 153.697 152.223 153.8C152.472 153.902 152.739 153.955 153.009 153.955C153.278 153.955 153.545 153.902 153.794 153.8C154.043 153.697 154.269 153.546 154.46 153.356L177.87 129.572C178.064 129.384 178.218 129.16 178.323 128.912C178.428 128.664 178.483 128.397 178.483 128.128C178.483 127.859 178.428 127.592 178.323 127.344C178.218 127.096 178.064 126.872 177.87 126.684L77.4735 28.7345C77.2716 28.5344 77.03 28.3785 76.7641 28.2767C76.4982 28.1748 76.214 28.1293 75.9294 28.143C75.6449 28.1567 75.3662 28.2293 75.1114 28.3562C74.8567 28.4832 74.6312 28.6616 74.4497 28.8801Z" fill="#5B5B5B"/>
<path d="M77.3752 29.5839L177.771 127.509C178.048 127.807 178.235 128.178 178.308 128.577C178.368 128.255 178.348 127.923 178.251 127.61C178.153 127.297 177.98 127.013 177.747 126.781L77.3508 28.8315C77.1605 28.6415 76.9341 28.4907 76.6852 28.3878C76.4362 28.2849 76.1692 28.2319 75.8996 28.2319C75.63 28.2319 75.3633 28.2849 75.1143 28.3878C74.8653 28.4907 74.639 28.6415 74.4487 28.8315L72.3516 30.9429C72.4383 31.1292 72.5036 31.3246 72.5465 31.5254L74.4731 29.5596C74.665 29.3711 74.8924 29.2222 75.1423 29.1214C75.3921 29.0206 75.6595 28.9699 75.9291 28.9721C76.1987 28.9744 76.4653 29.0296 76.7134 29.1345C76.9616 29.2395 77.1865 29.3922 77.3752 29.5839Z" fill="#494949"/>
<path d="M52.9908 51.4262C53.4011 51.5874 53.8492 51.6273 54.2818 51.5413C54.7143 51.4552 55.1129 51.2467 55.4293 50.9408L71.8409 34.2923C72.0844 34.0263 72.2653 33.7098 72.3708 33.3656C72.4762 33.0214 72.5035 32.6582 72.4505 32.3022C72.3752 32.7709 72.1533 33.204 71.8165 33.54L55.4293 50.1885C55.1129 50.4944 54.7143 50.7028 54.2818 50.7889C53.8492 50.875 53.4011 50.8351 52.9908 50.6739L51.0642 52.6397C50.828 52.8783 50.657 53.1729 50.5674 53.4957C50.4777 53.8185 50.4726 54.1587 50.5522 54.4841C50.6153 54.0791 50.7928 53.7003 51.0642 53.392L52.9908 51.4262Z" fill="#5B5B5B"/>
<path d="M65.8908 50.3823L63.7937 48.368L64.5254 50.7949L64.3545 50.9891L61.9159 50.3095L63.989 52.3239L63.6719 52.6879L60.9648 50.0426L61.3063 49.7028L64.0131 50.4552L63.2084 47.7856L63.5499 47.4458L66.2323 50.0668L65.8908 50.3823Z" fill="white"/>
<path d="M68.2802 47.3247L68.5973 47.6402L66.8415 49.4362L64.1348 46.8151L65.8661 45.0435L66.1831 45.3347L64.7688 46.7666L65.6467 47.616L66.866 46.3783L67.1586 46.6452L65.9393 47.8829L66.866 48.8052L68.2802 47.3247Z" fill="white"/>
<path d="M68.7931 47.4458L67.1836 43.7326L67.4518 43.4414L71.1829 44.9946L70.8415 45.3587L69.7442 44.8975L68.6711 45.9896L69.1346 47.0818L68.7931 47.4458ZM67.6956 43.9753L68.4517 45.6742L69.4028 44.7034L67.6956 43.9753Z" fill="white"/>
<path d="M70.669 40.8205L69.7668 41.7427L72.2054 44.1697L71.8639 44.5094L69.4253 42.0825L68.5475 42.9805L68.2305 42.6892L70.352 40.5293L70.669 40.8205Z" fill="white"/>
<path d="M74.8408 40.6748L75.1578 40.9661L73.4021 42.762L70.6953 40.1409L72.4266 38.3936L72.7192 38.6848L71.3291 40.0924L72.2072 40.9418L73.4021 39.7041L73.6947 39.9953L72.4754 41.233L73.4021 42.131L74.8408 40.6748Z" fill="white"/>
<path d="M75.6208 40.5051L72.9141 37.8841L74.036 36.7434C74.1441 36.632 74.2779 36.5486 74.426 36.5008C74.5714 36.4776 74.7196 36.4776 74.865 36.5008H75.3038C75.4427 36.5529 75.5679 36.6359 75.6697 36.7434C75.758 36.8282 75.8323 36.9265 75.8893 37.0347C75.9099 37.147 75.9099 37.2621 75.8893 37.3744C75.9136 37.4946 75.9136 37.6183 75.8893 37.7385C75.9099 37.8508 75.9099 37.9659 75.8893 38.0782L77.5718 38.4423L77.1816 38.8063L75.6208 38.4665L74.9383 39.1703L75.9135 40.1168L75.5723 40.4566L75.6208 40.5051ZM74.6701 38.9276L75.4503 38.1268C75.5211 38.0612 75.5717 37.9771 75.5964 37.8841C75.614 37.846 75.6232 37.8046 75.6232 37.7627C75.6232 37.7208 75.614 37.6795 75.5964 37.6414C75.6176 37.5455 75.6176 37.4461 75.5964 37.3502L75.4259 37.1318C75.3524 37.0534 75.2601 36.9949 75.1577 36.9619C75.0696 36.9403 74.9775 36.9403 74.8894 36.9619C74.8018 36.9369 74.7089 36.9369 74.6212 36.9619C74.5324 36.9816 74.454 37.0335 74.4016 37.1075L73.6213 37.8841L74.743 38.9762L74.6701 38.9276Z" fill="white"/>
<path d="M59.8675 50.8193C59.6583 50.6176 59.3786 50.5049 59.0873 50.5049C58.796 50.5049 58.516 50.6176 58.3068 50.8193C58.1815 50.954 58.0935 51.1186 58.0508 51.2971C58.0081 51.4757 58.0122 51.6621 58.063 51.8386C57.6133 51.9856 57.2042 52.2349 56.8681 52.5666C56.5857 52.8443 56.3615 53.1749 56.2085 53.5395C56.0554 53.904 55.9766 54.2951 55.9766 54.6902C55.9766 55.0852 56.0554 55.4764 56.2085 55.8409C56.3615 56.2054 56.5857 56.5361 56.8681 56.8137C57.3942 57.3362 58.1003 57.6399 58.8432 57.6631C58.6034 57.5027 58.4303 57.2613 58.3556 56.9836C58.2337 56.571 58.0873 55.6245 57.3557 55.843C57.4174 55.7948 57.4892 55.7607 57.5656 55.7431C57.642 55.7255 57.7213 55.7247 57.7981 55.7409C57.8748 55.7571 57.9471 55.7899 58.0097 55.8368C58.0723 55.8838 58.1238 55.9439 58.1606 56.0128C58.4045 56.3283 58.4775 56.8137 58.9408 56.9351C59.4042 57.0564 59.7455 56.6438 59.5261 56.2555C59.3066 55.8672 58.4286 56.0856 59.1358 56.6196C59.0585 56.6277 58.9805 56.6164 58.9087 56.5866C58.8369 56.5568 58.7739 56.5095 58.7253 56.4491C58.6767 56.3886 58.6441 56.317 58.6307 56.2408C58.6172 56.1645 58.6232 56.0861 58.6482 56.0128C58.7158 55.9002 58.8073 55.8036 58.9164 55.7299C59.0255 55.6563 59.1497 55.6073 59.2799 55.5865C59.4101 55.5657 59.5433 55.5735 59.6701 55.6094C59.797 55.6453 59.9143 55.7085 60.014 55.7944C60.014 55.0178 59.4043 55.2362 58.7947 55.4061C58.185 55.576 57.1363 55.2362 57.4289 54.2169C57.4289 54.4353 57.4289 55.4061 58.2824 55.0178C57.9759 54.7433 57.7674 54.3771 57.6882 53.9744C57.609 53.5717 57.6637 53.1543 57.8436 52.7851C57.7674 52.9691 57.734 53.1679 57.7466 53.3666C57.7591 53.5652 57.8169 53.7584 57.9156 53.9315C58.0143 54.1046 58.1514 54.253 58.3163 54.3656C58.4813 54.4781 58.6698 54.5518 58.8676 54.581C59.2851 54.5482 59.7004 54.4915 60.1113 54.4111C61.1111 54.4111 61.355 54.9207 61.4038 55.3818C61.4038 54.3868 60.4529 54.2412 59.9896 54.2169C59.8649 54.2272 59.7394 54.2109 59.6216 54.169C59.5039 54.1272 59.3966 54.0607 59.3067 53.9742C59.2485 53.8792 59.2177 53.77 59.2177 53.6587C59.2177 53.5475 59.2485 53.4383 59.3067 53.3433C59.3067 53.8529 59.9407 53.8529 60.2334 53.8286C60.7056 53.7678 61.1848 53.8615 61.5988 54.0956C61.8086 54.2543 61.9624 54.4753 62.0379 54.7266C62.0363 54.3268 61.9533 53.9314 61.7941 53.5644C61.6348 53.1973 61.4025 52.8662 61.1112 52.5909C60.8233 52.3284 60.4936 52.1152 60.1357 51.9599C60.2108 51.7649 60.2255 51.552 60.1777 51.3486C60.1299 51.1453 60.0218 50.9609 59.8675 50.8193ZM59.6237 52.1055C59.5577 52.1746 59.4781 52.2295 59.39 52.267C59.302 52.3046 59.2075 52.3239 59.1117 52.3239C59.0159 52.3239 58.9211 52.3046 58.8331 52.267C58.745 52.2295 58.6654 52.1746 58.5994 52.1055C58.5034 52.0129 58.4359 51.8951 58.4044 51.7658C58.3754 51.6472 58.3756 51.5234 58.4053 51.405C58.4351 51.2866 58.4933 51.1772 58.575 51.0862C58.6432 51.0165 58.7249 50.9611 58.8149 50.9233C58.905 50.8854 59.0017 50.8659 59.0995 50.8659C59.1972 50.8659 59.294 50.8854 59.3841 50.9233C59.4741 50.9611 59.5555 51.0165 59.6237 51.0862C59.7206 51.1777 59.7883 51.2954 59.8187 51.4248C59.849 51.5542 59.8405 51.6896 59.7943 51.8143C59.7662 51.9255 59.7071 52.0265 59.6237 52.1055Z" fill="white"/>
<path d="M82.6279 60.117L70.9001 72.0232L110.987 111.132L122.715 99.2262L82.6279 60.117Z" fill="#424242"/>
<path d="M85.0818 65.0895H85.2038C85.7403 64.5313 86.4231 64.2886 86.7157 64.5798L92.4219 70.1374C92.6902 70.4044 92.422 71.0839 91.9343 71.6421L85.0818 65.0895Z" fill="#F2F2F2"/>
<path d="M91.9606 71.4708L85.3083 64.9808C85.2891 64.962 85.2582 64.9623 85.2393 64.9814L85.0515 65.1721C85.0327 65.1912 85.033 65.222 85.0522 65.2407L91.7045 71.7307C91.7238 71.7495 91.7544 71.749 91.7733 71.7299L91.9611 71.5392C91.9799 71.5201 91.9798 71.4895 91.9606 71.4708Z" fill="#C8C8C9"/>
<path d="M82.6432 80.9857C82.0823 81.5439 81.3995 81.7865 81.1069 81.4953L75.4251 75.9377C75.1325 75.6708 75.425 74.9912 75.9127 74.4088L82.6432 80.9857Z" fill="#F2F2F2"/>
<path d="M82.521 81.0776L75.8513 74.5706C75.832 74.5519 75.8011 74.5521 75.7823 74.5713L75.5945 74.7619C75.5756 74.7811 75.576 74.8118 75.5952 74.8306L82.2649 81.3376C82.2842 81.3564 82.3149 81.3559 82.3337 81.3367L82.5215 81.1461C82.5404 81.127 82.5402 81.0964 82.521 81.0776Z" fill="#C8C8C9"/>
<path d="M110.834 90.2077C111.395 89.6253 112.078 89.4069 112.37 89.6738L118.052 95.2557C118.345 95.5227 118.052 96.2022 117.564 96.7604L110.834 90.2077Z" fill="#F2F2F2"/>
<path d="M117.703 96.5726L111.05 90.0828C111.031 90.0641 111 90.0643 110.981 90.0835L110.794 90.2741C110.775 90.2933 110.775 90.324 110.794 90.3428L117.446 96.8326C117.466 96.8514 117.497 96.8511 117.515 96.8319L117.703 96.6413C117.722 96.6222 117.722 96.5914 117.703 96.5726Z" fill="#C8C8C9"/>
<path d="M108.37 106.104C107.809 106.662 107.127 106.881 106.834 106.614L101.152 101.056C100.86 100.765 101.152 100.085 101.615 99.5272L108.37 106.104Z" fill="#F2F2F2"/>
<path d="M108.261 106.18L101.591 99.6731C101.572 99.6544 101.541 99.6547 101.522 99.6738L101.334 99.8644C101.316 99.8836 101.316 99.9143 101.335 99.9331L108.005 106.44C108.024 106.459 108.055 106.458 108.074 106.439L108.261 106.249C108.28 106.229 108.28 106.199 108.261 106.18Z" fill="#C8C8C9"/>
<path d="M115.732 101.063L112.642 104.2C112.529 104.315 112.531 104.499 112.646 104.612L113.639 105.58C113.754 105.693 113.94 105.691 114.053 105.576L117.143 102.439C117.256 102.324 117.254 102.14 117.139 102.027L116.146 101.059C116.031 100.946 115.845 100.948 115.732 101.063Z" fill="#C8C8C9"/>
<path d="M81.4036 64.6072L75.3435 70.7595C75.2304 70.8743 75.2322 71.0587 75.3476 71.1713L76.3576 72.1567C76.4731 72.2693 76.6583 72.2675 76.7715 72.1526L82.8315 66.0003C82.9447 65.8855 82.9428 65.7011 82.8274 65.5885L81.8174 64.6031C81.702 64.4905 81.5167 64.4924 81.4036 64.6072Z" fill="#C8C8C9"/>
<path d="M72.9863 71.5938L99.9327 97.8771L109.175 88.5093L82.3504 62.2017" fill="#C8C8C9"/>
<path d="M81.2291 63.3423L108.053 89.6256L106.834 90.8634L80.0098 64.5557" fill="#F2F2F2"/>
<path d="M74.449 70.1134L101.273 96.3967L103.883 93.7514L77.0584 67.468" fill="#7F7F80"/>
<path d="M99.834 97.7798L126.658 124.063L135.901 114.671L109.076 88.3877" fill="#EFEFEF"/>
<path d="M108.052 89.5283L134.877 115.812L133.682 117.025L106.857 90.7418" fill="white"/>
<path d="M101.297 96.2754L128.121 122.583L130.731 119.938L103.906 93.6543" fill="#A5A5A5"/>
<path d="M72.8398 71.7394L99.8103 98.0227L101.42 96.3724L74.5955 70.0891" fill="#707070"/>
<path d="M99.6875 97.9257L126.512 124.209L128.146 122.559L101.321 96.2754" fill="#8E8E8E"/>
<path d="M73.9121 70.7202L100.736 97.0035L101.785 95.9357L74.9608 69.6523" fill="#A3A3A3"/>
<path d="M100.736 96.9062L127.561 123.19L128.609 122.122L101.785 95.8384" fill="#C1C1C1"/>
<path d="M77.7659 67.2251L80.7656 64.1915C80.5461 63.9974 80.2777 64.1915 79.9851 64.3614C79.0475 65.1126 78.1597 65.9232 77.3271 66.7883C76.4646 67.632 75.6505 68.5233 74.8886 69.4579C74.6447 69.7734 74.547 70.0404 74.7665 70.2345L77.7415 67.2009L77.7659 67.2251Z" fill="#F2F2F2"/>
<path d="M115.758 104.332L112.783 107.366C112.978 107.584 113.247 107.366 113.564 107.22C114.496 106.471 115.375 105.661 116.197 104.793C117.069 103.959 117.884 103.067 118.636 102.124C118.88 101.808 118.977 101.541 118.782 101.347L115.783 104.381L115.758 104.332Z" fill="#F2F2F2"/>
<path d="M53.0307 0.548417L52.543 0.0727539L21.4452 31.6546L21.933 32.1303L53.0307 0.548417Z" fill="#EDEDED"/>
<path opacity="0.2" d="M201.007 105.93L174.221 133.086L183.026 141.689L209.813 114.533L201.007 105.93Z" fill="#4C4C4C"/>
<path d="M127.981 108.354L120.891 101.442C120.554 101.114 120.014 101.119 119.684 101.454L113.011 108.233C112.682 108.568 112.687 109.106 113.024 109.434L120.114 116.346C120.451 116.675 120.991 116.669 121.321 116.334L127.993 109.555C128.323 109.22 128.317 108.683 127.981 108.354Z" fill="white"/>
<path d="M122.428 102.879L119.641 100.162L111.774 108.154L114.561 110.871L122.428 102.879Z" fill="#D8D8D8"/>
<path d="M123.122 103.53L122.182 102.613L114.315 110.605L115.255 111.522L123.122 103.53Z" fill="#EFEFEF"/>
<path d="M121.081 101.522L119.652 100.13L111.785 108.122L113.214 109.515L121.081 101.522Z" fill="#BFBFBF"/>
<path d="M112.541 108.773L116.662 116.855C116.691 116.941 116.742 117.018 116.81 117.078C116.878 117.138 116.962 117.179 117.051 117.196C117.141 117.214 117.233 117.207 117.319 117.177C117.405 117.147 117.481 117.094 117.54 117.025L119.223 115.326L112.541 108.773Z" fill="#424242"/>
<path d="M83.3262 16.4059L166.116 16.5029" stroke="#D8D8D8" stroke-miterlimit="10"/>
<path d="M25.5316 146.925H9.94908C8.80057 146.925 7.66336 146.699 6.60258 146.261C5.54181 145.823 4.57819 145.181 3.7672 144.371C2.95622 143.562 2.31365 142.601 1.87635 141.544C1.43906 140.487 1.21558 139.355 1.21878 138.212L1.36524 25.0213C1.36524 23.8783 1.59179 22.7466 2.03204 21.6909C2.47229 20.6352 3.11768 19.6763 3.93093 18.8692C4.74417 18.0621 5.70937 17.4226 6.77137 16.9874C7.83337 16.5522 8.97114 16.3298 10.1196 16.333H33.6275" stroke="#D8D8D8" stroke-miterlimit="10"/>
<path d="M123.197 147.095L84.7402 146.998" stroke="#D8D8D8" stroke-miterlimit="10"/>
<path d="M263.732 67.5164V138.576C263.732 139.719 263.505 140.851 263.065 141.906C262.625 142.962 261.98 143.921 261.166 144.728C260.353 145.535 259.388 146.175 258.326 146.61C257.264 147.045 256.126 147.267 254.977 147.264H217.082" stroke="#D8D8D8" stroke-miterlimit="10"/>
<path d="M221.008 16.5757L251.905 16.6" stroke="#D8D8D8" stroke-miterlimit="10"/>
<path d="M52.5143 0.00972206L21.4961 31.9199L159.696 166.256L190.714 134.346L52.5143 0.00972206Z" fill="#F4CE89"/>
<path d="M45.1402 23.8226C46.5279 22.395 46.4989 20.1162 45.0756 18.7326C43.6522 17.349 41.3734 17.3847 39.9858 18.8122C38.5981 20.2398 38.6271 22.5186 40.0504 23.9022C41.4738 25.2858 43.7526 25.2502 45.1402 23.8226Z" fill="#F9F9F9"/>
<path d="M40.0504 23.9022C41.472 25.2841 43.7543 25.2484 45.13 23.8127C45.8977 23.0229 46.2078 21.9877 46.1242 20.9688C46.0639 21.7879 45.751 22.6009 45.1328 23.2368C43.7469 24.6626 41.4646 24.6983 40.0532 23.3264C39.4191 22.7101 39.0757 21.9174 39.0046 21.0902C38.9367 22.1014 39.2831 23.1364 40.0706 23.9019L40.0504 23.9022Z" fill="#D8D8D8"/>
<path d="M173.113 148.218C174.5 146.79 174.471 144.511 173.048 143.128C171.625 141.744 169.346 141.78 167.958 143.207C166.571 144.635 166.599 146.914 168.023 148.297C169.446 149.681 171.725 149.645 173.113 148.218Z" fill="#F9F9F9"/>
<path d="M168.033 148.287C169.454 149.669 171.737 149.633 173.112 148.197C173.88 147.408 174.19 146.373 174.107 145.354C174.046 146.173 173.733 146.986 173.115 147.622C171.729 149.047 169.447 149.083 168.036 147.711C167.402 147.095 167.058 146.302 166.987 145.475C166.919 146.486 167.266 147.521 168.053 148.287L168.033 148.287Z" fill="#D8D8D8"/>
<path d="M52.5447 0.0193443L52.0661 0.511695L189.754 134.351L190.233 133.859L52.5447 0.0193443Z" fill="#F7DBAD"/>
<path d="M21.995 31.4473L21.5164 31.9397L159.685 166.246L160.164 165.754L21.995 31.4473Z" fill="#D1AB6F"/>
<path d="M190.724 134.336L190.233 133.859L159.215 165.769L159.706 166.246L190.724 134.336Z" fill="#D1AB6F"/>
<path d="M37.6842 42.768L151.85 153.742C152.648 154.518 153.94 154.498 154.718 153.697L178.139 129.603C178.916 128.803 178.9 127.511 178.102 126.735L63.9364 15.7607C63.3126 15.1543 62.3129 15.18 61.7047 15.8057L37.6559 40.5461C37.0477 41.1718 37.0603 42.1616 37.6842 42.768Z" fill="#5B5B5B"/>
<path d="M142.257 144.417L151.86 153.752C152.658 154.528 153.951 154.507 154.728 153.707L178.149 129.613C178.927 128.813 178.91 127.52 178.112 126.745L168.509 117.41L142.257 144.417Z" fill="#424242"/>
<path d="M64.1413 15.9797L178.072 126.725C178.573 127.213 178.743 127.877 178.63 128.525C178.554 128.132 178.398 127.761 178.091 127.463L62.7391 15.335C62.7391 15.335 63.3538 15.2143 64.1413 15.9797Z" fill="#494949"/>
<path d="M82.6317 60.1663L70.9264 72.2083L111.129 111.287L122.835 99.2454L82.6317 60.1663Z" fill="#424242"/>
<path d="M85.2114 65.2473L85.3111 65.1447C85.8595 64.5806 86.5434 64.3476 86.8297 64.626L92.5467 70.1832C92.8331 70.4615 92.6196 71.1517 92.0713 71.7159L91.9716 71.8185L85.2114 65.2473Z" fill="#F2F2F2"/>
<path d="M92.1799 71.5223L85.4913 65.0207C85.4744 65.0042 85.4473 65.0046 85.4307 65.0216L85.2413 65.2165C85.2248 65.2335 85.2251 65.2606 85.2421 65.2771L91.9306 71.7787C91.9476 71.7952 91.9747 71.7947 91.9912 71.7778L92.1807 71.5829C92.1972 71.5659 92.1968 71.5387 92.1799 71.5223Z" fill="#C8C8C9"/>
<path d="M82.7984 81.2349L82.6788 81.358C82.1304 81.9221 81.4465 82.1551 81.1602 81.8767L75.4432 76.3195C75.1568 76.0412 75.3703 75.351 75.9186 74.7868L76.0383 74.6637L82.7984 81.2349Z" fill="#F2F2F2"/>
<path d="M82.7578 81.2153L76.0692 74.7137C76.0523 74.6973 76.0252 74.6977 76.0086 74.7147L75.8192 74.9096C75.8027 74.9266 75.803 74.9537 75.82 74.9702L82.5085 81.4718C82.5255 81.4882 82.5526 81.4878 82.5691 81.4708L82.7586 81.2759C82.7751 81.2589 82.7747 81.2318 82.7578 81.2153Z" fill="#C8C8C9"/>
<path d="M111.035 90.3491L111.135 90.2465C111.683 89.6824 112.367 89.4494 112.653 89.7278L118.37 95.285C118.657 95.5633 118.443 96.2535 117.895 96.8177L117.795 96.9203L111.035 90.3491Z" fill="#F2F2F2"/>
<path d="M117.994 96.6342L111.305 90.1326C111.288 90.1162 111.261 90.1166 111.244 90.1336L111.055 90.3285C111.038 90.3455 111.039 90.3726 111.056 90.3891L117.744 96.8907C117.761 96.9071 117.788 96.9067 117.805 96.8897L117.994 96.6948C118.011 96.6778 118.01 96.6507 117.994 96.6342Z" fill="#C8C8C9"/>
<path d="M108.622 106.337L108.502 106.46C107.954 107.024 107.27 107.257 106.984 106.978L101.267 101.421C100.98 101.143 101.194 100.453 101.742 99.8885L101.862 99.7654L108.622 106.337Z" fill="#F2F2F2"/>
<path d="M108.581 106.297L101.893 99.7952C101.876 99.7788 101.848 99.7792 101.832 99.7962L101.643 99.9911C101.626 100.008 101.626 100.035 101.643 100.052L108.332 106.553C108.349 106.57 108.376 106.569 108.392 106.552L108.582 106.357C108.598 106.34 108.598 106.313 108.581 106.297Z" fill="#C8C8C9"/>
<path d="M80.877 64.3656L80.8361 64.3258C80.6214 64.117 80.3501 64.2324 80.0502 64.4795C80.0502 64.4795 79.18 65.1497 77.4152 66.9652C75.6504 68.7808 75.0052 69.6697 75.0052 69.6697C74.7567 69.9867 74.659 70.2508 74.8738 70.4596L74.9147 70.4994L80.877 64.3656Z" fill="#F2F2F2"/>
<path d="M113.032 107.571L113.072 107.61C113.287 107.819 113.558 107.704 113.858 107.457C113.858 107.457 114.729 106.787 116.493 104.971C118.258 103.155 118.903 102.267 118.903 102.267C119.152 101.95 119.25 101.685 119.035 101.477L118.994 101.437L113.032 107.571Z" fill="#F2F2F2"/>
<path d="M53.0154 0.491359L52.5244 0.0142656L21.5118 31.9299L22.0028 32.407L53.0154 0.491359Z" fill="#F7DBAD"/>
<path d="M32.163 42.2887L63.1812 10.3785L64.9198 12.0685L33.9016 43.9787L32.163 42.2887Z" fill="#F8F7F7"/>
<path d="M31.8971 42.0302L62.8948 10.1001L63.2528 10.4481L32.2448 42.3682L31.8971 42.0302Z" fill="white"/>
<path d="M33.7687 43.8494L64.7869 11.9392L65.1346 12.2772L34.1164 44.1874L33.7687 43.8494Z" fill="#D8D8D8"/>
<path d="M115.86 101.142L112.789 104.302C112.674 104.421 112.676 104.611 112.795 104.726L113.777 105.68C113.895 105.796 114.085 105.793 114.201 105.674L117.272 102.514C117.387 102.395 117.385 102.205 117.266 102.09L116.285 101.136C116.166 101.021 115.976 101.024 115.86 101.142Z" fill="#C8C8C9"/>
<path d="M81.4119 64.7005L75.3698 70.9164C75.2541 71.0354 75.2566 71.2253 75.3752 71.3406L76.3877 72.3248C76.5063 72.4401 76.6962 72.4371 76.8118 72.3181L82.8539 66.1022C82.9696 65.9833 82.9672 65.7934 82.8485 65.6781L81.836 64.6939C81.7174 64.5786 81.5275 64.5816 81.4119 64.7005Z" fill="#C8C8C9"/>
<mask id="mask0_1110_3838" style="mask-type:luminance" maskUnits="userSpaceOnUse" x="74" y="63" width="46" height="45">
<path d="M82.9237 63.9194L74.6282 72.4534C74.3639 72.7253 74.3694 73.1594 74.6406 73.4229L109.72 107.521C109.991 107.785 110.425 107.778 110.689 107.506L118.985 98.9723C119.249 98.7004 119.243 98.2663 118.972 98.0028L83.8932 63.9042C83.6221 63.6407 83.188 63.6475 82.9237 63.9194Z" fill="white"/>
</mask>
<g mask="url(#mask0_1110_3838)">
<path d="M73.1199 71.851L100.15 98.1258L109.373 88.6378L82.3426 62.3631" fill="#C8C8C9"/>
<path d="M81.2326 63.5114L108.263 89.7862L107.067 91.017L80.0361 64.7422" fill="#F2F2F2"/>
<path d="M74.5845 70.3435L101.615 96.6183L104.207 93.9514L77.1768 67.6766" fill="#7F7F80"/>
<path d="M100.041 98.0161L127.072 124.291L136.294 114.803L109.264 88.5281" fill="#EFEFEF"/>
<path d="M108.15 89.6769L135.18 115.952L133.984 117.183L106.954 90.9078" fill="white"/>
<path d="M101.506 96.5085L128.536 122.783L131.129 120.116L104.098 93.8417" fill="#A5A5A5"/>
<path d="M72.9802 71.9941L100.011 98.2689L101.636 96.597L74.6054 70.3222" fill="#707070"/>
<path d="M99.8992 98.1601L126.93 124.435L128.555 122.763L101.524 96.4882" fill="#8E8E8E"/>
<path d="M73.9868 70.9588L101.017 97.2336L102.074 96.1463L75.0437 69.8716" fill="#A3A3A3"/>
<path d="M100.91 97.1239L127.94 123.399L128.997 122.311L101.967 96.0366" fill="#C1C1C1"/>
</g>
<path fill-rule="evenodd" clip-rule="evenodd" d="M131.43 105.405L121.647 101.043C121.19 100.838 120.545 100.949 120.216 101.287L113.556 108.139C113.227 108.478 113.333 108.92 113.811 109.125L123.593 113.487C124.05 113.692 124.695 113.581 125.024 113.243L131.685 106.391C132.014 106.052 131.907 105.609 131.43 105.405Z" fill="white"/>
<path fill-rule="evenodd" clip-rule="evenodd" d="M123.73 101.97L121.628 101.037L113.813 109.077L115.883 110.042L123.73 101.97Z" fill="#D8D8D8"/>
<path fill-rule="evenodd" clip-rule="evenodd" d="M124.654 102.39L123.364 101.814L115.517 109.886L116.817 110.452L124.654 102.39Z" fill="#EFEFEF"/>
<path fill-rule="evenodd" clip-rule="evenodd" d="M121.871 101.14L119.89 100.252L112.053 108.334L114.024 109.213L121.871 101.14Z" fill="#BFBFBF"/>
<path opacity="0.75" d="M112.024 108.284L117.963 115.434C118.22 115.763 118.765 115.755 119.035 115.478L121.899 112.776L112.024 108.284Z" fill="#424242"/>
<path d="M52.2304 37.2376L50.144 35.2096L50.882 37.6426L50.6926 37.8374L48.2397 37.1687L50.326 39.1967L49.987 39.5455L47.2871 36.921L47.636 36.562L50.3221 37.2978L49.5204 34.6234L49.8594 34.2746L52.5594 36.8991L52.2304 37.2376Z" fill="white"/>
<path d="M54.6153 34.1497L54.9222 34.448L53.1674 36.2532L50.4674 33.6287L52.1923 31.8542L52.4889 32.1425L51.083 33.5888L51.9626 34.4438L53.179 33.1924L53.4653 33.4707L52.2489 34.7221L53.1796 35.6268L54.6153 34.1497Z" fill="white"/>
<path d="M55.1216 34.2428L53.4884 30.5208L53.7576 30.2439L57.5145 31.7811L57.1655 32.1401L56.0587 31.6827L54.9719 32.8007L55.4606 33.8941L55.1116 34.2531L55.1216 34.2428ZM54.0167 30.755L54.7858 32.4602L55.733 31.4857L54.0167 30.755Z" fill="white"/>
<path d="M56.9656 27.5371L56.0683 28.4602L58.4717 30.7964L58.1426 31.1349L55.7392 28.7987L54.8519 29.7116L54.5553 29.4233L56.669 27.2488L56.9656 27.5371Z" fill="white"/>
<path d="M61.156 27.421L61.4628 27.7192L59.708 29.5245L57.008 26.9L58.7329 25.1255L59.0295 25.4138L57.6237 26.8601L58.5032 27.715L59.7196 26.4636L60.006 26.742L58.7896 27.9934L59.7202 28.898L61.156 27.421Z" fill="white"/>
<path d="M61.9314 27.2371L59.2314 24.6127L60.3382 23.4741C60.4578 23.351 60.578 23.2683 60.7288 23.2155C60.8797 23.1626 61.0208 23.1402 61.1724 23.1479C61.324 23.1556 61.4659 23.1938 61.608 23.2522C61.7502 23.3106 61.8724 23.3895 61.9747 23.4889C62.0667 23.5784 62.1588 23.6678 62.2007 23.7884C62.2526 23.8987 62.3045 24.009 62.3263 24.1299C62.348 24.2508 62.3495 24.372 62.3409 24.4832C62.3222 24.6047 62.2831 24.7063 62.224 24.8285L63.8851 25.1863L63.5062 25.5761L61.9364 25.2471L61.2584 25.9446L62.23 26.889L61.901 27.2275L61.9112 27.2375L61.9314 27.2371ZM60.992 25.6457L61.7697 24.8457C61.8395 24.7739 61.8891 24.7024 61.9182 24.611C61.9474 24.5197 61.9464 24.4389 61.9351 24.3481C61.9238 24.2574 61.8924 24.167 61.8407 24.0769C61.7891 23.9868 61.7275 23.9069 61.6559 23.8373C61.5843 23.7677 61.5027 23.7084 61.4012 23.6696C61.2997 23.6308 61.2187 23.6118 61.1277 23.6032C61.0367 23.5945 60.9459 23.606 60.8554 23.6377C60.7649 23.6694 60.6948 23.7211 60.635 23.7826L59.8773 24.5621L61.0022 25.6557L60.992 25.6457Z" fill="white"/>
<path d="M46.2161 37.6953C45.7866 37.2778 45.0794 37.2687 44.6606 37.6995C44.3815 37.9867 44.2956 38.382 44.4009 38.7238C43.9584 38.8721 43.5675 39.1105 43.2285 39.4593C42.0719 40.6491 42.1162 42.5475 43.323 43.7205C43.8753 44.2574 44.5861 44.5493 45.3035 44.5684C45.0895 44.4202 44.9046 44.1807 44.8202 43.8991C44.7036 43.4666 44.5502 42.5195 43.8256 42.7329C44.1462 42.5258 44.4303 42.6224 44.6358 42.902C44.8621 43.2217 44.9491 43.7052 45.4152 43.8191C45.8102 43.9039 46.2195 43.5237 46.0026 43.1534C45.7633 42.6015 44.8997 42.9989 45.5931 43.5133C45.2096 43.5395 45.0135 43.2092 45.1208 42.9146C45.3167 42.4267 46.0729 42.324 46.4815 42.6812C46.5727 41.9121 45.8684 42.1251 45.2545 42.3065C44.3387 42.5733 43.5957 42.1304 43.8859 41.1157C43.8785 41.328 43.9918 42.2959 44.7447 41.9306C44.1119 41.4152 43.9048 40.2164 44.302 39.6849C43.9781 40.4274 44.4755 41.4095 45.3248 41.477C45.6988 41.5015 46.1815 41.3323 46.5448 41.3064C47.5537 41.2099 47.814 41.822 47.8401 42.2862C47.9689 41.2943 46.9061 41.119 46.4413 41.106C46.1784 41.0899 45.9261 41.104 45.7415 40.8847C45.5978 40.7051 45.5444 40.4736 45.6627 40.2495C45.5175 40.7467 46.2953 40.7447 46.5982 40.7399C47.1131 40.7218 47.5168 40.6953 47.9551 41.0015C48.1895 41.1696 48.3335 41.3694 48.3971 41.6108C48.3974 40.833 48.0644 40.0705 47.461 39.484C47.1747 39.2056 46.8387 38.9988 46.4833 38.8528C46.6296 38.4364 46.5331 38.0035 46.2161 37.6953ZM45.9799 38.9819C45.7008 39.2691 45.2362 39.2764 44.9499 38.998C44.8476 38.8986 44.7855 38.7783 44.7535 38.6475C44.7 38.416 44.7573 38.1525 44.9368 37.9679C45.2159 37.6807 45.6805 37.6734 45.9668 37.9518C46.1714 38.1506 46.2356 38.4324 46.1479 38.6863C46.129 38.7876 46.0697 38.8896 45.9799 38.9819Z" fill="white"/>
<path d="M63.1997 21.3283L63.5786 20.9385L64.3559 21.694L65.1037 20.9247L65.4923 21.3025L64.7445 22.0718L65.5218 22.8273L65.1429 23.2171L64.3656 22.4616L63.6178 23.2309L63.2292 22.8531L63.977 22.0838L63.1997 21.3283Z" fill="white"/>
<rect x="32.2761" y="42.3896" width="44.4798" height="1.73645" transform="rotate(-45.8121 32.2761 42.3896)" fill="#F8F7F7"/>
<rect x="33.5234" y="43.6001" width="44.4798" height="0.868224" transform="rotate(-45.8121 33.5234 43.6001)" fill="#D8D8D8"/>
<path d="M31.6523 41.7847L62.6553 9.8901L63.2779 10.4953L32.2749 42.3898L31.6523 41.7847Z" fill="white"/>
<path opacity="0.7" d="M124.122 35.4326C123.932 35.2426 123.706 35.0918 123.457 34.9889C123.208 34.886 122.941 34.833 122.672 34.833C122.402 34.833 122.135 34.886 121.886 34.9889C121.637 35.0918 121.411 35.2426 121.221 35.4326L97.786 59.2162C97.4062 59.6018 97.1934 60.1203 97.1934 60.6602C97.1934 61.2002 97.4062 61.7186 97.786 62.1042L172.504 134.911L198.719 108.215L124.122 35.4326Z" fill="#4C4C4C"/>
<path d="M120.638 27.1606L97.5014 50.9669C96.7283 51.7624 96.6898 52.979 97.4155 53.6842L200.402 153.774C201.128 154.48 202.343 154.407 203.116 153.611L226.253 129.805C227.026 129.009 227.064 127.793 226.339 127.088L123.352 26.9973C122.626 26.292 121.411 26.3652 120.638 27.1606Z" fill="#F5CF89"/>
<path d="M214.431 126.954L199.93 141.875C199.587 142.228 199.57 142.768 199.892 143.081L202.362 145.482C202.684 145.795 203.223 145.762 203.566 145.409L218.067 130.489C218.41 130.136 218.427 129.596 218.105 129.283L215.635 126.882C215.313 126.569 214.774 126.602 214.431 126.954Z" fill="#666666"/>
<path d="M212.643 71.3511L228.616 121.855C228.616 121.855 170.09 112.875 170.651 112.681C171.212 112.487 180.551 101.784 180.551 101.784C174.244 99.6543 167.687 98.3411 161.043 97.8771C139.266 96.2268 130.707 106.638 130.707 106.638C130.707 106.638 144.143 85.9125 158.629 79.9423C173.114 73.9721 190.672 75.9622 197.109 78.4133C203.547 80.8645 202.816 79.5297 202.816 79.5297L212.643 71.3511Z" fill="#CE0E2D"/>
</g>
<defs>
<clipPath id="clip0_1110_3838">
<rect width="265" height="166" fill="white"/>
</clipPath>
</defs>
</svg>
