<svg width="330" height="232" viewBox="0 0 330 232" fill="none" xmlns="http://www.w3.org/2000/svg">
<g clip-path="url(#clip0_421_5929)">
<path d="M285.122 53.8219L43.6235 53.5229C38.8563 53.517 34.987 57.4293 34.9812 62.2612L34.8442 175.901C34.8384 180.733 38.6982 184.655 43.4654 184.661L284.964 184.96C289.731 184.966 293.6 181.054 293.606 176.222L293.743 62.5817C293.749 57.7497 289.889 53.8279 285.122 53.8219Z" stroke="#D8D8D8" stroke-miterlimit="10"/>
<path d="M262.177 81.7388V119.684L293.602 138.132L298.82 123.461L298.002 111.178L289.539 94.9964L275.04 84.1027L262.177 81.7388Z" fill="#CE0E2D"/>
<path d="M294.78 138.401L262.2 119.684L230.486 138.06L240.897 150.147L251.837 155.484L269.895 155.996L286.389 148.588L294.78 138.401Z" fill="#CE0E2D"/>
<path d="M302.306 119.684C302.311 127.71 299.967 135.558 295.571 142.234C291.175 148.91 284.924 154.115 277.609 157.19C270.295 160.265 262.245 161.072 254.477 159.509C246.71 157.946 239.574 154.083 233.973 148.409C228.372 142.735 224.557 135.505 223.01 127.634C221.464 119.762 222.255 111.602 225.284 104.186C228.314 96.77 233.445 90.4312 240.029 85.9715C246.613 81.5118 254.354 79.1313 262.273 79.1313C272.886 79.1313 283.065 83.4031 290.572 91.0075C298.079 98.6119 302.3 108.927 302.306 119.684ZM262.273 84.6391C255.434 84.6391 248.749 86.6944 243.064 90.5452C237.378 94.396 232.946 99.8693 230.329 106.273C227.712 112.677 227.028 119.723 228.362 126.521C229.696 133.319 232.989 139.563 237.824 144.465C242.66 149.366 248.82 152.703 255.527 154.056C262.234 155.408 269.186 154.714 275.504 152.061C281.822 149.409 287.222 144.917 291.021 139.154C294.82 133.391 296.848 126.615 296.848 119.684C296.851 115.081 295.959 110.522 294.223 106.269C292.486 102.016 289.939 98.1512 286.728 94.8964C283.517 91.6415 279.704 89.0602 275.508 87.3002C271.312 85.5402 266.814 84.6359 262.273 84.6391Z" fill="#676766"/>
<path d="M260.999 83.835H263.403V87.0519H260.999V83.835Z" fill="#676766"/>
<path d="M243.5 89.2104L245.583 87.9919L247.17 90.7779L245.087 91.9964L243.5 89.2104Z" fill="#676766"/>
<path d="M231.386 101.81L232.588 99.6898L235.35 101.298L234.147 103.419L231.386 101.81Z" fill="#676766"/>
<path d="M226.832 120.781V118.344H230.005V120.781H226.832Z" fill="#676766"/>
<path d="M232.146 138.525L230.943 136.415L233.692 134.806L234.894 136.917L232.146 138.525Z" fill="#676766"/>
<path d="M245.486 151.179L243.404 149.961L244.99 147.175L247.073 148.393L245.486 151.179Z" fill="#676766"/>
<path d="M263.283 155.411H260.878V152.194H263.283V155.411Z" fill="#676766"/>
<path d="M280.803 150.016L278.72 151.235L277.134 148.449L279.216 147.23L280.803 150.016Z" fill="#676766"/>
<path d="M293.29 136.487L292.088 138.597L289.339 136.989L290.541 134.878L293.29 136.487Z" fill="#676766"/>
<path d="M297.449 118.441V120.878H294.275V118.441H297.449Z" fill="#676766"/>
<path d="M292.137 100.716L293.339 102.827L290.59 104.435L289.388 102.325L292.137 100.716Z" fill="#676766"/>
<path d="M278.798 88.0464L280.88 89.2649L279.293 92.0508L277.211 90.8323L278.798 88.0464Z" fill="#676766"/>
<path d="M284.828 112.178C284.828 113.374 284.5 114.421 283.846 115.318C283.211 116.215 282.341 116.916 281.238 117.421C280.154 117.907 278.967 118.15 277.677 118.15C276.35 118.15 275.154 117.888 274.088 117.365C273.023 116.823 272.172 116.094 271.537 115.178C270.901 114.262 270.583 113.215 270.583 112.037C270.583 111.252 270.761 110.551 271.116 109.934C271.471 109.299 271.911 108.757 272.434 108.308C272.957 107.859 273.49 107.514 274.032 107.271C273.527 107.028 273.06 106.719 272.63 106.345C272.219 105.953 271.882 105.504 271.621 104.999C271.378 104.495 271.256 103.953 271.256 103.373C271.256 102.513 271.443 101.756 271.817 101.102C272.21 100.429 272.724 99.868 273.359 99.4194C273.995 98.952 274.686 98.6062 275.434 98.3819C276.201 98.1389 276.958 98.0174 277.705 98.0174C278.472 98.0174 279.229 98.1389 279.977 98.3819C280.743 98.6062 281.444 98.9427 282.08 99.3913C282.734 99.84 283.248 100.401 283.622 101.074C284.014 101.728 284.211 102.485 284.211 103.345C284.211 103.924 284.08 104.476 283.818 104.999C283.575 105.504 283.229 105.953 282.781 106.345C282.351 106.738 281.883 107.046 281.379 107.271C281.977 107.532 282.538 107.897 283.061 108.364C283.603 108.831 284.033 109.383 284.351 110.019C284.669 110.654 284.828 111.374 284.828 112.178ZM281.715 111.981C281.715 111.439 281.594 110.953 281.351 110.523C281.126 110.093 280.818 109.738 280.425 109.458C280.033 109.159 279.603 108.934 279.135 108.785C278.668 108.635 278.191 108.56 277.705 108.56C277.014 108.56 276.369 108.701 275.771 108.981C275.173 109.261 274.686 109.663 274.313 110.187C273.939 110.691 273.752 111.29 273.752 111.981C273.752 112.505 273.864 112.981 274.088 113.411C274.313 113.823 274.612 114.178 274.986 114.477C275.378 114.776 275.808 115 276.275 115.15C276.761 115.299 277.247 115.374 277.733 115.374C278.406 115.374 279.042 115.234 279.64 114.954C280.257 114.654 280.752 114.253 281.126 113.748C281.519 113.224 281.715 112.636 281.715 111.981ZM274.369 103.485C274.369 104.065 274.537 104.56 274.873 104.971C275.21 105.383 275.64 105.691 276.163 105.897C276.687 106.102 277.201 106.205 277.705 106.205C278.229 106.205 278.743 106.102 279.248 105.897C279.771 105.672 280.201 105.355 280.537 104.943C280.893 104.532 281.07 104.027 281.07 103.429C281.07 102.887 280.911 102.42 280.594 102.027C280.276 101.616 279.855 101.307 279.332 101.102C278.827 100.877 278.285 100.765 277.705 100.765C277.126 100.765 276.575 100.877 276.051 101.102C275.546 101.326 275.135 101.644 274.817 102.055C274.518 102.448 274.369 102.924 274.369 103.485Z" fill="white"/>
<path d="M50.4927 151.537L39.2642 53.4449L153.161 39.5049L165.183 137.475L168.742 167.451L54.0272 181.488L50.4927 151.537Z" fill="#A3A2A2"/>
<path fill-rule="evenodd" clip-rule="evenodd" d="M153.569 38.9932L38.7109 53.0306L50.8772 155.119L59.7014 154.022L49.6991 69.9195C49.5843 68.9499 49.8542 67.9739 50.4494 67.2061C51.0446 66.4383 51.9164 65.9415 52.8729 65.8252C53.8294 65.7088 54.7924 65.9824 55.5499 66.5857C56.3075 67.189 56.7975 68.0726 56.9123 69.0421L66.9387 153.145L73.8874 152.316L63.837 68.2379C63.7802 67.7578 63.8172 67.2711 63.9459 66.8056C64.0746 66.34 64.2926 65.9047 64.5873 65.5245C64.882 65.1443 65.2477 64.8267 65.6636 64.5898C66.0794 64.3528 66.5372 64.2012 67.0108 64.1436C67.4844 64.086 67.9646 64.1235 68.4239 64.254C68.8833 64.3845 69.3127 64.6054 69.6878 64.9041C70.0629 65.2028 70.3763 65.5735 70.6101 65.995C70.8438 66.4165 70.9934 66.8805 71.0502 67.3605L81.0285 151.415L87.9772 150.586L77.9749 66.4588C77.9181 65.9788 77.9551 65.4921 78.0838 65.0265C78.2126 64.5609 78.4305 64.1256 78.7252 63.7454C79.02 63.3653 79.3857 63.0476 79.8015 62.8107C80.2173 62.5738 80.6751 62.4222 81.1487 62.3646C81.6224 62.307 82.1025 62.3445 82.5619 62.475C83.0212 62.6054 83.4507 62.8264 83.8257 63.1251C84.2008 63.4238 84.5142 63.7945 84.748 64.2159C84.9817 64.6374 85.1313 65.1014 85.1881 65.5815L95.2145 149.709L102.163 148.856L92.1128 64.7285C91.998 63.759 92.2679 62.783 92.8631 62.0151C93.4584 61.2473 94.3301 60.7506 95.2866 60.6343C96.2432 60.5179 97.2061 60.7915 97.9637 61.3948C98.7212 61.9981 99.2113 62.8817 99.3261 63.8512L109.352 147.978L165.784 141.057L153.569 38.9932Z" fill="#E5E4E4"/>
<path d="M54.0078 181.512L168.851 167.467L170.228 179.032L55.3846 193.077L54.0078 181.512Z" fill="#E5E4E4"/>
<path d="M146.159 53.0964L107.56 57.817C106.769 57.9138 106.205 58.6421 106.301 59.4439L115.647 137.957C115.743 138.759 116.461 139.33 117.252 139.234L155.852 134.513C156.643 134.416 157.206 133.688 157.111 132.886L147.765 54.373C147.669 53.5712 146.951 52.9997 146.159 53.0964Z" fill="#504F4F"/>
<path d="M122.889 63.2171L132.507 62.0229L134.911 82.543L125.294 83.7372L122.889 63.2171Z" fill="#646463"/>
<path d="M127.459 93.5522L135.218 92.6035L139.578 129.235L131.82 130.184L127.459 93.5522Z" stroke="#DBDBDB" stroke-width="0.17"/>
<path d="M120.245 92.0966C121.227 92.0966 122.024 91.2892 122.024 90.2932C122.024 89.2972 121.227 88.4897 120.245 88.4897C119.262 88.4897 118.465 89.2972 118.465 90.2932C118.465 91.2892 119.262 92.0966 120.245 92.0966Z" stroke="#DBDBDB" stroke-width="0.19" stroke-miterlimit="10"/>
<path d="M133.517 113.201C134.5 113.201 135.296 112.394 135.296 111.398C135.296 110.402 134.5 109.594 133.517 109.594C132.534 109.594 131.738 110.402 131.738 111.398C131.738 112.394 132.534 113.201 133.517 113.201Z" stroke="#DBDBDB" stroke-width="0.19" stroke-miterlimit="10"/>
<path d="M122.841 110.082L120.581 112.982L123.442 115.249" stroke="#DBDBDB" stroke-width="0.14"/>
<path d="M134.407 97.0682L131.545 94.7773L129.285 97.6775" stroke="#DBDBDB" stroke-width="0.14"/>
<path d="M137.724 125.021L135.488 127.922L132.627 125.631" stroke="#DBDBDB" stroke-width="0.14"/>
<path d="M143.591 107.523L146.453 109.814L144.265 112.714" stroke="#DBDBDB" stroke-width="0.14"/>
<path d="M141.452 89.5131C142.434 89.5131 143.231 88.7057 143.231 87.7097C143.231 86.7137 142.434 85.9062 141.452 85.9062C140.469 85.9062 139.672 86.7137 139.672 87.7097C139.672 88.7057 140.469 89.5131 141.452 89.5131Z" stroke="#DBDBDB" stroke-width="0.19" stroke-miterlimit="10"/>
<path d="M168.256 166.375L168.758 166.313L170.27 179.016L169.768 179.077L168.256 166.375Z" fill="#EDEDED"/>
<path d="M153.096 39.0557L153.597 38.9944L165.749 141.074L165.248 141.135L153.096 39.0557Z" fill="#EDEDED"/>
<path d="M38.7158 53.0132L39.2171 52.9519L51.3689 155.031L50.8676 155.092L38.7158 53.0132Z" fill="#CFCECE"/>
<path d="M54.0137 181.509L54.515 181.447L55.8917 193.013L55.3904 193.074L54.0137 181.509Z" fill="#CFCECE"/>
<path d="M87.1465 188.681L87.207 189.189L55.4109 193.077L55.3504 192.569L87.1465 188.681Z" fill="#CFCECE"/>
<path d="M51.0913 156.751L165.934 142.706L168.881 167.458L54.0378 181.503L51.0913 156.751Z" fill="#CAC9C9"/>
<path d="M51.0405 156.349L165.86 142.307L165.917 142.791L51.0981 156.833L51.0405 156.349Z" fill="#B7B7B7"/>
<path d="M59.0283 155.582L59.9901 175.566L60.5671 180.489L63.3322 180.148L60.8557 155.338L59.0283 155.582Z" fill="#B7B7B7"/>
<path d="M59.437 154.315L60.4228 175.517L60.9999 180.44L63.7649 180.099L61.2644 154.095L59.437 154.315Z" fill="#A3A2A2"/>
<path d="M73.1421 153.852L74.1039 173.836L74.6809 178.758L77.47 178.417L74.9694 153.608L73.1421 153.852Z" fill="#B7B7B7"/>
<path d="M73.5508 152.584L74.5366 173.786L75.1136 178.709L77.9028 178.368L75.4022 152.365L73.5508 152.584Z" fill="#A3A2A2"/>
<path d="M87.2319 152.121L88.1937 172.105L88.7708 177.028L91.5599 176.687L89.0593 151.902L87.2319 152.121Z" fill="#B7B7B7"/>
<path d="M87.6406 150.854L88.6264 172.057L89.2035 176.979L91.9926 176.638L89.468 150.635L87.6406 150.854Z" fill="#A3A2A2"/>
<path d="M101.394 150.391L102.356 170.375L102.933 175.297L105.722 174.956L103.221 150.171L101.394 150.391Z" fill="#B7B7B7"/>
<path d="M101.803 149.124L102.789 170.326L103.366 175.249L106.155 174.908L103.63 148.904L101.803 149.124Z" fill="#A3A2A2"/>
<path d="M117.263 139.229C116.883 139.278 116.501 139.171 116.199 138.934C115.897 138.696 115.7 138.347 115.652 137.962L106.299 59.44C106.272 59.1635 106.322 58.8849 106.443 58.6357C106.252 58.786 106.103 58.9842 106.01 59.2106C105.917 59.4371 105.884 59.6841 105.914 59.9274L115.267 138.449C115.315 138.834 115.512 139.183 115.814 139.421C116.116 139.659 116.499 139.765 116.878 139.717L155.349 135.013C155.589 134.979 155.818 134.886 156.015 134.741C156.212 134.597 156.371 134.406 156.479 134.185C156.26 134.356 156.005 134.473 155.733 134.526L117.263 139.229Z" fill="#F4F4F4"/>
<path d="M51.0273 156.364L51.5286 156.303L54.5212 181.442L54.0199 181.503L51.0273 156.364Z" fill="#B7B7B7"/>
<path d="M153.577 38.9785L153.637 39.4866L38.794 53.5317L38.7336 53.0236L153.577 38.9785Z" fill="#EDEDED"/>
<path d="M165.21 141.139L165.712 141.077L168.854 167.474L168.353 167.536L165.21 141.139Z" fill="#DBD9D9"/>
<path d="M170.209 178.526L170.27 179.034L86.5546 189.272L86.4941 188.764L170.209 178.526Z" fill="#CFCECE"/>
<path d="M74.2466 176.36L86.0388 174.918L86.3614 177.628L74.5692 179.07L74.2466 176.36Z" fill="#DBDBDB"/>
<path d="M74.3047 176.829L86.0969 175.386L86.1718 176.016L74.3796 177.458L74.3047 176.829Z" fill="#F2F2F2"/>
<path d="M88.3193 174.616L100.112 173.174L100.434 175.884L88.6419 177.326L88.3193 174.616Z" fill="#DBDBDB"/>
<path d="M88.356 175.133L100.148 173.691L100.223 174.32L88.4308 175.762L88.356 175.133Z" fill="#F2F2F2"/>
<path d="M102.487 172.882L114.279 171.44L114.602 174.15L102.809 175.592L102.487 172.882Z" fill="#DBDBDB"/>
<path d="M63.3652 178.778L114.401 172.537L114.594 174.158L63.5582 180.399L63.3652 178.778Z" fill="#DBDBDB"/>
<path d="M102.545 173.375L114.338 171.932L114.413 172.561L102.62 174.004L102.545 173.375Z" fill="#F2F2F2"/>
<path d="M60.1475 178.059L71.9397 176.616L72.2623 179.326L60.47 180.768L60.1475 178.059Z" fill="#DBDBDB"/>
<path d="M60.2085 178.551L72.0007 177.109L72.0756 177.738L60.2834 179.18L60.2085 178.551Z" fill="#F2F2F2"/>
<path d="M60.4224 180.306L114.562 173.685L114.614 174.121L60.4742 180.742L60.4224 180.306Z" fill="#969696"/>
<path d="M60.3799 179.949L114.519 173.328L114.571 173.763L60.4317 180.384L60.3799 179.949Z" fill="#C4C4C4"/>
<path d="M53.4741 101.65C53.7259 101.615 53.981 101.682 54.1837 101.838C54.3864 101.993 54.5203 102.223 54.5561 102.478L55.8064 113.128C55.8232 113.256 55.8147 113.387 55.7814 113.511C55.748 113.636 55.6905 113.753 55.6122 113.855C55.5339 113.957 55.4363 114.042 55.3252 114.106C55.214 114.169 55.0916 114.21 54.9649 114.225L53.4741 101.65Z" fill="#7F7F80"/>
<path d="M62.1538 113.348H62.0335C61.7819 113.375 61.5298 113.301 61.3318 113.141C61.1337 112.982 61.0058 112.749 60.9756 112.495L59.7013 101.845C59.6844 101.717 59.693 101.586 59.7263 101.461C59.7596 101.337 59.8171 101.22 59.8955 101.118C59.9738 101.016 60.0713 100.93 60.1825 100.867C60.2936 100.804 60.4161 100.763 60.5428 100.748L62.1538 113.348Z" fill="#7F7F80"/>
<path d="M55.1955 114.172L53.7036 101.638C53.702 101.625 53.69 101.616 53.6768 101.617L53.4858 101.641C53.4727 101.642 53.4633 101.654 53.4649 101.668L54.9568 114.201C54.9584 114.214 54.9704 114.224 54.9836 114.222L55.1745 114.199C55.1877 114.197 55.1971 114.185 55.1955 114.172Z" fill="#696969"/>
<path d="M62.1262 113.312L60.6342 100.779C60.6326 100.766 60.6207 100.756 60.6075 100.758L60.4165 100.781C60.4033 100.783 60.3939 100.795 60.3955 100.808L61.8875 113.341C61.8891 113.355 61.9011 113.364 61.9142 113.363L62.1052 113.339C62.1184 113.338 62.1278 113.326 62.1262 113.312Z" fill="#696969"/>
<path d="M67.6357 99.9194C67.89 99.8915 68.145 99.9649 68.3469 100.124C68.5488 100.283 68.6818 100.516 68.7177 100.772L69.968 111.422C69.9848 111.55 69.9763 111.681 69.943 111.806C69.9096 111.93 69.8521 112.047 69.7738 112.149C69.6955 112.251 69.5979 112.337 69.4868 112.4C69.3757 112.463 69.2532 112.504 69.1265 112.519L67.6357 99.9194Z" fill="#7F7F80"/>
<path d="M76.2679 111.617C76.0136 111.645 75.7586 111.572 75.5567 111.412C75.3548 111.253 75.2219 111.021 75.1859 110.764L73.9356 100.114C73.9188 99.9861 73.9273 99.8558 73.9607 99.731C73.994 99.6062 74.0515 99.4894 74.1298 99.3873C74.2082 99.2852 74.3057 99.2 74.4169 99.1365C74.528 99.073 74.6505 99.0326 74.7772 99.0176L76.2679 111.617Z" fill="#7F7F80"/>
<path d="M69.3586 112.447L67.8666 99.9143C67.8651 99.901 67.8531 99.8914 67.8399 99.8931L67.6489 99.9164C67.6357 99.918 67.6263 99.9302 67.6279 99.9435L69.1199 112.477C69.1215 112.49 69.1335 112.499 69.1467 112.498L69.3376 112.475C69.3508 112.473 69.3602 112.461 69.3586 112.447Z" fill="#696969"/>
<path d="M76.2624 111.589L74.7705 99.0554C74.7689 99.0421 74.7569 99.0326 74.7437 99.0342L74.5527 99.0575C74.5396 99.0591 74.5302 99.0713 74.5318 99.0846L76.0237 111.618C76.0253 111.631 76.0373 111.641 76.0505 111.639L76.2414 111.616C76.2546 111.614 76.264 111.602 76.2624 111.589Z" fill="#696969"/>
<path d="M81.75 98.1892C81.8765 98.1721 82.005 98.1808 82.1281 98.2145C82.2513 98.2483 82.3665 98.3066 82.4672 98.386C82.5679 98.4654 82.652 98.5643 82.7146 98.6769C82.7773 98.7896 82.8172 98.9137 82.832 99.0421L84.1544 109.668C84.1712 109.796 84.1627 109.926 84.1294 110.051C84.096 110.176 84.0385 110.293 83.9602 110.395C83.8819 110.497 83.7843 110.582 83.6732 110.645C83.562 110.709 83.4396 110.749 83.3129 110.764L81.75 98.1892Z" fill="#7F7F80"/>
<path d="M90.4058 109.887C90.1515 109.915 89.8965 109.842 89.6946 109.683C89.4927 109.523 89.3598 109.291 89.3238 109.034L88.0495 98.3843C88.0224 98.1293 88.0955 97.8738 88.253 97.673C88.4106 97.4723 88.6398 97.3426 88.891 97.312L90.4058 109.887Z" fill="#7F7F80"/>
<path d="M83.468 110.724L81.976 98.1907C81.9744 98.1773 81.9625 98.1678 81.9493 98.1694L81.7583 98.1928C81.7451 98.1944 81.7357 98.2065 81.7373 98.2199L83.2293 110.753C83.2309 110.766 83.2429 110.776 83.256 110.774L83.447 110.751C83.4602 110.749 83.4696 110.737 83.468 110.724Z" fill="#696969"/>
<path d="M90.3718 109.889L88.8798 97.3557C88.8782 97.3424 88.8663 97.3328 88.8531 97.3345L88.6621 97.3578C88.6489 97.3594 88.6395 97.3716 88.6411 97.3849L90.1331 109.918C90.1347 109.931 90.1467 109.941 90.1598 109.939L90.3508 109.916C90.364 109.914 90.3734 109.902 90.3718 109.889Z" fill="#696969"/>
<path d="M95.9116 96.4587C96.1632 96.4313 96.4153 96.5054 96.6134 96.6651C96.8114 96.8247 96.9394 97.0571 96.9696 97.3117L98.2439 107.937C98.2714 108.195 98.199 108.454 98.0419 108.658C97.8849 108.863 97.6556 108.998 97.4024 109.034L95.9116 96.4587Z" fill="#7F7F80"/>
<path d="M104.544 108.157C104.406 108.185 104.264 108.183 104.128 108.15C103.992 108.117 103.864 108.054 103.754 107.966C103.644 107.878 103.554 107.766 103.491 107.639C103.428 107.512 103.394 107.373 103.39 107.231L102.115 96.5806C102.098 96.4538 102.107 96.3249 102.141 96.2015C102.174 96.0782 102.232 95.963 102.311 95.8629C102.389 95.7628 102.487 95.6797 102.598 95.6188C102.709 95.5579 102.831 95.5203 102.957 95.5083L104.544 108.157Z" fill="#7F7F80"/>
<path d="M97.6311 109L96.1391 96.4666C96.1375 96.4532 96.1255 96.4437 96.1124 96.4453L95.9214 96.4687C95.9082 96.4703 95.8988 96.4824 95.9004 96.4958L97.3924 109.029C97.394 109.042 97.4059 109.052 97.4191 109.05L97.6101 109.027C97.6233 109.025 97.6327 109.013 97.6311 109Z" fill="#696969"/>
<path d="M104.508 108.141L103.016 95.6077C103.014 95.5943 103.002 95.5848 102.989 95.5864L102.798 95.6098C102.785 95.6114 102.776 95.6235 102.777 95.6369L104.269 108.17C104.271 108.183 104.283 108.193 104.296 108.191L104.487 108.168C104.5 108.166 104.51 108.154 104.508 108.141Z" fill="#696969"/>
<path d="M56.6238 76.5482C56.1188 72.3809 53.5461 66.4588 52.945 66.5319C52.3439 66.605 51.2138 73.112 51.6947 77.1575L60.7112 152.828L65.6643 152.219L56.6238 76.5482Z" fill="#C8C8C9"/>
<path d="M63.9334 152.438L54.9169 76.8892C54.7005 72.6731 53.354 66.6048 52.7529 66.6779C53.354 66.6779 55.3497 72.6 55.8546 76.7673L64.9192 152.316L63.9334 152.438Z" fill="#F2F2F2"/>
<path d="M62.5146 152.609L53.498 77.0601C53.498 72.8439 52.7046 67.0194 52.9691 66.6538C52.4401 66.6538 52.0554 73.0145 52.5363 77.1819L61.5528 152.853L62.5146 152.609Z" fill="#7F7F80"/>
<path d="M61.9858 175.834L60.7114 152.73L65.6405 152.121L69.8722 174.859L61.9858 175.834Z" fill="#5C5C5C"/>
<path d="M70.1127 176.857L69.8723 174.859L61.9858 175.834L62.2263 177.808L70.1127 176.857Z" fill="#EFEFEF"/>
<path d="M62.1059 122.438V122.219L57.1528 122.828V123.047L62.1059 122.438Z" fill="#F2F2F2"/>
<path d="M62.1298 122.657V122.438L57.1768 123.047V123.267L62.1298 122.657Z" fill="#7F7F80"/>
<path d="M61.9858 175.834L60.7114 152.731L62.4907 152.511L62.8754 175.712L61.9858 175.834Z" fill="#303031"/>
<path d="M61.9614 175.834L62.274 152.536L64.2216 152.292L69.7277 174.884L61.9614 175.834Z" fill="#1D1E1B"/>
<path d="M64.9188 152.219L69.92 174.859L63.957 152.316L64.9188 152.219Z" fill="#C8C8C9"/>
<path d="M61.5049 152.633L61.9617 175.81L62.4426 152.511L61.5049 152.633Z" fill="#7F7F80"/>
<path d="M70.6654 74.8423C70.1604 70.6505 67.5637 64.7528 66.9626 64.8016C66.3615 64.8503 65.2314 71.2598 65.7363 75.4515L74.7529 151.098L79.6819 150.489L70.6654 74.8423Z" fill="#C8C8C9"/>
<path d="M77.975 150.708L68.9585 75.0373C68.7181 70.8455 67.3716 64.7772 66.7705 64.826C67.3716 64.826 69.3432 70.748 69.8722 74.9398L78.9128 150.61L77.975 150.708Z" fill="#F2F2F2"/>
<path d="M76.5082 150.903L67.4917 75.354C67.4917 71.1135 66.6742 65.3133 66.9627 64.9233C66.4337 64.9233 66.049 71.2841 66.5299 75.4758L75.5224 151.098L76.5082 150.903Z" fill="#7F7F80"/>
<path d="M76.0033 174.128L74.729 151.098L79.6821 150.513L83.9138 173.25L76.0033 174.128Z" fill="#5C5C5C"/>
<path d="M84.1544 175.127L83.9139 173.153L76.0034 174.104L76.2439 176.102L84.1544 175.127Z" fill="#EFEFEF"/>
<path d="M76.1238 120.732V120.488L71.3149 121.098V121.317L76.1238 120.732Z" fill="#F2F2F2"/>
<path d="M76.1478 120.951V120.732L71.2188 121.317V121.561L76.1478 120.951Z" fill="#7F7F80"/>
<path d="M76.0033 174.128L74.729 151.098L76.5323 150.878L76.9411 174.006L76.0033 174.128Z" fill="#303031"/>
<path d="M76.0034 174.104L76.316 150.805L78.2395 150.586L83.8418 173.153L76.0034 174.104Z" fill="#1D1E1B"/>
<path d="M78.8888 150.488L83.8899 173.031L77.9751 150.61L78.8888 150.488Z" fill="#C8C8C9"/>
<path d="M75.5225 150.903L76.0033 174.103L76.4842 150.805L75.5225 150.903Z" fill="#7F7F80"/>
<path d="M84.7555 73.1117C84.1544 68.9443 81.75 63.0223 81.0527 63.0954C80.3555 63.1685 79.3216 69.5292 79.8024 73.721L88.819 149.392L93.7721 148.782L84.7555 73.1117Z" fill="#C8C8C9"/>
<path d="M92.0649 149.002L83.0243 73.4531C82.8079 69.237 81.4615 63.1688 80.8604 63.2419C81.4615 63.2419 83.4571 69.1883 83.962 73.3557L92.9786 149.026L92.0649 149.002Z" fill="#F2F2F2"/>
<path d="M90.5981 149.172L81.5575 73.6235C81.5575 69.4074 80.764 63.5828 81.0526 63.2173C80.5236 63.2173 80.1389 69.5536 80.6198 73.7454L89.6363 149.416L90.5981 149.172Z" fill="#7F7F80"/>
<path d="M90.0932 172.398L88.8188 149.294L93.7719 148.661L98.0037 171.398L90.0932 172.398Z" fill="#5C5C5C"/>
<path d="M98.2202 173.397L98.0038 171.423L90.0933 172.398L90.3337 174.372L98.2202 173.397Z" fill="#EFEFEF"/>
<path d="M90.2135 119.002V118.782L85.2363 119.416V119.66L90.2135 119.002Z" fill="#F2F2F2"/>
<path d="M90.2376 119.221V119.001L85.3086 119.611V119.83L90.2376 119.221Z" fill="#7F7F80"/>
<path d="M90.0932 172.397L88.8188 149.294L90.5981 149.075L90.9828 172.276L90.0932 172.397Z" fill="#303031"/>
<path d="M90.0693 172.397L90.3819 149.099L92.3295 148.855L97.9077 171.423L90.0693 172.397Z" fill="#1D1E1B"/>
<path d="M92.9786 148.783L97.9798 171.423L92.0649 148.88L92.9786 148.783Z" fill="#C8C8C9"/>
<path d="M89.6123 149.197L90.0932 172.373L90.55 149.075L89.6123 149.197Z" fill="#7F7F80"/>
<path d="M98.9894 71.3813C98.4844 67.1896 95.8877 61.2919 95.2866 61.3406C94.6855 61.3894 93.5794 67.7988 94.0603 71.9906L103.077 147.539L108.006 146.955L98.9894 71.3813Z" fill="#C8C8C9"/>
<path d="M106.299 147.247L97.2822 71.6984C97.0659 67.4823 95.6953 61.4384 95.0942 61.4871C95.6953 61.4871 97.667 67.4092 98.1959 71.6009L107.212 147.15L106.299 147.247Z" fill="#F2F2F2"/>
<path d="M104.832 147.418L95.8154 71.8691C95.8154 67.6286 94.9979 61.804 95.2864 61.4385C94.7575 61.4385 94.3728 67.7992 94.8537 71.991L103.87 147.54L104.832 147.418Z" fill="#7F7F80"/>
<path d="M104.327 170.594L103.053 147.491L108.006 146.882L112.238 169.644L104.327 170.594Z" fill="#5C5C5C"/>
<path d="M112.478 171.666L112.238 169.668L104.327 170.643L104.568 172.641L112.478 171.666Z" fill="#EFEFEF"/>
<path d="M104.447 117.247V116.979L99.6387 117.588V117.808L104.447 117.247Z" fill="#F2F2F2"/>
<path d="M104.495 117.491V117.247L99.6865 117.856V118.1L104.495 117.491Z" fill="#7F7F80"/>
<path d="M104.327 170.594L103.053 147.491L104.856 147.271L105.241 170.594H104.327Z" fill="#303031"/>
<path d="M104.327 170.594L104.64 147.296L106.587 147.052L112.166 169.644L104.327 170.594Z" fill="#1D1E1B"/>
<path d="M107.237 147.028L112.214 169.668L106.299 147.15L107.237 147.028Z" fill="#C8C8C9"/>
<path d="M103.846 147.442L104.327 170.643L104.808 147.32L103.846 147.442Z" fill="#7F7F80"/>
<path fill-rule="evenodd" clip-rule="evenodd" d="M202.499 85.2969L174.44 125.606H189.948L183.793 152.584L211.853 112.105H196.272L202.499 85.2969Z" fill="#61D458"/>
</g>
<defs>
<clipPath id="clip0_421_5929">
<rect width="329.5" height="231.74" fill="white"/>
</clipPath>
</defs>
</svg>
