<svg version="1.1" id="Layer_1" xmlns="http://www.w3.org/2000/svg" xmlns:xlink="http://www.w3.org/1999/xlink" x="0px" y="0px"
	 width="100%" viewBox="0 0 433 252" enable-background="new 0 0 433 252" xml:space="preserve">
<path fill="#FFFFFE" opacity="1.000000" stroke="none" 
	d="
M434.000000,210.000000 
	C434.000000,224.321243 434.000000,238.642502 434.000000,252.957306 
	C289.666656,252.950882 145.333328,252.950882 1.000000,252.950882 
	C1.000000,238.913620 1.000000,224.925461 1.343815,210.512604 
	C5.695912,215.565338 10.215629,220.030548 17.739056,220.027206 
	C113.192436,219.984818 208.645844,220.000275 304.099243,219.985855 
	C305.071167,219.985718 306.043121,219.782822 307.015045,219.674591 
	C307.012787,219.430878 307.010529,219.187180 307.008240,218.943481 
	C304.227692,217.911346 301.447113,216.879227 298.517120,215.630463 
	C298.051147,215.261688 297.734558,215.109558 297.447021,215.001938 
	C297.476074,215.046448 297.572815,215.002487 297.401276,214.702606 
	C297.758148,213.284424 297.985229,211.733994 298.865448,211.120178 
	C303.473206,207.906921 308.246521,204.931122 313.114197,201.774261 
	C307.509094,195.436279 300.421173,192.424957 292.796906,189.673828 
	C290.718781,188.690216 288.891815,187.876862 286.992035,187.305496 
	C274.824921,183.646042 262.593628,180.791641 249.547546,184.893036 
	C247.767258,185.628891 246.358765,186.381027 244.571625,187.043915 
	C242.566727,187.301849 240.940460,187.649002 239.314178,187.996155 
	C239.095291,187.503220 238.876419,187.010300 238.657532,186.517365 
	C241.437973,184.987579 244.218430,183.457809 247.249847,182.199432 
	C248.139450,182.516342 248.810242,182.713242 249.412140,182.585510 
	C275.193481,177.114456 296.715393,187.566269 318.425476,200.613968 
	C311.805695,205.052856 305.878143,209.027542 299.371704,213.390427 
	C326.422211,225.518036 352.554504,237.233994 379.368866,249.255737 
	C378.336121,222.304886 377.338043,196.258575 376.317505,169.627197 
	C371.857605,171.658081 367.840790,172.941132 364.438812,175.164764 
	C359.376099,178.473923 355.703583,176.917297 351.021210,173.941116 
	C331.477661,161.519028 310.088196,156.561157 287.173309,161.102554 
	C274.745087,163.565659 264.232178,170.588791 253.925171,177.697739 
	C251.674698,179.249939 249.264801,180.570984 246.625305,181.734055 
	C247.867676,179.954971 249.413086,178.440323 251.213348,176.896179 
	C252.085754,176.384933 252.703339,175.903183 253.679779,175.260025 
	C261.846832,170.466431 269.655060,165.834244 277.814453,160.993713 
	C273.475372,156.149063 268.878662,151.207825 264.494659,146.084564 
	C253.290863,132.991486 242.239670,119.767693 231.016785,106.691147 
	C221.916351,96.087608 212.586365,85.681114 203.482803,75.080223 
	C192.147873,61.880974 180.942795,48.570232 169.678131,35.310612 
	C161.393814,25.559153 153.103867,15.812465 145.296234,6.043873 
	C157.885696,6.026772 169.995392,6.029451 182.061676,6.383615 
	C185.521591,10.832628 189.050491,14.908585 192.523132,19.031912 
	C201.269165,29.416700 209.955338,39.852074 218.732285,50.210590 
	C224.985031,57.590038 231.403259,64.829407 237.646179,72.217026 
	C247.990891,84.458557 258.219788,96.797951 268.563995,109.039886 
	C274.913635,116.554443 281.429779,123.928154 287.793274,131.431152 
	C294.453979,139.284576 300.934174,147.293259 307.706970,155.047424 
	C308.983124,156.508499 311.160614,157.413162 313.095825,158.029633 
	C324.121307,161.541885 335.802887,163.661774 346.056915,168.704376 
	C353.445343,172.337753 357.860077,173.903778 364.148560,167.185318 
	C371.037354,159.825485 379.470612,153.920822 387.139801,147.277008 
	C389.985229,144.812027 389.926758,141.862366 387.558929,139.051315 
	C376.700623,126.160774 365.812042,113.295700 354.918823,100.434593 
	C341.904694,85.069420 328.872894,69.719215 315.852203,54.359585 
	C302.197754,38.252380 288.547455,22.141691 275.370422,6.022075 
	C321.655609,6.007488 367.465668,6.000185 413.275726,6.001503 
	C424.335236,6.001821 428.997284,10.694837 428.999359,21.819212 
	C429.004974,52.137154 429.001251,82.455093 429.001251,112.773033 
	C429.001251,141.924896 429.004150,171.076767 428.999573,200.228638 
	C428.998047,210.090424 424.183441,214.999176 414.536041,215.000351 
	C404.874268,215.001541 395.211029,214.911621 385.552002,215.075302 
	C383.604767,215.108307 380.269775,213.500168 380.132904,217.387848 
	C379.993011,221.360748 383.360840,219.900208 385.327301,219.935638 
	C393.653687,220.085693 401.995148,219.733398 410.310547,220.070938 
	C419.416443,220.440582 427.616180,219.330307 432.622711,210.435913 
	C432.795258,210.129333 433.528259,210.138184 434.000000,210.000000 
z"/>
<path fill="#EDEDEC" opacity="1.000000" stroke="none" 
	d="
M297.572815,215.002472 
	C297.572815,215.002487 297.476074,215.046448 297.671265,215.127075 
	C298.133118,215.420837 298.399841,215.633972 298.666534,215.847092 
	C301.447113,216.879227 304.227692,217.911346 307.008240,218.943481 
	C307.010529,219.187180 307.012787,219.430878 307.015045,219.674591 
	C306.043121,219.782822 305.071167,219.985718 304.099243,219.985855 
	C208.645844,220.000275 113.192436,219.984818 17.739056,220.027206 
	C10.215629,220.030548 5.695912,215.565338 1.343815,210.043945 
	C1.000000,143.979111 1.000000,77.958206 1.337420,11.427134 
	C4.783227,7.611301 7.891613,4.305651 11.000000,1.000000 
	C148.020889,1.000000 285.041779,1.000000 422.575073,1.343095 
	C426.724976,5.124127 430.362488,8.562065 434.000000,12.000002 
	C434.000000,77.687561 434.000000,143.375122 434.000000,209.531342 
	C433.528259,210.138184 432.795258,210.129333 432.622711,210.435913 
	C427.616180,219.330307 419.416443,220.440582 410.310547,220.070938 
	C401.995148,219.733398 393.653687,220.085693 385.327301,219.935638 
	C383.360840,219.900208 379.993011,221.360748 380.132904,217.387848 
	C380.269775,213.500168 383.604767,215.108307 385.552002,215.075302 
	C395.211029,214.911621 404.874268,215.001541 414.536041,215.000351 
	C424.183441,214.999176 428.998047,210.090424 428.999573,200.228638 
	C429.004150,171.076767 429.001251,141.924896 429.001251,112.773033 
	C429.001251,82.455093 429.004974,52.137154 428.999359,21.819212 
	C428.997284,10.694837 424.335236,6.001821 413.275726,6.001503 
	C367.465668,6.000185 321.655609,6.007488 274.908783,6.008018 
	C243.349701,6.013651 212.727386,6.022891 182.105072,6.032130 
	C169.995392,6.029451 157.885696,6.026772 144.842194,6.060818 
	C139.270859,6.112550 134.633316,6.127558 129.564209,6.074236 
	C127.098740,6.074400 125.064865,6.142894 122.568420,6.119561 
	C101.461098,6.037157 80.816330,6.046579 59.692448,6.038700 
	C45.893463,6.014218 32.573467,5.968077 19.253794,6.014709 
	C11.465127,6.041978 6.023060,11.350245 6.018812,19.050184 
	C5.985011,80.322182 5.988734,141.594193 6.015114,202.866211 
	C6.018150,209.916428 11.196332,214.987625 18.342316,214.988113 
	C83.277138,214.992523 148.211960,214.968262 213.496735,215.015778 
	C214.531723,215.222458 215.216751,215.365738 216.298080,215.628021 
	C218.688431,215.719284 220.682404,215.680954 222.676544,215.665497 
	C237.453217,215.550980 252.229950,215.441025 267.456299,215.466568 
	C277.794891,215.403168 287.683868,215.202820 297.572815,215.002472 
z"/>
<path fill="#FFFFFF" opacity="1.000000" stroke="none" 
	d="
M434.000000,11.517046 
	C430.362488,8.562065 426.724976,5.124127 423.043732,1.343095 
	C426.587219,1.000000 430.174408,1.000000 434.000000,1.000000 
	C434.000000,4.342551 434.000000,7.688319 434.000000,11.517046 
z"/>
<path fill="#FFFFFF" opacity="1.000000" stroke="none" 
	d="
M10.513435,1.000000 
	C7.891613,4.305651 4.783227,7.611301 1.337420,10.958476 
	C1.000000,7.747543 1.000000,4.495087 1.000000,1.000000 
	C4.006597,1.000000 7.016734,1.000000 10.513435,1.000000 
z"/>
<path fill="#373736" opacity="1.000000" stroke="none" 
	d="
M182.061676,6.383615 
	C212.727386,6.022891 243.349701,6.013651 274.433655,6.018469 
	C288.547455,22.141691 302.197754,38.252380 315.852203,54.359585 
	C328.872894,69.719215 341.904694,85.069420 354.918823,100.434593 
	C365.812042,113.295700 376.700623,126.160774 387.558929,139.051315 
	C389.926758,141.862366 389.985229,144.812027 387.139801,147.277008 
	C379.470612,153.920822 371.037354,159.825485 364.148560,167.185318 
	C357.860077,173.903778 353.445343,172.337753 346.056915,168.704376 
	C335.802887,163.661774 324.121307,161.541885 313.095825,158.029633 
	C311.160614,157.413162 308.983124,156.508499 307.706970,155.047424 
	C300.934174,147.293259 294.453979,139.284576 287.793274,131.431152 
	C281.429779,123.928154 274.913635,116.554443 268.563995,109.039886 
	C258.219788,96.797951 247.990891,84.458557 237.646179,72.217026 
	C231.403259,64.829407 224.985031,57.590038 218.732285,50.210590 
	C209.955338,39.852074 201.269165,29.416700 192.523132,19.031912 
	C189.050491,14.908585 185.521591,10.832628 182.061676,6.383615 
M342.263153,154.006393 
	C340.557343,155.052750 338.851501,156.099091 337.145691,157.145432 
	C338.883118,159.508148 340.620544,161.870865 342.860077,164.916397 
	C343.230347,162.111313 343.604797,160.575058 343.589355,159.042725 
	C343.572296,157.352615 343.197449,155.666107 343.675476,154.035599 
	C346.298523,154.183624 347.148254,160.673752 351.686981,155.743805 
	C352.735931,154.802277 353.638885,153.551361 354.860168,152.975113 
	C359.152130,150.950073 361.719482,148.176010 360.713959,142.982590 
	C362.325439,143.115753 363.936890,143.248917 366.533295,143.463470 
	C364.132843,140.933685 362.242035,138.940964 359.878662,136.450211 
	C359.878662,139.209763 359.878662,141.047287 359.196716,142.827576 
	C355.951538,140.772766 353.596069,141.655609 351.999939,145.000290 
	C351.999939,145.000290 352.009338,144.989471 351.332794,145.030701 
	C350.173370,146.209793 349.013947,147.388901 347.705078,148.719955 
	C348.570557,150.672867 349.716522,153.258743 350.159637,155.878983 
	C348.018738,154.386688 345.877808,152.894379 343.450684,151.202576 
	C343.294861,152.223480 343.157593,153.122650 342.263153,154.006393 
z"/>
<path fill="#363637" opacity="1.000000" stroke="none" 
	d="
M129.995789,6.142566 
	C134.633316,6.127558 139.270859,6.112550 144.362411,6.080598 
	C153.103867,15.812465 161.393814,25.559153 169.678131,35.310612 
	C180.942795,48.570232 192.147873,61.880974 203.482803,75.080223 
	C212.586365,85.681114 221.916351,96.087608 231.016785,106.691147 
	C242.239670,119.767693 253.290863,132.991486 264.494659,146.084564 
	C268.878662,151.207825 273.475372,156.149063 277.814453,160.993713 
	C269.655060,165.834244 261.846832,170.466431 253.603027,174.855988 
	C252.263382,155.740845 237.140045,146.193054 220.039200,153.626480 
	C218.628876,154.239532 216.939362,154.210266 215.204987,154.081696 
	C211.339188,148.718369 207.647964,143.752777 203.931244,138.446472 
	C203.179153,136.831619 202.627686,135.409653 201.697418,134.307434 
	C195.754120,127.265610 189.859985,120.174255 183.680161,113.343010 
	C179.775421,109.026695 175.403168,105.133308 171.147888,100.706306 
	C167.689163,96.452370 164.323181,92.542351 160.948105,88.289986 
	C158.836334,85.180656 156.733658,82.413666 154.490646,79.462021 
	C146.098236,86.676872 138.505569,93.204201 130.209122,100.336548 
	C133.522736,102.876678 136.192108,104.922966 138.937500,107.315582 
	C142.355606,111.698318 145.697693,115.734711 149.040497,120.130829 
	C149.327972,121.076622 149.506302,121.755814 149.917694,122.234856 
	C156.484268,129.881165 163.011780,137.562927 169.696472,145.105164 
	C173.601227,149.510834 177.767990,153.684265 181.978027,158.266357 
	C185.428543,162.390350 188.717941,166.210129 192.032318,170.373047 
	C194.145462,173.174210 196.233643,175.632217 197.881439,177.571854 
	C200.725327,176.446503 202.791611,175.628845 205.140503,175.040924 
	C206.992828,178.133194 208.555130,180.999847 210.133530,183.857605 
	C218.852768,199.644043 240.165878,200.206299 249.919327,184.909332 
	C262.593628,180.791641 274.824921,183.646042 286.992035,187.305496 
	C288.891815,187.876862 290.718781,188.690216 292.760376,190.022430 
	C288.906860,194.462021 284.859955,198.257797 280.841156,202.083099 
	C276.216644,206.484955 271.617065,210.912964 267.006653,215.329620 
	C252.229950,215.441025 237.453217,215.550980 222.676544,215.665497 
	C220.682404,215.680954 218.688431,215.719284 216.309448,215.244736 
	C215.498337,213.872009 215.230179,212.867462 214.622360,212.151138 
	C204.970871,200.776962 195.318390,189.403046 185.579636,178.103622 
	C174.322266,165.042221 162.927094,152.099487 151.688599,139.021988 
	C138.402863,123.562248 125.231438,108.004326 111.990227,92.506248 
	C101.010208,79.654739 90.000847,66.828300 79.008270,53.622929 
	C81.124161,50.888077 83.013611,48.265572 85.386406,46.197678 
	C96.429054,36.574020 107.683838,27.193159 118.692650,17.531630 
	C122.703163,14.011936 126.241844,9.954608 129.995789,6.142566 
z"/>
<path fill="#CE142E" opacity="1.000000" stroke="none" 
	d="
M246.928345,181.998474 
	C249.264801,180.570984 251.674698,179.249939 253.925171,177.697739 
	C264.232178,170.588791 274.745087,163.565659 287.173309,161.102554 
	C310.088196,156.561157 331.477661,161.519028 351.021210,173.941116 
	C355.703583,176.917297 359.376099,178.473923 364.438812,175.164764 
	C367.840790,172.941132 371.857605,171.658081 376.317505,169.627197 
	C377.338043,196.258575 378.336121,222.304886 379.368866,249.255737 
	C352.554504,237.233994 326.422211,225.518036 299.371704,213.390427 
	C305.878143,209.027542 311.805695,205.052856 318.425476,200.613968 
	C296.715393,187.566269 275.193481,177.114456 249.412140,182.585510 
	C248.810242,182.713242 248.139450,182.516342 247.250244,182.235107 
	C246.999680,181.999344 246.928345,181.998489 246.928345,181.998474 
z"/>
<path fill="#373637" opacity="1.000000" stroke="none" 
	d="
M246.999283,181.963684 
	C244.218430,183.457809 241.437973,184.987579 238.657532,186.517365 
	C238.876419,187.010300 239.095291,187.503220 239.314178,187.996155 
	C240.940460,187.649002 242.566727,187.301849 244.473755,187.366653 
	C237.485565,195.028351 227.684708,195.997269 219.973785,189.999146 
	C223.504852,186.924866 226.690094,184.000015 230.071625,181.323120 
	C232.409317,179.472595 232.690002,177.851395 230.617554,175.608368 
	C227.699783,172.450439 224.965302,169.123154 222.062103,165.570343 
	C220.950958,163.985580 219.930176,162.698792 219.026352,161.076111 
	C219.975220,159.842880 220.807144,158.945557 221.969421,157.691879 
	C220.766296,157.358566 219.929901,157.126846 219.311066,156.625580 
	C224.279663,155.364594 229.126389,153.231537 233.761719,153.620102 
	C243.325928,154.421829 252.277451,163.572021 250.958511,176.925659 
	C249.413086,178.440323 247.867676,179.954971 246.625305,181.734070 
	C246.928345,181.998489 246.999680,181.999344 246.999283,181.963684 
z"/>
<path fill="#303031" opacity="1.000000" stroke="none" 
	d="
M267.456299,215.466568 
	C271.617065,210.912964 276.216644,206.484955 280.841156,202.083099 
	C284.859955,198.257797 288.906860,194.462021 292.977844,190.304581 
	C300.421173,192.424957 307.509094,195.436279 313.114197,201.774261 
	C308.246521,204.931122 303.473206,207.906921 298.865448,211.120178 
	C297.985229,211.733994 297.758148,213.284424 297.401276,214.702606 
	C287.683868,215.202820 277.794891,215.403168 267.456299,215.466568 
z"/>
<path fill="#D6302B" opacity="1.000000" stroke="none" 
	d="
M251.213348,176.896179 
	C252.277451,163.572021 243.325928,154.421829 233.761719,153.620102 
	C229.126389,153.231537 224.279663,155.364594 218.988220,156.774811 
	C216.612549,159.954803 214.777313,162.715958 212.753387,165.758179 
	C211.981308,169.701645 211.397919,173.364059 210.840866,177.407745 
	C212.035477,183.207016 214.630402,187.612762 219.711700,190.254364 
	C227.684708,195.997269 237.485565,195.028351 244.852386,187.455872 
	C246.358765,186.381027 247.767258,185.628891 249.547546,184.893036 
	C240.165878,200.206299 218.852768,199.644043 210.133530,183.857605 
	C208.555130,180.999847 206.992828,178.133194 205.312408,174.754013 
	C205.452591,173.183029 205.703445,172.128677 206.151947,170.808685 
	C206.538223,169.351700 206.726852,168.160355 207.019913,166.638580 
	C208.430557,164.203568 209.736740,162.098984 211.316101,159.940628 
	C212.102966,159.367722 212.616684,158.848587 213.422607,158.142044 
	C214.269745,156.796234 214.824646,155.637833 215.379547,154.479446 
	C216.939362,154.210266 218.628876,154.239532 220.039200,153.626480 
	C237.140045,146.193054 252.263382,155.740845 253.244202,175.017395 
	C252.703339,175.903183 252.085754,176.384933 251.213348,176.896179 
z"/>
<path fill="#303031" opacity="1.000000" stroke="none" 
	d="
M298.517120,215.630463 
	C298.399841,215.633972 298.133118,215.420837 297.642212,215.082565 
	C297.734558,215.109558 298.051147,215.261688 298.517120,215.630463 
z"/>
<path fill="#FFFFFF" opacity="1.000000" stroke="none" 
	d="
M213.146790,214.952393 
	C148.211960,214.968262 83.277138,214.992523 18.342316,214.988113 
	C11.196332,214.987625 6.018150,209.916428 6.015114,202.866211 
	C5.988734,141.594193 5.985011,80.322182 6.018812,19.050184 
	C6.023060,11.350245 11.465127,6.041978 19.253794,6.014709 
	C32.573467,5.968077 45.893463,6.014218 59.560764,6.363880 
	C55.657925,10.231403 50.423832,12.897163 49.090157,19.423931 
	C47.909752,25.232414 52.434849,27.764244 55.096180,31.014179 
	C61.822136,39.227707 68.973854,47.092583 76.095627,55.401932 
	C83.258415,63.724224 90.354881,71.678108 97.285767,79.773735 
	C108.458328,92.823837 119.452553,106.026855 130.652542,119.053123 
	C140.066330,130.001923 149.727463,140.737747 159.169022,151.662994 
	C173.304901,168.020264 187.359558,184.447845 201.415039,200.874405 
	C205.386078,205.515350 209.239456,210.256958 213.146790,214.952393 
z"/>
<path fill="#4A4A4A" opacity="1.000000" stroke="none" 
	d="
M49.150948,19.022697 
	C50.423832,12.897163 55.657925,10.231403 60.039886,6.381183 
	C80.816330,6.046579 101.461098,6.037157 122.524094,6.451718 
	C121.292831,8.712090 119.817101,10.749651 117.963997,12.350324 
	C109.576836,19.594969 101.066307,26.696548 92.633385,33.888538 
	C86.749382,38.906693 80.919083,43.987816 74.600037,49.441959 
	C70.206406,44.403591 66.012680,39.754669 62.002419,34.952538 
	C57.629925,29.716639 53.427509,24.338711 49.150948,19.022697 
M99.385490,8.703868 
	C96.043945,7.218801 92.582031,7.073228 90.608665,10.402299 
	C89.542336,12.201193 89.166519,15.661573 90.215073,17.147202 
	C91.546814,19.034052 94.658363,20.697979 96.968948,20.655001 
	C102.528130,20.551594 104.005608,14.474607 99.385490,8.703868 
z"/>
<path fill="#19191A" opacity="1.000000" stroke="none" 
	d="
M213.496735,215.015778 
	C209.239456,210.256958 205.386078,205.515350 201.415039,200.874405 
	C187.359558,184.447845 173.304901,168.020264 159.169022,151.662994 
	C149.727463,140.737747 140.066330,130.001923 130.652542,119.053123 
	C119.452553,106.026855 108.458328,92.823837 97.285767,79.773735 
	C90.354881,71.678108 83.258415,63.724224 76.136139,55.089504 
	C77.025505,54.311775 78.014992,54.151264 79.004486,53.990753 
	C90.000847,66.828300 101.010208,79.654739 111.990227,92.506248 
	C125.231438,108.004326 138.402863,123.562248 151.688599,139.021988 
	C162.927094,152.099487 174.322266,165.042221 185.579636,178.103622 
	C195.318390,189.403046 204.970871,200.776962 214.622360,212.151138 
	C215.230179,212.867462 215.498337,213.872009 215.913147,215.125748 
	C215.216751,215.365738 214.531723,215.222458 213.496735,215.015778 
z"/>
<path fill="#313132" opacity="1.000000" stroke="none" 
	d="
M79.008270,53.622925 
	C78.014992,54.151264 77.025505,54.311775 75.995499,54.784714 
	C68.973854,47.092583 61.822136,39.227707 55.096180,31.014179 
	C52.434849,27.764244 47.909752,25.232414 49.090157,19.423931 
	C53.427509,24.338711 57.629925,29.716639 62.002419,34.952538 
	C66.012680,39.754669 70.206406,44.403591 74.600037,49.441959 
	C80.919083,43.987816 86.749382,38.906693 92.633385,33.888538 
	C101.066307,26.696548 109.576836,19.594969 117.963997,12.350324 
	C119.817101,10.749651 121.292831,8.712090 122.986664,6.543545 
	C125.064865,6.142894 127.098740,6.074400 129.564209,6.074236 
	C126.241844,9.954608 122.703163,14.011936 118.692650,17.531630 
	C107.683838,27.193159 96.429054,36.574020 85.386406,46.197678 
	C83.013611,48.265572 81.124161,50.888077 79.008270,53.622925 
z"/>
<path fill="#0D0D0C" opacity="1.000000" stroke="none" 
	d="
M350.862488,155.844635 
	C349.716522,153.258743 348.570557,150.672867 347.705078,148.719955 
	C349.013947,147.388901 350.173370,146.209793 351.733124,145.388458 
	C354.035889,146.228729 355.938324,146.711243 357.840759,147.193741 
	C357.920654,146.664658 358.000519,146.135574 358.080414,145.606491 
	C356.050018,145.407806 354.019653,145.209122 351.989258,145.010437 
	C353.596069,141.655609 355.951538,140.772766 359.591125,142.907379 
	C359.985535,142.987183 360.090454,143.091553 360.090454,143.091553 
	C361.719482,148.176010 359.152130,150.950073 354.860168,152.975113 
	C353.638885,153.551361 352.735931,154.802277 351.331177,155.859314 
	C350.975372,155.974823 350.862488,155.844635 350.862488,155.844635 
z"/>
<path fill="#0D0D0C" opacity="1.000000" stroke="none" 
	d="
M342.978455,153.978012 
	C343.197449,155.666107 343.572296,157.352615 343.589355,159.042725 
	C343.604797,160.575058 343.230347,162.111313 342.860077,164.916397 
	C340.620544,161.870865 338.883118,159.508148 337.145691,157.145432 
	C338.851501,156.099091 340.557343,155.052750 342.631409,154.003052 
	C342.999695,153.999695 342.978485,153.978012 342.978455,153.978012 
z"/>
<path fill="#0D0D0C" opacity="1.000000" stroke="none" 
	d="
M359.932098,142.936005 
	C359.878662,141.047287 359.878662,139.209763 359.878662,136.450211 
	C362.242035,138.940964 364.132843,140.933685 366.533295,143.463470 
	C363.936890,143.248917 362.325439,143.115753 360.402222,143.037079 
	C360.090454,143.091553 359.985535,142.987183 359.932098,142.936005 
z"/>
<path fill="#0D0D0C" opacity="1.000000" stroke="none" 
	d="
M343.010010,154.010757 
	C343.157593,153.122650 343.294861,152.223480 343.450684,151.202576 
	C345.877808,152.894379 348.018738,154.386688 350.511047,155.861816 
	C350.862488,155.844635 350.975372,155.974823 351.032288,156.041687 
	C347.148254,160.673752 346.298523,154.183624 343.326965,154.006805 
	C342.978485,153.978012 342.999695,153.999695 343.010010,154.010757 
z"/>
<path fill="#0A0B0D" opacity="1.000000" stroke="none" 
	d="
M171.240616,101.050224 
	C175.403168,105.133308 179.775421,109.026695 183.680161,113.343010 
	C189.859985,120.174255 195.754120,127.265610 201.697418,134.307434 
	C202.627686,135.409653 203.179153,136.831619 203.567322,138.518555 
	C201.493896,137.920471 199.758926,136.909561 197.929260,135.578903 
	C189.614227,125.670319 181.361801,116.108597 173.211624,106.460495 
	C172.115646,105.163078 171.534988,103.430328 170.873108,101.703110 
	C171.100525,101.354782 171.170563,101.202507 171.240616,101.050224 
z"/>
<path fill="#0A0B0D" opacity="1.000000" stroke="none" 
	d="
M181.816895,157.962173 
	C177.767990,153.684265 173.601227,149.510834 169.696472,145.105164 
	C163.011780,137.562927 156.484268,129.881165 149.917694,122.234856 
	C149.506302,121.755814 149.327972,121.076622 149.301208,120.098175 
	C150.013306,119.438004 150.465393,119.170212 151.237198,119.031944 
	C160.203125,129.177429 168.925369,139.129471 177.437347,149.258224 
	C179.352661,151.537338 180.534058,154.433243 181.990280,157.273438 
	C181.927246,157.501663 181.816895,157.962173 181.816895,157.962173 
z"/>
<path fill="#0F1012" opacity="1.000000" stroke="none" 
	d="
M138.861496,106.969246 
	C136.192108,104.922966 133.522736,102.876678 130.209122,100.336548 
	C138.505569,93.204201 146.098236,86.676872 154.490646,79.462021 
	C156.733658,82.413666 158.836334,85.180656 160.693924,88.344719 
	C160.299927,88.830513 160.151001,88.919235 159.646606,88.988022 
	C157.834732,87.736168 156.490082,86.313789 154.868881,85.362885 
	C154.187515,84.963249 152.921387,85.560608 151.593842,85.823563 
	C149.976425,86.940796 148.686264,87.939201 147.277924,88.884491 
	C147.159760,88.831360 146.990540,89.027603 146.731171,89.050003 
	C146.363693,89.365295 146.255569,89.658188 146.009064,90.252731 
	C144.854111,91.696106 143.837540,92.837830 142.487213,93.905579 
	C141.425156,94.519325 140.696869,95.207047 139.645493,95.979385 
	C138.398926,97.013962 137.475433,97.963928 136.268860,98.975830 
	C137.058884,101.420822 138.132019,103.803864 139.115311,106.380775 
	C139.025482,106.574638 138.861496,106.969246 138.861496,106.969246 
z"/>
<path fill="#E8E8E8" opacity="1.000000" stroke="none" 
	d="
M198.023956,135.898651 
	C199.758926,136.909561 201.493896,137.920471 203.592804,138.859283 
	C207.647964,143.752777 211.339188,148.718369 215.204987,154.081696 
	C214.824646,155.637833 214.269745,156.796234 213.294342,157.800537 
	C207.583252,151.078522 202.292664,144.510574 197.120865,137.681686 
	C197.501099,136.913376 197.762527,136.406006 198.023956,135.898651 
z"/>
<path fill="#0D0D0C" opacity="1.000000" stroke="none" 
	d="
M205.954315,171.074341 
	C205.703445,172.128677 205.452591,173.183029 205.029816,174.524292 
	C202.791611,175.628845 200.725327,176.446503 197.881439,177.571854 
	C196.233643,175.632217 194.145462,173.174210 192.259140,170.352356 
	C192.460983,169.988510 192.903122,169.878845 193.256897,169.900513 
	C195.080338,170.353958 196.550034,170.785721 198.308258,171.083160 
	C199.402145,170.309677 200.207489,169.670532 201.350281,168.890701 
	C203.073257,168.516220 204.458771,168.282425 205.754700,168.359360 
	C205.761490,169.471497 205.857910,170.272919 205.954315,171.074341 
z"/>
<path fill="#E5E5E5" opacity="1.000000" stroke="none" 
	d="
M138.937500,107.315582 
	C138.861496,106.969246 139.025482,106.574638 139.405289,106.507751 
	C143.495880,110.594711 147.206680,114.748566 150.917480,118.902420 
	C150.465393,119.170212 150.013306,119.438004 149.300507,119.738449 
	C145.697693,115.734711 142.355606,111.698318 138.937500,107.315582 
z"/>
<path fill="#E8E8E8" opacity="1.000000" stroke="none" 
	d="
M192.903122,169.878845 
	C192.903122,169.878845 192.460983,169.988510 192.234161,170.009216 
	C188.717941,166.210129 185.428543,162.390350 181.978027,158.266357 
	C181.816895,157.962173 181.927246,157.501663 182.341736,157.177078 
	C186.138535,161.194611 189.520828,165.536728 192.903122,169.878845 
z"/>
<path fill="#E8E8E8" opacity="1.000000" stroke="none" 
	d="
M160.002090,89.007965 
	C160.151001,88.919235 160.299927,88.830513 160.703018,88.687065 
	C164.323181,92.542351 167.689163,96.452370 171.147888,100.706306 
	C171.170563,101.202507 171.100525,101.354782 170.595703,101.551819 
	C166.774643,97.400383 163.388367,93.204178 160.002090,89.007965 
z"/>
<path fill="#FAF9F9" opacity="1.000000" stroke="none" 
	d="
M219.973785,189.999146 
	C214.630402,187.612762 212.035477,183.207016 210.963898,177.082001 
	C214.757889,172.872772 218.455170,169.370529 222.152451,165.868286 
	C224.965302,169.123154 227.699783,172.450439 230.617554,175.608368 
	C232.690002,177.851395 232.409317,179.472595 230.071625,181.323120 
	C226.690094,184.000015 223.504852,186.924866 219.973785,189.999146 
z"/>
<path fill="#C6C0BD" opacity="1.000000" stroke="none" 
	d="
M222.062103,165.570343 
	C218.455170,169.370529 214.757889,172.872772 210.937576,176.700729 
	C211.397919,173.364059 211.981308,169.701645 213.104279,165.715546 
	C215.399048,164.065231 217.154221,162.738617 218.909393,161.411987 
	C219.930176,162.698792 220.950958,163.985580 222.062103,165.570343 
z"/>
<path fill="#0F1012" opacity="1.000000" stroke="none" 
	d="
M219.026367,161.076111 
	C217.154221,162.738617 215.399048,164.065231 213.292969,165.434479 
	C214.777313,162.715958 216.612549,159.954803 218.770630,157.044388 
	C219.929901,157.126846 220.766296,157.358566 221.969421,157.691879 
	C220.807144,158.945557 219.975220,159.842880 219.026367,161.076111 
z"/>
<path fill="#ECECEB" opacity="1.000000" stroke="none" 
	d="
M211.042938,159.994415 
	C209.736740,162.098984 208.430557,164.203568 207.035248,166.652222 
	C206.946136,166.996277 206.965378,166.972275 206.627029,166.900711 
	C204.842743,164.725830 203.535812,162.508636 201.923965,160.541245 
	C197.653992,155.329437 193.252167,150.225632 189.061996,144.772263 
	C191.029327,143.215225 192.837479,141.964767 194.835785,141.024719 
	C200.364929,147.554916 205.703934,153.774658 211.042938,159.994415 
z"/>
<path fill="#FFFFFE" opacity="1.000000" stroke="none" 
	d="
M211.316101,159.940643 
	C205.703934,153.774658 200.364929,147.554916 194.883926,140.763687 
	C194.730469,139.833221 194.719009,139.474243 194.994385,138.983597 
	C195.529602,138.523682 195.777969,138.195404 196.269989,137.889572 
	C196.513641,137.912018 197.002060,137.942642 197.002060,137.942642 
	C202.292664,144.510574 207.583252,151.078522 213.002136,157.987946 
	C212.616684,158.848587 212.102966,159.367722 211.316101,159.940643 
z"/>
<path fill="#C9C8C9" opacity="1.000000" stroke="none" 
	d="
M206.151947,170.808685 
	C205.857910,170.272919 205.761490,169.471497 206.013824,168.265442 
	C206.563507,167.564621 206.764450,167.268448 206.965378,166.972275 
	C206.965378,166.972275 206.946136,166.996277 206.930801,166.982651 
	C206.726852,168.160355 206.538223,169.351700 206.151947,170.808685 
z"/>
<path fill="#DEDDDD" opacity="1.000000" stroke="none" 
	d="
M99.720528,8.914498 
	C104.005608,14.474607 102.528130,20.551594 96.968948,20.655001 
	C94.658363,20.697979 91.546814,19.034052 90.215073,17.147202 
	C89.166519,15.661573 89.542336,12.201193 90.608665,10.402299 
	C92.582031,7.073228 96.043945,7.218801 99.720528,8.914498 
z"/>
<path fill="#373736" opacity="1.000000" stroke="none" 
	d="
M351.994598,145.005371 
	C354.019653,145.209122 356.050018,145.407806 358.080414,145.606491 
	C358.000519,146.135574 357.920654,146.664658 357.840759,147.193741 
	C355.938324,146.711243 354.035889,146.228729 352.071411,145.367859 
	C352.009338,144.989471 351.999939,145.000290 351.994598,145.005371 
z"/>
<path fill="#C5C4C5" opacity="1.000000" stroke="none" 
	d="
M197.120865,137.681686 
	C197.002060,137.942642 196.513641,137.912018 196.119110,137.601135 
	C189.692215,130.220245 183.644791,123.163048 177.631088,116.077225 
	C169.048126,105.964066 160.489883,95.829926 151.921082,85.704742 
	C152.921387,85.560608 154.187515,84.963249 154.868881,85.362885 
	C156.490082,86.313789 157.834732,87.736168 159.646606,88.988022 
	C163.388367,93.204178 166.774643,97.400383 170.438324,101.747879 
	C171.534988,103.430328 172.115646,105.163078 173.211624,106.460495 
	C181.361801,116.108597 189.614227,125.670319 197.929260,135.578903 
	C197.762527,136.406006 197.501099,136.913376 197.120865,137.681686 
z"/>
<path fill="#7D7C7C" opacity="1.000000" stroke="none" 
	d="
M193.256897,169.900513 
	C189.520828,165.536728 186.138535,161.194611 182.404770,156.948853 
	C180.534058,154.433243 179.352661,151.537338 177.437347,149.258224 
	C168.925369,139.129471 160.203125,129.177429 151.237198,119.031952 
	C147.206680,114.748566 143.495880,110.594711 139.495117,106.313889 
	C138.132019,103.803864 137.058884,101.420822 136.630508,99.068214 
	C141.072876,103.218605 144.971512,107.250610 148.649200,111.474968 
	C159.796295,124.279083 170.857849,137.157684 182.076569,150.322906 
	C184.079422,152.930557 186.028824,155.169022 187.822403,157.526047 
	C191.268173,162.054352 194.625626,166.649872 198.019714,171.217499 
	C196.550034,170.785721 195.080338,170.353958 193.256897,169.900513 
z"/>
<path fill="#C9C8C9" opacity="1.000000" stroke="none" 
	d="
M194.707550,139.115250 
	C194.719009,139.474243 194.730469,139.833221 194.693787,140.453247 
	C192.837479,141.964767 191.029327,143.215225 188.836884,144.743378 
	C188.452576,145.021072 187.997925,145.000000 187.891632,144.679840 
	C174.151718,128.366730 160.541672,112.353470 146.834396,96.423874 
	C145.862427,95.294312 144.175461,94.779968 142.820969,93.979553 
	C143.837540,92.837830 144.854111,91.696106 146.214569,90.165756 
	C146.827072,89.599106 146.971085,89.349266 146.990540,89.027603 
	C146.990540,89.027603 147.159760,88.831360 147.668549,88.908875 
	C149.517197,89.898186 151.131393,90.573082 152.154770,91.758171 
	C163.206833,104.556732 174.089523,117.502213 185.203369,130.246323 
	C188.036346,133.494843 191.521835,136.174316 194.707550,139.115250 
z"/>
<path fill="#818183" opacity="1.000000" stroke="none" 
	d="
M142.487213,93.905579 
	C144.175461,94.779968 145.862427,95.294312 146.834396,96.423874 
	C160.541672,112.353470 174.151718,128.366730 187.592743,144.818726 
	C185.942581,146.153412 184.485046,147.029053 182.982910,147.566284 
	C173.943832,136.640198 164.905777,126.089066 155.971069,115.451164 
	C150.554260,109.001785 145.297333,102.418121 139.968582,95.894775 
	C140.696869,95.207047 141.425156,94.519325 142.487213,93.905579 
z"/>
<path fill="#EFEFEE" opacity="1.000000" stroke="none" 
	d="
M194.994385,138.983597 
	C191.521835,136.174316 188.036346,133.494843 185.203369,130.246323 
	C174.089523,117.502213 163.206833,104.556732 152.154770,91.758171 
	C151.131393,90.573082 149.517197,89.898186 147.786713,88.962006 
	C148.686264,87.939201 149.976425,86.940796 151.593842,85.823563 
	C160.489883,95.829926 169.048126,105.964066 177.631088,116.077225 
	C183.644791,123.163048 189.692215,130.220245 195.875443,137.578674 
	C195.777969,138.195404 195.529602,138.523682 194.994385,138.983597 
z"/>
<path fill="#9FA09F" opacity="1.000000" stroke="none" 
	d="
M139.645493,95.979385 
	C145.297333,102.418121 150.554260,109.001785 155.971069,115.451164 
	C164.905777,126.089066 173.943832,136.640198 182.974701,147.845062 
	C183.010284,148.647400 183.009491,148.832596 182.892487,149.239548 
	C182.501755,149.643280 182.227234,149.825272 181.952713,150.007263 
	C170.857849,137.157684 159.796295,124.279083 148.649200,111.474968 
	C144.971512,107.250610 141.072876,103.218605 136.913605,99.006271 
	C137.475433,97.963928 138.398926,97.013962 139.645493,95.979385 
z"/>
<path fill="#EFEFEE" opacity="1.000000" stroke="none" 
	d="
M146.731171,89.050003 
	C146.971085,89.349266 146.827072,89.599106 146.352966,89.864105 
	C146.255569,89.658188 146.363693,89.365295 146.731171,89.050003 
z"/>
<path fill="#A6A5A5" opacity="1.000000" stroke="none" 
	d="
M183.008682,149.017807 
	C183.009491,148.832596 183.010284,148.647400 183.019287,148.183456 
	C184.485046,147.029053 185.942581,146.153412 187.699020,145.138885 
	C187.997925,145.000000 188.452576,145.021072 188.677704,145.049957 
	C193.252167,150.225632 197.653992,155.329437 201.923965,160.541245 
	C203.535812,162.508636 204.842743,164.725830 206.627029,166.900711 
	C206.764450,167.268448 206.563507,167.564621 206.103439,167.954712 
	C204.458771,168.282425 203.073257,168.516220 201.312073,168.543640 
	C197.777405,164.543243 194.750626,160.627899 191.416992,156.994049 
	C188.811691,154.154144 185.825577,151.663589 183.008682,149.017807 
z"/>
<path fill="#BEBDBD" opacity="1.000000" stroke="none" 
	d="
M182.892487,149.239548 
	C185.825577,151.663589 188.811691,154.154144 191.416992,156.994049 
	C194.750626,160.627899 197.777405,164.543243 200.974625,168.684326 
	C200.207489,169.670532 199.402145,170.309677 198.308258,171.083160 
	C194.625626,166.649872 191.268173,162.054352 187.822403,157.526047 
	C186.028824,155.169022 184.079422,152.930557 182.076569,150.322906 
	C182.227234,149.825272 182.501755,149.643280 182.892487,149.239548 
z"/>
</svg>