<svg version="1.1" id="Layer_1" xmlns="http://www.w3.org/2000/svg" xmlns:xlink="http://www.w3.org/1999/xlink" x="0px" y="0px"
	 width="100%" viewBox="0 0 432 296" enable-background="new 0 0 432 296" xml:space="preserve">
<path fill="#4A4A4A" opacity="1.000000" stroke="none" 
	d="
M137.000000,1.000000 
	C139.700623,1.000000 142.401260,1.000000 145.632935,1.363294 
	C147.410309,3.443346 149.453751,5.024415 149.772842,6.899010 
	C151.757675,18.558990 153.356064,30.284752 154.986053,42.362480 
	C155.253860,44.156578 155.618240,45.576897 155.949921,47.437431 
	C156.243866,50.290562 156.581436,52.702053 156.895355,55.116619 
	C158.571884,68.011604 160.115555,80.925453 161.950912,93.797737 
	C163.782593,106.644150 166.029694,119.431313 167.863907,132.277390 
	C169.703354,145.160278 171.162155,158.097229 172.963943,170.985870 
	C174.785263,184.014297 176.822617,197.012543 178.393692,209.975739 
	C176.600845,209.811462 175.148834,209.447144 173.763382,209.619156 
	C163.675873,210.871552 153.601761,212.231888 143.093018,213.614746 
	C140.702255,197.124741 138.334274,180.986832 136.031967,164.839569 
	C134.634811,155.040573 133.407486,145.216507 131.887543,135.437317 
	C131.742813,134.506165 130.053436,133.815079 129.000946,132.592758 
	C125.496521,108.502296 122.103699,84.827019 118.630997,61.163464 
	C117.427528,52.962845 116.443901,44.656620 111.028976,37.457561 
	C110.288200,37.217922 109.129501,37.129066 109.048088,37.384106 
	C108.331665,39.628365 107.807014,41.933842 107.175400,44.669624 
	C107.150673,49.101349 106.771912,53.135670 107.267204,57.059662 
	C110.479340,82.508087 113.881729,107.932495 117.085938,133.784027 
	C116.949402,137.090179 116.624786,140.019836 116.999130,142.857254 
	C120.081108,166.217804 123.318977,189.557816 126.383484,212.920578 
	C126.527412,214.017868 125.562057,216.249039 124.971481,216.299744 
	C119.706573,216.751694 114.364761,219.903137 109.127472,216.186081 
	C109.120941,216.151581 109.181976,216.043121 109.683952,216.104736 
	C112.581657,213.257812 111.652817,211.628159 108.260483,210.678986 
	C108.700714,210.232101 109.068985,210.080032 109.643082,209.387756 
	C109.735016,206.797485 111.027802,203.988861 107.277306,203.648224 
	C107.718292,203.206299 108.084526,203.056366 108.649811,202.399078 
	C106.561249,185.263275 104.273643,168.634827 101.992142,151.575684 
	C100.332825,139.732498 98.668373,128.319855 97.001701,116.907524 
	C95.144127,104.188019 93.237877,91.475395 91.438675,78.747650 
	C89.569786,65.526863 87.712952,52.303127 86.023247,39.058685 
	C84.830193,29.707056 83.924644,20.318750 83.050262,10.597294 
	C86.970360,9.462747 90.706963,8.527485 94.496353,7.923227 
	C103.018478,6.564285 111.578285,5.441662 120.100357,4.082408 
	C125.753632,3.180722 131.368134,2.035954 137.000000,1.000000 
M153.723419,187.155167 
	C150.970627,189.266327 151.607056,191.607452 153.908859,193.232941 
	C155.228668,194.164932 158.184296,194.813065 158.915268,194.088211 
	C160.128647,192.885010 160.970810,190.217133 160.479691,188.625992 
	C159.617752,185.833450 157.070511,185.372101 153.723419,187.155167 
M150.705017,164.321381 
	C149.135254,167.380112 150.731506,169.492538 153.426376,169.577728 
	C154.546661,169.613144 155.769058,166.418396 156.945023,164.692520 
	C156.565399,164.263367 156.185791,163.834229 155.806183,163.405090 
	C154.314804,163.577713 152.823441,163.750336 150.705017,164.321381 
z"/>
<path fill="#FFFFFF" opacity="1.000000" stroke="none" 
	d="
M155.082611,41.988697 
	C153.356064,30.284752 151.757675,18.558990 149.772842,6.899010 
	C149.453751,5.024415 147.410309,3.443346 146.082001,1.363294 
	C241.666687,1.000000 337.333374,1.000000 433.000000,1.000000 
	C433.000000,17.438467 433.000000,33.750576 432.651428,50.500355 
	C431.481415,50.184925 430.764313,49.248192 429.819855,48.711575 
	C426.343018,46.736111 422.851562,43.393539 419.256958,43.247944 
	C398.502167,42.407272 377.716766,42.084785 356.940887,42.045776 
	C289.654999,41.919437 222.368729,41.992466 155.082611,41.988697 
z"/>
<path fill="#FFFFFF" opacity="1.000000" stroke="none" 
	d="
M433.000000,252.000000 
	C433.000000,266.980835 433.000000,281.961700 433.000000,297.000000 
	C333.979126,297.000000 234.958221,297.000000 135.460983,296.783691 
	C134.984650,296.567413 135.080231,296.145294 135.405701,296.116699 
	C136.159866,296.025757 136.588562,295.963409 137.447769,295.950684 
	C148.521988,294.535126 159.173477,293.123474 169.805893,291.580505 
	C174.571365,290.888947 179.298676,289.934448 184.408142,289.045166 
	C186.150818,287.137421 188.804504,285.193939 188.681396,283.446014 
	C188.198349,276.587555 186.839859,269.790710 185.884003,262.731750 
	C185.921509,262.329742 185.881500,262.166931 185.927643,261.759521 
	C186.065292,261.349945 186.116776,261.184906 186.626343,261.013214 
	C259.983765,261.004364 332.883270,260.930176 405.782288,261.083130 
	C415.896149,261.104370 425.818237,261.682526 432.517090,252.070007 
	C432.580658,251.978790 432.834808,252.020401 433.000000,252.000000 
z"/>
<path fill="#FFFFFF" opacity="1.000000" stroke="none" 
	d="
M123.000000,297.000000 
	C82.440140,297.000000 41.880283,297.000000 1.000000,297.000000 
	C1.000000,282.313995 1.000000,267.625641 1.338709,252.510620 
	C7.262259,259.297760 14.788614,261.174561 23.606874,261.099854 
	C54.058804,260.841827 84.514282,261.002533 115.108116,261.392151 
	C116.160721,267.803650 116.836472,273.875275 118.053947,279.836243 
	C119.244644,285.666046 118.093330,292.229187 123.000000,297.000000 
z"/>
<path fill="#FFFFFF" opacity="1.000000" stroke="none" 
	d="
M136.531342,1.000000 
	C131.368134,2.035954 125.753632,3.180722 120.100357,4.082408 
	C111.578285,5.441662 103.018478,6.564285 94.496353,7.923227 
	C90.706963,8.527485 86.970360,9.462747 82.708977,10.799179 
	C81.935364,15.176447 81.207977,19.036348 81.491394,22.820549 
	C81.971970,29.237131 83.090347,35.605942 83.475693,41.996574 
	C64.730766,41.998928 46.447403,42.210155 28.172131,41.916981 
	C18.064442,41.754833 8.163491,41.322502 1.482165,50.930225 
	C1.418875,51.021236 1.164933,50.979668 1.000000,51.000000 
	C1.000000,34.372623 1.000000,17.745245 1.000000,1.000000 
	C46.020828,1.000000 91.041756,1.000000 136.531342,1.000000 
z"/>
<path fill="#EDEDEC" opacity="1.000000" stroke="none" 
	d="
M433.000000,251.531342 
	C432.834808,252.020401 432.580658,251.978790 432.517090,252.070007 
	C425.818237,261.682526 415.896149,261.104370 405.782288,261.083130 
	C332.883270,260.930176 259.983765,261.004364 186.550201,260.647278 
	C185.731598,258.851929 185.447174,257.415833 185.621170,255.986542 
	C262.213226,255.995560 338.346893,255.998001 414.480560,255.999710 
	C423.831390,255.999924 427.997772,251.790573 427.998322,242.312881 
	C428.001740,185.004395 427.999695,127.695923 428.001556,70.387444 
	C428.001617,68.888329 427.879791,67.371376 428.060852,65.892883 
	C429.675232,52.710236 424.654419,47.000645 411.371857,47.000385 
	C326.242096,46.998707 241.112366,46.998142 155.982620,46.997211 
	C155.618240,45.576897 155.253860,44.156578 154.986053,42.362480 
	C222.368729,41.992466 289.654999,41.919437 356.940887,42.045776 
	C377.716766,42.084785 398.502167,42.407272 419.256958,43.247944 
	C422.851562,43.393539 426.343018,46.736111 429.819855,48.711575 
	C430.764313,49.248192 431.481415,50.184925 432.651428,50.969013 
	C433.000000,117.687561 433.000000,184.375122 433.000000,251.531342 
z"/>
<path fill="#EDEDEC" opacity="1.000000" stroke="none" 
	d="
M1.000000,51.468658 
	C1.164933,50.979668 1.418875,51.021236 1.482165,50.930225 
	C8.163491,41.322502 18.064442,41.754833 28.172131,41.916981 
	C46.447403,42.210155 64.730766,41.998928 83.737579,42.272503 
	C84.589310,44.036789 84.714226,45.526886 84.380600,47.011234 
	C62.426979,47.003605 40.931892,46.995670 19.436815,47.002712 
	C10.292343,47.005711 6.084599,51.279842 5.988119,60.399647 
	C5.687135,88.850121 5.189357,117.299286 5.039352,145.750381 
	C4.871557,177.575623 4.940791,209.402603 5.036131,241.228439 
	C5.065611,251.069214 10.157754,255.986328 19.854944,255.991470 
	C51.514397,256.008240 83.173866,255.988083 114.911316,256.404724 
	C114.982330,258.219452 114.975372,259.611633 114.968407,261.003784 
	C84.514282,261.002533 54.058804,260.841827 23.606874,261.099854 
	C14.788614,261.174561 7.262259,259.297760 1.338709,252.041962 
	C1.000000,185.312439 1.000000,118.624878 1.000000,51.468658 
z"/>
<path fill="#2F2F30" opacity="1.000000" stroke="none" 
	d="
M115.108116,261.392151 
	C114.975372,259.611633 114.982330,258.219452 114.835083,256.004852 
	C112.831917,242.195129 110.982956,229.207855 109.134003,216.220581 
	C114.364761,219.903137 119.706573,216.751694 124.971481,216.299744 
	C125.562057,216.249039 126.527412,214.017868 126.383484,212.920578 
	C123.318977,189.557816 120.081108,166.217804 116.999130,142.857254 
	C116.624786,140.019836 116.949402,137.090179 117.386566,134.075729 
	C118.922768,139.960922 120.022476,145.973663 121.074333,152.418701 
	C123.723999,172.312241 126.405251,191.775833 129.185852,211.225220 
	C129.284424,211.914764 130.367447,212.463577 131.062515,213.484299 
	C131.442703,220.904404 131.752014,227.918182 132.009155,235.404114 
	C132.621658,243.884933 133.286301,251.893616 133.964539,260.156494 
	C133.979279,260.580414 133.980438,260.750153 133.825500,261.299530 
	C133.756226,262.491455 133.843063,263.303711 133.899994,264.446533 
	C133.943909,265.213287 134.017761,265.649475 134.063705,266.446625 
	C134.099640,267.766968 134.163452,268.726379 133.981049,270.009216 
	C130.853500,270.898102 127.994186,271.671295 125.085617,271.979187 
	C120.943985,272.417603 119.220749,274.345612 120.082237,278.524139 
	C120.778816,281.902771 121.538429,285.292816 121.869514,288.716522 
	C122.336708,293.547913 124.996811,295.181671 129.531097,295.087982 
	C131.372742,295.049896 133.230057,295.770111 135.080231,296.145294 
	C135.080231,296.145294 134.984650,296.567413 134.992325,296.783691 
	C131.307098,297.000000 127.614182,297.000000 123.460632,297.000000 
	C118.093330,292.229187 119.244644,285.666046 118.053947,279.836243 
	C116.836472,273.875275 116.160721,267.803650 115.108116,261.392151 
M116.497910,252.990128 
	C117.000031,256.579041 117.652420,260.154999 117.963104,263.760376 
	C118.290817,267.563263 118.851746,270.737396 123.936684,270.001648 
	C128.452957,269.348175 129.554565,267.602875 128.925797,262.390961 
	C128.136444,255.847931 127.555717,249.277222 127.009262,242.708130 
	C126.423492,235.666473 125.982124,228.612793 125.436630,220.989838 
	C121.550064,221.384613 117.807579,221.598572 114.155022,222.288574 
	C113.495529,222.413162 112.698692,224.551453 112.825165,225.662155 
	C113.832069,234.504974 115.046524,243.324158 116.497910,252.990128 
z"/>
<path fill="#FFFFFF" opacity="1.000000" stroke="none" 
	d="
M155.949921,47.437431 
	C241.112366,46.998142 326.242096,46.998707 411.371857,47.000385 
	C424.654419,47.000645 429.675232,52.710236 428.060852,65.892883 
	C427.879791,67.371376 428.001617,68.888329 428.001556,70.387444 
	C427.999695,127.695923 428.001740,185.004395 427.998322,242.312881 
	C427.997772,251.790573 423.831390,255.999924 414.480560,255.999710 
	C338.346893,255.998001 262.213226,255.995560 185.549194,255.553772 
	C183.868164,246.466263 182.788712,237.808029 181.540894,229.174118 
	C180.758011,223.757080 179.722229,218.376617 178.867493,212.612778 
	C178.878494,211.505219 178.821915,210.764603 178.765335,210.024002 
	C176.822617,197.012543 174.785263,184.014297 172.963943,170.985870 
	C171.162155,158.097229 169.703354,145.160278 167.863907,132.277390 
	C166.029694,119.431313 163.782593,106.644150 161.950912,93.797737 
	C160.115555,80.925453 158.571884,68.011604 156.895355,55.116619 
	C156.581436,52.702053 156.243866,50.290562 155.949921,47.437431 
M399.933289,182.348740 
	C406.622009,169.022232 408.686066,155.051331 406.030701,140.341629 
	C399.348236,103.323822 366.206207,80.744553 329.429749,86.192902 
	C310.594482,88.983315 295.606934,99.178299 285.074371,115.079956 
	C275.607819,129.372177 272.382874,145.149521 274.814728,162.336990 
	C276.498871,174.240051 280.921631,184.862549 288.477234,193.743103 
	C303.836304,211.795471 323.266602,220.768585 347.527924,218.066696 
	C371.117035,215.439682 388.352203,203.814789 399.933289,182.348740 
M199.595139,162.000000 
	C205.002197,162.000000 210.409241,162.000000 216.181290,162.000000 
	C212.704895,177.057037 209.405365,191.348068 206.105835,205.639084 
	C206.459793,205.783417 206.813751,205.927750 207.167725,206.072098 
	C222.629440,184.062805 238.091156,162.053528 254.268723,139.025284 
	C244.565567,139.025284 236.457687,139.025284 228.030594,139.025284 
	C231.478882,124.277512 234.821411,109.982071 238.163940,95.686630 
	C237.795868,95.528412 237.427811,95.370186 237.059753,95.211967 
	C221.645142,117.174957 206.230530,139.137939 190.184921,162.000000 
	C193.774521,162.000000 196.205276,162.000000 199.595139,162.000000 
z"/>
<path fill="#FFFFFF" opacity="1.000000" stroke="none" 
	d="
M109.127472,216.186081 
	C110.982956,229.207855 112.831917,242.195129 114.757095,255.582260 
	C83.173866,255.988083 51.514397,256.008240 19.854944,255.991470 
	C10.157754,255.986328 5.065611,251.069214 5.036131,241.228439 
	C4.940791,209.402603 4.871557,177.575623 5.039352,145.750381 
	C5.189357,117.299286 5.687135,88.850121 5.988119,60.399647 
	C6.084599,51.279842 10.292343,47.005711 19.436815,47.002712 
	C40.931892,46.995670 62.426979,47.003605 84.454384,47.433876 
	C86.657715,59.097427 88.410851,70.321159 89.975784,81.571068 
	C91.433304,92.048782 92.564682,102.572426 94.067513,113.043152 
	C95.980965,126.374863 98.123688,139.673676 100.094131,153.406204 
	C100.337906,154.893387 100.804512,155.941193 100.949539,157.031754 
	C102.663429,169.919479 104.252892,182.824417 106.074501,195.696609 
	C106.423477,198.162598 107.636414,200.506302 108.450760,202.906433 
	C108.084526,203.056366 107.718292,203.206299 107.199203,203.876160 
	C107.843315,206.240067 108.640289,208.084015 109.437263,209.927963 
	C109.068985,210.080032 108.700714,210.232101 108.184845,210.878204 
	C108.418831,212.929199 108.800400,214.486160 109.181976,216.043121 
	C109.181976,216.043121 109.120941,216.151581 109.127472,216.186081 
z"/>
<path fill="#363737" opacity="1.000000" stroke="none" 
	d="
M178.393692,209.975739 
	C178.821915,210.764603 178.878494,211.505219 178.533310,212.695251 
	C178.203094,215.955658 178.013809,218.802124 178.390594,221.571564 
	C180.179901,234.723434 182.123428,247.854294 183.606689,261.045074 
	C181.587723,261.399292 179.981049,261.746246 178.359344,261.995270 
	C169.577835,263.343719 160.792587,264.667969 151.882690,265.728821 
	C151.738113,265.058716 151.719467,264.660339 151.768478,263.911194 
	C151.454086,263.011871 151.072021,262.463348 150.725616,261.580505 
	C150.166565,260.439972 149.571869,259.633789 149.017090,258.495178 
	C149.164276,257.233276 149.574600,256.214325 149.330856,255.388397 
	C147.373413,248.755661 144.714676,242.284576 145.008850,234.742188 
	C144.085571,231.223358 143.154053,228.134689 142.196503,224.619034 
	C141.598099,220.960831 141.025726,217.729630 140.594772,214.161713 
	C140.480774,213.213776 140.225388,212.602554 140.002899,211.607544 
	C139.645172,209.826630 139.254532,208.429520 138.857330,206.703491 
	C138.816162,205.938065 138.781586,205.501556 138.850189,204.686401 
	C138.590225,202.882675 138.227066,201.457581 137.857330,199.703552 
	C137.816177,198.938095 137.781601,198.501572 137.850250,197.684723 
	C137.597244,195.878891 137.240997,194.453339 136.869156,192.699936 
	C136.816452,191.936752 136.779343,191.501434 136.839355,190.683868 
	C136.585922,188.876999 136.235321,187.452408 135.869156,185.699936 
	C135.816467,184.936752 135.779343,184.501434 135.839355,183.683868 
	C135.585922,181.876999 135.235336,180.452408 134.869156,178.699936 
	C134.816452,177.936752 134.779343,177.501434 134.839355,176.683868 
	C134.585907,174.876999 134.235321,173.452408 133.869156,171.699936 
	C133.816467,170.936752 133.779343,170.501434 133.839355,169.683868 
	C133.585922,167.876999 133.235321,166.452408 132.869156,164.699936 
	C132.816467,163.936752 132.779343,163.501434 132.839355,162.683868 
	C132.585922,160.877014 132.235336,159.452423 131.870224,157.630951 
	C131.817749,156.177048 131.779816,155.120010 131.823029,153.706665 
	C131.596680,152.242325 131.289185,151.134277 130.944519,149.595825 
	C130.298630,143.781128 129.689896,138.396835 129.081177,133.012543 
	C130.053436,133.815079 131.742813,134.506165 131.887543,135.437317 
	C133.407486,145.216507 134.634811,155.040573 136.031967,164.839569 
	C138.334274,180.986832 140.702255,197.124741 143.093018,213.614746 
	C153.601761,212.231888 163.675873,210.871552 173.763382,209.619156 
	C175.148834,209.447144 176.600845,209.811462 178.393692,209.975739 
z"/>
<path fill="#DFDFDF" opacity="1.000000" stroke="none" 
	d="
M129.000946,132.592758 
	C129.689896,138.396835 130.298630,143.781128 130.685989,149.862213 
	C127.585518,151.628723 127.214378,150.062820 126.909477,147.637848 
	C125.671661,137.793213 124.229942,127.973869 122.826096,118.150528 
	C119.879005,97.528557 116.971947,76.900414 113.880531,56.300003 
	C113.403412,53.120609 112.035568,50.074890 111.046097,46.552860 
	C111.045219,43.348183 111.077896,40.557995 111.110573,37.767807 
	C116.443901,44.656620 117.427528,52.962845 118.630997,61.163464 
	C122.103699,84.827019 125.496521,108.502296 129.000946,132.592758 
z"/>
<path fill="#888889" opacity="1.000000" stroke="none" 
	d="
M111.028976,37.457561 
	C111.077896,40.557995 111.045219,43.348183 110.991074,47.010090 
	C111.618385,53.977764 112.097580,60.097393 112.944908,66.165627 
	C116.888596,94.408730 120.934120,122.637611 124.543976,150.914703 
	C123.421806,149.913864 122.250137,148.948044 122.052383,147.812607 
	C121.115051,142.430679 120.452362,137.001205 119.675667,131.591003 
	C116.781670,111.432358 113.870735,91.276131 110.988205,71.115852 
	C109.706955,62.154835 108.478188,53.186314 107.225594,44.221195 
	C107.807014,41.933842 108.331665,39.628365 109.048088,37.384106 
	C109.129501,37.129066 110.288200,37.217922 111.028976,37.457561 
z"/>
<path fill="#333333" opacity="1.000000" stroke="none" 
	d="
M100.167572,152.986679 
	C98.123688,139.673676 95.980965,126.374863 94.067513,113.043152 
	C92.564682,102.572426 91.433304,92.048782 89.975784,81.571068 
	C88.410851,70.321159 86.657715,59.097427 84.912918,47.439629 
	C84.714226,45.526886 84.589310,44.036789 84.202515,42.270760 
	C83.090347,35.605942 81.971970,29.237131 81.491394,22.820549 
	C81.207977,19.036348 81.935364,15.176447 82.549454,11.148705 
	C83.924644,20.318750 84.830193,29.707056 86.023247,39.058685 
	C87.712952,52.303127 89.569786,65.526863 91.438675,78.747650 
	C93.237877,91.475395 95.144127,104.188019 97.001701,116.907524 
	C98.668373,128.319855 100.332825,139.732498 101.751816,151.671234 
	C101.059448,152.460541 100.613510,152.723602 100.167572,152.986679 
z"/>
<path fill="#C4C3C4" opacity="1.000000" stroke="none" 
	d="
M107.175400,44.669624 
	C108.478188,53.186314 109.706955,62.154835 110.988205,71.115852 
	C113.870735,91.276131 116.781670,111.432358 119.675667,131.591003 
	C120.452362,137.001205 121.115051,142.430679 122.052383,147.812607 
	C122.250137,148.948044 123.421806,149.913864 124.566513,151.179428 
	C124.998817,151.577271 125.009346,151.753494 124.661392,151.933502 
	C123.824959,151.939758 123.347000,151.942230 122.578415,151.954071 
	C121.899246,151.971069 121.510719,151.978745 121.122185,151.986404 
	C120.022476,145.973663 118.922768,139.960922 117.522430,133.656479 
	C113.881729,107.932495 110.479340,82.508087 107.267204,57.059662 
	C106.771912,53.135670 107.150673,49.101349 107.175400,44.669624 
z"/>
<path fill="#2F2F30" opacity="1.000000" stroke="none" 
	d="
M100.094131,153.406204 
	C100.613510,152.723602 101.059448,152.460541 101.745712,152.101929 
	C104.273643,168.634827 106.561249,185.263275 108.649811,202.399078 
	C107.636414,200.506302 106.423477,198.162598 106.074501,195.696609 
	C104.252892,182.824417 102.663429,169.919479 100.949539,157.031754 
	C100.804512,155.941193 100.337906,154.893387 100.094131,153.406204 
z"/>
<path fill="#2B2B2B" opacity="1.000000" stroke="none" 
	d="
M154.071030,186.982239 
	C157.070511,185.372101 159.617752,185.833450 160.479691,188.625992 
	C160.970810,190.217133 160.128647,192.885010 158.915268,194.088211 
	C158.184296,194.813065 155.228668,194.164932 153.908859,193.232941 
	C151.607056,191.607452 150.970627,189.266327 154.071030,186.982239 
z"/>
<path fill="#383939" opacity="1.000000" stroke="none" 
	d="
M151.018539,164.122162 
	C152.823441,163.750336 154.314804,163.577713 155.806183,163.405090 
	C156.185791,163.834229 156.565399,164.263367 156.945023,164.692520 
	C155.769058,166.418396 154.546661,169.613144 153.426376,169.577728 
	C150.731506,169.492538 149.135254,167.380112 151.018539,164.122162 
z"/>
<path fill="#2F2F30" opacity="1.000000" stroke="none" 
	d="
M109.683945,216.104736 
	C108.800400,214.486160 108.418831,212.929199 108.112892,211.173035 
	C111.652817,211.628159 112.581657,213.257812 109.683945,216.104736 
z"/>
<path fill="#2F2F30" opacity="1.000000" stroke="none" 
	d="
M109.643082,209.387756 
	C108.640289,208.084015 107.843315,206.240067 107.124451,204.168167 
	C111.027802,203.988861 109.735016,206.797485 109.643082,209.387756 
z"/>
<path fill="#4A4A4A" opacity="1.000000" stroke="none" 
	d="
M135.405701,296.116699 
	C133.230057,295.770111 131.372742,295.049896 129.531097,295.087982 
	C124.996811,295.181671 122.336708,293.547913 121.869514,288.716522 
	C121.538429,285.292816 120.778816,281.902771 120.082237,278.524139 
	C119.220749,274.345612 120.943985,272.417603 125.085617,271.979187 
	C127.994186,271.671295 130.853500,270.898102 134.405518,270.067871 
	C140.600937,269.169281 146.125641,268.535492 152.108459,267.930603 
	C163.646545,266.296692 174.726532,264.633850 185.806519,262.971008 
	C186.839859,269.790710 188.198349,276.587555 188.681396,283.446014 
	C188.804504,285.193939 186.150818,287.137421 184.354080,288.687988 
	C183.445282,288.054077 182.904205,287.378448 182.472824,287.442383 
	C167.946823,289.596832 153.427795,291.799805 138.924545,294.101532 
	C138.211533,294.214722 137.649567,295.279419 137.017258,295.901062 
	C136.588562,295.963409 136.159866,296.025757 135.405701,296.116699 
z"/>
<path fill="#4A4A4A" opacity="1.000000" stroke="none" 
	d="
M184.012054,260.992645 
	C182.123428,247.854294 180.179901,234.723434 178.390594,221.571564 
	C178.013809,218.802124 178.203094,215.955658 178.465729,213.062210 
	C179.722229,218.376617 180.758011,223.757080 181.540894,229.174118 
	C182.788712,237.808029 183.868164,246.466263 185.090790,255.546967 
	C185.447174,257.415833 185.731598,258.851929 186.092133,260.653961 
	C186.116776,261.184906 186.065292,261.349945 185.695465,261.637390 
	C184.922119,261.504089 184.467087,261.248352 184.012054,260.992645 
z"/>
<path fill="#2F2F30" opacity="1.000000" stroke="none" 
	d="
M137.447769,295.950684 
	C137.649567,295.279419 138.211533,294.214722 138.924545,294.101532 
	C153.427795,291.799805 167.946823,289.596832 182.472824,287.442383 
	C182.904205,287.378448 183.445282,288.054077 183.989258,288.742065 
	C179.298676,289.934448 174.571365,290.888947 169.805893,291.580505 
	C159.173477,293.123474 148.521988,294.535126 137.447769,295.950684 
z"/>
<path fill="#2F2F30" opacity="1.000000" stroke="none" 
	d="
M183.606689,261.045074 
	C184.467087,261.248352 184.922119,261.504089 185.609314,261.881958 
	C185.881500,262.166931 185.921509,262.329742 185.884003,262.731781 
	C174.726532,264.633850 163.646545,266.296692 152.177582,267.615662 
	C151.861954,266.848022 151.935303,266.424286 152.008636,266.000519 
	C160.792587,264.667969 169.577835,263.343719 178.359344,261.995270 
	C179.981049,261.746246 181.587723,261.399292 183.606689,261.045074 
z"/>
<path fill="#383939" opacity="1.000000" stroke="none" 
	d="
M116.347610,252.570358 
	C115.046524,243.324158 113.832069,234.504974 112.825165,225.662155 
	C112.698692,224.551453 113.495529,222.413162 114.155022,222.288574 
	C117.807579,221.598572 121.550064,221.384613 125.436630,220.989838 
	C125.982124,228.612793 126.423492,235.666473 127.009262,242.708130 
	C127.555717,249.277222 128.136444,255.847931 128.925797,262.390961 
	C129.554565,267.602875 128.452957,269.348175 123.936684,270.001648 
	C118.851746,270.737396 118.290817,267.563263 117.963104,263.760376 
	C117.652420,260.154999 117.000031,256.579041 116.347610,252.570358 
z"/>
<path fill="#21211E" opacity="1.000000" stroke="none" 
	d="
M145.000641,235.172363 
	C144.714676,242.284576 147.373413,248.755661 149.330856,255.388397 
	C149.574600,256.214325 149.164276,257.233276 148.609421,258.588043 
	C143.435074,259.648804 138.708344,260.284332 133.981598,260.919861 
	C133.980438,260.750153 133.979279,260.580414 133.971985,259.698608 
	C133.714935,251.008636 133.464035,243.030792 133.202774,234.581573 
	C133.133377,226.822250 133.074326,219.534286 133.394684,212.267990 
	C134.518433,212.185501 135.262772,212.081345 136.177429,212.073822 
	C136.347733,212.170471 136.735001,212.228683 136.753159,212.622787 
	C138.182465,217.360153 139.593613,221.703415 141.120682,226.379486 
	C143.166916,229.231720 140.623169,233.741730 145.000641,235.172363 
z"/>
<path fill="#858586" opacity="1.000000" stroke="none" 
	d="
M133.015259,212.246338 
	C133.074326,219.534286 133.133377,226.822250 132.914581,234.548157 
	C132.444931,234.968094 132.253128,234.950043 132.061310,234.931976 
	C131.752014,227.918182 131.442703,220.904404 131.086609,213.043152 
	C130.515472,208.111771 130.019363,204.023972 129.461807,199.944595 
	C127.274742,183.943192 125.068291,167.944443 122.869049,151.944702 
	C123.347000,151.942230 123.824959,151.939758 124.705612,152.351166 
	C126.259621,160.616257 127.507378,168.454819 128.539795,176.321609 
	C130.110001,188.286240 131.530945,200.270447 133.015259,212.246338 
z"/>
<path fill="#B8B7B8" opacity="1.000000" stroke="none" 
	d="
M122.578415,151.954056 
	C125.068291,167.944443 127.274742,183.943192 129.461807,199.944595 
	C130.019363,204.023972 130.515472,208.111771 131.015732,212.636841 
	C130.367447,212.463577 129.284424,211.914764 129.185852,211.225220 
	C126.405251,191.775833 123.723999,172.312241 121.074333,152.418701 
	C121.510719,151.978745 121.899246,151.971069 122.578415,151.954056 
z"/>
<path fill="#ABABAA" opacity="1.000000" stroke="none" 
	d="
M151.882690,265.728821 
	C151.935303,266.424286 151.861954,266.848022 151.719482,267.586731 
	C146.125641,268.535492 140.600937,269.169281 134.651749,269.744446 
	C134.163452,268.726379 134.099640,267.766968 134.482971,266.403564 
	C140.520355,265.420319 146.110580,264.841125 151.700821,264.261932 
	C151.719467,264.660339 151.738113,265.058716 151.882690,265.728821 
z"/>
<path fill="#E4E3E3" opacity="1.000000" stroke="none" 
	d="
M133.825500,261.299530 
	C138.708344,260.284332 143.435074,259.648804 148.569489,258.920410 
	C149.571869,259.633789 150.166565,260.439972 150.326813,261.604523 
	C144.571548,262.680573 139.250732,263.398285 133.929901,264.115967 
	C133.843063,263.303711 133.756226,262.491455 133.825500,261.299530 
z"/>
<path fill="#525352" opacity="1.000000" stroke="none" 
	d="
M132.009155,235.404114 
	C132.253128,234.950043 132.444931,234.968094 132.924927,235.019531 
	C133.464035,243.030792 133.714935,251.008636 133.958389,259.444397 
	C133.286301,251.893616 132.621658,243.884933 132.009155,235.404114 
z"/>
<path fill="#686967" opacity="1.000000" stroke="none" 
	d="
M133.899994,264.446533 
	C139.250732,263.398285 144.571548,262.680573 150.291168,261.938843 
	C151.072021,262.463348 151.454086,263.011871 151.768478,263.911194 
	C146.110580,264.841125 140.520355,265.420319 134.510864,266.042603 
	C134.017761,265.649475 133.943909,265.213287 133.899994,264.446533 
z"/>
<path fill="#686967" opacity="1.000000" stroke="none" 
	d="
M399.724487,182.666138 
	C388.352203,203.814789 371.117035,215.439682 347.527924,218.066696 
	C323.266602,220.768585 303.836304,211.795471 288.477234,193.743103 
	C280.921631,184.862549 276.498871,174.240051 274.814728,162.336990 
	C272.382874,145.149521 275.607819,129.372177 285.074371,115.079956 
	C295.606934,99.178299 310.594482,88.983315 329.429749,86.192902 
	C366.206207,80.744553 399.348236,103.323822 406.030701,140.341629 
	C408.686066,155.051331 406.622009,169.022232 399.724487,182.666138 
M393.119873,151.283813 
	C394.431305,150.510422 395.742737,149.737030 398.153229,148.315506 
	C396.264008,141.883667 394.376740,135.263153 392.326874,128.693359 
	C392.024597,127.724556 390.822174,126.187057 390.255463,126.278076 
	C382.109253,127.586342 386.616241,123.465195 388.283752,119.867111 
	C382.928650,114.579735 377.360260,109.081764 371.791870,103.583801 
	C371.572571,104.027977 371.353271,104.472153 371.133972,104.916328 
	C369.782532,105.392448 368.431122,105.868568 367.079712,106.344688 
	C366.555389,104.720665 366.031067,103.096642 365.236908,100.636818 
	C362.603058,99.677475 359.118256,97.962784 355.435211,97.176338 
	C350.526611,96.128197 345.066101,92.753906 340.946045,98.970535 
	C340.822998,99.156212 340.314819,99.086617 339.181793,98.984062 
	C337.125061,94.858559 333.503845,95.545578 330.195770,96.438484 
	C325.071655,97.821579 320.070099,99.658882 315.940399,101.002937 
	C315.500916,103.242912 315.614349,104.922249 314.838104,105.882050 
	C314.254150,106.604050 311.672180,106.912384 311.446198,106.532532 
	C309.540649,103.329018 307.772278,105.985268 306.801483,106.886009 
	C301.934296,111.401840 297.333618,116.204979 292.360138,121.186806 
	C297.922638,123.555450 295.099762,125.648186 293.718292,127.726067 
	C292.390747,127.217155 291.300201,126.799072 289.532074,126.121262 
	C287.409973,133.787048 285.429047,140.942795 283.804291,146.811951 
	C285.793579,149.034561 287.746124,150.258804 287.753876,151.495239 
	C287.761566,152.720749 285.809265,153.958542 284.716614,155.190948 
	C284.230957,155.116058 283.745270,155.041183 283.259613,154.966293 
	C285.350098,162.586548 287.440582,170.206818 289.708618,178.474365 
	C294.082733,174.083893 294.783722,177.525711 296.044128,180.222427 
	C292.553558,181.737503 293.111938,183.693527 295.400299,185.922867 
	C299.027985,189.456955 302.600586,193.048691 306.148346,196.663284 
	C308.395386,198.952606 310.390289,199.540207 311.785187,195.771133 
	C313.377563,196.717804 314.612610,197.452072 315.302856,197.862427 
	C315.643463,199.973938 315.507385,202.606735 316.192688,202.841507 
	C323.173126,205.232529 330.287323,207.233109 337.754944,209.459503 
	C337.954681,207.103271 338.075043,205.683075 338.217316,204.004639 
	C339.999939,204.102066 341.416077,204.179459 342.711334,204.250244 
	C342.973511,205.959946 343.179657,207.304077 343.478851,209.255112 
	C351.287964,207.174164 358.722412,205.193054 366.156860,203.211945 
	C365.799408,202.754196 365.441986,202.296448 365.084564,201.838715 
	C365.479279,200.327118 365.431183,198.392120 366.374756,197.405365 
	C367.715179,196.003616 369.571594,195.833694 370.319489,198.515198 
	C370.360474,198.662140 372.644409,198.675522 373.257751,198.092239 
	C377.770874,193.800095 382.166962,189.380951 386.477509,184.884445 
	C387.054779,184.282303 387.319183,182.287491 387.099030,182.175552 
	C382.956726,180.069519 386.357819,178.267532 387.046234,176.229019 
	C388.405151,176.753769 389.543060,177.193176 391.558014,177.971237 
	C393.695496,170.163071 395.776611,162.560898 397.634338,155.774673 
	C395.340790,153.964218 394.121002,153.001343 393.119873,151.283813 
z"/>
<path fill="#73BA58" opacity="1.000000" stroke="none" 
	d="
M199.115570,162.000000 
	C196.205276,162.000000 193.774521,162.000000 190.184921,162.000000 
	C206.230530,139.137939 221.645142,117.174957 237.059753,95.211967 
	C237.427811,95.370186 237.795868,95.528412 238.163940,95.686630 
	C234.821411,109.982071 231.478882,124.277512 228.030594,139.025284 
	C236.457687,139.025284 244.565567,139.025284 254.268723,139.025284 
	C238.091156,162.053528 222.629440,184.062805 207.167725,206.072098 
	C206.813751,205.927750 206.459793,205.783417 206.105835,205.639084 
	C209.405365,191.348068 212.704895,177.057037 216.181290,162.000000 
	C210.409241,162.000000 205.002197,162.000000 199.115570,162.000000 
z"/>
<path fill="#C5C4C5" opacity="1.000000" stroke="none" 
	d="
M133.394684,212.267990 
	C131.530945,200.270447 130.110001,188.286240 128.539795,176.321609 
	C127.507378,168.454819 126.259621,160.616257 125.064087,152.347382 
	C125.009346,151.753494 124.998817,151.577271 124.965752,151.136307 
	C120.934120,122.637611 116.888596,94.408730 112.944908,66.165627 
	C112.097580,60.097393 111.618385,53.977764 111.024628,47.424580 
	C112.035568,50.074890 113.403412,53.120609 113.880531,56.300003 
	C116.971947,76.900414 119.879005,97.528557 122.826096,118.150528 
	C124.229942,127.973869 125.671661,137.793213 126.909477,147.637848 
	C127.214378,150.062820 127.585518,151.628723 130.723160,150.292633 
	C131.289185,151.134277 131.596680,152.242325 131.501892,153.634857 
	C130.350739,153.397003 129.601837,152.874680 128.418716,152.049500 
	C128.243362,153.285294 127.952728,154.066315 128.057465,154.790146 
	C129.188065,162.603470 130.457260,170.397232 131.538513,178.217102 
	C133.093292,189.461441 134.523651,200.722992 136.007111,211.977188 
	C135.262772,212.081345 134.518433,212.185501 133.394684,212.267990 
z"/>
<path fill="#EDEDEC" opacity="1.000000" stroke="none" 
	d="
M136.177429,212.073822 
	C134.523651,200.722992 133.093292,189.461441 131.538513,178.217102 
	C130.457260,170.397232 129.188065,162.603470 128.057465,154.790146 
	C127.952728,154.066315 128.243362,153.285294 128.418716,152.049500 
	C129.601837,152.874680 130.350739,153.397003 131.420746,153.991150 
	C131.779816,155.120010 131.817749,156.177048 131.616989,157.864807 
	C131.832932,160.019073 132.287567,161.542587 132.742218,163.066116 
	C132.779343,163.501434 132.816467,163.936752 132.615845,164.933670 
	C132.832794,167.018890 133.287506,168.542496 133.742218,170.066116 
	C133.779343,170.501434 133.816467,170.936752 133.615845,171.933670 
	C133.832809,174.018890 134.287506,175.542496 134.742218,177.066116 
	C134.779343,177.501434 134.816452,177.936752 134.615845,178.933670 
	C134.832794,181.018890 135.287506,182.542496 135.742218,184.066116 
	C135.779343,184.501434 135.816467,184.936752 135.615845,185.933670 
	C135.832809,188.018890 136.287506,189.542496 136.742218,191.066116 
	C136.779343,191.501434 136.816452,191.936752 136.615784,192.933868 
	C136.834335,195.018784 137.290665,196.541916 137.747009,198.065033 
	C137.781601,198.501572 137.816177,198.938095 137.608459,199.940826 
	C137.826447,202.026367 138.286728,203.545700 138.747009,205.065033 
	C138.781586,205.501556 138.816162,205.938065 138.598862,206.963593 
	C138.236084,209.039093 138.125198,210.525589 137.689087,212.034332 
	C137.154236,212.113953 136.944611,212.171326 136.735001,212.228683 
	C136.735001,212.228683 136.347733,212.170471 136.177429,212.073822 
z"/>
<path fill="#ABABAA" opacity="1.000000" stroke="none" 
	d="
M136.753159,212.622787 
	C136.944611,212.171326 137.154236,212.113953 137.982178,212.066452 
	C138.796310,212.094025 138.992142,212.111725 139.173141,212.423798 
	C139.590012,213.311600 140.021683,213.904999 140.453369,214.498413 
	C141.025726,217.729630 141.598099,220.960831 141.911255,224.677124 
	C141.436295,225.457047 141.220535,225.751862 141.004761,226.046677 
	C139.593613,221.703415 138.182465,217.360153 136.753159,212.622787 
z"/>
<path fill="#5A5959" opacity="1.000000" stroke="none" 
	d="
M141.120697,226.379486 
	C141.220535,225.751862 141.436295,225.457047 141.937317,225.104126 
	C143.154053,228.134689 144.085571,231.223358 145.008850,234.742188 
	C140.623169,233.741730 143.166916,229.231720 141.120697,226.379486 
z"/>
<path fill="#C5C4C5" opacity="1.000000" stroke="none" 
	d="
M132.839355,162.683868 
	C132.287567,161.542587 131.832932,160.019073 131.631516,158.261688 
	C132.235336,159.452423 132.585922,160.877014 132.839355,162.683868 
z"/>
<path fill="#C5C4C5" opacity="1.000000" stroke="none" 
	d="
M133.839355,169.683868 
	C133.287506,168.542496 132.832794,167.018890 132.631409,165.261536 
	C133.235321,166.452408 133.585922,167.876999 133.839355,169.683868 
z"/>
<path fill="#C5C4C5" opacity="1.000000" stroke="none" 
	d="
M134.839355,176.683868 
	C134.287506,175.542496 133.832809,174.018890 133.631409,172.261536 
	C134.235321,173.452408 134.585907,174.876999 134.839355,176.683868 
z"/>
<path fill="#C5C4C5" opacity="1.000000" stroke="none" 
	d="
M135.839355,183.683868 
	C135.287506,182.542496 134.832794,181.018890 134.631409,179.261536 
	C135.235336,180.452408 135.585922,181.876999 135.839355,183.683868 
z"/>
<path fill="#C5C4C5" opacity="1.000000" stroke="none" 
	d="
M136.839355,190.683868 
	C136.287506,189.542496 135.832809,188.018890 135.631409,186.261536 
	C136.235321,187.452408 136.585922,188.876999 136.839355,190.683868 
z"/>
<path fill="#C5C4C5" opacity="1.000000" stroke="none" 
	d="
M137.850250,197.684723 
	C137.290665,196.541916 136.834335,195.018784 136.631363,193.261734 
	C137.240997,194.453339 137.597244,195.878891 137.850250,197.684723 
z"/>
<path fill="#C5C4C5" opacity="1.000000" stroke="none" 
	d="
M139.187958,212.129410 
	C138.992142,212.111725 138.796310,212.094025 138.307404,212.044189 
	C138.125198,210.525589 138.236084,209.039093 138.605438,207.292511 
	C139.254532,208.429520 139.645172,209.826630 139.804031,211.623016 
	C139.572250,212.022263 139.187958,212.129410 139.187958,212.129410 
z"/>
<path fill="#C5C4C5" opacity="1.000000" stroke="none" 
	d="
M138.850189,204.686401 
	C138.286728,203.545700 137.826447,202.026367 137.615036,200.269745 
	C138.227066,201.457581 138.590225,202.882675 138.850189,204.686401 
z"/>
<path fill="#5A5959" opacity="1.000000" stroke="none" 
	d="
M139.173141,212.423798 
	C139.187958,212.129410 139.572250,212.022263 139.771118,212.006805 
	C140.225388,212.602554 140.480774,213.213776 140.594772,214.161713 
	C140.021683,213.904999 139.590012,213.311600 139.173141,212.423798 
z"/>
<path fill="#FFFFFF" opacity="1.000000" stroke="none" 
	d="
M392.901215,152.038483 
	C394.121002,153.001343 395.340790,153.964218 397.634338,155.774673 
	C395.776611,162.560898 393.695496,170.163071 391.558014,177.971237 
	C389.543060,177.193176 388.405151,176.753769 387.046234,176.229019 
	C386.357819,178.267532 382.956726,180.069519 387.099030,182.175552 
	C387.319183,182.287491 387.054779,184.282303 386.477509,184.884445 
	C382.166962,189.380951 377.770874,193.800095 373.257751,198.092239 
	C372.644409,198.675522 370.360474,198.662140 370.319489,198.515198 
	C369.571594,195.833694 367.715179,196.003616 366.374756,197.405365 
	C365.431183,198.392120 365.479279,200.327118 365.084564,201.838715 
	C365.441986,202.296448 365.799408,202.754196 366.156860,203.211945 
	C358.722412,205.193054 351.287964,207.174164 343.478851,209.255112 
	C343.179657,207.304077 342.973511,205.959946 342.711334,204.250244 
	C341.416077,204.179459 339.999939,204.102066 338.217316,204.004639 
	C338.075043,205.683075 337.954681,207.103271 337.754944,209.459503 
	C330.287323,207.233109 323.173126,205.232529 316.192688,202.841507 
	C315.507385,202.606735 315.643463,199.973938 315.302856,197.862427 
	C314.612610,197.452072 313.377563,196.717804 311.785187,195.771133 
	C310.390289,199.540207 308.395386,198.952606 306.148346,196.663284 
	C302.600586,193.048691 299.027985,189.456955 295.400299,185.922867 
	C293.111938,183.693527 292.553558,181.737503 296.044128,180.222427 
	C294.783722,177.525711 294.082733,174.083893 289.708618,178.474365 
	C287.440582,170.206818 285.350098,162.586548 283.259613,154.966293 
	C283.745270,155.041183 284.230957,155.116058 284.716614,155.190948 
	C285.809265,153.958542 287.761566,152.720749 287.753876,151.495239 
	C287.746124,150.258804 285.793579,149.034561 283.804291,146.811951 
	C285.429047,140.942795 287.409973,133.787048 289.532074,126.121262 
	C291.300201,126.799072 292.390747,127.217155 293.718292,127.726067 
	C295.099762,125.648186 297.922638,123.555450 292.360138,121.186806 
	C297.333618,116.204979 301.934296,111.401840 306.801483,106.886009 
	C307.772278,105.985268 309.540649,103.329018 311.446198,106.532532 
	C311.672180,106.912384 314.254150,106.604050 314.838104,105.882050 
	C315.614349,104.922249 315.500916,103.242912 315.940399,101.002937 
	C320.070099,99.658882 325.071655,97.821579 330.195770,96.438484 
	C333.503845,95.545578 337.125061,94.858559 339.589539,99.516251 
	C339.997253,117.634964 339.997253,135.221481 339.997253,152.038483 
	C358.081635,152.038483 375.491425,152.038483 392.901215,152.038483 
M349.154755,171.412033 
	C350.887604,167.365021 350.689850,163.305267 347.035828,160.755157 
	C342.685699,157.719254 337.691833,158.222412 332.993652,160.517456 
	C329.189667,162.375671 328.107574,165.684631 328.143036,169.829865 
	C330.440582,169.829865 332.402496,169.829865 333.976654,169.829865 
	C335.527283,167.696411 336.924652,165.773819 338.309601,163.868317 
	C342.892242,165.396088 344.228241,168.093903 341.595306,171.708420 
	C339.089172,175.148926 336.008514,178.174316 333.144135,181.349426 
	C330.749359,184.003967 328.051819,186.512573 329.332520,190.712799 
	C336.567444,190.712799 343.646637,190.712799 351.028473,190.712799 
	C350.902313,189.013947 350.799133,187.624619 350.671844,185.910965 
	C346.421997,185.910965 342.515350,185.910965 338.620789,185.910965 
	C342.204803,181.187714 345.612396,176.696991 349.154755,171.412033 
z"/>
<path fill="#CE132D" opacity="1.000000" stroke="none" 
	d="
M393.010559,151.661148 
	C375.491425,152.038483 358.081635,152.038483 339.997253,152.038483 
	C339.997253,135.221481 339.997253,117.634964 339.991699,99.592239 
	C340.314819,99.086617 340.822998,99.156212 340.946045,98.970535 
	C345.066101,92.753906 350.526611,96.128197 355.435211,97.176338 
	C359.118256,97.962784 362.603058,99.677475 365.236908,100.636818 
	C366.031067,103.096642 366.555389,104.720665 367.079712,106.344688 
	C368.431122,105.868568 369.782532,105.392448 371.133972,104.916328 
	C371.353271,104.472153 371.572571,104.027977 371.791870,103.583801 
	C377.360260,109.081764 382.928650,114.579735 388.283752,119.867111 
	C386.616241,123.465195 382.109253,127.586342 390.255463,126.278076 
	C390.822174,126.187057 392.024597,127.724556 392.326874,128.693359 
	C394.376740,135.263153 396.264008,141.883667 398.153229,148.315506 
	C395.742737,149.737030 394.431305,150.510422 393.010559,151.661148 
z"/>
<path fill="#686967" opacity="1.000000" stroke="none" 
	d="
M349.087341,171.809143 
	C345.612396,176.696991 342.204803,181.187714 338.620789,185.910965 
	C342.515350,185.910965 346.421997,185.910965 350.671844,185.910965 
	C350.799133,187.624619 350.902313,189.013947 351.028473,190.712799 
	C343.646637,190.712799 336.567444,190.712799 329.332520,190.712799 
	C328.051819,186.512573 330.749359,184.003967 333.144135,181.349426 
	C336.008514,178.174316 339.089172,175.148926 341.595306,171.708420 
	C344.228241,168.093903 342.892242,165.396088 338.309601,163.868317 
	C336.924652,165.773819 335.527283,167.696411 333.976654,169.829865 
	C332.402496,169.829865 330.440582,169.829865 328.143036,169.829865 
	C328.107574,165.684631 329.189667,162.375671 332.993652,160.517456 
	C337.691833,158.222412 342.685699,157.719254 347.035828,160.755157 
	C350.689850,163.305267 350.887604,167.365021 349.087341,171.809143 
z"/>
</svg>