<svg width="330" height="232" viewBox="0 0 330 232" fill="none" xmlns="http://www.w3.org/2000/svg">
<path d="M285.122 53.1259L43.6235 52.8309C38.8563 52.825 34.987 56.685 34.9812 61.4522L34.8442 173.571C34.8384 178.339 38.6982 182.208 43.4654 182.214L284.964 182.509C289.731 182.515 293.6 178.655 293.606 173.887L293.743 61.7684C293.749 57.0011 289.889 53.1317 285.122 53.1259Z" stroke="#D8D8D8" stroke-miterlimit="10"/>
<path d="M54.8506 67.9922L85.518 36.708L221.384 169.899L190.717 201.184L54.8506 67.9922Z" fill="#E5E4E4"/>
<path d="M80.6199 66.0744C82.572 66.0744 84.1544 64.492 84.1544 62.5399C84.1544 60.5878 82.572 59.0054 80.6199 59.0054C78.6679 59.0054 77.0854 60.5878 77.0854 62.5399C77.0854 64.492 78.6679 66.0744 80.6199 66.0744Z" fill="#F9F9F9"/>
<path d="M78.1434 65.0641C78.8104 65.7292 79.714 66.1027 80.656 66.1027C81.5979 66.1027 82.5015 65.7292 83.1686 65.0641C83.523 64.6977 83.7928 64.2581 83.959 63.7762C84.1252 63.2943 84.1837 62.7819 84.1303 62.2749C84.0911 63.1169 83.7397 63.9141 83.1445 64.511C82.8163 64.8396 82.4265 65.1003 81.9974 65.2782C81.5683 65.4561 81.1084 65.5476 80.6439 65.5476C80.1795 65.5476 79.7195 65.4561 79.2905 65.2782C78.8614 65.1003 78.4716 64.8396 78.1434 64.511C77.5415 63.9237 77.174 63.1374 77.1095 62.2989C77.0674 62.8076 77.1382 63.3192 77.3169 63.7972C77.4957 64.2752 77.7779 64.7078 78.1434 65.0641V65.0641Z" fill="#E5E4E4" fill-opacity="0.5"/>
<path d="M201.441 184.493C203.393 184.493 204.976 182.91 204.976 180.958C204.976 179.006 203.393 177.424 201.441 177.424C199.489 177.424 197.907 179.006 197.907 180.958C197.907 182.91 199.489 184.493 201.441 184.493Z" fill="#F9F9F9"/>
<path d="M198.965 183.483C199.482 183.986 200.14 184.319 200.851 184.437C201.562 184.555 202.293 184.453 202.944 184.144C203.596 183.836 204.137 183.335 204.496 182.709C204.855 182.084 205.014 181.364 204.952 180.646C204.936 181.332 204.719 181.999 204.327 182.563C203.936 183.127 203.388 183.565 202.751 183.821C202.113 184.076 201.415 184.14 200.742 184.003C200.069 183.866 199.451 183.535 198.965 183.05C198.363 182.463 197.996 181.676 197.931 180.838C197.907 181.327 197.986 181.815 198.164 182.271C198.343 182.727 198.615 183.14 198.965 183.483V183.483Z" fill="#E5E4E4" fill-opacity="0.5"/>
<path d="M85.0591 37.189L85.5304 36.7082L220.882 169.395L220.41 169.875L85.0591 37.189Z" fill="#EDEDED"/>
<path d="M54.8516 68.0063L55.3228 67.5256L191.155 200.683L190.684 201.164L54.8516 68.0063Z" fill="#CFCECE"/>
<path d="M220.875 169.397L221.356 169.868L190.689 201.153L190.208 200.681L220.875 169.397Z" fill="#CFCECE"/>
<path d="M95.0463 90.4792C102.602 90.4792 108.727 84.3539 108.727 76.798C108.727 69.242 102.602 63.1167 95.0463 63.1167C87.4905 63.1167 81.3652 69.242 81.3652 76.798C81.3652 84.3539 87.4905 90.4792 95.0463 90.4792Z" fill="#BFBFBF"/>
<path d="M104.616 67.0116C102.667 65.0856 100.183 63.7916 97.4875 63.2984C94.7922 62.8052 92.0108 63.1355 89.5061 64.2465C87.0014 65.3574 84.8895 67.1973 83.4459 69.5263C82.0023 71.8552 81.294 74.5651 81.4133 77.3026C81.3655 73.6869 82.756 70.2002 85.2788 67.6097C87.8017 65.0191 91.2503 63.5369 94.866 63.4891C98.4817 63.4413 101.968 64.8317 104.559 67.3546C107.149 69.8775 108.631 73.3262 108.679 76.9419C108.71 75.0977 108.366 73.2665 107.668 71.5594C106.969 69.8523 105.931 68.3051 104.616 67.0116V67.0116Z" fill="#B2B2B2"/>
<path d="M107.068 65.305L105 67.3969C105.15 67.7998 105.188 68.2353 105.112 68.6582C105.036 69.081 104.848 69.4758 104.568 69.8013L88.386 86.2958C88.0756 86.6014 87.6827 86.8098 87.2556 86.8952C86.8285 86.9806 86.3857 86.9394 85.9816 86.7767L84.0581 88.7243C83.6821 89.1104 83.4717 89.628 83.4717 90.1669C83.4717 90.7059 83.6821 91.2235 84.0581 91.6096L182.975 188.749C183.358 189.131 183.877 189.345 184.418 189.345C184.959 189.345 185.478 189.131 185.861 188.749L208.943 165.185C209.131 164.998 209.281 164.775 209.383 164.529C209.485 164.284 209.537 164.021 209.537 163.755C209.537 163.489 209.485 163.226 209.383 162.98C209.281 162.735 209.131 162.512 208.943 162.324L109.93 65.2569C109.739 65.0718 109.513 64.9261 109.266 64.8282C109.019 64.7304 108.755 64.6823 108.489 64.6868C108.223 64.6913 107.961 64.7482 107.717 64.8543C107.473 64.9604 107.253 65.1135 107.068 65.305V65.305Z" fill="#5B5B5B"/>
<path d="M109.93 66.0025L208.919 163.022C209.202 163.31 209.387 163.68 209.448 164.08C209.513 163.762 209.498 163.434 209.406 163.124C209.314 162.814 209.146 162.531 208.919 162.3L109.93 65.2571C109.742 65.0688 109.519 64.9194 109.273 64.8175C109.028 64.7156 108.765 64.6631 108.499 64.6631C108.233 64.6631 107.97 64.7156 107.724 64.8175C107.479 64.9194 107.256 65.0688 107.068 65.2571L105 67.349C105.079 67.5343 105.135 67.7279 105.169 67.9261L107.068 65.9785C107.257 65.7917 107.482 65.6442 107.728 65.5443C107.974 65.4444 108.238 65.3942 108.504 65.3964C108.77 65.3986 109.032 65.4533 109.277 65.5573C109.522 65.6614 109.743 65.8126 109.93 66.0025V66.0025Z" fill="#494949"/>
<path d="M85.8855 87.6418C86.3087 87.8087 86.7706 87.8521 87.2175 87.767C87.6644 87.6819 88.0779 87.4717 88.4102 87.1609L104.568 70.6665C104.817 70.409 105.002 70.096 105.106 69.7532C105.211 69.4103 105.232 69.0476 105.169 68.6948C105.104 69.1572 104.894 69.5869 104.568 69.9211L88.3861 86.4156C88.0757 86.7212 87.6829 86.9295 87.2557 87.015C86.8286 87.1004 86.3858 87.0592 85.9817 86.8964L84.0582 88.844C83.8344 89.0863 83.6718 89.3786 83.584 89.6965C83.4961 90.0143 83.4856 90.3486 83.5533 90.6714C83.614 90.2649 83.7987 89.887 84.0822 89.5894L85.8855 87.6418Z" fill="#5B5B5B"/>
<path d="M98.5808 86.5594L96.537 84.5637L97.2584 86.9682L97.066 87.1605L94.6616 86.4873L96.7054 88.483L96.3687 88.8436L93.772 86.2709L94.1086 85.9343L96.7534 86.6796L95.96 84.155L96.2726 83.8184L98.9415 86.4152L98.5808 86.5594Z" fill="white"/>
<path d="M100.985 83.5776L101.298 83.8901L99.5428 85.6694L96.8979 83.0726L98.6051 81.3174L98.8936 81.6059L97.5231 83.0245L98.3646 83.8661L99.5668 82.6398L99.8554 82.9043L98.581 84.1546L99.4947 85.0683L100.985 83.5776Z" fill="white"/>
<path d="M101.49 83.6988L99.8794 80.02L100.144 79.7314L103.847 81.2703L103.51 81.631L102.428 81.1741L101.346 82.2561L101.827 83.3381L101.49 83.6988ZM100.408 80.2604L101.154 81.9435L102.091 80.9818L100.408 80.2604Z" fill="white"/>
<path d="M103.39 77.0859L102.5 77.9996L104.905 80.404L104.592 80.7406L102.188 78.3362L101.226 79.3461L100.985 78.9373L103.077 76.7974L103.39 77.0859Z" fill="white"/>
<path d="M107.453 76.9421L107.742 77.2306L106.01 79.0099L103.39 76.4612L105.097 74.73L105.385 75.0185L103.991 76.4131L104.856 77.2546L106.059 76.0284L106.347 76.3169L105.145 77.5432L106.059 78.4328L107.453 76.9421Z" fill="white"/>
<path d="M108.199 76.9422L105.554 74.3454L106.636 73.2153C106.742 73.1049 106.874 73.0223 107.02 72.9748C107.172 72.9517 107.326 72.9517 107.477 72.9748L107.886 73.0951C108.023 73.1467 108.146 73.229 108.247 73.3355C108.341 73.4193 108.422 73.5165 108.487 73.624C108.538 73.7322 108.578 73.8449 108.607 73.9607C108.619 74.0806 108.619 74.2014 108.607 74.3213C108.617 74.4333 108.617 74.546 108.607 74.6579L110.242 75.0186L109.882 75.3793L108.199 74.8503L107.525 75.5476L108.463 76.4853L108.199 76.9422ZM107.285 75.3793L108.054 74.5858C108.124 74.5209 108.174 74.4375 108.199 74.3454C108.21 74.2657 108.21 74.1846 108.199 74.1049C108.209 74.009 108.209 73.9123 108.199 73.8164C108.148 73.7334 108.083 73.6601 108.006 73.6C107.943 73.5233 107.86 73.4651 107.766 73.4317H107.477C107.39 73.4093 107.299 73.4093 107.213 73.4317C107.131 73.4627 107.057 73.512 106.996 73.576L106.251 74.3454L107.357 75.4274L107.285 75.3793Z" fill="white"/>
<path d="M92.69 87.04C92.4837 86.8402 92.2078 86.7285 91.9206 86.7285C91.6335 86.7285 91.3575 86.8402 91.1512 87.04C91.0255 87.1724 90.9354 87.3344 90.8891 87.5109C90.8429 87.6875 90.8421 87.8729 90.8867 88.0499C90.4508 88.1965 90.0555 88.4436 89.7326 88.7712C89.3337 89.1846 89.0627 89.7044 88.9522 90.2681C88.8417 90.8319 88.8964 91.4156 89.1097 91.949C89.3231 92.4824 89.686 92.9428 90.1548 93.2748C90.6236 93.6068 91.1784 93.7963 91.7523 93.8205C91.5229 93.6546 91.354 93.4181 91.2714 93.1473C91.1512 92.7385 91.031 91.8008 90.3097 92.0172C90.3706 91.9695 90.4411 91.9357 90.5165 91.9183C90.5918 91.9008 90.6701 91.9001 90.7457 91.9161C90.8214 91.9322 90.8926 91.9646 90.9543 92.0111C91.0161 92.0577 91.0669 92.1172 91.1031 92.1855C91.3195 92.4981 91.4157 92.979 91.8725 93.0992C91.9613 93.1181 92.0535 93.1127 92.1395 93.0836C92.2254 93.0545 92.3019 93.0028 92.361 92.9339C92.42 92.865 92.4594 92.7815 92.475 92.6921C92.4906 92.6027 92.4818 92.5108 92.4496 92.4259C92.2092 91.8729 91.3676 92.2576 92.0409 92.7866C91.9647 92.7973 91.8871 92.7874 91.816 92.7581C91.7449 92.7288 91.6829 92.6811 91.6364 92.6199C91.5899 92.5586 91.5605 92.4861 91.5513 92.4098C91.5421 92.3334 91.5534 92.256 91.584 92.1855C91.6507 92.0739 91.7409 91.9782 91.8485 91.9052C91.9561 91.8322 92.0784 91.7837 92.2068 91.7631C92.3351 91.7425 92.4664 91.7502 92.5915 91.7858C92.7165 91.8214 92.8322 91.884 92.9305 91.9691C92.9305 91.1997 92.3294 91.4161 91.7283 91.5844C91.1272 91.7527 90.0933 91.4161 90.3818 90.4062C90.3818 90.6226 90.3818 91.5844 91.2234 91.1997C90.9178 90.93 90.7098 90.567 90.6315 90.1671C90.5533 89.7671 90.6092 89.3525 90.7906 88.9876C90.7154 89.1699 90.6827 89.3669 90.6951 89.5637C90.7074 89.7605 90.7644 89.9519 90.8617 90.1234C90.9591 90.2949 91.0942 90.442 91.2568 90.5535C91.4195 90.665 91.6054 90.738 91.8004 90.7669C92.2041 90.7344 92.6055 90.6782 93.0026 90.5986C94.0125 90.5986 94.2529 91.1035 94.277 91.5604C94.4212 90.5745 93.3633 90.4303 92.9064 90.4062C92.7799 90.4168 92.6525 90.4009 92.5325 90.3595C92.4124 90.3181 92.3023 90.2521 92.2092 90.1658C92.1461 90.0737 92.1124 89.9648 92.1124 89.8532C92.1124 89.7416 92.1461 89.6327 92.2092 89.5406C92.0649 90.0456 92.8343 90.0455 93.1228 90.0215C93.5808 89.9594 94.0464 90.0525 94.4453 90.286C94.6589 90.4367 94.8122 90.6582 94.8781 90.9112C94.8765 90.515 94.7948 90.1234 94.6377 89.7597C94.4807 89.3961 94.2517 89.068 93.9644 88.7952C93.6933 88.5305 93.3753 88.3185 93.0267 88.1701C93.08 87.969 93.0768 87.7571 93.0174 87.5577C92.958 87.3583 92.8447 87.1791 92.69 87.04V87.04ZM92.4496 88.3144C92.3845 88.3827 92.3061 88.4372 92.2194 88.4744C92.1326 88.5116 92.0391 88.5308 91.9447 88.5308C91.8503 88.5308 91.7568 88.5116 91.67 88.4744C91.5832 88.4372 91.5049 88.3827 91.4398 88.3144C91.3076 88.1795 91.2336 87.9982 91.2336 87.8094C91.2336 87.6206 91.3076 87.4393 91.4398 87.3045C91.5533 87.1893 91.7023 87.1157 91.8627 87.0953C92.0232 87.075 92.1858 87.1092 92.3245 87.1924C92.4632 87.2756 92.5699 87.403 92.6275 87.5542C92.685 87.7053 92.6901 87.8714 92.642 88.0258C92.6076 88.1388 92.5407 88.2392 92.4496 88.3144V88.3144Z" fill="white"/>
<path d="M103.459 107.998L115.023 96.2021L154.548 134.949L142.985 146.745L103.459 107.998Z" fill="#424242"/>
<path d="M117.551 101.179C118.104 100.626 118.778 100.385 119.066 100.674L124.668 106.18C124.957 106.444 124.668 107.118 124.187 107.671L117.551 101.179Z" fill="#F2F2F2"/>
<path d="M124.378 107.409L117.819 100.979C117.8 100.96 117.77 100.961 117.751 100.98L117.566 101.169C117.547 101.187 117.548 101.218 117.567 101.237L124.125 107.666C124.144 107.685 124.175 107.685 124.193 107.666L124.379 107.477C124.397 107.458 124.397 107.427 124.378 107.409Z" fill="#C8C8C9"/>
<path d="M115.123 116.929H115.003C114.474 117.482 113.8 117.722 113.512 117.434L107.885 112.048C107.621 111.784 107.885 111.11 108.366 110.533L115.123 116.929Z" fill="#F2F2F2"/>
<path d="M115.093 116.903L108.517 110.456C108.498 110.437 108.468 110.438 108.449 110.457L108.264 110.646C108.246 110.665 108.246 110.695 108.265 110.714L114.841 117.16C114.86 117.179 114.89 117.179 114.909 117.16L115.094 116.971C115.113 116.952 115.112 116.921 115.093 116.903Z" fill="#C8C8C9"/>
<path d="M142.942 126.066C143.495 125.488 144.168 125.272 144.433 125.537L150.059 131.067C150.347 131.331 150.059 132.004 149.578 132.558L142.942 126.066Z" fill="#F2F2F2"/>
<path d="M149.782 132.279L143.223 125.849C143.204 125.831 143.174 125.831 143.155 125.85L142.97 126.039C142.952 126.058 142.952 126.088 142.971 126.107L149.53 132.536C149.549 132.555 149.579 132.555 149.598 132.536L149.783 132.347C149.802 132.328 149.801 132.298 149.782 132.279Z" fill="#C8C8C9"/>
<path d="M140.514 141.863V141.983C139.96 142.536 139.287 142.752 139.023 142.488L133.276 137.054C132.988 136.765 133.276 136.092 133.757 135.539L140.514 141.863Z" fill="#F2F2F2"/>
<path d="M140.456 141.779L133.88 135.332C133.861 135.314 133.83 135.314 133.812 135.333L133.626 135.522C133.608 135.541 133.608 135.571 133.627 135.59L140.203 142.037C140.222 142.055 140.253 142.055 140.271 142.036L140.456 141.847C140.475 141.828 140.475 141.798 140.456 141.779Z" fill="#C8C8C9"/>
<path d="M147.664 136.745L144.617 139.853C144.505 139.967 144.507 140.15 144.621 140.261L145.6 141.22C145.714 141.332 145.896 141.33 146.008 141.216L149.054 138.109C149.166 137.995 149.164 137.812 149.05 137.701L148.072 136.741C147.958 136.63 147.775 136.631 147.664 136.745Z" fill="#C8C8C9"/>
<path d="M113.808 100.634L107.833 106.73C107.721 106.843 107.723 107.026 107.837 107.138L108.833 108.114C108.947 108.225 109.129 108.224 109.241 108.11L115.216 102.014C115.328 101.9 115.326 101.718 115.212 101.606L114.216 100.63C114.102 100.518 113.92 100.52 113.808 100.634Z" fill="#C8C8C9"/>
<path d="M105.626 107.623L132.243 133.663L141.355 124.382L114.739 98.3179" fill="#C8C8C9"/>
<path d="M113.632 99.4487L140.201 125.489L139.023 126.715L112.574 100.651" fill="#F2F2F2"/>
<path d="M107.068 106.157L133.637 132.245L136.21 129.624L109.617 103.536" fill="#7F7F80"/>
<path d="M132.074 133.567L158.691 159.607L167.804 150.302L141.187 124.262" fill="#EFEFEF"/>
<path d="M140.105 125.392L166.674 151.48L165.496 152.682L138.903 126.594" fill="white"/>
<path d="M133.541 132.076L160.11 158.14L162.658 155.52L136.09 129.479" fill="#A5A5A5"/>
<path d="M105.481 107.768L132.05 133.808L133.661 132.173L107.092 106.133" fill="#707070"/>
<path d="M131.954 133.712L158.523 159.752L160.11 158.117L133.541 132.077" fill="#8E8E8E"/>
<path d="M106.467 106.757L132.916 132.797L133.974 131.739L107.501 105.795" fill="#A3A3A3"/>
<path d="M132.94 132.701L159.509 158.693L160.543 157.635L134.094 131.595" fill="#C1C1C1"/>
<path d="M110.338 103.392L113.272 100.386C113.079 100.194 112.815 100.386 112.502 100.554C111.583 101.296 110.716 102.1 109.905 102.959C109.055 103.795 108.252 104.678 107.501 105.604C107.261 105.916 107.164 106.181 107.357 106.373L110.338 103.392Z" fill="#F2F2F2"/>
<path d="M147.799 140.059L144.866 143.065C145.082 143.281 145.347 143.185 145.659 142.92C146.571 142.17 147.438 141.367 148.256 140.516C149.106 139.68 149.909 138.797 150.66 137.871C150.901 137.558 150.997 137.294 150.781 137.102L147.823 140.107L147.799 140.059Z" fill="#F2F2F2"/>
<path d="M85.498 36.707L85.9789 37.1782L55.3169 68.4678L54.8361 67.9966L85.498 36.707Z" fill="#EDEDED"/>
<path opacity="0.7" d="M156.022 71.7967C155.834 71.6084 155.611 71.459 155.366 71.3571C155.12 71.2551 154.857 71.2026 154.591 71.2026C154.326 71.2026 154.062 71.2551 153.817 71.3571C153.571 71.459 153.348 71.6084 153.161 71.7967L130.078 95.3602C129.89 95.5478 129.741 95.7708 129.639 96.0163C129.537 96.2618 129.484 96.525 129.484 96.7908C129.484 97.0567 129.537 97.3199 129.639 97.5654C129.741 97.8109 129.89 98.0338 130.078 98.2215L203.725 170.355L229.597 143.906L156.022 71.7967Z" fill="#4C4C4C"/>
<path opacity="0.2" d="M205.507 168.63L231.918 141.726L240.6 150.249L214.189 177.153L205.507 168.63Z" fill="#4C4C4C"/>
<path d="M152.707 63.646L129.597 87.2208C128.816 88.0174 128.829 89.2961 129.625 90.077L231.032 189.487C231.828 190.268 233.107 190.255 233.888 189.458L256.998 165.883C257.779 165.087 257.766 163.808 256.969 163.027L155.563 63.6176C154.767 62.8367 153.488 62.8495 152.707 63.646Z" fill="#E5E4E4"/>
<path d="M159.871 143.955L152.88 137.107C152.548 136.782 152.015 136.787 151.69 137.119L145.111 143.835C144.786 144.167 144.791 144.7 145.123 145.025L152.114 151.873C152.446 152.199 152.979 152.193 153.304 151.861L159.883 145.145C160.208 144.813 160.203 144.28 159.871 143.955Z" fill="white"/>
<path d="M151.64 135.903L154.388 138.595L146.632 146.513L143.883 143.821L151.64 135.903Z" fill="#D8D8D8"/>
<path d="M154.105 138.314L155.032 139.223L147.276 147.141L146.348 146.233L154.105 138.314Z" fill="#EFEFEF"/>
<path d="M151.651 135.873L153.06 137.252L145.303 145.17L143.895 143.791L151.651 135.873Z" fill="#BFBFBF"/>
<path d="M144.601 144.507L148.665 152.514C148.696 152.599 148.75 152.675 148.819 152.734C148.889 152.793 148.972 152.832 149.062 152.849C149.151 152.866 149.244 152.86 149.33 152.83C149.416 152.801 149.493 152.75 149.554 152.682L151.213 150.999L144.601 144.507Z" fill="#424242"/>
<path d="M109.473 71.0039L109.833 70.6191L110.603 71.3645L111.348 70.6191L111.733 70.9798L110.987 71.7492L111.757 72.4946L111.372 72.8793L110.603 72.1339L109.881 72.8793L109.497 72.5186L110.218 71.7492L109.473 71.0039Z" fill="white"/>
<path d="M243.326 107.383L259.075 157.419C259.075 157.419 201.369 148.523 201.922 148.33C202.475 148.138 211.54 137.535 211.54 137.535C205.322 135.42 198.856 134.119 192.305 133.663C170.978 132.028 162.538 142.343 162.538 142.343C162.538 142.343 175.762 121.809 190.045 115.895C204.327 109.98 221.662 111.951 227.986 114.38C234.31 116.808 233.612 115.486 233.612 115.486L243.326 107.383Z" fill="#CE0E2D"/>
</svg>
