<svg width="330" height="228" viewBox="0 0 330 228" fill="none" xmlns="http://www.w3.org/2000/svg">
<path d="M285.127 49.037L43.6284 48.742C38.8612 48.7362 34.9919 52.596 34.986 57.3631L34.8491 169.479C34.8432 174.246 38.7031 178.115 43.4703 178.121L284.969 178.416C289.736 178.422 293.605 174.562 293.611 169.795L293.748 57.6793C293.754 52.9121 289.894 49.0429 285.127 49.037Z" stroke="#D8D8D8" stroke-miterlimit="10"/>
<path d="M84.8034 178.789L66.4097 37.412L100.985 32.9639L103.389 42.2448L120.581 174.173L84.8034 178.789Z" fill="#A3A2A2"/>
<path fill-rule="evenodd" clip-rule="evenodd" d="M102.067 31.2568L66.2173 36.0656L81.0044 149.648L88.963 148.47L76.7726 54.8437C76.6323 53.7852 76.9183 52.7143 77.5676 51.8666C78.2169 51.0189 79.1764 50.4638 80.235 50.3235C81.2935 50.1832 82.3645 50.4692 83.2122 51.1185C84.0599 51.7678 84.615 52.7273 84.7553 53.7858L96.9456 147.556L116.854 144.96L102.067 31.2568Z" fill="#E5E4E4"/>
<path d="M84.8213 178.797L120.681 174.127L122.358 187.002L86.498 191.672L84.8213 178.797Z" fill="#E5E4E4"/>
<path d="M81.3652 90.1641C81.6515 90.1298 81.9399 90.2085 82.169 90.3837C82.3981 90.5589 82.5497 90.8165 82.5915 91.1019L84.1543 102.931C84.1821 103.214 84.1003 103.496 83.9257 103.72C83.7512 103.944 83.4973 104.092 83.2166 104.134L81.3652 90.1641Z" fill="#7F7F80"/>
<path d="M105.818 136.28C107.266 136.28 108.439 135.107 108.439 133.659C108.439 132.212 107.266 131.039 105.818 131.039C104.371 131.039 103.197 132.212 103.197 133.659C103.197 135.107 104.371 136.28 105.818 136.28Z" fill="#676766"/>
<path d="M104.087 122.743C105.202 122.743 106.106 121.839 106.106 120.724C106.106 119.608 105.202 118.704 104.087 118.704C102.971 118.704 102.067 119.608 102.067 120.724C102.067 121.839 102.971 122.743 104.087 122.743Z" fill="#676766" fill-opacity="0.5"/>
<path d="M108.415 133.322C108.388 132.969 108.29 132.624 108.126 132.31C107.963 131.995 107.737 131.717 107.463 131.492C107.189 131.268 106.872 131.101 106.531 131.002C106.19 130.903 105.833 130.875 105.481 130.918C105.103 130.97 104.74 131.102 104.417 131.305C104.094 131.509 103.817 131.778 103.606 132.096C103.945 131.727 104.382 131.461 104.866 131.33C105.35 131.2 105.861 131.209 106.34 131.358C106.818 131.506 107.245 131.788 107.57 132.17C107.895 132.552 108.104 133.018 108.174 133.515C108.24 134.137 108.096 134.763 107.766 135.294C108.004 135.028 108.184 134.715 108.296 134.376C108.407 134.037 108.448 133.678 108.415 133.322V133.322Z" fill="#909091"/>
<path d="M105.794 120.796C105.857 121.249 105.755 121.71 105.505 122.094C105.795 121.796 105.984 121.415 106.046 121.004C106.108 120.593 106.041 120.173 105.853 119.802C105.665 119.431 105.366 119.129 104.997 118.936C104.629 118.744 104.21 118.671 103.798 118.728C103.502 118.763 103.218 118.866 102.968 119.029C102.717 119.191 102.508 119.409 102.355 119.666C102.615 119.388 102.949 119.191 103.318 119.097C103.686 119.002 104.074 119.015 104.435 119.134C104.796 119.253 105.116 119.472 105.357 119.767C105.598 120.061 105.749 120.418 105.794 120.796V120.796Z" fill="#CFCECE" fill-opacity="0.5"/>
<path d="M91.1512 103.099C90.8677 103.133 90.5821 103.054 90.3569 102.878C90.1317 102.703 89.9851 102.445 89.949 102.162L88.4102 90.3322C88.39 90.1899 88.3982 90.045 88.4346 89.906C88.4709 89.767 88.5346 89.6366 88.6219 89.5224C88.7092 89.4083 88.8184 89.3126 88.943 89.2411C89.0677 89.1696 89.2053 89.1237 89.3479 89.106L91.1512 103.099Z" fill="#7F7F80"/>
<path d="M83.4586 104.084L81.6483 90.1839C81.6449 90.1576 81.6207 90.139 81.5944 90.1424L81.4275 90.1642C81.4012 90.1676 81.3826 90.1917 81.386 90.2181L83.1963 104.118C83.1997 104.145 83.2239 104.163 83.2502 104.16L83.4171 104.138C83.4434 104.135 83.462 104.11 83.4586 104.084Z" fill="#696969"/>
<path d="M91.1553 103.071L89.3451 89.1712C89.3416 89.1449 89.3175 89.1263 89.2912 89.1297L89.1243 89.1515C89.0979 89.1549 89.0794 89.179 89.0828 89.2054L90.8931 103.106C90.8965 103.132 90.9206 103.15 90.947 103.147L91.1139 103.125C91.1402 103.122 91.1588 103.098 91.1553 103.071Z" fill="#696969"/>
<path d="M81.2241 151.215L117.084 146.545L120.676 174.131L84.8167 178.801L81.2241 151.215Z" fill="#CAC9C9"/>
<path d="M81.1689 150.73L117.028 146.06L117.097 146.585L81.2373 151.255L81.1689 150.73Z" fill="#B7B7B7"/>
<path d="M88.0732 149.889L89.3476 172.634L90.0689 178.116L93.1946 177.707L90.141 149.6L88.0732 149.889Z" fill="#B7B7B7"/>
<path d="M88.5063 148.975L89.8528 172.562L90.5501 178.044L93.6758 177.635L90.5741 148.71L88.5063 148.975Z" fill="#A3A2A2"/>
<path d="M91.8418 174.804L100.854 173.63L101.246 176.634L92.233 177.808L91.8418 174.804Z" fill="#DBDBDB"/>
<path d="M91.9136 175.361L100.926 174.188L101.016 174.879L92.0036 176.053L91.9136 175.361Z" fill="#F2F2F2"/>
<path d="M92.1665 177.333L101.179 176.16L101.244 176.66L92.2317 177.834L92.1665 177.333Z" fill="#7F7F80"/>
<path d="M92.105 176.842L101.118 175.668L101.183 176.169L92.1702 177.342L92.105 176.842Z" fill="#C4C4C4"/>
<path d="M91.8799 175.081L100.892 173.907L100.958 174.408L91.9451 175.582L91.8799 175.081Z" fill="#7F7F80"/>
<path d="M91.834 174.729L100.847 173.556L100.912 174.056L91.8992 175.23L91.834 174.729Z" fill="#616160"/>
<path d="M66.2109 35.9541L66.7593 35.8827L81.5489 149.444L81.0005 149.515L66.2109 35.9541Z" fill="#CFCECE"/>
<path d="M101.382 31.2153L101.929 31.1434L116.817 144.519L116.27 144.59L101.382 31.2153Z" fill="#EDEDED"/>
<path d="M84.8262 178.784L85.3746 178.712L87.0513 191.587L86.5029 191.659L84.8262 178.784Z" fill="#CFCECE"/>
<path d="M120.124 174.192L120.672 174.12L122.349 186.995L121.801 187.067L120.124 174.192Z" fill="#EDEDED"/>
<path d="M122.646 186.415L122.718 186.962L86.9172 191.663L86.8453 191.116L122.646 186.415Z" fill="#CFCECE"/>
<path d="M102.069 31.2749L102.141 31.8233L66.2813 36.4933L66.2099 35.9449L102.069 31.2749Z" fill="#EDEDED"/>
<path d="M81.0063 149.207L81.5538 149.135L85.3922 178.366L84.8447 178.437L81.0063 149.207Z" fill="#B7B7B7"/>
<path d="M116.243 144.592L116.79 144.52L120.629 173.751L120.081 173.823L116.243 144.592Z" fill="#DBD9D9"/>
<path d="M84.5151 62.009C83.8899 57.3685 80.9085 50.8286 80.2352 50.8767C79.562 50.9248 78.3598 58.0899 78.9369 62.7543L89.901 146.907L95.4792 146.162L84.5151 62.009Z" fill="#C8C8C9"/>
<path d="M93.5555 146.451L82.5673 62.2975C82.2788 57.6089 80.6919 50.8767 79.9946 50.9488C80.6679 50.9488 82.9761 57.5128 83.6012 62.1532L94.5653 146.306L93.5555 146.451Z" fill="#F2F2F2"/>
<path d="M91.8964 146.667L80.9323 62.5135C80.7881 57.7048 79.8984 51.3332 80.211 50.9004C79.6099 50.9004 79.2252 57.9692 79.8263 62.6337L90.7904 146.787L91.8964 146.667Z" fill="#7F7F80"/>
<path d="M91.5599 172.538L89.9009 146.811L95.4551 146.09L100.48 171.36L91.5599 172.538Z" fill="#5C5C5C"/>
<path d="M100.769 173.572L100.48 171.36L91.5601 172.538L91.8486 174.726L100.769 173.572Z" fill="#EFEFEF"/>
<path d="M91.151 113.006V112.765L85.5728 113.486V113.751L91.151 113.006Z" fill="#F2F2F2"/>
<path d="M91.1992 113.318V113.054L85.645 113.799V114.04L91.1992 113.318Z" fill="#7F7F80"/>
<path d="M91.5599 172.538L89.9009 146.811L91.9206 146.547L92.5938 172.394L91.5599 172.538Z" fill="#303031"/>
<path d="M91.5601 172.538L91.6803 146.667L93.8442 146.378L100.384 171.48L91.5601 172.538Z" fill="#1D1E1B"/>
<path d="M94.5896 146.186L100.456 171.36L93.5557 146.33L94.5896 146.186Z" fill="#C8C8C9"/>
<path d="M90.7905 146.667L91.5599 172.49L91.8485 146.667H90.7905Z" fill="#7F7F80"/>
<path d="M236.377 76.5791V114.039L267.803 132.24L273.021 117.742L272.203 105.624L263.74 89.6589L249.265 78.9113L236.377 76.5791Z" fill="#CE0E2D"/>
<path d="M235.199 78.6475H237.604V81.8212H235.199V78.6475Z" fill="#676766"/>
<path d="M217.683 83.9541L219.765 82.7519L221.352 85.5005L219.27 86.7027L217.683 83.9541Z" fill="#676766"/>
<path d="M205.192 97.3081L206.394 95.2259L209.143 96.8127L207.941 98.895L205.192 97.3081Z" fill="#676766"/>
<path d="M201.057 115.122V112.717H204.23V115.122H201.057Z" fill="#676766"/>
<path d="M206.35 132.622L205.147 130.54L207.896 128.953L209.098 131.035L206.35 132.622Z" fill="#676766"/>
<path d="M219.681 145.109L217.598 143.907L219.185 141.159L221.268 142.361L219.681 145.109Z" fill="#676766"/>
<path d="M237.483 149.264H235.079V146.09H237.483V149.264Z" fill="#676766"/>
<path d="M255.021 143.961L252.939 145.164L251.352 142.415L253.435 141.213L255.021 143.961Z" fill="#676766"/>
<path d="M253.005 82.8057L255.087 84.0079L253.5 86.7564L251.418 85.5542L253.005 82.8057Z" fill="#676766"/>
<path d="M239.427 102.5C239.427 101.715 239.492 100.995 239.623 100.341C239.754 99.668 239.978 99.0324 240.296 98.4342C240.633 97.836 241.091 97.2752 241.67 96.7518C242.268 96.2097 243.025 95.6956 243.941 95.2096C244.596 94.8357 245.213 94.5086 245.792 94.2282C246.372 93.9291 246.886 93.6394 247.334 93.359C247.783 93.0599 248.129 92.7421 248.372 92.4056C248.633 92.0691 248.764 91.6859 248.764 91.256C248.764 90.8447 248.652 90.4615 248.428 90.1063C248.204 89.7511 247.867 89.4707 247.418 89.2651C246.97 89.0408 246.428 88.9286 245.792 88.9286C245.287 88.9286 244.82 88.9941 244.39 89.1249C243.979 89.2558 243.596 89.4334 243.24 89.6577C242.904 89.8633 242.596 90.097 242.315 90.3587C242.035 90.6017 241.792 90.8447 241.586 91.0877L239.651 88.8726C239.838 88.6482 240.128 88.3959 240.521 88.1155C240.932 87.8164 241.418 87.5266 241.979 87.2462C242.558 86.9471 243.212 86.7041 243.941 86.5172C244.671 86.3116 245.465 86.2088 246.325 86.2088C247.54 86.2088 248.577 86.4144 249.437 86.8256C250.297 87.2182 250.951 87.7697 251.4 88.48C251.867 89.1717 252.101 89.9568 252.101 90.8354C252.101 91.527 251.961 92.1345 251.681 92.658C251.419 93.1814 251.073 93.6487 250.643 94.06C250.213 94.4525 249.755 94.7983 249.269 95.0974C248.802 95.3778 248.362 95.6302 247.951 95.8545C247.222 96.2097 246.587 96.5368 246.044 96.8359C245.521 97.135 245.072 97.4341 244.699 97.7332C244.325 98.0136 244.016 98.3127 243.773 98.6305C243.53 98.9296 243.325 99.2941 243.156 99.724H252.41V102.5H239.427Z" fill="white"/>
<path d="M279.198 89.791L278.33 139.525L235.693 113.906L279.198 89.791Z" fill="white"/>
<path d="M276.507 114.04C276.507 121.957 274.159 129.697 269.76 136.281C265.361 142.864 259.109 147.995 251.793 151.025C244.478 154.055 236.429 154.848 228.663 153.303C220.897 151.759 213.764 147.946 208.165 142.347C202.567 136.748 198.754 129.615 197.209 121.85C195.664 114.084 196.457 106.035 199.487 98.7198C202.517 91.4047 207.649 85.1525 214.232 80.7536C220.815 76.3547 228.555 74.0068 236.473 74.0068C241.731 74.0037 246.939 75.037 251.797 77.0477C256.656 79.0584 261.07 82.0071 264.788 85.7251C268.506 89.4432 271.455 93.8576 273.466 98.716C275.477 103.574 276.51 108.782 276.507 114.04V114.04ZM236.473 79.4648C229.635 79.4648 222.95 81.4926 217.264 85.2917C211.578 89.0908 207.147 94.4907 204.53 100.808C201.913 107.126 201.228 114.078 202.562 120.785C203.896 127.492 207.189 133.652 212.025 138.488C216.86 143.323 223.021 146.616 229.728 147.95C236.435 149.284 243.387 148.6 249.705 145.983C256.023 143.366 261.423 138.934 265.222 133.248C269.021 127.563 271.049 120.878 271.049 114.04C271.052 109.498 270.16 105.001 268.423 100.805C266.687 96.6084 264.14 92.7957 260.929 89.5845C257.718 86.3733 253.905 83.8266 249.709 82.0902C245.512 80.3538 241.015 79.4616 236.473 79.4648V79.4648Z" fill="#676766"/>
<path d="M266.334 95.2842L267.536 97.3664L264.788 98.9533L263.585 96.8711L266.334 95.2842Z" fill="#676766"/>
<path d="M271.65 112.79V115.194H268.476V112.79H271.65Z" fill="#676766"/>
<path d="M267.511 130.599L266.309 132.681L263.56 131.094L264.763 129.012L267.511 130.599Z" fill="#676766"/>
<path fill-rule="evenodd" clip-rule="evenodd" d="M163.62 79.9697L135.561 119.882H151.141L144.914 146.475L172.973 106.562H157.369L163.62 79.9697Z" fill="#61D458"/>
<path d="M114.642 180.473L117.287 180.112L117.479 181.651L114.858 182.011L115.411 184.993L113.776 185.233L113.368 182.228L110.603 182.733L110.386 181.194L113.031 180.833L112.646 177.924L114.257 177.708L114.642 180.473Z" fill="#676766"/>
</svg>
