<svg width="331" height="229" viewBox="0 0 331 229" fill="none" xmlns="http://www.w3.org/2000/svg">
<path d="M285.931 49.8456L44.4338 49.5506C39.6666 49.5448 35.7973 53.4046 35.7915 58.1718L35.6545 170.288C35.6487 175.056 39.5085 178.925 44.2757 178.931L285.772 179.226C290.54 179.232 294.409 175.372 294.415 170.605L294.552 58.4879C294.558 53.7207 290.698 49.8515 285.931 49.8456Z" stroke="#D8D8D8" stroke-miterlimit="10"/>
<path d="M85.6089 179.599L67.2153 38.2211L101.79 33.7729L104.195 43.0539L121.386 174.983L85.6089 179.599Z" fill="#A3A2A2"/>
<path fill-rule="evenodd" clip-rule="evenodd" d="M102.872 32.0659L67.0229 36.8747L81.8099 150.458L89.7685 149.28L77.5782 55.653C77.4379 54.5944 77.7239 53.5235 78.3732 52.6758C79.0225 51.8281 79.982 51.273 81.0405 51.1327C82.0991 50.9924 83.17 51.2784 84.0177 51.9277C84.8655 52.577 85.4205 53.5365 85.5608 54.5951L97.7511 148.366L117.659 145.77L102.872 32.0659Z" fill="#E5E4E4"/>
<path d="M85.6262 179.607L121.485 174.937L123.162 187.812L87.303 192.482L85.6262 179.607Z" fill="#E5E4E4"/>
<path d="M82.1707 90.9732C82.457 90.9388 82.7454 91.0176 82.9744 91.1928C83.2035 91.3679 83.3551 91.6256 83.3969 91.9109L84.9597 103.741C84.9875 104.023 84.9057 104.305 84.7311 104.529C84.5566 104.753 84.3027 104.901 84.022 104.943L82.1707 90.9732Z" fill="#7F7F80"/>
<path d="M106.623 137.09C108.07 137.09 109.244 135.916 109.244 134.469C109.244 133.022 108.07 131.848 106.623 131.848C105.175 131.848 104.002 133.022 104.002 134.469C104.002 135.916 105.175 137.09 106.623 137.09Z" fill="#676766"/>
<path d="M104.892 123.553C106.007 123.553 106.911 122.649 106.911 121.533C106.911 120.418 106.007 119.514 104.892 119.514C103.776 119.514 102.872 120.418 102.872 121.533C102.872 122.649 103.776 123.553 104.892 123.553Z" fill="#676766" fill-opacity="0.5"/>
<path d="M109.22 134.133C109.194 133.779 109.095 133.435 108.932 133.12C108.768 132.806 108.542 132.528 108.268 132.303C107.994 132.078 107.677 131.911 107.336 131.813C106.996 131.714 106.639 131.685 106.287 131.729C105.909 131.781 105.546 131.913 105.222 132.116C104.899 132.319 104.623 132.589 104.411 132.907C104.75 132.537 105.187 132.272 105.671 132.141C106.155 132.01 106.666 132.02 107.145 132.168C107.624 132.317 108.051 132.599 108.375 132.981C108.7 133.363 108.91 133.829 108.98 134.325C109.045 134.947 108.901 135.573 108.571 136.105C108.809 135.838 108.989 135.526 109.101 135.186C109.213 134.847 109.253 134.489 109.22 134.133V134.133Z" fill="#909091"/>
<path d="M106.599 121.605C106.663 122.058 106.56 122.519 106.311 122.903C106.6 122.605 106.789 122.224 106.851 121.813C106.914 121.402 106.846 120.982 106.658 120.611C106.47 120.24 106.171 119.938 105.803 119.745C105.434 119.553 105.015 119.48 104.604 119.537C104.307 119.572 104.023 119.675 103.773 119.838C103.523 120.001 103.313 120.218 103.161 120.475C103.421 120.197 103.755 120 104.123 119.906C104.492 119.811 104.879 119.825 105.24 119.943C105.602 120.062 105.921 120.281 106.162 120.576C106.403 120.87 106.555 121.227 106.599 121.605V121.605Z" fill="#CFCECE" fill-opacity="0.5"/>
<path d="M91.9566 103.909C91.6731 103.943 91.3875 103.864 91.1623 103.688C90.9371 103.512 90.7905 103.255 90.7544 102.971L89.2156 91.1418C89.1954 90.9995 89.2037 90.8546 89.24 90.7156C89.2764 90.5765 89.34 90.4461 89.4273 90.332C89.5146 90.2178 89.6238 90.1222 89.7484 90.0507C89.8731 89.9792 90.0107 89.9333 90.1534 89.9155L91.9566 103.909Z" fill="#7F7F80"/>
<path d="M84.2635 104.894L82.4532 90.9935C82.4498 90.9672 82.4257 90.9486 82.3993 90.952L82.2324 90.9737C82.2061 90.9772 82.1875 91.0013 82.191 91.0276L84.0012 104.928C84.0046 104.954 84.0288 104.973 84.0551 104.969L84.222 104.948C84.2483 104.944 84.2669 104.92 84.2635 104.894Z" fill="#696969"/>
<path d="M91.9608 103.881L90.1505 89.9808C90.1471 89.9545 90.1229 89.9359 90.0966 89.9393L89.9297 89.9611C89.9034 89.9645 89.8848 89.9886 89.8882 90.0149L91.6985 103.915C91.7019 103.942 91.726 103.96 91.7524 103.957L91.9193 103.935C91.9456 103.931 91.9642 103.907 91.9608 103.881Z" fill="#696969"/>
<path d="M82.0298 152.024L117.889 147.354L121.482 174.94L85.6224 179.61L82.0298 152.024Z" fill="#CAC9C9"/>
<path d="M81.9741 151.54L117.833 146.87L117.902 147.395L82.0424 152.065L81.9741 151.54Z" fill="#B7B7B7"/>
<path d="M88.8787 150.699L90.153 173.444L90.8743 178.926L94 178.517L90.9464 150.41L88.8787 150.699Z" fill="#B7B7B7"/>
<path d="M89.3115 149.785L90.658 173.372L91.3553 178.854L94.481 178.445L91.3793 149.521L89.3115 149.785Z" fill="#A3A2A2"/>
<path d="M92.647 175.614L101.659 174.44L102.051 177.444L93.0382 178.618L92.647 175.614Z" fill="#DBDBDB"/>
<path d="M92.7192 176.17L101.732 174.997L101.822 175.688L92.8093 176.862L92.7192 176.17Z" fill="#F2F2F2"/>
<path d="M92.9717 178.143L101.984 176.969L102.049 177.47L93.0369 178.644L92.9717 178.143Z" fill="#7F7F80"/>
<path d="M92.9099 177.651L101.922 176.478L101.988 176.978L92.9751 178.152L92.9099 177.651Z" fill="#C4C4C4"/>
<path d="M92.6851 175.892L101.698 174.718L101.763 175.219L92.7503 176.392L92.6851 175.892Z" fill="#7F7F80"/>
<path d="M92.6389 175.539L101.651 174.365L101.717 174.866L92.7041 176.04L92.6389 175.539Z" fill="#616160"/>
<path d="M67.0159 36.7632L67.5642 36.6918L82.3537 150.254L81.8053 150.325L67.0159 36.7632Z" fill="#CFCECE"/>
<path d="M102.187 32.0249L102.734 31.953L117.622 145.329L117.074 145.401L102.187 32.0249Z" fill="#EDEDED"/>
<path d="M85.6316 179.593L86.18 179.521L87.8567 192.396L87.3083 192.468L85.6316 179.593Z" fill="#CFCECE"/>
<path d="M120.929 175.001L121.477 174.93L123.154 187.805L122.606 187.876L120.929 175.001Z" fill="#EDEDED"/>
<path d="M123.451 187.224L123.523 187.771L87.7224 192.472L87.6505 191.925L123.451 187.224Z" fill="#CFCECE"/>
<path d="M102.875 32.0845L102.946 32.6329L67.0867 37.3029L67.0153 36.7545L102.875 32.0845Z" fill="#EDEDED"/>
<path d="M81.8118 150.017L82.3592 149.945L86.1976 179.176L85.6501 179.248L81.8118 150.017Z" fill="#B7B7B7"/>
<path d="M117.048 145.402L117.596 145.33L121.434 174.561L120.886 174.633L117.048 145.402Z" fill="#DBD9D9"/>
<path d="M85.32 62.8177C84.6948 58.1772 81.7134 51.6372 81.0402 51.6853C80.3669 51.7334 79.1647 58.8985 79.7418 63.563L90.7058 147.717L96.284 146.971L85.32 62.8177Z" fill="#C8C8C9"/>
<path d="M94.3606 147.26L83.3725 63.1066C83.084 58.4181 81.4971 51.6858 80.7998 51.7579C81.473 51.7579 83.7812 58.3219 84.4064 62.9624L95.3704 147.116L94.3606 147.26Z" fill="#F2F2F2"/>
<path d="M92.7018 147.476L81.7377 63.3227C81.5935 58.5139 80.7039 52.1423 81.0164 51.7095C80.4153 51.7095 80.0306 58.7784 80.6317 63.4429L91.5957 147.597L92.7018 147.476Z" fill="#7F7F80"/>
<path d="M92.3648 173.348L90.7058 147.621L96.26 146.899L101.285 172.17L92.3648 173.348Z" fill="#5C5C5C"/>
<path d="M101.574 174.382L101.285 172.17L92.365 173.348L92.6535 175.536L101.574 174.382Z" fill="#EFEFEF"/>
<path d="M91.9566 113.815V113.574L86.3784 114.296V114.56L91.9566 113.815Z" fill="#F2F2F2"/>
<path d="M92.0046 114.128V113.863L86.4504 114.609V114.849L92.0046 114.128Z" fill="#7F7F80"/>
<path d="M92.3648 173.348L90.7058 147.621L92.7255 147.357L93.3987 173.204L92.3648 173.348Z" fill="#303031"/>
<path d="M92.365 173.348L92.4852 147.477L94.6492 147.188L101.189 172.29L92.365 173.348Z" fill="#1D1E1B"/>
<path d="M95.3942 146.996L101.261 172.17L94.3604 147.14L95.3942 146.996Z" fill="#C8C8C9"/>
<path d="M91.5955 147.477L92.3649 173.3L92.6534 147.477H91.5955Z" fill="#7F7F80"/>
<path d="M237.182 77.3892V114.85L268.607 133.051L273.825 118.552L273.007 106.434L264.544 90.469L250.069 79.7214L237.182 77.3892Z" fill="#CE0E2D"/>
<path d="M236.003 79.4565H238.409V82.6313H236.003V79.4565Z" fill="#676766"/>
<path d="M218.488 84.7632L220.571 83.5606L222.158 86.31L220.075 87.5126L218.488 84.7632Z" fill="#676766"/>
<path d="M205.996 98.1177L207.199 96.0348L209.948 97.6222L208.746 99.705L205.996 98.1177Z" fill="#676766"/>
<path d="M201.861 115.931V113.526H205.035V115.931H201.861Z" fill="#676766"/>
<path d="M207.155 133.431L205.952 131.348L208.701 129.76L209.904 131.843L207.155 133.431Z" fill="#676766"/>
<path d="M220.485 145.919L218.402 144.716L219.989 141.967L222.072 143.17L220.485 145.919Z" fill="#676766"/>
<path d="M238.288 150.073H235.882V146.898H238.288V150.073Z" fill="#676766"/>
<path d="M255.825 144.77L253.743 145.973L252.155 143.223L254.238 142.021L255.825 144.77Z" fill="#676766"/>
<path d="M253.809 83.6147L255.891 84.8173L254.304 87.5667L252.221 86.3642L253.809 83.6147Z" fill="#676766"/>
<path d="M240.233 103.809C240.233 103.023 240.299 102.304 240.429 101.65C240.56 100.977 240.785 100.341 241.102 99.7428C241.439 99.1446 241.897 98.5838 242.476 98.0604C243.075 97.5183 243.832 97.0042 244.748 96.5182C245.402 96.1443 246.019 95.8172 246.598 95.5368C247.178 95.2377 247.692 94.948 248.14 94.6676C248.589 94.3685 248.935 94.0507 249.178 93.7142C249.44 93.3777 249.571 92.9945 249.571 92.5646C249.571 92.1533 249.458 91.7701 249.234 91.4149C249.01 91.0597 248.673 90.7793 248.225 90.5737C247.776 90.3494 247.234 90.2372 246.598 90.2372C246.094 90.2372 245.626 90.3027 245.196 90.4335C244.785 90.5644 244.402 90.742 244.047 90.9663C243.71 91.1719 243.402 91.4056 243.121 91.6673C242.841 91.9103 242.598 92.1533 242.392 92.3963L240.458 90.1812C240.644 89.9568 240.934 89.7045 241.327 89.4241C241.738 89.125 242.224 88.8352 242.785 88.5548C243.364 88.2557 244.019 88.0127 244.748 87.8258C245.477 87.6202 246.271 87.5174 247.131 87.5174C248.346 87.5174 249.384 87.723 250.243 88.1342C251.103 88.5268 251.758 89.0782 252.206 89.7886C252.674 90.4802 252.907 91.2654 252.907 92.144C252.907 92.8356 252.767 93.4431 252.487 93.9666C252.225 94.49 251.879 94.9573 251.449 95.3686C251.019 95.7611 250.561 96.1069 250.075 96.406C249.608 96.6864 249.169 96.9388 248.757 97.1631C248.028 97.5183 247.393 97.8454 246.851 98.1445C246.327 98.4436 245.879 98.7427 245.505 99.0418C245.131 99.3222 244.822 99.6213 244.579 99.9391C244.336 100.238 244.131 100.603 243.963 101.033H253.216V103.809H240.233Z" fill="white"/>
<path d="M276.198 93.2993L275.33 143.033L232.693 117.414L276.198 93.2993Z" fill="white"/>
<path d="M277.311 114.849C277.311 122.766 274.963 130.506 270.564 137.09C266.165 143.673 259.913 148.804 252.598 151.834C245.283 154.864 237.233 155.657 229.468 154.112C221.702 152.568 214.569 148.755 208.97 143.156C203.371 137.557 199.559 130.424 198.014 122.659C196.469 114.893 197.262 106.844 200.292 99.5285C203.322 92.2134 208.453 85.9611 215.037 81.5622C221.62 77.1633 229.36 74.8154 237.278 74.8154C242.536 74.8123 247.743 75.8456 252.601 77.8563C257.46 79.8671 261.874 82.8158 265.592 86.5338C269.311 90.2519 272.259 94.6663 274.27 99.5248C276.281 104.383 277.314 109.59 277.311 114.849V114.849ZM237.278 80.2734C230.439 80.2734 223.755 82.3012 218.069 86.1004C212.383 89.8995 207.951 95.2994 205.334 101.617C202.718 107.935 202.033 114.887 203.367 121.594C204.701 128.301 207.994 134.461 212.829 139.297C217.665 144.132 223.826 147.425 230.532 148.759C237.239 150.093 244.191 149.409 250.509 146.792C256.827 144.175 262.227 139.743 266.026 134.057C269.825 128.372 271.853 121.687 271.853 114.849C271.856 110.307 270.964 105.81 269.227 101.613C267.491 97.4172 264.944 93.6044 261.733 90.3932C258.522 87.1819 254.709 84.6353 250.513 82.8988C246.317 81.1624 241.819 80.2702 237.278 80.2734V80.2734Z" fill="#676766"/>
<path d="M267.138 96.0933L268.34 98.1761L265.591 99.7635L264.389 97.6806L267.138 96.0933Z" fill="#676766"/>
<path d="M268.315 131.408L267.113 133.491L264.363 131.904L265.566 129.821L268.315 131.408Z" fill="#676766"/>
<path d="M272.454 113.598V116.003H269.279V113.598H272.454Z" fill="#676766"/>
<path fill-rule="evenodd" clip-rule="evenodd" d="M164.424 80.7783L136.365 120.691H151.946L145.718 147.284L173.778 107.371H158.173L164.424 80.7783Z" fill="#61D458"/>
</svg>
