<svg fill="none" height="51" viewBox="0 0 522 51" width="522" xmlns="http://www.w3.org/2000/svg" xmlns:xlink="http://www.w3.org/1999/xlink"><filter id="a" color-interpolation-filters="sRGB" filterUnits="userSpaceOnUse" height="21" width="21" x="99" y="15"><feFlood flood-opacity="0" result="BackgroundImageFix"/><feColorMatrix in="SourceAlpha" result="hardAlpha" type="matrix" values="0 0 0 0 0 0 0 0 0 0 0 0 0 0 0 0 0 0 127 0"/><feOffset/><feGaussianBlur stdDeviation="2.5"/><feComposite in2="hardAlpha" operator="out"/><feColorMatrix type="matrix" values="0 0 0 0 0.843137 0 0 0 0 0 0 0 0 0 0.843137 0 0 0 1 0"/><feBlend in2="BackgroundImageFix" mode="normal" result="effect1_dropShadow_22_1081"/><feBlend in="SourceGraphic" in2="effect1_dropShadow_22_1081" mode="normal" result="shape"/></filter><filter id="b" color-interpolation-filters="sRGB" filterUnits="userSpaceOnUse" height="21" width="21" x="444" y="15"><feFlood flood-opacity="0" result="BackgroundImageFix"/><feColorMatrix in="SourceAlpha" result="hardAlpha" type="matrix" values="0 0 0 0 0 0 0 0 0 0 0 0 0 0 0 0 0 0 127 0"/><feOffset/><feGaussianBlur stdDeviation="2.5"/><feComposite in2="hardAlpha" operator="out"/><feColorMatrix type="matrix" values="0 0 0 0 0.498039 0 0 0 0 0.882353 0 0 0 0 0.196078 0 0 0 1 0"/><feBlend in2="BackgroundImageFix" mode="normal" result="effect1_dropShadow_22_1081"/><feBlend in="SourceGraphic" in2="effect1_dropShadow_22_1081" mode="normal" result="shape"/></filter><path d="m48.6477 14.9477c-19.6789.0739-48.5616824 9.8274-48.6477 12.9941.0860176 3.1667 28.9688 12.9413 48.6477 13.0152h356.1983v-26.0093z" fill="#c7c8c9"/><path d="m404.846 21.4715h-356.1983c-19.6789.0739-48.5616824 3.3674-48.6477 6.5343v-.0739c.0860176-3.1669 28.9688-9.7751 48.6477-9.849h356.1983z" fill="#f2f2f2"/><path d="m404.846 29.5144h-356.1983c-19.6789-.0738-47.08027.1689-48.6477-1.5515v.0738c.0477875 2.7971 28.9688 8.7185 48.6477 8.7924h356.1983z" fill="#7f7f7f"/><path d="m512.292 49.0629-107.923-8.1065v-26.019l107.923-7.89547z" fill="#1d1d1b"/><path d="m521.638 6.99997h-9.347v21.04733h9.347z" fill="#c7c8c9"/><path d="m521.638 28.0156h-9.347v21.0474h9.347z" fill="#7f7f7f"/><path d="m512.292 27.8994-107.923-9.7954v-3.1666l107.923-7.89547z" fill="#5b5b5b"/><path d="m512.292 28.1211-107.923 9.6791v3.1666l107.923 7.8847z" fill="#303030"/><path d="m264.647 14.9482h-1.071v26.0293h1.071z" fill="#f2f2f2"/><path d="m265.709 14.9482h-1.07v26.0293h1.07z" fill="#7f7f7f"/><path d="m404.369 21.4711 107.923 6.4283-107.923-9.7954z" fill="#afafaf"/><g filter="url(#a)"><circle cx="109.5" cy="25.5" fill="#d700d7" r="5.5"/></g><g stroke="#d700d7" stroke-linecap="round" stroke-opacity=".5"><circle cx="109.5" cy="25.5" r="11" stroke-dasharray="1 8 1 8 1 8"/><circle cx="109.5" cy="25.5" r="18" stroke-dasharray="1 5.5 1 5.5 1 5.5"/><circle cx="109.5" cy="25.5" r="25" stroke-dasharray="1 6 1 6 1 6"/></g><g filter="url(#b)"><circle cx="454.5" cy="25.5" fill="#7fe132" r="5.5"/></g><g stroke="#7fe132" stroke-linecap="round"><circle cx="454.5" cy="25.5" r="11" stroke-dasharray="1 8 1 8 1 8"/><circle cx="454.5" cy="25.5" r="18" stroke-dasharray="1 5.5 1 5.5 1 5.5"/><circle cx="454.5" cy="25.5" r="25" stroke-dasharray="1 6 1 6 1 6"/></g></svg>