<svg width="330" height="228" viewBox="0 0 330 228" fill="none" xmlns="http://www.w3.org/2000/svg">
<path d="M285.16 53.8759L43.6635 53.5809C38.8963 53.575 35.027 57.4349 35.0212 62.2021L34.8842 174.319C34.8784 179.086 38.7382 182.955 43.5054 182.961L285.002 183.256C289.769 183.262 293.639 179.402 293.645 174.635L293.781 62.5182C293.787 57.751 289.927 53.8817 285.16 53.8759Z" stroke="#D8D8D8" stroke-miterlimit="10"/>
<path d="M188.928 50.1952L191.693 57.216L201.238 57.5526L203.859 47.9351L188.928 50.1952Z" fill="white"/>
<path d="M200.277 71.8585C199.363 70.3678 198.714 69.2378 197.992 68.1558C196.117 65.2946 194.242 62.4093 192.246 59.5721C190.103 56.7803 188.571 53.5691 187.75 50.1469C186.716 45.0015 189.745 41.0823 194.963 41.3949C198.765 41.6479 202.318 43.3729 204.869 46.2037C205.029 46.3231 205.163 46.4746 205.262 46.6486C205.361 46.8225 205.422 47.0151 205.443 47.214C205.463 47.413 205.442 47.614 205.38 47.8043C205.319 47.9947 205.218 48.1701 205.085 48.3196C204.431 47.8361 203.812 47.3057 203.234 46.7327C202.019 45.3852 200.49 44.3594 198.782 43.7469C197.075 43.1343 195.242 42.9541 193.448 43.2222C192.346 43.4471 191.357 44.0514 190.654 44.9301C189.951 45.8087 189.578 46.906 189.601 48.031C190.118 51.5739 191.434 54.953 193.448 57.9131C194.578 59.7645 196.069 61.4235 197.151 63.2989C198.32 65.4726 199.379 67.7035 200.325 69.9831C200.541 70.3919 200.349 70.9208 200.277 71.8585V71.8585Z" fill="black"/>
<path d="M180.008 150.17C188.712 154.233 186.932 158.008 190.395 159.475C194.747 160.412 199.459 164.764 203.427 168.924C212.9 173.492 225.595 170.198 231.991 166.039C237.184 162.697 235.381 156.421 238.386 144.784C242.474 128.915 241.488 117.927 239.42 115.643C235.838 111.748 226.22 117.71 181.066 147.477" fill="black" fill-opacity="0.1"/>
<path d="M241.993 137.57H242.45C242.907 136.2 243.412 134.853 243.845 133.459C245.051 129.019 247.002 124.815 249.615 121.028C251.49 118.559 252.87 115.75 253.679 112.757C254.303 110.712 254.303 108.527 253.679 106.481C252.758 103.977 252.27 101.335 252.236 98.6671C252.236 98.4026 251.995 98.1141 251.875 97.8496C251.412 100.311 251.469 102.842 252.044 105.279C252.589 108.146 252.201 111.112 250.937 113.743C250.529 114.656 249.952 115.498 249.375 116.556L246.658 114.536C245.504 116.556 246.922 117.493 248.052 118.407C245.413 124.582 243.384 131 241.993 137.57V137.57Z" fill="white"/>
<path d="M267.647 147.621C268.663 147.453 269.589 146.937 270.265 146.16C270.941 145.383 271.325 144.395 271.35 143.365L267.647 147.621Z" fill="white"/>
<path d="M269.163 143.558C270.534 143.558 270.534 142.284 271.111 141.682C271.111 141.682 271.111 141.249 270.799 140.624C270.197 141.803 269.307 142.356 269.163 143.558Z" fill="white"/>
<path d="M268.633 100.952L268.85 101.289L271.087 100.254C270.669 100.022 270.176 99.9643 269.715 100.095C269.255 100.226 268.866 100.534 268.633 100.952V100.952Z" fill="white"/>
<path d="M270.942 103.477C269.98 103.621 269.98 103.621 269.21 104.704C270.148 104.68 270.485 104.054 270.942 103.477Z" fill="white"/>
<path d="M241.993 137.571C243.428 131.072 245.49 124.726 248.148 118.624C247.018 117.711 245.6 116.773 246.754 114.753L249.471 116.773C250.048 115.715 250.625 114.874 251.034 113.96C252.297 111.329 252.685 108.363 252.14 105.496C251.566 103.059 251.508 100.528 251.971 98.0669C252.092 98.3314 252.332 98.6199 252.332 98.8844C252.367 101.552 252.854 104.194 253.775 106.699C254.399 108.744 254.399 110.929 253.775 112.974C252.911 115.898 251.5 118.632 249.615 121.029C247.002 124.816 245.051 129.019 243.845 133.46C243.412 134.854 242.907 136.201 242.45 137.571H241.993Z" fill="black"/>
<path d="M267.647 147.621L271.35 143.365C271.325 144.395 270.941 145.383 270.265 146.16C269.589 146.937 268.663 147.453 267.647 147.621V147.621Z" fill="black"/>
<path d="M269.163 143.558C269.307 142.356 270.197 141.803 270.799 140.624C270.991 141.249 271.183 141.61 271.111 141.682C270.534 142.284 270.534 143.534 269.163 143.558Z" fill="black"/>
<path d="M268.633 100.952C268.866 100.547 269.247 100.248 269.695 100.118C270.144 99.9877 270.625 100.037 271.038 100.254L268.802 101.289L268.633 100.952Z" fill="black"/>
<path d="M270.942 103.477C270.485 104.054 270.148 104.68 269.21 104.704C269.98 103.621 269.98 103.621 270.942 103.477Z" fill="black"/>
<path d="M213.645 29.2773L261.228 41.9725C261.846 42.129 262.427 42.407 262.937 42.7903C263.447 43.1735 263.875 43.6544 264.198 44.2049C264.52 44.7553 264.729 45.3644 264.814 45.9966C264.898 46.6288 264.856 47.2715 264.69 47.8873L234.924 159.162C234.762 159.776 234.48 160.352 234.095 160.857C233.709 161.361 233.228 161.785 232.678 162.102C232.128 162.419 231.521 162.625 230.891 162.706C230.261 162.788 229.622 162.744 229.009 162.577L181.45 149.882C180.195 149.537 179.125 148.715 178.469 147.592C177.813 146.468 177.623 145.132 177.94 143.871L207.658 32.6194C208.032 31.3976 208.864 30.3678 209.98 29.7449C211.095 29.1221 212.409 28.9546 213.645 29.2773V29.2773Z" fill="white" stroke="#1D1D1B" stroke-width="1.51477"/>
<path d="M194.77 149.4L217.708 155.531C217.817 155.565 217.909 155.637 217.967 155.735C218.024 155.833 218.044 155.949 218.021 156.06C217.987 156.174 217.911 156.27 217.807 156.328C217.704 156.386 217.582 156.402 217.468 156.373L194.554 150.265C194.44 150.232 194.344 150.155 194.286 150.052C194.227 149.949 194.211 149.827 194.241 149.712C194.255 149.657 194.28 149.605 194.314 149.559C194.349 149.513 194.391 149.475 194.441 149.446C194.49 149.417 194.544 149.398 194.601 149.39C194.657 149.382 194.715 149.385 194.77 149.4V149.4Z" fill="#676766"/>
<path d="M233.193 37.908L239.926 39.7113C239.981 39.7253 240.033 39.7502 240.079 39.7844C240.125 39.8186 240.163 39.8615 240.192 39.9107C240.221 39.9599 240.24 40.0143 240.248 40.0709C240.256 40.1275 240.253 40.185 240.238 40.2403C240.205 40.3539 240.128 40.4501 240.025 40.5084C239.922 40.5667 239.8 40.5827 239.685 40.5529L232.977 38.7496C232.92 38.7388 232.866 38.7159 232.818 38.6825C232.77 38.6491 232.73 38.6059 232.701 38.5559C232.671 38.5058 232.653 38.45 232.646 38.3922C232.64 38.3344 232.646 38.2759 232.664 38.2206C232.675 38.1635 232.698 38.1093 232.731 38.0617C232.765 38.0141 232.808 37.9741 232.858 37.9445C232.908 37.915 232.964 37.8964 233.022 37.8901C233.08 37.8838 233.138 37.8899 233.193 37.908V37.908Z" fill="#676766"/>
<path d="M242.041 41.6846C242.559 41.6846 242.979 41.2646 242.979 40.7466C242.979 40.2286 242.559 39.8086 242.041 39.8086C241.523 39.8086 241.103 40.2286 241.103 40.7466C241.103 41.2646 241.523 41.6846 242.041 41.6846Z" fill="#676766"/>
<path d="M229.346 53.2006L230.212 49.9787L228.192 52.0705H227.903L227.206 49.2333L226.34 52.4552L225.812 52.335L226.918 48.1514L227.471 48.2956L228.216 51.3011L230.452 48.8967L230.981 49.041L229.875 53.2006H229.346Z" fill="#010202"/>
<path d="M233.77 53.8729L233.625 54.3298L230.86 53.7046L231.966 49.521L234.707 50.2664L234.563 50.7232L232.351 50.1221L231.99 51.3002L233.914 51.8052V52.238L231.99 51.733L231.606 53.1516L233.77 53.8729Z" fill="#010202"/>
<path d="M233.938 54.4264L236.751 50.7236H237.16L237.737 55.3401L237.184 55.1958L237.016 53.8493L235.308 53.3925L234.491 54.4745L233.938 54.4264ZM236.799 51.3007L235.525 53.0318L237.016 53.4165L236.799 51.3007Z" fill="#010202"/>
<path d="M241.656 52.5268L240.237 52.142L239.252 55.8448L238.723 55.7005L239.708 51.9978L238.242 51.6131V51.1562L241.584 52.0459L241.656 52.5268Z" fill="#010202"/>
<path d="M244.108 56.6385V57.0954L241.319 56.3741L242.425 52.1904L245.166 52.9358V53.3926L242.93 52.7915L242.57 54.138L244.493 54.6669V55.0997L242.57 54.5948L242.209 56.0134L244.108 56.6385Z" fill="#010202"/>
<path d="M244.71 57.3116L245.816 53.1279L247.571 53.6088C247.748 53.6491 247.913 53.7316 248.052 53.8492C248.175 53.9701 248.28 54.1077 248.365 54.258C248.433 54.4184 248.473 54.5891 248.485 54.7629C248.522 54.9211 248.522 55.0856 248.485 55.2438C248.443 55.3856 248.387 55.5226 248.317 55.6525C248.233 55.7679 248.136 55.8728 248.028 55.9651C247.931 56.059 247.817 56.1326 247.691 56.1815C247.557 56.2087 247.418 56.2087 247.283 56.1815L247.86 58.0569L247.283 57.8886L246.73 56.1575L245.648 55.8689L245.263 57.3597L244.734 57.2154L244.71 57.3116ZM245.768 55.4842L246.994 55.7968C247.097 55.8197 247.204 55.8197 247.307 55.7968C247.413 55.7738 247.513 55.7241 247.595 55.6525C247.679 55.5837 247.752 55.5026 247.812 55.4121C247.821 55.3081 247.821 55.2035 247.812 55.0995C247.847 54.9819 247.847 54.8565 247.812 54.7389C247.836 54.6361 247.836 54.529 247.812 54.4263C247.769 54.3308 247.703 54.2479 247.619 54.1859C247.545 54.1152 247.454 54.0654 247.355 54.0416L246.153 53.729L245.696 55.4602L245.768 55.4842Z" fill="#010202"/>
<path d="M225.547 47.4533C225.59 47.2939 225.602 47.1274 225.58 46.9634C225.559 46.7995 225.506 46.6414 225.423 46.4983C225.34 46.3552 225.23 46.2299 225.098 46.1297C224.967 46.0295 224.817 45.9564 224.657 45.9145C224.455 45.8535 224.239 45.8504 224.035 45.9057C223.831 45.9609 223.647 46.0723 223.503 46.2271C223.068 45.8306 222.537 45.5543 221.963 45.4252C221.388 45.2962 220.79 45.3189 220.227 45.4912C219.664 45.6634 219.156 45.9793 218.752 46.4077C218.349 46.836 218.063 47.3621 217.925 47.9342C217.7 48.7374 217.786 49.5959 218.165 50.3386C218.196 50.0159 218.331 49.7121 218.55 49.473C218.934 49.1124 219.8 48.4391 219.175 47.814C219.257 47.8512 219.331 47.9059 219.39 47.9743C219.449 48.0426 219.493 48.123 219.518 48.2098C219.543 48.2967 219.549 48.388 219.536 48.4774C219.522 48.5668 219.489 48.6522 219.439 48.7277C219.247 49.1364 218.814 49.4971 218.959 50.026C218.985 50.1299 219.04 50.2243 219.118 50.2986C219.195 50.3729 219.292 50.4242 219.397 50.4466C219.501 50.4691 219.61 50.4619 219.711 50.4258C219.813 50.3898 219.901 50.3263 219.968 50.2424C220.377 49.6894 219.512 49.0402 219.391 50.026C219.335 49.9556 219.298 49.8713 219.285 49.782C219.273 49.6926 219.284 49.6014 219.318 49.518C219.353 49.4345 219.409 49.3617 219.481 49.3073C219.553 49.2529 219.638 49.2188 219.728 49.2085C219.88 49.2122 220.029 49.2494 220.165 49.3174C220.301 49.3854 220.421 49.4826 220.515 49.602C220.609 49.7214 220.675 49.8601 220.71 50.0082C220.744 50.1563 220.746 50.3102 220.714 50.4588C221.531 50.0982 220.93 49.5211 220.401 49.0162C219.872 48.5113 219.656 47.285 220.834 46.9965C220.618 47.1167 219.704 47.7659 220.497 48.2949C220.598 47.8335 220.848 47.4182 221.209 47.1138C221.57 46.8093 222.021 46.6329 222.493 46.6118C222.264 46.6306 222.042 46.7039 221.847 46.8257C221.652 46.9474 221.489 47.1141 221.371 47.3117C221.254 47.5094 221.185 47.7323 221.171 47.9619C221.157 48.1914 221.198 48.421 221.291 48.6315C221.542 49.0292 221.823 49.407 222.132 49.7616C222.782 50.7233 222.325 51.3004 221.868 51.5889C222.95 51.1561 222.517 50.026 222.277 49.5452C222.036 49.0643 221.988 49.0162 222.108 48.7036C222.158 48.5823 222.24 48.4774 222.347 48.4008C222.453 48.3243 222.579 48.2792 222.709 48.2708C222.132 48.4151 222.565 49.1845 222.709 49.473C223.042 49.8967 223.213 50.4254 223.19 50.9638C223.167 51.2624 223.039 51.5433 222.83 51.7572C223.224 51.5281 223.57 51.2232 223.846 50.8601C224.123 50.497 224.325 50.0828 224.441 49.6413C224.535 49.2056 224.535 48.7547 224.441 48.3189C224.69 48.302 224.929 48.2104 225.127 48.0561C225.324 47.9018 225.47 47.6918 225.547 47.4533V47.4533ZM224.128 47.9342C224.023 47.9064 223.925 47.8581 223.84 47.7921C223.754 47.7261 223.682 47.6438 223.629 47.5498C223.575 47.4559 223.54 47.3522 223.527 47.2449C223.514 47.1375 223.522 47.0286 223.551 46.9244C223.584 46.7529 223.678 46.5991 223.815 46.4916C223.916 46.3948 224.039 46.3261 224.174 46.2924C224.309 46.2586 224.451 46.261 224.585 46.2992C224.689 46.3271 224.787 46.3754 224.873 46.4414C224.959 46.5073 225.031 46.5897 225.084 46.6836C225.138 46.7776 225.172 46.8812 225.186 46.9886C225.199 47.0959 225.191 47.2049 225.162 47.3091C225.127 47.4591 225.05 47.5959 224.939 47.7026C224.828 47.8093 224.688 47.8815 224.537 47.9102C224.474 47.9411 224.405 47.9592 224.335 47.9634C224.265 47.9675 224.194 47.9576 224.128 47.9342V47.9342Z" fill="#CF122D"/>
<path d="M181.931 126.174L188.568 131.199L191.934 135.215L192.511 140.288L190.275 143.943L188.423 144.447L181.979 142.933L177.796 139.927L172.578 137.282L169.405 131.921L172.626 126.535L176.449 125.429L181.931 126.174Z" fill="white"/>
<path d="M181.667 118.648L184.384 121.413L187.63 123.385L191.429 123.505L194.674 121.533L196.838 118.239L197.151 114.969L195.564 111.723L192.342 106.794L189.409 102.394L186.307 99.5571L181.667 118.648Z" fill="white"/>
<path d="M186.572 97.0568L189.986 98.2109L194.146 96.5038L196.237 93.5704L197.103 89.9398L196.31 86.2851L195.324 83.6403L193.977 81.3081L193.208 79.8895L192.679 79.5288L186.572 97.0568Z" fill="white"/>
<path d="M181.811 88.6176C181.56 88.2764 181.384 87.8851 181.297 87.4703C181.21 87.0555 181.213 86.6267 181.306 86.2132C181.467 85.3458 181.803 84.5205 182.295 83.7884C182.787 83.0564 183.425 82.4332 184.168 81.9574C185.113 81.4536 186.186 81.2418 187.252 81.3488C188.318 81.4559 189.328 81.8769 190.154 82.5585C190.647 82.7825 191.083 83.1153 191.428 83.5317C191.774 83.9481 192.021 84.4374 192.15 84.9629C191.383 84.3902 190.58 83.8682 189.746 83.4001C188.654 82.9119 187.519 82.5256 186.356 82.246C185.756 82.2086 185.162 82.3784 184.672 82.7268C183.927 83.1852 183.313 83.8297 182.891 84.5968C182.47 85.364 182.255 86.2276 182.268 87.1028C182.244 87.5674 182.244 88.0328 182.268 88.4974L181.811 88.6176Z" fill="black"/>
<path d="M197.728 170.87C200.167 170.293 202.486 169.292 204.58 167.913C208.018 166.062 211.529 164.354 215.232 162.768C214.978 163.09 214.678 163.373 214.342 163.609C210.88 165.46 207.441 167.36 203.931 169.115C202.285 169.877 200.599 170.551 198.882 171.135C198.498 171.241 198.102 171.298 197.704 171.303L197.728 170.87Z" fill="black"/>
<path d="M182.58 110.858C182.442 110.214 182.484 109.544 182.701 108.922C182.918 108.301 183.303 107.751 183.812 107.334C184.321 106.916 184.936 106.647 185.588 106.556C186.24 106.465 186.905 106.556 187.509 106.818C189.906 107.977 191.931 109.784 193.352 112.036C193.352 112.036 193.352 112.252 193.352 112.517C192.342 111.531 191.428 110.569 190.419 109.704C189.569 108.95 188.642 108.289 187.654 107.732C187.277 107.507 186.855 107.368 186.418 107.325C185.982 107.283 185.541 107.336 185.128 107.483C184.714 107.63 184.338 107.867 184.027 108.176C183.715 108.485 183.476 108.859 183.326 109.271C182.941 109.776 182.797 110.329 182.58 110.858Z" fill="black"/>
<path d="M188.351 134.853L186.884 134.036C185.878 133.375 184.807 132.819 183.687 132.377C181.282 131.679 180.296 132.521 180.08 134.781C179.856 134.455 179.724 134.076 179.697 133.681C179.669 133.287 179.748 132.893 179.925 132.54C180.102 132.186 180.37 131.887 180.701 131.672C181.033 131.457 181.416 131.335 181.811 131.319C183.089 131.287 184.359 131.527 185.537 132.025C186.714 132.523 187.772 133.265 188.64 134.204L188.351 134.853Z" fill="black"/>
<path d="M191.741 85.78C187.726 86.5013 184.528 87.8958 184.095 92.5844C183.742 92.117 183.551 91.5472 183.551 90.9614C183.551 90.3757 183.742 89.8059 184.095 89.3385C184.874 88.1289 185.941 87.1312 187.199 86.4347C188.458 85.7382 189.87 85.3645 191.308 85.3472C191.308 85.3472 191.405 85.4674 191.741 85.78Z" fill="black"/>
<path d="M185.345 118.287C185.809 116.57 186.927 115.105 188.461 114.205C189.995 113.306 191.82 113.045 193.544 113.478C192.414 113.645 191.297 113.894 190.202 114.223C189.207 114.622 188.275 115.165 187.437 115.834C186.666 116.586 185.966 117.407 185.345 118.287V118.287Z" fill="black"/>
<path d="M192.558 157.6C191.993 158.726 191.124 159.673 190.049 160.331C188.974 160.99 187.736 161.335 186.475 161.326L192.558 157.6Z" fill="black"/>
<path d="M185.057 140.913C185.018 140.249 185.113 139.584 185.335 138.958C185.557 138.332 185.903 137.756 186.351 137.265C186.799 136.774 187.341 136.378 187.945 136.1C188.549 135.822 189.202 135.668 189.866 135.647C187.75 137.017 185.731 138.172 185.057 140.913Z" fill="black"/>
<path d="M178.494 103.404C178.164 104.398 177.501 105.247 176.618 105.809C176.593 104.197 176.882 103.885 178.494 103.404Z" fill="black"/>
<path d="M182.941 113.262L184.36 116.869C183.773 116.495 183.319 115.944 183.064 115.296C182.809 114.648 182.766 113.936 182.941 113.262V113.262Z" fill="black"/>
<path d="M183.903 140.264C183.44 140.046 183.045 139.708 182.757 139.285C182.469 138.862 182.3 138.369 182.268 137.859L184.288 139.783L183.903 140.264Z" fill="black"/>
<path d="M176.089 130.646L175.055 133.051L174.67 132.883L175.632 130.478L176.089 130.646Z" fill="black"/>
<path d="M174.453 141.802C174.495 141.439 174.671 141.104 174.947 140.864C175.223 140.623 175.579 140.495 175.945 140.503C175.993 141.562 175.488 141.85 174.453 141.802Z" fill="black"/>
<path d="M197.487 116.22C197.487 116.22 197.968 123.433 193.52 126.054C192.238 126.806 190.768 127.179 189.282 127.128C187.797 127.077 186.356 126.604 185.129 125.765L183.854 124.707L184.624 121.798C185.442 122.503 186.401 123.028 187.437 123.337C189.393 123.54 191.368 123.251 193.183 122.495C194.455 121.157 195.606 119.709 196.622 118.167C196.453 117.783 197.487 116.22 197.487 116.22V116.22Z" fill="black" fill-opacity="0.1"/>
<path d="M192.847 139.686C192.991 141.754 192.847 145.793 190.443 147.043C188.038 148.294 184.768 147.332 182.749 146.442C180.729 145.553 178.517 144.302 178.517 144.302L179.358 141.201L183.975 143.605L188.11 144.423C188.11 144.423 190.972 142.667 190.972 142.307C191.509 141.374 192.137 140.496 192.847 139.686V139.686Z" fill="black" fill-opacity="0.1"/>
<path d="M197.367 88.5205C198.008 91.5299 197.697 94.664 196.478 97.4889C194.434 102.033 193.111 102.033 192.005 102.298C191.32 102.477 190.599 102.477 189.914 102.298L190.971 98.4266L193.833 96.984L196.021 93.3533L197.367 88.5205Z" fill="black" fill-opacity="0.1"/>
<path d="M182.628 123.408L180.272 117.349L180.536 117.037L183.397 120.403L182.628 123.408Z" fill="black" fill-opacity="0.1"/>
<path d="M188.495 101.48L185.682 98.2578L186.283 97.4644L189.264 98.4742L188.495 101.48Z" fill="black" fill-opacity="0.1"/>
<path d="M177.267 143.461L176.353 138.652L176.618 138.339L178.036 140.479L177.267 143.461Z" fill="black" fill-opacity="0.1"/>
<path d="M198.233 65.4866L194.579 60.6778C195.73 60.9052 196.914 60.9052 198.065 60.6778C198.765 60.4354 199.393 60.0222 199.892 59.4756L198.233 65.4866Z" fill="black" fill-opacity="0.1"/>
<path d="M273.274 170.03C273.082 166.784 273.274 163.49 273.13 160.244C272.917 156.489 273.126 152.723 273.755 149.015C274.374 145.04 274.536 141.006 274.236 136.993C273.947 132.642 273.538 128.29 273.081 123.962C272.46 118.773 272.86 113.512 274.26 108.477C275.287 105.317 275.098 101.888 273.731 98.8598C271.959 94.8446 271.343 90.4147 271.951 86.0685C272.48 81.8608 273.033 77.6771 273.466 73.4454C273.554 72.2459 273.473 71.0399 273.226 69.8629C273.087 69.1418 272.746 68.4748 272.244 67.9387C271.742 67.4027 271.099 67.0195 270.389 66.8333C269.114 66.4291 267.76 66.3465 266.445 66.5929C264.154 67.0868 262.057 68.2398 260.412 69.9102C258.767 71.5805 257.647 73.6952 257.188 75.9941C257.188 76.2105 257.309 76.4749 257.453 76.9318C257.886 76.2826 258.174 75.8017 258.511 75.393C259.522 73.6744 260.842 72.158 262.406 70.9208C264.915 69.6936 267.695 69.1228 270.485 69.2618C270.894 69.2618 271.35 69.6946 272 70.0552C271.548 70.3284 271.083 70.5772 270.605 70.8006C269.723 71.1347 268.958 71.7208 268.407 72.4861C267.855 73.2514 267.541 74.1619 267.503 75.1044C267.143 77.557 267.095 80.0452 267.359 82.51C267.456 84.4515 268.062 86.3335 269.114 87.9679C269.144 87.6159 269.144 87.262 269.114 86.91C268.312 84.1137 267.947 81.2101 268.032 78.3023C268.065 76.8457 268.242 75.3959 268.561 73.9744C268.922 72.147 270.389 71.57 272.288 70.8246C272.12 72.9886 272 74.7919 271.807 76.5711C271.067 80.3113 270.648 84.1081 270.557 87.9198C270.557 87.9198 270.557 88.2324 270.557 88.2805C269.547 89.0499 270.292 89.8674 270.437 90.6849C270.647 91.4756 270.807 92.2786 270.918 93.0893C271.074 95.6943 271.693 98.2508 272.745 100.639C273.29 101.997 273.424 103.485 273.13 104.919C272.937 105.929 272.649 106.939 272.432 107.924C271.457 112 271.076 116.195 271.302 120.379C271.759 126.823 272.24 133.291 272.697 139.759C272.862 142.179 272.659 144.611 272.096 146.972C271.361 149.731 271.029 152.581 271.11 155.435C271.254 158.585 271.422 161.735 271.519 164.884C271.663 171.112 271.711 177.339 272.264 183.542H274.308C273.899 178.926 273.514 174.478 273.274 170.03V170.03Z" fill="black"/>
<path d="M191.597 174.382C191.597 174.382 191.597 174.166 191.597 173.973L192.847 173.084C191.741 172.915 190.755 173.084 190.226 172.122C188.784 169.213 187.245 166.303 185.754 163.418C185.297 162.504 184.84 161.567 184.311 160.725C182.773 158.321 181.162 155.916 179.503 153.392C179.249 152.868 179.047 152.32 178.901 151.757L180.128 151.54C179.671 151.035 179.31 150.675 178.974 150.266C177.699 148.823 176.569 147.333 175.175 145.89C173.16 143.787 171.532 141.346 170.366 138.677C169.638 137.332 169.344 135.795 169.524 134.277C169.999 131.825 171.157 129.558 172.866 127.737C173.392 127.106 174.069 126.621 174.835 126.326C175.601 126.031 176.43 125.938 177.242 126.054C179.886 126.428 182.422 127.347 184.691 128.755C186.959 130.162 188.91 132.026 190.419 134.229C191.114 135.196 191.546 136.327 191.672 137.512C191.798 138.696 191.615 139.893 191.14 140.985C190.954 141.834 190.448 142.578 189.726 143.062C189.005 143.546 188.124 143.732 187.269 143.582C183.877 143.201 180.686 141.782 178.132 139.518C177.619 139.054 177.072 138.628 176.497 138.244L176.257 138.653C179.177 142.183 183.327 144.477 187.87 145.073C188.408 145.202 188.971 145.193 189.505 145.046C190.039 144.899 190.527 144.619 190.923 144.231C191.683 143.534 192.288 142.687 192.702 141.743C193.116 140.799 193.329 139.78 193.328 138.749C193.17 136.595 192.328 134.548 190.923 132.906C189.417 131.256 187.811 129.698 186.115 128.242C184.409 126.875 182.925 125.253 181.715 123.433C181.089 122.327 180.2 121.389 179.527 120.307C177.424 117.415 175.642 114.304 174.213 111.026C173.551 109.727 173.251 108.274 173.344 106.818C173.437 105.363 173.92 103.96 174.742 102.755C177.94 98.4755 184.768 96.8405 188.808 102.347C191.212 105.617 193.208 109.151 195.516 112.469C196.167 113.426 196.515 114.557 196.515 115.715C196.515 116.873 196.167 118.004 195.516 118.961C194.608 120.558 193.124 121.748 191.368 122.289C189.612 122.83 187.716 122.68 186.067 121.87C184.361 120.736 182.81 119.387 181.45 117.855C181.114 117.518 180.753 117.23 180.416 116.917L180.128 117.23C181.57 118.841 182.965 120.5 184.504 122.039C185.158 122.718 185.948 123.254 186.821 123.61C187.695 123.966 188.634 124.135 189.577 124.106C191.089 124.079 192.563 123.633 193.836 122.818C195.11 122.003 196.132 120.851 196.79 119.49C197.535 118.238 197.866 116.784 197.736 115.334C197.607 113.883 197.023 112.511 196.069 111.411C194.93 109.991 193.885 108.497 192.943 106.939C191.343 103.808 189.193 100.99 186.596 98.6198C186.596 98.6198 186.596 98.4274 186.596 98.1389L188.423 98.9564C189.11 99.2833 189.862 99.453 190.623 99.453C191.384 99.453 192.136 99.2833 192.823 98.9564C194.582 97.9833 195.991 96.4835 196.854 94.6679C197.717 92.8523 197.988 90.8121 197.632 88.8339C196.994 85.9907 195.915 83.2648 194.434 80.7551C194.145 80.2502 193.833 79.601 192.823 79.7213L193.664 81.236C195.126 83.3234 196.118 85.702 196.574 88.2087C196.875 89.6399 196.748 91.1278 196.209 92.4874C195.67 93.8469 194.744 95.018 193.544 95.8547C192.475 96.7817 191.098 97.2759 189.684 97.2403C188.269 97.2047 186.919 96.6419 185.898 95.6624C183.192 93.3061 181.013 90.4059 179.503 87.1508C179.123 86.4441 178.927 85.6537 178.931 84.8516C178.935 84.0495 179.14 83.2612 179.527 82.5584C180.33 80.8796 181.619 79.4804 183.227 78.5417C184.834 77.6031 186.686 77.168 188.543 77.2928C190.171 77.4948 191.78 77.8326 193.352 78.3027C193.767 78.4006 194.176 78.521 194.578 78.6633L194.891 77.4852C193.019 76.8897 191.107 76.4317 189.168 76.1147C187.113 75.8242 185.018 76.1459 183.145 77.0397C181.272 77.9335 179.704 79.3597 178.637 81.1398C178.121 81.8465 177.798 82.6751 177.699 83.5442C177.543 85.4979 177.988 87.4525 178.974 89.1465C180.383 91.6824 182.175 93.9856 184.287 95.9749C184.72 96.3596 185.153 96.7203 184.768 97.3695C184.768 97.3695 184.552 97.3695 184.432 97.3695H183.542C182.138 97.1405 180.701 97.2151 179.328 97.5884C177.955 97.9617 176.678 98.625 175.583 99.5334C174.102 100.736 173.011 102.352 172.45 104.175C171.889 105.999 171.883 107.949 172.434 109.776C173.536 113.075 175.16 116.175 177.242 118.961C178.469 120.524 179.647 122.231 180.633 123.77C180.823 124.118 180.969 124.49 181.065 124.876C179.983 124.635 179.19 124.443 178.373 124.299C176.868 123.891 175.269 124.001 173.834 124.612C172.399 125.222 171.212 126.298 170.462 127.665C170.222 128.025 169.981 128.362 169.765 128.723C168.595 130.692 168.038 132.965 168.167 135.253C168.295 137.54 169.103 139.736 170.486 141.562C172.506 143.967 174.742 146.371 176.858 148.775C177.199 149.153 177.446 149.606 177.579 150.098C178.263 153.056 179.459 155.871 181.114 158.417C182.463 160.358 183.66 162.399 184.696 164.524C187.609 171.074 191.194 177.302 195.396 183.11H197.968C195.61 180.379 193.479 177.46 191.597 174.382V174.382Z" fill="black"/>
<path d="M130.79 136.537V136.2H78.8549C77.2584 136.2 75.727 135.568 74.5959 134.441C73.4648 133.314 72.8262 131.785 72.8198 130.189V118.937C72.8262 117.34 73.4648 115.811 74.5959 114.685C75.727 113.558 77.2584 112.926 78.8549 112.926H130.79C132.386 112.926 133.918 113.558 135.049 114.685C136.18 115.811 136.818 117.34 136.825 118.937V130.189C136.818 131.785 136.18 133.314 135.049 134.441C133.918 135.568 132.386 136.2 130.79 136.2V136.849C132.556 136.849 134.25 136.148 135.499 134.899C136.748 133.649 137.45 131.955 137.45 130.189V118.937C137.45 117.17 136.748 115.476 135.499 114.227C134.25 112.978 132.556 112.276 130.79 112.276H78.8549C77.0863 112.276 75.3897 112.977 74.1369 114.226C72.884 115.474 72.177 117.168 72.1707 118.937V130.189C72.177 131.958 72.884 133.652 74.1369 134.9C75.3897 136.148 77.0863 136.849 78.8549 136.849H130.79V136.537Z" fill="#1E1E1C"/>
<path d="M130.79 101.601V101.288H78.8549C77.2543 101.288 75.7192 100.652 74.5875 99.5203C73.4557 98.3885 72.8198 96.8535 72.8198 95.2529V84.0244C72.8176 83.2322 72.9738 82.4476 73.2794 81.7167C73.585 80.9859 74.0337 80.3235 74.5991 79.7686C75.1583 79.2108 75.8221 78.7687 76.5523 78.4675C77.2825 78.1663 78.065 78.012 78.8549 78.0134H130.79C131.58 78.012 132.362 78.1663 133.092 78.4675C133.823 78.7687 134.486 79.2108 135.045 79.7686C135.611 80.3235 136.06 80.9859 136.365 81.7167C136.671 82.4476 136.827 83.2322 136.825 84.0244V95.2529C136.825 96.8535 136.189 98.3885 135.057 99.5203C133.925 100.652 132.39 101.288 130.79 101.288V101.937C131.666 101.937 132.534 101.764 133.344 101.428C134.154 101.092 134.889 100.599 135.508 99.9779C136.126 99.3569 136.617 98.6199 136.95 97.809C137.283 96.9982 137.453 96.1296 137.45 95.2529V84.0244C137.45 82.258 136.748 80.564 135.499 79.315C134.25 78.0659 132.556 77.3643 130.79 77.3643H78.8549C77.0863 77.3642 75.3897 78.0652 74.1369 79.3135C72.884 80.5618 72.177 82.2558 72.1707 84.0244V95.2529C72.1707 96.1307 72.3435 96.9999 72.6795 97.8109C73.0154 98.6218 73.5077 99.3587 74.1284 99.9794C74.7491 100.6 75.486 101.092 76.2969 101.428C77.1079 101.764 77.9771 101.937 78.8549 101.937H130.79V101.601Z" fill="#1E1E1C"/>
<path d="M110.328 130.165C110.117 130.426 109.823 130.607 109.495 130.677C109.167 130.747 108.824 130.702 108.525 130.55C108.216 130.412 107.955 130.185 107.775 129.898C107.595 129.611 107.505 129.278 107.515 128.939C107.477 128.414 107.612 127.89 107.9 127.448C108.03 127.258 108.201 127.098 108.4 126.981C108.599 126.864 108.821 126.793 109.051 126.772C109.281 126.752 109.513 126.782 109.729 126.862C109.946 126.941 110.142 127.068 110.304 127.232C110.326 127.148 110.365 127.069 110.419 127C110.473 126.932 110.54 126.876 110.617 126.835C110.694 126.794 110.779 126.77 110.866 126.764C110.953 126.758 111.04 126.77 111.122 126.799L111.242 126.992V130.718C111.242 130.718 110.449 132.401 109.246 132.426C108.87 132.422 108.496 132.357 108.14 132.233C107.9 132.233 107.828 132.065 107.9 131.776C107.972 131.488 108.116 131.319 108.453 131.488C108.651 131.572 108.863 131.621 109.078 131.632C109.896 131.632 110.304 131.223 110.304 130.165" fill="#030304"/>
<path d="M97.705 129.131C97.681 129.427 97.681 129.724 97.705 130.02C97.7232 130.091 97.7252 130.164 97.7109 130.235C97.6966 130.307 97.6663 130.374 97.6223 130.432C97.5783 130.489 97.5218 130.537 97.457 130.569C97.3923 130.602 97.3209 130.62 97.2482 130.621C96.5132 130.797 95.7471 130.797 95.0121 130.621C94.4609 130.509 93.9665 130.207 93.615 129.768C93.2635 129.328 93.0773 128.78 93.0886 128.217C93.0139 127.666 93.1099 127.106 93.3635 126.612C93.6172 126.117 94.0164 125.712 94.5072 125.452C95.3747 125.053 96.3579 124.985 97.2723 125.26C97.705 125.26 97.4165 125.644 97.3925 125.861C97.3684 126.077 97.2723 126.149 97.0318 126.077C96.5061 125.921 95.9466 125.921 95.4209 126.077C94.9618 126.207 94.5715 126.51 94.3334 126.924C94.0953 127.337 94.0282 127.827 94.1465 128.289C94.177 128.714 94.3677 129.112 94.6801 129.402C94.9925 129.692 95.4033 129.853 95.8296 129.852C96.7433 129.852 96.7433 129.852 96.7433 129.01V128.674C96.7433 128.457 96.7433 128.385 96.4548 128.409H96.2384C96.1514 128.423 96.0622 128.412 95.9817 128.376C95.9011 128.34 95.8325 128.282 95.7843 128.209C95.736 128.135 95.71 128.049 95.7096 127.961C95.7091 127.873 95.7341 127.786 95.7815 127.712H95.9979H97.4406C97.6329 127.712 97.705 127.712 97.705 127.977C97.705 128.241 97.705 128.746 97.705 129.131" fill="#020303"/>
<path d="M120.259 128.002C120.259 127.232 120.259 126.439 120.259 125.597C120.259 125.429 120.259 125.309 120.499 125.285C121.192 125.177 121.898 125.177 122.591 125.285C122.98 125.333 123.335 125.53 123.582 125.835C123.829 126.14 123.947 126.529 123.913 126.92C123.912 127.323 123.765 127.713 123.5 128.017C123.235 128.322 122.87 128.521 122.471 128.579C122.168 128.627 121.86 128.627 121.557 128.579C121.292 128.579 121.244 128.579 121.244 128.867C121.244 129.156 121.244 129.805 121.244 130.286C121.244 130.767 121.244 130.623 120.956 130.574C120.307 130.574 120.307 130.574 120.307 129.973V128.002H120.259Z" fill="#030404"/>
<path d="M100.423 130.814C100.157 130.825 99.8917 130.779 99.6445 130.681C99.3972 130.583 99.1734 130.433 98.9875 130.243C98.8016 130.053 98.6578 129.825 98.5654 129.576C98.473 129.326 98.4341 129.06 98.4512 128.794C98.4342 128.519 98.475 128.244 98.571 127.986C98.6671 127.727 98.8162 127.492 99.0088 127.295C99.2013 127.098 99.4331 126.943 99.6891 126.841C99.945 126.739 100.22 126.692 100.495 126.703C100.76 126.699 101.023 126.75 101.267 126.852C101.512 126.955 101.732 127.107 101.915 127.299C102.098 127.491 102.239 127.719 102.33 127.968C102.421 128.217 102.459 128.482 102.442 128.746C102.459 129.018 102.419 129.291 102.324 129.546C102.23 129.801 102.082 130.034 101.892 130.229C101.702 130.424 101.472 130.577 101.219 130.677C100.966 130.778 100.695 130.825 100.423 130.814" fill="#030304"/>
<path d="M106.962 128.746C106.979 129.018 106.939 129.291 106.844 129.546C106.749 129.801 106.602 130.034 106.412 130.229C106.221 130.424 105.992 130.577 105.739 130.677C105.486 130.778 105.215 130.825 104.943 130.814C104.675 130.826 104.409 130.78 104.161 130.68C103.913 130.58 103.689 130.428 103.505 130.234C103.321 130.041 103.18 129.81 103.092 129.557C103.004 129.305 102.971 129.037 102.995 128.77C102.978 128.499 103.018 128.226 103.113 127.971C103.208 127.715 103.355 127.483 103.546 127.288C103.736 127.093 103.965 126.94 104.218 126.839C104.471 126.739 104.743 126.692 105.015 126.703C105.28 126.699 105.543 126.75 105.787 126.852C106.032 126.955 106.252 127.107 106.435 127.299C106.618 127.491 106.759 127.719 106.85 127.968C106.941 128.217 106.979 128.482 106.962 128.746" fill="#020303"/>
<path d="M132.305 129.636C132.569 128.771 132.785 128.001 133.026 127.232C133.026 127.232 133.026 126.871 133.218 126.847H134.108C134.228 126.847 134.108 126.992 134.108 127.064C133.627 128.314 133.242 129.612 132.665 130.839C132.54 131.198 132.34 131.528 132.079 131.805C131.818 132.083 131.502 132.302 131.151 132.45C130.91 132.45 130.79 132.45 130.718 132.209C130.646 131.969 130.549 131.608 131.006 131.488C131.246 131.383 131.447 131.206 131.583 130.983C131.653 130.88 131.69 130.758 131.69 130.634C131.69 130.51 131.653 130.389 131.583 130.286C131.151 129.252 130.766 128.194 130.333 127.16C130.333 126.871 130.333 126.823 130.549 126.823C131.319 126.823 131.319 126.823 131.535 127.521C131.752 128.218 131.992 128.891 132.232 129.66" fill="#030304"/>
<path d="M128.842 130.358C128.548 130.649 128.151 130.813 127.736 130.815C127.477 130.834 127.218 130.767 127 130.623C126.782 130.48 126.619 130.268 126.534 130.021C126.448 129.767 126.446 129.492 126.528 129.237C126.61 128.981 126.773 128.759 126.991 128.603C127.428 128.34 127.924 128.192 128.434 128.17H128.794C128.802 128.082 128.785 127.993 128.747 127.913C128.709 127.832 128.651 127.764 128.578 127.713C128.441 127.655 128.294 127.625 128.145 127.625C127.996 127.625 127.849 127.655 127.712 127.713C127.576 127.702 127.44 127.702 127.304 127.713C127.159 127.713 126.967 128.026 126.871 127.713C126.775 127.401 126.871 127.256 127.111 127.136C127.632 127.003 128.178 127.003 128.698 127.136C128.957 127.178 129.196 127.301 129.382 127.486C129.568 127.672 129.69 127.911 129.732 128.17C129.78 129.091 129.78 130.014 129.732 130.935V131.079C129.558 131.137 129.37 131.132 129.199 131.066C129.028 131.001 128.885 130.878 128.794 130.719" fill="#030404"/>
<path d="M116.411 129.059H115.377C115.137 129.059 115.113 129.059 115.185 129.348C115.248 129.536 115.366 129.702 115.525 129.822C115.684 129.942 115.876 130.012 116.074 130.021C116.438 130.107 116.817 130.107 117.18 130.021C117.325 130.021 117.493 130.021 117.469 130.165C117.445 130.309 117.733 130.598 117.469 130.694C116.801 130.934 116.07 130.934 115.401 130.694C115.159 130.583 114.941 130.425 114.76 130.229C114.579 130.033 114.439 129.803 114.347 129.553C114.256 129.303 114.215 129.037 114.226 128.77C114.238 128.504 114.302 128.242 114.415 128.001C114.499 127.769 114.627 127.555 114.793 127.373C114.959 127.19 115.16 127.042 115.383 126.937C115.606 126.832 115.848 126.772 116.095 126.761C116.341 126.749 116.588 126.787 116.82 126.871C117.2 127.05 117.51 127.35 117.702 127.724C117.893 128.099 117.955 128.526 117.878 128.939C117.878 129.107 117.734 129.107 117.613 129.107H116.531" fill="#030404"/>
<path d="M113.358 127.928V130.333C113.358 130.621 113.358 130.742 112.973 130.742C112.588 130.742 112.324 130.742 112.324 130.092C112.324 128.554 112.324 127.015 112.324 125.476C112.324 125.067 112.324 124.971 112.805 125.019H113.021C113.261 125.019 113.358 125.019 113.358 125.356V127.928Z" fill="#050606"/>
<path d="M124.683 127.833V125.428C124.683 125.188 124.683 125.092 124.995 125.092C125.693 125.092 125.693 125.092 125.693 125.789V130.406C125.693 130.718 125.693 130.862 125.284 130.79H125.067C124.755 130.79 124.635 130.79 124.659 130.406C124.659 129.564 124.659 128.746 124.659 128.001" fill="#040506"/>
<path d="M110.81 123.433C110.81 123.626 110.569 123.578 110.449 123.554C110.329 123.53 110.449 123.385 110.449 123.289C110.449 122.375 110.449 121.485 110.449 120.595C110.449 120.595 110.449 120.283 110.449 120.259C110.449 120.235 110.81 120.259 110.93 120.451C111.339 121.149 111.772 121.822 112.205 122.519L112.373 122.832C112.373 122.038 112.373 121.341 112.373 120.668C112.373 120.523 112.205 120.235 112.59 120.259C112.974 120.283 112.758 120.547 112.782 120.692V123.097C112.782 123.217 112.782 123.409 112.638 123.457C112.555 123.489 112.463 123.486 112.382 123.45C112.301 123.414 112.237 123.348 112.205 123.265L110.81 121.028V123.433Z" fill="#080909"/>
<path d="M108.188 123.696C107.978 123.698 107.769 123.654 107.576 123.569C107.384 123.484 107.211 123.359 107.07 123.202C106.929 123.045 106.823 122.86 106.759 122.66C106.695 122.459 106.674 122.247 106.698 122.037C106.674 121.819 106.697 121.599 106.763 121.39C106.829 121.181 106.938 120.987 107.082 120.823C107.227 120.658 107.404 120.524 107.603 120.431C107.802 120.338 108.017 120.288 108.237 120.282C108.64 120.35 109.007 120.559 109.271 120.872C109.535 121.184 109.68 121.58 109.68 121.989C109.68 122.399 109.535 122.795 109.271 123.107C109.007 123.42 108.64 123.628 108.237 123.696" fill="#050607"/>
<path d="M95.6859 122.736C95.6859 123.602 95.6859 123.674 94.7241 123.674C94.4963 123.707 94.264 123.688 94.0444 123.62C93.8247 123.551 93.6232 123.434 93.4548 123.277C93.2864 123.12 93.1553 122.927 93.0712 122.713C92.9871 122.499 92.9522 122.268 92.9689 122.039C92.9587 121.812 92.9958 121.585 93.078 121.374C93.1601 121.162 93.2855 120.97 93.4461 120.809C93.6067 120.648 93.7991 120.523 94.0108 120.441C94.2226 120.359 94.4491 120.321 94.676 120.332H95.3012C95.4454 120.332 95.5897 120.332 95.5176 120.596C95.4454 120.861 95.3252 120.596 95.2291 120.596C95.0466 120.559 94.8585 120.559 94.676 120.596C94.5013 120.588 94.3268 120.618 94.1648 120.684C94.0028 120.75 93.8572 120.851 93.7381 120.979C93.6191 121.107 93.5294 121.26 93.4755 121.426C93.4215 121.593 93.4046 121.769 93.4258 121.943C93.418 122.122 93.4488 122.3 93.5159 122.466C93.5831 122.632 93.6851 122.781 93.815 122.904C93.9449 123.027 94.0998 123.121 94.2691 123.179C94.4383 123.237 94.6181 123.258 94.7963 123.241C95.1088 123.241 95.3012 123.241 95.2771 122.76C95.2531 122.279 95.2771 122.039 94.7722 122.159C94.7722 122.159 94.5799 122.159 94.5799 121.991C94.5799 121.822 94.5799 121.798 94.7482 121.798C95.6138 121.798 95.6138 121.798 95.6138 122.64" fill="#070808"/>
<path d="M96.3828 121.99C96.3828 121.557 96.3828 121.101 96.3828 120.668C96.3828 120.235 96.3828 120.331 96.7436 120.331H97.898C97.898 120.331 98.1866 120.331 98.2107 120.499C98.2347 120.668 97.9942 120.668 97.874 120.692H97.3449C96.7436 120.692 96.7676 120.692 96.7436 121.293C96.7195 121.894 96.7436 121.774 97.1524 121.726C97.3848 121.713 97.6176 121.713 97.8499 121.726C97.9942 121.726 98.0183 121.726 98.0183 121.966C98.0183 122.207 98.0183 122.111 97.8259 122.111H97.0562C96.7917 122.111 96.7436 122.111 96.7436 122.447C96.7436 123.265 96.7436 123.265 97.5132 123.265H98.0423L98.1866 123.409C98.1866 123.409 98.1866 123.626 98.0423 123.626H96.3828V123.433V121.99Z" fill="#0E0E0F"/>
<path d="M99.4126 122.158C99.4126 121.797 99.4126 121.437 99.4126 121.076C99.4126 120.715 99.4126 120.667 99.0279 120.715H98.5951C98.4748 120.715 98.4268 120.715 98.4268 120.547C98.4268 120.379 98.4268 120.331 98.571 120.331H100.735V120.499C100.735 120.499 100.735 120.715 100.591 120.715C99.8213 120.715 99.8213 120.715 99.8213 121.557V123.432C99.8213 123.576 99.8213 123.745 99.6049 123.745C99.3885 123.745 99.3645 123.576 99.3645 123.432V122.23" fill="#161818"/>
<path d="M104.053 122.182C104.053 121.822 104.053 121.461 104.053 121.076C104.053 120.691 104.053 120.667 103.669 120.715H103.236C103.115 120.715 103.067 120.715 103.067 120.547C103.067 120.379 103.067 120.331 103.236 120.331H105.304C105.448 120.331 105.497 120.331 105.497 120.523C105.497 120.715 105.497 120.691 105.28 120.715C105.064 120.739 104.679 120.571 104.534 120.715C104.485 120.97 104.485 121.231 104.534 121.485V123.193C104.534 123.361 104.535 123.577 104.294 123.577C104.053 123.577 104.078 123.361 104.078 123.217V122.086" fill="#161718"/>
<path d="M102.274 122.014C102.274 121.533 102.274 121.076 102.274 120.595C102.274 120.114 102.274 120.331 102.514 120.331C102.755 120.331 102.731 120.331 102.731 120.595V123.432C102.731 123.601 102.731 123.649 102.49 123.673C102.25 123.697 102.298 123.553 102.298 123.408C102.298 123.264 102.274 122.471 102.274 122.014V122.014Z" fill="#171818"/>
<path d="M78.783 84.9626C79.6622 84.5766 80.6483 84.5086 81.5721 84.7702C82.2899 85.0051 83.032 85.1584 83.7841 85.2271C83.9331 85.2718 84.092 85.2718 84.241 85.2271H84.0967L86.0923 84.626C86.8462 84.4569 87.6326 84.5049 88.3603 84.7645C89.088 85.0241 89.7272 85.4846 90.2039 86.0926C90.3481 86.285 90.2039 86.3571 90.2039 86.4533C89.7079 86.8621 89.2921 87.3594 88.9776 87.92C88.5011 88.8322 88.3978 89.8939 88.6894 90.8808C88.981 91.8678 89.6447 92.7028 90.5405 93.2096C90.853 93.3539 90.9011 93.5222 90.7569 93.8348C90.3046 94.9585 89.68 96.005 88.9055 96.9364C88.5601 97.4347 88.0513 97.7964 87.4673 97.9589C86.8832 98.1214 86.2607 98.0744 85.7076 97.8261C84.8792 97.4222 83.9381 97.312 83.0388 97.5135C82.687 97.6121 82.3417 97.7326 82.0049 97.8741C81.5557 98.0712 81.0569 98.1262 80.5755 98.0316C80.0942 97.9371 79.6533 97.6975 79.312 97.3452C78.5764 96.654 77.9662 95.8405 77.5087 94.9408C77.5087 94.8206 77.5087 94.7484 77.5087 94.7004C76.8329 93.5633 76.4331 92.2838 76.3412 90.9643C76.2494 89.6448 76.468 88.3222 76.9797 87.1025C77.3103 86.2762 77.9239 85.5945 78.7109 85.179C78.7109 85.179 78.9273 85.179 78.9513 85.179" fill="#5F5F5F"/>
<path d="M99.3886 95.2526V96.9357C99.3886 96.9357 99.3886 97.2242 99.0761 97.2242C98.3788 97.2242 98.3788 97.2242 98.3788 96.551C98.3788 95.0843 98.3788 93.6176 98.3788 92.1269C98.3788 91.9826 98.2345 91.67 98.6192 91.7181C99.0039 91.7662 99.2925 91.5017 99.2684 92.0788V92.2711C99.4135 92.0882 99.5956 91.938 99.8028 91.8302C100.01 91.7225 100.238 91.6597 100.471 91.646C101.384 91.646 102.058 92.2231 102.226 93.305C102.286 93.5608 102.296 93.8261 102.254 94.0855C102.212 94.345 102.119 94.5936 101.98 94.817C101.842 95.0404 101.66 95.2343 101.447 95.3874C101.233 95.5406 100.991 95.65 100.735 95.7094C100.487 95.758 100.23 95.7415 99.9897 95.6614C99.7495 95.5814 99.5342 95.4405 99.3646 95.2526" fill="#030304"/>
<path d="M104.077 95.3015V96.9846C104.077 97.249 104.077 97.3933 103.741 97.3452H103.404C103.115 97.3452 103.067 97.3452 103.067 97.0086V92.1758C103.067 92.0075 103.067 91.719 103.332 91.7911C103.596 91.8632 103.981 91.5747 103.933 92.1277V92.1758C104.183 91.9196 104.487 91.7225 104.823 91.5987C105.187 91.4902 105.578 91.5182 105.924 91.6775C106.269 91.8369 106.544 92.1166 106.698 92.4643C106.852 92.7873 106.932 93.1405 106.932 93.4982C106.932 93.8559 106.852 94.2091 106.698 94.5321C106.599 94.7886 106.44 95.0175 106.235 95.1994C106.029 95.3813 105.782 95.5108 105.515 95.5769C105.248 95.643 104.97 95.6437 104.703 95.579C104.435 95.5144 104.188 95.3861 103.981 95.2053" fill="#020303"/>
<path d="M92.9448 95.6375C93.5219 93.8823 94.0749 92.1512 94.6279 90.4441C94.6306 90.4101 94.6405 90.377 94.657 90.3471C94.6734 90.3172 94.696 90.2912 94.7233 90.2707C94.7506 90.2503 94.7819 90.2359 94.8152 90.2284C94.8485 90.221 94.883 90.2207 94.9164 90.2277C95.9503 90.2277 95.9503 90.2277 96.2629 91.1413C96.7197 92.5359 97.1525 93.9304 97.6093 95.325C97.6093 95.6135 97.6093 95.6616 97.3689 95.6616C96.6716 95.6616 96.6716 95.6616 96.4312 94.9643C96.1908 94.267 96.1667 94.1228 95.2049 94.1228C94.2432 94.1228 94.4596 94.1228 94.2432 94.796C94.0268 95.4692 93.9547 95.6856 92.9448 95.6375" fill="#030304"/>
<path d="M109.463 94.5807C109.907 94.8137 110.406 94.9217 110.906 94.8933C111.088 94.9056 111.268 94.8549 111.417 94.7498C111.566 94.6448 111.674 94.4916 111.723 94.3162C111.762 94.1413 111.734 93.9582 111.645 93.8026C111.556 93.6471 111.413 93.5302 111.243 93.4747L110.305 93.0659C109.977 92.9514 109.7 92.7242 109.524 92.4248C109.348 92.1254 109.284 91.7732 109.343 91.4309C109.425 91.0903 109.614 90.785 109.882 90.5599C110.151 90.3348 110.484 90.2019 110.834 90.1806C111.309 90.0732 111.802 90.0732 112.276 90.1806C112.733 90.3249 112.276 90.5894 112.276 90.8298C112.276 91.0703 112.108 91.0462 111.916 90.9741C111.555 90.8672 111.171 90.8672 110.81 90.9741C110.675 90.9957 110.55 91.0579 110.451 91.1524C110.352 91.2469 110.284 91.3692 110.257 91.5031C110.243 91.6652 110.293 91.8262 110.397 91.9519C110.5 92.0776 110.648 92.1581 110.81 92.1763C111.243 92.4167 111.747 92.5369 112.156 92.8014C112.38 92.9448 112.562 93.1446 112.685 93.3807C112.807 93.6168 112.865 93.8809 112.853 94.1465C112.84 94.4121 112.759 94.6698 112.615 94.8938C112.472 95.1177 112.272 95.3 112.036 95.4222C111.583 95.6518 111.074 95.7437 110.569 95.6867H110.233C109.127 95.4222 109.271 95.5424 109.559 94.6047" fill="#030304"/>
<path d="M116.099 93.7144C116.075 93.445 116.108 93.1735 116.198 92.9181C116.287 92.6628 116.429 92.4294 116.616 92.2336C116.803 92.0379 117.029 91.8842 117.28 91.783C117.531 91.6818 117.8 91.6353 118.071 91.6466C118.335 91.6292 118.6 91.6681 118.849 91.7607C119.097 91.8534 119.323 91.9976 119.511 92.1839C119.7 92.3702 119.847 92.5943 119.943 92.8416C120.038 93.0888 120.08 93.3535 120.066 93.6182C120.086 93.8931 120.049 94.1692 119.956 94.4286C119.863 94.6881 119.716 94.9252 119.526 95.1245C119.336 95.3239 119.106 95.4812 118.851 95.5862C118.596 95.6912 118.322 95.7415 118.046 95.7341C117.782 95.7451 117.517 95.6998 117.271 95.6012C117.025 95.5026 116.803 95.3529 116.619 95.1621C116.435 94.9712 116.293 94.7435 116.204 94.494C116.114 94.2444 116.078 93.9787 116.099 93.7144" fill="#020303"/>
<path d="M125.644 93.9541H124.611C124.346 93.9541 124.322 93.9541 124.394 94.2426C124.467 94.4482 124.6 94.627 124.776 94.7557C124.951 94.8844 125.162 94.957 125.38 94.964C125.69 95.0255 126.008 95.0255 126.318 94.964C126.534 94.964 126.678 94.8437 126.702 95.1563C126.726 95.4689 126.702 95.5891 126.462 95.6612C125.962 95.7573 125.448 95.7573 124.947 95.6612C124.684 95.614 124.434 95.5124 124.212 95.363C123.99 95.2135 123.802 95.0195 123.659 94.7932C123.517 94.567 123.423 94.3135 123.384 94.049C123.345 93.7844 123.361 93.5146 123.432 93.2568C123.457 93.013 123.531 92.7766 123.649 92.5622C123.768 92.3478 123.929 92.1599 124.123 92.0099C124.317 91.8599 124.539 91.751 124.777 91.6898C125.014 91.6287 125.262 91.6166 125.504 91.6542C125.746 91.6918 125.978 91.7785 126.185 91.9088C126.393 92.0391 126.572 92.2103 126.711 92.4121C126.85 92.6138 126.947 92.8418 126.995 93.0821C127.043 93.3225 127.042 93.5701 126.991 93.8098C126.991 93.9782 126.991 93.9541 126.75 93.9541H125.644Z" fill="#030304"/>
<path d="M86.8858 81.0912C86.8105 81.9422 86.4675 82.7473 85.9058 83.3911C85.3442 84.0348 84.593 84.4838 83.7601 84.6738C83.4715 84.6738 83.3994 84.6738 83.3994 84.3371C83.4029 83.4381 83.7153 82.5675 84.2844 81.8714C84.8535 81.1754 85.6447 80.6962 86.5251 80.5142C86.7656 80.5142 86.8617 80.5142 86.8617 80.7306C86.8617 80.947 86.8617 81.0191 86.8617 81.0912" fill="#5F5F5F"/>
<path d="M113.719 93.5941V92.993C113.719 92.7285 113.719 92.44 113.334 92.4641C112.949 92.4881 113.214 92.1755 113.214 91.9351C113.214 91.6947 113.214 91.6947 113.406 91.7187C113.599 91.7427 113.767 91.5744 113.743 91.334C113.719 91.0936 113.743 90.9252 113.743 90.8531C114.003 90.7416 114.279 90.6687 114.56 90.6367V90.8531C114.56 91.5504 114.56 91.5744 115.282 91.5985C115.57 91.5985 115.522 91.7668 115.498 91.9351C115.474 92.1034 115.642 92.3679 115.282 92.3679C114.921 92.3679 114.729 92.2477 114.608 92.3679C114.488 92.4881 114.608 92.8247 114.608 93.0892C114.608 93.3537 114.608 93.7624 114.608 94.099C114.608 94.4357 114.753 94.7001 115.21 94.7001C115.666 94.7001 115.522 94.7001 115.474 94.8925C115.426 95.0848 115.666 95.3974 115.282 95.4936C115.086 95.573 114.874 95.6008 114.665 95.5743C114.456 95.5477 114.257 95.4678 114.088 95.3421C113.919 95.2165 113.785 95.0494 113.699 94.8569C113.614 94.6644 113.579 94.4531 113.599 94.2433L113.719 93.5941Z" fill="#040505"/>
<path d="M121.749 92.4154C121.829 92.2105 121.963 92.031 122.136 91.8956C122.31 91.7602 122.517 91.674 122.735 91.646C122.951 91.646 123.095 91.646 123.071 91.9345C123.059 92.0705 123.059 92.2073 123.071 92.3433C123.071 92.5356 123.071 92.5837 122.855 92.5837C122.721 92.5715 122.587 92.5897 122.461 92.6369C122.336 92.6841 122.222 92.759 122.13 92.8561C122.038 92.9532 121.968 93.07 121.927 93.1977C121.886 93.3254 121.875 93.4607 121.893 93.5936V95.3007C121.893 95.3007 121.893 95.7094 121.533 95.6613H121.196C120.956 95.6613 120.859 95.6613 120.859 95.3488C120.859 94.2187 120.859 93.0886 120.859 91.9586C120.859 91.7903 120.859 91.7181 121.1 91.7181C121.677 91.7181 121.677 91.7181 121.773 92.4154" fill="#050606"/>
<path d="M112.348 87.3667V85.347C112.348 85.2027 112.348 85.0344 112.565 85.0585C112.781 85.0825 112.757 85.2508 112.757 85.371V87.9918C112.757 87.9918 112.757 88.3044 112.637 88.3525C112.55 88.3794 112.457 88.3749 112.373 88.3397C112.29 88.3045 112.221 88.2409 112.18 88.1601L110.689 85.7557V88.1601C110.689 88.3044 110.689 88.4727 110.473 88.4967C110.256 88.5208 110.28 88.3044 110.28 88.1601C110.28 87.2945 110.28 86.429 110.28 85.5634C110.28 85.4191 110.16 85.2268 110.28 85.1787C110.401 85.1306 110.665 85.1787 110.761 85.3951L110.93 85.6115C111.122 85.6115 111.146 85.8759 111.194 86.0202L112.132 87.6552C112.348 87.6552 112.132 87.6552 112.132 87.4869" fill="#070808"/>
<path d="M108.188 88.3771C107.978 88.3785 107.769 88.3351 107.576 88.2499C107.384 88.1647 107.211 88.0396 107.07 87.8828C106.929 87.726 106.823 87.5411 106.759 87.3404C106.695 87.1396 106.674 86.9275 106.698 86.7181C106.678 86.5007 106.703 86.2815 106.77 86.0739C106.838 85.8664 106.947 85.6747 107.091 85.5105C107.235 85.3464 107.41 85.2132 107.607 85.119C107.804 85.0249 108.018 84.9718 108.237 84.9629C108.64 85.0309 109.007 85.2396 109.271 85.5522C109.535 85.8647 109.68 86.2607 109.68 86.67C109.68 87.0793 109.535 87.4753 109.271 87.7879C109.007 88.1004 108.64 88.3091 108.237 88.3771" fill="#070808"/>
<path d="M95.6859 87.3678C95.6859 88.2334 95.6859 88.3055 94.7242 88.3296C94.4993 88.3576 94.2709 88.3364 94.0551 88.2675C93.8392 88.1985 93.6409 88.0834 93.4739 87.9301C93.3069 87.7769 93.1753 87.5892 93.0881 87.38C93.0009 87.1708 92.9602 86.9451 92.969 86.7186C92.9484 86.4912 92.9764 86.2619 93.0512 86.0461C93.1259 85.8303 93.2457 85.6328 93.4026 85.4668C93.5595 85.3009 93.7499 85.1701 93.9612 85.0833C94.1724 84.9965 94.3997 84.9557 94.628 84.9634C94.8822 84.9158 95.1431 84.9158 95.3974 84.9634C95.5417 84.9634 95.5657 85.0836 95.3974 85.2038C95.2291 85.3241 95.3974 85.3722 95.181 85.3241H94.8203C94.6179 85.284 94.409 85.2909 94.2097 85.3444C94.0104 85.3979 93.826 85.4965 93.6709 85.6325C93.5157 85.7686 93.3939 85.9385 93.3149 86.1292C93.2358 86.3198 93.2017 86.526 93.215 86.7319C93.2284 86.9379 93.2889 87.138 93.3919 87.3168C93.4948 87.4956 93.6375 87.6484 93.809 87.7633C93.9804 87.8782 94.1759 87.9522 94.3805 87.9795C94.585 88.0068 94.7931 87.9867 94.9886 87.9208C95.2291 87.9208 95.1089 87.6323 95.1329 87.488C95.1569 87.3438 95.1329 86.7667 94.652 86.8869C94.652 86.8869 94.4597 86.8869 94.4597 86.7186C94.4597 86.5503 94.4597 86.5263 94.628 86.5263C95.4936 86.5263 95.4936 86.5263 95.4936 87.3678" fill="#090A0B"/>
<path d="M96.3828 86.6702V85.2993C96.3828 85.0828 96.3828 85.0106 96.6474 85.0347H97.9221C98.0664 85.0347 98.1866 85.0347 98.1866 85.203C98.1866 85.3714 98.0423 85.3955 97.9221 85.3955H97.1043C96.8638 85.3955 96.8157 85.3955 96.8157 85.6841C96.8157 86.4056 96.8157 86.4056 97.5373 86.4297C97.7297 86.4297 98.0664 86.2373 98.0664 86.598C98.0664 86.9588 97.7297 86.7664 97.5373 86.7904C96.8157 86.7904 96.8398 86.7904 96.8157 87.536C96.8157 87.8727 96.8157 88.017 97.2246 87.9689H97.9942C97.9942 87.9689 98.2588 87.9689 98.2588 88.1373C98.2588 88.3056 98.2588 88.3297 98.0183 88.3297H96.5993C96.3828 88.3297 96.3828 88.3297 96.3828 88.0892V86.6702Z" fill="#0C0E0E"/>
<path d="M104.053 86.8625C104.053 86.4777 104.053 86.0929 104.053 85.7081C104.053 85.3233 104.053 85.3714 103.741 85.3954H103.236C103.091 85.3954 103.067 85.3954 103.067 85.203C103.067 85.0106 103.067 85.0347 103.236 85.0347H105.328C105.328 85.0347 105.497 85.0347 105.497 85.179C105.497 85.3233 105.497 85.4195 105.304 85.3954C104.583 85.3954 104.583 85.3954 104.583 86.141V88.017C104.583 88.1853 104.583 88.3297 104.366 88.3537C104.15 88.3778 104.126 88.1853 104.126 88.017L104.053 86.8625Z" fill="#151717"/>
<path d="M99.4129 86.8616V85.7071C99.4129 85.4666 99.4129 85.3704 99.1002 85.3945H98.5951C98.4749 85.3945 98.4268 85.3945 98.4268 85.2261C98.4268 85.0577 98.4268 85.0337 98.5951 85.0337H100.688C100.808 85.0337 100.856 85.0337 100.856 85.202C100.856 85.3704 100.856 85.3945 100.712 85.3945C99.966 85.3945 99.966 85.3945 99.966 86.2122V87.992C99.966 88.1603 99.966 88.3527 99.7255 88.3527C99.485 88.3527 99.5091 88.1603 99.5091 88.016L99.4129 86.8616Z" fill="#151517"/>
<path d="M102.707 86.6939V88.0408C102.707 88.2572 102.707 88.3534 102.466 88.3534C102.226 88.3534 102.274 88.1851 102.274 88.0408V85.2989C102.274 85.1546 102.274 85.0344 102.466 85.0103C102.659 84.9863 102.707 85.0103 102.707 85.323V86.6939Z" fill="#161818"/>
<path d="M120.667 94.8448V92.6802H120.716V94.8929L120.667 94.8448Z" fill="#F9F8F7"/>
<path d="M111.315 85.8766C111.179 85.7728 111.079 85.6302 111.026 85.4678H111.411C111.411 85.4678 111.411 85.7083 111.411 85.8045" fill="#F2F2F2"/>
<path d="M78.783 84.9629C78.7627 84.988 78.7371 85.0082 78.7079 85.0222C78.6788 85.0361 78.6469 85.0433 78.6146 85.0433C78.5824 85.0433 78.5505 85.0361 78.5214 85.0222C78.4922 85.0082 78.4666 84.988 78.4463 84.9629H78.783Z" fill="#5C5A5A"/>
<path d="M77.3403 94.4845L77.4606 94.4604L77.4365 94.725L77.3403 94.4845Z" fill="#5C5B5B"/>
<path d="M110.305 128.746V129.011C110.305 129.54 110.04 129.901 109.583 129.949C109.362 129.972 109.14 129.915 108.958 129.786C108.777 129.658 108.648 129.468 108.597 129.251C108.453 128.863 108.453 128.437 108.597 128.049C108.671 127.861 108.806 127.704 108.981 127.604C109.156 127.503 109.36 127.465 109.559 127.496C109.754 127.54 109.928 127.65 110.05 127.808C110.173 127.966 110.237 128.161 110.232 128.361V128.746H110.305Z" fill="white"/>
<path d="M121.821 126.029C122.663 126.029 123.12 126.63 122.856 127.352C122.698 127.591 122.468 127.773 122.2 127.872C121.932 127.972 121.64 127.983 121.364 127.905C121.22 127.905 121.364 127.737 121.364 127.641C121.364 127.544 121.364 126.943 121.364 126.582C121.364 126.222 121.364 126.005 121.942 126.029" fill="white"/>
<path d="M99.4846 128.867C99.4846 128.001 99.8694 127.448 100.447 127.448C101.024 127.448 101.409 127.953 101.409 128.747C101.432 128.922 101.432 129.1 101.409 129.276C101.373 129.488 101.269 129.682 101.113 129.83C100.957 129.978 100.757 130.07 100.543 130.093C100.319 130.085 100.106 129.998 99.9387 129.849C99.7719 129.7 99.6623 129.497 99.6289 129.276C99.6289 129.107 99.6289 128.939 99.6289 128.867" fill="white"/>
<path d="M106.001 128.77C106.001 129.54 105.592 130.093 105.063 130.093C104.534 130.093 104.077 129.54 104.101 128.77V128.434C104.101 127.784 104.606 127.423 105.111 127.447C105.364 127.489 105.593 127.622 105.752 127.822C105.912 128.022 105.992 128.274 105.977 128.53L106.001 128.77Z" fill="white"/>
<path d="M128.818 129.204C128.818 129.709 128.602 130.021 128.193 130.093C127.784 130.166 127.664 130.093 127.544 129.829C127.469 129.703 127.445 129.554 127.476 129.411C127.507 129.268 127.592 129.142 127.712 129.059C127.993 128.885 128.32 128.801 128.65 128.819C128.963 128.819 128.65 129.083 128.818 129.204" fill="#FEFEFE"/>
<path d="M116.003 128.242H115.618C115.474 128.242 115.257 128.242 115.185 128.242C115.113 128.242 115.185 127.882 115.353 127.737C115.434 127.604 115.553 127.498 115.694 127.434C115.836 127.369 115.994 127.349 116.147 127.377C116.299 127.391 116.443 127.452 116.559 127.551C116.675 127.65 116.758 127.782 116.797 127.93C116.797 128.17 116.797 128.339 116.508 128.291L116.003 128.242Z" fill="#FDFDFD"/>
<path d="M107.179 122.014C107.179 121.148 107.612 120.619 108.285 120.667C108.958 120.715 109.295 121.292 109.247 122.134C109.199 122.976 108.766 123.385 108.141 123.337C107.515 123.289 107.179 122.784 107.179 122.014Z" fill="white"/>
<path d="M101.192 93.6185C101.213 93.9379 101.137 94.2561 100.976 94.5325C100.889 94.6805 100.761 94.8002 100.607 94.877C100.453 94.9538 100.281 94.9845 100.11 94.9654C99.9269 94.9494 99.7536 94.8755 99.6152 94.7545C99.4768 94.6334 99.3806 94.4714 99.3404 94.292C99.2684 93.9186 99.2684 93.5349 99.3404 93.1616C99.375 92.9537 99.4821 92.7648 99.6429 92.6285C99.8037 92.4923 100.008 92.4175 100.218 92.4175C100.429 92.4175 100.633 92.4923 100.794 92.6285C100.954 92.7648 101.062 92.9537 101.096 93.1616C101.127 93.3366 101.127 93.5156 101.096 93.6907" fill="white"/>
<path d="M104.173 94.3877C104.04 93.965 104.04 93.5116 104.173 93.0889C104.207 92.902 104.304 92.7325 104.449 92.6096C104.594 92.4867 104.777 92.4181 104.967 92.4155C105.152 92.4032 105.335 92.4502 105.491 92.5498C105.647 92.6493 105.767 92.7961 105.833 92.9687C105.94 93.19 105.995 93.4325 105.995 93.6782C105.995 93.9238 105.94 94.1663 105.833 94.3877C105.783 94.5338 105.694 94.6639 105.577 94.7644C105.46 94.8649 105.317 94.9321 105.165 94.9591C105.013 94.9861 104.857 94.9719 104.712 94.9179C104.567 94.864 104.439 94.7722 104.342 94.6522C104.342 94.532 104.342 94.4598 104.197 94.3877" fill="white"/>
<path d="M104.173 94.3877C104.173 94.3877 104.437 94.3877 104.317 94.6523C104.269 94.6281 104.229 94.5898 104.204 94.5425C104.178 94.4953 104.167 94.4412 104.173 94.3877" fill="#F8F7F7"/>
<path d="M95.9748 93.3544H94.8684C94.7001 93.3544 94.6279 93.3544 94.676 93.138C94.8684 92.4886 95.0849 91.8152 95.3013 91.1177C95.5178 91.8633 95.7343 92.5848 95.9748 93.3544" fill="#FDFDFD"/>
<path d="M117.133 93.7151C117.133 92.9214 117.445 92.4644 117.95 92.3923C118.111 92.3543 118.279 92.3689 118.431 92.4338C118.582 92.4988 118.709 92.6107 118.792 92.753C118.95 93.0273 119.034 93.3383 119.034 93.655C119.034 93.9716 118.95 94.2826 118.792 94.5569C118.717 94.7099 118.594 94.8346 118.443 94.9125C118.291 94.9905 118.119 95.0176 117.95 94.9898C117.788 94.9715 117.634 94.9076 117.506 94.8055C117.378 94.7033 117.282 94.5671 117.229 94.4126C117.164 94.1846 117.164 93.943 117.229 93.7151" fill="white"/>
<path d="M125.236 93.2581H124.9C124.755 93.2581 124.539 93.2581 124.467 93.2581C124.394 93.2581 124.467 92.8973 124.635 92.753C124.718 92.6107 124.845 92.4988 124.996 92.4338C125.148 92.3689 125.316 92.3543 125.477 92.3923C125.624 92.4145 125.761 92.4819 125.869 92.5853C125.977 92.6887 126.05 92.8229 126.078 92.9695C126.078 93.186 126.078 93.3543 125.837 93.3303H125.236" fill="#FDFBFC"/>
<path d="M109.271 86.6459V87.1029C109.262 87.2355 109.226 87.365 109.167 87.484C109.107 87.6029 109.025 87.7089 108.924 87.796C108.824 87.8831 108.707 87.9496 108.581 87.9916C108.455 88.0336 108.322 88.0504 108.189 88.0409C108.056 88.0314 107.927 87.9959 107.808 87.9364C107.689 87.8769 107.583 87.7945 107.496 87.694C107.409 87.5935 107.342 87.4768 107.3 87.3506C107.258 87.2245 107.241 87.0912 107.251 86.9586C107.227 86.7348 107.227 86.509 107.251 86.2852C107.279 86.0378 107.393 85.8082 107.573 85.6366C107.754 85.4651 107.989 85.3626 108.237 85.3472C108.742 85.3472 109.079 85.6358 109.247 86.213C109.257 86.3572 109.257 86.5018 109.247 86.6459" fill="white"/>
<path d="M234.563 101.264C235.211 102.026 235.666 102.933 235.888 103.909C236.11 104.884 236.092 105.899 235.837 106.866L231.029 124.731C230.822 125.509 230.464 126.238 229.975 126.877C229.485 127.516 228.875 128.052 228.178 128.455C227.48 128.857 226.711 129.117 225.913 129.221C225.114 129.325 224.304 129.27 223.527 129.059L205.662 124.25C204.698 123.989 203.812 123.499 203.079 122.82C202.347 122.142 201.789 121.296 201.455 120.355L202.945 121.317L209.004 123.024L221.555 126.486L224.825 127.159L226.484 126.703L228.504 125.332L229.49 123.216L234.852 102.587L234.563 101.264Z" fill="black" fill-opacity="0.1"/>
<path d="M230.187 107.299C230.404 106.471 230.346 105.595 230.021 104.803C229.696 104.012 229.122 103.347 228.387 102.91C227.651 102.473 226.793 102.287 225.943 102.381C225.092 102.474 224.295 102.841 223.672 103.427C222.41 102.285 220.893 101.46 219.247 101.023C217.232 100.48 215.102 100.534 213.117 101.176C211.131 101.819 209.374 103.024 208.058 104.644C206.743 106.265 205.926 108.232 205.705 110.308C205.485 112.383 205.871 114.478 206.817 116.339C206.949 115.379 207.397 114.491 208.091 113.814C209.245 112.708 211.962 110.593 209.967 108.717C210.207 108.83 210.422 108.99 210.599 109.188C210.776 109.386 210.912 109.617 210.997 109.869C211.082 110.12 211.116 110.387 211.096 110.651C211.076 110.916 211.002 111.174 210.88 111.41C210.303 112.708 208.909 113.814 209.389 115.377C209.472 115.707 209.646 116.007 209.89 116.244C210.134 116.481 210.44 116.644 210.772 116.717C211.105 116.789 211.451 116.768 211.771 116.654C212.092 116.541 212.375 116.34 212.587 116.075C213.91 114.319 211.121 112.3 210.76 115.401C210.609 115.185 210.517 114.933 210.491 114.671C210.466 114.408 210.508 114.144 210.614 113.902C210.721 113.661 210.887 113.451 211.098 113.292C211.309 113.134 211.557 113.032 211.818 112.997C212.292 113.003 212.758 113.112 213.185 113.318C213.612 113.523 213.989 113.82 214.289 114.186C214.59 114.553 214.806 114.981 214.923 115.44C215.04 115.899 215.055 116.378 214.968 116.844C217.54 115.786 215.641 113.935 214.006 112.348C211.602 109.943 211.602 106.89 215.352 106.024C214.679 106.385 211.818 108.429 214.318 110.112C214.648 108.659 215.446 107.356 216.588 106.4C217.73 105.445 219.154 104.89 220.642 104.822C219.924 104.883 219.231 105.113 218.619 105.494C218.007 105.874 217.493 106.394 217.12 107.01C216.748 107.627 216.526 108.323 216.474 109.042C216.421 109.761 216.54 110.481 216.819 111.146C217.641 112.379 218.541 113.56 219.512 114.68C219.912 115.075 220.215 115.557 220.396 116.089C220.578 116.621 220.634 117.188 220.559 117.745C220.485 118.302 220.282 118.834 219.966 119.3C219.651 119.765 219.232 120.151 218.743 120.427C222.133 119.08 220.762 115.618 219.969 114.007C219.56 113.141 219.079 112.348 219.416 111.434C219.552 111.011 219.818 110.642 220.177 110.378C220.535 110.115 220.967 109.971 221.411 109.967C219.608 110.376 220.979 112.829 221.411 113.694C222.468 115.024 223.022 116.685 222.974 118.383C222.879 119.289 222.481 120.136 221.844 120.787C223.696 119.727 225.192 118.144 226.146 116.236C227.1 114.328 227.469 112.181 227.206 110.064C227.909 109.922 228.56 109.589 229.086 109.101C229.612 108.613 229.993 107.989 230.187 107.299V107.299ZM225.715 108.813C225.378 108.732 225.061 108.584 224.782 108.378C224.503 108.173 224.268 107.913 224.091 107.615C223.914 107.317 223.799 106.986 223.751 106.643C223.704 106.3 223.726 105.95 223.816 105.615C223.929 105.132 224.19 104.695 224.561 104.365C224.979 103.984 225.508 103.747 226.071 103.692C226.633 103.636 227.199 103.764 227.683 104.056C228.167 104.348 228.544 104.789 228.757 105.312C228.97 105.836 229.008 106.415 228.865 106.962C228.733 107.421 228.48 107.837 228.134 108.167C227.787 108.497 227.359 108.728 226.893 108.837C226.503 108.907 226.103 108.899 225.715 108.813V108.813Z" fill="#CE0E2D"/>
<path d="M223.455 127.424L203.787 122.183C202.456 121.822 201.322 120.95 200.633 119.756C199.944 118.562 199.755 117.144 200.108 115.811L205.374 96.1433C205.549 95.4775 205.855 94.8532 206.274 94.3068C206.693 93.7603 207.216 93.3027 207.814 92.9603C208.411 92.618 209.07 92.3979 209.754 92.3128C210.437 92.2277 211.13 92.2793 211.793 92.4645L231.461 97.7302C232.124 97.9158 232.744 98.2308 233.284 98.657C233.825 99.0831 234.276 99.6121 234.611 100.213C234.946 100.814 235.159 101.476 235.238 102.16C235.316 102.844 235.258 103.536 235.068 104.198L229.802 123.866C229.421 125.172 228.543 126.277 227.356 126.943C226.169 127.608 224.768 127.781 223.455 127.424V127.424ZM211.433 93.3061C210.326 93.0121 209.149 93.1683 208.157 93.7406C207.166 94.3129 206.442 95.2546 206.143 96.3597L200.877 116.052C200.591 117.161 200.753 118.338 201.329 119.329C201.906 120.319 202.849 121.042 203.955 121.341L223.623 126.607C224.183 126.755 224.768 126.79 225.342 126.71C225.916 126.63 226.469 126.436 226.968 126.141C227.466 125.846 227.902 125.454 228.248 124.99C228.594 124.525 228.845 123.996 228.985 123.433L234.226 103.765C234.375 103.217 234.414 102.645 234.341 102.082C234.268 101.519 234.084 100.976 233.8 100.485C233.517 99.9931 233.138 99.5625 232.687 99.2176C232.236 98.8728 231.722 98.6206 231.173 98.4755L211.433 93.3061Z" fill="#515151"/>
<path d="M225.33 84.6498L231.029 81.3317L231.678 80.9711C232.592 80.4421 233.337 80.5142 233.722 81.1394C234.106 81.7645 233.866 82.4378 232.832 83.0389L227.47 86.1405C226.388 86.7657 225.306 87.4148 224.2 88.0159C224.054 88.131 223.884 88.2113 223.702 88.2508C223.52 88.2903 223.332 88.288 223.151 88.244C222.971 88.2 222.802 88.1154 222.659 87.9968C222.516 87.8781 222.402 87.7285 222.325 87.5591L217.156 78.5907C217.045 78.461 216.964 78.3085 216.92 78.144C216.875 77.9795 216.867 77.8071 216.897 77.6393C216.927 77.4715 216.994 77.3124 217.093 77.1734C217.191 77.0344 217.319 76.919 217.468 76.8355C217.623 76.7514 217.793 76.7009 217.968 76.6872C218.144 76.6734 218.32 76.6968 218.485 76.7558C218.651 76.8148 218.802 76.9081 218.93 77.0295C219.057 77.151 219.157 77.2979 219.223 77.4607L222.469 83.0629C222.613 83.3274 222.782 83.5678 223.022 83.9766L223.311 82.8705L227.494 67.218C227.552 66.9813 227.624 66.7484 227.711 66.5207C227.752 66.37 227.823 66.2292 227.92 66.1063C228.016 65.9834 228.136 65.8809 228.273 65.8048C228.409 65.7287 228.56 65.6806 228.715 65.6631C228.87 65.6457 229.028 65.6593 229.177 65.7032C229.462 65.7874 229.706 65.974 229.861 66.227C230.017 66.4801 230.073 66.7817 230.019 67.0737C229.961 67.3498 229.889 67.6226 229.803 67.8912C227.903 75.1044 227.567 76.3066 225.667 83.4476L225.33 84.6498Z" fill="#CE0E2D"/>
<path d="M238.242 88.978C238.095 89.5278 237.84 90.0431 237.493 90.4943C237.145 90.9455 236.713 91.3237 236.219 91.6074C235.725 91.891 235.181 92.0745 234.616 92.1473C234.051 92.2201 233.478 92.1808 232.929 92.0316L213.261 86.7901C212.153 86.4857 211.209 85.7578 210.633 84.7637C210.058 83.7695 209.896 82.5887 210.183 81.4764L211.265 77.461L210.448 77.2446L209.39 81.26C209.212 81.9183 209.166 82.6054 209.255 83.2815C209.344 83.9576 209.566 84.6094 209.908 85.1995C210.25 85.7895 210.705 86.306 211.247 86.7193C211.79 87.1326 212.409 87.4345 213.068 87.6075L232.736 92.8732C234.066 93.2255 235.481 93.036 236.671 92.3464C237.861 91.6567 238.729 90.5232 239.084 89.1944L240.166 85.1791L239.228 84.9627L238.242 88.978Z" fill="#CE0E2D"/>
<path d="M57.672 154.689V155.459C57.9293 155.16 58.2517 154.924 58.6144 154.77C58.9771 154.616 59.3703 154.547 59.7639 154.569C60.1719 154.533 60.5812 154.621 60.9376 154.823C61.2941 155.025 61.5807 155.33 61.7595 155.699C61.9733 155.275 62.308 154.923 62.7213 154.689C63.1261 154.468 63.5828 154.36 64.0437 154.377C65.5825 154.377 66.4481 155.194 66.4481 156.781V161.59H65.1257V157.094C65.1653 156.687 65.0445 156.282 64.789 155.963C64.6337 155.823 64.451 155.716 64.2523 155.65C64.0537 155.584 63.8434 155.56 63.6349 155.579C63.2279 155.57 62.8327 155.716 62.5289 155.988C62.2356 156.266 62.0558 156.643 62.024 157.045V161.71H60.8218V157.094C60.8537 156.886 60.8368 156.674 60.7723 156.475C60.7079 156.275 60.5977 156.093 60.4506 155.944C60.3035 155.795 60.1235 155.682 59.9249 155.614C59.7264 155.546 59.5148 155.526 59.307 155.555C58.9661 155.53 58.6263 155.615 58.3367 155.797C58.0471 155.978 57.8228 156.247 57.6961 156.565V161.686H56.4939V154.689H57.672Z" fill="#010101"/>
<path d="M71.0643 161.735C70.6188 161.769 70.1715 161.702 69.7554 161.54C69.3392 161.378 68.9648 161.124 68.6599 160.797C68.3483 160.458 68.1071 160.06 67.9503 159.627C67.7934 159.193 67.7241 158.733 67.7462 158.273V158.056C67.7508 157.417 67.89 156.786 68.155 156.205C68.3973 155.678 68.7906 155.234 69.285 154.931C69.7375 154.618 70.2741 154.451 70.8238 154.45C71.2228 154.431 71.6209 154.503 71.9876 154.662C72.3543 154.82 72.68 155.06 72.9397 155.363C73.4911 156.104 73.7636 157.015 73.7091 157.936V158.441H68.9003C68.8832 159.05 69.098 159.643 69.5014 160.1C69.6874 160.311 69.9173 160.478 70.1748 160.59C70.4323 160.702 70.7113 160.756 70.9921 160.749C71.362 160.756 71.727 160.665 72.0501 160.485C72.3518 160.318 72.6142 160.089 72.8195 159.812L73.5648 160.365C73.2973 160.785 72.9278 161.131 72.4906 161.371C72.0535 161.611 71.5628 161.736 71.0643 161.735V161.735ZM70.92 155.436C70.6903 155.435 70.4631 155.482 70.2522 155.573C70.0413 155.664 69.8513 155.797 69.6938 155.965C69.3436 156.387 69.1335 156.908 69.0927 157.455H72.6031C72.5979 156.943 72.4294 156.446 72.1222 156.037C71.9803 155.852 71.7984 155.702 71.5902 155.598C71.382 155.494 71.1528 155.438 70.92 155.436V155.436Z" fill="#010101"/>
<path d="M79.5523 161.615C79.4604 161.376 79.4037 161.125 79.384 160.869C79.1308 161.146 78.8222 161.366 78.4784 161.515C78.1345 161.664 77.7631 161.739 77.3883 161.735C76.7677 161.759 76.1599 161.554 75.6812 161.158C75.472 160.971 75.3057 160.741 75.1936 160.483C75.0816 160.226 75.0265 159.948 75.032 159.667C75.0191 159.335 75.0892 159.005 75.2362 158.707C75.3831 158.409 75.6022 158.152 75.8736 157.96C76.5868 157.5 77.4321 157.289 78.278 157.359H79.4561V156.806C79.4611 156.433 79.3235 156.071 79.0714 155.796C78.7641 155.536 78.3671 155.406 77.9654 155.435C77.5802 155.418 77.2 155.528 76.8834 155.748C76.7518 155.835 76.6435 155.952 76.568 156.091C76.4925 156.229 76.4522 156.384 76.4506 156.541H75.2484C75.2482 156.169 75.3851 155.809 75.6331 155.532C75.8863 155.181 76.2377 154.913 76.643 154.762C77.0812 154.565 77.5572 154.467 78.0375 154.474C78.7237 154.429 79.4016 154.643 79.937 155.075C80.168 155.283 80.3503 155.54 80.4708 155.826C80.5913 156.113 80.6471 156.423 80.6343 156.734V159.98C80.6215 160.495 80.703 161.008 80.8747 161.494L79.5523 161.615ZM77.5807 160.701C77.9526 160.699 78.3175 160.6 78.6386 160.412C78.9542 160.239 79.2067 159.969 79.3599 159.643V158.2H78.3982C76.9315 158.2 76.2102 158.633 76.2102 159.499C76.2015 159.661 76.2294 159.823 76.2919 159.973C76.3543 160.123 76.4497 160.256 76.5708 160.364C76.8419 160.586 77.1824 160.705 77.5326 160.701H77.5807Z" fill="#010101"/>
<path d="M84.0241 152.91V154.689H85.3465V155.603H84.0241V159.955C84.002 160.176 84.0619 160.399 84.1924 160.58C84.2693 160.659 84.3635 160.721 84.4677 160.758C84.572 160.796 84.6834 160.809 84.7935 160.796H85.3706V161.758C85.0658 161.845 84.7497 161.885 84.4329 161.878C84.2089 161.897 83.9835 161.864 83.7748 161.78C83.5661 161.697 83.3797 161.565 83.2307 161.397C82.9395 161.002 82.795 160.517 82.8219 160.027V155.53H81.5476V154.689H82.8219V153.006L84.0241 152.91Z" fill="#010101"/>
<path d="M89.6264 161.759C89.1815 161.788 88.7357 161.719 88.3203 161.557C87.9049 161.395 87.53 161.144 87.222 160.822C86.6309 160.162 86.3128 159.303 86.3324 158.417V158.201C86.3252 157.561 86.465 156.927 86.7411 156.349C86.9746 155.824 87.3597 155.38 87.8472 155.075C88.3084 154.762 88.8527 154.595 89.41 154.594C89.809 154.575 90.2071 154.648 90.5738 154.806C90.9405 154.964 91.2661 155.204 91.5259 155.508C92.0688 156.251 92.3326 157.162 92.2712 158.081V158.586H87.4625C87.4453 159.195 87.6602 159.788 88.0636 160.245C88.2448 160.455 88.4704 160.622 88.724 160.734C88.9776 160.846 89.253 160.901 89.5302 160.894C89.908 160.904 90.2816 160.813 90.6122 160.629C90.9115 160.459 91.1732 160.23 91.3816 159.956L92.1029 160.509C91.8269 160.907 91.4558 161.23 91.0233 161.448C90.5908 161.667 90.1107 161.774 89.6264 161.759V161.759ZM89.6264 155.46C89.3965 155.458 89.1688 155.504 88.9577 155.596C88.7466 155.687 88.5568 155.821 88.4002 155.989C88.0427 156.409 87.8243 156.93 87.775 157.48H91.2854C91.2803 156.968 91.1118 156.471 90.8046 156.061C90.6559 155.86 90.4591 155.7 90.2322 155.594C90.0053 155.489 89.7557 155.443 89.5062 155.46H89.6264Z" fill="#010101"/>
<path d="M97.1522 155.7H96.5511C96.2134 155.677 95.8774 155.762 95.5919 155.944C95.3064 156.126 95.0864 156.394 94.9642 156.709V161.687H93.762V154.69H94.9401V155.507C95.1116 155.215 95.358 154.974 95.6539 154.809C95.9499 154.644 96.2845 154.562 96.6232 154.57C96.7965 154.524 96.9788 154.524 97.1522 154.57V155.7Z" fill="#010101"/>
<path d="M97.4649 161.014C97.4622 160.82 97.5307 160.632 97.6573 160.485C97.76 160.371 97.8952 160.291 98.0447 160.257C98.1941 160.223 98.3504 160.236 98.4924 160.293C98.6344 160.351 98.7551 160.451 98.838 160.58C98.921 160.709 98.9622 160.861 98.9561 161.014C98.9637 161.103 98.9503 161.194 98.9169 161.277C98.8835 161.361 98.831 161.435 98.7637 161.495C98.6128 161.633 98.4154 161.71 98.2105 161.71C98.0056 161.71 97.8082 161.633 97.6573 161.495C97.5951 161.431 97.546 161.356 97.513 161.274C97.48 161.191 97.4636 161.103 97.4649 161.014V161.014Z" fill="#010101"/>
<path d="M103.74 160.797C104.149 160.799 104.547 160.663 104.87 160.412C105.022 160.293 105.147 160.144 105.238 159.975C105.329 159.805 105.384 159.618 105.399 159.427H106.529C106.511 159.843 106.369 160.245 106.12 160.581C105.855 160.943 105.509 161.239 105.111 161.446C104.685 161.657 104.215 161.764 103.74 161.759C103.318 161.778 102.896 161.703 102.506 161.541C102.115 161.379 101.765 161.133 101.48 160.821C100.88 160.085 100.579 159.149 100.638 158.2V157.984C100.627 157.364 100.75 156.749 100.999 156.181C101.245 155.677 101.618 155.246 102.081 154.93C102.583 154.635 103.158 154.486 103.74 154.498C104.466 154.475 105.172 154.733 105.712 155.219C105.971 155.447 106.179 155.728 106.32 156.043C106.461 156.359 106.532 156.701 106.529 157.046H105.399C105.394 156.834 105.346 156.625 105.26 156.431C105.173 156.237 105.049 156.062 104.894 155.916C104.581 155.627 104.167 155.471 103.74 155.483C103.469 155.471 103.199 155.523 102.952 155.636C102.706 155.749 102.489 155.919 102.322 156.132C101.974 156.703 101.806 157.365 101.841 158.032V158.272C101.782 158.927 101.952 159.581 102.322 160.124C102.484 160.344 102.699 160.521 102.946 160.639C103.194 160.756 103.466 160.811 103.74 160.797V160.797Z" fill="#010101"/>
<path d="M107.563 158.08C107.556 157.44 107.696 156.806 107.972 156.229C108.202 155.78 108.537 155.392 108.948 155.1C109.359 154.807 109.834 154.617 110.334 154.547C110.833 154.476 111.342 154.526 111.818 154.694C112.295 154.861 112.724 155.14 113.069 155.507C113.684 156.248 114.001 157.191 113.959 158.152C113.954 158.783 113.814 159.406 113.55 159.98C113.309 160.508 112.915 160.951 112.42 161.254C111.954 161.616 111.396 161.841 110.809 161.903C110.357 161.935 109.904 161.861 109.486 161.685C109.069 161.51 108.698 161.238 108.405 160.893C107.778 160.169 107.459 159.228 107.515 158.272L107.563 158.08ZM108.765 158.224C108.739 158.893 108.933 159.552 109.318 160.1C109.486 160.322 109.705 160.501 109.955 160.623C110.206 160.744 110.482 160.804 110.761 160.797C111.042 160.805 111.321 160.743 111.573 160.617C111.825 160.492 112.041 160.306 112.204 160.076C112.606 159.491 112.801 158.788 112.757 158.08C112.783 157.411 112.589 156.752 112.204 156.205C112.037 155.979 111.819 155.796 111.569 155.671C111.318 155.546 111.041 155.481 110.761 155.483C110.48 155.475 110.201 155.537 109.949 155.663C109.697 155.789 109.481 155.975 109.318 156.205C108.913 156.797 108.718 157.508 108.765 158.224V158.224Z" fill="#010101"/>
<path d="M116.58 154.69V155.484C116.836 155.182 117.157 154.943 117.52 154.785C117.882 154.626 118.276 154.553 118.672 154.57C119.08 154.53 119.491 154.617 119.848 154.82C120.205 155.022 120.491 155.329 120.667 155.7C120.906 155.362 121.219 155.082 121.581 154.882C121.986 154.662 122.442 154.554 122.903 154.57C124.442 154.57 125.308 155.387 125.308 156.974V161.783H124.106V157.095C124.138 156.685 124.009 156.279 123.745 155.964C123.59 155.824 123.407 155.717 123.208 155.651C123.009 155.585 122.799 155.561 122.591 155.58C122.184 155.576 121.791 155.721 121.485 155.988C121.191 156.267 121.012 156.644 120.98 157.046V161.663H119.778V157.095C119.809 156.889 119.792 156.68 119.729 156.483C119.666 156.285 119.558 156.105 119.413 155.956C119.269 155.807 119.092 155.693 118.897 155.624C118.702 155.554 118.493 155.531 118.287 155.556C117.945 155.528 117.604 155.611 117.313 155.793C117.023 155.975 116.799 156.246 116.676 156.566V161.663H115.498V154.69H116.58Z" fill="#010101"/>
<path d="M127.303 162.48H126.269L130.237 152.285H131.246L127.303 162.48Z" fill="#010101"/>
<path d="M136.873 161.686C136.769 161.451 136.712 161.198 136.705 160.941C136.45 161.215 136.141 161.433 135.797 161.582C135.454 161.731 135.083 161.808 134.709 161.807C134.087 161.843 133.475 161.636 133.002 161.23C132.811 161.033 132.664 160.799 132.568 160.542C132.473 160.286 132.432 160.012 132.449 159.739C132.436 159.407 132.506 159.077 132.653 158.779C132.8 158.48 133.019 158.224 133.29 158.032C134.005 157.575 134.849 157.364 135.695 157.431H136.873V156.878C136.881 156.692 136.85 156.507 136.784 156.333C136.718 156.16 136.617 156.001 136.488 155.868C136.337 155.737 136.162 155.637 135.972 155.575C135.782 155.513 135.581 155.49 135.382 155.507C135.005 155.493 134.633 155.603 134.324 155.82C134.193 155.906 134.084 156.024 134.009 156.162C133.933 156.301 133.893 156.456 133.891 156.613H132.449C132.461 156.243 132.596 155.888 132.834 155.603C133.087 155.253 133.438 154.985 133.843 154.834C134.282 154.639 134.758 154.541 135.238 154.545C135.924 154.5 136.602 154.715 137.137 155.147C137.368 155.357 137.551 155.613 137.675 155.899C137.8 156.185 137.862 156.494 137.859 156.806V160.051C137.834 160.568 137.916 161.083 138.099 161.566L136.873 161.686ZM134.853 160.773C135.225 160.774 135.591 160.674 135.911 160.484C136.228 160.305 136.487 160.038 136.657 159.715V158.272H135.719C134.252 158.272 133.507 158.705 133.507 159.571C133.495 159.735 133.524 159.9 133.591 160.051C133.658 160.202 133.761 160.334 133.891 160.436C134.159 160.664 134.502 160.784 134.853 160.773V160.773Z" fill="#010101"/>
<path d="M145.673 158.272C145.717 159.185 145.463 160.087 144.952 160.844C144.72 161.153 144.418 161.401 144.071 161.569C143.724 161.736 143.341 161.818 142.956 161.806C142.586 161.825 142.216 161.764 141.871 161.628C141.527 161.491 141.216 161.281 140.96 161.013V164.307H139.662V154.689H140.768V155.483C141.009 155.176 141.321 154.933 141.677 154.773C142.033 154.614 142.422 154.544 142.812 154.569C143.197 154.557 143.579 154.639 143.927 154.806C144.274 154.974 144.576 155.222 144.807 155.531C145.331 156.309 145.585 157.239 145.529 158.175L145.673 158.272ZM144.471 158.127C144.507 157.464 144.33 156.807 143.966 156.252C143.812 156.032 143.607 155.854 143.368 155.732C143.129 155.611 142.863 155.55 142.595 155.555C142.257 155.547 141.924 155.635 141.634 155.81C141.345 155.984 141.111 156.238 140.96 156.54V159.883C141.114 160.181 141.35 160.429 141.639 160.599C141.928 160.77 142.26 160.855 142.595 160.844C142.863 160.849 143.129 160.788 143.368 160.667C143.607 160.545 143.812 160.367 143.966 160.147C144.342 159.543 144.518 158.837 144.471 158.127V158.127Z" fill="#010101"/>
<path d="M153.126 158.272C153.151 159.187 152.891 160.086 152.381 160.845C152.155 161.155 151.858 161.406 151.515 161.577C151.172 161.749 150.793 161.836 150.409 161.831C150.034 161.849 149.658 161.785 149.31 161.644C148.961 161.503 148.647 161.288 148.39 161.013V164.307H147.188V154.69H148.269V155.459C148.513 155.157 148.826 154.918 149.182 154.763C149.538 154.608 149.926 154.542 150.313 154.57C150.697 154.555 151.078 154.633 151.425 154.796C151.772 154.959 152.075 155.203 152.309 155.507C152.838 156.285 153.1 157.213 153.054 158.152L153.126 158.272ZM151.924 158.128C151.958 157.465 151.781 156.809 151.419 156.253C151.262 156.032 151.052 155.855 150.808 155.738C150.564 155.62 150.295 155.565 150.025 155.579C149.689 155.566 149.356 155.65 149.066 155.82C148.776 155.991 148.541 156.241 148.39 156.541V159.883C148.541 160.183 148.776 160.434 149.066 160.604C149.356 160.775 149.689 160.858 150.025 160.845C150.291 160.855 150.556 160.799 150.795 160.681C151.034 160.564 151.24 160.389 151.395 160.172C151.794 159.569 151.98 158.849 151.924 158.128V158.128Z" fill="#010101"/>
<path d="M77.1483 117.398C76.9491 117.66 76.8471 117.983 76.8598 118.312V132.738C76.8466 133.06 76.9489 133.375 77.1483 133.628L85.1549 125.621V125.357L77.1483 117.35V117.398Z" fill="#5BC8F3"/>
<path d="M87.92 128.242L85.2271 125.573V125.356L87.92 122.688L91.0938 124.491C91.2834 124.56 91.4472 124.686 91.5629 124.852C91.6786 125.017 91.7406 125.215 91.7406 125.416C91.7406 125.618 91.6786 125.816 91.5629 125.981C91.4472 126.147 91.2834 126.273 91.0938 126.342L87.9681 128.242H87.92Z" fill="url(#paint0_linear_421_3058)"/>
<path d="M87.9675 128.241L85.2265 125.5L77.1477 133.506C77.3351 133.667 77.574 133.755 77.8209 133.755C78.0679 133.755 78.3067 133.667 78.4942 133.506L87.9675 128.241Z" fill="url(#paint1_linear_421_3058)"/>
<path d="M87.9676 122.735L78.5183 117.374C78.3288 117.217 78.0908 117.132 77.8451 117.132C77.5994 117.132 77.3614 117.217 77.1719 117.374L85.2266 125.428L87.9676 122.735Z" fill="url(#paint2_linear_421_3058)"/>
<defs>
<linearGradient id="paint0_linear_421_3058" x1="90.5408" y1="125.453" x2="74.9122" y2="125.453" gradientUnits="userSpaceOnUse">
<stop stop-color="#FFDF00"/>
<stop offset="0.41" stop-color="#FBBC0E"/>
<stop offset="0.78" stop-color="#F9A418"/>
<stop offset="1" stop-color="#F89B1C"/>
</linearGradient>
<linearGradient id="paint1_linear_421_3058" x1="86.4767" y1="126.942" x2="71.7619" y2="141.657" gradientUnits="userSpaceOnUse">
<stop stop-color="#EE4447"/>
<stop offset="1" stop-color="#C5166C"/>
</linearGradient>
<linearGradient id="paint2_linear_421_3058" x1="71.7139" y1="109.199" x2="83.7118" y2="121.221" gradientUnits="userSpaceOnUse">
<stop stop-color="#269E6F"/>
<stop offset="0.05" stop-color="#2BA06F"/>
<stop offset="0.47" stop-color="#53B26B"/>
<stop offset="0.8" stop-color="#6BBD69"/>
<stop offset="1" stop-color="#74C168"/>
</linearGradient>
</defs>
</svg>
