<svg width="265" height="157" viewBox="0 0 265 157" fill="none" xmlns="http://www.w3.org/2000/svg">
<g clip-path="url(#clip0_7714_920)">
<path d="M157.457 22.0946L160.261 29.2243L169.943 29.565L172.601 19.8315L157.457 22.0946Z" fill="white"/>
<path d="M168.97 44.0436C168.044 42.5349 167.385 41.3912 166.678 40.2962C164.752 37.4005 162.85 34.4805 160.85 31.6335C158.66 28.8061 157.097 25.5463 156.266 22.0704C155.217 16.863 158.314 12.8967 163.581 13.213C167.437 13.469 171.041 15.2148 173.628 18.0797C173.793 18.1987 173.93 18.3506 174.033 18.5257C174.135 18.7009 174.2 18.8953 174.223 19.0967C174.246 19.2982 174.227 19.5022 174.166 19.6958C174.106 19.8893 174.006 20.0682 173.872 20.221C173.198 19.744 172.57 19.2064 171.994 18.615C170.753 17.2563 169.198 16.2219 167.463 15.6025C165.728 14.9831 163.868 14.7976 162.045 15.0623C160.931 15.2948 159.934 15.9086 159.226 16.7973C158.518 17.6861 158.143 18.7939 158.167 19.9291C158.676 23.5224 160.003 26.9518 162.045 29.9545C163.191 31.8281 164.703 33.4828 165.8 35.3809C166.996 37.584 168.07 39.8504 169.019 42.1699C169.263 42.5592 169.044 43.0946 168.97 44.0436Z" fill="black"/>
<path d="M148.414 123.395C157.242 127.508 155.437 131.328 158.949 132.837C163.363 133.762 168.142 138.19 172.166 142.4C181.774 147.023 194.649 143.665 201.136 139.456C206.403 136.073 204.575 129.722 207.623 117.945C211.768 101.885 210.769 90.7885 208.671 88.4768C205.062 84.5104 195.186 90.5451 149.512 120.573" fill="black" fill-opacity="0.1"/>
<path d="M211.277 110.547H211.741C212.204 109.16 212.716 107.797 213.155 106.386C214.379 101.9 216.358 97.6545 219.008 93.83C220.917 91.3264 222.316 88.4745 223.129 85.4349C223.763 83.3735 223.763 81.1697 223.129 79.1082C222.191 76.5674 221.704 73.883 221.69 71.1755C221.69 70.9078 221.422 70.6401 221.3 70.3481C220.83 72.8389 220.888 75.4002 221.471 77.8672C222.039 80.7681 221.645 83.7749 220.349 86.4326C219.87 87.408 219.341 88.3583 218.764 89.2796L216.008 87.2356C214.838 89.2796 216.276 90.2287 217.423 91.1533C214.749 97.404 212.691 103.899 211.277 110.547Z" fill="white"/>
<path d="M237.297 120.719C238.329 120.553 239.271 120.032 239.957 119.245C240.644 118.457 241.031 117.455 241.052 116.412L237.297 120.719Z" fill="white"/>
<path d="M238.836 116.606C240.226 116.606 240.226 115.341 240.811 114.733C240.811 114.733 240.811 114.27 240.494 113.638C239.982 114.83 238.982 115.39 238.836 116.606Z" fill="white"/>
<path d="M238.297 73.4874L238.516 73.8524L240.784 72.8061C240.362 72.575 239.866 72.5169 239.402 72.6441C238.938 72.7713 238.542 73.0737 238.297 73.4874Z" fill="white"/>
<path d="M240.638 76.0664C239.662 76.0664 239.662 76.0664 238.906 77.2831C239.833 77.1614 240.174 76.6504 240.638 76.0664Z" fill="white"/>
<path d="M211.277 110.547C212.729 103.929 214.82 97.4664 217.52 91.2505C216.374 90.3258 214.935 89.3768 216.106 87.3328L218.861 89.3768C219.438 88.4555 219.967 87.5052 220.446 86.5298C221.743 83.8721 222.137 80.8653 221.568 77.9644C220.986 75.4974 220.928 72.9361 221.397 70.4453C221.397 70.7373 221.763 71.005 221.788 71.2727C221.802 73.9802 222.289 76.6646 223.226 79.2054C223.861 81.2668 223.861 83.4707 223.226 85.5321C222.414 88.5717 221.014 91.4235 219.105 93.9272C216.456 97.7516 214.477 101.997 213.253 106.483C212.814 107.895 212.301 109.257 211.838 110.644L211.277 110.547Z" fill="black"/>
<path d="M237.297 120.719L241.052 116.412C241.031 117.455 240.644 118.457 239.957 119.245C239.271 120.032 238.329 120.553 237.297 120.719Z" fill="black"/>
<path d="M238.836 116.606C238.982 115.39 239.884 114.83 240.494 113.638C240.689 114.27 240.884 114.635 240.811 114.733C240.226 115.341 240.226 116.582 238.836 116.606Z" fill="black"/>
<path d="M238.297 73.4872C238.541 73.0862 238.929 72.7927 239.381 72.6661C239.834 72.5396 240.318 72.5896 240.735 72.8059L238.467 73.8522L238.297 73.4872Z" fill="black"/>
<path d="M240.638 76.0664C240.174 76.6504 239.833 77.2588 238.906 77.2831C239.662 76.1881 239.662 76.1881 240.638 76.0664Z" fill="black"/>
<path d="M182.527 0.948893L230.786 13.797C231.412 13.9605 231.998 14.2465 232.512 14.6383C233.026 15.0301 233.456 15.5199 233.778 16.0791C234.101 16.6384 234.308 17.256 234.389 17.8961C234.47 18.5361 234.422 19.1858 234.249 19.8074L204.108 132.399C203.947 133.022 203.663 133.608 203.273 134.121C202.883 134.634 202.395 135.065 201.837 135.389C201.279 135.713 200.662 135.922 200.023 136.006C199.383 136.091 198.732 136.047 198.109 135.878L149.875 123.006C148.607 122.657 147.526 121.829 146.861 120.698C146.197 119.566 146 118.221 146.314 116.947L176.577 4.33125C176.956 3.12107 177.781 2.09925 178.885 1.47163C179.989 0.844005 181.29 0.657221 182.527 0.948893Z" fill="white" stroke="#1D1D1B" stroke-width="0.63"/>
<path d="M163.383 122.544L186.647 128.724C186.762 128.758 186.86 128.836 186.919 128.94C186.978 129.045 186.994 129.168 186.964 129.284C186.925 129.396 186.847 129.489 186.743 129.548C186.64 129.606 186.519 129.625 186.403 129.6L163.163 123.395C163.107 123.381 163.054 123.356 163.008 123.321C162.962 123.287 162.923 123.243 162.893 123.193C162.864 123.144 162.844 123.089 162.836 123.031C162.828 122.974 162.832 122.916 162.846 122.86C162.857 122.802 162.881 122.747 162.915 122.699C162.948 122.651 162.992 122.61 163.043 122.58C163.094 122.551 163.15 122.532 163.209 122.525C163.268 122.519 163.327 122.525 163.383 122.544Z" fill="#676766"/>
<path d="M202.352 9.68487L209.18 11.5099C209.29 11.5438 209.384 11.6175 209.442 11.7164C209.501 11.8154 209.521 11.9326 209.497 12.0452C209.463 12.1603 209.385 12.2576 209.281 12.3166C209.176 12.3756 209.053 12.3918 208.936 12.3616L202.133 10.5609C202.017 10.5269 201.92 10.4495 201.861 10.345C201.802 10.2406 201.785 10.1173 201.816 10.0012C201.854 9.89432 201.929 9.80417 202.027 9.7464C202.125 9.68863 202.24 9.66686 202.352 9.68487Z" fill="#676766"/>
<path d="M211.326 13.4805C211.851 13.4805 212.277 13.0556 212.277 12.5315C212.277 12.0074 211.851 11.5825 211.326 11.5825C210.801 11.5825 210.375 12.0074 210.375 12.5315C210.375 13.0556 210.801 13.4805 211.326 13.4805Z" fill="#676766"/>
<path d="M198.522 25.1609L199.4 21.9002L197.352 24.0172H197.059L196.352 21.1702L195.474 24.4309L194.938 24.2849L196.059 20.0752L196.62 20.2212L197.376 23.3602L199.644 20.9269L200.181 21.0729L199.059 25.2826L198.522 25.1609Z" fill="#010202"/>
<path d="M202.939 25.8421L202.793 26.3288L199.988 25.5745L201.11 21.3647L203.89 22.0948V22.5571L201.622 21.9731L201.256 23.3358L203.207 23.8468V24.3091L201.256 23.7738L200.866 25.2338L202.939 25.8421Z" fill="#010202"/>
<path d="M203.109 26.4017L205.963 22.6543L206.377 22.776L206.962 27.4237L206.401 27.2777L206.231 25.915L204.499 25.4527L203.67 26.5477L203.109 26.4017ZM206.011 23.3113L204.719 25.0633L206.231 25.477L206.011 23.3113Z" fill="#010202"/>
<path d="M210.937 24.4794L209.498 24.09L208.498 27.8374L207.962 27.6914L208.961 23.944L207.547 23.579V23.1167L210.937 24.017V24.4794Z" fill="#010202"/>
<path d="M213.423 28.6405V29.1271L210.594 28.3728L211.716 24.1631L214.496 24.8931V25.3554L212.252 24.7714L211.886 26.1341L213.813 26.6451V27.1074L211.862 26.5721L211.472 28.0321L213.423 28.6405Z" fill="#010202"/>
<path d="M214.035 29.322L215.157 25.1123L216.937 25.5746C217.117 25.6154 217.284 25.6989 217.425 25.818C217.551 25.9388 217.658 26.0784 217.742 26.2316C217.764 26.4012 217.764 26.5731 217.742 26.7426C217.778 26.9111 217.778 27.0852 217.742 27.2537C217.7 27.3895 217.643 27.5201 217.571 27.643C217.488 27.7611 217.398 27.8748 217.303 27.9837L216.937 28.1783C216.8 28.2059 216.659 28.2059 216.523 28.1783L217.108 30.052L216.523 29.8817L215.962 28.1297L214.864 27.8377L214.474 29.3463L213.938 29.2003L214.035 29.322ZM215.108 27.4727L216.376 27.8133C216.48 27.8381 216.589 27.8381 216.693 27.8133H216.962C217.046 27.7343 217.12 27.6443 217.181 27.5457C217.195 27.4407 217.195 27.3343 217.181 27.2293C217.207 27.109 217.207 26.9846 217.181 26.8643C217.195 26.7593 217.195 26.653 217.181 26.548C217.138 26.4513 217.071 26.3675 216.986 26.3046C216.911 26.2331 216.818 26.1828 216.717 26.1586L215.498 25.8423L215.035 27.5943L215.108 27.4727Z" fill="#010202"/>
<path d="M194.599 19.3452C194.643 19.1838 194.655 19.0153 194.633 18.8494C194.612 18.6835 194.557 18.5234 194.473 18.3786C194.389 18.2338 194.278 18.107 194.144 18.0056C194.011 17.9042 193.859 17.8302 193.697 17.7878C193.491 17.7315 193.274 17.7312 193.068 17.7868C192.862 17.8424 192.675 17.952 192.526 18.1042C192.125 17.7339 191.639 17.4666 191.112 17.3255C190.226 17.094 189.284 17.2194 188.491 17.6747C187.697 18.13 187.114 18.8786 186.869 19.7588C186.638 20.5715 186.725 21.4412 187.112 22.1922C187.147 21.8616 187.293 21.5526 187.527 21.3162C187.893 20.9512 188.771 20.2698 188.137 19.6615C188.22 19.6992 188.294 19.7545 188.355 19.8237C188.415 19.8928 188.459 19.9742 188.485 20.0621C188.51 20.15 188.516 20.2424 188.502 20.3328C188.489 20.4233 188.455 20.5098 188.405 20.5862C188.21 20.9998 187.771 21.3648 187.917 21.8758C188.064 22.3868 188.673 22.5329 188.941 22.0949C189.21 21.6568 188.478 20.8782 188.356 21.8758C188.297 21.807 188.258 21.7231 188.244 21.6335C188.23 21.5438 188.242 21.4521 188.277 21.3686C188.313 21.2851 188.371 21.2132 188.445 21.1609C188.519 21.1086 188.607 21.0781 188.697 21.0728C189.283 21.0728 189.819 21.6812 189.697 22.3138C190.526 21.9732 189.917 21.3648 189.38 20.8782C188.844 20.3915 188.625 19.1018 189.819 18.8098C189.6 18.9315 188.673 19.5885 189.478 20.1482C189.579 19.6786 189.831 19.2551 190.197 18.9429C190.563 18.6307 191.021 18.4472 191.502 18.4205C191.272 18.4446 191.05 18.5219 190.855 18.6464C190.66 18.7709 190.497 18.939 190.379 19.1375C190.26 19.336 190.19 19.5593 190.173 19.7897C190.157 20.02 190.194 20.2511 190.283 20.4645C190.537 20.867 190.823 21.2493 191.136 21.6082C191.264 21.7389 191.361 21.8974 191.418 22.0713C191.475 22.2452 191.491 22.4299 191.465 22.6111C191.439 22.7922 191.372 22.965 191.269 23.116C191.165 23.267 191.028 23.3922 190.868 23.4819C191.965 23.0439 191.526 21.8759 191.283 21.3892C191.039 20.9025 190.99 20.8782 191.112 20.5618C191.161 20.4361 191.243 20.3263 191.351 20.2447C191.459 20.1631 191.587 20.1128 191.721 20.0995C191.136 20.2455 191.575 21.0485 191.721 21.3162C192.048 21.7507 192.22 22.2817 192.209 22.8248C192.19 23.1282 192.06 23.4139 191.843 23.6279C192.246 23.3992 192.599 23.0917 192.88 22.7237C193.16 22.3557 193.364 21.9349 193.477 21.4865C193.561 21.0443 193.561 20.5904 193.477 20.1482C193.722 20.1368 193.958 20.0548 194.157 19.9123C194.356 19.7698 194.51 19.5728 194.599 19.3452ZM193.16 19.8318C193.054 19.8037 192.955 19.7548 192.868 19.688C192.781 19.6212 192.708 19.5379 192.654 19.4428C192.599 19.3477 192.564 19.2428 192.551 19.1342C192.537 19.0255 192.546 18.9153 192.575 18.8098C192.617 18.6524 192.702 18.5095 192.819 18.3961C192.924 18.304 193.05 18.2382 193.185 18.2044C193.321 18.1705 193.463 18.1695 193.599 18.2015C193.815 18.2638 193.998 18.4087 194.107 18.6046C194.217 18.8005 194.245 19.0316 194.184 19.2478C194.148 19.3966 194.068 19.5314 193.956 19.6352C193.843 19.7391 193.702 19.8075 193.55 19.8318C193.425 19.8807 193.286 19.8807 193.16 19.8318Z" fill="#CF122D"/>
<path d="M150.338 99.013L157.093 104.099L160.507 108.138L161.092 113.297L158.824 116.996L156.922 117.507L150.411 115.949L146.143 112.932L140.876 110.255L137.633 104.829L140.901 99.3781L144.802 98.2344L150.338 99.013Z" fill="white"/>
<path d="M150.094 91.3965L152.825 94.1705L156.141 96.1902L159.97 96.3119L163.262 94.3165L165.457 90.9585L165.798 87.6491L164.189 84.3641L160.921 79.4001L157.946 74.947L154.8 72.0757L150.094 91.3965Z" fill="white"/>
<path d="M155.07 69.5453L158.533 70.7133L162.727 68.9613L164.849 66.0169L165.751 62.3426L164.947 58.6439L163.947 55.9672L162.557 53.6068L161.801 52.1712L161.264 51.8062L155.07 69.5453Z" fill="white"/>
<path d="M150.241 61.0043C149.986 60.659 149.809 60.2631 149.72 59.8432C149.632 59.4234 149.635 58.9895 149.729 58.571C149.896 57.6945 150.239 56.8609 150.738 56.1206C151.237 55.3803 151.881 54.7487 152.632 54.2639C153.595 53.7661 154.686 53.5672 155.763 53.693C156.841 53.8187 157.857 54.2633 158.679 54.9696C159.183 55.1901 159.628 55.5249 159.98 55.9473C160.331 56.3698 160.579 56.8682 160.703 57.403C159.932 56.8218 159.116 56.3012 158.264 55.8456C157.165 55.3302 156.012 54.9384 154.826 54.6776C154.219 54.6131 153.61 54.7781 153.119 55.1399C152.363 55.6039 151.74 56.2561 151.313 57.0325C150.885 57.8089 150.667 58.6828 150.681 59.5686C150.681 60.0553 150.681 60.5177 150.681 61.0043H150.241Z" fill="black"/>
<path d="M166.383 144.249C168.891 143.675 171.277 142.662 173.43 141.256C176.917 139.383 180.478 137.655 184.258 136.073C183.941 136.341 183.697 136.73 183.331 136.901C179.82 138.799 176.332 140.697 172.772 142.473C171.113 143.25 169.412 143.933 167.675 144.517C167.277 144.623 166.868 144.68 166.456 144.687L166.383 144.249Z" fill="black"/>
<path d="M151.023 83.5127C150.904 82.8771 150.957 82.2215 151.175 81.6129C151.393 81.0042 151.77 80.4644 152.266 80.0485C152.762 79.6327 153.36 79.3558 153.999 79.2462C154.637 79.1366 155.293 79.1981 155.9 79.4246C158.331 80.5971 160.384 82.4265 161.826 84.705C161.826 84.705 161.826 84.924 161.826 85.1917C160.802 84.2183 159.875 83.2206 158.875 82.369C158.012 81.5909 157.063 80.9133 156.046 80.3493C155.663 80.1262 155.236 79.9893 154.794 79.9481C154.353 79.9069 153.907 79.9624 153.489 80.1106C153.071 80.2589 152.691 80.4965 152.374 80.8067C152.058 81.1169 151.813 81.4923 151.657 81.9066C151.486 82.442 151.242 82.9773 151.023 83.5127Z" fill="black"/>
<path d="M156.876 107.798L155.388 106.97C154.362 106.311 153.276 105.748 152.145 105.291C149.706 104.586 148.706 105.437 148.511 107.725C148.275 107.401 148.132 107.019 148.098 106.619C148.064 106.22 148.14 105.819 148.319 105.461C148.497 105.102 148.771 104.799 149.11 104.584C149.45 104.37 149.841 104.253 150.242 104.245C151.537 104.208 152.824 104.447 154.019 104.946C155.213 105.446 156.287 106.194 157.168 107.141L156.876 107.798Z" fill="black"/>
<path d="M160.309 58.1328C156.237 58.8628 152.994 60.2742 152.555 65.0435C152.195 64.5667 152 63.9859 152 63.3889C152 62.7918 152.195 62.211 152.555 61.7342C153.333 60.5269 154.396 59.5278 155.65 58.8238C156.903 58.1198 158.31 57.7322 159.749 57.6948C159.749 57.6948 159.968 57.8408 160.309 58.1328Z" fill="black"/>
<path d="M153.922 91.0319C154.412 89.3148 155.558 87.8581 157.113 86.9753C158.668 86.0925 160.508 85.854 162.238 86.3112C161.089 86.4686 159.955 86.7209 158.848 87.0655C157.839 87.4604 156.894 88.0015 156.043 88.6715C155.286 89.4115 154.577 90.1999 153.922 91.0319Z" fill="black"/>
<path d="M161.092 130.841C160.513 131.975 159.629 132.927 158.54 133.588C157.45 134.25 156.197 134.596 154.922 134.589L161.092 130.841Z" fill="black"/>
<path d="M153.534 113.954C153.491 113.282 153.584 112.608 153.808 111.972C154.032 111.337 154.382 110.753 154.837 110.256C155.293 109.758 155.844 109.357 156.458 109.077C157.072 108.797 157.736 108.643 158.411 108.625C157.263 109.114 156.234 109.843 155.393 110.762C154.552 111.681 153.918 112.77 153.534 113.954Z" fill="black"/>
<path d="M146.9 75.9692C146.547 76.9648 145.88 77.8189 144.998 78.4026C144.876 76.8209 145.242 76.4802 146.9 75.9692Z" fill="black"/>
<path d="M151.387 85.9458L152.825 89.6202C152.231 89.2349 151.772 88.6731 151.514 88.0139C151.255 87.3548 151.211 86.6315 151.387 85.9458Z" fill="black"/>
<path d="M152.361 113.175C151.889 112.959 151.485 112.618 151.193 112.189C150.901 111.76 150.731 111.26 150.703 110.742L152.751 112.664L152.361 113.175Z" fill="black"/>
<path d="M144.435 103.417L143.386 105.851L142.996 105.705L143.972 103.271L144.435 103.417Z" fill="black"/>
<path d="M142.781 114.83C142.824 114.462 143.002 114.124 143.282 113.881C143.562 113.638 143.922 113.508 144.293 113.516C144.342 114.611 143.83 114.903 142.781 114.83Z" fill="black"/>
<g style="mix-blend-mode:multiply">
<path d="M166.139 88.8662C166.139 88.8662 166.627 96.1663 162.115 98.8186C160.815 99.5803 159.325 99.9573 157.818 99.9056C156.311 99.8539 154.85 99.3757 153.605 98.5266L152.312 97.4559L153.093 94.5116C153.923 95.2255 154.896 95.7562 155.946 96.069C157.927 96.2784 159.93 95.9941 161.774 95.2416C163.064 93.8786 164.231 92.4047 165.261 90.8372C165.09 90.5209 166.139 88.8662 166.139 88.8662Z" fill="black" fill-opacity="0.1"/>
</g>
<g style="mix-blend-mode:multiply">
<path d="M161.433 112.688C161.579 114.781 161.433 118.869 158.994 120.135C156.555 121.4 153.239 120.427 151.19 119.526C149.142 118.626 146.898 117.361 146.898 117.361L147.752 114.221L152.434 116.655L156.628 117.482C156.628 117.482 159.555 115.706 159.53 115.365C160.069 114.409 160.707 113.512 161.433 112.688Z" fill="black" fill-opacity="0.1"/>
</g>
<g style="mix-blend-mode:multiply">
<path d="M165.942 60.9067C166.576 63.9553 166.253 67.1248 165.016 69.9832C162.943 74.5822 161.602 74.5822 160.48 74.8499C159.794 75.0396 159.069 75.0396 158.383 74.8499L159.431 70.9078L162.431 69.5208L164.65 65.8464L165.942 60.9067Z" fill="black" fill-opacity="0.1"/>
</g>
<g style="mix-blend-mode:multiply">
<path d="M151.07 96.2145L148.656 90.0825L148.949 89.7661L151.851 93.1728L151.07 96.2145Z" fill="black" fill-opacity="0.1"/>
</g>
<g style="mix-blend-mode:multiply">
<path d="M156.994 74.0227L154.141 70.762L154.775 69.959L157.798 70.981L156.994 74.0227Z" fill="black" fill-opacity="0.1"/>
</g>
<g style="mix-blend-mode:multiply">
<path d="M145.63 116.509L144.703 111.642L144.971 111.326L146.41 113.491L145.63 116.509Z" fill="black" fill-opacity="0.1"/>
</g>
<g style="mix-blend-mode:multiply">
<path d="M166.824 37.6195L163.117 32.7528C164.285 32.9787 165.486 32.9787 166.653 32.7528C167.363 32.5075 168 32.0893 168.506 31.5361L166.824 37.6195Z" fill="black" fill-opacity="0.1"/>
</g>
<path d="M243.001 143.422C242.806 140.112 243.002 136.779 242.855 133.494C242.639 129.694 242.852 125.882 243.489 122.13C244.117 118.106 244.281 114.024 243.977 109.963C243.684 105.559 243.27 101.179 242.806 96.7744C242.19 91.5228 242.595 86.2017 244.001 81.1036C245.043 77.9057 244.852 74.4349 243.465 71.3702C241.666 67.3074 241.04 62.8234 241.66 58.4248C242.197 54.1908 242.757 49.9324 243.196 45.674C243.285 44.4519 243.203 43.2234 242.953 42.024C242.809 41.2954 242.463 40.6217 241.954 40.0796C241.445 39.5376 240.794 39.149 240.075 38.958C238.78 38.5613 237.41 38.4779 236.076 38.7146C233.761 39.2344 231.645 40.4078 229.98 42.0949C228.315 43.7819 227.172 45.9114 226.688 48.229C226.688 48.448 226.687 48.7157 226.956 49.178C227.419 48.521 227.687 48.0587 228.029 47.6207C229.061 45.8862 230.399 44.3528 231.979 43.0947C234.528 41.8656 237.344 41.2886 240.173 41.4156C240.587 41.4156 241.05 41.8537 241.709 42.2187C241.026 42.5837 240.685 42.8513 240.295 42.9973C239.404 43.3338 238.631 43.9233 238.072 44.6931C237.513 45.4628 237.192 46.379 237.149 47.3287C236.82 49.8243 236.82 52.3522 237.149 54.8478C237.231 56.8046 237.837 58.7037 238.905 60.3471C238.946 59.9914 238.946 59.6322 238.905 59.2765C238.089 56.4468 237.719 53.508 237.807 50.5651C237.84 49.0909 238.02 47.6236 238.344 46.185C238.709 44.3357 240.197 43.7517 242.124 42.9973C241.953 45.1873 241.831 47.0124 241.636 48.813C240.885 52.6065 240.46 56.4571 240.368 60.3228C240.368 60.3228 240.368 60.6148 240.368 60.6635C239.344 61.4422 240.1 62.2938 240.368 63.0968C240.582 63.8968 240.745 64.7095 240.855 65.5302C241.029 68.1723 241.656 70.765 242.709 73.1952C243.264 74.5692 243.399 76.076 243.099 77.5266C242.904 78.5486 242.611 79.5463 242.392 80.5683C241.403 84.6845 241.017 88.9221 241.246 93.1488C241.709 99.6945 242.197 106.216 242.66 112.762C242.834 115.212 242.629 117.674 242.05 120.062C241.303 122.853 240.966 125.739 241.05 128.627C241.197 131.79 241.368 134.978 241.465 138.166C241.611 144.468 241.412 150.222 241.997 156.5H244.143C243.387 151.852 243.245 147.899 243.001 143.422Z" fill="black"/>
<path d="M160.165 147.729C160.165 147.729 160.165 147.51 160.165 147.315L161.433 146.415C160.312 146.244 159.312 146.415 158.775 145.466C157.312 142.497 155.776 139.577 154.239 136.633C153.8 135.699 153.312 134.789 152.776 133.907C151.216 131.474 149.582 129.041 147.899 126.607C147.638 126.079 147.433 125.524 147.29 124.953L148.533 124.758L147.363 123.468C146.07 121.984 144.924 120.5 143.51 119.04C141.473 116.906 139.823 114.436 138.632 111.74C137.906 110.383 137.609 108.839 137.779 107.311C138.25 104.826 139.426 102.528 141.169 100.692C141.699 100.049 142.385 99.5532 143.162 99.2507C143.939 98.9482 144.781 98.8497 145.607 98.9644C148.293 99.3338 150.872 100.264 153.174 101.693C155.476 103.123 157.452 105.02 158.97 107.262C159.675 108.236 160.114 109.377 160.242 110.572C160.37 111.767 160.184 112.974 159.702 114.076C159.519 114.933 159.011 115.685 158.283 116.176C157.555 116.666 156.665 116.855 155.8 116.704C152.361 116.309 149.13 114.854 146.558 112.542C146.046 112.056 145.436 111.691 144.875 111.253L144.632 111.666C147.578 115.238 151.767 117.567 156.361 118.188C156.907 118.327 157.48 118.321 158.023 118.172C158.566 118.022 159.06 117.734 159.458 117.336C160.228 116.631 160.842 115.773 161.262 114.818C161.682 113.863 161.898 112.831 161.897 111.788C161.74 109.614 160.885 107.549 159.458 105.899C157.934 104.179 156.305 102.554 154.581 101.033C152.851 99.6491 151.346 98.0076 150.118 96.166C149.484 95.071 148.582 94.0977 147.899 93.0027C145.766 90.081 143.966 86.9306 142.534 83.6099C141.852 82.2993 141.539 80.8282 141.629 79.3538C141.719 77.8794 142.209 76.4573 143.046 75.2392C146.29 70.9322 153.215 69.2775 157.312 74.8255C159.751 78.1592 161.775 81.7119 164.116 85.0699C164.776 86.0387 165.129 87.1833 165.129 88.355C165.129 89.5267 164.776 90.6712 164.116 91.64C163.199 93.2607 161.696 94.4706 159.914 95.0224C158.133 95.5742 156.208 95.4262 154.532 94.6087C152.807 93.4451 151.235 92.0719 149.85 90.5207L148.801 89.5717L148.509 89.9123C149.972 91.5183 151.411 93.1973 152.947 94.779C153.611 95.467 154.411 96.0087 155.298 96.3691C156.184 96.7296 157.136 96.9008 158.093 96.8717C159.627 96.8497 161.125 96.4007 162.417 95.5753C163.71 94.7499 164.746 93.5808 165.408 92.1996C166.18 90.8915 166.506 89.3693 166.339 87.8606C166.172 86.3518 165.521 84.9375 164.482 83.8289C163.332 82.3957 162.273 80.8922 161.311 79.3272C159.701 76.1503 157.519 73.2963 154.873 70.9078C154.873 70.9078 154.873 70.6888 154.873 70.3968L156.727 71.2241C157.422 71.5602 158.185 71.7347 158.958 71.7347C159.731 71.7347 160.494 71.5602 161.189 71.2241C162.973 70.2393 164.403 68.7215 165.278 66.884C166.153 65.0465 166.428 62.9817 166.066 60.9797C165.419 58.11 164.325 55.3593 162.823 52.828C162.531 52.2927 162.214 51.6356 161.189 51.7573C161.531 52.3657 161.775 52.8523 162.043 53.2903C163.539 55.4039 164.547 57.8223 164.994 60.3714C165.297 61.8161 165.167 63.318 164.621 64.6897C164.074 66.0614 163.135 67.2423 161.921 68.0851C160.837 69.0233 159.441 69.5234 158.006 69.4874C156.571 69.4514 155.202 68.8818 154.166 67.8905C151.423 65.52 149.22 62.5912 147.704 59.3007C147.355 58.6007 147.186 57.8251 147.211 57.0436C147.237 56.2621 147.456 55.4992 147.85 54.8233C148.668 53.1264 149.976 51.7122 151.606 50.7626C153.235 49.813 155.112 49.3713 156.995 49.4943C158.642 49.7226 160.272 50.0641 161.872 50.5163C162.287 50.5163 162.701 50.7596 163.116 50.8813L163.433 49.689C161.533 49.0924 159.594 48.6289 157.629 48.302C155.545 48.0079 153.42 48.3336 151.52 49.2381C149.621 50.1427 148.03 51.586 146.948 53.3877C146.429 54.105 146.102 54.9425 145.997 55.821C145.85 57.7974 146.3 59.7724 147.29 61.4907C148.719 64.0647 150.536 66.4038 152.679 68.4258C153.118 68.7908 153.557 69.1558 153.167 69.8128C153.054 69.8364 152.938 69.8364 152.825 69.8128C152.525 69.8369 152.223 69.8369 151.923 69.8128C150.497 69.5795 149.038 69.6566 147.644 70.0388C146.251 70.421 144.957 71.0993 143.851 72.0272C142.329 73.2291 141.209 74.8636 140.639 76.7146C140.068 78.5656 140.075 80.5458 140.657 82.3932C141.775 85.7239 143.422 88.8541 145.534 91.6643C146.778 93.246 147.972 94.9737 148.996 96.6527C149.166 97.0217 149.305 97.4043 149.411 97.7964L146.68 97.188C145.153 96.7841 143.535 96.8998 142.082 97.5168C140.629 98.1339 139.424 99.217 138.657 100.595C138.413 100.96 138.169 101.325 137.95 101.69C136.762 103.678 136.197 105.975 136.327 108.286C136.457 110.597 137.277 112.817 138.681 114.66C140.73 117.093 142.998 119.526 145.144 121.96C145.49 122.351 145.74 122.818 145.875 123.322C146.574 126.307 147.787 129.147 149.46 131.717C150.828 133.682 152.043 135.748 153.093 137.898C156.047 144.526 159.239 150.122 163.5 156H166C163.627 153.187 162.045 150.892 160.165 147.729Z" fill="black"/>
<path d="M233 25.3164H254.856C256.004 25.3164 257.142 25.5425 258.202 25.9818C259.263 26.4211 260.227 27.065 261.038 27.8765C261.849 28.688 262.491 29.6512 262.928 30.7109C263.366 31.7707 263.589 32.9061 263.586 34.0521L263.439 147.519C263.439 148.665 263.213 149.8 262.773 150.859C262.332 151.917 261.687 152.879 260.874 153.688C260.061 154.497 259.095 155.138 258.033 155.575C256.971 156.011 255.834 156.234 254.685 156.231L9.7547 155.939C7.43287 155.939 5.20598 155.018 3.5642 153.38C1.92241 151.742 1 149.52 1 147.203L1.14646 33.7114C1.14645 32.5654 1.373 31.4306 1.81326 30.3721C2.25351 29.3136 2.89889 28.3522 3.71214 27.5429C4.52539 26.7337 5.49058 26.0925 6.55258 25.6562C7.61458 25.2198 8.75236 24.9968 9.90086 25H157" stroke="#D8D8D8" stroke-miterlimit="10"/>
<path d="M98.5453 109.501V109.185H45.8721C44.2511 109.178 42.6988 108.531 41.5558 107.384C40.9823 106.822 40.5273 106.152 40.2174 105.412C39.9075 104.673 39.749 103.879 39.7512 103.077V91.7618C39.764 90.1459 40.413 88.5997 41.5581 87.457C42.7033 86.3144 44.2527 85.6668 45.8721 85.6541H98.5453C100.165 85.6668 101.714 86.3144 102.859 87.457C104.004 88.5997 104.653 90.1459 104.666 91.7618V103.126C104.668 103.927 104.51 104.721 104.2 105.461C103.89 106.201 103.435 106.871 102.862 107.433C101.719 108.579 100.166 109.227 98.5453 109.233V109.866C100.337 109.866 102.055 109.156 103.322 107.892C104.589 106.628 105.3 104.913 105.3 103.126V91.7618C105.3 89.9719 104.589 88.2549 103.323 86.987C102.057 85.719 100.339 85.0035 98.5453 84.9971H45.8721C44.0784 85.0035 42.3601 85.719 41.0941 86.987C39.828 88.2549 39.1172 89.9719 39.1172 91.7618V103.126C39.1172 104.913 39.8288 106.628 41.0956 107.892C42.3623 109.156 44.0806 109.866 45.8721 109.866H98.5453V109.501Z" fill="#1E1E1C"/>
<path d="M98.5453 74.1688V73.8281H45.8721C44.253 73.8281 42.6997 73.1879 41.5525 72.0478C40.4053 70.9076 39.7577 69.3603 39.7512 67.7447V56.3566C39.7577 54.7409 40.4053 53.1937 41.5525 52.0535C42.6997 50.9134 44.253 50.2732 45.8721 50.2732H98.5453C100.164 50.2732 101.718 50.9134 102.865 52.0535C104.012 53.1937 104.66 54.7409 104.666 56.3566V67.7447C104.66 69.3603 104.012 70.9076 102.865 72.0478C101.718 73.1879 100.164 73.8281 98.5453 73.8281V74.4851C100.337 74.4851 102.055 73.7749 103.322 72.5109C104.589 71.2468 105.3 69.5324 105.3 67.7447V56.3566C105.3 54.5689 104.589 52.8545 103.322 51.5904C102.055 50.3264 100.337 49.6162 98.5453 49.6162H45.8721C44.0806 49.6162 42.3623 50.3264 41.0956 51.5904C39.8288 52.8545 39.1172 54.5689 39.1172 56.3566V67.7447C39.1172 69.5324 39.8288 71.2468 41.0956 72.5109C42.3623 73.7749 44.0806 74.4851 45.8721 74.4851H98.5453V74.1688Z" fill="#1E1E1C"/>
<path d="M77.7441 103.077C77.5222 103.33 77.2242 103.505 76.8945 103.575C76.5648 103.645 76.2212 103.607 75.9151 103.466C75.6043 103.319 75.3439 103.083 75.1662 102.789C74.9884 102.495 74.9013 102.155 74.9155 101.811C74.8691 101.282 74.9974 100.752 75.2811 100.303C75.4157 100.113 75.5901 99.9552 75.7919 99.8394C75.9937 99.7237 76.218 99.6529 76.4498 99.6321C76.6816 99.6113 76.9152 99.6409 77.1344 99.7188C77.3537 99.7968 77.5533 99.9213 77.7197 100.084C77.7447 100 77.7863 99.9227 77.8417 99.8553C77.8971 99.788 77.9652 99.7323 78.0423 99.6916C78.1195 99.6508 78.204 99.6258 78.2909 99.6179C78.3778 99.6101 78.4657 99.6195 78.549 99.6458L78.6952 99.8404C78.6952 101.106 78.6952 102.274 78.6952 103.612C78.6952 104.95 77.8905 105.315 76.6712 105.34C76.2914 105.333 75.9141 105.275 75.5493 105.169C75.3054 105.169 75.2323 104.975 75.3055 104.683C75.3787 104.391 75.5249 104.245 75.8663 104.415C76.0654 104.504 76.2825 104.546 76.5004 104.537C77.3295 104.537 77.7685 104.147 77.7441 103.077Z" fill="#030304"/>
<path d="M64.9385 102.006C64.914 102.306 64.914 102.607 64.9385 102.906C64.9614 102.979 64.9669 103.056 64.9545 103.131C64.9421 103.207 64.9121 103.278 64.867 103.339C64.8219 103.401 64.763 103.451 64.695 103.486C64.6269 103.52 64.5517 103.539 64.4753 103.539C63.7276 103.697 62.9549 103.697 62.2073 103.539C61.6482 103.425 61.1468 103.119 60.7903 102.675C60.4339 102.23 60.2451 101.675 60.2566 101.106C60.1789 100.551 60.2754 99.9869 60.5331 99.49C60.7909 98.9931 61.197 98.5883 61.6953 98.3315C62.569 97.9085 63.5706 97.8303 64.4997 98.1125C64.963 98.2342 64.646 98.5262 64.4997 98.7209C64.3534 98.9155 64.4996 99.0372 64.1338 98.9399C63.6007 98.7823 63.0331 98.7823 62.4999 98.9399C62.0377 99.0762 61.6459 99.3847 61.4053 99.8014C61.1647 100.218 61.0937 100.711 61.2074 101.179C61.2433 101.609 61.4376 102.011 61.7527 102.308C62.0678 102.604 62.4816 102.774 62.9146 102.785C63.8412 102.785 63.8412 102.785 63.8412 101.933V101.568C63.8412 101.349 63.8412 101.3 63.5486 101.325H63.3292C63.241 101.339 63.1505 101.327 63.0687 101.291C62.987 101.255 62.9174 101.196 62.8684 101.121C62.8194 101.047 62.7933 100.96 62.7928 100.871C62.7923 100.781 62.8176 100.694 62.8657 100.619H63.0851H64.5726C64.7433 100.619 64.8167 100.619 64.8167 100.862C64.8167 101.106 64.8167 101.641 64.8167 102.03" fill="#020303"/>
<path d="M87.8125 100.887C87.8125 100.084 87.8125 99.2805 87.8125 98.4532C87.8125 98.2585 87.8124 98.1369 88.0563 98.1125C88.7601 98.0152 89.474 98.0152 90.1778 98.1125C90.5701 98.1671 90.9269 98.3684 91.1759 98.6756C91.425 98.9828 91.5477 99.373 91.5192 99.7672C91.5184 100.172 91.3732 100.563 91.1096 100.871C90.8459 101.179 90.4811 101.383 90.0805 101.446C89.7666 101.508 89.4434 101.508 89.1294 101.446C88.8612 101.446 88.8124 101.446 88.8124 101.763C88.8124 102.079 88.8124 102.712 88.8124 103.174C88.8124 103.636 88.8124 103.515 88.5198 103.49C87.8614 103.49 87.8613 103.49 87.8613 102.858V100.741L87.8125 100.887Z" fill="#030404"/>
<path d="M67.6949 103.71C67.4252 103.72 67.1562 103.675 66.9054 103.575C66.6547 103.475 66.4278 103.324 66.2392 103.132C66.0507 102.939 65.9049 102.709 65.8112 102.456C65.7175 102.204 65.6781 101.934 65.6954 101.666C65.6778 101.388 65.7192 101.11 65.8168 100.85C65.9145 100.59 66.0661 100.353 66.2619 100.156C66.4576 99.9582 66.6929 99.8041 66.9525 99.7036C67.2121 99.6032 67.49 99.5586 67.7681 99.5729C68.038 99.5653 68.3064 99.6144 68.5561 99.7169C68.8057 99.8195 69.031 99.9733 69.2172 100.168C69.4034 100.363 69.5466 100.595 69.6372 100.849C69.7279 101.103 69.7638 101.373 69.7432 101.641C69.7569 101.914 69.7135 102.187 69.6158 102.443C69.518 102.699 69.3682 102.931 69.1755 103.125C68.9829 103.32 68.7517 103.472 68.4968 103.573C68.2419 103.674 67.9688 103.72 67.6949 103.71Z" fill="#030304"/>
<path d="M74.3281 101.617C74.3493 101.893 74.3113 102.17 74.2165 102.431C74.1217 102.691 73.9725 102.928 73.7786 103.126C73.5848 103.324 73.3509 103.478 73.0925 103.579C72.834 103.68 72.5569 103.724 72.2798 103.71C72.0089 103.721 71.7389 103.675 71.4874 103.574C71.2359 103.472 71.0088 103.319 70.8218 103.123C70.6347 102.927 70.4919 102.693 70.4027 102.438C70.3134 102.182 70.2801 101.911 70.3047 101.641C70.2871 101.367 70.3277 101.092 70.4241 100.835C70.5205 100.578 70.6703 100.344 70.8638 100.149C71.0572 99.9533 71.29 99.801 71.5466 99.7018C71.8033 99.6025 72.0782 99.5587 72.353 99.573C72.6217 99.5618 72.8896 99.6076 73.1392 99.7074C73.3888 99.8072 73.6146 99.9587 73.8012 100.152C73.9879 100.345 74.1313 100.575 74.2222 100.828C74.313 101.081 74.349 101.349 74.3281 101.617Z" fill="#020303"/>
<path d="M100.031 102.517C100.299 101.666 100.519 100.863 100.762 100.084C100.762 100.084 100.762 99.719 100.957 99.6946C101.257 99.6582 101.56 99.6582 101.86 99.6946C101.982 99.6946 101.86 99.8406 101.86 99.8893C101.372 101.179 100.982 102.493 100.397 103.734C100.265 104.093 100.061 104.421 99.7965 104.697C99.5321 104.973 99.2134 105.192 98.8603 105.34C98.6164 105.34 98.4944 105.34 98.4212 105.121C98.3481 104.902 98.2505 104.513 98.7138 104.367C98.9588 104.276 99.1656 104.104 99.2994 103.88C99.3717 103.772 99.4101 103.645 99.4101 103.515C99.4101 103.385 99.3717 103.258 99.2994 103.15C98.8604 102.104 98.4702 101.033 98.0313 99.9867C98.0313 99.719 98.0312 99.646 98.2506 99.646C99.031 99.646 99.0311 99.646 99.2505 100.376C99.47 101.106 99.7137 101.739 99.9575 102.517" fill="#030304"/>
<path d="M96.5196 103.247C96.2204 103.541 95.8177 103.707 95.3976 103.709C95.1333 103.733 94.8687 103.667 94.6472 103.521C94.4256 103.375 94.2602 103.158 94.1783 102.906C94.0927 102.653 94.0916 102.378 94.1751 102.124C94.2586 101.87 94.4224 101.649 94.6418 101.495C95.0786 101.212 95.5842 101.052 96.1049 101.033C96.1049 101.033 96.4464 101.033 96.4708 100.911C96.4789 100.825 96.4625 100.738 96.4237 100.661C96.3849 100.583 96.3254 100.518 96.2514 100.473C96.1228 100.39 95.9785 100.335 95.8275 100.31C95.6765 100.284 95.5218 100.29 95.3732 100.327C95.2359 100.305 95.0961 100.305 94.9589 100.327C94.8125 100.327 94.6173 100.619 94.5198 100.327C94.4222 100.035 94.5197 99.8648 94.7636 99.7431C95.284 99.5818 95.8343 99.5402 96.3731 99.6214C96.6358 99.664 96.8785 99.7879 97.0667 99.9757C97.2549 100.164 97.3792 100.406 97.4218 100.668C97.4707 101.6 97.4707 102.534 97.4218 103.466V103.612C97.2458 103.675 97.0528 103.673 96.8783 103.606C96.7037 103.539 96.5591 103.412 96.4708 103.247" fill="#030404"/>
<path d="M83.9101 101.933H82.8614C82.6175 101.933 82.5932 101.933 82.6664 102.225C82.7202 102.422 82.838 102.596 83.0013 102.719C83.1645 102.843 83.3639 102.908 83.5686 102.907C83.9375 102.994 84.3215 102.994 84.6903 102.907C84.8366 102.907 85.0073 102.907 84.9829 103.077C84.9585 103.247 85.2511 103.491 84.9829 103.612C84.3094 103.832 83.5836 103.832 82.9102 103.612C82.6615 103.499 82.4376 103.339 82.2514 103.139C82.0652 102.94 81.9203 102.705 81.8251 102.45C81.7299 102.194 81.6864 101.923 81.6968 101.65C81.7073 101.378 81.7717 101.11 81.8862 100.863C82.0123 100.401 82.3169 100.009 82.7331 99.7713C82.9391 99.6538 83.1662 99.578 83.4016 99.5481C83.6371 99.5182 83.8761 99.5349 84.1051 99.5972C84.334 99.6596 84.5485 99.7662 84.7361 99.9113C84.9238 100.056 85.081 100.237 85.1987 100.442C85.3165 100.648 85.3926 100.875 85.4226 101.11C85.4525 101.345 85.4356 101.583 85.3732 101.812C85.3732 102.006 85.2269 101.982 85.105 101.982H83.9101" fill="#030404"/>
<path d="M80.814 100.79C80.814 101.593 80.814 102.42 80.814 103.223C80.814 103.515 80.814 103.661 80.4238 103.637C80.0336 103.612 79.7656 103.637 79.7656 103.004C79.7656 101.422 79.7656 99.8648 79.7656 98.3075C79.7656 97.9181 79.7655 97.7965 80.2532 97.8451H80.4726C80.7165 97.8451 80.814 97.8451 80.814 98.1858C80.814 99.0618 80.814 99.9135 80.814 100.79Z" fill="#050606"/>
<path d="M92.3006 100.716C92.3006 99.8647 92.3006 99.0374 92.3006 98.2831C92.3006 98.0397 92.3006 97.9424 92.6176 97.9424C93.3248 97.9424 93.3249 97.9424 93.3249 98.6481C93.3249 100.205 93.3249 101.763 93.3249 103.32C93.3249 103.636 93.3248 103.782 92.9102 103.709H92.6908C92.3738 103.709 92.2521 103.709 92.2765 103.32C92.2765 102.468 92.2765 101.641 92.2765 100.887" fill="#040506"/>
<path d="M78.1075 96.3365C78.1075 96.5312 77.8636 96.4825 77.7417 96.4582C77.6198 96.4338 77.7417 96.2879 77.7417 96.1905C77.7417 95.2902 77.7417 94.3655 77.7417 93.4652C77.7417 93.4652 77.7417 93.1488 77.7417 93.1245C77.7417 93.1002 78.1077 93.1245 78.2296 93.3192C78.6441 94.0248 79.0829 94.7062 79.5218 95.4119C79.5718 95.5258 79.6376 95.6323 79.7171 95.7282C79.7171 94.9252 79.7171 94.2439 79.7171 93.5625C79.7171 93.4165 79.5463 93.1002 79.9365 93.1245C80.3266 93.1488 80.1071 93.4165 80.1315 93.5868V96.0202C80.1315 96.1419 80.1316 96.3609 79.9853 96.4095C79.9009 96.4266 79.8133 96.417 79.7346 96.3821C79.656 96.3472 79.5901 96.2888 79.5462 96.2149C79.0829 95.4119 78.5953 94.6332 78.1075 93.7815C78.1075 94.5602 78.1075 95.3389 78.1075 96.2149" fill="#080909"/>
<path d="M75.5723 96.6283C75.3586 96.6297 75.1472 96.5858 74.9517 96.4996C74.7562 96.4133 74.5811 96.2867 74.4382 96.128C74.2953 95.9694 74.1877 95.7823 74.1227 95.5791C74.0576 95.3759 74.0363 95.1613 74.0604 94.9493C74.0366 94.7298 74.0592 94.5077 74.1265 94.2974C74.1939 94.0871 74.3046 93.8931 74.4516 93.7281C74.5986 93.5631 74.7788 93.4306 74.9803 93.3392C75.1817 93.2478 75.3999 93.1994 75.6212 93.1973C75.8349 93.1959 76.0466 93.2398 76.2421 93.3261C76.4376 93.4123 76.6127 93.5389 76.7556 93.6976C76.8985 93.8563 77.0061 94.0434 77.0712 94.2466C77.1362 94.4497 77.1572 94.6644 77.1331 94.8763C77.1609 95.0966 77.1412 95.3202 77.0753 95.5322C77.0094 95.7442 76.8989 95.9398 76.7511 96.1057C76.6034 96.2716 76.4216 96.404 76.2183 96.4942C76.015 96.5843 75.7948 96.6301 75.5723 96.6283Z" fill="#050607"/>
<path d="M62.8914 95.5332C62.8914 96.4093 62.8913 96.4822 61.9159 96.5066C61.6857 96.5354 61.452 96.5135 61.2312 96.4423C61.0104 96.3711 60.808 96.2524 60.6383 96.0946C60.4685 95.9368 60.3354 95.7437 60.2486 95.5289C60.1618 95.3142 60.1233 95.0831 60.1358 94.8519C60.1219 94.6203 60.157 94.3883 60.2388 94.1711C60.3205 93.9539 60.447 93.7562 60.6103 93.591C60.7736 93.4258 60.9698 93.2967 61.1863 93.2121C61.4028 93.1275 61.6348 93.0892 61.8671 93.0999H62.5011C62.6474 93.0999 62.7937 93.0999 62.7449 93.3676C62.6962 93.6352 62.5254 93.5136 62.4279 93.3676C62.2418 93.3425 62.0532 93.3425 61.8671 93.3676C61.5114 93.3676 61.1702 93.5086 60.9187 93.7595C60.6671 94.0105 60.526 94.351 60.526 94.7059C60.526 95.0609 60.6671 95.4013 60.9187 95.6523C61.1702 95.9032 61.5114 96.0442 61.8671 96.0442C62.1841 96.0442 62.3794 96.0442 62.355 95.5576C62.3306 95.0709 62.3548 94.8276 61.8427 94.9492C61.8427 94.9492 61.6477 94.9492 61.6477 94.7789C61.6477 94.6086 61.6476 94.5842 61.8183 94.6086C62.6718 94.6086 62.672 94.6086 62.672 95.4359" fill="#070808"/>
<path d="M63.5234 94.7789C63.5234 94.3409 63.5234 93.9029 63.5234 93.4406C63.5234 92.9782 63.5235 93.0999 63.8649 93.0999H65.0353C65.0353 93.0999 65.328 93.0999 65.3524 93.2702C65.3767 93.4406 65.1572 93.4406 65.0109 93.4649H64.5719C63.9622 93.4649 63.9866 93.4649 63.9622 94.0732C63.9378 94.6816 63.9623 94.5599 64.3769 94.5113H65.0842C65.2305 94.5113 65.2547 94.5113 65.2547 94.7303C65.2547 94.9493 65.2548 94.9006 65.0597 94.9006H64.4013C64.133 94.9006 64.0843 94.9006 64.0843 95.2656C64.0843 96.093 64.0842 96.0929 64.8889 96.0929H65.4012L65.5473 96.2633C65.5473 96.2633 65.5475 96.4823 65.4012 96.4823H63.7916C63.6209 96.4823 63.6452 96.3363 63.6452 96.2146L63.5234 94.7789Z" fill="#0E0E0F"/>
<path d="M66.6718 94.9495C66.6718 94.5845 66.6718 94.2195 66.6718 93.8788C66.6718 93.5382 66.6717 93.4652 66.2815 93.4895H65.8424C65.8424 93.4895 65.6719 93.4895 65.6719 93.3192C65.6719 93.1488 65.6717 93.1245 65.818 93.1245H68.0128V93.2949C68.0128 93.2949 68.013 93.4895 67.8667 93.4895C67.0863 93.4895 67.0861 93.4895 67.0861 94.3412V96.1662C67.0861 96.3365 67.0862 96.4826 66.8668 96.4826C66.6473 96.4826 66.623 96.3365 66.623 96.1662V94.9495" fill="#161818"/>
<path d="M71.3788 94.9982C71.3788 94.6089 71.3788 94.2438 71.3788 93.8788C71.3788 93.5138 71.3787 93.4409 70.9885 93.4895H70.5498C70.5498 93.4895 70.3789 93.4895 70.3789 93.3192C70.3789 93.1488 70.3791 93.1245 70.5498 93.1245H72.6469C72.7932 93.1245 72.8419 93.1245 72.8419 93.3192C72.8419 93.5139 72.842 93.4895 72.6225 93.4895C72.403 93.4895 72.013 93.3435 71.8667 93.4895C71.8168 93.7385 71.8168 93.9949 71.8667 94.2439V95.9715C71.8667 96.1419 71.8665 96.3609 71.6226 96.3609C71.3787 96.3609 71.4032 96.1419 71.4032 95.9959V94.8765" fill="#161718"/>
<path d="M69.5743 94.8034V93.3678C69.5743 93.2218 69.5742 93.1001 69.7937 93.1001C70.0132 93.1001 70.0134 93.1001 70.0134 93.3921V96.2391C70.0134 96.4338 70.0131 96.4825 69.7693 96.4825C69.5254 96.4825 69.5743 96.3608 69.5743 96.2391V94.8034Z" fill="#171818"/>
<path d="M78.1092 96.3362C78.1092 95.5332 78.1092 94.7058 78.1092 93.9028C78.073 94.47 78.073 95.039 78.1092 95.6062C78.1092 95.8495 78.1092 96.0928 78.1092 96.3362Z" fill="#A2A3A2"/>
<path d="M45.7478 57.2079C46.6334 56.7967 47.6381 56.719 48.5767 56.9889C49.3038 57.2345 50.0565 57.3978 50.8202 57.4756C50.9711 57.5224 51.1326 57.5224 51.2834 57.4756H51.1373L53.1612 56.8672C53.9281 56.6988 54.727 56.7511 55.4652 57.0182C56.2034 57.2853 56.8505 57.7561 57.3311 58.3759C57.4774 58.5706 57.3311 58.6192 57.3311 58.7166C56.8333 59.1355 56.4124 59.6378 56.0874 60.2009C55.5978 61.1229 55.4895 62.1995 55.7858 63.2002C56.0821 64.2008 56.7594 65.0459 57.6725 65.5543C57.9895 65.7246 58.0382 65.8706 57.8919 66.187C57.4436 67.3241 56.8181 68.3835 56.0385 69.326C55.6844 69.8327 55.1657 70.2016 54.5701 70.3701C53.9745 70.5387 53.3389 70.4965 52.7709 70.2507C51.9412 69.8374 50.9956 69.7173 50.0886 69.91C49.7228 69.91 49.3568 70.1533 49.0154 70.275C48.5598 70.4744 48.0542 70.53 47.566 70.4344C47.0778 70.3387 46.6304 70.0962 46.2842 69.7397C45.5382 69.0402 44.9194 68.2168 44.4553 67.3063C44.4553 67.3063 44.4553 67.1116 44.4553 67.063C43.7721 65.9159 43.3679 64.6251 43.2747 63.294C43.1816 61.9629 43.4021 60.6286 43.9189 59.3979C44.2565 58.5553 44.889 57.8636 45.699 57.4512C45.699 57.4512 45.8943 57.4512 45.9187 57.4512" fill="#5F5F5F"/>
<path d="M66.645 67.7444C66.645 68.3527 66.645 68.8881 66.645 69.4234C66.645 69.9587 66.6449 69.7397 66.3279 69.7397C65.6207 69.7397 65.6206 69.7398 65.6206 69.0341C65.6206 67.5497 65.6206 66.0654 65.6206 64.581C65.6206 64.4107 65.4743 64.0944 65.8644 64.1674C66.2546 64.2404 66.5473 63.924 66.5229 64.508V64.7027C66.6701 64.5176 66.8549 64.3655 67.065 64.2565C67.2751 64.1475 67.5058 64.0839 67.7422 64.07C67.9696 64.0636 68.1961 64.1018 68.4087 64.1827C68.6212 64.2636 68.8155 64.3855 68.9808 64.5414C69.1462 64.6974 69.2791 64.8843 69.372 65.0915C69.4649 65.2987 69.516 65.5221 69.5223 65.749C69.5872 66.008 69.5996 66.2774 69.5583 66.5412C69.517 66.805 69.4231 67.0578 69.2821 67.2847C69.1411 67.5116 68.9557 67.708 68.7373 67.8622C68.5189 68.0164 68.2718 68.1253 68.0104 68.1824C67.7605 68.2299 67.5026 68.2148 67.26 68.1384C67.0173 68.0619 66.7978 67.9265 66.6205 67.7444" fill="#030304"/>
<path d="M71.4032 67.7929V69.3503C71.4032 69.6179 71.4032 69.7639 71.0618 69.7153H70.7203C70.4521 69.7153 70.3789 69.7153 70.3789 69.3989C70.3789 67.7686 70.3789 66.1626 70.3789 64.5322C70.3789 64.3619 70.3792 64.0942 70.6474 64.1672C70.9157 64.2402 71.3058 63.9239 71.2571 64.5079V64.7026C71.5139 64.4475 71.8212 64.2486 72.1593 64.1186C72.5289 64.0087 72.9258 64.0371 73.2759 64.1983C73.626 64.3596 73.9052 64.6427 74.0612 64.9946C74.2172 65.3214 74.2981 65.6789 74.2981 66.0409C74.2981 66.4029 74.2172 66.7604 74.0612 67.0873C73.9639 67.3488 73.8048 67.5829 73.5971 67.7696C73.3894 67.9564 73.1392 68.0901 72.8684 68.1595C72.5976 68.2288 72.3142 68.2317 72.042 68.1679C71.7699 68.104 71.5171 67.9754 71.3056 67.7929" fill="#020303"/>
<path d="M60.1328 68.1095C60.7018 66.3413 61.2625 64.5893 61.8153 62.8535C61.818 62.8191 61.8281 62.7856 61.8448 62.7554C61.8614 62.7251 61.8847 62.6988 61.9123 62.6781C61.94 62.6573 61.9717 62.6427 62.0055 62.6352C62.0393 62.6277 62.0743 62.6275 62.1082 62.6345C63.1568 62.6345 63.1566 62.6345 63.4737 63.5592C63.937 64.9948 64.3761 66.3818 64.8394 67.7932C64.8394 68.0852 64.8392 68.1339 64.5953 68.1339C63.8881 68.1339 63.8881 68.1339 63.6442 67.4525C63.4004 66.7712 63.3763 66.5765 62.4008 66.5765C61.4254 66.5765 61.6448 66.5765 61.4253 67.2822C61.2059 67.9879 61.1326 68.1825 60.1328 68.1095Z" fill="#030304"/>
<path d="M76.8654 67.0389C77.3154 67.2747 77.821 67.3841 78.3285 67.3553C78.7186 67.3553 79.0603 67.2093 79.1578 66.7956C79.1981 66.6153 79.1706 66.4266 79.0807 66.2651C78.9908 66.1037 78.8446 65.9807 78.6699 65.9196C78.3529 65.7736 78.0114 65.6763 77.7188 65.5059C77.3862 65.3901 77.1056 65.1601 76.927 64.8571C76.7484 64.5541 76.6835 64.1977 76.7436 63.8513C76.8266 63.5066 77.018 63.1975 77.2902 62.9697C77.5624 62.7419 77.9009 62.6074 78.2555 62.5859C78.7372 62.4772 79.237 62.4772 79.7186 62.5859C80.1819 62.7319 79.7186 63.0239 79.7186 63.2429C79.7186 63.4619 79.5479 63.4862 79.3528 63.4132C79.002 63.2524 78.6084 63.2097 78.2311 63.2916C78.0935 63.3009 77.963 63.3565 77.8611 63.4493C77.7592 63.5421 77.6918 63.6667 77.67 63.8026C77.6361 63.9444 77.6547 64.0937 77.7218 64.2232C77.7889 64.3528 77.9002 64.4539 78.0358 64.5083C78.5025 64.7026 78.9586 64.9219 79.4016 65.1653C79.635 65.2966 79.8291 65.4875 79.9642 65.7184C80.0993 65.9493 80.1705 66.2119 80.1705 66.4793C80.1705 66.7467 80.0993 67.0092 79.9642 67.2401C79.8291 67.471 79.635 67.6619 79.4016 67.7933C78.9357 68.032 78.4112 68.1333 77.8897 68.0853H77.5482C76.4265 67.8176 76.5727 67.9636 76.8654 66.9903" fill="#030304"/>
<path d="M83.5942 66.1873C83.563 65.9051 83.5919 65.6195 83.6788 65.3492C83.7656 65.0789 83.9086 64.8298 84.0985 64.6184C84.2883 64.4069 84.5207 64.2378 84.7805 64.122C85.0402 64.0061 85.3214 63.9463 85.6059 63.9463C85.8904 63.9463 86.1719 64.0061 86.4317 64.122C86.6914 64.2378 86.9238 64.4069 87.1137 64.6184C87.3035 64.8298 87.4465 65.0789 87.5334 65.3492C87.6203 65.6195 87.6491 65.9051 87.6179 66.1873C87.6424 66.4664 87.607 66.7474 87.514 67.0118C87.4211 67.2761 87.2727 67.5176 87.0788 67.7203C86.885 67.9229 86.6503 68.0819 86.39 68.1869C86.1297 68.2918 85.8501 68.3401 85.5696 68.3287C85.3021 68.3434 85.0346 68.3009 84.7849 68.2039C84.5353 68.1069 84.3094 67.9578 84.1223 67.7665C83.9352 67.5752 83.7912 67.3461 83.7002 67.0948C83.6091 66.8434 83.5729 66.5755 83.5942 66.309" fill="#020303"/>
<path d="M93.2763 66.4303H92.2279C91.9596 66.4303 91.9351 66.4303 92.0326 66.7467C92.0962 66.9541 92.226 67.1352 92.402 67.2626C92.578 67.3899 92.7907 67.4566 93.0081 67.4524C93.322 67.5146 93.6452 67.5146 93.9592 67.4524C94.1786 67.4524 94.325 67.4523 94.3494 67.647C94.3738 67.8417 94.3495 68.1094 94.1056 68.158C93.5982 68.2553 93.0768 68.2553 92.5693 68.158C92.1388 68.1656 91.7161 68.0423 91.3575 67.8045C90.9989 67.5667 90.7212 67.2257 90.5615 66.8267C90.4018 66.4277 90.3676 65.9897 90.4632 65.5708C90.5589 65.1519 90.7801 64.772 91.0973 64.4815C91.4145 64.191 91.8127 64.0038 92.2392 63.9445C92.6656 63.8853 93.1003 63.957 93.485 64.15C93.8696 64.343 94.1862 64.6482 94.3929 65.0251C94.5996 65.4019 94.6865 65.8327 94.642 66.26C94.642 66.4303 94.5202 66.4303 94.3982 66.4303H93.2763Z" fill="#030304"/>
<path d="M53.965 53.412C53.8874 54.2702 53.5385 55.0815 52.9687 55.7288C52.3988 56.3761 51.6378 56.826 50.795 57.0134C50.5024 57.0134 50.4292 57.0134 50.4536 56.6727C50.4559 55.7662 50.7692 54.8878 51.3415 54.1839C51.9139 53.4799 52.7106 52.9928 53.5991 52.8037C53.843 52.8037 53.9406 52.8037 53.9406 53.047C53.9519 53.1684 53.9519 53.2906 53.9406 53.412" fill="#5F5F5F"/>
<path d="M81.1818 66.0409V65.4325C81.1818 65.1649 81.1817 64.8729 80.7916 64.8972C80.4014 64.9215 80.7917 64.5565 80.6454 64.3862C80.4991 64.2159 80.6453 64.1185 80.8404 64.1429C81.0355 64.1672 81.2062 63.9969 81.1818 63.7535C81.1574 63.5102 81.1818 63.3642 81.1818 63.2669C81.4498 63.1653 81.7276 63.0919 82.0108 63.0479V63.2669C82.0108 63.9725 82.011 63.9969 82.7425 64.0212C83.0352 64.0212 82.9863 64.1915 82.9619 64.3619C82.9375 64.5322 83.1083 64.7999 82.7425 64.7999C82.3767 64.7999 82.1816 64.7999 82.0597 64.7999C81.9377 64.7999 82.0597 65.2865 82.0597 65.5299C82.0597 65.7732 82.0597 66.2112 82.0597 66.5519C82.0597 66.8926 82.206 67.1846 82.6693 67.1602C83.1326 67.1359 82.9863 67.1602 82.9375 67.3792C82.8887 67.5982 83.1327 67.8659 82.7425 67.9632C82.5466 68.0424 82.3337 68.0704 82.124 68.0446C81.9142 68.0188 81.7143 67.9401 81.5435 67.8159C81.3727 67.6917 81.2365 67.5261 81.1476 67.3348C81.0587 67.1434 81.0199 66.9326 81.0354 66.7222L81.1818 66.0409Z" fill="#040505"/>
<path d="M89.3222 64.9949C89.4022 64.7844 89.537 64.599 89.7127 64.4579C89.8885 64.3167 90.0989 64.2249 90.3221 64.1919C90.5416 64.1919 90.6879 64.1919 90.6635 64.4839C90.639 64.6289 90.639 64.7769 90.6635 64.9219C90.6635 65.1166 90.6636 65.1409 90.4197 65.1409C90.2843 65.1286 90.1476 65.147 90.0202 65.1947C89.8929 65.2425 89.778 65.3183 89.6842 65.4166C89.5904 65.5149 89.52 65.6331 89.4785 65.7623C89.4369 65.8915 89.4253 66.0285 89.4442 66.1629C89.4442 66.7469 89.4442 67.3309 89.4442 67.8906C89.4442 68.4503 89.4442 68.3043 89.0784 68.2556H88.7858C88.5419 68.2556 88.4688 68.2556 88.4688 67.9393C88.4688 66.8199 88.4688 65.6519 88.4688 64.5326C88.4688 64.3379 88.4687 64.2892 88.7125 64.2649C89.3222 64.2649 89.3223 64.2649 89.3954 64.9949" fill="#050606"/>
<path d="M79.7887 59.7143V57.6946C79.7887 57.5243 79.7886 57.354 80.0081 57.3783C80.2276 57.4026 80.2031 57.573 80.2031 57.719V60.347C80.2031 60.347 80.2031 60.6633 80.2031 60.712C80.1152 60.7392 80.0205 60.7347 79.9358 60.699C79.851 60.6634 79.7817 60.5991 79.7399 60.5173L78.228 58.084V60.5173C78.228 60.6877 78.2278 60.8337 78.0083 60.858C77.7888 60.8823 77.8133 60.6633 77.8133 60.5173C77.8133 59.6413 77.8133 58.7653 77.8133 57.8893C77.8133 57.8893 77.8133 57.5486 77.8133 57.5C77.8133 57.4513 78.2278 57.5 78.3009 57.7433L78.4718 57.938C78.6669 57.938 78.6912 58.2056 78.74 58.376L79.6911 60.0063C79.9105 60.0063 79.6911 60.0063 79.6911 59.836" fill="#070808"/>
<path d="M75.5696 60.7849C75.3559 60.7792 75.1457 60.7297 74.9519 60.6395C74.7581 60.5493 74.5849 60.4204 74.4432 60.2607C74.3014 60.101 74.1942 59.9139 74.1279 59.711C74.0616 59.5082 74.0376 59.2939 74.0577 59.0815C74.0411 58.8622 74.0685 58.6418 74.1383 58.4331C74.2082 58.2245 74.319 58.0319 74.4643 57.8665C74.6096 57.7011 74.7868 57.5662 74.9849 57.4698C75.1831 57.3735 75.3983 57.3175 75.6184 57.3052C75.8344 57.3106 76.0471 57.3608 76.2426 57.4524C76.4382 57.5441 76.6125 57.6753 76.7546 57.8377C76.8968 58.0001 77.0037 58.1902 77.0684 58.3959C77.1331 58.6017 77.154 58.8186 77.1303 59.0329C77.1542 59.2524 77.1316 59.4745 77.0642 59.6848C76.9969 59.8951 76.8862 60.089 76.7392 60.2541C76.5922 60.4191 76.4122 60.5516 76.2108 60.643C76.0094 60.7345 75.7909 60.7828 75.5696 60.7849Z" fill="#070808"/>
<path d="M62.8896 59.7875C62.8896 60.6635 62.8896 60.7608 61.9142 60.7608C61.6882 60.7889 61.4589 60.768 61.2417 60.6996C61.0245 60.6312 60.8245 60.5169 60.6556 60.3645C60.4866 60.2121 60.3526 60.0251 60.2626 59.8164C60.1726 59.6076 60.1288 59.382 60.134 59.1548C60.1094 58.9227 60.1352 58.688 60.2093 58.4666C60.2835 58.2452 60.4044 58.0423 60.5639 57.8716C60.7234 57.7009 60.9178 57.5663 61.1339 57.4771C61.3501 57.3878 61.5827 57.3459 61.8165 57.3541C62.0753 57.3169 62.3383 57.3169 62.597 57.3541C62.7433 57.3541 62.7676 57.3541 62.7432 57.6218C62.7273 57.638 62.7085 57.6508 62.6875 57.6596C62.6666 57.6684 62.6441 57.6729 62.6214 57.6729C62.5987 57.6729 62.5763 57.6684 62.5554 57.6596C62.5344 57.6508 62.5153 57.638 62.4994 57.6218C62.3785 57.5988 62.2544 57.5988 62.1335 57.6218C61.9345 57.5898 61.7311 57.603 61.5379 57.6604C61.3447 57.7178 61.1669 57.8179 61.0178 57.9532C60.8688 58.0886 60.7521 58.2557 60.6767 58.4422C60.6013 58.6287 60.5689 58.8298 60.582 59.0305C60.5952 59.2312 60.6535 59.4263 60.7526 59.6014C60.8518 59.7765 60.9893 59.9271 61.1548 60.0419C61.3203 60.1568 61.5094 60.2329 61.7085 60.2647C61.9075 60.2964 62.1113 60.283 62.3044 60.2255C62.5483 60.2255 62.3043 59.9335 62.4506 59.7875C62.5969 59.6415 62.4507 59.0575 61.963 59.1791C61.963 59.1791 61.768 59.1791 61.768 59.0331C61.768 58.8871 61.7679 58.8141 61.9386 58.8385C62.8165 58.8385 62.8164 58.8385 62.8164 59.6658" fill="#090A0B"/>
<path d="M63.5234 59.0333V57.6949C63.5234 57.4759 63.5234 57.4272 63.7916 57.4272H65.0842C65.2305 57.4272 65.3524 57.4273 65.3524 57.6219C65.3524 57.8166 65.2061 57.7923 65.0842 57.7923C64.9622 57.7923 64.5231 57.7923 64.2548 57.7923C63.9866 57.7923 63.9622 57.7923 63.9622 58.0843C63.9622 58.8386 63.9623 58.8143 64.6939 58.8386C64.889 58.8386 65.2303 58.6683 65.2303 59.0089C65.2303 59.3496 64.889 59.2036 64.6939 59.2036C63.9623 59.2036 63.9866 59.2036 63.9622 59.9579C63.9622 60.2986 63.9623 60.4446 64.3769 60.3959C64.7914 60.3473 64.8891 60.3959 65.1574 60.3959C65.4256 60.3959 65.4256 60.3959 65.4256 60.5663C65.4256 60.7366 65.4254 60.7853 65.1815 60.7853C64.7022 60.7609 64.2221 60.7609 63.7428 60.7853C63.5477 60.7853 63.5234 60.7853 63.5234 60.5176V59.0333Z" fill="#0C0E0E"/>
<path d="M71.3788 59.2278V58.0598C71.3788 57.8164 71.3788 57.7191 71.0618 57.7434C70.8913 57.7556 70.7203 57.7556 70.5498 57.7434C70.4035 57.7434 70.3789 57.7434 70.3789 57.5731C70.3789 57.4027 70.3791 57.3784 70.5498 57.3784H72.6713C72.6713 57.3784 72.8419 57.3784 72.8419 57.5488C72.8419 57.7191 72.842 57.7677 72.6469 57.7434C71.9153 57.7434 71.9152 57.7434 71.9152 58.4978V60.3958C71.9152 60.5661 71.9153 60.7364 71.6958 60.7364C71.4764 60.7364 71.452 60.5661 71.452 60.3958L71.3788 59.2278Z" fill="#151717"/>
<path d="M66.6718 59.2278V58.0598C66.6718 57.8164 66.6718 57.7191 66.3547 57.7434C66.1843 57.7556 66.0129 57.7556 65.8424 57.7434C65.8424 57.7434 65.6719 57.7434 65.6719 57.5731C65.6719 57.4027 65.6717 57.3784 65.8424 57.3784H67.964C67.964 57.3784 68.1593 57.3784 68.1593 57.5488C68.1593 57.7191 68.1591 57.7677 67.9884 57.7434C67.2324 57.7434 67.2326 57.7434 67.2326 58.5708V60.3958C67.2326 60.5661 67.2327 60.7364 66.9888 60.7364C66.7449 60.7364 66.7691 60.5661 66.7691 60.3958L66.6718 59.2278Z" fill="#151517"/>
<path d="M70.0134 59.0575V60.4445C70.0134 60.6392 70.0131 60.7365 69.7693 60.7365C69.5254 60.7365 69.5743 60.5662 69.5743 60.4445V57.6948C69.5743 57.5488 69.5742 57.4028 69.7693 57.4028C69.9644 57.4028 70.0134 57.4028 70.0134 57.6948V59.0819" fill="#161818"/>
<path d="M88.2266 67.3062V65.1162H88.2751V67.3549L88.2266 67.3062Z" fill="#F9F8F7"/>
<path d="M78.7409 58.2544C78.6156 58.1336 78.5233 57.9828 78.4727 57.8164C78.4727 57.8164 78.7166 57.8164 78.8385 57.8164C78.9604 57.8164 78.8385 58.0597 78.8385 58.1814" fill="#F2F2F2"/>
<path d="M45.7467 57.208C45.7262 57.2294 45.7016 57.2463 45.6744 57.258C45.6471 57.2696 45.618 57.2755 45.5883 57.2755C45.5587 57.2755 45.5293 57.2696 45.502 57.258C45.4748 57.2463 45.4502 57.2294 45.4297 57.208H45.7467Z" fill="#5C5A5A"/>
<path d="M44.2578 66.9413L44.4035 66.917L44.3792 67.1847L44.2578 66.9413Z" fill="#5C5B5B"/>
<path d="M77.7155 101.617V101.885C77.7155 102.444 77.4475 102.785 76.9841 102.834C76.7582 102.869 76.5273 102.815 76.3406 102.683C76.1538 102.552 76.0259 102.352 75.9842 102.128C75.8386 101.735 75.8386 101.304 75.9842 100.911C76.0592 100.722 76.1967 100.563 76.3739 100.461C76.5511 100.359 76.7576 100.321 76.9597 100.352C77.1574 100.397 77.3333 100.508 77.4577 100.668C77.5822 100.828 77.6477 101.025 77.6426 101.228C77.6547 101.357 77.6547 101.487 77.6426 101.617H77.7155Z" fill="white"/>
<path d="M89.3954 98.8672C90.2489 98.8672 90.7368 99.4755 90.4441 100.206C90.2825 100.446 90.0507 100.631 89.7803 100.735C89.5099 100.84 89.2138 100.859 88.9322 100.79C88.7859 100.79 88.9322 100.619 88.9322 100.498C88.9322 100.376 88.9322 99.7918 88.9322 99.4268C88.9322 99.0618 88.9322 98.8672 89.493 98.8672" fill="white"/>
<path d="M66.8438 101.738C66.8438 100.862 67.234 100.327 67.8192 100.327C68.4045 100.327 68.7947 100.838 68.7947 101.617C68.8185 101.803 68.8185 101.991 68.7947 102.176C68.7517 102.388 68.6441 102.581 68.4869 102.729C68.3298 102.877 68.1305 102.973 67.9166 103.004C67.6926 102.986 67.4806 102.896 67.3132 102.747C67.1457 102.597 67.0323 102.397 66.9902 102.176C66.9902 102.006 66.9902 101.836 66.9902 101.738" fill="white"/>
<path d="M73.2781 101.641C73.2781 102.444 72.8635 102.98 72.3271 103.004C71.7906 103.028 71.3516 102.444 71.3516 101.641V101.301C71.3516 100.668 71.8394 100.279 72.3515 100.327C72.8636 100.376 73.1805 100.79 73.2293 101.422L73.2781 101.641Z" fill="white"/>
<path d="M96.4956 102.079C96.4956 102.59 96.2761 102.906 95.8615 102.979C95.7384 103.028 95.6009 103.028 95.4781 102.978C95.3553 102.928 95.2567 102.833 95.2031 102.712C95.1274 102.584 95.1029 102.433 95.1346 102.289C95.1663 102.144 95.2516 102.017 95.3737 101.933C95.6562 101.753 95.9919 101.676 96.3247 101.714C96.6418 101.714 96.3249 101.982 96.4956 102.079Z" fill="#FEFEFE"/>
<path d="M83.4979 101.227H83.1079C82.9616 101.227 82.742 101.227 82.6688 101.227C82.5957 101.227 82.669 100.862 82.8397 100.716C82.9211 100.581 83.0414 100.474 83.185 100.409C83.3287 100.344 83.4889 100.324 83.6443 100.351C83.7983 100.366 83.9439 100.428 84.0617 100.528C84.1794 100.628 84.2636 100.762 84.3028 100.911C84.3028 101.154 84.3028 101.349 84.0102 101.3H83.4979V101.227Z" fill="#FDFDFD"/>
<path d="M74.5469 94.8036C74.5469 93.9519 74.9857 93.3923 75.6685 93.4409C76.3513 93.4896 76.6928 94.0736 76.644 94.9253C76.5952 95.777 76.1561 96.1906 75.5465 96.1663C74.9368 96.1419 74.5469 95.5823 74.5469 94.8036Z" fill="white"/>
<path d="M68.5496 66.0653C68.57 66.3884 68.4937 66.7103 68.3302 66.9899C68.2442 67.1419 68.1148 67.2648 67.9584 67.3428C67.802 67.4208 67.6257 67.4505 67.4523 67.4279C67.2698 67.4133 67.0966 67.3421 66.9567 67.2243C66.8168 67.1065 66.7173 66.948 66.6721 66.7709C66.5989 66.385 66.5989 65.9888 66.6721 65.6029C66.7071 65.3926 66.8157 65.2015 66.9787 65.0636C67.1417 64.9258 67.3485 64.8501 67.5622 64.8501C67.7758 64.8501 67.9823 64.9258 68.1453 65.0636C68.3083 65.2015 68.4172 65.3926 68.4522 65.6029C68.4947 65.7789 68.4947 65.9623 68.4522 66.1383" fill="white"/>
<path d="M71.4995 66.8441C71.3647 66.4164 71.3647 65.9577 71.4995 65.5301C71.5535 65.3493 71.6644 65.1907 71.816 65.078C71.9675 64.9652 72.1517 64.9043 72.3408 64.9043C72.5298 64.9043 72.7137 64.9652 72.8653 65.078C73.0169 65.1907 73.128 65.3493 73.182 65.5301C73.2897 65.7498 73.3457 65.9912 73.3457 66.2357C73.3457 66.4803 73.2897 66.7217 73.182 66.9414C73.1353 67.0896 73.0488 67.2222 72.9319 67.3248C72.8151 67.4275 72.6726 67.4964 72.5194 67.5239C72.3662 67.5515 72.2084 67.5367 72.063 67.4812C71.9176 67.4257 71.7902 67.3316 71.6945 67.2091C71.6945 67.0874 71.6946 67.0144 71.5239 66.9414" fill="white"/>
<path d="M71.5006 66.8442C71.5006 66.8442 71.7675 66.8442 71.6704 67.1119C71.6173 67.0913 71.5724 67.0542 71.5418 67.006C71.5112 66.9579 71.4968 66.9012 71.5006 66.8442Z" fill="#F8F7F7"/>
<path d="M63.183 65.7977H61.9637C61.793 65.7977 61.72 65.7977 61.7688 65.603C61.9882 64.9217 62.1833 64.2403 62.4028 63.5347C62.6223 64.289 62.8415 65.019 63.0854 65.7977" fill="#FDFDFD"/>
<path d="M84.6406 66.1873C84.6406 65.3843 84.9576 64.8976 85.4697 64.8246C85.6349 64.7923 85.8059 64.8124 85.959 64.8823C86.1122 64.9521 86.2395 65.0681 86.3231 65.2139C86.4839 65.4868 86.5687 65.7977 86.5687 66.1143C86.5687 66.4309 86.4839 66.7417 86.3231 67.0146C86.2501 67.1721 86.1265 67.3007 85.9718 67.38C85.8172 67.4594 85.6405 67.4849 85.4697 67.4526C85.3029 67.4402 85.1439 67.3778 85.0133 67.2736C84.8828 67.1694 84.7867 67.0282 84.738 66.8686C84.6743 66.6459 84.6743 66.4099 84.738 66.1873" fill="white"/>
<path d="M92.7853 65.7246H92.4439C92.2975 65.7246 92.0779 65.7246 92.0048 65.7246C91.9316 65.7246 92.0049 65.3839 92.1756 65.2136C92.2625 65.0818 92.3851 64.9776 92.5293 64.9132C92.6735 64.8487 92.8332 64.8267 92.9895 64.8497C93.1458 64.8727 93.2922 64.9398 93.4116 65.043C93.531 65.1463 93.6182 65.2815 93.6631 65.4326C93.6631 65.6759 93.6632 65.8219 93.3949 65.7976H92.7853" fill="#FDFBFC"/>
<path d="M76.5979 59.0088C76.5979 59.1792 76.5979 59.3252 76.5979 59.4712C76.5679 59.7336 76.4418 59.9756 76.2437 60.1508C76.0456 60.326 75.7898 60.4219 75.5251 60.4202C75.2598 60.3906 75.0143 60.2656 74.8348 60.0685C74.6552 59.8714 74.5539 59.6158 74.5496 59.3495C74.5251 59.1149 74.5251 58.8784 74.5496 58.6438C74.5778 58.3936 74.6933 58.1613 74.8762 57.9877C75.059 57.8141 75.2973 57.7104 75.5492 57.6948C76.0613 57.6948 76.4028 57.9868 76.5735 58.5708C76.5814 58.7167 76.5814 58.8629 76.5735 59.0088" fill="white"/>
<g style="mix-blend-mode:multiply">
<path d="M203.742 73.8037C204.404 74.5725 204.87 75.4898 205.099 76.4771C205.328 77.4644 205.315 78.4925 205.059 79.4734L200.182 97.5533C199.972 98.341 199.609 99.0799 199.113 99.7276C198.618 100.375 197.999 100.919 197.292 101.328C196.586 101.737 195.805 102.003 194.996 102.111C194.186 102.219 193.363 102.167 192.574 101.958L174.455 97.0909C173.475 96.8326 172.573 96.338 171.829 95.6507C171.085 94.9634 170.521 94.1043 170.188 93.1489L171.699 94.1222L177.845 95.8499L190.598 99.3783L193.89 100.035L195.598 99.5973L197.621 98.1859L198.621 96.0446L204.059 75.1664L203.742 73.8037Z" fill="black" fill-opacity="0.1"/>
</g>
<path d="M199.305 79.9113C199.525 79.0736 199.466 78.1872 199.136 77.386C198.807 76.5848 198.225 75.9123 197.479 75.47C196.733 75.0277 195.863 74.8396 195 74.9341C194.137 75.0285 193.329 75.4004 192.697 75.9936C191.411 74.8454 189.875 74.0122 188.21 73.5603C186.166 73.0111 184.006 73.065 181.992 73.7154C179.978 74.3659 178.196 75.585 176.862 77.2251C175.528 78.8653 174.699 80.8562 174.475 82.9568C174.252 85.0574 174.643 87.1776 175.602 89.0607C175.719 88.0418 176.174 87.0911 176.895 86.3597C178.065 85.2404 180.821 83.099 178.797 81.201C179.058 81.3161 179.292 81.4851 179.483 81.6968C179.674 81.9085 179.818 82.1581 179.906 82.4293C179.993 82.7005 180.022 82.9871 179.991 83.2703C179.959 83.5534 179.868 83.8268 179.724 84.0724C179.138 85.3864 177.724 86.5057 178.212 88.1117C178.299 88.4438 178.477 88.745 178.726 88.9816C178.976 89.2183 179.286 89.3811 179.622 89.4519C179.959 89.5226 180.309 89.4984 180.632 89.3821C180.956 89.2657 181.241 89.0618 181.455 88.7931C182.796 87.041 179.967 84.997 179.602 88.1117C179.449 87.8927 179.355 87.6381 179.329 87.3725C179.303 87.1068 179.346 86.8389 179.454 86.5946C179.562 86.3503 179.73 86.1378 179.944 85.9773C180.158 85.8169 180.41 85.7139 180.675 85.6784C181.157 85.68 181.632 85.788 182.067 85.9946C182.502 86.2012 182.887 86.5013 183.192 86.8734C183.497 87.2455 183.716 87.6804 183.833 88.1469C183.95 88.6134 183.963 89.1 183.869 89.5718C186.478 88.5011 184.552 86.6517 182.894 85.0457C180.455 82.6124 180.455 79.4977 184.259 78.6217C183.577 78.9867 180.675 81.055 183.211 82.7584C183.545 81.2887 184.354 79.9691 185.513 79.0021C186.671 78.0351 188.115 77.474 189.624 77.405C188.896 77.4669 188.193 77.6998 187.572 78.0847C186.951 78.4696 186.431 78.9956 186.053 79.6197C185.674 80.2438 185.45 80.9483 185.396 81.6756C185.343 82.4029 185.463 83.1325 185.747 83.8047C186.581 85.0534 187.493 86.2481 188.478 87.3817C190.6 90.4477 189.112 92.2484 187.698 93.1974C191.136 91.8348 189.746 88.3307 188.941 86.7004C188.527 85.8244 188.039 85.0457 188.38 84.0967C188.522 83.702 188.779 83.3588 189.118 83.1115C189.457 82.8642 189.863 82.7242 190.283 82.7097C188.454 83.1234 189.844 85.581 190.283 86.4814C191.36 87.8148 191.923 89.4899 191.868 91.2021C191.769 92.1134 191.375 92.9678 190.746 93.6355C192.046 92.9293 193.189 91.9681 194.107 90.8098C195.024 89.6514 195.698 88.3198 196.086 86.8951C196.44 85.5294 196.531 84.1092 196.355 82.7097C197.055 82.5544 197.699 82.2119 198.219 81.7189C198.739 81.226 199.114 80.6011 199.305 79.9113ZM194.769 81.4443C194.432 81.3568 194.115 81.2033 193.838 80.9927C193.561 80.7821 193.328 80.5187 193.153 80.2176C192.978 79.9166 192.865 79.5839 192.821 79.239C192.776 78.894 192.8 78.5435 192.892 78.208C193.011 77.7271 193.275 77.2942 193.648 76.967C193.968 76.6646 194.359 76.4481 194.786 76.3375C195.212 76.2268 195.659 76.2257 196.086 76.3343C196.656 76.482 197.161 76.8141 197.521 77.2787C197.881 77.7434 198.076 78.3141 198.076 78.9015C198.076 79.4888 197.881 80.0596 197.521 80.5242C197.161 80.9888 196.656 81.321 196.086 81.4687C195.654 81.5812 195.198 81.5728 194.769 81.4443Z" fill="#CE0E2D"/>
<path d="M192.479 100.303L172.532 94.9736C171.184 94.6141 170.034 93.7358 169.335 92.5315C168.635 91.3271 168.443 89.8951 168.801 88.5496L174.141 68.6204C174.319 67.9551 174.627 67.3313 175.048 66.7851C175.468 66.2388 175.992 65.7807 176.59 65.437C177.189 65.0934 177.849 64.871 178.533 64.7826C179.218 64.6941 179.913 64.7414 180.579 64.9217L200.526 70.2264C201.874 70.586 203.024 71.4643 203.723 72.6686C204.423 73.8729 204.615 75.3049 204.257 76.6505L198.917 96.5796C198.551 97.9208 197.67 99.0639 196.465 99.7609C195.259 100.458 193.827 100.653 192.479 100.303ZM180.286 65.7491C179.161 65.459 177.967 65.6234 176.963 66.2065C175.958 66.7896 175.225 67.7444 174.921 68.8637L169.581 88.7686C169.284 89.8915 169.445 91.0863 170.031 92.0902C170.616 93.0942 171.577 93.825 172.702 94.122L192.65 99.451C193.775 99.7492 194.973 99.5918 195.982 99.0129C196.991 98.4341 197.731 97.4808 198.039 96.3606L203.355 76.4315C203.506 75.877 203.546 75.2982 203.472 74.7285C203.397 74.1587 203.211 73.6092 202.923 73.1116C202.635 72.614 202.252 72.1782 201.794 71.8292C201.337 71.4802 200.815 71.2249 200.258 71.0781L180.286 65.7491Z" fill="#515151"/>
<path d="M194.381 56.9889L200.16 53.6309L200.818 53.2659C201.745 52.7306 202.501 52.8036 202.891 53.4362C203.281 54.0689 203.038 54.7503 201.989 55.3586L196.575 58.4976L193.234 60.42C193.085 60.5357 192.911 60.6157 192.725 60.654C192.54 60.6923 192.348 60.6878 192.164 60.6409C191.981 60.5939 191.81 60.5058 191.666 60.3831C191.522 60.2605 191.408 60.1067 191.332 59.9333C189.577 56.9159 187.821 53.8986 186.09 50.8812C185.977 50.7479 185.895 50.5915 185.85 50.4232C185.804 50.2549 185.796 50.0787 185.827 49.907C185.857 49.7354 185.924 49.5724 186.025 49.4296C186.125 49.2868 186.255 49.1676 186.407 49.0805C186.992 48.6912 187.748 49.0806 188.187 49.7376C189.308 51.6112 190.381 53.5093 191.479 55.3829C191.625 55.6506 191.796 55.8939 192.039 56.3076L192.357 55.1883L196.575 39.3471C196.634 39.1076 196.707 38.8719 196.795 38.6414C196.837 38.489 196.909 38.3464 197.007 38.222C197.105 38.0977 197.226 37.994 197.365 37.917C197.503 37.84 197.656 37.7912 197.813 37.7736C197.971 37.7559 198.13 37.7697 198.282 37.8141C198.571 37.8993 198.818 38.0881 198.976 38.3442C199.133 38.6003 199.19 38.9056 199.136 39.2011C199.077 39.4805 199.004 39.7567 198.916 40.0285L194.722 55.7723L194.381 56.9889Z" fill="#CE0E2D"/>
<path d="M207.398 61.369C207.089 62.4902 206.351 63.4452 205.343 64.028C204.335 64.6107 203.137 64.7744 202.009 64.4837L182.061 59.1546C181.505 59.0078 180.983 58.7526 180.525 58.4036C180.068 58.0546 179.684 57.6187 179.396 57.1211C179.108 56.6235 178.922 56.074 178.848 55.5043C178.774 54.9345 178.813 54.3557 178.964 53.8013L180.037 49.7376L179.208 49.5186L178.111 53.5579C177.931 54.2242 177.884 54.9195 177.974 55.6038C178.065 56.2881 178.289 56.9478 178.636 57.5449C178.983 58.142 179.445 58.6648 179.995 59.083C180.545 59.5013 181.173 59.8068 181.842 59.982L201.789 65.311C202.457 65.4909 203.154 65.5372 203.84 65.4472C204.525 65.3572 205.187 65.1327 205.785 64.7867C206.383 64.4406 206.907 63.9798 207.326 63.4308C207.746 62.8819 208.052 62.2556 208.227 61.588L209.325 57.5243L208.471 57.3053L207.398 61.369Z" fill="#CE0E2D"/>
<path d="M24.3375 127.751V128.554C24.5983 128.25 24.9247 128.009 25.2921 127.849C25.6595 127.689 26.0584 127.614 26.459 127.629C26.8728 127.592 27.2882 127.682 27.6497 127.886C28.0112 128.091 28.3019 128.4 28.4832 128.773C28.7255 128.431 29.0424 128.148 29.4099 127.945C29.8247 127.733 30.2848 127.625 30.7509 127.629C32.3116 127.629 33.1895 128.456 33.1895 130.062V134.929H31.9702V130.257C32.0104 129.846 31.8882 129.436 31.6291 129.113C31.4696 128.976 31.283 128.872 31.0817 128.809C30.8803 128.747 30.6681 128.726 30.4583 128.748C30.0483 128.731 29.6472 128.87 29.3367 129.138C29.0337 129.425 28.8509 129.816 28.8247 130.233V134.929H27.581V130.208C27.6125 130.001 27.5956 129.789 27.5315 129.589C27.4675 129.389 27.3579 129.207 27.2115 129.056C27.0652 128.905 26.8861 128.79 26.6879 128.72C26.4897 128.65 26.2779 128.626 26.0691 128.651C25.7199 128.625 25.3715 128.71 25.0736 128.893C24.7757 129.077 24.5436 129.35 24.4107 129.673V134.856H23.1914V127.751H24.3375Z" fill="#010101"/>
<path d="M37.9201 135.002C37.4684 135.037 37.0146 134.969 36.5925 134.805C36.1704 134.641 35.7908 134.384 35.4816 134.053C34.8799 133.387 34.5569 132.516 34.5793 131.62V131.401C34.5641 130.747 34.6975 130.098 34.9696 129.503C35.2224 128.974 35.6196 128.527 36.1156 128.213C36.578 127.907 37.1215 127.746 37.6763 127.751C38.0795 127.725 38.4831 127.793 38.8554 127.949C39.2278 128.105 39.5589 128.346 39.8223 128.651C40.3816 129.4 40.6578 130.323 40.6025 131.255V131.766H35.7254C35.7159 132.389 35.9324 132.994 36.335 133.469C36.5298 133.673 36.7646 133.834 37.0247 133.943C37.2849 134.052 37.5648 134.106 37.8469 134.102C38.2274 134.114 38.6049 134.03 38.9444 133.859C39.2384 133.664 39.5013 133.426 39.7247 133.153L40.4563 133.737C40.1695 134.139 39.7881 134.464 39.346 134.685C38.9039 134.905 38.4143 135.014 37.9201 135.002ZM37.7737 128.651C37.5401 128.647 37.3083 128.692 37.0938 128.784C36.8792 128.877 36.6869 129.014 36.53 129.187C36.1753 129.605 35.9619 130.125 35.9203 130.671H39.4809C39.4849 130.159 39.3126 129.661 38.993 129.26C38.8491 129.073 38.6648 128.921 38.4536 128.816C38.2424 128.71 38.0098 128.654 37.7737 128.651Z" fill="#010101"/>
<path d="M46.4802 134.881C46.387 134.639 46.3293 134.385 46.3093 134.127C46.0525 134.406 45.7397 134.629 45.391 134.78C45.0422 134.931 44.6655 135.007 44.2854 135.003C43.6625 135.033 43.0517 134.824 42.5785 134.419C42.3565 134.236 42.1792 134.005 42.0608 133.744C41.9424 133.482 41.886 133.197 41.8956 132.91C41.8846 132.574 41.9566 132.241 42.1055 131.939C42.2544 131.638 42.4755 131.378 42.7491 131.182C43.4773 130.728 44.3308 130.515 45.1876 130.574H46.3825V130.014C46.3929 129.83 46.3635 129.645 46.2962 129.473C46.2289 129.301 46.1251 129.145 45.9923 129.017C45.843 128.877 45.666 128.77 45.4728 128.703C45.2796 128.636 45.0745 128.61 44.8706 128.627C44.4771 128.617 44.0914 128.736 43.7734 128.968C43.6402 129.05 43.5301 129.165 43.4534 129.301C43.3766 129.437 43.3356 129.59 43.3343 129.747H42.115C42.1233 129.371 42.2612 129.01 42.5053 128.725C42.7706 128.378 43.1241 128.109 43.5293 127.946C43.9738 127.747 44.4567 127.647 44.9438 127.654C45.6383 127.62 46.322 127.836 46.8704 128.262C47.1059 128.479 47.2926 128.742 47.4187 129.036C47.5448 129.329 47.6072 129.646 47.6018 129.966V133.129C47.5891 133.658 47.6716 134.186 47.8456 134.686L46.4802 134.881ZM44.4804 133.956C44.8575 133.955 45.2278 133.854 45.5535 133.664C45.8751 133.482 46.1374 133.212 46.3093 132.886V131.45H45.3582C43.8463 131.45 43.1149 131.864 43.1149 132.74C43.1033 132.91 43.1328 133.08 43.2006 133.237C43.2685 133.394 43.3729 133.532 43.5052 133.64C43.7834 133.856 44.1282 133.967 44.4804 133.956Z" fill="#010101"/>
<path d="M51.0665 126.072V127.799H52.4075V128.724H51.0665V133.128C51.0447 133.361 51.105 133.593 51.2371 133.786C51.3207 133.857 51.4176 133.91 51.5222 133.944C51.6269 133.977 51.7372 133.99 51.8467 133.98H52.4319V134.953C52.124 135.049 51.8034 135.099 51.4809 135.099C51.2517 135.116 51.022 135.078 50.8102 134.989C50.5984 134.901 50.4103 134.763 50.2616 134.589C49.9625 134.19 49.8157 133.698 49.8472 133.201V128.797H48.5547V127.872H49.8716V126.145L51.0665 126.072Z" fill="#010101"/>
<path d="M56.7716 135.027C56.3205 135.054 55.8689 134.983 55.4478 134.819C55.0268 134.656 54.6464 134.402 54.333 134.078C53.7313 133.412 53.4084 132.541 53.4308 131.644V131.425C53.424 130.769 53.5658 130.121 53.8454 129.527C54.0883 128.999 54.4774 128.552 54.9671 128.238C55.4382 127.931 55.9897 127.77 56.5522 127.775C56.9551 127.751 57.358 127.82 57.7301 127.976C58.1022 128.132 58.4335 128.371 58.6982 128.676C59.2488 129.428 59.5163 130.35 59.454 131.279V131.79H54.5768C54.5673 132.413 54.7839 133.018 55.1865 133.494C55.3747 133.699 55.605 133.862 55.8616 133.971C56.1182 134.08 56.3951 134.133 56.674 134.126C57.0549 134.144 57.4339 134.06 57.7715 133.883C58.0704 133.694 58.3342 133.456 58.5517 133.177L59.2834 133.761C59.0019 134.163 58.625 134.488 58.1868 134.709C57.7485 134.93 57.2624 135.039 56.7716 135.027ZM56.6255 128.676C56.3941 128.671 56.164 128.714 55.95 128.802C55.736 128.89 55.5427 129.021 55.3818 129.187C55.0208 129.611 54.8069 130.14 54.7721 130.695H58.3323C58.3149 130.183 58.1358 129.689 57.8203 129.284C57.6815 129.098 57.5013 128.946 57.294 128.84C57.0868 128.735 56.8581 128.678 56.6255 128.676Z" fill="#010101"/>
<path d="M64.4033 128.895H63.8181C63.4717 128.866 63.1252 128.95 62.8307 129.135C62.5362 129.319 62.3093 129.593 62.1841 129.917V134.954H60.9648V127.848H62.1597V128.676C62.3336 128.38 62.5835 128.136 62.8837 127.969C63.1838 127.802 63.5234 127.719 63.8669 127.727C64.0427 127.68 64.2275 127.68 64.4033 127.727V128.895Z" fill="#010101"/>
<path d="M64.6954 134.272C64.6927 134.076 64.762 133.886 64.8904 133.737C65.0499 133.611 65.2478 133.542 65.4515 133.542C65.6552 133.542 65.8528 133.611 66.0123 133.737C66.0803 133.808 66.1326 133.892 66.1662 133.984C66.1998 134.076 66.2138 134.175 66.2073 134.272C66.2119 134.366 66.1971 134.46 66.1635 134.548C66.13 134.636 66.0784 134.716 66.0123 134.783C65.9096 134.897 65.7747 134.976 65.6256 135.012C65.4765 135.047 65.3201 135.036 65.1773 134.981C65.0345 134.925 64.9118 134.828 64.8258 134.701C64.7397 134.575 64.6943 134.425 64.6954 134.272Z" fill="#010101"/>
<path d="M71.084 134.053C71.4926 134.062 71.8905 133.924 72.2056 133.664C72.3615 133.546 72.4902 133.396 72.5828 133.223C72.6754 133.051 72.7298 132.861 72.7424 132.666H73.8884C73.8653 133.08 73.7211 133.477 73.4737 133.81C73.2041 134.176 72.8538 134.476 72.4497 134.686C72.0197 134.907 71.5433 135.024 71.0596 135.027C70.6295 135.041 70.2014 134.961 69.8055 134.793C69.4095 134.625 69.0553 134.373 68.7675 134.053C68.1586 133.308 67.8535 132.361 67.9137 131.401V131.206C67.8963 130.568 68.0301 129.934 68.304 129.357C68.5308 128.847 68.9043 128.415 69.3771 128.116C69.8878 127.797 70.4817 127.636 71.084 127.654C71.812 127.634 72.5197 127.896 73.0594 128.384C73.3226 128.614 73.5328 128.899 73.6759 129.218C73.8189 129.537 73.8915 129.883 73.8884 130.233H72.7424C72.7234 129.803 72.5368 129.397 72.2226 129.101C71.9084 128.806 71.4912 128.645 71.0596 128.651C70.7854 128.637 70.5123 128.692 70.2651 128.811C70.0179 128.93 69.8047 129.11 69.6453 129.333C69.2653 129.899 69.0849 130.575 69.133 131.255V131.474C69.0813 132.143 69.253 132.81 69.6209 133.372C69.7924 133.594 70.0146 133.772 70.2692 133.89C70.5238 134.009 70.8033 134.065 71.084 134.053Z" fill="#010101"/>
<path d="M74.9348 131.304C74.9275 130.656 75.0694 130.015 75.3495 129.43C75.6023 128.901 75.9995 128.454 76.4955 128.14C77.005 127.842 77.5876 127.69 78.1783 127.702C78.6337 127.676 79.0893 127.752 79.5113 127.925C79.9334 128.097 80.3111 128.362 80.6169 128.7C81.2386 129.45 81.56 130.404 81.5192 131.377C81.5265 132.025 81.3846 132.666 81.1045 133.25C80.8601 133.771 80.4708 134.21 79.9828 134.516C79.4699 134.83 78.8773 134.99 78.2757 134.978C77.8197 135.01 77.3626 134.936 76.9397 134.763C76.5168 134.59 76.1394 134.322 75.8371 133.98C75.2069 133.235 74.8844 132.278 74.9348 131.304ZM76.1541 131.45C76.1275 132.127 76.3248 132.794 76.7152 133.348C76.8811 133.577 77.1016 133.762 77.357 133.885C77.6125 134.009 77.8949 134.066 78.1783 134.053C78.4608 134.06 78.7407 134 78.9951 133.877C79.2496 133.754 79.4712 133.573 79.6414 133.348C80.0446 132.745 80.2413 132.028 80.2022 131.304C80.2327 130.634 80.0351 129.973 79.6414 129.43C79.4767 129.197 79.257 129.009 79.0017 128.882C78.7464 128.754 78.4636 128.692 78.1783 128.7C77.8949 128.687 77.6125 128.745 77.357 128.868C77.1016 128.991 76.8811 129.176 76.7152 129.406C76.3121 130.009 76.1151 130.726 76.1541 131.45Z" fill="#010101"/>
<path d="M84.0816 127.824V128.627C84.3447 128.326 84.6715 128.087 85.0384 127.927C85.4052 127.767 85.803 127.69 86.2032 127.702C86.6174 127.662 87.0341 127.75 87.3963 127.955C87.7584 128.16 88.0488 128.471 88.2274 128.846C88.4697 128.504 88.7865 128.221 89.154 128.019C89.5698 127.809 90.0293 127.701 90.4951 127.702C92.0558 127.702 92.9337 128.53 92.9337 130.136V135.002H91.7144V130.33C91.7452 129.916 91.6143 129.506 91.3488 129.187C91.193 129.051 91.0107 128.948 90.8136 128.886C90.6164 128.823 90.4084 128.801 90.2025 128.822C89.9947 128.805 89.7858 128.831 89.5884 128.897C89.3909 128.964 89.2091 129.07 89.054 129.209C88.8989 129.348 88.7737 129.516 88.6861 129.705C88.5985 129.894 88.5503 130.098 88.5444 130.306V135.002H87.3251V130.355C87.3566 130.147 87.3398 129.935 87.2757 129.735C87.2116 129.535 87.102 129.353 86.9557 129.202C86.8094 129.052 86.6303 128.937 86.4321 128.866C86.2339 128.796 86.022 128.772 85.8132 128.797C85.4668 128.769 85.1203 128.853 84.8258 129.037C84.5313 129.221 84.3045 129.496 84.1793 129.819V135.002H82.9844V127.897L84.0816 127.824Z" fill="#010101"/>
<path d="M94.9589 135.757H93.9102L97.9339 125.391H98.9582L94.9589 135.757Z" fill="#010101"/>
<path d="M104.664 134.954C104.559 134.716 104.501 134.459 104.493 134.199C104.234 134.477 103.921 134.698 103.573 134.848C103.225 134.999 102.849 135.076 102.469 135.075C101.838 135.112 101.217 134.903 100.738 134.491C100.52 134.305 100.346 134.074 100.228 133.813C100.11 133.552 100.051 133.269 100.055 132.983C100.05 132.648 100.125 132.317 100.273 132.016C100.422 131.716 100.639 131.455 100.908 131.255C101.639 130.807 102.491 130.594 103.347 130.647H104.517V130.087C104.526 129.905 104.499 129.723 104.436 129.551C104.373 129.38 104.277 129.223 104.152 129.089C103.998 128.949 103.817 128.842 103.619 128.775C103.422 128.708 103.213 128.683 103.005 128.7C102.62 128.693 102.243 128.813 101.933 129.041C101.8 129.123 101.689 129.237 101.613 129.374C101.536 129.51 101.495 129.663 101.494 129.819H100.274C100.285 129.449 100.413 129.091 100.64 128.797C100.905 128.451 101.259 128.182 101.664 128.019C102.11 127.822 102.592 127.722 103.079 127.727C103.775 127.681 104.462 127.898 105.005 128.335C105.241 128.551 105.428 128.815 105.554 129.109C105.68 129.402 105.742 129.719 105.737 130.038V133.299C105.712 133.829 105.795 134.359 105.981 134.856L104.664 134.954ZM102.64 134.029C103.017 134.03 103.388 133.929 103.713 133.737C104.04 133.562 104.304 133.29 104.469 132.958V131.523H103.42C101.933 131.523 101.177 131.936 101.177 132.812C101.165 132.983 101.194 133.153 101.262 133.31C101.33 133.466 101.435 133.605 101.567 133.713C101.873 133.947 102.255 134.06 102.64 134.029Z" fill="#010101"/>
<path d="M113.588 131.498C113.632 132.422 113.376 133.336 112.856 134.102C112.624 134.419 112.319 134.675 111.967 134.849C111.614 135.022 111.225 135.109 110.832 135.1C110.455 135.115 110.079 135.048 109.73 134.906C109.381 134.763 109.066 134.547 108.808 134.272V137.679H107.613V127.946H108.735V128.724C108.987 128.427 109.301 128.188 109.654 128.025C110.008 127.861 110.394 127.776 110.784 127.776C111.174 127.776 111.559 127.861 111.913 128.025C112.266 128.188 112.58 128.427 112.832 128.724C113.36 129.514 113.617 130.453 113.564 131.401L113.588 131.498ZM112.369 131.352C112.406 130.681 112.226 130.016 111.856 129.454C111.699 129.235 111.49 129.058 111.248 128.939C111.005 128.82 110.737 128.763 110.467 128.773C110.126 128.76 109.788 128.844 109.494 129.017C109.2 129.189 108.962 129.443 108.808 129.746V133.129C108.96 133.434 109.197 133.689 109.492 133.862C109.786 134.035 110.125 134.118 110.467 134.102C110.737 134.112 111.005 134.055 111.248 133.936C111.49 133.817 111.699 133.64 111.856 133.421C112.241 132.802 112.421 132.078 112.369 131.352Z" fill="#010101"/>
<path d="M121.148 131.498C121.189 132.426 120.923 133.34 120.392 134.102C120.163 134.415 119.862 134.67 119.514 134.843C119.166 135.017 118.781 135.105 118.393 135.1C118.011 135.123 117.629 135.061 117.274 134.918C116.92 134.775 116.602 134.554 116.344 134.272V137.703H115.125V127.97H116.222V128.749C116.467 128.446 116.78 128.207 117.137 128.05C117.493 127.894 117.882 127.824 118.271 127.848C118.661 127.837 119.049 127.919 119.402 128.089C119.754 128.258 120.06 128.509 120.295 128.822C120.847 129.601 121.114 130.546 121.051 131.498H121.148ZM119.929 131.377C119.966 130.706 119.787 130.04 119.417 129.479C119.259 129.253 119.046 129.07 118.799 128.947C118.552 128.824 118.278 128.764 118.002 128.773C117.662 128.76 117.324 128.844 117.03 129.017C116.736 129.19 116.498 129.443 116.344 129.746V133.129C116.5 133.436 116.742 133.692 117.041 133.865C117.339 134.038 117.682 134.12 118.027 134.102C118.296 134.108 118.563 134.049 118.805 133.93C119.047 133.812 119.257 133.637 119.417 133.421C119.798 132.81 119.977 132.095 119.929 131.377Z" fill="#010101"/>
<path d="M44.1141 90.1554C43.9119 90.411 43.8081 90.7304 43.8215 91.0558V105.534C43.8086 105.867 43.912 106.194 44.1141 106.459L52.2588 98.3559V98.1612L44.1141 90.0581V90.1554Z" fill="#5BC8F3"/>
<path d="M55.0115 101.106L52.3047 98.4045V98.2098L55.0115 95.5088L58.2303 97.3338C58.4226 97.4041 58.5889 97.5316 58.7062 97.6992C58.8236 97.8668 58.8863 98.0663 58.8863 98.2707C58.8863 98.4751 58.8236 98.6745 58.7062 98.8421C58.5889 99.0097 58.4226 99.1372 58.2303 99.2075L55.0115 101.033V101.106Z" fill="url(#paint0_linear_7714_920)"/>
<path d="M55.0625 101.057L52.3069 98.3076L44.1133 106.459C44.3055 106.618 44.5467 106.704 44.7959 106.704C45.045 106.704 45.2865 106.618 45.4787 106.459L55.0625 101.033" fill="url(#paint1_linear_7714_920)"/>
<path d="M55.0625 95.5336L45.4787 90.1072C45.2886 89.9445 45.0463 89.855 44.7959 89.855C44.5454 89.855 44.3034 89.9445 44.1133 90.1072L52.3069 98.259L55.0625 95.5336Z" fill="url(#paint2_linear_7714_920)"/>
</g>
<defs>
<linearGradient id="paint0_linear_7714_920" x1="57.6695" y1="98.3072" x2="41.819" y2="98.3072" gradientUnits="userSpaceOnUse">
<stop stop-color="#FFDF00"/>
<stop offset="0.41" stop-color="#FBBC0E"/>
<stop offset="0.78" stop-color="#F9A418"/>
<stop offset="1" stop-color="#F89B1C"/>
</linearGradient>
<linearGradient id="paint1_linear_7714_920" x1="53.5505" y1="99.792" x2="38.6828" y2="114.716" gradientUnits="userSpaceOnUse">
<stop stop-color="#EE4447"/>
<stop offset="1" stop-color="#C5166C"/>
</linearGradient>
<linearGradient id="paint2_linear_7714_920" x1="38.5777" y1="81.8338" x2="50.7201" y2="94.0266" gradientUnits="userSpaceOnUse">
<stop stop-color="#269E6F"/>
<stop offset="0.05" stop-color="#2BA06F"/>
<stop offset="0.47" stop-color="#53B26B"/>
<stop offset="0.8" stop-color="#6BBD69"/>
<stop offset="1" stop-color="#74C168"/>
</linearGradient>
<clipPath id="clip0_7714_920">
<rect width="265" height="157" fill="white"/>
</clipPath>
</defs>
</svg>
