<svg width="330" height="232" viewBox="0 0 330 232" fill="none" xmlns="http://www.w3.org/2000/svg">
<path d="M285.123 53.3439L43.624 53.0463C38.8568 53.0404 34.9875 56.9339 34.9816 61.7426L34.8447 174.835C34.8388 179.644 38.6987 183.547 43.4659 183.553L284.964 183.851C289.732 183.857 293.601 179.963 293.607 175.154L293.744 62.0614C293.75 57.2528 289.89 53.3498 285.123 53.3439Z" stroke="#D8D8D8" stroke-miterlimit="10"/>
<path d="M169.174 36.1367L225.317 137.297L106.323 204.479H104.976L103.822 203.727L49.0498 105.089V104.434L49.2662 103.9L169.174 36.1367Z" fill="#E5E4E4"/>
<path d="M165.904 168.802L105.938 202.757C105.85 202.808 105.753 202.842 105.652 202.855C105.55 202.869 105.448 202.862 105.349 202.835C105.251 202.808 105.158 202.761 105.078 202.698C104.998 202.634 104.93 202.555 104.881 202.466L50.9496 104.968C50.9496 104.968 50.9496 104.968 50.9496 104.846L111.541 70.6734C111.643 70.6202 111.733 70.5466 111.805 70.457C111.878 70.3675 111.932 70.2638 111.963 70.1525C111.995 70.0412 112.004 69.9246 111.989 69.8098C111.974 69.695 111.936 69.5844 111.877 69.485C111.822 69.3846 111.748 69.2961 111.659 69.2247C111.57 69.1533 111.467 69.1003 111.358 69.0687C111.249 69.0372 111.134 69.0278 111.021 69.0409C110.908 69.0541 110.799 69.0896 110.699 69.1454L49.0982 103.949C49.0295 103.985 48.9685 104.034 48.919 104.094C48.8695 104.154 48.8324 104.223 48.81 104.298C48.7875 104.372 48.7802 104.451 48.7884 104.528C48.7966 104.606 48.8202 104.681 48.8578 104.749L49.6272 106.132L50.3005 107.369L103.871 203.872V204.115C103.963 204.283 104.088 204.43 104.237 204.549C104.387 204.668 104.558 204.756 104.741 204.808C104.925 204.86 105.116 204.874 105.305 204.851C105.494 204.828 105.677 204.767 105.842 204.673L166.842 170.306C167.038 170.189 167.183 170.001 167.246 169.779C167.308 169.558 167.284 169.321 167.179 169.117C167.122 169.005 167.043 168.907 166.945 168.829C166.847 168.751 166.734 168.695 166.613 168.665C166.492 168.635 166.366 168.632 166.244 168.655C166.122 168.679 166.006 168.729 165.904 168.802V168.802Z" fill="#C7C6C6"/>
<path d="M219.595 134.096L168.886 42.7341C168.757 42.5043 168.577 42.308 168.36 42.1606C168.143 42.0133 167.895 41.919 167.636 41.8853C167.948 42.0388 168.208 42.2839 168.381 42.5886L219.066 133.951C219.193 134.148 219.278 134.371 219.316 134.603C219.353 134.836 219.342 135.074 219.283 135.302C219.224 135.53 219.119 135.744 218.974 135.929C218.829 136.113 218.647 136.266 218.441 136.376L108.319 198.416C108.016 198.575 107.673 198.642 107.333 198.61C107.568 198.729 107.827 198.792 108.09 198.792C108.353 198.792 108.613 198.729 108.848 198.61L218.946 136.4C219.329 136.176 219.611 135.811 219.732 135.381C219.854 134.951 219.804 134.49 219.595 134.096V134.096Z" fill="#5B5B5B"/>
<path d="M55.8785 106.545C55.7512 106.347 55.6662 106.125 55.6288 105.892C55.5914 105.659 55.6025 105.421 55.6613 105.193C55.7201 104.965 55.8254 104.752 55.9704 104.567C56.1154 104.382 56.297 104.23 56.5036 104.12L166.626 42.0797C166.937 41.9202 167.287 41.8529 167.635 41.8857C167.4 41.7663 167.141 41.7041 166.878 41.7041C166.615 41.7041 166.355 41.7663 166.121 41.8857L55.9987 104.095C55.6146 104.319 55.3335 104.686 55.2164 105.118C55.0994 105.549 55.1559 106.01 55.3736 106.399L106.058 197.761C106.189 197.994 106.373 198.193 106.595 198.34C106.816 198.488 107.069 198.58 107.333 198.61C107.013 198.458 106.745 198.213 106.563 197.907L55.8785 106.545Z" fill="#F4F4F4"/>
<path d="M218.441 136.255C218.647 136.144 218.829 135.992 218.974 135.807C219.119 135.622 219.224 135.409 219.283 135.181C219.342 134.953 219.353 134.715 219.316 134.482C219.278 134.249 219.193 134.027 219.066 133.829L168.309 42.5884C168.136 42.2837 167.876 42.0386 167.564 41.885C167.216 41.8523 166.865 41.9195 166.554 42.0791L56.5039 104.289C56.2973 104.399 56.1157 104.551 55.9707 104.736C55.8257 104.921 55.7204 105.134 55.6616 105.362C55.6028 105.591 55.5917 105.829 55.6291 106.061C55.6665 106.294 55.7515 106.516 55.8788 106.714L106.564 197.906C106.625 198.075 106.724 198.227 106.855 198.349C106.985 198.472 107.142 198.562 107.313 198.611C107.484 198.661 107.664 198.669 107.839 198.635C108.014 198.601 108.178 198.526 108.319 198.416L218.441 136.255Z" fill="#5B5B5B"/>
<path d="M171.501 54.6424L183.9 76.9926C184.283 77.6831 184.378 78.4987 184.165 79.2601C183.952 80.0215 183.448 80.6663 182.763 81.0526L97.8682 128.971L84.0254 104.017C83.6424 103.327 83.547 102.511 83.7601 101.75C83.9733 100.988 84.4776 100.343 85.1621 99.957L167.476 53.4958C168.161 53.1094 168.969 53.0132 169.724 53.2282C170.479 53.4432 171.118 53.9519 171.501 54.6424V54.6424Z" fill="#424242"/>
<path d="M131.323 85.852L129.398 82.3809C129.32 82.2407 129.144 82.1906 129.005 82.2691L127.872 82.9086C127.733 82.9871 127.683 83.1644 127.761 83.3047L129.687 86.7758C129.764 86.916 129.94 86.9661 130.079 86.8876L131.212 86.2481C131.351 86.1696 131.401 85.9923 131.323 85.852Z" fill="#8E8E8E"/>
<path d="M170.018 66.2496L166.214 59.3922C166.136 59.2519 165.96 59.2018 165.821 59.2803L164.646 59.9435C164.507 60.022 164.457 60.1994 164.535 60.3396L168.339 67.1971C168.417 67.3374 168.593 67.3874 168.732 67.309L169.907 66.6457C170.046 66.5672 170.096 66.3899 170.018 66.2496Z" fill="#C8C8C9"/>
<path d="M165.904 57.1646L138.614 72.6139L144.457 83.1156L171.819 67.6662" fill="#C8C8C9"/>
<path d="M171.122 66.4051L143.76 81.8544L142.99 80.472L170.352 65.0469" fill="#F2F2F2"/>
<path d="M166.914 58.8379L139.456 74.263L141.091 77.2219L168.549 61.7968" fill="#7F7F80"/>
<path d="M138.758 72.542L107.261 90.2954L113.007 100.821L144.505 83.0437" fill="#EFEFEF"/>
<path d="M143.88 81.7818L112.382 99.5595L111.637 98.1771L143.11 80.3994" fill="white"/>
<path d="M139.672 74.2153L108.199 91.9687L109.834 94.9276L141.307 77.15" fill="#A5A5A5"/>
<path d="M165.904 56.9951L138.542 72.4445L139.552 74.2877L166.914 58.8626" fill="#707070"/>
<path d="M138.662 72.3716L107.165 90.1492L108.198 91.9925L139.696 74.2148" fill="#8E8E8E"/>
<path d="M166.53 58.208L139.167 73.5846L139.841 74.7972L167.203 59.3479" fill="#A3A3A3"/>
<path d="M139.288 73.5122L107.814 91.2899L108.463 92.4783L139.961 74.7249" fill="#C1C1C1"/>
<path d="M91.6577 108.279L89.7322 104.808C89.6544 104.668 89.4786 104.618 89.3395 104.696L88.2065 105.336C88.0674 105.414 88.0178 105.592 88.0956 105.732L90.0211 109.203C90.0989 109.343 90.2747 109.393 90.4138 109.315L91.5469 108.675C91.6859 108.597 91.7356 108.42 91.6577 108.279Z" fill="#8E8E8E"/>
<path d="M130.32 88.6676L126.515 81.8101C126.438 81.6699 126.262 81.6198 126.123 81.6983L124.948 82.3615C124.809 82.44 124.759 82.6173 124.837 82.7576L128.641 89.6151C128.719 89.7553 128.895 89.8054 129.034 89.7269L130.209 89.0637C130.348 88.9852 130.397 88.8079 130.32 88.6676Z" fill="#C8C8C9"/>
<path d="M126.327 79.5513L98.9653 95.0006L104.784 105.502L132.242 90.0772" fill="#C8C8C9"/>
<path d="M131.449 88.7918L104.087 104.29L103.39 102.883L130.752 87.4336" fill="#F2F2F2"/>
<path d="M127.241 81.2246L99.8789 96.6739L101.514 99.6328L128.876 84.1835" fill="#7F7F80"/>
<path d="M99.0856 94.9272L67.5879 112.705L73.4306 123.207L104.904 105.429" fill="#EFEFEF"/>
<path d="M104.207 104.289L72.7092 122.067L71.9639 120.684L103.389 102.81" fill="white"/>
<path d="M99.9991 96.6006L68.5254 114.378L70.1604 117.313L101.658 99.5595" fill="#A5A5A5"/>
<path d="M126.231 79.4053L98.8691 94.8303L99.879 96.6978L127.265 81.2485" fill="#707070"/>
<path d="M98.9893 94.7578L67.5156 112.535L68.5255 114.379L100.023 96.6253" fill="#8E8E8E"/>
<path d="M126.856 80.5459L99.4941 95.9952L100.167 97.1836L127.433 81.7343" fill="#A3A3A3"/>
<path d="M99.6143 95.9219L68.1406 113.675L68.7898 114.888L100.288 97.0133" fill="#C1C1C1"/>
<path d="M179.864 75.2331L177.937 71.7627C177.859 71.6225 177.683 71.5725 177.544 71.651L176.411 72.2909C176.272 72.3695 176.223 72.5468 176.301 72.6871L178.227 76.1574C178.305 76.2977 178.481 76.3477 178.62 76.2692L179.753 75.6292C179.892 75.5507 179.941 75.3733 179.864 75.2331Z" fill="#8E8E8E"/>
<path d="M143.086 98.2219L139.279 91.3657C139.201 91.2255 139.025 91.1755 138.886 91.254L137.712 91.9177C137.573 91.9962 137.523 92.1736 137.601 92.3138L141.407 99.1699C141.485 99.3102 141.661 99.3602 141.8 99.2816L142.975 98.618C143.114 98.5395 143.164 98.3621 143.086 98.2219Z" fill="#C8C8C9"/>
<path d="M135.825 90.9741L163.187 75.5005L169.006 86.0264L141.643 101.476" fill="#C8C8C9"/>
<path d="M140.946 100.215L168.308 84.741L167.539 83.3828L140.177 98.8321" fill="#F2F2F2"/>
<path d="M136.738 92.6232L164.1 77.1738L165.735 80.0357L138.373 95.5821" fill="#7F7F80"/>
<path d="M163.042 75.5735L194.54 57.7959L200.359 68.2976L168.885 86.0995" fill="#EFEFEF"/>
<path d="M168.309 84.8868L199.566 67.0364L198.796 65.6782L167.419 83.4559" fill="white"/>
<path d="M163.98 77.2469L195.454 59.4692L197.161 62.4281L165.615 80.2058" fill="#A5A5A5"/>
<path d="M135.729 90.8038L163.091 75.3545L164.125 77.1977L136.762 92.6471" fill="#707070"/>
<path d="M162.97 75.4275L194.444 57.6499L195.478 59.4932L163.98 77.2708" fill="#8E8E8E"/>
<path d="M136.378 91.9444L163.74 76.4951L164.389 77.6835L137.051 93.1329" fill="#A3A3A3"/>
<path d="M163.5 76.5682L194.997 58.7905L195.646 59.9789L164.269 77.7566" fill="#C1C1C1"/>
<path d="M140.181 97.6403L138.254 94.17C138.176 94.0297 138.001 93.9797 137.862 94.0582L136.729 94.6982C136.59 94.7767 136.54 94.9541 136.618 95.0943L138.545 98.5647C138.623 98.7049 138.798 98.7549 138.937 98.6764L140.07 98.0365C140.209 97.9579 140.259 97.7806 140.181 97.6403Z" fill="#8E8E8E"/>
<path d="M103.436 120.613L99.6293 113.757C99.5514 113.617 99.3756 113.567 99.2365 113.646L98.0618 114.309C97.9227 114.388 97.8731 114.565 97.951 114.705L101.757 121.562C101.835 121.702 102.011 121.752 102.15 121.673L103.325 121.01C103.464 120.931 103.514 120.754 103.436 120.613Z" fill="#C8C8C9"/>
<path d="M96.1763 113.36L123.538 97.9106L129.357 108.412L101.971 123.862" fill="#C8C8C9"/>
<path d="M101.274 122.6L128.636 107.151L127.89 105.768L100.528 121.266" fill="#F2F2F2"/>
<path d="M97.0659 115.033L124.428 99.5591L126.087 102.518L98.725 117.992" fill="#7F7F80"/>
<path d="M123.394 97.9827L154.868 80.2051L160.686 90.7067L129.213 108.484" fill="#EFEFEF"/>
<path d="M128.516 107.224L159.989 89.4464L159.244 88.064L127.746 105.842" fill="white"/>
<path d="M124.308 99.6326L155.781 81.855L157.44 84.8866L125.943 102.592" fill="#A5A5A5"/>
<path d="M96.1763 113.19L123.418 97.7402L124.452 99.5835L97.0899 115.033" fill="#707070"/>
<path d="M123.298 97.8133L154.772 80.0356L155.805 81.8789L124.308 99.6565" fill="#8E8E8E"/>
<path d="M96.7051 114.33L124.067 98.8809L124.716 100.094L97.3543 115.543" fill="#A3A3A3"/>
<path d="M123.923 98.9539L155.421 81.1763L156.07 82.3647L124.597 100.167" fill="#C1C1C1"/>
<path d="M179.73 73.075L177.59 69.2188C177.325 69.3885 177.349 69.6796 177.59 70.0434C178.08 71.1937 178.643 72.3116 179.273 73.3903C179.848 74.4937 180.499 75.5554 181.221 76.5675C181.437 76.907 181.677 77.0768 181.942 76.9313L179.802 73.075H179.73Z" fill="#F2F2F2"/>
<path d="M88.3138 107.951L90.4296 111.807C90.6941 111.661 90.6701 111.346 90.4296 110.982C90.0066 109.831 89.5169 108.705 88.963 107.611C88.3758 106.515 87.7255 105.454 87.0154 104.434C86.7749 104.119 86.5345 103.925 86.27 104.07L88.4099 107.926L88.3138 107.951Z" fill="#F2F2F2"/>
<path d="M183.893 77.7461L170.962 54.4457C170.89 54.3171 170.729 54.2712 170.602 54.3432L169.825 54.7815C169.698 54.8535 169.653 55.0161 169.724 55.1447L182.655 78.4451C182.726 78.5736 182.887 78.6195 183.015 78.5475L183.791 78.1092C183.919 78.0372 183.964 77.8747 183.893 77.7461Z" fill="#5B5B5B"/>
<path d="M98.4059 126.015L85.4749 102.714C85.4035 102.586 85.2424 102.54 85.1149 102.612L84.3386 103.05C84.2112 103.122 84.1657 103.285 84.2371 103.413L97.1681 126.714C97.2394 126.842 97.4006 126.888 97.528 126.816L98.3043 126.378C98.4318 126.306 98.4773 126.143 98.4059 126.015Z" fill="#5B5B5B"/>
<path d="M145.731 61.8689L144.77 60.1226V61.8689H144.601L143.135 60.9472L144.096 62.6935L143.808 62.8632L142.582 60.6319L142.87 60.4622L144.481 61.4808V59.5648L144.77 59.395L146.02 61.6506L145.731 61.8689Z" fill="white"/>
<path d="M147.895 60.3175L148.039 60.5843L146.549 61.4332L145.298 59.1776L146.765 58.353L146.909 58.5956L145.707 59.2747L146.116 60.0023L147.15 59.4202L147.294 59.6627L146.26 60.2448L146.669 61.0209L147.895 60.3175Z" fill="white"/>
<path d="M148.208 60.4872L147.871 57.7223L148.087 57.6011L150.227 59.3473L149.939 59.5171L149.314 58.9835L148.4 59.5171V60.3174L148.208 60.4872ZM148.208 58.0619L148.376 59.3231L149.169 58.8622L148.208 58.0619Z" fill="white"/>
<path d="M150.708 56.4369L149.939 56.8734L151.045 58.8865L150.78 59.032L149.65 57.0432L148.905 57.4555L148.761 57.213L150.564 56.1943L150.708 56.4369Z" fill="white"/>
<path d="M153.449 57.188L153.594 57.4548L152.103 58.2794L150.853 56.0238L152.319 55.1992L152.463 55.4418L151.261 56.1208L151.67 56.8484L152.704 56.2664L152.824 56.5089L151.814 57.091L152.223 57.8671L153.449 57.188Z" fill="white"/>
<path d="M153.882 57.2125L152.631 54.957L153.569 54.4476C153.671 54.4159 153.78 54.4159 153.882 54.4476C153.976 54.424 154.075 54.424 154.17 54.4476C154.27 54.4717 154.361 54.5219 154.435 54.5932C154.519 54.6558 154.585 54.7394 154.627 54.8357C154.65 54.9149 154.65 54.999 154.627 55.0782C154.64 55.1585 154.64 55.2405 154.627 55.3208C154.638 55.4012 154.638 55.4828 154.627 55.5633L154.483 55.7573L155.493 56.3151L155.18 56.4849L154.218 55.9756L153.641 56.2909L154.098 57.1155L153.81 57.261L153.882 57.2125ZM153.593 55.9999L154.242 55.6118C154.242 55.6118 154.242 55.6118 154.387 55.4905C154.401 55.4349 154.401 55.3764 154.387 55.3208C154.411 55.2584 154.411 55.1891 154.387 55.1267V54.9327C154.353 54.865 154.303 54.8067 154.242 54.7629H154.074H153.882H153.713L153.064 55.1267L153.593 56.0726V55.9999Z" fill="white"/>
<path d="M141.86 60.9957C141.78 60.853 141.657 60.7403 141.508 60.6749C141.359 60.6095 141.193 60.5949 141.035 60.6333C140.877 60.6717 140.736 60.7611 140.634 60.8878C140.531 61.0145 140.472 61.1716 140.465 61.3353C140.154 61.3441 139.849 61.4272 139.576 61.5778C139.229 61.7731 138.946 62.0662 138.762 62.4211C138.577 62.7761 138.5 63.1775 138.538 63.5764C138.576 63.9752 138.729 64.3541 138.977 64.6668C139.226 64.9795 139.559 65.2124 139.936 65.3371C139.81 65.1889 139.741 64.9991 139.744 64.8035C139.744 64.4882 139.744 63.8576 139.311 63.8576C139.362 63.839 139.415 63.8311 139.469 63.8347C139.523 63.8382 139.575 63.853 139.622 63.8782C139.67 63.9033 139.712 63.9382 139.745 63.9806C139.778 64.023 139.803 64.072 139.816 64.1244C139.816 64.3669 139.816 64.7065 140.153 64.8763C140.489 65.046 140.73 64.8763 140.658 64.561C140.586 64.2457 139.96 64.2214 140.321 64.7065C140.271 64.6955 140.225 64.6724 140.186 64.6391C140.147 64.6058 140.116 64.5633 140.097 64.5155C140.078 64.4676 140.071 64.4158 140.077 64.3645C140.082 64.3132 140.1 64.2641 140.129 64.2214C140.194 64.157 140.272 64.1083 140.359 64.079C140.445 64.0496 140.537 64.0405 140.627 64.0522C140.717 64.0638 140.804 64.0961 140.88 64.1464C140.956 64.1967 141.02 64.2638 141.066 64.3427C141.259 63.8334 140.778 63.8334 140.345 63.8576C139.912 63.8819 139.287 63.4211 139.672 62.7905C139.672 62.936 139.528 63.5908 140.081 63.4938C139.933 63.2549 139.867 62.9736 139.893 62.6931C139.919 62.4127 140.036 62.1487 140.225 61.9416C140.14 62.0469 140.08 62.1708 140.05 62.3035C140.021 62.4362 140.023 62.574 140.055 62.7059C140.088 62.8378 140.151 62.9602 140.239 63.0633C140.327 63.1664 140.437 63.2474 140.562 63.2998C140.829 63.3738 141.103 63.4225 141.379 63.4453C142.052 63.5666 142.1 64.0274 142.028 64.3427C142.317 63.7121 141.644 63.3968 141.355 63.2755C141.066 63.1543 141.018 63.2755 140.946 63.0087C140.899 62.9458 140.874 62.8692 140.874 62.7905C140.874 62.7118 140.899 62.6352 140.946 62.5722C140.754 62.8632 141.259 63.0088 141.451 63.0573C141.764 63.1066 142.052 63.2603 142.269 63.4938C142.378 63.6408 142.437 63.8195 142.437 64.0031C142.512 63.7368 142.533 63.4581 142.5 63.1833C142.467 62.9084 142.38 62.643 142.245 62.4024C142.117 62.1693 141.945 61.9634 141.74 61.7961C141.836 61.6897 141.899 61.5568 141.92 61.4143C141.942 61.2718 141.921 61.1261 141.86 60.9957V60.9957ZM141.451 61.7961C141.395 61.8299 141.332 61.8518 141.267 61.8603C141.202 61.8689 141.136 61.8639 141.073 61.8457C141.01 61.8276 140.951 61.7966 140.901 61.7547C140.85 61.7128 140.808 61.6608 140.778 61.6021C140.753 61.5149 140.753 61.4225 140.778 61.3353C140.782 61.2519 140.805 61.1708 140.847 61.0989C140.889 61.027 140.948 60.9666 141.018 60.923C141.134 60.8613 141.268 60.847 141.394 60.8832C141.519 60.9193 141.626 61.0031 141.692 61.117C141.738 61.1981 141.763 61.2901 141.763 61.3838C141.763 61.4774 141.738 61.5695 141.692 61.6506C141.654 61.7094 141.599 61.755 141.534 61.7811C141.47 61.8072 141.399 61.8124 141.331 61.7961H141.451Z" fill="white"/>
<path d="M157.152 55.4427L155.901 53.1872L156.623 52.7749C156.806 52.6489 157.026 52.5891 157.248 52.6051C157.344 52.6254 157.434 52.6693 157.509 52.7327C157.585 52.7961 157.643 52.8772 157.681 52.9689C157.704 53.0181 157.716 53.072 157.716 53.1265C157.716 53.1811 157.704 53.235 157.681 53.2842C157.653 53.4053 157.605 53.5204 157.536 53.6237C157.668 53.5756 157.813 53.5756 157.945 53.6237C158.075 53.6801 158.178 53.7842 158.234 53.9148C158.304 54.1023 158.304 54.3093 158.234 54.4968C158.135 54.7028 157.976 54.8724 157.777 54.9819L157.152 55.4427ZM156.719 53.9875L157.176 53.7207C157.28 53.6573 157.363 53.5646 157.416 53.454C157.44 53.4006 157.452 53.3427 157.452 53.2842C157.452 53.2256 157.44 53.1678 157.416 53.1144C157.392 53.0621 157.355 53.0168 157.309 52.9828C157.263 52.9489 157.208 52.9274 157.152 52.9204C157.095 52.8957 157.033 52.883 156.971 52.883C156.909 52.883 156.848 52.8957 156.791 52.9204L156.286 53.3569L156.719 53.9875ZM156.863 54.2058L157.296 55.0304L157.777 54.7394C157.84 54.7152 157.898 54.6763 157.944 54.6257C157.989 54.5752 158.023 54.5144 158.041 54.4483C158.065 54.395 158.078 54.3371 158.078 54.2786C158.078 54.22 158.065 54.1621 158.041 54.1088C158.015 54.0461 157.975 53.9903 157.924 53.946C157.873 53.9017 157.812 53.87 157.747 53.8535C157.682 53.837 157.613 53.8362 157.547 53.851C157.482 53.8659 157.42 53.896 157.368 53.939L156.863 54.2058Z" fill="white"/>
<path d="M159.364 54.1807L159.075 54.3505L157.753 51.9251L158.041 51.7554L159.364 54.1807Z" fill="white"/>
<path d="M159.268 53.1135C159.177 52.9681 159.127 52.8004 159.124 52.6285C159.11 52.4669 159.143 52.3048 159.22 52.1625C159.297 52.0201 159.414 51.9038 159.556 51.8281C159.661 51.7748 159.776 51.7471 159.893 51.7471C160.01 51.7471 160.125 51.7748 160.23 51.8281C160.472 51.9201 160.67 52.1024 160.783 52.3374C160.871 52.4947 160.928 52.6677 160.951 52.8467C160.987 52.9901 160.987 53.14 160.951 53.2833C160.871 53.4245 160.754 53.5417 160.614 53.6229C160.504 53.6702 160.386 53.6946 160.266 53.6946C160.146 53.6946 160.027 53.6702 159.917 53.6229C159.675 53.5308 159.477 53.3485 159.364 53.1135H159.268ZM159.58 53.1135C159.613 53.1956 159.662 53.2701 159.724 53.3327C159.786 53.3952 159.86 53.4444 159.941 53.4773C160.006 53.5182 160.081 53.5399 160.158 53.5399C160.234 53.5399 160.309 53.5182 160.374 53.4773C160.445 53.4446 160.507 53.394 160.553 53.3303C160.6 53.2666 160.629 53.192 160.638 53.1135C160.653 52.9242 160.602 52.7358 160.494 52.58C160.412 52.4112 160.277 52.2747 160.109 52.1919C160.041 52.1626 159.967 52.1474 159.893 52.1474C159.819 52.1474 159.745 52.1626 159.677 52.1919C159.608 52.2259 159.55 52.2774 159.508 52.3413C159.466 52.4051 159.441 52.4791 159.436 52.5557C159.445 52.7116 159.495 52.8624 159.58 52.9923V53.1135Z" fill="white"/>
<path d="M162.153 52.3376C162.248 52.2815 162.324 52.1967 162.369 52.0951C162.392 52.0501 162.405 52.0002 162.405 51.9496C162.405 51.8989 162.392 51.849 162.369 51.804L162.634 51.6343C162.67 51.7444 162.67 51.8636 162.634 51.9738C162.667 52.0845 162.667 52.2027 162.634 52.3134C162.555 52.42 162.457 52.5106 162.345 52.5801C162.244 52.6279 162.133 52.6526 162.021 52.6526C161.909 52.6526 161.798 52.6279 161.696 52.5801C161.448 52.5167 161.233 52.3606 161.095 52.1436C161.006 51.9972 160.956 51.8301 160.951 51.6585C160.901 51.5173 160.901 51.3632 160.951 51.222C161.031 51.0808 161.147 50.9636 161.287 50.8824C161.475 50.8244 161.676 50.8244 161.864 50.8824C162.043 50.942 162.196 51.0619 162.297 51.222L162.033 51.3675C161.964 51.2689 161.861 51.1997 161.744 51.1735C161.695 51.1498 161.642 51.1375 161.588 51.1375C161.534 51.1375 161.48 51.1498 161.432 51.1735C161.363 51.204 161.304 51.2509 161.257 51.31C161.211 51.3692 161.18 51.4389 161.167 51.513C161.167 51.7007 161.217 51.885 161.311 52.0466C161.391 52.2025 161.517 52.3297 161.672 52.4104C161.751 52.4451 161.838 52.4568 161.923 52.4439C162.008 52.431 162.088 52.3942 162.153 52.3376V52.3376Z" fill="white"/>
<path d="M163.283 50.9311V51.2222L163.596 51.8042L163.307 51.974L162.009 49.5487L162.273 49.3789L163.091 50.8098V50.5431L163.283 49.7185L163.644 49.5002L163.379 50.5673L164.63 51.1494L164.317 51.3192L163.283 50.9311Z" fill="white"/>
<path d="M178.047 97.9827C176.788 95.6936 176.464 93.0001 177.142 90.4736C177.82 87.947 179.446 85.7862 181.677 84.4494C181.928 84.3096 182.209 84.2346 182.495 84.2311C182.095 84.1288 181.672 84.1898 181.317 84.4009C179.085 85.7373 177.459 87.9 176.786 90.428C176.112 92.9559 176.444 95.6493 177.71 97.9342C178.508 99.3614 179.639 100.571 181.005 101.458C182.371 102.346 183.93 102.884 185.548 103.027C183.992 102.843 182.501 102.29 181.197 101.413C179.893 100.537 178.814 99.361 178.047 97.9827Z" fill="#BFBFBF"/>
<path d="M190.982 101.864C191.364 101.645 191.645 101.282 191.762 100.854C191.88 100.427 191.824 99.9698 191.607 99.5838L187.568 92.3078L183.504 85.0318C183.394 84.8305 183.243 84.655 183.061 84.5171C182.878 84.3791 182.669 84.2818 182.446 84.2314H182.23C182.445 84.4088 182.617 84.6326 182.735 84.8863L186.798 92.1623L190.838 99.4382C190.947 99.63 191.018 99.8421 191.044 100.062C191.071 100.281 191.053 100.504 190.993 100.717C190.932 100.93 190.83 101.128 190.692 101.3C190.553 101.472 190.382 101.614 190.189 101.718C188.502 102.603 186.602 102.99 184.707 102.834L183.697 102.64C184.275 102.837 184.871 102.975 185.476 103.052C187.386 103.19 189.295 102.778 190.982 101.864V101.864Z" fill="#A5A5A5"/>
<path d="M190.213 101.693C190.407 101.59 190.578 101.447 190.716 101.275C190.854 101.103 190.956 100.905 191.017 100.692C191.078 100.48 191.095 100.257 191.068 100.037C191.042 99.8175 190.972 99.6054 190.862 99.4137L186.823 92.1377L182.735 84.8859C182.606 84.6673 182.434 84.4774 182.23 84.3281C182.018 84.3447 181.812 84.4112 181.629 84.5221C179.411 85.846 177.787 87.9841 177.097 90.4886C176.407 92.9932 176.704 95.67 177.926 97.9585C179.155 100.183 181.188 101.843 183.601 102.591L184.611 102.785C186.543 102.972 188.488 102.593 190.213 101.693V101.693Z" fill="#BFBFBF"/>
<path d="M184.344 65.9145L178.28 69.3372C177.99 69.5007 177.887 69.8702 178.049 70.1624L181.301 76.0251C181.463 76.3174 181.83 76.4217 182.119 76.2582L188.183 72.8355C188.473 72.672 188.576 72.3025 188.414 72.0103L185.162 66.1476C185 65.8553 184.634 65.751 184.344 65.9145Z" fill="white"/>
<path d="M177.187 69.9424L179.558 68.6041L183.397 75.525L181.026 76.8633L177.187 69.9424Z" fill="#D8D8D8"/>
<path d="M179.348 68.7544L180.145 68.3044L183.985 75.2253L183.187 75.6754L179.348 68.7544Z" fill="#EFEFEF"/>
<path d="M177.174 69.96L178.391 69.273L182.23 76.194L181.013 76.8809L177.174 69.96Z" fill="#BFBFBF"/>
<path opacity="0.5" d="M177.565 69.7527L182.134 64.902C182.165 64.8466 182.211 64.8006 182.266 64.7686C182.321 64.7366 182.383 64.7197 182.446 64.7197C182.51 64.7197 182.572 64.7366 182.627 64.7686C182.682 64.8006 182.727 64.8466 182.759 64.902L183.576 66.3815L177.565 69.7527Z" fill="#4C4C4C"/>
<path d="M174.854 64.5824L170.133 56.0749C170.048 55.923 169.858 55.8688 169.707 55.9538L169.686 55.9657C169.536 56.0507 169.482 56.2428 169.566 56.3948L174.288 64.9023C174.372 65.0542 174.562 65.1085 174.713 65.0234L174.734 65.0116C174.885 64.9265 174.938 64.7344 174.854 64.5824Z" fill="#F2F2F2"/>
<path d="M170.013 64.6297L168.353 58.9032C168.305 58.7361 168.131 58.6402 167.966 58.6891L167.943 58.6959C167.777 58.7448 167.682 58.9199 167.73 59.087L169.39 64.8135C169.439 64.9806 169.612 65.0765 169.778 65.0276L169.801 65.0208C169.967 64.9719 170.062 64.7968 170.013 64.6297Z" fill="#777777"/>
<path d="M172.465 64.2742L169.156 57.1066C169.083 56.9488 168.897 56.8804 168.741 56.9539L168.719 56.9641C168.562 57.0376 168.494 57.2252 168.567 57.3831L171.876 64.5506C171.949 64.7084 172.135 64.7768 172.292 64.7033L172.313 64.6931C172.47 64.6196 172.538 64.432 172.465 64.2742Z" fill="#777777"/>
<path d="M172.463 64.2754L168.318 58.8013C168.213 58.663 168.017 58.6365 167.88 58.7422L167.861 58.7569C167.724 58.8626 167.697 59.0604 167.802 59.1988L171.947 64.6729C172.052 64.8113 172.248 64.8378 172.385 64.7321L172.404 64.7174C172.541 64.6117 172.568 64.4138 172.463 64.2754Z" fill="#F2F2F2"/>
<path d="M172.463 64.2754L168.318 58.8013C168.213 58.663 168.017 58.6365 167.88 58.7422L167.861 58.7569C167.724 58.8626 167.697 59.0604 167.802 59.1988L171.947 64.6729C172.052 64.8113 172.248 64.8378 172.385 64.7321L172.404 64.7174C172.541 64.6117 172.568 64.4138 172.463 64.2754Z" fill="#AFAFAF"/>
<path d="M174.65 64.3341L169.119 57.0289C169.014 56.8905 168.818 56.864 168.681 56.9697L168.662 56.9844C168.524 57.0901 168.498 57.288 168.603 57.4264L174.134 64.7315C174.239 64.8699 174.435 64.8964 174.572 64.7907L174.591 64.776C174.728 64.6703 174.755 64.4725 174.65 64.3341Z" fill="#F2F2F2"/>
<path d="M174.65 64.3341L169.119 57.0289C169.014 56.8905 168.818 56.864 168.681 56.9697L168.662 56.9844C168.524 57.0901 168.498 57.288 168.603 57.4264L174.134 64.7315C174.239 64.8699 174.435 64.8964 174.572 64.7907L174.591 64.776C174.728 64.6703 174.755 64.4725 174.65 64.3341Z" fill="#AFAFAF"/>
<path d="M174.854 64.5824L170.133 56.0749C170.048 55.923 169.858 55.8688 169.707 55.9538L169.686 55.9657C169.536 56.0507 169.482 56.2428 169.566 56.3948L174.288 64.9023C174.372 65.0542 174.562 65.1085 174.713 65.0234L174.734 65.0116C174.885 64.9265 174.938 64.7344 174.854 64.5824Z" fill="#AFAFAF"/>
<path d="M170.03 64.5821L167.634 60.2649C167.549 60.1129 167.359 60.0587 167.208 60.1438L167.187 60.1556C167.037 60.2407 166.983 60.4328 167.067 60.5847L169.463 64.902C169.547 65.0539 169.738 65.1081 169.889 65.0231L169.91 65.0112C170.06 64.9262 170.114 64.734 170.03 64.5821Z" fill="#F2F2F2"/>
<path d="M170.03 64.5821L167.634 60.2649C167.549 60.1129 167.359 60.0587 167.208 60.1438L167.187 60.1556C167.037 60.2407 166.983 60.4328 167.067 60.5847L169.463 64.902C169.547 65.0539 169.738 65.1081 169.889 65.0231L169.91 65.0112C170.06 64.9262 170.114 64.734 170.03 64.5821Z" fill="#AFAFAF"/>
<path d="M98.4981 124.609L93.7767 116.102C93.6924 115.95 93.5019 115.896 93.3513 115.981L93.3303 115.993C93.1797 116.078 93.1259 116.27 93.2102 116.422L97.9316 124.929C98.016 125.081 98.2064 125.135 98.3571 125.05L98.378 125.038C98.5287 124.953 98.5824 124.761 98.4981 124.609Z" fill="#F2F2F2"/>
<path d="M100.924 120.384L96.953 115.962C96.8371 115.833 96.6394 115.823 96.5115 115.94L96.4937 115.956C96.3657 116.073 96.356 116.273 96.4719 116.402L100.443 120.824C100.559 120.953 100.756 120.963 100.884 120.846L100.902 120.83C101.03 120.713 101.04 120.513 100.924 120.384Z" fill="#777777"/>
<path d="M99.4207 122.381L95.0944 115.788C94.9991 115.643 94.8052 115.603 94.6612 115.699L94.6412 115.712C94.4972 115.808 94.4578 116.004 94.553 116.149L98.8793 122.742C98.9746 122.888 99.1685 122.927 99.3125 122.831L99.3325 122.818C99.4765 122.722 99.516 122.526 99.4207 122.381Z" fill="#777777"/>
<path d="M99.4673 122.493L97.009 116.067C96.9469 115.904 96.7659 115.823 96.6049 115.886L96.5824 115.895C96.4214 115.957 96.3412 116.14 96.4033 116.302L98.8616 122.728C98.9237 122.891 99.1047 122.972 99.2657 122.909L99.2882 122.9C99.4492 122.838 99.5294 122.655 99.4673 122.493Z" fill="#F2F2F2"/>
<path d="M99.4677 122.493L97.0095 116.067C96.9474 115.904 96.7664 115.823 96.6054 115.886L96.5829 115.895C96.4219 115.957 96.3417 116.14 96.4038 116.302L98.8621 122.728C98.9242 122.891 99.1052 122.972 99.2662 122.909L99.2887 122.9C99.4497 122.838 99.5299 122.655 99.4677 122.493Z" fill="#AFAFAF"/>
<path d="M98.3823 124.39L95.1018 115.814C95.0396 115.652 94.8587 115.571 94.6976 115.634L94.6752 115.642C94.5142 115.705 94.434 115.887 94.4961 116.05L97.7767 124.626C97.8388 124.788 98.0198 124.869 98.1808 124.806L98.2032 124.798C98.3643 124.735 98.4445 124.552 98.3823 124.39Z" fill="#F2F2F2"/>
<path d="M98.3828 124.39L95.1023 115.814C95.0401 115.652 94.8592 115.571 94.6981 115.634L94.6757 115.642C94.5146 115.705 94.4345 115.887 94.4966 116.05L97.7771 124.626C97.8393 124.788 98.0202 124.869 98.1813 124.806L98.2037 124.798C98.3648 124.735 98.445 124.552 98.3828 124.39Z" fill="#AFAFAF"/>
<path d="M98.4981 124.609L93.7767 116.102C93.6924 115.95 93.5019 115.896 93.3513 115.981L93.3303 115.993C93.1797 116.078 93.1259 116.27 93.2102 116.422L97.9316 124.929C98.016 125.081 98.2064 125.135 98.3571 125.05L98.378 125.038C98.5287 124.953 98.5824 124.761 98.4981 124.609Z" fill="#AFAFAF"/>
<path d="M101 120.431L98.6043 116.114C98.52 115.962 98.3295 115.908 98.1789 115.993L98.1579 116.005C98.0073 116.09 97.9535 116.282 98.0379 116.434L100.434 120.751C100.518 120.903 100.709 120.957 100.859 120.872L100.88 120.86C101.031 120.775 101.085 120.583 101 120.431Z" fill="#F2F2F2"/>
<path d="M101 120.431L98.6043 116.114C98.52 115.962 98.3295 115.908 98.1789 115.993L98.1579 116.005C98.0073 116.09 97.9535 116.282 98.0379 116.434L100.434 120.751C100.518 120.903 100.709 120.957 100.859 120.872L100.88 120.86C101.031 120.775 101.085 120.583 101 120.431Z" fill="#AFAFAF"/>
<path d="M257.271 111.758L280.907 64.3916C280.907 64.3916 226.808 67.9083 227.192 68.1751C227.577 68.4419 234.045 79.5742 234.045 79.5742C228.092 81.0519 221.973 81.7449 215.844 81.6357C196.031 81.3204 190.285 70.5034 190.285 70.5034C190.285 70.5034 198.484 91.7008 210.361 98.6615C222.239 105.622 238.084 104.628 244.504 103.779C246.259 103.561 249.89 102.93 249.89 102.93L257.271 111.758Z" fill="#CE0E2D"/>
</svg>
