<svg width="330" height="232" viewBox="0 0 330 232" fill="none" xmlns="http://www.w3.org/2000/svg">
<path d="M285.041 52.9771H43.5436C38.7764 52.9771 34.9119 56.8416 34.9119 61.6088V173.726C34.9119 178.493 38.7764 182.357 43.5436 182.357H285.041C289.808 182.357 293.672 178.493 293.672 173.726V61.6088C293.672 56.8416 289.808 52.9771 285.041 52.9771Z" stroke="#D8D8D8" stroke-miterlimit="10"/>
<path d="M54.8501 67.9912L85.5173 36.7076L221.383 169.896L190.716 201.18L54.8501 67.9912Z" fill="#E5E4E4"/>
<path d="M80.6194 66.0728C82.5714 66.0728 84.1539 64.4904 84.1539 62.5384C84.1539 60.5863 82.5714 59.0039 80.6194 59.0039C78.6674 59.0039 77.085 60.5863 77.085 62.5384C77.085 64.4904 78.6674 66.0728 80.6194 66.0728Z" fill="#F9F9F9"/>
<path d="M78.1429 65.063C78.8099 65.7281 79.7135 66.1016 80.6554 66.1016C81.5974 66.1016 82.501 65.7281 83.168 65.063C83.5225 64.6967 83.7923 64.2571 83.9585 63.7752C84.1246 63.2933 84.1831 62.7809 84.1298 62.2739C84.0906 63.1159 83.7391 63.9131 83.144 64.51C82.8157 64.8386 82.4259 65.0993 81.9969 65.2772C81.5678 65.455 81.1079 65.5466 80.6434 65.5466C80.179 65.5466 79.719 65.455 79.29 65.2772C78.8609 65.0993 78.4711 64.8386 78.1429 64.51C77.541 63.9227 77.1735 63.1364 77.109 62.298C77.0669 62.8066 77.1377 63.3182 77.3165 63.7962C77.4952 64.2742 77.7774 64.7068 78.1429 65.063V65.063Z" fill="#E5E4E4" fill-opacity="0.5"/>
<path d="M201.44 184.489C203.392 184.489 204.974 182.906 204.974 180.954C204.974 179.002 203.392 177.42 201.44 177.42C199.488 177.42 197.906 179.002 197.906 180.954C197.906 182.906 199.488 184.489 201.44 184.489Z" fill="#F9F9F9"/>
<path d="M198.963 183.479C199.48 183.982 200.138 184.315 200.849 184.433C201.56 184.551 202.291 184.449 202.942 184.14C203.594 183.832 204.136 183.331 204.494 182.706C204.853 182.08 205.012 181.36 204.95 180.642C204.934 181.328 204.717 181.995 204.326 182.559C203.934 183.123 203.386 183.561 202.749 183.817C202.112 184.072 201.413 184.136 200.741 183.999C200.068 183.862 199.45 183.531 198.963 183.046C198.361 182.459 197.994 181.672 197.929 180.834C197.905 181.323 197.984 181.811 198.163 182.267C198.341 182.723 198.614 183.136 198.963 183.479V183.479Z" fill="#E5E4E4" fill-opacity="0.5"/>
<path d="M85.0581 37.1885L85.5294 36.7077L220.88 169.391L220.408 169.872L85.0581 37.1885Z" fill="#EDEDED"/>
<path d="M54.8513 68.0049L55.3226 67.5241L191.154 200.679L190.682 201.16L54.8513 68.0049Z" fill="#CFCECE"/>
<path d="M220.874 169.393L221.355 169.864L190.688 201.148L190.207 200.677L220.874 169.393Z" fill="#CFCECE"/>
<path d="M95.0457 90.4777C102.602 90.4777 108.727 84.3525 108.727 76.7967C108.727 69.2409 102.602 63.1157 95.0457 63.1157C87.4899 63.1157 81.3647 69.2409 81.3647 76.7967C81.3647 84.3525 87.4899 90.4777 95.0457 90.4777Z" fill="#BFBFBF"/>
<path d="M104.615 67.0101C102.666 65.0841 100.182 63.7902 97.4869 63.2969C94.7916 62.8037 92.0103 63.1341 89.5055 64.245C87.0008 65.3559 84.889 67.1957 83.4454 69.5247C82.0018 71.8536 81.2935 74.5634 81.4128 77.3008C81.365 73.6852 82.7555 70.1986 85.2783 67.6081C87.8012 65.0176 91.2497 63.5354 94.8654 63.4876C98.4811 63.4398 101.968 64.8302 104.558 67.3531C107.149 69.8759 108.631 73.3245 108.679 76.9402C108.71 75.096 108.365 73.2648 107.667 71.5578C106.968 69.8507 105.93 68.3035 104.615 67.0101V67.0101Z" fill="#B2B2B2"/>
<path d="M107.067 65.3031L105 67.3949C105.149 67.7978 105.187 68.2333 105.111 68.6561C105.035 69.079 104.847 69.4737 104.567 69.7993L88.3852 86.2934C88.0749 86.599 87.682 86.8073 87.2548 86.8928C86.8277 86.9782 86.3849 86.937 85.9808 86.7743L84.0573 88.7218C83.6813 89.1079 83.4709 89.6255 83.4709 90.1645C83.4709 90.7034 83.6813 91.221 84.0573 91.6071L182.974 188.744C183.357 189.126 183.876 189.341 184.417 189.341C184.957 189.341 185.476 189.126 185.859 188.744L208.941 165.181C209.13 164.994 209.279 164.771 209.381 164.525C209.483 164.28 209.535 164.017 209.535 163.751C209.535 163.485 209.483 163.222 209.381 162.976C209.279 162.731 209.13 162.508 208.941 162.32L109.929 65.255C109.738 65.0698 109.512 64.9241 109.265 64.8263C109.018 64.7285 108.754 64.6804 108.488 64.6849C108.222 64.6893 107.96 64.7462 107.716 64.8523C107.472 64.9584 107.252 65.1116 107.067 65.3031V65.3031Z" fill="#5B5B5B"/>
<path d="M109.929 66.0005L208.917 163.018C209.2 163.306 209.385 163.676 209.446 164.076C209.511 163.758 209.496 163.43 209.404 163.12C209.312 162.81 209.145 162.527 208.917 162.296L109.929 65.2552C109.741 65.0669 109.518 64.9175 109.272 64.8155C109.027 64.7136 108.764 64.6611 108.498 64.6611C108.232 64.6611 107.969 64.7136 107.723 64.8155C107.478 64.9175 107.255 65.0669 107.067 65.2552L105 67.347C105.078 67.5322 105.134 67.7259 105.168 67.924L107.067 65.9765C107.257 65.7898 107.481 65.6422 107.727 65.5424C107.973 65.4425 108.237 65.3922 108.503 65.3944C108.769 65.3967 109.031 65.4514 109.276 65.5554C109.521 65.6594 109.742 65.8107 109.929 66.0005V66.0005Z" fill="#494949"/>
<path d="M85.8848 87.6395C86.308 87.8064 86.7699 87.8498 87.2167 87.7646C87.6636 87.6795 88.0772 87.4694 88.4094 87.1586L104.567 70.6645C104.816 70.407 105.001 70.094 105.105 69.7512C105.21 69.4084 105.231 69.0456 105.168 68.6929C105.104 69.1553 104.893 69.585 104.567 69.9191L88.3854 86.4132C88.075 86.7189 87.6821 86.9272 87.255 87.0126C86.8278 87.098 86.385 87.0569 85.981 86.8941L84.0575 88.8417C83.8337 89.0839 83.6711 89.3762 83.5832 89.6941C83.4954 90.0119 83.4849 90.3462 83.5525 90.669C83.6132 90.2625 83.798 89.8846 84.0815 89.587L85.8848 87.6395Z" fill="#5B5B5B"/>
<path d="M98.58 86.5574L96.5363 84.5618L97.2576 86.9662L97.0653 87.1585L94.6609 86.4853L96.7046 88.4809L96.368 88.8416L93.7712 86.2689L94.1079 85.9323L96.7527 86.6776L95.9592 84.153L96.2718 83.8164L98.9407 86.4131L98.58 86.5574Z" fill="white"/>
<path d="M100.984 83.5765L101.296 83.8891L99.5411 85.6684L96.8962 83.0716L98.6034 81.3164L98.8919 81.6049L97.5214 83.0235L98.3629 83.8651L99.5651 82.6388L99.8536 82.9033L98.5793 84.1536L99.493 85.0673L100.984 83.5765Z" fill="white"/>
<path d="M101.489 83.6972L99.8782 80.0185L100.143 79.73L103.845 81.2688L103.509 81.6295L102.427 81.1726L101.345 82.2546L101.826 83.3366L101.489 83.6972ZM100.407 80.2589L101.152 81.942L102.09 80.9803L100.407 80.2589Z" fill="white"/>
<path d="M103.389 77.0849L102.499 77.9986L104.904 80.403L104.591 80.7396L102.187 78.3352L101.225 79.345L100.984 78.9363L103.076 76.7964L103.389 77.0849Z" fill="white"/>
<path d="M107.452 76.9406L107.741 77.2291L106.009 79.0083L103.389 76.4597L105.096 74.7285L105.384 75.017L103.99 76.4116L104.855 77.2531L106.058 76.0269L106.346 76.3154L105.144 77.5417L106.058 78.4313L107.452 76.9406Z" fill="white"/>
<path d="M108.197 76.9406L105.552 74.3439L106.634 73.2138C106.741 73.1034 106.873 73.0208 107.019 72.9734C107.17 72.9503 107.324 72.9503 107.476 72.9734L107.884 73.0936C108.021 73.1453 108.145 73.2275 108.245 73.334C108.339 73.4178 108.42 73.515 108.486 73.6226C108.536 73.7307 108.577 73.8434 108.606 73.9592C108.618 74.0791 108.618 74.1999 108.606 74.3198C108.616 74.4318 108.616 74.5445 108.606 74.6564L110.241 75.0171L109.88 75.3778L108.197 74.8488L107.524 75.5461L108.462 76.4838L108.197 76.9406ZM107.283 75.3778L108.053 74.5843C108.123 74.5194 108.173 74.436 108.197 74.3439C108.209 74.2642 108.209 74.1831 108.197 74.1034C108.207 74.0075 108.207 73.9108 108.197 73.8149C108.146 73.7319 108.081 73.6586 108.005 73.5985C107.941 73.5218 107.858 73.4636 107.764 73.4302H107.476C107.389 73.4078 107.298 73.4078 107.211 73.4302C107.129 73.4612 107.055 73.5105 106.995 73.5745L106.25 74.3439L107.356 75.4259L107.283 75.3778Z" fill="white"/>
<path d="M92.689 87.0385C92.4827 86.8388 92.2068 86.7271 91.9196 86.7271C91.6325 86.7271 91.3565 86.8388 91.1502 87.0385C91.0246 87.1709 90.9344 87.3329 90.8882 87.5094C90.8419 87.686 90.8411 87.8714 90.8858 88.0484C90.4498 88.195 90.0545 88.4421 89.7316 88.7697C89.3327 89.183 89.0617 89.7029 88.9512 90.2666C88.8407 90.8303 88.8954 91.414 89.1088 91.9474C89.3221 92.4808 89.685 92.9412 90.1538 93.2732C90.6226 93.6052 91.1774 93.7947 91.7513 93.8189C91.5219 93.6529 91.353 93.4165 91.2705 93.1457C91.1502 92.7369 91.03 91.7992 90.3087 92.0156C90.3696 91.9679 90.4402 91.9342 90.5155 91.9167C90.5908 91.8992 90.6691 91.8985 90.7447 91.9145C90.8204 91.9306 90.8916 91.963 90.9533 92.0096C91.0151 92.0561 91.0659 92.1156 91.1021 92.1839C91.3185 92.4965 91.4147 92.9774 91.8716 93.0976C91.9603 93.1165 92.0525 93.1111 92.1385 93.082C92.2244 93.0529 92.3009 93.0012 92.36 92.9323C92.419 92.8634 92.4584 92.7799 92.474 92.6905C92.4896 92.6011 92.4808 92.5092 92.4486 92.4244C92.2082 91.8714 91.3666 92.2561 92.0399 92.785C91.9637 92.7957 91.8861 92.7858 91.815 92.7565C91.7439 92.7272 91.6819 92.6795 91.6354 92.6183C91.5889 92.557 91.5595 92.4845 91.5503 92.4082C91.5411 92.3319 91.5524 92.2544 91.583 92.1839C91.6497 92.0723 91.7399 91.9766 91.8475 91.9036C91.9551 91.8307 92.0774 91.7822 92.2058 91.7615C92.3341 91.7409 92.4654 91.7487 92.5905 91.7842C92.7155 91.8198 92.8312 91.8824 92.9295 91.9675C92.9295 91.1981 92.3284 91.4145 91.7273 91.5828C91.1262 91.7511 90.0923 91.4145 90.3808 90.4047C90.3808 90.6211 90.3808 91.5828 91.2224 91.1981C90.9168 90.9285 90.7088 90.5655 90.6306 90.1656C90.5523 89.7656 90.6082 89.351 90.7896 88.9861C90.7144 89.1684 90.6818 89.3654 90.6941 89.5622C90.7064 89.759 90.7634 89.9504 90.8607 90.1219C90.9581 90.2934 91.0932 90.4405 91.2558 90.5519C91.4185 90.6634 91.6044 90.7364 91.7994 90.7653C92.2031 90.7329 92.6045 90.6767 93.0016 90.597C94.0115 90.597 94.2519 91.102 94.2759 91.5588C94.4202 90.573 93.3623 90.4287 92.9054 90.4047C92.7789 90.4153 92.6515 90.3993 92.5315 90.3579C92.4114 90.3165 92.3013 90.2506 92.2082 90.1642C92.1451 90.0722 92.1114 89.9632 92.1114 89.8517C92.1114 89.7401 92.1451 89.6311 92.2082 89.5391C92.0639 90.044 92.8333 90.044 93.1218 90.02C93.5798 89.9579 94.0454 90.051 94.4442 90.2845C94.6579 90.4351 94.8112 90.6566 94.877 90.9096C94.8755 90.5135 94.7937 90.1218 94.6367 89.7582C94.4797 89.3945 94.2506 89.0665 93.9634 88.7937C93.6923 88.529 93.3743 88.317 93.0257 88.1686C93.079 87.9675 93.0758 87.7556 93.0164 87.5562C92.957 87.3568 92.8437 87.1777 92.689 87.0385V87.0385ZM92.4486 88.3129C92.3835 88.3812 92.3051 88.4357 92.2184 88.4729C92.1316 88.5101 92.0381 88.5293 91.9437 88.5293C91.8493 88.5293 91.7558 88.5101 91.669 88.4729C91.5822 88.4357 91.5039 88.3812 91.4388 88.3129C91.3066 88.178 91.2326 87.9967 91.2326 87.8079C91.2326 87.6191 91.3066 87.4379 91.4388 87.303C91.5523 87.1879 91.7013 87.1142 91.8617 87.0939C92.0222 87.0735 92.1848 87.1077 92.3235 87.1909C92.4622 87.2741 92.5689 87.4016 92.6265 87.5527C92.684 87.7038 92.6891 87.8699 92.641 88.0243C92.6066 88.1373 92.5397 88.2377 92.4486 88.3129V88.3129Z" fill="white"/>
<path d="M103.458 107.996L115.022 96.1999L154.547 134.946L142.984 146.742L103.458 107.996Z" fill="#424242"/>
<path d="M117.55 101.177C118.103 100.624 118.777 100.383 119.065 100.672L124.667 106.178C124.956 106.442 124.667 107.115 124.186 107.668L117.55 101.177Z" fill="#F2F2F2"/>
<path d="M124.377 107.407L117.818 100.977C117.799 100.958 117.769 100.959 117.75 100.978L117.565 101.167C117.547 101.186 117.547 101.216 117.566 101.235L124.125 107.664C124.144 107.683 124.174 107.683 124.193 107.664L124.378 107.475C124.396 107.456 124.396 107.425 124.377 107.407Z" fill="#C8C8C9"/>
<path d="M115.122 116.926H115.002C114.473 117.479 113.8 117.72 113.511 117.431L107.885 112.046C107.62 111.781 107.885 111.108 108.366 110.531L115.122 116.926Z" fill="#F2F2F2"/>
<path d="M115.092 116.9L108.516 110.454C108.497 110.435 108.467 110.435 108.448 110.454L108.263 110.643C108.244 110.662 108.245 110.693 108.264 110.711L114.84 117.158C114.859 117.176 114.889 117.176 114.908 117.157L115.093 116.968C115.111 116.949 115.111 116.919 115.092 116.9Z" fill="#C8C8C9"/>
<path d="M142.941 126.062C143.494 125.485 144.167 125.269 144.432 125.533L150.058 131.063C150.346 131.328 150.058 132.001 149.577 132.554L142.941 126.062Z" fill="#F2F2F2"/>
<path d="M149.781 132.276L143.222 125.846C143.203 125.828 143.172 125.828 143.154 125.847L142.969 126.036C142.95 126.055 142.95 126.085 142.969 126.104L149.528 132.533C149.547 132.552 149.578 132.552 149.596 132.533L149.781 132.344C149.8 132.325 149.8 132.294 149.781 132.276Z" fill="#C8C8C9"/>
<path d="M140.512 141.859V141.979C139.959 142.532 139.286 142.749 139.022 142.484L133.275 137.05C132.987 136.762 133.275 136.089 133.756 135.536L140.512 141.859Z" fill="#F2F2F2"/>
<path d="M140.455 141.777L133.879 135.33C133.86 135.311 133.83 135.312 133.811 135.331L133.626 135.52C133.607 135.539 133.608 135.569 133.627 135.588L140.203 142.034C140.222 142.053 140.252 142.052 140.271 142.033L140.456 141.845C140.474 141.826 140.474 141.795 140.455 141.777Z" fill="#C8C8C9"/>
<path d="M147.664 136.742L144.617 139.85C144.506 139.963 144.508 140.146 144.621 140.258L145.6 141.217C145.714 141.329 145.896 141.327 146.008 141.213L149.055 138.105C149.166 137.991 149.164 137.809 149.05 137.697L148.072 136.738C147.958 136.626 147.775 136.628 147.664 136.742Z" fill="#C8C8C9"/>
<path d="M113.808 100.632L107.833 106.728C107.721 106.841 107.723 107.024 107.837 107.136L108.833 108.112C108.947 108.223 109.129 108.222 109.241 108.108L115.216 102.012C115.328 101.899 115.326 101.716 115.212 101.604L114.216 100.628C114.102 100.517 113.92 100.518 113.808 100.632Z" fill="#C8C8C9"/>
<path d="M105.625 107.621L132.242 133.66L141.354 124.38L114.738 98.3159" fill="#C8C8C9"/>
<path d="M113.632 99.4463L140.2 125.486L139.022 126.712L112.574 100.648" fill="#F2F2F2"/>
<path d="M107.068 106.154L133.636 132.242L136.209 129.621L109.616 103.533" fill="#7F7F80"/>
<path d="M132.073 133.564L158.69 159.604L167.803 150.299L141.186 124.259" fill="#EFEFEF"/>
<path d="M140.104 125.389L166.672 151.476L165.494 152.679L138.902 126.591" fill="white"/>
<path d="M133.54 132.073L160.108 158.137L162.657 155.516L136.088 129.477" fill="#A5A5A5"/>
<path d="M105.481 107.765L132.049 133.804L133.66 132.169L107.092 106.13" fill="#707070"/>
<path d="M131.953 133.709L158.522 159.748L160.109 158.113L133.54 132.074" fill="#8E8E8E"/>
<path d="M106.466 106.755L132.915 132.794L133.973 131.736L107.5 105.793" fill="#A3A3A3"/>
<path d="M132.939 132.699L159.507 158.69L160.541 157.632L134.093 131.593" fill="#C1C1C1"/>
<path d="M110.337 103.389L113.271 100.384C113.078 100.191 112.814 100.384 112.501 100.552C111.583 101.294 110.715 102.097 109.905 102.956C109.054 103.792 108.252 104.675 107.5 105.601C107.26 105.914 107.164 106.178 107.356 106.37L110.337 103.389Z" fill="#F2F2F2"/>
<path d="M147.798 140.056L144.865 143.062C145.081 143.278 145.345 143.182 145.658 142.917C146.57 142.167 147.437 141.364 148.255 140.513C149.105 139.677 149.908 138.794 150.659 137.868C150.9 137.555 150.996 137.291 150.779 137.099L147.822 140.104L147.798 140.056Z" fill="#F2F2F2"/>
<path d="M85.4973 36.7056L85.9782 37.1768L55.3164 68.4657L54.8355 67.9945L85.4973 36.7056Z" fill="#EDEDED"/>
<path opacity="0.7" d="M156.021 71.7952C155.833 71.6069 155.61 71.4575 155.365 71.3556C155.119 71.2536 154.856 71.2012 154.59 71.2012C154.325 71.2012 154.061 71.2536 153.816 71.3556C153.57 71.4575 153.347 71.6069 153.16 71.7952L130.078 95.3582C129.889 95.5459 129.74 95.7688 129.638 96.0143C129.536 96.2598 129.484 96.523 129.484 96.7888C129.484 97.0547 129.536 97.3179 129.638 97.5634C129.74 97.8089 129.889 98.0318 130.078 98.2195L203.724 170.351L229.595 143.903L156.021 71.7952Z" fill="#4C4C4C"/>
<path opacity="0.2" d="M205.506 168.626L231.916 141.722L240.598 150.245L214.188 177.149L205.506 168.626Z" fill="#4C4C4C"/>
<path d="M152.706 63.6441L129.596 87.2184C128.815 88.0149 128.828 89.2937 129.625 90.0745L231.03 189.482C231.827 190.263 233.105 190.25 233.886 189.454L256.996 165.879C257.777 165.083 257.764 163.804 256.968 163.023L155.562 63.6157C154.766 62.8348 153.487 62.8476 152.706 63.6441Z" fill="#E5E4E4"/>
<path d="M159.87 143.952L152.879 137.104C152.547 136.778 152.014 136.784 151.689 137.116L145.11 143.832C144.785 144.164 144.79 144.696 145.122 145.022L152.113 151.87C152.445 152.195 152.978 152.189 153.303 151.857L159.882 145.142C160.207 144.81 160.202 144.277 159.87 143.952Z" fill="white"/>
<path d="M151.639 135.9L154.387 138.592L146.631 146.51L143.883 143.818L151.639 135.9Z" fill="#D8D8D8"/>
<path d="M154.104 138.311L155.031 139.22L147.275 147.138L146.347 146.229L154.104 138.311Z" fill="#EFEFEF"/>
<path d="M151.65 135.869L153.059 137.249L145.302 145.167L143.894 143.787L151.65 135.869Z" fill="#BFBFBF"/>
<path d="M144.6 144.504L148.663 152.511C148.695 152.596 148.748 152.672 148.818 152.73C148.888 152.789 148.971 152.829 149.061 152.846C149.15 152.863 149.242 152.856 149.329 152.827C149.415 152.798 149.492 152.747 149.553 152.679L151.212 150.996L144.6 144.504Z" fill="#424242"/>
<path d="M243.325 107.38L259.073 157.416C259.073 157.416 201.368 148.519 201.921 148.327C202.474 148.135 211.539 137.531 211.539 137.531C205.321 135.417 198.855 134.116 192.303 133.66C170.977 132.025 162.537 142.34 162.537 142.34C162.537 142.34 175.761 121.807 190.043 115.892C204.325 109.977 221.661 111.949 227.985 114.377C234.308 116.806 233.611 115.483 233.611 115.483L243.325 107.38Z" fill="#CE0E2D"/>
</svg>
