<svg width="113" height="77" viewBox="0 0 113 77" fill="none" xmlns="http://www.w3.org/2000/svg">
<g clip-path="url(#clip0_6580_12424)">
<rect width="113" height="77" fill="white"/>
<path d="M108.55 63.4043H4.26996C1.91996 63.4043 0 61.5143 0 59.1943V17.7842C0 15.4642 1.90996 13.5742 4.26996 13.5742H108.55C110.9 13.5742 112.82 15.4642 112.82 17.7842V59.1943C112.82 61.5143 110.9 63.4043 108.55 63.4043ZM4.26996 14.0742C2.18996 14.0742 0.5 15.7342 0.5 17.7842V59.1943C0.5 61.2343 2.18996 62.9043 4.26996 62.9043H108.55C110.63 62.9043 112.31 61.2343 112.31 59.1943V17.7842C112.31 15.7342 110.62 14.0742 108.55 14.0742H4.26996Z" fill="#231F20"/>
<path d="M88.0918 23.9556V39.1111L95.5 26L93.3165 24.9333L88.0918 23.9556Z" fill="#CE0E2D"/>
<path d="M104.251 39.1113C104.251 48.0335 97.0823 55.3668 88.0909 55.3668C79.221 55.3668 71.9307 48.1557 71.9307 39.1113C71.9307 30.1891 79.0995 22.8557 88.0909 22.8557C97.0823 22.8557 104.251 30.1891 104.251 39.1113ZM88.0909 25.1779C80.436 25.1779 74.2393 31.4113 74.2393 39.1113C74.2393 46.8113 80.436 53.0446 88.0909 53.0446C95.7457 53.0446 101.942 46.8113 101.942 39.1113C102.064 31.4113 95.8672 25.1779 88.0909 25.1779Z" fill="#686867"/>
<path d="M88.5775 24.8113H87.6055V26.0335H88.5775V24.8113Z" fill="#686867"/>
<path d="M81.4082 26.4879L80.5664 26.9768L81.1739 28.0353L82.0157 27.5464L81.4082 26.4879Z" fill="#686867"/>
<path d="M76.0563 31.5524L75.5703 32.3992L76.6225 33.0103L77.1086 32.1635L76.0563 31.5524Z" fill="#686867"/>
<path d="M73.8281 38.5977L73.8281 39.5754L75.0432 39.5754L75.0432 38.5977L73.8281 38.5977Z" fill="#686867"/>
<path d="M75.4984 45.811L75.9844 46.6577L77.0366 46.0466L76.5506 45.1999L75.4984 45.811Z" fill="#686867"/>
<path d="M80.5195 51.2203L81.3613 51.7092L81.9689 50.6508L81.1271 50.1619L80.5195 51.2203Z" fill="#686867"/>
<path d="M87.5397 53.3972L88.5117 53.3972L88.5117 52.175L87.5397 52.175L87.5397 53.3972Z" fill="#686867"/>
<path d="M94.7236 51.7762L95.5654 51.2874L94.9579 50.2289L94.1161 50.7178L94.7236 51.7762Z" fill="#686867"/>
<path d="M100.054 46.6827L100.54 45.8359L99.4878 45.2248L99.0018 46.0716L100.054 46.6827Z" fill="#686867"/>
<path d="M102.247 39.6404L102.247 38.6626L101.032 38.6626L101.032 39.6404L102.247 39.6404Z" fill="#686867"/>
<path d="M100.638 32.4163L100.152 31.5696L99.1001 32.1807L99.5861 33.0274L100.638 32.4163Z" fill="#686867"/>
<path d="M95.6221 26.975L94.7803 26.4861L94.1727 27.5445L95.0145 28.0334L95.6221 26.975Z" fill="#686867"/>
<path d="M88.832 49H87.7929V43.9803L86.2599 44.5042V43.6239L88.6989 42.7265H88.832V49Z" fill="#5E6262"/>
<path fill-rule="evenodd" clip-rule="evenodd" d="M63.0617 25.3L51.7617 41.4334H58.08L55.5284 52.1889L66.8284 36.0556H60.5101L63.0617 25.3Z" fill="#74B958"/>
<path d="M40.521 9.08234L1.13184 17.0977L10.832 64.7665L50.2212 56.7512L40.521 9.08234Z" fill="#B8BBBB"/>
<path d="M9.81641 61.679L50.697 53.3538L51.4425 57.1436L10.5619 65.4688L9.81641 61.679Z" fill="#F1C987"/>
<path d="M0.558594 16.3252L41.4392 8L42.3089 12.1626L1.42839 20.4878L0.558594 16.3252Z" fill="#F1C987"/>
<path d="M1.30371 20.1153L42.1843 11.79L42.3085 12.5356L1.4901 20.8608L1.30371 20.1153Z" fill="#F4F2F1"/>
<path d="M1.30371 20.0528L42.1843 11.7275V11.8518L1.30371 20.177V20.0528Z" fill="white"/>
<path d="M1.49121 20.7984L21.7451 16.6979L42.3718 12.4731L50.697 53.3537L9.81643 61.6789L1.49121 20.7984Z" fill="#D0A76D"/>
<path d="M42.3711 12.4731L22.6143 16.5115L29.3241 49.4396L49.081 45.4013L42.3711 12.4731Z" fill="#F1C987"/>
<path d="M1.42773 20.6741L42.3083 12.3489V12.4731L1.42773 20.7984V20.6741Z" fill="#CED0CF"/>
<path d="M19.6935 58.697L15.4688 59.5668L15.6551 60.4987L19.8799 59.6289L19.6935 58.697Z" fill="#D2D4D4"/>
<path d="M19.756 58.8833L15.5312 59.7531L15.5934 60.0016L19.8181 59.1318L19.756 58.8833Z" fill="#ECECEB"/>
<path d="M24.7267 57.7029L20.502 58.5727L20.6883 59.5046L24.9131 58.6348L24.7267 57.7029Z" fill="#D2D4D4"/>
<path d="M24.7892 57.8271L20.5645 58.6969L20.6266 58.9455L24.8513 58.0757L24.7892 57.8271Z" fill="#ECECEB"/>
<path d="M29.8214 56.6467L25.5967 57.5165L25.7831 58.4485L30.0078 57.5787L29.8214 56.6467Z" fill="#D2D4D4"/>
<path d="M29.8833 57.0193L11.6797 60.747L11.8039 61.3062L30.0076 57.5784L29.8833 57.0193Z" fill="#D2D4D4"/>
<path d="M29.8214 56.833L25.5967 57.7028L25.6588 57.9513L29.8835 57.0815L29.8214 56.833Z" fill="#ECECEB"/>
<path d="M14.7247 59.6907L10.5 60.5605L10.6864 61.4924L14.9111 60.6226L14.7247 59.6907Z" fill="#D2D4D4"/>
<path d="M14.7247 59.8774L10.5 60.7473L10.5621 60.9958L14.7869 60.126L14.7247 59.8774Z" fill="#ECECEB"/>
<path d="M29.945 57.4543L10.623 61.3685L10.6852 61.4927L30.0071 57.5786L29.945 57.4543Z" fill="#8C8F90"/>
<path d="M29.945 57.3301L10.623 61.2442L10.6852 61.3684L30.0071 57.4543L29.945 57.3301Z" fill="#B8BBBB"/>
<path d="M22.6149 16.6982L1.49121 20.9851L1.55333 21.2958L22.677 17.0089L22.6149 16.6982Z" fill="#B18E64"/>
<path d="M22.6149 16.5115L1.49121 20.7983L1.55333 21.109L22.677 16.8221L22.6149 16.5115Z" fill="#A2815B"/>
<path d="M49.081 45.5876L28.8271 49.6881L28.8893 49.9988L49.1432 45.8983L49.081 45.5876Z" fill="#B18E64"/>
<path d="M29.1992 49.8125L22.4894 16.9465L22.1787 17.0086L28.8886 49.8746L29.1992 49.8125Z" fill="#B18E64"/>
<path d="M29.3242 49.6263L22.6144 16.6982L22.3037 16.7604L29.0136 49.6885L29.3242 49.6263Z" fill="#A2815B"/>
<path d="M49.0812 45.4014L29.0137 49.5019L29.0758 49.8125L49.1433 45.712L49.0812 45.4014Z" fill="#A2815B"/>
<path d="M39.762 15.1447L26.0316 17.9405C25.7209 18.0026 25.5967 18.2511 25.5967 18.5618L31.1882 46.209C31.2504 46.5196 31.4989 46.6439 31.8095 46.6439L45.5399 43.8481C45.8506 43.786 45.9748 43.5375 45.9748 43.2268L40.3833 15.5796C40.3211 15.269 40.0105 15.0826 39.762 15.1447Z" fill="#494B4C"/>
<path d="M31.6836 19.4317L35.1007 18.7483L36.5918 25.9552L33.1747 26.6386L31.6836 19.4317Z" fill="#5C6060"/>
<path d="M36.9661 29.4966L34.2324 30.0557L36.8418 42.9163L39.5755 42.3572L36.9661 29.4966Z" stroke="#D2D4D4" stroke-width="0.2465"/>
<path d="M31.6225 29.7448C31.9953 29.6827 32.1817 29.3099 32.1196 28.9993C32.0574 28.6265 31.6847 28.4401 31.374 28.5023C31.0013 28.5644 30.8149 28.9372 30.877 29.2478C30.9391 29.6206 31.2498 29.807 31.6225 29.7448Z" stroke="#D2D4D4" stroke-width="0.2614" stroke-miterlimit="10"/>
<path d="M36.7168 36.8897C37.0896 36.9518 37.4002 36.7654 37.5245 36.3927C37.5866 36.0199 37.4002 35.7093 37.0275 35.585C36.6547 35.5229 36.344 35.7093 36.2198 36.082C36.1577 36.4548 36.344 36.7654 36.7168 36.8897Z" stroke="#D2D4D4" stroke-width="0.2614" stroke-miterlimit="10"/>
<path d="M32.9897 36.082L32.2441 37.2003L33.3625 37.9459" stroke="#D2D4D4" stroke-width="0.1942"/>
<path d="M36.7799 31.112L35.6616 30.3665L34.916 31.4848" stroke="#D2D4D4" stroke-width="0.1942"/>
<path d="M38.7682 40.9282L38.0226 42.0465L36.9043 41.301" stroke="#D2D4D4" stroke-width="0.1942"/>
<path d="M40.3818 34.5911L41.5002 35.3366L40.7546 36.3928" stroke="#D2D4D4" stroke-width="0.1942"/>
<path d="M39.2036 28.1916C39.5764 28.1295 39.7628 27.7567 39.7006 27.4461C39.6385 27.0733 39.2657 26.8869 38.9551 26.949C38.5823 27.0112 38.3959 27.3839 38.4581 27.6946C38.4581 28.0673 38.8308 28.3159 39.2036 28.1916Z" stroke="#D2D4D4" stroke-width="0.2614" stroke-miterlimit="10"/>
<path d="M31.8092 46.5818C31.747 46.5818 31.6849 46.5818 31.6228 46.5818C31.5606 46.5818 31.4985 46.5197 31.4364 46.5197C31.3743 46.4576 31.3121 46.4576 31.3121 46.3954C31.25 46.3333 31.25 46.2712 31.25 46.209L25.6584 18.5619C25.6584 18.4376 25.6584 18.3755 25.6584 18.2512C25.5963 18.3133 25.5342 18.3755 25.5342 18.4997C25.5342 18.5619 25.5342 18.6861 25.5342 18.7483L31.1879 46.3333C31.1879 46.3954 31.25 46.4576 31.25 46.5197C31.3121 46.5818 31.3121 46.644 31.3743 46.644C31.4364 46.7061 31.4985 46.7061 31.5606 46.7061C31.6228 46.7061 31.6849 46.7061 31.747 46.7061L45.4774 43.9103C45.5396 43.9103 45.6638 43.8482 45.7259 43.786C45.7881 43.7239 45.8502 43.6618 45.8502 43.5997C45.7881 43.6618 45.6638 43.7239 45.6017 43.7239L31.8092 46.5818Z" fill="#F4D5A6"/>
<path d="M0.744981 16.2632L0.558594 16.3253L7.82763 52.1735L8.01401 52.1113L0.744981 16.2632Z" fill="#C9A46F"/>
<path d="M9.93931 61.4304L9.75293 61.4926L10.5606 65.593L10.747 65.5309L9.93931 61.4304Z" fill="#C9A46F"/>
<path d="M21.931 63.2323L21.8689 63.0459L10.5615 65.3447L10.6237 65.531L21.931 63.2323Z" fill="#C9A46F"/>
<path d="M51.4418 57.2057L51.3797 57.0193L21.6201 63.1079L21.6822 63.2943L51.4418 57.2057Z" fill="#C9A46F"/>
<path d="M41.4403 8L41.2539 8.06213L48.8957 45.4635L49.0821 45.4014L41.4403 8Z" fill="#F4D5A6"/>
<path d="M41.5013 8.1864L41.4392 8L0.558594 16.3252L0.620717 16.5116L41.5013 8.1864Z" fill="#F4D5A6"/>
<path d="M50.5096 52.5461L50.3232 52.6083L51.2552 57.0815L51.4416 57.0194L50.5096 52.5461Z" fill="#F4D5A6"/>
<path d="M49.0809 45.4014L48.8945 45.4635L50.5099 53.4159L50.6963 53.3538L49.0809 45.4014Z" fill="#DCB484"/>
<path d="M10.4367 53.0432L4.59659 24.3399C4.34807 22.973 4.34807 21.6062 4.4102 20.3015C4.28594 20.3015 3.78891 22.8488 4.09956 24.4641L9.93963 53.1675L10.8716 60.0016L10.9958 60.4986L11.4928 60.3744L10.4367 53.0432Z" fill="#B18E64"/>
<path d="M10.6228 52.981L4.78273 24.2776C4.53421 22.9729 4.40996 21.6061 4.47209 20.2393C4.34783 20.2393 3.97506 22.7865 4.2857 24.3397L10.1258 53.0431L11.0577 59.8772L11.182 60.3743L11.679 60.25L10.6228 52.981Z" fill="#A2815B"/>
<path d="M13.6677 59.8771L13.5434 59.3801L11.4932 59.815L11.6174 60.3121L13.6677 59.8771Z" fill="#D4D6D5"/>
<path d="M11.4941 59.8152L10.5 53.0432L11.8047 52.7947L13.5443 59.4424L11.4941 59.8152Z" fill="#BDBFC0"/>
<path d="M11.4924 59.8152L10.8711 52.9189L11.4303 52.7947L13.5426 59.3803L11.4924 59.8152Z" fill="#B1B3B5"/>
<path d="M11.4928 59.8151L10.7473 52.981H10.623L11.4928 59.8151Z" fill="#75797B"/>
<path d="M11.8042 52.7947L13.5438 59.4424L11.5557 52.8568L11.8042 52.7947Z" fill="#CED0CF"/>
<path d="M5.96436 24.0291C5.65372 22.4138 4.65966 20.2393 4.5354 20.2393C4.41114 20.2393 4.34901 22.7244 4.65966 24.2776L10.4997 52.981L11.8044 52.7325L5.96436 24.0291Z" fill="#BDBFC0"/>
<path d="M11.431 52.8569L5.59096 24.1535C5.28032 22.5381 4.59691 20.2394 4.47266 20.3015C4.65904 20.3015 5.40458 22.5381 5.77735 24.1535L11.6174 52.8569H11.431Z" fill="white"/>
<path d="M10.6859 52.981L4.84585 24.2776C4.7216 22.6623 4.41096 20.4256 4.47309 20.2393C4.34883 20.2393 4.41095 22.6623 4.7216 24.2776L10.5617 52.981H10.6859Z" fill="#75797B"/>
<path d="M10.8717 52.9811L5.03167 24.2777C4.84528 22.6624 4.47252 20.4258 4.47252 20.3015C4.34826 20.3015 4.53464 22.7245 4.84528 24.3399L10.6854 53.0432L10.8717 52.9811Z" fill="#CED0CF"/>
<path d="M9.25685 40.3069L7.95215 40.5554V40.6175L9.25685 40.3069Z" fill="#ECECEB"/>
<path d="M9.25685 40.3691L7.95215 40.6177V40.6798L9.25685 40.3691Z" fill="#75797B"/>
<path d="M10.126 51.3034L10.2502 52.049L11.5549 51.8005L11.4307 51.0549" fill="#292C2F"/>
<path d="M11.245 51.0549L11.3692 51.8005L11.1828 51.8626L11.0586 51.1171" fill="#75797B"/>
<path d="M10.25 51.2415L10.3743 51.987H10.4985L10.3743 51.2415" fill="#14181B"/>
<path d="M10.375 51.2413L10.4993 51.9869L10.6856 51.9247L10.5614 51.1792" fill="#2C2F31"/>
<path d="M11.4936 59.8152L10.748 52.9811L10.9344 52.9189L11.4936 59.8152Z" fill="#DADCDC"/>
<path d="M13.5436 59.3803L11.5555 52.7947L11.3691 52.8568L13.5436 59.3803Z" fill="white"/>
<path d="M15.4699 52.0489L9.62978 23.3455C9.44339 21.9787 9.38127 20.674 9.4434 19.3071C9.31914 19.3071 8.82212 21.8544 9.13276 23.4697L14.9728 52.1731L15.9048 59.0072L16.029 59.5043L16.526 59.38L15.4699 52.0489Z" fill="#B18E64"/>
<path d="M15.5945 51.9871L9.75441 23.2837C9.50589 21.979 9.38164 20.6122 9.44377 19.2454C9.31951 19.2454 8.94674 21.7926 9.25738 23.3458L15.0975 52.0492L16.0294 58.8834L16.1536 59.3804L16.6507 59.2561L15.5945 51.9871Z" fill="#A2815B"/>
<path d="M18.6374 58.8833L18.5131 58.3862L16.4629 58.8211L16.5872 59.3182L18.6374 58.8833Z" fill="#D4D6D5"/>
<path d="M16.4628 58.8214L15.4688 51.9873L16.7734 51.7388L18.513 58.3865L16.4628 58.8214Z" fill="#BDBFC0"/>
<path d="M16.4641 58.8211L15.8428 51.9248L16.4019 51.8005L18.5143 58.3862L16.4641 58.8211Z" fill="#B1B3B5"/>
<path d="M16.4635 58.821L15.718 51.9868H15.5938L16.4635 58.821Z" fill="#75797B"/>
<path d="M16.7739 51.7388L18.5135 58.3865L16.5254 51.8009L16.7739 51.7388Z" fill="#CED0CF"/>
<path d="M10.9956 23.0352C10.685 21.4199 9.69091 19.2454 9.56665 19.2454C9.38027 19.2454 9.38027 21.7305 9.69091 23.2837L15.531 51.9871L16.8357 51.7386L10.9956 23.0352Z" fill="#BDBFC0"/>
<path d="M16.4018 51.8005L10.5617 23.0971C10.251 21.4818 9.56762 19.183 9.44336 19.2451C9.62974 19.2451 10.3753 21.4818 10.7481 23.0971L16.5881 51.8005H16.4018Z" fill="white"/>
<path d="M15.7182 51.9871L9.87809 23.2837C9.75383 21.6684 9.44318 19.4317 9.50531 19.2454C9.38105 19.2454 9.44319 21.6684 9.75383 23.2837L15.5939 52.0492L15.7182 51.9871Z" fill="#75797B"/>
<path d="M15.904 51.925L10.0639 23.2216C9.87752 21.6062 9.50474 19.3696 9.50474 19.2454C9.38048 19.2454 9.56687 21.6684 9.87752 23.2837L15.7176 51.9871L15.904 51.925Z" fill="#CED0CF"/>
<path d="M14.2891 39.3127L12.9844 39.5613V39.6234L14.2891 39.3127Z" fill="#ECECEB"/>
<path d="M14.2891 39.3127L12.9844 39.5613V39.6234L14.2891 39.3127Z" fill="#75797B"/>
<path d="M15.1592 50.2475L15.2834 50.9931L16.5881 50.7446L16.4639 49.999" fill="#292C2F"/>
<path d="M16.2147 50.0608L16.339 50.8063L16.1526 50.8685L16.0283 50.1229" fill="#75797B"/>
<path d="M15.2207 50.2476L15.345 50.9931H15.4692L15.345 50.3097" fill="#14181B"/>
<path d="M15.3457 50.2475L15.47 50.931L15.6563 50.8688L15.5321 50.1233" fill="#2C2F31"/>
<path d="M16.4643 58.821L15.7188 51.9868H15.9051L16.4643 58.821Z" fill="#DADCDC"/>
<path d="M18.5768 58.3862L16.5887 51.8005L16.4023 51.8627L18.5768 58.3862Z" fill="white"/>
<path d="M20.5021 50.993L14.662 22.2896C14.4135 20.9227 14.4135 19.5559 14.4756 18.2512C14.3514 18.2512 13.8543 20.7985 14.165 22.4138L20.0051 51.1172L20.937 57.9514L21.0613 58.4484L21.5583 58.3241L20.5021 50.993Z" fill="#B18E64"/>
<path d="M20.6882 50.993L14.8482 22.2896C14.5996 20.9849 14.4754 19.618 14.5375 18.2512C14.4133 18.2512 14.0405 20.7985 14.3511 22.3517L20.1912 51.0551L21.1231 57.8892L21.2474 58.3862L21.7444 58.262L20.6882 50.993Z" fill="#A2815B"/>
<path d="M23.6706 57.8891L23.5463 57.3921L21.4961 57.827L21.6203 58.324L23.6706 57.8891Z" fill="#D4D6D5"/>
<path d="M21.496 57.7651L20.502 50.9931L21.8067 50.7446L23.5463 57.3924L21.496 57.7651Z" fill="#BDBFC0"/>
<path d="M21.4953 57.7651L20.874 50.8689L21.4332 50.7446L23.5456 57.3303L21.4953 57.7651Z" fill="#B1B3B5"/>
<path d="M21.4958 57.7648L20.7502 50.9307H20.626L21.4958 57.7648Z" fill="#75797B"/>
<path d="M21.8686 50.7446L23.6082 57.3924L21.6201 50.8068L21.8686 50.7446Z" fill="#CED0CF"/>
<path d="M15.9663 21.979C15.6557 20.3637 14.6616 18.1892 14.5374 18.1892C14.4131 18.1892 14.351 20.6743 14.6616 22.2276L20.5017 50.9309L21.8064 50.6824L15.9663 21.979Z" fill="#BDBFC0"/>
<path d="M21.433 50.8066L15.5929 22.1032C15.2823 20.4879 14.5989 18.1891 14.4746 18.2512C14.661 18.2512 15.4065 20.4879 15.7793 22.1032L21.6194 50.8066H21.433Z" fill="white"/>
<path d="M20.7494 50.9309L14.9093 22.2276C14.7851 20.6122 14.4744 18.3756 14.5366 18.1892C14.4123 18.1892 14.4744 20.6122 14.7851 22.2276L20.6252 50.9309H20.7494Z" fill="#75797B"/>
<path d="M20.9372 50.9308L15.0971 22.2275C14.9107 20.6121 14.5379 18.3755 14.5379 18.2512C14.4137 18.2512 14.6001 20.6742 14.9107 22.2896L20.7508 50.9929L20.9372 50.9308Z" fill="#CED0CF"/>
<path d="M19.3203 38.2566L18.0156 38.5051V38.5672L19.3203 38.2566Z" fill="#ECECEB"/>
<path d="M19.3203 38.3188L18.0156 38.5674V38.6295L19.3203 38.3188Z" fill="#75797B"/>
<path d="M20.1914 49.2534L20.3157 49.9989L21.6204 49.7504L21.4961 49.0049" fill="#292C2F"/>
<path d="M21.2479 49.0049L21.3722 49.7504H21.1858L21.0615 49.067" fill="#75797B"/>
<path d="M20.2539 49.1909L20.3782 49.9364H20.5024L20.3782 49.1909" fill="#14181B"/>
<path d="M20.377 49.1913L20.5012 49.9368L20.6876 49.8747L20.5633 49.1292" fill="#2C2F31"/>
<path d="M21.4965 57.7652L20.751 50.931L20.9374 50.8689L21.4965 57.7652Z" fill="#DADCDC"/>
<path d="M23.6081 57.392L21.62 50.8064L21.4336 50.8685L23.6081 57.392Z" fill="white"/>
<path d="M25.4728 49.9988L19.6327 21.2954C19.3842 19.9286 19.3842 18.6239 19.4463 17.2571C19.3221 17.2571 18.825 19.8043 19.1357 21.4197L24.9758 50.1231L25.9077 56.9572L26.032 57.4542L26.529 57.33L25.4728 49.9988Z" fill="#B18E64"/>
<path d="M25.7205 49.9368L19.8804 21.2334C19.6319 19.9287 19.5697 18.5619 19.5697 17.1951C19.4455 17.1951 19.0727 19.7423 19.3834 21.2956L25.2234 50.061L26.1554 56.8952L26.2796 57.3922L26.7766 57.268L25.7205 49.9368Z" fill="#A2815B"/>
<path d="M28.7028 56.8332L28.5786 56.3362L26.5283 56.7711L26.6526 57.2681L28.7028 56.8332Z" fill="#D4D6D5"/>
<path d="M26.5282 56.7708L25.5342 49.9988L26.8389 49.7502L28.5785 56.398L26.5282 56.7708Z" fill="#BDBFC0"/>
<path d="M26.5285 56.7708L25.9072 49.8745L26.4664 49.7502L28.5787 56.3359L26.5285 56.7708Z" fill="#B1B3B5"/>
<path d="M26.529 56.7709L25.7834 49.9368H25.6592L26.529 56.7709Z" fill="#75797B"/>
<path d="M26.8393 49.6882L28.5789 56.336L26.5908 49.7504L26.8393 49.6882Z" fill="#CED0CF"/>
<path d="M20.9995 20.9849C20.6889 19.3696 19.6948 17.1951 19.5706 17.1951C19.3842 17.1951 19.3842 19.6802 19.6948 21.2334L25.5349 49.9368L26.8396 49.6883L20.9995 20.9849Z" fill="#BDBFC0"/>
<path d="M26.5277 49.7504L20.6877 21.047C20.377 19.4317 19.6936 17.1951 19.5693 17.1951C19.7557 17.1951 20.5013 19.4317 20.874 21.047L26.7141 49.7504H26.5277Z" fill="white"/>
<path d="M25.7826 49.9368L19.9425 21.2334C19.8183 19.6181 19.5076 17.3815 19.5698 17.1951C19.4455 17.1951 19.5076 19.6181 19.8183 21.2334L25.6584 49.9368H25.7826Z" fill="#75797B"/>
<path d="M25.9694 49.8747L20.1293 21.1713C19.9429 19.5559 19.5702 17.3193 19.5702 17.1951C19.4459 17.1951 19.6323 19.6181 19.9429 21.2334L25.783 49.9368L25.9694 49.8747Z" fill="#CED0CF"/>
<path d="M24.3545 37.2625L23.0498 37.511V37.5731L24.3545 37.2625Z" fill="#ECECEB"/>
<path d="M24.3545 37.2625L23.0498 37.511V37.5731L24.3545 37.2625Z" fill="#75797B"/>
<path d="M25.2236 48.1974L25.3479 48.9429L26.6526 48.6944L26.5283 48.011" fill="#292C2F"/>
<path d="M26.2801 48.011L26.4044 48.7565L26.218 48.8186L26.0938 48.0731" fill="#75797B"/>
<path d="M25.2852 48.1973L25.4094 48.9428H25.5337L25.4094 48.1973" fill="#14181B"/>
<path d="M25.4102 48.1971L25.5344 48.9427L25.7208 48.8806L25.5965 48.135" fill="#2C2F31"/>
<path d="M26.5268 56.7709L25.7812 49.9368H25.9676L26.5268 56.7709Z" fill="#DADCDC"/>
<path d="M28.6413 56.3359L26.6532 49.7502L26.4668 49.8124L28.6413 56.3359Z" fill="white"/>
</g>
<defs>
<clipPath id="clip0_6580_12424">
<rect width="113" height="77" fill="white"/>
</clipPath>
</defs>
</svg>
