<svg width="264" height="175" viewBox="0 0 264 175" fill="none" xmlns="http://www.w3.org/2000/svg">
<g clip-path="url(#clip0_7714_862)">
<path d="M205 49V86.6013L241.5 87L241.198 78.1543L232.646 62.1291L217.997 51.3652L205 49Z" fill="#CE0E2D"/>
<path d="M215.258 67V83H211.875V70.2109H211.781L208.117 72.5078V69.5078L212.078 67H215.258ZM224.904 83.2187C223.8 83.2187 222.816 83.0156 221.951 82.6094C221.092 82.2031 220.41 81.6432 219.904 80.9297C219.399 80.2161 219.136 79.3984 219.115 78.4766H222.396C222.433 79.0964 222.693 79.599 223.178 79.9844C223.662 80.3698 224.238 80.5625 224.904 80.5625C225.436 80.5625 225.904 80.4453 226.311 80.2109C226.722 79.9714 227.042 79.6406 227.271 79.2188C227.506 78.7917 227.623 78.3021 227.623 77.75C227.623 77.1875 227.503 76.6927 227.264 76.2656C227.029 75.8385 226.704 75.5052 226.287 75.2656C225.87 75.026 225.394 74.9036 224.857 74.8984C224.389 74.8984 223.933 74.9948 223.49 75.1875C223.053 75.3802 222.712 75.6432 222.467 75.9766L219.459 75.4375L220.217 67H229.998V69.7656H223.006L222.592 73.7734H222.686C222.967 73.3776 223.391 73.0495 223.959 72.7891C224.527 72.5286 225.162 72.3984 225.865 72.3984C226.829 72.3984 227.688 72.625 228.443 73.0781C229.199 73.5312 229.795 74.1536 230.232 74.9453C230.67 75.7318 230.886 76.638 230.881 77.6641C230.886 78.7422 230.636 79.7005 230.131 80.5391C229.631 81.3724 228.93 82.0286 228.029 82.5078C227.133 82.9818 226.092 83.2187 224.904 83.2187Z" fill="white"/>
<path d="M74.0002 21.8113H254.113C255.257 21.8113 256.39 22.0355 257.447 22.4713C258.503 22.907 259.463 23.5456 260.271 24.3504C261.079 25.1553 261.719 26.1106 262.155 27.1617C262.59 28.2127 262.813 29.3388 262.81 30.4755L262.664 143.014C262.664 144.15 262.438 145.276 262 146.326C261.561 147.376 260.918 148.329 260.108 149.132C259.298 149.934 258.336 150.57 257.278 151.003C256.22 151.436 255.087 151.657 253.943 151.654L9.93651 151.364C7.62343 151.364 5.40495 150.451 3.76936 148.827C2.13377 147.202 1.21484 144.998 1.21484 142.7L1.36075 30.2583C1.36074 29.1216 1.58644 27.9961 2.02503 26.9463C2.46362 25.8964 3.10657 24.9429 3.91675 24.1403C4.72693 23.3376 5.68848 22.7017 6.74647 22.2689C7.80447 21.8362 8.93795 21.615 10.0821 21.6182L76.3555 21.8113" stroke="#D8D8D8" stroke-miterlimit="10"/>
<path d="M245.39 87.0703C245.395 95.0241 243.024 102.8 238.577 109.414C234.13 116.028 227.807 121.182 220.409 124.224C213.011 127.265 204.871 128.057 197.02 126.5C189.169 124.942 181.959 121.105 176.305 115.474C170.65 109.843 166.805 102.672 165.256 94.8685C163.708 87.0651 164.524 78.9805 167.604 71.6386C170.683 64.2968 175.886 58.0279 182.555 53.6259C189.223 49.224 197.056 46.8869 205.063 46.9108C215.767 46.9364 226.024 51.1787 233.584 58.7073C241.145 66.2359 245.39 76.4361 245.39 87.0703ZM205.063 52.3652C198.152 52.3604 191.396 54.3918 185.648 58.2023C179.899 62.0129 175.418 67.4314 172.77 73.7725C170.122 80.1136 169.427 87.0924 170.772 93.8262C172.118 100.56 175.443 106.746 180.327 111.602C185.212 116.458 191.437 119.766 198.214 121.107C204.991 122.448 212.017 121.762 218.402 119.136C224.787 116.51 230.244 112.062 234.083 106.354C237.923 100.646 239.973 93.9354 239.973 87.0703C239.973 77.8701 236.296 69.0464 229.749 62.5386C223.203 56.0308 214.324 52.3716 205.063 52.3652Z" fill="#676766"/>
<path d="M206.086 51.5444H203.656V54.7302H206.086V51.5444Z" fill="#676766"/>
<path d="M188.057 55.6566L185.953 56.8633L187.557 59.6222L189.66 58.4155L188.057 55.6566Z" fill="#676766"/>
<path d="M174.543 68.1897L173.328 70.2798L176.105 71.8727L177.32 69.7826L174.543 68.1897Z" fill="#676766"/>
<path d="M169.133 85.7428V88.1562H172.34V85.7428H169.133Z" fill="#676766"/>
<path d="M173.301 103.625L174.516 105.715L177.293 104.122L176.078 102.032L173.301 103.625Z" fill="#676766"/>
<path d="M185.888 117.037L187.992 118.244L189.596 115.485L187.492 114.278L185.888 117.037Z" fill="#676766"/>
<path d="M203.532 122.427H205.961V119.242H203.532V122.427Z" fill="#676766"/>
<path d="M221.545 118.299L223.648 117.092L222.045 114.333L219.941 115.54L221.545 118.299Z" fill="#676766"/>
<path d="M235.059 105.799L236.273 103.709L233.496 102.116L232.282 104.206L235.059 105.799Z" fill="#676766"/>
<path d="M240.484 88.2528V85.8394H237.278V88.2528H240.484Z" fill="#676766"/>
<path d="M236.324 70.3635L235.109 68.2734L232.332 69.8663L233.547 71.9564L236.324 70.3635Z" fill="#676766"/>
<path d="M223.745 56.9172L221.641 55.7104L220.037 58.4694L222.141 59.6761L223.745 56.9172Z" fill="#676766"/>
<path fill-rule="evenodd" clip-rule="evenodd" d="M131.333 52.8721L103.031 93.0074H118.774L112.433 119.555L140.784 79.5164H125.042L131.333 52.8721Z" fill="#61D458"/>
<g filter="url(#filter0_d_7714_862)">
<rect width="33.4462" height="155.061" transform="matrix(0.991531 -0.129872 0.131906 0.991262 34.3008 8.33984)" fill="#C4C4C4"/>
</g>
<path d="M70.3134 15.7699L34.841 20.4018L52.4932 152.711L87.9093 148.061L70.3134 15.7699Z" fill="#D8AE6C"/>
<path d="M68.4721 2.09379L33.0341 6.77316L34.8293 20.5948L70.2567 15.9489L68.4721 2.09379Z" fill="#F4CE89"/>
<path d="M53.1591 18.4705L70.3455 16.1729L83.7231 116.563L66.5658 118.809L53.1591 18.4705Z" fill="#F4CE89"/>
<path d="M87.8146 147.45L52.3984 152.099L54.1021 164.908L89.5268 160.323L87.8146 147.45Z" fill="#F4CE89"/>
<path d="M53.2614 19.238L35.0624 21.6485L35.1833 22.6309L53.4386 20.2379L53.2614 19.238Z" fill="#BA9563"/>
<path d="M53.1853 18.6608L34.93 21.0538L35.0622 22.0397L53.3175 19.6467L53.1853 18.6608Z" fill="#AD885A"/>
<path d="M83.5841 115.993L65.6117 118.351L65.744 119.337L83.7163 116.978L83.5841 115.993Z" fill="#BA9563"/>
<path d="M83.5324 115.373L65.5523 117.717L65.6845 118.703L83.6681 116.347L83.5324 115.373Z" fill="#AD885A"/>
<path d="M65.9915 119.255L52.8339 20.1971L51.8402 20.3282L65.0351 119.386L65.9915 119.255Z" fill="#BA9563"/>
<path d="M66.5175 118.61L53.3317 19.641L52.3379 19.7721L65.5239 118.741L66.5175 118.61Z" fill="#AD885A"/>
<path d="M34.6129 18.8574L70.0663 14.2074L70.3307 16.1791L34.8773 20.8292L34.6129 18.8574Z" fill="#F8F7F7"/>
<path d="M34.5771 18.5129L70.0336 13.8426L70.089 14.2524L34.6331 18.9598L34.5771 18.5129Z" fill="white"/>
<path d="M67.4118 147.177L53.9315 148.94L54.3293 151.972L67.8244 150.201L67.4118 147.177Z" fill="#DBDBDB"/>
<path d="M67.495 147.73L53.9851 149.508L54.0827 150.213L67.5891 148.447L67.495 147.73Z" fill="#F2F2F2"/>
<path d="M67.7536 149.723L54.2582 151.493L54.3226 151.992L67.8179 150.222L67.7536 149.723Z" fill="#969696"/>
<path d="M67.6971 149.313L54.208 151.057L54.2836 151.559L67.7589 149.765L67.6971 149.313Z" fill="#C4C4C4"/>
<path d="M34.8768 20.6819L70.3077 16.0249L70.3631 16.4347L34.9428 21.0583L34.8768 20.6819Z" fill="#D8D8D8"/>
<path d="M33.7148 6.65412L33.0366 6.74295L34.6049 18.5286L35.2831 18.4398L33.7148 6.65412Z" fill="#D1AB6F"/>
<path d="M68.4295 2.09638L67.7514 2.18521L69.3197 13.9708L69.9978 13.882L68.4295 2.09638Z" fill="#F7DBAD"/>
<path d="M70.3708 16.4243L69.6926 16.5131L82.858 115.45L83.5361 115.361L70.3708 16.4243Z" fill="#F7DBAD"/>
<path d="M52.8662 150.299L52.1881 150.388L54.1154 164.907L54.7935 164.818L52.8662 150.299Z" fill="#D1AB6F"/>
<path d="M89.3151 160.297L89.2335 159.684L54.5081 164.232L54.5897 164.845L89.3151 160.297Z" fill="#D1AB6F"/>
<path d="M68.3594 2.81621L68.2699 2.14343L33.0534 6.75615L33.1429 7.42894L68.3594 2.81621Z" fill="#F7DBAD"/>
<path d="M35.7739 21.9819L35.0958 22.0707L52.3874 152.036L53.0655 151.947L35.7739 21.9819Z" fill="#BA9563"/>
<path d="M87.8534 147.445L87.0993 147.544L88.8137 160.407L89.5678 160.308L87.8534 147.445Z" fill="#F7DBAD"/>
<path d="M83.7665 116.904L83.0884 116.993L87.1499 147.537L87.828 147.448L83.7665 116.904Z" fill="#E2BB88"/>
<path d="M73.5755 109.007C73.8714 109.099 74.1883 109.103 74.4861 109.017C74.7839 108.93 75.0492 108.758 75.2485 108.523C75.4479 108.287 75.5722 107.998 75.6059 107.692C75.6395 107.386 75.581 107.077 75.4376 106.804C75.2943 106.531 75.0726 106.306 74.8006 106.158C74.5285 106.01 74.2184 105.946 73.9093 105.973C73.6003 105.999 73.3063 106.117 73.0644 106.309C72.8226 106.502 72.6437 106.762 72.5506 107.055C72.4281 107.449 72.467 107.875 72.6589 108.24C72.8508 108.605 73.1801 108.881 73.5755 109.007Z" fill="#676766"/>
<path d="M75.605 107.322C75.5711 106.99 75.4341 106.677 75.2129 106.426C75.0007 106.197 74.7247 106.036 74.42 105.963C74.0996 105.885 73.7622 105.91 73.4574 106.036C73.1588 106.161 72.9069 106.376 72.7363 106.649C72.9829 106.371 73.3239 106.192 73.6945 106.147C73.985 106.108 74.2808 106.152 74.547 106.273C74.8135 106.398 75.0411 106.591 75.2056 106.833C75.3634 107.08 75.4487 107.365 75.4519 107.656C75.4457 107.959 75.3523 108.253 75.1827 108.504C75.3269 108.341 75.4356 108.149 75.5021 107.942C75.5796 107.745 75.6146 107.534 75.605 107.322Z" fill="#909091"/>
<path d="M82.8708 153.848L85.4472 153.492L85.6435 155.008L83.0495 155.42L83.4376 158.388L81.8062 158.599L81.4182 155.631L78.7569 156.021L78.564 154.495L81.1404 154.139L80.7891 151.365L82.424 151.143L82.8708 153.848Z" fill="#676766"/>
<path d="M54.2079 116.987L42.3798 28.1315C41.9837 23.8393 42.7643 24.4708 43.4156 20.2093C43.041 20.2621 40.1428 23.2184 40.8106 28.3205L52.5917 117.176L55.179 147.271L55.3736 148.753L57.0069 148.542L54.2079 116.987Z" fill="#BA9563"/>
<path d="M54.6655 116.871L42.8374 28.0155C42.3684 23.7668 42.6242 23.7134 43.3631 20.1809C42.7879 20.7455 40.6056 23.1349 41.2734 28.237L53.1052 117.031L55.6977 147.159L55.8983 148.685L57.5058 148.477L54.6655 116.871Z" fill="#AD885A"/>
<g clip-path="url(#clip1_7714_862)">
<path d="M47.0067 25.2005C46.5954 22.0723 44.1433 18.5454 43.735 18.5982C43.3458 18.6486 41.8659 22.6844 42.2772 25.8126L54.222 116.661L59.0562 116.035L47.0067 25.2005Z" fill="#C7C8C9"/>
<path d="M55.011 116.559L43.2664 25.8174C42.838 22.5589 43.5211 19.0389 43.7344 18.5986C43.2431 18.9273 42.1294 22.6506 42.5553 25.8898L54.4855 116.627L55.011 116.559Z" fill="#7F7F7F"/>
<path d="M57.8024 116.198L45.8575 25.3494C45.4462 22.2211 44.2079 18.9301 43.7348 18.5984L43.7536 18.596C44.2263 18.9255 46.0712 22.1403 46.4825 25.2685L58.4273 116.117L57.8492 116.192L57.8024 116.198Z" fill="white"/>
<path d="M55.7193 116.467L43.7745 25.6191C43.3632 22.4909 43.523 19.0237 43.7344 18.5986C43.3745 18.9103 42.6548 22.5826 43.0664 25.713L55.011 116.559L55.8801 116.447L55.7193 116.467Z" fill="#D8D8D8"/>
<path d="M57.1485 147.036L54.2236 116.661L58.4276 116.117L63.9681 146.154L57.1485 147.036Z" fill="#C8C8C9"/>
<path d="M57.1484 147.036L55.0117 116.559L54.4862 116.627L57.1484 147.036Z" fill="#7F7F80"/>
<path d="M59.058 116.035L63.9798 146.152L58.4274 116.117L59.058 116.035Z" fill="#D8D8D8"/>
<path d="M63.9798 146.152L58.4274 116.117L57.8064 116.197L63.9798 146.152Z" fill="white"/>
<path d="M57.1407 147.013L55.0095 116.559L55.7261 116.466L57.1407 147.013Z" fill="#D8D8D8"/>
<path d="M64.1861 147.716L63.9805 146.152L57.1492 147.039L57.3642 148.599L64.1861 147.716Z" fill="#DDDDDD"/>
<path d="M54.5974 82.0976L54.5703 81.8916L49.6481 82.5286L49.6752 82.7347L54.5974 82.0976Z" fill="#F2F2F2"/>
<path d="M54.6145 82.225L54.5977 82.0967L49.6722 82.7341L49.689 82.8624L54.6145 82.225Z" fill="#7F7F7F"/>
<path d="M53.7982 113.422L54.1369 115.998L58.9716 115.372L58.6329 112.797" fill="#303030"/>
<path d="M58 112.879L58.3386 115.454L57.7174 115.535L57.3788 112.959" fill="#5B5B5B"/>
<path d="M54.0601 113.389L54.398 115.959L55.5215 115.813L55.1836 113.243" fill="#1D1D1B"/>
<path d="M54.5874 113.323L54.9255 115.894L55.6349 115.802L55.2969 113.231" fill="#333333"/>
</g>
<rect width="35.799" height="1.45006" transform="matrix(0.991729 -0.128349 0.130359 0.991467 34.6055 18.9023)" fill="#F8F7F7"/>
<rect width="35.799" height="0.725032" transform="matrix(0.991729 -0.128349 0.130359 0.991467 34.8008 20.3398)" fill="#D8D8D8"/>
<path d="M34.5156 18.1836L70.0185 13.5888L70.113 14.3077L34.6101 18.9024L34.5156 18.1836Z" fill="white"/>
</g>
<defs>
<filter id="filter0_d_7714_862" x="22.3008" y="-0.00390625" width="73.6172" height="178.05" filterUnits="userSpaceOnUse" color-interpolation-filters="sRGB">
<feFlood flood-opacity="0" result="BackgroundImageFix"/>
<feColorMatrix in="SourceAlpha" type="matrix" values="0 0 0 0 0 0 0 0 0 0 0 0 0 0 0 0 0 0 127 0" result="hardAlpha"/>
<feOffset dx="-2" dy="6"/>
<feGaussianBlur stdDeviation="5"/>
<feComposite in2="hardAlpha" operator="out"/>
<feColorMatrix type="matrix" values="0 0 0 0 0 0 0 0 0 0 0 0 0 0 0 0 0 0 0.35 0"/>
<feBlend mode="normal" in2="BackgroundImageFix" result="effect1_dropShadow_7714_862"/>
<feBlend mode="normal" in="SourceGraphic" in2="effect1_dropShadow_7714_862" result="shape"/>
</filter>
<clipPath id="clip0_7714_862">
<rect width="264" height="175" fill="white"/>
</clipPath>
<clipPath id="clip1_7714_862">
<rect width="130.675" height="7.9483" fill="white" transform="matrix(0.130359 0.991467 -0.991729 0.128349 47.6758 18.0884)"/>
</clipPath>
</defs>
</svg>
