<svg width="113" height="77" viewBox="0 0 113 77" fill="none" xmlns="http://www.w3.org/2000/svg">
<g clip-path="url(#clip0_6580_12610)">
<path d="M108.55 63.4043H4.26996C1.91996 63.4043 0 61.5143 0 59.1943V17.7842C0 15.4642 1.90996 13.5742 4.26996 13.5742H108.55C110.9 13.5742 112.82 15.4642 112.82 17.7842V59.1943C112.82 61.5143 110.9 63.4043 108.55 63.4043ZM4.26996 14.0742C2.18996 14.0742 0.5 15.7342 0.5 17.7842V59.1943C0.5 61.2343 2.18996 62.9043 4.26996 62.9043H108.55C110.63 62.9043 112.31 61.2343 112.31 59.1943V17.7842C112.31 15.7342 110.62 14.0742 108.55 14.0742H4.26996Z" fill="#D8D8D8"/>
<path d="M88.832 49H87.7929V43.9803L86.2599 44.5042V43.6239L88.6989 42.7265H88.832V49Z" fill="#5E6262"/>
<path d="M10.667 16.3534L51.2058 8L61.2176 56.6465L20.6788 65L10.667 16.3534Z" fill="#F4CE89"/>
<path d="M59.9271 56.8308L50.8366 12.9138L50.6523 12.9752L59.7429 56.8923L59.9271 56.8308Z" fill="#BA9462"/>
<path d="M60.05 56.8923L50.898 12.6682L50.6523 12.7296L59.8043 56.9538L60.05 56.8923Z" fill="#AD885A"/>
<path d="M22.2151 64.6931L13.1246 20.7146L12.8789 20.776L21.9694 64.6931H22.2151Z" fill="#BA9462"/>
<path d="M22.1535 64.6929L13.0015 20.5916L12.7559 20.653L21.9078 64.7543L22.1535 64.6929Z" fill="#AD885A"/>
<path d="M36.0957 60.4549C36.0957 60.332 36.0957 60.2706 36.1571 60.1478C36.2186 60.0863 36.28 60.0249 36.4028 59.9635L44.8177 58.2437C44.9405 58.2437 45.002 58.2437 45.1248 58.3051C45.1862 58.3665 45.2476 58.4279 45.3091 58.5508L45.4319 59.0421L36.28 60.9462L36.0957 60.4549Z" fill="#5C5C5C"/>
<path d="M45.2476 58.5508L36.0957 60.5163L36.1571 60.8234L45.3091 58.8579L45.2476 58.5508Z" fill="#434343"/>
<path d="M59.0678 55.9094L22.5215 63.5258L22.5829 63.8943L59.1292 56.278L59.0678 55.9094Z" fill="#AD885A"/>
<path d="M59.7433 55.8479L21.8457 63.8328L22.03 64.6927L59.9276 56.8921L59.7433 55.8479Z" fill="#AD885A"/>
<path d="M22.7678 64.1403C22.8907 64.1403 22.8907 64.0788 22.8907 63.956L17.3012 37.1758V37.1144L17.2398 37.053H17.1784H17.1169C17.0555 37.053 16.9941 37.1144 16.9941 37.1144C16.9941 37.1758 16.9327 37.2372 16.9941 37.2372L22.645 64.0788C22.5221 64.2017 22.7064 64.2017 22.7678 64.1403Z" fill="#AD885A"/>
<path d="M22.5219 63.6487C22.7676 63.5873 22.7062 63.6487 22.6448 63.2188L17.2396 37.2371V37.1757L17.1782 37.1143H17.1167H17.0553H16.9939C16.9325 37.1143 16.871 37.1757 16.871 37.1757C16.871 37.2371 16.8096 37.2985 16.871 37.2985L22.3376 63.2802C22.3376 63.7101 22.3376 63.6487 22.5219 63.6487Z" fill="#F8F7F7"/>
<path d="M16.502 37.3599C16.502 37.2985 16.502 37.2371 16.502 37.2371C16.502 37.1757 16.5634 37.1757 16.6248 37.1757L16.9319 37.1143C16.9933 37.1143 17.0548 37.1143 17.0548 37.1143C17.1162 37.1143 17.1162 37.1757 17.1162 37.2371L22.5213 63.5259L21.8457 63.6487L16.502 37.3599Z" fill="#C7C6C5"/>
<path d="M59.374 57.0152C59.374 57.0152 59.4354 57.0151 59.4354 56.9537L59.4968 56.8923C59.4968 56.8923 59.4968 56.8309 59.5583 56.8309V56.7695L53.9074 29.7436C53.9074 29.6822 53.846 29.6208 53.7845 29.6208C53.7231 29.5593 53.6617 29.5593 53.6003 29.5593C53.5389 29.5593 53.4774 29.6208 53.4774 29.6822C53.416 29.7436 53.416 29.805 53.416 29.8664L59.1283 56.8923C59.1283 56.8923 59.1283 56.9537 59.1897 56.9537L59.2511 57.0152C59.2511 57.0152 59.3126 57.0152 59.3126 57.0766C59.3126 57.0152 59.3126 57.0152 59.374 57.0152Z" fill="#AD885A"/>
<path d="M59.4365 56.3396H59.4979L59.5593 56.2781V56.2167V56.1553L53.9699 29.7436C53.9699 29.6822 53.9084 29.6208 53.9084 29.6208C53.847 29.6208 53.7856 29.5594 53.7856 29.6208L53.6013 29.6822C53.5399 29.6822 53.4785 29.7436 53.4785 29.7436C53.4785 29.8051 53.417 29.8665 53.4785 29.8665L59.0065 56.3396C59.0065 56.401 59.0679 56.4624 59.0679 56.4624C59.0679 56.4624 59.1908 56.5238 59.1908 56.4624L59.4365 56.3396Z" fill="#F8F7F7"/>
<path d="M53.6006 29.7435C53.6006 29.6821 53.6006 29.6206 53.6006 29.6206C53.6006 29.5592 53.662 29.5592 53.7234 29.5592L54.0306 29.4978C54.092 29.4978 54.1534 29.4978 54.1534 29.4978C54.2148 29.4978 54.2148 29.5592 54.2148 29.6206L59.62 55.9094L58.9443 56.0323L53.6006 29.7435Z" fill="#C7C6C5"/>
<path d="M21.9071 63.6485L59.6205 55.8479C59.6205 55.9707 59.6819 56.0322 59.6205 56.155C59.6205 56.2779 59.5591 56.3393 59.4976 56.4621C59.4362 56.5235 59.3748 56.6464 59.252 56.7078C59.1905 56.7692 59.0677 56.7692 58.9448 56.8306L22.7056 64.2628C22.5828 64.2628 22.5213 64.3242 22.3985 64.2628C22.2757 64.2628 22.2142 64.2013 22.0914 64.1399C22.03 64.0785 21.9071 64.0171 21.8457 63.8942C21.9685 63.8328 21.9685 63.7714 21.9071 63.6485Z" fill="#C7C6C5"/>
<path d="M22.584 63.526L59.0075 56.0325V56.1553L22.584 63.6488V63.526Z" fill="#F8F7F7"/>
<path d="M11.5264 20.5303L52.0037 12.1155L52.1266 12.8525L11.7106 21.2674L11.5264 20.5303Z" fill="#F8F7F7"/>
<path d="M11.5264 20.4686L52.0037 12.0537V12.1766L11.5264 20.5914V20.4686Z" fill="white"/>
<path d="M11.6504 21.0831L52.1278 12.6682V12.7911L11.6504 21.2059V21.0831Z" fill="#D8D8D8"/>
<path d="M22.6441 33.3675V33.4289C22.6441 33.4289 22.6441 33.4903 22.5827 33.4903H22.5213H22.4599L22.3984 33.4289V33.3675C22.3984 33.3675 22.3984 33.3061 22.4599 33.3061L22.5213 33.2446C22.5827 33.2446 22.5827 33.2446 22.6441 33.2446C22.6441 33.3061 22.6441 33.3675 22.6441 33.3675Z" fill="#5C5C5C"/>
<path d="M22.5828 33.5516C22.5828 33.5516 22.6442 33.5516 22.6442 33.4902L22.7056 33.4288V33.3673C22.7056 33.3673 22.7057 33.3059 22.6442 33.3059H22.5828H22.5214L22.46 33.3673C22.46 33.3673 22.46 33.3059 22.5214 33.3059H22.5828H22.6442L22.7056 33.3673V33.4288C22.6442 33.4902 22.6442 33.4902 22.5828 33.5516Z" fill="#434343"/>
<path d="M23.626 42.4579C23.626 42.3965 23.626 42.2736 23.6874 42.2122C23.7488 42.1508 23.8102 42.0893 23.8717 42.0893L25.4072 41.7822C25.4687 41.7822 25.5915 41.7822 25.6529 41.8437C25.7143 41.9051 25.7758 41.9665 25.7758 42.0279C25.7758 42.0894 25.7758 42.2122 25.7143 42.2736C25.6529 42.335 25.5915 42.3965 25.5301 42.3965L23.9945 42.7036C23.9331 42.7036 23.8102 42.7036 23.7488 42.6422C23.6874 42.6422 23.6874 42.5807 23.626 42.4579Z" fill="#282828"/>
<path d="M22.584 41.7822C22.584 41.7208 22.584 41.6593 22.584 41.6593C22.584 41.5979 22.6454 41.5979 22.7068 41.5979L26.1465 40.8608C26.2079 40.8608 26.2693 40.8608 26.2693 40.8608C26.3308 40.8608 26.3308 40.9223 26.3308 40.9837L26.6993 42.7035C26.6993 42.7649 26.6993 42.8264 26.6993 42.8264C26.6993 42.8878 26.6379 42.8878 26.5764 42.8878L23.1368 43.6248C23.0754 43.6248 23.0139 43.6248 23.0139 43.6248C22.9525 43.6248 22.9525 43.5634 22.9525 43.502L22.584 41.7822Z" fill="#5C5C5C"/>
<path d="M23.4424 42.5193C23.4424 42.3965 23.4424 42.2736 23.5038 42.1508C23.5652 42.028 23.6881 41.9665 23.8109 41.9665L25.3465 41.6594C25.4693 41.6594 25.5922 41.6594 25.715 41.7208C25.8379 41.7823 25.8993 41.9051 25.8993 42.028C25.8993 42.1508 25.8993 42.2736 25.8379 42.3965C25.7764 42.5193 25.6536 42.5808 25.5308 42.5808L23.9952 42.8879C23.8723 42.8879 23.7495 42.8879 23.6267 42.8264C23.5652 42.765 23.5038 42.6422 23.4424 42.5193Z" fill="#909091"/>
<path d="M23.626 42.4579C23.626 42.3965 23.626 42.2736 23.6874 42.2122C23.7488 42.1508 23.8102 42.0893 23.8717 42.0893L25.4072 41.7822C25.4687 41.7822 25.5915 41.7822 25.6529 41.8437C25.7143 41.9051 25.7758 41.9665 25.7758 42.0279C25.7758 42.0894 25.7758 42.2122 25.7143 42.2736C25.6529 42.335 25.5915 42.3965 25.5301 42.3965L23.9945 42.7036C23.9331 42.7036 23.8102 42.7036 23.7488 42.6422C23.6874 42.6422 23.6874 42.5807 23.626 42.4579Z" fill="#282828"/>
<path d="M23.7501 42.6421C23.8115 42.7035 23.873 42.7035 23.9344 42.7035L25.47 42.3964C25.5314 42.3964 25.5928 42.335 25.6542 42.2736C25.7156 42.2121 25.7157 42.1507 25.7157 42.0893C25.7157 42.0279 25.6542 41.9665 25.5928 41.905C25.5314 41.8436 25.47 41.8436 25.4085 41.8436L23.873 42.1507C23.8116 42.1507 23.7501 42.2121 23.6887 42.2736C23.6273 42.335 23.6273 42.3964 23.6273 42.4578M23.7501 42.6421C23.6887 42.5807 23.6273 42.5192 23.6273 42.4578M23.7501 42.6421C23.6887 42.6421 23.6273 42.5192 23.6273 42.4578M23.7501 42.6421C23.8115 42.7035 23.9344 42.7035 23.9958 42.7035L25.5314 42.3964C25.5928 42.3964 25.7157 42.335 25.7157 42.2736C25.7771 42.2121 25.7771 42.0893 25.7771 42.0279C25.7771 41.9665 25.7156 41.8436 25.6542 41.8436C25.5928 41.7822 25.47 41.7822 25.4085 41.7822L23.873 42.0893C23.8116 42.0893 23.6887 42.1507 23.6887 42.2121C23.6273 42.2736 23.6273 42.3964 23.6273 42.4578M23.443 42.5193C23.443 42.5807 23.443 42.6421 23.5044 42.7035C23.5044 42.7649 23.5659 42.7649 23.6273 42.8264C23.6887 42.8264 23.7501 42.8878 23.8116 42.8878C23.873 42.8878 23.9344 42.8878 23.9958 42.8878L25.5314 42.5807C25.5928 42.5807 25.6542 42.5807 25.7157 42.5193C25.7771 42.5193 25.7771 42.4578 25.8385 42.3964C25.8385 42.335 25.8999 42.2736 25.8999 42.2121C25.8999 42.1507 25.8999 42.0893 25.8999 42.0279C25.8999 41.9665 25.8999 41.905 25.8385 41.8436C25.8385 41.7822 25.7771 41.7822 25.7157 41.7208C25.6542 41.7208 25.5928 41.6593 25.5314 41.6593C25.47 41.6593 25.4085 41.6593 25.3471 41.6593L23.8116 41.9665C23.7501 41.9665 23.6887 42.0279 23.6273 42.0279C23.5659 42.0279 23.5659 42.0893 23.5044 42.1507M23.443 42.5193C23.443 42.4578 23.443 42.3964 23.443 42.335C23.443 42.2736 23.5044 42.2121 23.5044 42.1507M23.443 42.5193C23.3816 42.3964 23.443 42.2736 23.5044 42.1507M23.443 42.5193C23.443 42.6421 23.5659 42.7649 23.6887 42.8264C23.8116 42.8878 23.9344 42.9492 24.0572 42.8878L25.5928 42.5807C25.7156 42.5807 25.8385 42.4578 25.8999 42.335C25.9613 42.2121 26.0228 42.0893 25.9613 41.9665C25.9613 41.8436 25.8385 41.7208 25.7157 41.6593C25.6542 41.5979 25.47 41.5979 25.3471 41.5979L23.8116 41.905C23.6887 41.905 23.5659 42.0279 23.5044 42.1507M22.7674 41.5979L26.207 40.8608C26.2684 40.8608 26.2685 40.8608 26.3299 40.8608C26.3913 40.8608 26.3913 40.9223 26.3913 40.9837L26.7598 42.7035C26.7598 42.7649 26.7598 42.7649 26.7598 42.8264C26.7598 42.8878 26.6984 42.8878 26.637 42.8878L23.1973 43.6248H23.1359H23.0745C23.0745 43.6248 23.0131 43.6249 23.0131 43.5634V43.502L22.6445 41.7822V41.7208V41.6593C22.6445 41.6593 22.6445 41.5979 22.7059 41.5979C22.7059 41.5979 22.7674 41.5979 22.7674 41.5979Z" stroke="#434343" stroke-width="0.172"/>
<path d="M24.6093 47.8018C27.0662 47.9246 29.1545 46.082 29.2774 43.6251C29.4002 41.1682 27.5576 39.0798 25.1007 38.957C22.6438 38.8341 20.5554 40.6768 20.4326 43.1337C20.3097 45.5906 22.1524 47.6175 24.6093 47.8018Z" stroke="#C8202F" stroke-width="0.688"/>
<path d="M26.7598 53.2069L27.1897 53.1455L29.5852 64.7544L29.1552 64.8158L26.7598 53.2069Z" fill="#282828"/>
<path d="M27.1289 53.1455L29.5858 64.7544H29.5244L27.1289 53.1455Z" fill="#626363"/>
<path d="M26.8213 53.207L29.2782 64.8159H29.2168L26.8213 53.207Z" fill="#626363"/>
<path d="M26.7598 53.2069L27.1897 53.1455V53.2069L26.7598 53.2684V53.2069Z" fill="black"/>
<path d="M25.9609 51.4256L27.3122 51.1799L27.6808 52.8383C27.6808 52.8997 27.6808 52.9612 27.6808 52.9612C27.6808 53.0226 27.6193 53.0226 27.5579 53.0226L26.5752 53.2069C26.5137 53.2069 26.4523 53.2069 26.4523 53.2069C26.3909 53.2069 26.3909 53.1455 26.3909 53.084L25.9609 51.4256Z" fill="#282828"/>
<path d="M27.5589 53.0226L27.1289 51.1799H27.1903L27.5589 53.0226Z" fill="#626363"/>
<path d="M26.4524 53.2682L26.0225 51.4255H26.0839L26.4524 53.2682Z" fill="#626363"/>
<path d="M25.9609 51.4256L27.3122 51.1799L27.3737 51.3642L26.0224 51.6099L25.9609 51.4256Z" fill="black"/>
<path d="M25.9609 51.5487L27.3122 51.303V51.3644L25.9609 51.6101V51.5487Z" fill="#1A1A1A"/>
<path d="M26.0225 51.4255L26.0839 51.487H26.0225V51.4255Z" fill="#1C1D1D"/>
<path d="M26.083 51.4871L26.1444 51.5485H26.083V51.4871Z" fill="#3A3A3A"/>
<path d="M27.1289 51.1799L27.1903 51.2414H27.1289V51.1799Z" fill="#1C1D1D"/>
<path d="M27.1895 51.303L27.2509 51.3644H27.1895V51.303Z" fill="#3A3A3A"/>
<path d="M23.9961 43.5022C23.9961 43.3793 23.9961 43.1951 24.1189 43.1951L25.6545 42.8879C25.7773 42.8879 25.9002 42.9494 25.9002 43.1336L26.2073 44.7306L24.2418 45.1606L23.9961 43.5022Z" fill="#E8E8E8"/>
<path d="M24.9785 43.0108L25.7156 42.8879L26.0841 44.792L25.3471 44.9149L24.9785 43.0108Z" fill="#F2F2F3"/>
<path d="M25.3477 42.9494L25.5319 42.8879L25.9005 44.792L25.7162 44.8534L25.3477 42.9494Z" fill="white"/>
<path d="M24.3028 45.1606C24.2414 44.7307 24.0571 43.9322 23.9957 43.6251C23.9343 43.3794 23.9957 43.2566 24.18 43.1951L25.7155 42.888C25.9612 42.8266 26.0226 43.0109 26.084 43.1951C26.1455 43.5637 26.3297 44.485 26.3912 44.7307" stroke="#C8C8C8" stroke-width="0.172"/>
<path d="M23.2588 45.5908C23.2588 45.5294 23.2588 45.468 23.3202 45.4066C23.3816 45.3451 23.4431 45.2837 23.5045 45.2837L27.1284 44.5466C27.1898 44.5466 27.2512 44.5466 27.3127 44.6081C27.3741 44.6695 27.4355 44.7309 27.4355 44.7923L28.6025 50.3818C28.6025 50.5046 28.6025 50.6889 28.5411 50.8117C28.4797 50.9346 28.3568 50.996 28.1726 51.0574L25.04 51.6716C24.9172 51.6716 24.7329 51.6716 24.6101 51.6102C24.4872 51.5488 24.4258 51.426 24.3644 51.2417L23.2588 45.5908Z" fill="#434343"/>
<path d="M25.7158 50.6886L27.3742 50.3201V50.3815L25.7158 50.6886Z" fill="#282828"/>
<path d="M25.5928 50.1356L27.2512 49.7671V49.8285L25.5928 50.1356C25.6542 50.1971 25.6542 50.1971 25.5928 50.1356C25.5928 50.1971 25.5928 50.1971 25.5928 50.1356Z" fill="#282828"/>
<path d="M23.5049 45.2833L23.812 45.2219L25.1019 51.6099C25.1019 51.6099 25.0404 51.6099 24.979 51.6099C24.9176 51.6099 24.8562 51.6099 24.7948 51.5484L23.5049 45.2833Z" fill="#343434"/>
<path d="M23.8113 45.2219H23.6885L24.9783 51.6099H25.1012L23.8113 45.2219Z" fill="#626363"/>
<path d="M26.7598 44.6081L27.0669 44.5466C27.0669 44.5466 28.1725 50.0747 28.3567 50.9346C28.2953 50.996 28.2953 50.996 28.2339 50.996H28.1111L26.7598 44.6081Z" fill="#343434"/>
<path d="M26.8826 44.6079H26.7598L28.0496 50.9958H28.1725L26.8826 44.6079Z" fill="#626363"/>
<path d="M19.6967 26.9796L22.5222 26.4268C22.645 26.4268 22.7064 26.4882 22.7064 26.5496C22.7064 26.6724 22.645 26.7339 22.5836 26.7339L19.7582 27.2867C19.6353 27.2867 19.5739 27.2252 19.5739 27.1638C19.5125 27.1024 19.5739 26.9796 19.6967 26.9796Z" fill="#434343"/>
<path fill-rule="evenodd" clip-rule="evenodd" d="M19.6967 26.9795C19.5739 26.9795 19.5125 27.1023 19.5739 27.1638V27.2252C19.5739 27.1638 19.6353 27.1023 19.6967 27.1023L22.5222 26.5495C22.5836 26.5495 22.645 26.5495 22.7064 26.611V26.5495C22.7064 26.4267 22.5836 26.3653 22.5222 26.4267L19.6967 26.9795Z" fill="#5C5C5C"/>
<path d="M19.9422 28.2691L22.7676 27.7163C22.8905 27.7163 22.9519 27.7777 22.9519 27.8392C22.9519 27.962 22.8905 28.0234 22.829 28.0234L20.0036 28.5762C19.8808 28.5762 19.8193 28.5148 19.8193 28.4534C19.8193 28.392 19.8808 28.2691 19.9422 28.2691Z" fill="#434343"/>
<path fill-rule="evenodd" clip-rule="evenodd" d="M19.9419 28.2695C19.819 28.2695 19.7576 28.3924 19.819 28.4538V28.5152C19.819 28.4538 19.8804 28.3924 19.9419 28.3924L22.7673 27.8396C22.8287 27.8396 22.8901 27.8396 22.9516 27.901V27.8396C22.9516 27.7167 22.8287 27.6553 22.7673 27.7167L19.9419 28.2695Z" fill="#5C5C5C"/>
<path d="M20.2495 29.5591L23.0749 29.0063C23.1978 29.0063 23.2592 29.0678 23.2592 29.1292C23.2592 29.252 23.1978 29.3135 23.1363 29.3135L20.3109 29.8663C20.1881 29.8663 20.1266 29.8048 20.1266 29.7434C20.0652 29.682 20.1266 29.5591 20.2495 29.5591Z" fill="#434343"/>
<path fill-rule="evenodd" clip-rule="evenodd" d="M20.2495 29.5591C20.1266 29.5591 20.0652 29.6819 20.1266 29.7433V29.8048C20.1266 29.7433 20.1881 29.6819 20.2495 29.6819L23.0749 29.1291C23.1363 29.1291 23.1978 29.1291 23.2592 29.1905V29.1291C23.2592 29.0063 23.1363 28.9449 23.0749 29.0063L20.2495 29.5591Z" fill="#5C5C5C"/>
<mask id="mask0_6580_12610" style="mask-type:luminance" maskUnits="userSpaceOnUse" x="70" y="23" width="27" height="27">
<path d="M82.8064 49.5213C89.9928 49.9512 96.135 44.4846 96.565 37.2982C96.9949 30.1118 91.5283 23.9695 84.3419 23.5396C77.1555 23.1096 71.0132 28.5762 70.5833 35.7626C70.1533 42.8876 75.6199 49.0913 82.8064 49.5213Z" fill="white"/>
</mask>
<g mask="url(#mask0_6580_12610)">
<path d="M41.96 -42.7969L160.997 -67.3044L190.418 75.5641L71.4427 100.072L41.96 -42.7969Z" fill="#F4CE89"/>
<path d="M75.8641 99.089L49.1454 -29.9595L48.4697 -29.8366L75.2499 99.2119L75.8641 99.089Z" fill="#BA9462"/>
<path d="M75.6197 99.2118L48.7781 -30.4509L48.041 -30.3281L74.8826 99.3346L75.6197 99.2118Z" fill="#AD885A"/>
<path d="M77.4628 97.6147C77.7699 97.5533 77.8313 97.4304 77.7699 97.1233L61.2473 18.4412C61.2473 18.3798 61.1858 18.3183 61.1858 18.2569C61.1244 18.1955 61.063 18.1341 61.0016 18.0726C60.9402 18.0112 60.8787 18.0112 60.8173 18.0112C60.7559 18.0112 60.6945 18.0112 60.5716 18.0112C60.4488 18.0727 60.2645 18.1341 60.2031 18.2569C60.1417 18.3798 60.0802 18.564 60.1417 18.6869L76.7257 97.4918C76.7871 97.7989 77.1557 97.6761 77.4628 97.6147Z" fill="#AD885A"/>
<path d="M76.7254 96.0178C77.401 95.895 77.3396 96.0178 77.0325 94.7894L61.1855 18.4413C61.1855 18.3799 61.1241 18.3184 61.1241 18.257C61.0627 18.1956 61.0013 18.1342 60.9398 18.1342C60.8784 18.0728 60.817 18.0728 60.7556 18.0728C60.6941 18.0728 60.6327 18.0728 60.5099 18.0728L60.387 18.1342C60.2642 18.1342 60.0799 18.257 60.0185 18.3799C59.9571 18.5027 59.8957 18.687 59.9571 18.8098L75.9883 95.035C76.1726 96.2635 76.1726 96.1406 76.7254 96.0178Z" fill="#F8F7F7"/>
<path d="M59.0967 18.9325C59.0967 18.8096 59.0967 18.6254 59.1581 18.5025C59.2195 18.3797 59.3424 18.3183 59.5266 18.2568L60.3866 18.0726C60.5094 18.0111 60.6937 18.0726 60.8165 18.134C60.9393 18.1954 61.0622 18.3182 61.0622 18.5025L76.9706 95.7105L75.0051 96.1404L59.0967 18.9325Z" fill="#C7C6C5"/>
<path d="M80.0427 33.9198C79.9812 33.6741 80.0426 33.4898 80.1655 33.2441C80.2883 33.0599 80.4726 32.937 80.7183 32.8756L85.2021 31.9543C85.4478 31.8928 85.6321 31.9543 85.8778 32.0771C86.062 32.2 86.1849 32.3842 86.2463 32.6299C86.3077 32.8756 86.2463 33.0599 86.1235 33.3056C86.0006 33.4898 85.8164 33.6127 85.5707 33.6741L81.0868 34.5954C80.8411 34.6569 80.6569 34.5954 80.4112 34.4726C80.1655 34.3497 80.0427 34.1655 80.0427 33.9198Z" fill="#282828"/>
<path d="M76.9707 31.8929C76.9707 31.7701 76.9707 31.5858 77.0321 31.463C77.0935 31.3401 77.2164 31.2173 77.4006 31.2173L87.4739 29.1289C87.5968 29.1289 87.781 29.1289 87.9039 29.1903C88.0267 29.2518 88.1496 29.3746 88.1496 29.5589L89.1938 34.5955C89.1938 34.7184 89.1938 34.9026 89.1323 35.0255C89.0709 35.1483 88.9481 35.2712 88.7638 35.2712L78.6905 37.3595C78.5677 37.4209 78.3834 37.3595 78.2606 37.2981C78.1377 37.2367 78.0149 37.1138 78.0149 36.9296L76.9707 31.8929Z" fill="#5C5C5C"/>
<path d="M79.4283 34.0426C79.3669 33.6741 79.4283 33.3055 79.6126 32.937C79.7968 32.6299 80.1654 32.3842 80.5339 32.3228L85.0177 31.4015C85.3863 31.34 85.7548 31.4015 86.1233 31.5857C86.4305 31.77 86.6761 32.1385 86.7376 32.5071C86.799 32.8756 86.7376 33.2441 86.5533 33.6127C86.369 33.9198 86.0005 34.1655 85.632 34.2269L81.1481 35.1482C80.7796 35.2096 80.4111 35.1482 80.0425 34.964C79.7354 34.7183 79.5512 34.4112 79.4283 34.0426Z" fill="#909091"/>
<path d="M80.0427 33.9198C79.9812 33.6741 80.0426 33.4898 80.1655 33.2441C80.2883 33.0599 80.4726 32.937 80.7183 32.8756L85.2021 31.9543C85.4478 31.8928 85.6321 31.9543 85.8778 32.0771C86.062 32.2 86.1849 32.3842 86.2463 32.6299C86.3077 32.8756 86.2463 33.0599 86.1235 33.3056C86.0006 33.4898 85.8164 33.6127 85.5707 33.6741L81.0868 34.5954C80.8411 34.6569 80.6569 34.5954 80.4112 34.4726C80.1655 34.3497 80.0427 34.1655 80.0427 33.9198Z" fill="#282828"/>
<path d="M81.0864 36.9296C81.0249 36.4996 81.1478 36.1311 81.5163 36.0083L86.0616 35.0869C86.4301 35.0255 86.7372 35.3326 86.7987 35.7626L87.7814 40.4921L82.0077 41.6591L81.0864 36.9296Z" fill="#E8E8E8"/>
<path d="M83.9121 35.5164L86.0619 35.0864L87.1675 40.6144L85.0177 41.0444L83.9121 35.5164Z" fill="#F2F2F3"/>
<path d="M85.0791 35.2713L85.5705 35.1484L86.6761 40.6765L86.1847 40.7993L85.0791 35.2713Z" fill="white"/>
<path d="M78.9362 43.0716C78.8748 42.8873 78.9362 42.6416 79.0591 42.4573C79.1819 42.2731 79.3662 42.1502 79.5504 42.0888L90.2379 39.8776C90.4222 39.8162 90.6679 39.8776 90.8521 40.0004C91.0364 40.1233 91.1593 40.3076 91.2207 40.4918L94.5989 56.953C94.6603 57.383 94.5989 57.813 94.3532 58.1815C94.1075 58.55 93.739 58.7957 93.3705 58.8571L84.2185 60.7612C83.7886 60.8227 83.3586 60.7612 82.9901 60.5155C82.6216 60.2698 82.3759 59.9013 82.3144 59.4714L78.9362 43.0716Z" fill="#434343"/>
<path d="M79.5498 42.1503L80.5326 41.9661L84.3408 60.7613C84.3408 60.7613 84.1565 60.8227 83.9722 60.8227C83.788 60.8227 83.6037 60.8227 83.4194 60.6999L79.5498 42.1503Z" fill="#343434"/>
<path d="M80.5327 41.9661L80.2256 42.0275L84.0952 60.8227L84.4637 60.7613L80.5327 41.9661Z" fill="#626363"/>
<path d="M89.2549 40.1235L90.2376 39.9392C90.2376 39.9392 93.493 56.1547 94.0458 58.6116C93.923 58.7345 93.8001 58.7959 93.6159 58.8573L93.2473 58.9187L89.2549 40.1235Z" fill="#343434"/>
<path d="M89.562 40.062L89.2549 40.1234L93.1245 58.9187L93.493 58.8573L89.562 40.062Z" fill="#626363"/>
</g>
<path d="M83.6045 49.5214C90.83 49.5214 96.6874 43.664 96.6874 36.4384C96.6874 29.2129 90.83 23.3555 83.6045 23.3555C76.3789 23.3555 70.5215 29.2129 70.5215 36.4384C70.5215 43.664 76.3789 49.5214 83.6045 49.5214Z" stroke="#CE0E2D" stroke-width="0.7409" stroke-miterlimit="10"/>
</g>
<defs>
<clipPath id="clip0_6580_12610">
<rect width="113" height="77" fill="white"/>
</clipPath>
</defs>
</svg>
