<svg width="433" height="214" viewBox="0 0 433 214" fill="none" xmlns="http://www.w3.org/2000/svg">
<g clip-path="url(#clip0_6615_14566)">
<g clip-path="url(#clip1_6615_14566)">
<path d="M488.425 97.9513C488.425 149.872 412.985 191.968 319.912 191.968C226.84 191.968 151.399 149.872 151.399 97.9513C151.399 46.0305 226.84 3.93481 319.912 3.93481C412.985 3.93481 488.425 46.0305 488.425 97.9513ZM319.912 24.9436C243.776 24.9436 182.024 59.3894 182.024 101.874C182.024 144.358 243.737 178.804 319.912 178.804C396.087 178.804 457.8 144.358 457.8 101.874C457.8 59.3894 396.087 24.9436 319.912 24.9436Z" fill="#DDDEDD"/>
<g clip-path="url(#clip2_6615_14566)">
<path d="M126.806 116.542L128.521 122.48L242.797 91.5751C246.734 90.5118 250.787 86.7979 250.653 86.3186C250.504 85.8168 245.066 84.6993 241.126 85.7716L126.806 116.542Z" fill="#C7C8C9"/>
<path d="M128.426 122.15L242.577 91.2803C246.65 90.1743 250.522 87.0432 250.664 86.3082C250.248 86.7768 246.398 89.3053 242.304 90.4158L128.245 121.507L128.435 122.152L128.426 122.15Z" fill="#7F7F7F"/>
<path d="M127.238 118.022L127.033 117.316L241.318 86.4131C245.255 85.3498 250.015 85.9123 250.658 86.2971L250.653 86.315C250.029 85.9347 245.483 86.118 241.546 87.1813L127.259 118.093L127.245 118.033L127.238 118.022Z" fill="white"/>
<path d="M127.932 120.447L128.243 121.511L242.528 90.6076C246.465 89.5443 250.472 86.8925 250.66 86.321C250.258 86.7739 246.213 88.6752 242.276 89.7385L127.989 120.65L127.93 120.456L127.932 120.447Z" fill="#D8D8D8"/>
<path d="M130.881 115.445L127.641 116.318C127.641 116.318 128.483 116.285 129.212 119.085C129.942 121.885 129.356 122.255 129.356 122.255L132.596 121.383C132.596 121.383 133.418 121.08 132.644 118.184C131.894 115.35 130.881 115.445 130.881 115.445Z" fill="#303030"/>
<path d="M132.154 116.768L128.74 117.674C128.74 117.674 128.679 117.45 128.364 116.955L131.727 116.056C131.727 116.056 131.898 116.269 132.151 116.777L132.154 116.768Z" fill="#5B5B5B"/>
<path d="M132.919 119.456C132.919 119.456 129.513 120.412 129.504 120.409C129.647 121.328 129.535 121.861 129.535 121.861L132.871 120.955C132.871 120.955 133.039 120.55 132.91 119.454" fill="#1D1D1B"/>
<path d="M132.881 119.32L129.463 120.244C129.569 120.878 129.561 121.152 129.561 121.152L132.958 120.232C132.96 119.71 132.883 119.312 132.883 119.312L132.881 119.32Z" fill="#333333"/>
<path d="M171.211 110.936L171.471 110.866C171.471 110.866 172.281 110.646 171.447 107.602C170.705 104.894 169.802 104.977 169.802 104.977L169.531 105.054C169.531 105.054 170.365 104.934 171.121 107.665C171.946 110.668 171.22 110.938 171.22 110.938L171.211 110.936Z" fill="#F2F2F2"/>
<path d="M171.06 110.978L171.197 110.936C171.197 110.936 172.008 110.715 171.173 107.671C170.431 104.963 169.519 105.045 169.519 105.045L169.364 105.083C169.364 105.083 170.208 104.966 170.961 107.705C171.786 110.709 171.063 110.969 171.063 110.969L171.06 110.978Z" fill="#7F7F7F"/>
<path d="M88.2688 125.014L126.807 116.543L128.522 122.481L92.7906 134.021L88.278 125.016L88.2688 125.014Z" fill="#C7C8C9"/>
<path d="M88.2387 125.025L127.026 117.319L127.409 118.049L91.3889 129.185C91.3889 129.185 88.4911 125.895 88.2387 125.025Z" fill="#F4F4F4"/>
<path d="M91.0162 134.702L128.411 122.153L128.23 121.51L91.3801 129.186L91.0253 134.704L91.0162 134.702Z" fill="#7F7F7F"/>
<path d="M89.4318 129.71L91.3946 129.182L88.2443 125.022L86.2815 125.551L89.4318 129.71Z" fill="#DDDDDD"/>
<path d="M89.0644 135.234L91.0272 134.706L91.382 129.187L89.4192 129.715L89.0644 135.234Z" fill="#777777"/>
<path d="M128.251 121.512L127.999 120.643L91.3924 129.185L128.242 121.51L128.251 121.512Z" fill="#D8D8D8"/>
<path d="M86.2764 125.563L89.4288 129.714L89.074 135.233L85.9095 131.013L86.2764 125.563Z" fill="#C7C8C9"/>
</g>
<path d="M108.907 116.828C114.954 117.428 125.263 123.508 116.451 133.603C107.64 143.698 79.9964 143.548 74.3526 143.735C68.7087 143.923 57.5362 121.444 63.6408 120.468C69.7454 119.492 94.97 115.477 108.907 116.828Z" fill="white"/>
<path d="M102.412 134.066L102.644 134.027C103.611 135.852 105.235 136.28 107.13 136.047C109.682 135.697 112.234 135.27 114.786 134.881C115.057 134.842 115.327 134.765 115.636 134.726C115.636 134.842 115.714 134.92 115.714 135.037C115.018 135.27 114.322 135.58 113.587 135.736C110.919 136.357 108.212 136.823 105.428 136.629C104.036 136.551 102.954 135.968 102.412 134.609C102.335 134.454 102.412 134.26 102.412 134.105V134.066Z" fill="black"/>
<path d="M52.3383 131.58C50.7529 131.697 49.1289 131.736 47.5435 131.891C45.8035 132.047 44.566 133.212 43.0967 134.261C44.334 131.037 49.1289 130.299 52.3383 131.58Z" fill="black"/>
<path d="M82.9233 125.91C85.6301 129.25 85.2433 133.289 85.9393 137.134C85.3206 136.59 85.1658 135.813 85.1272 135.076C84.9338 132.008 84.3925 129.095 82.9618 126.338C82.8845 126.221 82.9618 126.066 82.9618 125.91H82.9233Z" fill="black"/>
<path d="M89.5771 125.056C90.9692 126.61 91.7812 130.57 91.0852 132.706C90.5052 130.027 90.8145 127.386 89.5771 125.056Z" fill="black"/>
<path d="M56.9785 167.968C57.4039 167.541 57.9066 167.152 58.2546 166.647C59.028 165.444 59.7626 164.162 60.42 162.881C60.6906 162.376 60.8453 162.259 61.348 162.531C60.1879 164.589 59.5692 166.997 56.9785 167.929V167.968Z" fill="black"/>
<path d="M102.645 133.095C101.523 131.464 101.214 129.638 101.253 127.697C101.717 129.483 102.181 131.309 102.645 133.095Z" fill="black"/>
<path d="M63.0478 165.443L63.1248 168.045H62.8168C62.8168 167.191 62.7397 166.297 62.7397 165.443H63.0478Z" fill="black"/>
<path d="M88.0282 122.066C87.7575 121.6 87.487 121.096 87.2163 120.63C87.3323 120.552 87.4482 120.513 87.5642 120.435C87.8349 120.94 88.1056 121.406 88.3376 121.911C88.2216 121.949 88.1442 121.988 88.0282 122.027V122.066Z" fill="black"/>
<path d="M90.8911 137.522C90.8911 136.862 90.9294 136.513 90.9679 136.164C91.1219 136.164 91.2374 136.086 91.2374 136.125C91.4299 136.552 91.507 136.94 90.8911 137.522Z" fill="black"/>
<path d="M88.1429 108.746C87.8336 110.338 87.4469 112.164 87.1375 113.834C83.1548 114.96 79.2494 116.008 75.3827 117.134C74.184 117.484 72.9854 117.872 71.8254 118.299C71.052 118.61 70.4333 118.454 69.8533 117.872C67.7266 115.619 65.5611 113.328 63.4344 111.076C63.1637 110.765 62.9316 110.416 62.661 110.105C60.6503 108.124 60.225 105.601 60.0703 102.96C60.0703 102.455 60.0703 101.872 60.2636 101.406C61.4236 98.8819 62.9704 96.7073 65.6384 95.6199C67.7651 94.7267 69.9305 94.2614 72.0958 95.3099C73.3719 95.9312 74.6479 96.5527 75.7306 97.4071C78.2826 99.4653 80.7188 101.64 83.1549 103.853C84.8563 105.406 86.4416 107.038 88.2203 108.785L88.1429 108.746ZM86.2095 111.231C85.9775 112.086 85.7456 112.94 85.5135 113.795C86.1064 113.251 86.3384 112.396 86.2095 111.231Z" fill="white"/>
<path d="M68.4229 118.881C65.7935 119.308 63.4347 119.775 61.076 120.008C58.1373 120.318 55.16 120.397 52.2213 120.63C51.5639 120.668 51.0226 120.551 50.5199 120.085C48.4705 118.26 46.3823 116.474 44.333 114.61C41.8196 112.319 40.2729 109.523 39.8089 106.106C39.4609 103.659 40.041 101.446 41.317 99.3875C42.013 98.2225 43.057 97.4845 44.4104 97.2515C46.8077 96.8243 48.9344 97.1347 50.9065 98.9211C52.9172 100.707 55.1598 102.222 57.3639 103.775C57.9439 104.164 58.2919 104.552 58.3692 105.213C58.6013 107.387 59.6066 109.212 60.9986 110.766C63.1253 113.212 65.368 115.503 67.5334 117.872C67.7654 118.143 67.9976 118.376 68.4229 118.881ZM61.4241 118.377C63.0482 118.144 63.6281 117.444 63.5508 116.085C62.8548 116.823 62.1588 117.561 61.4241 118.377Z" fill="white"/>
<path d="M110.61 115.115C103.457 113.329 96.4191 113.329 89.2656 113.756C89.0723 111.504 89.6138 109.523 90.1551 107.504C90.5805 106.067 91.315 104.824 92.3977 103.815C92.9003 103.387 93.4419 102.921 94.0606 102.688C96.3033 101.873 98.5845 101.485 100.943 102.106C101.717 102.3 102.451 102.843 103.031 103.387C103.998 104.319 104.926 105.329 105.661 106.455C107.246 108.94 108.715 111.542 110.224 114.105C110.34 114.299 110.417 114.571 110.61 115.076V115.115Z" fill="white"/>
<path d="M48.3941 120.669C42.5166 120.669 36.794 120.669 31.1099 120.669C30.4912 117.678 32.1925 114.649 34.9379 114.183C36.9873 113.833 39.1527 113.988 41.2794 113.988C41.5887 113.988 41.9754 114.222 42.2074 114.494C44.2181 116.397 46.19 118.299 48.1621 120.202C48.2394 120.28 48.2394 120.397 48.3941 120.708V120.669Z" fill="white"/>
<path d="M84.4698 151.463C82.0724 150.803 79.675 150.143 76.9683 149.366C78.399 148.939 79.5976 148.628 80.7963 148.279C81.995 147.89 83.1165 147.424 84.3152 147.075C85.4365 146.764 86.6352 146.609 87.9499 146.609C87.3312 147.347 86.7124 148.046 86.1324 148.823C85.5524 149.638 85.0884 150.492 84.4698 151.424V151.463Z" fill="white"/>
<path d="M117.92 132.551C118.809 128.279 118.654 124.318 116.837 120.396C119.66 121.988 120.085 129.056 117.92 132.551Z" fill="white"/>
<path d="M86.2066 111.231C86.3092 112.396 86.0783 113.251 85.5137 113.795C85.7446 112.94 85.9756 112.086 86.2066 111.231Z" fill="black"/>
<path d="M61.4253 118.377C62.16 117.561 62.8946 116.823 63.552 116.085C63.6293 117.445 63.0107 118.144 61.4253 118.377Z" fill="black"/>
<path d="M118.768 136.085C118.768 135.503 118.768 134.804 119.038 134.299C120.43 131.658 121.049 128.862 121.01 125.872C120.933 120.862 117.994 116.824 113.509 115.814C112.503 115.581 111.924 114.998 111.46 114.105C109.565 110.571 107.515 107.115 105.195 103.853C103.533 101.484 101.29 100.28 98.5833 99.9309C95.1805 99.5037 92.3192 100.474 90.4245 103.581C89.9218 104.435 89.4964 105.328 89.071 106.221C88.8777 106.571 88.7616 106.96 88.5296 107.464C87.1763 106.222 85.8616 105.096 84.6629 103.892C82.2268 101.523 79.8295 99.154 77.4321 96.7851C75.9627 95.3483 74.2228 94.3772 72.2508 93.6782C68.0747 92.2025 63.2412 93.7178 60.6118 97.3293C59.4132 98.9992 57.9825 100.591 58.0212 102.999C55.6238 101.717 53.613 100.203 51.873 98.4168C50.5969 97.0964 49.0116 96.358 47.2715 95.892C43.6755 94.8823 40.8913 96.7464 39.6926 98.8434C37.6433 102.533 37.3341 106.494 39.4222 110.377C39.8475 111.154 40.234 111.892 40.6593 112.707C39.2673 112.746 37.9527 112.708 36.6767 112.902C35.1687 113.135 33.5834 113.406 32.1914 114.027C30.142 114.92 28.9432 116.59 28.9045 118.92C28.9045 119.503 28.8273 120.047 28.7886 120.668C28.2473 120.785 27.822 120.901 27.358 120.94C21.4032 121.6 15.5255 122.61 9.76409 124.319C1.21859 126.843 -6.78543 130.493 -14.0162 135.774C-16.491 137.6 -18.9272 139.463 -21.4406 141.211C-26.2353 144.512 -31.03 147.813 -35.9021 150.997C-39.4982 153.366 -42.1661 154.958 -45.8782 157.133C-46.9608 157.754 -45.9942 158.453 -46.1876 159.773C-45.5302 159.424 -46.4583 159.191 -46.033 158.958C-43.5969 157.521 -42.2436 156.745 -39.8076 155.347C-34.6648 152.395 -29.4447 149.6 -24.7659 145.91C-22.0205 143.775 -19.3138 141.56 -16.5297 139.463C-13.707 137.366 -10.923 135.115 -7.86825 133.328C-0.714775 129.134 7.09609 126.609 15.1389 124.784C20.7844 123.541 26.5071 122.765 32.2686 122.532C37.7207 122.299 43.1729 122.455 48.625 122.299C53.0331 122.183 57.4411 121.95 61.8492 121.639C63.7053 121.523 65.6 121.367 67.4174 120.901C72.5601 119.58 77.6641 118.183 82.7682 116.707C86.5576 115.62 90.4243 115.192 94.3297 115.231C96.4564 115.231 98.5832 115.348 100.71 115.503C104.074 115.736 107.477 115.892 110.763 116.785C111.343 116.94 111.885 117.134 112.465 117.328C112.465 117.445 112.465 117.562 112.426 117.678C111.808 117.678 111.227 117.678 110.609 117.756C109.023 117.95 107.399 118.105 105.853 118.455C104.809 118.688 103.765 119.193 102.875 119.775C100.826 121.096 100.401 122.92 101.251 126.105C101.251 125.328 101.251 124.707 101.29 124.085C101.367 122.61 101.947 121.483 103.301 120.823C103.842 120.551 104.422 120.28 105.002 120.047C107.361 119.037 109.835 118.96 112.31 118.649C113.47 118.494 114.321 118.96 115.094 119.737C116.215 120.902 116.912 122.26 117.26 123.813C117.917 126.726 118.342 129.677 117.066 132.551C116.95 132.784 116.873 133.173 116.989 133.251C117.685 133.794 117.105 134.143 116.834 134.531C115.558 136.318 113.78 137.483 111.885 138.493C108.985 140.046 105.853 141.056 102.643 141.716C96.7272 142.92 90.811 143.929 84.8949 145.055C84.5855 145.094 84.3149 145.211 84.0056 145.327C82.6909 145.832 81.4148 146.415 80.1001 146.765C77.7414 147.425 75.3442 147.852 73.0242 148.59C69.1574 149.794 66.2572 152.357 63.9372 155.619C63.2025 156.629 62.584 157.715 61.8879 158.764C59.8386 161.754 57.5185 164.511 53.9225 165.754C53.6518 165.832 53.4198 166.104 53.1878 166.259C53.2651 166.337 53.3037 166.453 53.3811 166.531C54.7344 165.909 56.281 165.56 57.4024 164.667C60.2638 162.414 63.0092 159.968 64.9426 156.822C66.5279 154.259 69.1573 153.017 71.4 151.269C75.7694 153.949 78.1281 157.988 79.9068 162.454C80.1002 159.891 78.6309 157.948 77.2775 156.123C75.9241 154.22 74.1068 152.628 72.5215 150.88C73.2948 150.337 74.1454 150.182 75.0347 150.376C78.1281 151.036 81.2989 151.541 84.315 152.434C90.1538 154.221 88.5684 153.056 93.5179 157.327C93.7112 157.483 93.9818 157.56 94.2138 157.715C94.2912 157.599 94.3685 157.522 94.4458 157.405C93.3631 156.124 92.087 154.997 90.695 154.104C89.2256 153.172 87.6016 152.473 85.8615 151.619C86.8282 150.26 87.7178 148.9 88.7231 147.658C89.8058 146.337 91.159 145.483 92.899 145.211C95.6444 144.745 98.3898 144.124 101.135 143.463C102.489 143.153 103.765 143.231 105.079 143.619C107.245 144.279 109.255 145.133 111.266 146.22C111.575 146.376 111.923 146.493 112.271 146.609C112.31 146.493 112.349 146.376 112.388 146.259C110.029 144.512 107.245 143.697 104.461 142.765C108.946 141.173 113.548 139.891 117.453 136.629C117.569 137.522 117.685 138.182 117.762 138.842C117.878 140.318 117.956 141.755 118.072 143.23C118.304 146.57 118.381 149.91 117.762 153.211C117.569 154.143 117.26 155.152 116.757 155.968C114.94 158.958 112.658 161.638 110.106 164.046C107.206 166.803 104.113 169.366 100.942 171.812C97.9259 174.142 95.1031 176.705 92.4738 179.424C91.2364 180.705 89.999 181.948 88.839 183.307C87.331 185.016 85.9002 186.802 84.4309 188.589C82.8842 190.453 80.9122 191.773 78.7082 192.511C75.8468 193.443 72.9081 194.103 69.8534 194.258C66.18 194.491 62.5065 194.919 58.8718 195.385C54.3863 195.967 49.9397 196.705 45.4543 197.249C40.4662 197.87 35.4394 198.336 30.4513 198.879C28.4019 199.112 26.3137 199.384 24.2644 199.734C22.4083 200.005 20.591 200.394 18.735 200.704C13.3602 201.598 7.94681 202.335 2.61071 203.462C-3.0734 204.665 -8.6802 206.18 -14.3256 207.617H-8.60294C-7.79092 207.384 -6.94019 207.151 -6.12817 206.918C-2.26143 205.909 1.68277 205.209 5.58818 204.393C8.7589 203.772 11.9295 203.19 15.1002 202.685C18.5416 202.141 22.0219 201.909 25.4246 201.288C33.2354 199.851 41.1235 198.802 49.0503 198.064C49.8623 197.986 50.7131 197.831 51.5251 197.753C56.5905 197.132 61.6172 196.472 66.6827 195.85C69.66 195.501 72.6761 195.229 75.6535 194.763C79.1336 194.219 82.1882 192.627 84.6629 190.103C87.2149 187.501 89.5738 184.744 92.0872 182.103C94.0592 180.045 96.0313 177.948 98.158 176.046C100.903 173.56 103.765 171.23 106.587 168.861C109.758 166.22 112.581 163.269 115.404 160.24C118.304 157.094 119.58 153.483 119.464 149.25C119.386 147.153 119.386 145.056 119.309 142.998C119.193 140.707 119.038 138.415 118.922 136.124L118.768 136.085ZM31.1086 120.63C30.4899 117.639 32.1912 114.61 34.9366 114.144C36.986 113.794 39.1514 113.95 41.2781 113.95C41.5875 113.95 41.9741 114.222 42.2061 114.455C44.2168 116.319 46.1888 118.26 48.1608 120.163C48.2381 120.241 48.2381 120.358 48.3928 120.668C42.5154 120.668 36.7927 120.668 31.1086 120.668V120.63ZM61.0758 120.047C58.1371 120.357 55.1598 120.435 52.2211 120.668C51.5637 120.707 51.0224 120.59 50.5197 120.124C48.4703 118.299 46.3821 116.513 44.3328 114.649C41.8194 112.358 40.2728 109.562 39.8088 106.145C39.4607 103.698 40.0408 101.484 41.3168 99.4255C42.0129 98.2605 43.0568 97.5234 44.4102 97.2904C46.8076 96.8633 48.9342 97.1737 50.9063 98.96C52.917 100.746 55.1596 102.261 57.3637 103.814C57.9437 104.203 58.2917 104.59 58.3691 105.251C58.6011 107.425 59.6064 109.251 60.9984 110.805C63.1251 113.251 65.3679 115.542 67.5332 117.91C67.7652 118.182 67.9974 118.415 68.4227 118.92C65.7934 119.347 63.4345 119.814 61.0758 120.047ZM87.1376 113.834C83.1549 114.96 79.2496 116.008 75.3828 117.134C74.1841 117.484 72.9855 117.872 71.8255 118.299C71.0521 118.61 70.4334 118.454 69.8534 117.872C67.7267 115.619 65.5612 113.328 63.4345 111.076C63.1638 110.765 62.9318 110.416 62.6611 110.105C60.6504 108.124 60.2251 105.601 60.0704 102.96C60.0704 102.455 60.0704 101.872 60.2637 101.406C61.4238 98.8819 62.9705 96.7073 65.6386 95.6199C67.7653 94.7267 69.9306 94.2614 72.096 95.3099C73.372 95.9312 74.648 96.5527 75.7307 97.4071C78.2828 99.4653 80.719 101.64 83.155 103.853C84.8564 105.406 86.4417 107.038 88.2204 108.785C87.9111 110.377 87.5244 112.203 87.215 113.873L87.1376 113.834ZM89.2643 113.756C89.071 111.504 89.6125 109.523 90.1538 107.503C90.5791 106.066 91.3137 104.824 92.3963 103.814C92.899 103.387 93.4406 102.921 94.0592 102.688C96.302 101.872 98.5832 101.484 100.942 102.106C101.715 102.3 102.45 102.843 103.03 103.387C103.997 104.319 104.925 105.329 105.659 106.455C107.245 108.94 108.714 111.542 110.222 114.105C110.338 114.299 110.415 114.571 110.609 115.076C103.455 113.289 96.4178 113.29 89.2643 113.717V113.756ZM86.0935 148.862C85.5135 149.677 85.0495 150.531 84.4309 151.463C82.0335 150.803 79.6361 150.143 76.9294 149.366C78.3601 148.939 79.559 148.628 80.7577 148.279C81.9563 147.89 83.0776 147.424 84.2763 147.075C85.3976 146.764 86.5963 146.609 87.911 146.648C87.2924 147.386 86.6736 148.085 86.0935 148.862ZM117.917 132.551C118.806 128.279 118.652 124.319 116.834 120.396C119.657 121.989 120.082 129.056 117.917 132.551Z" fill="black"/>
<path d="M243.701 114.611L244.9 118.96L217.949 127.038L216.711 122.65L243.701 114.611Z" fill="#231F20"/>
<path d="M219.727 117.368L198.847 130.339L223.207 129.834L219.727 117.368Z" fill="#231F20"/>
<path d="M294.625 54.8842C287.162 57.3307 280.241 61.9521 275.91 68.6315C268.602 82.6505 261.294 97.2914 255.455 111.893C255.378 119.854 253.56 128.241 260.134 134.493C270.806 140.823 288.168 137.833 300 137.562C313.301 137.173 326.99 137.717 340.059 135.892C351.776 134.067 363.608 128.785 375.517 129.251C378.997 129.912 385.03 129.096 386.46 127.193C387.891 125.29 390.714 122.921 394.851 117.252C399.066 110.611 401.502 101.796 408.037 97.0192C414.262 92.0485 418.709 83.1553 415.345 75.3497C411.13 67.1946 405.639 58.6517 402.855 57.4867C400.071 56.244 391.99 54.9624 382.323 53.5644C369.176 51.7004 356.841 51.9327 343.655 53.8356C329.58 56.6316 315.853 51.1566 301.779 51.545C298.492 52.2828 294.586 54.8453 294.586 54.8453L294.625 54.8842Z" fill="#C6875A"/>
<path d="M323.315 52.2049C307.732 51.4671 289.481 50.6125 278.963 64.5538C272.738 75.5049 264.347 86.1846 262.375 98.9221C261.292 106.262 259.552 119.155 269.606 120.747C289.094 123.699 308.505 123.31 328.11 123.038C348.835 123.193 365.23 108.087 385.995 107.621C392.259 107.621 394.27 110.261 401.655 100.747C410.703 91.2717 421.105 86.7286 412.83 71.1174C406.218 53.1762 374.124 51.7003 358.154 51.5062C346.283 51.3897 335.07 53.4864 323.315 52.2049Z" fill="#A06643"/>
<path d="M277.458 120.008C287.241 119.387 292.771 121.252 296.328 123.465C299.151 125.174 301.935 128.086 305.918 129.989C308.586 131.387 314.85 134.144 316.397 134.688C320.998 136.086 323.434 137.445 323.279 137.6C319.142 142.532 293.737 138.26 281.287 137.484C278.773 135.891 275.138 133.755 270.692 130.532C264.428 126.066 262.649 133.251 261.528 121.213C260.406 108.941 264.428 118.417 264.428 118.417C264.428 118.417 262.03 120.785 261.528 121.213C261.141 115.62 261.759 114.222 262.223 114.339C263.577 114.378 265.007 119.931 270.034 123.038C272.47 124.552 274.404 125.212 278.193 126.067C286.855 128.008 287.319 129.989 291.688 127.076C292.113 126.727 293.737 125.795 293.428 125.562C293.428 125.407 292.461 125.562 289.987 126.144" fill="#4D100C"/>
<path d="M347.253 51.3117C336.271 52.6321 325.715 51.3891 314.733 51.0396C303.288 50.6901 293.582 51.2732 283.993 58.4186C269.995 69.7969 276.298 74.8841 276.298 74.8841C283.49 69.2532 287.125 61.2141 296.096 57.8355C304.255 55.6997 311.099 54.5347 319.49 55.8938C326.411 56.7093 333.835 57.8749 341.336 59.3895C345.126 60.2438 349.031 61.4866 350.694 62.4186C354.174 64.0496 356.804 65.8742 358.582 67.6606C362.101 72.01 366.702 72.942 368.597 71.5829C370.492 70.146 369.37 66.5738 369.177 66.302C371.652 68.9427 373.547 72.2039 375.596 75.1941C376.833 73.2913 378.148 70.0294 376.601 67.6217C374.513 64.2044 368.984 64.0878 368.79 62.7675C368.172 60.787 380.043 60.0878 384.644 61.6412C384.644 61.6412 384.876 61.6415 388.201 62.923C390.985 63.9715 398.255 67.0783 403.127 70.7675C403.553 71.1947 405.099 72.2432 406.143 73.7189C407.651 75.6994 409.121 77.2141 409.275 79.7383C409.507 81.6024 409.043 83.2722 408.115 85.5245C406.955 88.7089 406.066 90.2624 404.829 91.5051C404.094 92.3983 403.321 93.2135 402.431 94.1067C398.139 98.1454 394.93 100.359 394.427 100.786C389.091 104.708 384.605 102.067 384.644 101.562C384.721 100.825 390.908 104.165 404.674 95.2719C408.424 92.8642 411.402 90.1069 411.866 89.4079C417.511 82.9227 413.993 76.8648 415.423 75.0396C417.511 72.5542 402.934 57.1757 402.934 57.1757C402.934 57.1757 401.851 54.2629 387.699 54.0688C374.126 53.9523 360.864 50.8456 347.253 51.1951V51.3117Z" fill="#F4AD6B"/>
<path d="M272.237 76.2036C272.237 76.2036 267.867 85.0584 274.789 95.3882C282.058 106.3 291.764 115.349 304.795 118.494C315.235 121.096 320.842 121.989 326.023 121.833C318.792 121.833 307.347 121.329 298.53 121.212C288.284 119.193 279.622 113.717 272.275 106.261C262.84 96.2806 262.028 103.387 263.536 92.9412C265.044 82.5337 268.679 80.7478 268.679 80.7478C268.679 80.7478 272.43 75.9317 272.237 76.1647V76.2036Z" fill="#F0BC83"/>
<path d="M305.026 119.077C315.08 119.776 325.211 120.552 335.303 120.902C343.462 118.766 351.041 113.99 358.387 109.99C366.933 106.845 375.053 104.359 384.217 103.272C385.493 103.544 386.112 103.777 387.117 104.01C382.786 106.417 379.306 106.922 372.424 110.068C364.884 112.67 357.923 116.553 351.118 120.669C339.711 126.611 324.824 122.922 312.721 121.446" fill="#F0BC83"/>
<path d="M335.304 120.941C323.898 124.319 310.248 124.281 298.802 121.252C283.761 117.174 285.888 111.582 285.888 111.582C292.422 119.931 303.559 120.475 313.148 120.902C322.119 119.62 330.896 118.261 338.436 113.018C337.16 116.436 336.503 118.183 335.304 120.941Z" fill="#C6875A"/>
<path d="M357.769 71.1566C361.017 73.4867 364.536 74.6122 366.16 73.3695C368.287 72.0491 367.706 66.8841 366.972 65.4472C364.11 60.6707 371.341 60.8651 371.341 60.8651C371.341 60.8651 385.145 64.3214 385.648 65.8359C387.891 66.6903 386.305 65.4865 395.702 70.729C405.098 76.0493 403.861 76.4767 405.253 77.7582C408.075 80.2824 409.003 84.0882 404.479 88.593C399.994 92.6317 398.138 93.0974 398.138 93.0974C398.138 93.0974 388.858 103.272 384.217 105.446C372.115 108.669 360.708 112.126 348.837 116.359C337.662 120.825 325.288 122.417 313.34 120.553C301.121 116.98 289.908 108.281 282.909 97.7183C277.998 90.1458 274.943 80.3594 275.446 71.3112C278.887 63.8162 289.482 61.953 296.984 61.4482C296.984 61.4482 299.497 59.4287 306.419 57.487C309.86 56.5939 317.671 56.3601 326.487 57.7193C334.414 59.0008 342.689 60.5154 349.726 64.5541" fill="#CE8351"/>
<path d="M342.147 53.5645C347.483 51.2344 362.486 50.7686 362.486 50.7686C362.486 50.7686 374.125 51.9333 380.08 53.3701C389.283 56.3215 399.259 58.6122 407.186 64.5149C412.715 69.2138 408.771 65.6411 412.483 74.1845C416.195 82.6891 410.704 86.5343 410.704 86.5343C410.704 86.5343 412.058 78.9225 410.511 75.4663C408.964 72.0101 407.147 70.884 401.347 66.8065C395.74 62.9619 396.127 62.3798 389.166 61.409C382.206 60.2828 380.853 59.4283 373.777 58.3798C366.739 57.3313 369.872 59.8554 366.624 59.2341C363.375 58.6127 354.559 55.0397 354.559 55.0397C350.847 57.8357 347.715 57.7975 345.743 57.6033C344.119 57.7587 339.75 54.7683 342.186 53.5645H342.147Z" fill="#A06643"/>
<path d="M364.612 118.184C358.464 121.174 358.734 121.019 355.525 122.495C345.742 126.766 342.958 131.814 338.009 133.678C333.098 135.542 331.203 136.902 331.203 136.902C346.438 137.329 360.436 131.62 375.361 129.95C378.958 129.484 384.216 128.98 384.216 128.98C384.216 128.98 384.448 128.979 384.642 128.785C384.758 128.552 385.183 127.931 384.526 122.067C384.216 120.086 386.498 115.31 381.973 113.989" fill="#A06643"/>
<path d="M408.963 96.2429C398.562 104.476 396.938 108.126 394.618 109.097C391.718 108.981 390.867 108.98 388.044 108.903C388.817 111.815 389.32 114.922 389.475 117.679C389.204 119.815 388.237 123.388 387.58 125.252C387.58 125.407 387.541 125.485 387.464 125.485C387.232 126.106 386.884 126.495 385.917 128.475C385.531 129.252 390.519 125.445 398.407 114.145C403.086 106.999 405.715 100.049 408.963 96.2429Z" fill="#4D100C"/>
<path d="M278.879 114.972C280.028 114.638 280.463 112.647 279.852 110.525C279.24 108.403 277.813 106.954 276.664 107.288C275.516 107.621 275.08 109.612 275.692 111.734C276.303 113.856 277.73 115.306 278.879 114.972Z" fill="#4D100C"/>
</g>
<rect x="1.75" y="1.75" width="429.5" height="210.5" rx="14.25" stroke="#EDEDEC" stroke-width="3.5"/>
</g>
<defs>
<clipPath id="clip0_6615_14566">
<rect width="433" height="214" fill="white"/>
</clipPath>
<clipPath id="clip1_6615_14566">
<rect x="2" y="4" width="431" height="207" rx="4" fill="white"/>
</clipPath>
<clipPath id="clip2_6615_14566">
<path d="M107.068 40.8203L257.07 77.4064C258.143 77.6681 258.799 78.75 258.536 79.8227L236.144 171.097L84.1992 134.037L107.068 40.8203Z" fill="white"/>
</clipPath>
</defs>
</svg>
