<svg width="434" height="296" viewBox="0 0 434 296" fill="none" xmlns="http://www.w3.org/2000/svg">
<g clip-path="url(#clip0_6580_12610)">
<rect width="434" height="296" fill="white"/>
<rect x="1.75" y="47.75" width="429.5" height="210.5" rx="14.25" stroke="#EDEDEC" stroke-width="3.5"/>
<path d="M338.919 165.611H337.88V160.591L336.347 161.115V160.235L338.786 159.337H338.919V165.611Z" fill="#5E6262"/>
<path d="M28.7773 66.4014L201.621 30.7532L244.308 238.352L71.4645 274L28.7773 66.4014Z" fill="#F4CE89"/>
<path d="M238.807 239.138L200.048 51.7227L199.263 51.9848L238.022 239.4L238.807 239.138Z" fill="#BA9462"/>
<path d="M239.331 239.401L200.31 50.6748L199.263 50.9369L238.283 239.663L239.331 239.401Z" fill="#AD885A"/>
<path d="M78.0129 272.69L39.2541 85.0125L38.2065 85.2746L76.9654 272.69H78.0129Z" fill="#BA9462"/>
<path d="M77.7514 272.69L38.7306 84.488L37.6831 84.7501L76.7039 272.952L77.7514 272.69Z" fill="#AD885A"/>
<path d="M137.198 254.604C137.198 254.08 137.198 253.817 137.46 253.293C137.722 253.031 137.984 252.769 138.508 252.507L174.386 245.167C174.91 245.167 175.171 245.167 175.695 245.43C175.957 245.692 176.219 245.954 176.481 246.478L177.005 248.575L137.984 256.701L137.198 254.604Z" fill="#5C5C5C"/>
<path d="M176.219 246.478L137.198 254.866L137.46 256.176L176.481 247.788L176.219 246.478Z" fill="#434343"/>
<path d="M235.142 235.207L79.3208 267.709L79.5827 269.282L235.404 236.779L235.142 235.207Z" fill="#AD885A"/>
<path d="M238.024 234.944L76.4409 269.019L77.2266 272.689L238.809 239.4L238.024 234.944Z" fill="#AD885A"/>
<path d="M80.3698 270.331C80.8935 270.331 80.8935 270.069 80.8935 269.544L57.062 155.26V154.998L56.8002 154.736H56.5383H56.2764C56.0145 154.736 55.7526 154.998 55.7526 154.998C55.7526 155.26 55.4907 155.522 55.7526 155.522L79.846 270.069C79.3222 270.593 80.1079 270.593 80.3698 270.331Z" fill="#AD885A"/>
<path d="M79.3225 268.233C80.3701 267.971 80.1082 268.233 79.8463 266.398L56.8005 155.522V155.26L56.5386 154.998H56.2767H56.0148H55.7529C55.4911 154.998 55.2292 155.26 55.2292 155.26C55.2292 155.522 54.9673 155.784 55.2292 155.784L78.5369 266.66C78.5369 268.495 78.5369 268.233 79.3225 268.233Z" fill="#F8F7F7"/>
<path d="M53.6572 156.046C53.6572 155.784 53.6572 155.522 53.6572 155.522C53.6572 155.26 53.9191 155.26 54.181 155.26L55.4904 154.998C55.7523 154.998 56.0142 154.998 56.0142 154.998C56.2761 154.998 56.2761 155.26 56.2761 155.522L79.3219 267.709L76.4412 268.233L53.6572 156.046Z" fill="#C7C6C5"/>
<path d="M236.448 239.924C236.448 239.924 236.71 239.924 236.71 239.662L236.971 239.4C236.971 239.4 236.971 239.138 237.233 239.138V238.876L213.14 123.543C213.14 123.281 212.878 123.019 212.616 123.019C212.354 122.757 212.092 122.757 211.831 122.757C211.569 122.757 211.307 123.019 211.307 123.281C211.045 123.543 211.045 123.805 211.045 124.067L235.4 239.4C235.4 239.4 235.4 239.662 235.662 239.662L235.924 239.924C235.924 239.924 236.186 239.924 236.186 240.186C236.186 239.924 236.186 239.924 236.448 239.924Z" fill="#AD885A"/>
<path d="M236.713 237.041H236.975L237.237 236.779V236.517V236.255L213.405 123.544C213.405 123.281 213.143 123.019 213.143 123.019C212.882 123.019 212.62 122.757 212.62 123.019L211.834 123.281C211.572 123.281 211.31 123.544 211.31 123.544C211.31 123.806 211.048 124.068 211.31 124.068L234.88 237.041C234.88 237.303 235.142 237.566 235.142 237.566C235.142 237.566 235.666 237.828 235.666 237.566L236.713 237.041Z" fill="#F8F7F7"/>
<path d="M211.833 123.544C211.833 123.281 211.833 123.019 211.833 123.019C211.833 122.757 212.095 122.757 212.357 122.757L213.667 122.495C213.929 122.495 214.19 122.495 214.19 122.495C214.452 122.495 214.452 122.757 214.452 123.019L237.498 235.206L234.617 235.731L211.833 123.544Z" fill="#C7C6C5"/>
<path d="M76.7028 268.233L237.5 234.944C237.5 235.468 237.762 235.73 237.5 236.254C237.5 236.779 237.238 237.041 236.976 237.565C236.714 237.827 236.452 238.351 235.928 238.614C235.667 238.876 235.143 238.876 234.619 239.138L80.1073 270.854C79.5835 270.854 79.3216 271.116 78.7979 270.854C78.2741 270.854 78.0122 270.592 77.4884 270.33C77.2266 270.068 76.7028 269.806 76.4409 269.281C76.9647 269.019 76.9647 268.757 76.7028 268.233Z" fill="#C7C6C5"/>
<path d="M79.5864 267.71L234.884 235.731V236.255L79.5864 268.234V267.71Z" fill="#F8F7F7"/>
<path d="M32.4424 84.2258L205.024 48.3154L205.548 51.4609L33.228 87.3712L32.4424 84.2258Z" fill="#F8F7F7"/>
<path d="M32.4424 83.9631L205.024 48.0527V48.577L32.4424 84.4874V83.9631Z" fill="white"/>
<path d="M32.9692 86.5852L205.551 50.6748V51.1991L32.9692 87.1094V86.5852Z" fill="#D8D8D8"/>
<path d="M79.8439 139.008V139.27C79.8439 139.27 79.8439 139.532 79.582 139.532H79.3201H79.0583L78.7964 139.27V139.008C78.7964 139.008 78.7964 138.746 79.0583 138.746L79.3201 138.484C79.582 138.484 79.5821 138.484 79.8439 138.484C79.8439 138.746 79.8439 139.008 79.8439 139.008Z" fill="#5C5C5C"/>
<path d="M79.5814 139.794C79.5814 139.794 79.8433 139.794 79.8433 139.532L80.1051 139.27V139.008C80.1051 139.008 80.1052 138.746 79.8433 138.746H79.5814H79.3195L79.0576 139.008C79.0576 139.008 79.0576 138.746 79.3195 138.746H79.5814H79.8433L80.1051 139.008V139.27C79.8433 139.532 79.8433 139.532 79.5814 139.794Z" fill="#434343"/>
<path d="M84.0312 177.802C84.0312 177.539 84.0313 177.015 84.2932 176.753C84.555 176.491 84.8169 176.229 85.0788 176.229L91.6259 174.918C91.8878 174.918 92.4116 174.918 92.6734 175.18C92.9353 175.442 93.1972 175.705 93.1972 175.967C93.1972 176.229 93.1972 176.753 92.9353 177.015C92.6735 177.277 92.4116 177.539 92.1497 177.539L85.6026 178.85C85.3407 178.85 84.8169 178.85 84.555 178.588C84.2931 178.588 84.2931 178.326 84.0312 177.802Z" fill="#282828"/>
<path d="M79.5864 174.919C79.5864 174.656 79.5864 174.394 79.5864 174.394C79.5864 174.132 79.8483 174.132 80.1102 174.132L94.7757 170.987C95.0376 170.987 95.2995 170.987 95.2995 170.987C95.5614 170.987 95.5614 171.249 95.5614 171.511L97.1327 178.85C97.1327 179.113 97.1327 179.375 97.1327 179.375C97.1327 179.637 96.8708 179.637 96.6089 179.637L81.9434 182.782C81.6815 182.782 81.4196 182.782 81.4196 182.782C81.1577 182.782 81.1577 182.52 81.1577 182.258L79.5864 174.919Z" fill="#5C5C5C"/>
<path d="M83.2471 178.063C83.2471 177.539 83.2471 177.015 83.509 176.491C83.7709 175.966 84.2946 175.704 84.8184 175.704L91.3655 174.394C91.8893 174.394 92.4131 174.394 92.9368 174.656C93.4606 174.918 93.7224 175.442 93.7224 175.967C93.7224 176.491 93.7225 177.015 93.4606 177.539C93.1987 178.063 92.6749 178.326 92.1512 178.326L85.6041 179.636C85.0803 179.636 84.5565 179.636 84.0327 179.374C83.7708 179.112 83.509 178.588 83.2471 178.063Z" fill="#909091"/>
<path d="M84.0312 177.802C84.0312 177.539 84.0313 177.015 84.2932 176.753C84.555 176.491 84.8169 176.229 85.0788 176.229L91.6259 174.918C91.8878 174.918 92.4116 174.918 92.6734 175.18C92.9353 175.442 93.1972 175.705 93.1972 175.967C93.1972 176.229 93.1972 176.753 92.9353 177.015C92.6735 177.277 92.4116 177.539 92.1497 177.539L85.6026 178.85C85.3407 178.85 84.8169 178.85 84.555 178.588C84.2931 178.588 84.2931 178.326 84.0312 177.802Z" fill="#282828"/>
<path d="M84.5581 178.588C84.82 178.85 85.0819 178.85 85.3438 178.85L91.8909 177.54C92.1528 177.54 92.4147 177.278 92.6766 177.016C92.9384 176.753 92.9385 176.491 92.9385 176.229C92.9385 175.967 92.6765 175.705 92.4147 175.443C92.1528 175.181 91.8909 175.181 91.629 175.181L85.0819 176.491C84.82 176.491 84.5581 176.753 84.2963 177.016C84.0344 177.278 84.0344 177.54 84.0344 177.802M84.5581 178.588C84.2962 178.326 84.0344 178.064 84.0344 177.802M84.5581 178.588C84.2962 178.588 84.0344 178.064 84.0344 177.802M84.5581 178.588C84.82 178.85 85.3438 178.85 85.6057 178.85L92.1528 177.54C92.4147 177.54 92.9385 177.278 92.9385 177.016C93.2003 176.753 93.2003 176.229 93.2003 175.967C93.2003 175.705 92.9384 175.181 92.6766 175.181C92.4147 174.919 91.8909 174.919 91.629 174.919L85.0819 176.229C84.82 176.229 84.2963 176.491 84.2963 176.753C84.0344 177.016 84.0344 177.54 84.0344 177.802M83.2487 178.064C83.2487 178.326 83.2487 178.588 83.5106 178.85C83.5106 179.113 83.7725 179.113 84.0344 179.375C84.2962 179.375 84.5581 179.637 84.82 179.637C85.0819 179.637 85.3438 179.637 85.6057 179.637L92.1528 178.326C92.4147 178.326 92.6766 178.326 92.9385 178.064C93.2003 178.064 93.2003 177.802 93.4622 177.54C93.4622 177.278 93.7241 177.016 93.7241 176.753C93.7241 176.491 93.7241 176.229 93.7241 175.967C93.7241 175.705 93.7241 175.443 93.4622 175.181C93.4622 174.919 93.2003 174.919 92.9385 174.657C92.6766 174.657 92.4147 174.394 92.1528 174.394C91.8909 174.394 91.629 174.394 91.3671 174.394L84.82 175.705C84.5581 175.705 84.2962 175.967 84.0344 175.967C83.7725 175.967 83.7725 176.229 83.5106 176.491M83.2487 178.064C83.2487 177.802 83.2487 177.54 83.2487 177.278C83.2487 177.016 83.5106 176.753 83.5106 176.491M83.2487 178.064C82.9868 177.54 83.2487 177.016 83.5106 176.491M83.2487 178.064C83.2487 178.588 83.7725 179.113 84.2963 179.375C84.82 179.637 85.3438 179.899 85.8675 179.637L92.4147 178.326C92.9384 178.326 93.4622 177.802 93.7241 177.278C93.986 176.754 94.2479 176.229 93.986 175.705C93.986 175.181 93.4622 174.657 92.9385 174.394C92.6766 174.132 91.8909 174.132 91.3671 174.132L84.82 175.443C84.2963 175.443 83.7725 175.967 83.5106 176.491M80.368 174.132L95.0335 170.987C95.2954 170.987 95.2954 170.987 95.5573 170.987C95.8192 170.987 95.8192 171.249 95.8192 171.511L97.3905 178.85C97.3905 179.113 97.3905 179.113 97.3905 179.375C97.3905 179.637 97.1286 179.637 96.8667 179.637L82.2012 182.782H81.9393H81.6774C81.6774 182.782 81.4155 182.782 81.4155 182.52V182.258L79.8442 174.919V174.657V174.394C79.8442 174.394 79.8442 174.132 80.1061 174.132C80.1061 174.132 80.368 174.132 80.368 174.132Z" stroke="#434343" stroke-width="0.172"/>
<path d="M88.224 200.607C98.6994 201.131 107.603 193.267 108.127 182.782C108.651 172.298 100.794 163.386 90.3191 162.861C79.8437 162.337 70.9396 170.201 70.4158 180.686C69.8921 191.17 77.7486 199.82 88.224 200.607Z" stroke="#C8202F" stroke-width="2"/>
<path d="M67.2759 111.748L79.3226 109.389C79.8463 109.389 80.1082 109.651 80.1082 109.913C80.1082 110.438 79.8464 110.7 79.5845 110.7L67.5378 113.059C67.014 113.059 66.7522 112.797 66.7522 112.535C66.4903 112.272 66.7521 111.748 67.2759 111.748Z" fill="#434343"/>
<path fill-rule="evenodd" clip-rule="evenodd" d="M67.2769 111.748C66.7531 111.748 66.4912 112.273 66.7531 112.535V112.797C66.7531 112.535 67.015 112.272 67.2769 112.272L79.3235 109.913C79.5854 109.913 79.8473 109.913 80.1092 110.176V109.913C80.1092 109.389 79.5854 109.127 79.3235 109.389L67.2769 111.748Z" fill="#5C5C5C"/>
<path d="M68.3236 117.252L80.3703 114.893C80.894 114.893 81.1559 115.155 81.1559 115.417C81.1559 115.942 80.894 116.204 80.6321 116.204L68.5855 118.563C68.0617 118.563 67.7998 118.301 67.7998 118.039C67.7998 117.776 68.0617 117.252 68.3236 117.252Z" fill="#434343"/>
<path fill-rule="evenodd" clip-rule="evenodd" d="M68.3218 117.253C67.798 117.253 67.5362 117.777 67.7981 118.04V118.302C67.7981 118.04 68.0599 117.777 68.3218 117.777L80.3685 115.418C80.6304 115.418 80.8923 115.418 81.1542 115.68V115.418C81.1542 114.894 80.6304 114.632 80.3685 114.894L68.3218 117.253Z" fill="#5C5C5C"/>
<path d="M69.6333 122.757L81.68 120.398C82.2038 120.398 82.4657 120.66 82.4657 120.922C82.4657 121.446 82.2038 121.708 81.9419 121.708L69.8952 124.067C69.3715 124.067 69.1096 123.805 69.1096 123.543C68.8477 123.281 69.1096 122.757 69.6333 122.757Z" fill="#434343"/>
<path fill-rule="evenodd" clip-rule="evenodd" d="M69.6333 122.757C69.1096 122.757 68.8477 123.281 69.1096 123.543V123.806C69.1096 123.543 69.3715 123.281 69.6333 123.281L81.68 120.922C81.9419 120.922 82.2038 120.922 82.4657 121.184V120.922C82.4657 120.398 81.9419 120.136 81.68 120.398L69.6333 122.757Z" fill="#5C5C5C"/>
<g clip-path="url(#clip1_6580_12610)">
<path d="M94.792 211.985L97.4582 211.391L123.186 326.926L120.52 327.52L94.792 211.985Z" fill="#282828"/>
<path d="M96.9249 211.51L97.1916 211.451L122.919 326.985L122.653 327.045L96.9249 211.51Z" fill="#4E4E4E"/>
<path d="M95.0586 211.926L95.3252 211.866L121.053 327.401L120.786 327.46L95.0586 211.926Z" fill="#3F3F3F"/>
<path d="M94.792 211.985L97.4582 211.391L97.5881 211.975L94.9219 212.569L94.792 211.985Z" fill="black"/>
<path d="M85.7863 188.307L95.5623 186.13L95.6678 186.604L85.8918 188.781L85.7863 188.307Z" fill="#9D9D9D"/>
<path d="M84.6549 183.076C84.4852 182.294 84.8687 181.546 85.5135 181.403L92.9115 179.755C93.5594 179.611 94.2264 180.131 94.4012 180.916L95.6678 186.604L85.8918 188.781L84.6549 183.076Z" fill="#C7C7C7"/>
<path d="M85.0163 183.006C84.8414 182.221 85.2249 181.467 85.8728 181.323L92.9115 179.755C93.5594 179.611 94.2264 180.131 94.4012 180.916L95.5623 186.13L86.1773 188.22L85.0163 183.006Z" fill="#DDDDDD"/>
<path d="M89.3921 180.539L92.9128 179.761L94.3892 186.391L90.8698 187.175L89.3921 180.539Z" fill="#ECECEC"/>
<path d="M91.3473 180.104L92.1294 179.93L93.6071 186.565L92.825 186.74L91.3473 180.104Z" fill="#F8F8F8"/>
<path d="M85.8391 188.544L95.6151 186.367L95.6678 186.604L85.8918 188.781L85.8391 188.544Z" fill="#8B8B8B"/>
<path d="M84.8052 182.058C85.1514 181.642 85.5067 181.574 85.7243 181.526L92.7599 179.959C93.5205 179.789 94.0085 180.02 94.1884 180.828L95.4838 186.645L95.6678 186.604L94.3005 180.464C94.1813 179.928 93.5325 179.617 92.9805 179.74L85.4817 181.41C85.2862 181.453 84.8731 181.715 84.8052 182.058Z" fill="#FBFBFB"/>
<path d="M80.8258 191.149C80.6806 190.497 81.1217 189.844 81.811 189.691L98.867 185.893C99.5562 185.739 100.233 186.143 100.378 186.795L104.144 203.71C104.338 204.579 103.75 205.449 102.831 205.654L86.6068 209.267C85.6878 209.471 84.7859 208.933 84.5924 208.064L80.8258 191.149Z" fill="#424242"/>
<path d="M82.227 189.598L83.059 189.413L87.4383 209.079C87.4383 209.079 87.1848 209.145 87.0206 209.164C86.8474 209.184 86.5842 209.165 86.5842 209.165L82.227 189.598Z" fill="#373737"/>
<path d="M83.475 189.32L82.643 189.506L87.0114 209.123C87.0114 209.123 87.1832 209.113 87.2975 209.1C87.5142 209.076 87.8536 208.983 87.8536 208.983L83.475 189.32Z" fill="#535353"/>
<path d="M97.203 186.263L98.035 186.078L102.371 205.55C102.371 205.55 102.146 205.623 101.973 205.725C101.588 205.955 101.582 205.93 101.582 205.93L97.203 186.263Z" fill="#3A3A3A"/>
<path d="M98.451 185.985L97.619 186.171L101.999 205.839C102.285 205.736 102.552 205.62 102.795 205.493L98.451 185.985Z" fill="#5A5A5A"/>
<path d="M90.0703 203.252C90.0558 203.187 90.0999 203.121 90.1689 203.106L97.8233 201.402C97.8922 201.386 97.9598 201.427 97.9743 201.492L98.0094 201.649C98.0239 201.714 97.9798 201.78 97.9109 201.795L90.2565 203.499C90.1875 203.515 90.1199 203.474 90.1054 203.409L90.0703 203.252Z" fill="#282828"/>
<path d="M89.8076 202.072C89.793 202.007 89.8372 201.941 89.9061 201.926L97.5605 200.221C97.6294 200.206 97.697 200.247 97.7116 200.312L97.7466 200.469C97.7611 200.534 97.717 200.599 97.6481 200.615L89.9937 202.319C89.9247 202.335 89.8571 202.294 89.8426 202.229L89.8076 202.072Z" fill="#282828"/>
<path d="M84.5924 208.064C84.3989 207.195 84.9871 206.324 85.9061 206.12L102.13 202.507C103.049 202.302 103.951 202.841 104.144 203.71L104.232 204.103C104.426 204.972 103.837 205.843 102.918 206.047L86.6944 209.66C85.7754 209.865 84.8736 209.326 84.68 208.457L84.5924 208.064Z" fill="black"/>
<path d="M84.5924 208.064C84.3989 207.195 84.9871 206.324 85.9061 206.12L102.13 202.507C103.049 202.302 103.951 202.841 104.144 203.71C104.338 204.579 103.75 205.449 102.831 205.654L86.6068 209.267C85.6878 209.471 84.7859 208.933 84.5924 208.064Z" fill="#4F4F4F"/>
<path d="M84.6362 208.26C84.4669 207.5 84.9815 206.739 85.7857 206.559L102.426 202.854C103.23 202.675 104.019 203.146 104.188 203.907C104.358 204.667 103.843 205.429 103.039 205.608L86.3988 209.313C85.5947 209.492 84.8056 209.021 84.6362 208.26Z" fill="#333333"/>
<path d="M97.9921 205.493C98.0888 205.927 96.5841 206.632 94.6313 207.067C92.6784 207.502 91.0168 207.502 90.9201 207.068C90.8233 206.633 92.328 205.928 94.2809 205.494C96.2337 205.059 97.8953 205.058 97.9921 205.493Z" fill="black"/>
<path d="M91.2485 206.582L97.4885 205.192L98.6773 210.531C98.7464 210.841 98.4299 211.176 97.9704 211.278L93.3944 212.297C92.9349 212.399 92.5064 212.231 92.4373 211.92L91.2485 206.582Z" fill="#282828"/>
<path d="M91.6645 206.489L91.8725 206.443C91.8725 206.443 93.1059 211.982 93.182 212.324C93.1864 212.343 92.9613 212.313 92.9613 212.313L91.6645 206.489Z" fill="#4D4C4C"/>
<path d="M91.6645 206.489L91.8725 206.443L91.935 206.724L91.727 206.77L91.6645 206.489Z" fill="#1D1D1D"/>
<path d="M91.727 206.77L91.935 206.724L91.9976 207.005L91.7896 207.051L91.727 206.77Z" fill="#3A3A3A"/>
<path d="M91.2485 206.582L97.4885 205.192L97.6136 205.754L91.3736 207.144L91.2485 206.582Z" fill="black"/>
<path d="M91.311 206.863L97.551 205.473L97.6136 205.754L91.3736 207.144L91.311 206.863Z" fill="#1B1B1B"/>
<path d="M97.0725 205.285L96.8645 205.331C96.8645 205.331 98.0974 210.868 98.1735 211.21C98.1784 211.232 98.3691 211.107 98.3691 211.107L97.0725 205.285Z" fill="#626262"/>
<path d="M96.8645 205.331L97.0725 205.285L97.135 205.566L96.927 205.612L96.8645 205.331Z" fill="#1D1D1D"/>
<path d="M96.927 205.612L97.135 205.566L97.1976 205.847L96.9896 205.893L96.927 205.612Z" fill="#3A3A3A"/>
<path d="M92.431 211.892C92.3584 211.566 92.579 211.24 92.9236 211.163L97.9156 210.052C98.2602 209.975 98.5985 210.177 98.671 210.503C98.7436 210.829 98.523 211.155 98.1784 211.232L93.1864 212.343C92.8418 212.42 92.5036 212.218 92.431 211.892Z" fill="#030303"/>
</g>
<mask id="mask0_6580_12610" style="mask-type:luminance" maskUnits="userSpaceOnUse" x="278" y="96" width="112" height="113">
<path d="M330.355 207.945C360.995 209.78 387.184 186.451 389.017 155.783C390.85 125.115 367.542 98.9031 336.902 97.0683C306.261 95.2334 280.073 118.562 278.24 149.23C276.407 179.636 299.714 206.11 330.355 207.945Z" fill="white"/>
</mask>
<g mask="url(#mask0_6580_12610)">
<path d="M156.201 -186.022L663.733 -290.607L789.176 319.082L281.906 423.668L156.201 -186.022Z" fill="#F4CE89"/>
<path d="M300.757 419.475L186.838 -131.238L183.957 -130.714L298.139 419.999L300.757 419.475Z" fill="#BA9462"/>
<path d="M299.713 419.999L185.27 -133.335L182.127 -132.81L296.571 420.524L299.713 419.999Z" fill="#AD885A"/>
<path d="M307.572 413.183C308.881 412.921 309.143 412.396 308.881 411.086L238.434 75.3107C238.434 75.0485 238.172 74.7864 238.172 74.5243C237.91 74.2622 237.649 74 237.387 73.7379C237.125 73.4758 236.863 73.4758 236.601 73.4758C236.339 73.4758 236.077 73.4758 235.554 73.4758C235.03 73.7379 234.244 74.0001 233.982 74.5243C233.72 75.0485 233.458 75.8349 233.72 76.3591L304.429 412.658C304.691 413.969 306.262 413.445 307.572 413.183Z" fill="#AD885A"/>
<path d="M304.43 406.368C307.311 405.844 307.049 406.368 305.74 401.126L238.174 75.3113C238.174 75.0491 237.912 74.787 237.912 74.5249C237.65 74.2628 237.388 74.0007 237.126 74.0007C236.864 73.7385 236.602 73.7385 236.341 73.7385C236.079 73.7385 235.817 73.7385 235.293 73.7385L234.769 74.0007C234.246 74.0007 233.46 74.5249 233.198 75.0491C232.936 75.5734 232.674 76.3597 232.936 76.884L301.288 402.174C302.074 407.417 302.074 406.892 304.43 406.368Z" fill="#F8F7F7"/>
<path d="M229.268 77.4081C229.268 76.8839 229.268 76.0975 229.53 75.5733C229.792 75.049 230.316 74.7869 231.101 74.5248L234.768 73.7385C235.291 73.4763 236.077 73.7385 236.601 74.0006C237.125 74.2627 237.648 74.7869 237.648 75.5733L305.476 405.057L297.096 406.892L229.268 77.4081Z" fill="#C7C6C5"/>
<path d="M318.571 141.366C318.31 140.317 318.571 139.531 319.095 138.483C319.619 137.696 320.405 137.172 321.452 136.91L340.57 132.978C341.617 132.716 342.403 132.978 343.451 133.502C344.236 134.027 344.76 134.813 345.022 135.861C345.284 136.91 345.022 137.696 344.498 138.745C343.974 139.531 343.189 140.055 342.141 140.317L323.023 144.249C321.976 144.511 321.19 144.249 320.143 143.725C319.095 143.201 318.571 142.414 318.571 141.366Z" fill="#282828"/>
<path d="M305.476 132.716C305.476 132.192 305.476 131.405 305.737 130.881C305.999 130.357 306.523 129.833 307.309 129.833L350.258 120.921C350.782 120.921 351.567 120.921 352.091 121.183C352.615 121.445 353.138 121.969 353.138 122.755L357.591 144.249C357.591 144.774 357.591 145.56 357.329 146.084C357.067 146.608 356.543 147.133 355.757 147.133L312.808 156.045C312.285 156.307 311.499 156.045 310.975 155.783C310.451 155.52 309.928 154.996 309.928 154.21L305.476 132.716Z" fill="#5C5C5C"/>
<path d="M315.952 141.89C315.69 140.318 315.952 138.745 316.738 137.172C317.523 135.862 319.095 134.813 320.666 134.551L339.784 130.619C341.355 130.357 342.926 130.619 344.498 131.406C345.807 132.192 346.855 133.765 347.116 135.337C347.378 136.91 347.116 138.483 346.331 140.056C345.545 141.366 343.974 142.415 342.402 142.677L323.285 146.609C321.714 146.871 320.142 146.609 318.571 145.822C317.262 144.774 316.476 143.463 315.952 141.89Z" fill="#909091"/>
<path d="M318.571 141.366C318.31 140.317 318.571 139.531 319.095 138.483C319.619 137.696 320.405 137.172 321.452 136.91L340.57 132.978C341.617 132.716 342.403 132.978 343.451 133.502C344.236 134.027 344.76 134.813 345.022 135.861C345.284 136.91 345.022 137.696 344.498 138.745C343.974 139.531 343.189 140.055 342.141 140.317L323.023 144.249C321.976 144.511 321.19 144.249 320.143 143.725C319.095 143.201 318.571 142.414 318.571 141.366Z" fill="#282828"/>
<path d="M323.022 154.21C322.76 152.375 323.284 150.802 324.856 150.278L344.235 146.346C345.806 146.084 347.116 147.395 347.378 149.229L351.568 169.413L326.951 174.393L323.022 154.21Z" fill="#E8E8E8"/>
<path d="M335.069 148.18L344.235 146.345L348.949 169.936L339.783 171.771L335.069 148.18Z" fill="#F2F2F3"/>
<path d="M340.045 147.133L342.141 146.609L346.854 170.2L344.759 170.724L340.045 147.133Z" fill="white"/>
<path d="M313.857 180.421C313.595 179.635 313.857 178.586 314.38 177.8C314.904 177.014 315.69 176.489 316.475 176.227L362.043 166.791C362.829 166.529 363.877 166.791 364.662 167.315C365.448 167.84 365.972 168.626 366.234 169.412L380.637 239.66C380.899 241.495 380.637 243.33 379.59 244.903C378.542 246.475 376.971 247.524 375.399 247.786L336.379 255.912C334.546 256.174 332.712 255.912 331.141 254.863C329.57 253.815 328.522 252.242 328.26 250.407L313.857 180.421Z" fill="#434343"/>
<path d="M316.473 176.489L320.663 175.703L336.9 255.911C336.9 255.911 336.114 256.173 335.329 256.173C334.543 256.173 333.758 256.174 332.972 255.649L316.473 176.489Z" fill="#343434"/>
<path d="M320.663 175.703L319.354 175.965L335.853 256.173L337.424 255.911L320.663 175.703Z" fill="#626363"/>
<path d="M357.85 167.84L362.04 167.054C362.04 167.054 375.92 236.253 378.277 246.738C377.753 247.262 377.229 247.524 376.443 247.787L374.872 248.049L357.85 167.84Z" fill="#343434"/>
<path d="M359.159 167.578L357.85 167.84L374.348 248.049L375.92 247.787L359.159 167.578Z" fill="#626363"/>
</g>
<path d="M333.758 207.945C364.566 207.945 389.54 182.949 389.54 152.114C389.54 121.279 364.566 96.2825 333.758 96.2825C302.951 96.2825 277.977 121.279 277.977 152.114C277.977 182.949 302.951 207.945 333.758 207.945Z" stroke="#CE0E2D" stroke-width="4" stroke-miterlimit="10"/>
</g>
<defs>
<clipPath id="clip0_6580_12610">
<rect width="434" height="296" fill="white"/>
</clipPath>
<clipPath id="clip1_6580_12610">
<rect width="20.0309" height="93.0381" fill="white" transform="translate(78.978 182.859) rotate(-12.554)"/>
</clipPath>
</defs>
</svg>
