<svg width="435" height="296" viewBox="0 0 435 296" fill="none" xmlns="http://www.w3.org/2000/svg">
<g clip-path="url(#clip0_6641_13187)">
<rect width="434" height="296" fill="white"/>
<rect x="1.75" y="42.75" width="429.5" height="210.5" rx="14.25" fill="white" stroke="#EDEDEC" stroke-width="3.5"/>
<path d="M339.113 92.0894V150.35L367.631 99.9485L359.226 95.848L339.113 92.0894Z" fill="#CE0E2D"/>
<path d="M401.319 150.35C401.319 184.649 373.722 212.839 339.109 212.839C304.964 212.839 276.899 185.118 276.899 150.35C276.899 116.052 304.496 87.8613 339.109 87.8613C373.722 87.8613 401.319 116.052 401.319 150.35ZM339.109 96.7884C309.641 96.7884 285.787 120.75 285.787 150.35C285.787 179.95 309.641 203.912 339.109 203.912C368.577 203.912 392.432 179.95 392.432 150.35C392.899 120.75 369.045 96.7884 339.109 96.7884Z" fill="#686867"/>
<path d="M340.982 95.3792H337.24V100.078H340.982V95.3792Z" fill="#686867"/>
<path d="M313.383 101.824L310.143 103.703L312.481 107.772L315.722 105.892L313.383 101.824Z" fill="#686867"/>
<path d="M292.78 121.293L290.909 124.548L294.959 126.897L296.83 123.642L292.78 121.293Z" fill="#686867"/>
<path d="M284.204 148.376L284.204 152.135L288.882 152.135L288.882 148.376L284.204 148.376Z" fill="#686867"/>
<path d="M290.632 176.105L292.503 179.36L296.554 177.011L294.683 173.756L290.632 176.105Z" fill="#686867"/>
<path d="M309.964 196.9L313.204 198.779L315.543 194.71L312.302 192.831L309.964 196.9Z" fill="#686867"/>
<path d="M336.988 205.268L340.73 205.268L340.73 200.569L336.988 200.569L336.988 205.268Z" fill="#686867"/>
<path d="M364.644 199.036L367.885 197.157L365.546 193.088L362.306 194.967L364.644 199.036Z" fill="#686867"/>
<path d="M385.163 179.456L387.034 176.201L382.983 173.852L381.112 177.107L385.163 179.456Z" fill="#686867"/>
<path d="M393.603 152.384L393.603 148.625L388.925 148.625L388.925 152.384L393.603 152.384Z" fill="#686867"/>
<path d="M387.412 124.614L385.541 121.359L381.49 123.708L383.361 126.963L387.412 124.614Z" fill="#686867"/>
<path d="M368.102 103.696L364.861 101.817L362.523 105.885L365.763 107.765L368.102 103.696Z" fill="#686867"/>
<path d="M339.698 165.611H338.659V160.591L337.126 161.115V160.235L339.565 159.337H339.698V165.611Z" fill="#5E6262"/>
<path fill-rule="evenodd" clip-rule="evenodd" d="M242.756 97.2576L199.256 159.277H223.579L213.756 200.623L257.256 138.604H232.934L242.756 97.2576Z" fill="#74B958"/>
<path d="M155.987 34.9137L4.35596 65.7258L41.6972 248.972L193.328 218.16L155.987 34.9137Z" fill="#B8BBBB"/>
<path d="M37.7861 237.103L195.158 205.1L198.028 219.668L40.6561 251.672L37.7861 237.103Z" fill="#F1C987"/>
<path d="M2.14893 62.7567L159.521 30.7532L162.869 46.7549L5.49725 78.7584L2.14893 62.7567Z" fill="#F1C987"/>
<path d="M5.01807 77.3257L162.39 45.3223L162.868 48.1883L5.73558 80.1917L5.01807 77.3257Z" fill="#F4F2F1"/>
<path d="M5.01807 77.086L162.39 45.0825V45.5602L5.01807 77.5636V77.086Z" fill="white"/>
<path d="M5.7373 79.9522L83.7058 64.1893L163.109 47.9487L195.158 205.1L37.7857 237.103L5.7373 79.9522Z" fill="#D0A76D"/>
<path d="M163.109 47.9487L87.0542 63.4728L112.884 190.054L188.939 174.53L163.109 47.9487Z" fill="#F1C987"/>
<path d="M5.49658 79.4747L162.869 47.4712V47.9489L5.49658 79.9523V79.4747Z" fill="#CED0CF"/>
<path d="M75.8103 225.64L59.5469 228.984L60.2644 232.566L76.5277 229.222L75.8103 225.64Z" fill="#D2D4D4"/>
<path d="M76.0515 226.356L59.7881 229.7L60.0273 230.655L76.2906 227.312L76.0515 226.356Z" fill="#ECECEB"/>
<path d="M95.1838 221.819L78.9204 225.162L79.6379 228.745L95.9013 225.401L95.1838 221.819Z" fill="#D2D4D4"/>
<path d="M95.425 222.296L79.1616 225.64L79.4008 226.595L95.6641 223.251L95.425 222.296Z" fill="#ECECEB"/>
<path d="M114.799 217.759L98.5352 221.102L99.2526 224.685L115.516 221.341L114.799 217.759Z" fill="#D2D4D4"/>
<path d="M115.035 219.191L44.959 233.521L45.4373 235.671L115.513 221.341L115.035 219.191Z" fill="#D2D4D4"/>
<path d="M114.799 218.475L98.5352 221.818L98.7743 222.774L115.038 219.43L114.799 218.475Z" fill="#ECECEB"/>
<path d="M56.6813 229.46L40.418 232.804L41.1355 236.387L57.3988 233.043L56.6813 229.46Z" fill="#D2D4D4"/>
<path d="M56.6813 230.178L40.418 233.521L40.6571 234.477L56.9205 231.133L56.6813 230.178Z" fill="#ECECEB"/>
<path d="M115.274 220.864L40.8926 235.91L41.1318 236.388L115.513 221.341L115.274 220.864Z" fill="#8C8F90"/>
<path d="M115.274 220.386L40.8926 235.432L41.1318 235.91L115.513 220.864L115.274 220.386Z" fill="#B8BBBB"/>
<path d="M87.0542 64.1902L5.7373 80.6696L5.97645 81.8638L87.2933 65.3843L87.0542 64.1902Z" fill="#B18E64"/>
<path d="M87.0542 63.4729L5.7373 79.9523L5.97645 81.1464L87.2933 64.6671L87.0542 63.4729Z" fill="#A2815B"/>
<path d="M188.937 175.246L110.969 191.009L111.208 192.203L189.176 176.44L188.937 175.246Z" fill="#B18E64"/>
<path d="M112.404 191.487L86.5743 65.1453L85.3784 65.384L111.208 191.726L112.404 191.487Z" fill="#B18E64"/>
<path d="M112.882 190.771L87.0523 64.1902L85.8564 64.429L111.687 191.01L112.882 190.771Z" fill="#A2815B"/>
<path d="M188.939 174.53L111.688 190.293L111.927 191.487L189.178 175.724L188.939 174.53Z" fill="#A2815B"/>
<path d="M153.065 58.2189L100.209 68.9663C99.0135 69.2051 98.5352 70.1604 98.5352 71.3546L120.06 177.635C120.299 178.829 121.256 179.307 122.452 179.307L175.308 168.559C176.504 168.32 176.982 167.365 176.982 166.171L155.457 59.8907C155.218 58.6965 154.022 57.98 153.065 58.2189Z" fill="#494B4C"/>
<path d="M121.968 74.6989L135.122 72.0718L140.862 99.7763L127.708 102.403L121.968 74.6989Z" fill="#5C6060"/>
<path d="M142.301 113.389L131.777 115.539L141.822 164.977L152.346 162.827L142.301 113.389Z" stroke="#D2D4D4" stroke-width="0.2465"/>
<path d="M121.731 114.344C123.166 114.105 123.883 112.672 123.644 111.478C123.405 110.045 121.97 109.328 120.774 109.567C119.339 109.806 118.622 111.239 118.861 112.433C119.1 113.866 120.296 114.583 121.731 114.344Z" stroke="#D2D4D4" stroke-width="0.2614" stroke-miterlimit="10"/>
<path d="M141.341 141.81C142.776 142.049 143.972 141.332 144.451 139.899C144.69 138.466 143.972 137.272 142.537 136.794C141.102 136.555 139.906 137.272 139.428 138.705C139.189 140.138 139.906 141.332 141.341 141.81Z" stroke="#D2D4D4" stroke-width="0.2614" stroke-miterlimit="10"/>
<path d="M126.995 138.705L124.125 143.004L128.431 145.87" stroke="#D2D4D4" stroke-width="0.1942"/>
<path d="M141.584 119.599L137.279 116.733L134.409 121.032" stroke="#D2D4D4" stroke-width="0.1942"/>
<path d="M149.239 157.334L146.369 161.633L142.064 158.767" stroke="#D2D4D4" stroke-width="0.1942"/>
<path d="M155.451 132.974L159.756 135.84L156.886 139.9" stroke="#D2D4D4" stroke-width="0.1942"/>
<path d="M150.914 108.373C152.349 108.134 153.066 106.701 152.827 105.507C152.588 104.074 151.153 103.357 149.957 103.596C148.522 103.835 147.805 105.268 148.044 106.462C148.044 107.895 149.479 108.85 150.914 108.373Z" stroke="#D2D4D4" stroke-width="0.2614" stroke-miterlimit="10"/>
<path d="M122.45 179.068C122.211 179.068 121.972 179.068 121.732 179.068C121.493 179.068 121.254 178.829 121.015 178.829C120.776 178.59 120.537 178.59 120.537 178.351C120.297 178.113 120.297 177.874 120.297 177.635L98.7723 71.3548C98.7723 70.8771 98.7723 70.6383 98.7723 70.1606C98.5331 70.3995 98.2939 70.6384 98.2939 71.116C98.2939 71.3549 98.2939 71.8325 98.2939 72.0713L120.058 178.113C120.058 178.351 120.297 178.59 120.297 178.829C120.536 179.068 120.536 179.307 120.776 179.307C121.015 179.546 121.254 179.546 121.493 179.546C121.732 179.546 121.972 179.546 122.211 179.546L175.067 168.798C175.306 168.798 175.784 168.559 176.023 168.32C176.262 168.082 176.502 167.843 176.502 167.604C176.263 167.843 175.784 168.082 175.545 168.082L122.45 179.068Z" fill="#F4D5A6"/>
<path d="M2.86643 62.5178L2.14893 62.7567L30.1315 200.562L30.849 200.324L2.86643 62.5178Z" fill="#C9A46F"/>
<path d="M38.2624 236.148L37.5449 236.387L40.6541 252.15L41.3716 251.911L38.2624 236.148Z" fill="#C9A46F"/>
<path d="M84.4229 243.074L84.1837 242.358L40.6553 251.195L40.8945 251.911L84.4229 243.074Z" fill="#C9A46F"/>
<path d="M198.029 219.908L197.79 219.191L83.2285 242.597L83.4677 243.313L198.029 219.908Z" fill="#C9A46F"/>
<path d="M159.524 30.7532L158.806 30.992L188.224 174.769L188.941 174.53L159.524 30.7532Z" fill="#F4D5A6"/>
<path d="M159.76 31.4697L159.521 30.7532L2.14893 62.7567L2.38807 63.4731L159.76 31.4697Z" fill="#F4D5A6"/>
<path d="M194.438 201.996L193.72 202.234L197.308 219.43L198.025 219.192L194.438 201.996Z" fill="#F4D5A6"/>
<path d="M188.94 174.53L188.223 174.769L194.441 205.339L195.158 205.1L188.94 174.53Z" fill="#DCB484"/>
<path d="M40.1756 203.906L17.6939 93.5661C16.7372 88.3118 16.7372 83.0575 16.9764 78.042C16.4981 78.042 14.5847 87.834 15.7806 94.0437L38.2623 204.384L41.8498 230.655L42.3281 232.566L44.2415 232.088L40.1756 203.906Z" fill="#B18E64"/>
<path d="M40.8923 203.668L18.4105 93.3273C17.4539 88.3118 16.9755 83.0575 17.2147 77.8032C16.7364 77.8032 15.3014 87.5953 16.4972 93.5661L38.9789 203.906L42.5664 230.178L43.0447 232.089L44.9581 231.611L40.8923 203.668Z" fill="#A2815B"/>
<path d="M52.6145 230.177L52.1362 228.267L44.2437 229.938L44.722 231.849L52.6145 230.177Z" fill="#D4D6D5"/>
<path d="M44.2446 229.939L40.418 203.906L45.4405 202.951L52.1371 228.506L44.2446 229.939Z" fill="#BDBFC0"/>
<path d="M44.2403 229.939L41.8486 203.428L44.0012 202.951L52.1328 228.267L44.2403 229.939Z" fill="#B1B3B5"/>
<path d="M44.2409 229.938L41.3709 203.667H40.8926L44.2409 229.938Z" fill="#75797B"/>
<path d="M45.4376 202.951L52.1343 228.506L44.481 203.19L45.4376 202.951Z" fill="#CED0CF"/>
<path d="M22.9582 92.372C21.7624 86.1623 17.9357 77.8032 17.4573 77.8032C16.979 77.8032 16.7398 87.3565 17.9357 93.3273L40.4174 203.668L45.4399 202.712L22.9582 92.372Z" fill="#BDBFC0"/>
<path d="M44.0016 203.19L21.5198 92.8494C20.324 86.6397 17.6932 77.803 17.2148 78.0419C17.9323 78.0419 20.8023 86.6397 22.2373 92.8494L44.7191 203.19H44.0016Z" fill="white"/>
<path d="M41.1331 203.668L18.6513 93.3273C18.173 87.1177 16.9772 78.5197 17.2163 77.8032C16.738 77.8032 16.9771 87.1177 18.173 93.3273L40.6547 203.668H41.1331Z" fill="#75797B"/>
<path d="M41.8495 203.667L19.3678 93.3272C18.6503 87.1176 17.2153 78.5197 17.2153 78.042C16.7369 78.042 17.4544 87.3564 18.6502 93.5661L41.132 203.906L41.8495 203.667Z" fill="#CED0CF"/>
<path d="M35.6353 154.946L30.6128 155.901V156.14L35.6353 154.946Z" fill="#ECECEB"/>
<path d="M35.6353 155.185L30.6128 156.141V156.379L35.6353 155.185Z" fill="#75797B"/>
<path d="M38.9795 197.218L39.4578 200.085L44.4803 199.129L44.002 196.263" fill="#292C2F"/>
<path d="M43.2854 196.263L43.7637 199.129L43.0462 199.368L42.5679 196.502" fill="#75797B"/>
<path d="M39.4575 196.98L39.9359 199.846H40.4142L39.9359 196.98" fill="#14181B"/>
<path d="M39.936 196.98L40.4144 199.846L41.1319 199.607L40.6535 196.741" fill="#2C2F31"/>
<path d="M44.2445 229.939L41.3745 203.667L42.092 203.428L44.2445 229.939Z" fill="#DADCDC"/>
<path d="M52.1365 228.267L44.4831 202.951L43.7656 203.19L52.1365 228.267Z" fill="white"/>
<path d="M59.5496 200.084L37.0679 89.7438C36.3504 84.4895 36.1113 79.474 36.3504 74.2197C35.8721 74.2197 33.9587 84.0119 35.1546 90.2215L57.6363 200.562L61.2238 226.833L61.7021 228.744L63.6155 228.266L59.5496 200.084Z" fill="#B18E64"/>
<path d="M60.0285 199.846L37.5468 89.506C36.5901 84.4905 36.1118 79.2362 36.3509 73.9819C35.8726 73.9819 34.4376 83.774 35.6334 89.7448L58.1151 200.085L61.7026 226.357L62.181 228.267L64.0943 227.79L60.0285 199.846Z" fill="#A2815B"/>
<path d="M71.7434 226.357L71.2651 224.446L63.3726 226.118L63.8509 228.029L71.7434 226.357Z" fill="#D4D6D5"/>
<path d="M63.3735 226.118L59.5469 199.847L64.5694 198.892L71.2661 224.447L63.3735 226.118Z" fill="#BDBFC0"/>
<path d="M63.377 226.117L60.9854 199.607L63.1379 199.129L71.2696 224.446L63.377 226.117Z" fill="#B1B3B5"/>
<path d="M63.3771 226.117L60.5071 199.846H60.0288L63.3771 226.117Z" fill="#75797B"/>
<path d="M64.5704 198.892L71.2671 224.447L63.6138 199.13L64.5704 198.892Z" fill="#CED0CF"/>
<path d="M42.3265 88.5507C41.1306 82.3411 37.3039 73.9819 36.8256 73.9819C36.1081 73.9819 36.1081 83.5352 37.3039 89.506L59.7856 199.846L64.8082 198.891L42.3265 88.5507Z" fill="#BDBFC0"/>
<path d="M63.1378 199.129L40.6561 88.7884C39.4602 82.5788 36.8294 73.742 36.3511 73.9808C37.0686 73.9808 39.9386 82.5788 41.3736 88.7884L63.8553 199.129H63.1378Z" fill="white"/>
<path d="M60.5066 199.846L38.0249 89.506C37.5465 83.2964 36.3507 74.6984 36.5899 73.9819C36.1115 73.9819 36.3507 83.2964 37.5465 89.506L60.0283 200.085L60.5066 199.846Z" fill="#75797B"/>
<path d="M61.2235 199.607L38.7418 89.2671C38.0243 83.0575 36.5893 74.4596 36.5893 73.9819C36.1109 73.9819 36.8285 83.2964 38.0243 89.506L60.506 199.846L61.2235 199.607Z" fill="#CED0CF"/>
<path d="M55.0049 151.124L49.9824 152.08V152.318L55.0049 151.124Z" fill="#ECECEB"/>
<path d="M55.0049 151.124L49.9824 152.08V152.318L55.0049 151.124Z" fill="#75797B"/>
<path d="M58.353 193.159L58.8314 196.025L63.8539 195.07L63.3755 192.204" fill="#292C2F"/>
<path d="M62.4182 192.442L62.8965 195.308L62.179 195.546L61.7007 192.68" fill="#75797B"/>
<path d="M58.5903 193.159L59.0687 196.025H59.547L59.0687 193.398" fill="#14181B"/>
<path d="M59.0723 193.159L59.5506 195.786L60.2681 195.547L59.7897 192.681" fill="#2C2F31"/>
<path d="M63.3773 226.117L60.5073 199.846H61.2248L63.3773 226.117Z" fill="#DADCDC"/>
<path d="M71.51 224.446L63.8567 199.129L63.1392 199.368L71.51 224.446Z" fill="white"/>
<path d="M78.9232 196.025L56.4415 85.6847C55.4848 80.4304 55.4848 75.1761 55.724 70.1606C55.2456 70.1606 53.3323 79.9528 54.5281 86.1624L77.0099 196.503L80.5974 222.774L81.0757 224.685L82.989 224.207L78.9232 196.025Z" fill="#B18E64"/>
<path d="M79.6393 196.025L57.1576 85.6847C56.2009 80.6692 55.7226 75.4149 55.9618 70.1606C55.4834 70.1606 54.0484 79.9528 55.2443 85.9236L77.726 196.264L81.3135 222.535L81.7919 224.446L83.7052 223.968L79.6393 196.025Z" fill="#A2815B"/>
<path d="M91.1209 222.534L90.6425 220.624L82.75 222.296L83.2283 224.206L91.1209 222.534Z" fill="#D4D6D5"/>
<path d="M82.7471 222.058L78.9204 196.025L83.9429 195.07L90.6396 220.625L82.7471 222.058Z" fill="#BDBFC0"/>
<path d="M82.7467 222.058L80.355 195.548L82.5075 195.07L90.6392 220.386L82.7467 222.058Z" fill="#B1B3B5"/>
<path d="M82.7473 222.057L79.8773 195.786H79.3989L82.7473 222.057Z" fill="#75797B"/>
<path d="M84.1852 195.07L90.8819 220.625L83.2285 195.309L84.1852 195.07Z" fill="#CED0CF"/>
<path d="M61.4606 84.4905C60.2648 78.2809 56.4381 69.9219 55.9598 69.9219C55.4814 69.9219 55.2423 79.4751 56.4381 85.4459L78.9198 195.786L83.9423 194.831L61.4606 84.4905Z" fill="#BDBFC0"/>
<path d="M82.5079 195.308L60.0262 84.9681C58.8304 78.7585 56.1995 69.9217 55.7212 70.1605C56.4387 70.1605 59.3087 78.7585 60.7437 84.9681L83.2254 195.308H82.5079Z" fill="white"/>
<path d="M79.8762 195.786L57.3945 85.4459C56.9161 79.2363 55.7203 70.6384 55.9595 69.9219C55.4812 69.9219 55.7203 79.2363 56.9161 85.4459L79.3979 195.786H79.8762Z" fill="#75797B"/>
<path d="M80.5971 195.786L58.1153 85.4459C57.3978 79.2363 55.9628 70.6383 55.9628 70.1606C55.4845 70.1606 56.202 79.4751 57.3978 85.6847L79.8795 196.025L80.5971 195.786Z" fill="#CED0CF"/>
<path d="M74.3746 147.064L69.3521 148.019V148.258L74.3746 147.064Z" fill="#ECECEB"/>
<path d="M74.3746 147.304L69.3521 148.259V148.498L74.3746 147.304Z" fill="#75797B"/>
<path d="M77.7271 189.338L78.2054 192.204L83.2279 191.249L82.7496 188.383" fill="#292C2F"/>
<path d="M81.7917 188.383L82.2701 191.249H81.5525L81.0742 188.621" fill="#75797B"/>
<path d="M77.9678 189.098L78.4461 191.964H78.9244L78.4461 189.098" fill="#14181B"/>
<path d="M78.4424 189.099L78.9207 191.965L79.6382 191.726L79.1599 188.86" fill="#2C2F31"/>
<path d="M82.7509 222.058L79.8809 195.786L80.5984 195.548L82.7509 222.058Z" fill="#DADCDC"/>
<path d="M90.8801 220.624L83.2268 195.308L82.5093 195.547L90.8801 220.624Z" fill="white"/>
<path d="M98.0555 192.203L75.5738 81.8632C74.6171 76.6089 74.6171 71.5934 74.8563 66.3391C74.3779 66.3391 72.4646 76.1312 73.6604 82.3408L96.1422 192.681L99.7297 218.953L100.208 220.863L102.121 220.386L98.0555 192.203Z" fill="#B18E64"/>
<path d="M99.0095 191.965L76.5277 81.6244C75.571 76.6089 75.3319 71.3546 75.3319 66.1003C74.8535 66.1003 73.4186 75.8925 74.6144 81.8632L97.0961 192.442L100.684 218.714L101.162 220.624L103.075 220.147L99.0095 191.965Z" fill="#A2815B"/>
<path d="M110.491 218.475L110.013 216.565L102.12 218.236L102.598 220.147L110.491 218.475Z" fill="#D4D6D5"/>
<path d="M102.121 218.236L98.2939 192.203L103.316 191.248L110.013 216.803L102.121 218.236Z" fill="#BDBFC0"/>
<path d="M102.121 218.236L99.729 191.725L101.881 191.248L110.013 216.564L102.121 218.236Z" fill="#B1B3B5"/>
<path d="M102.125 218.236L99.2547 191.964H98.7764L102.125 218.236Z" fill="#75797B"/>
<path d="M103.318 191.009L110.014 216.564L102.361 191.248L103.318 191.009Z" fill="#CED0CF"/>
<path d="M80.8367 80.6691C79.6409 74.4595 75.8142 66.1003 75.3358 66.1003C74.6183 66.1003 74.6184 75.6536 75.8142 81.6244L98.2959 191.965L103.318 191.009L80.8367 80.6691Z" fill="#BDBFC0"/>
<path d="M102.119 191.248L79.637 80.9079C78.4412 74.6982 75.8104 66.1003 75.332 66.1003C76.0495 66.1003 78.9196 74.6982 80.3546 80.9079L102.836 191.248H102.119Z" fill="white"/>
<path d="M99.2502 191.965L76.7685 81.6244C76.2902 75.4148 75.0943 66.8168 75.3335 66.1003C74.8552 66.1003 75.0944 75.4148 76.2902 81.6244L98.7719 191.965H99.2502Z" fill="#75797B"/>
<path d="M99.9706 191.726L77.4889 81.3856C76.7714 75.1759 75.3364 66.578 75.3364 66.1003C74.858 66.1003 75.5755 75.4148 76.7714 81.6244L99.2531 191.965L99.9706 191.726Z" fill="#CED0CF"/>
<path d="M93.752 143.243L88.7295 144.198V144.437L93.752 143.243Z" fill="#ECECEB"/>
<path d="M93.752 143.243L88.7295 144.198V144.437L93.752 143.243Z" fill="#75797B"/>
<path d="M97.0967 185.278L97.575 188.144L102.598 187.188L102.119 184.561" fill="#292C2F"/>
<path d="M101.166 184.561L101.644 187.427L100.927 187.666L100.448 184.8" fill="#75797B"/>
<path d="M97.334 185.278L97.8123 188.144H98.2906L97.8123 185.278" fill="#14181B"/>
<path d="M97.8159 185.278L98.2942 188.144L99.0118 187.905L98.5334 185.039" fill="#2C2F31"/>
<path d="M102.117 218.236L99.2466 191.964H99.9641L102.117 218.236Z" fill="#DADCDC"/>
<path d="M110.254 216.564L102.6 191.248L101.883 191.487L110.254 216.564Z" fill="white"/>
</g>
<defs>
<clipPath id="clip0_6641_13187">
<rect width="435" height="296" fill="white"/>
</clipPath>
</defs>
</svg>
